solid command-display-pause
facet normal -1.26835142068666e-019 -1.0 8.42554917751702e-019
outer loop
vertex 19.8427217495944 2.9 1.0
vertex 2.9 2.9 -1.05129121553971e-015
vertex 19.8427217495944 2.9 -2.30774600817885e-015
endloop
endfacet
facet normal -1.26835142068666e-019 -1.0 8.42554917751702e-019
outer loop
vertex 2.9 2.9 -1.05129121553971e-015
vertex 19.8427217495944 2.9 1.0
vertex 2.89999999999999 2.9 0.999999999999984
endloop
endfacet
facet normal -1.0 -1.16638323392413e-015 -9.78275620233671e-015
outer loop
vertex 2.89999999999998 17.3999999999999 0.999999999999987
vertex 2.9 2.9 -1.05129121553971e-015
vertex 2.89999999999999 2.9 0.999999999999984
endloop
endfacet
facet normal -1.0 -1.16638323392413e-015 -9.78275620233671e-015
outer loop
vertex 2.9 2.9 -1.05129121553971e-015
vertex 2.89999999999998 17.3999999999999 0.999999999999987
vertex 2.89999999999999 17.3999999999999 1.79001778677357e-015
endloop
endfacet
facet normal 1.0 8.23756050859867e-019 4.10739151024409e-015
outer loop
vertex 19.8427217495944 17.4 -7.96420221438332e-015
vertex 19.8427217495944 2.9 1.0
vertex 19.8427217495944 2.9 -2.30774600817885e-015
endloop
endfacet
facet normal 1.0 8.23756050859867e-019 4.10739151024409e-015
outer loop
vertex 19.8427217495944 2.9 1.0
vertex 19.8427217495944 17.4 -7.96420221438332e-015
vertex 19.8427217495944 17.4 0.999999999999994
endloop
endfacet
facet normal -0.868524676924532 9.96902606685558e-017 0.495645927626908
outer loop
vertex 8.78863759411591 1.97387419836977e-017 24.7502562054754
vertex 0.238637594115983 20.3 9.76801672000458
vertex 0.238637594115983 -1.12716661073006e-014 9.76801672000459
endloop
endfacet
facet normal -0.868524676924532 9.96902606685558e-017 0.495645927626908
outer loop
vertex 0.238637594115983 20.3 9.76801672000458
vertex 8.78863759411591 1.97387419836977e-017 24.7502562054754
vertex 8.7886375941159 20.3 24.7502562054754
endloop
endfacet
facet normal -1.07166750042443e-015 1.0 -8.2924928036674e-016
outer loop
vertex 5.93408586130638 1.89999999999997 16.0060275714155
vertex 29.4393252152135 1.9 12.827576148484
vertex 24.9393252152135 1.9 5.03334751442404
endloop
endfacet
facet normal -1.07166750042443e-015 1.0 -8.2924928036674e-016
outer loop
vertex 29.4393252152135 1.9 12.827576148484
vertex 5.93408586130638 1.89999999999997 16.0060275714155
vertex 10.4340858613064 1.9 23.8002562054754
endloop
endfacet
facet normal -1.26835142068666e-019 -1.0 8.42554917751702e-019
outer loop
vertex 29.4393252152135 18.4 12.827576148484
vertex 5.93408586130638 18.4 16.0060275714155
vertex 24.9393252152136 18.4 5.03334751442403
endloop
endfacet
facet normal -1.26835142068666e-019 -1.0 8.42554917751702e-019
outer loop
vertex 5.93408586130638 18.4 16.0060275714155
vertex 29.4393252152135 18.4 12.827576148484
vertex 10.4340858613064 18.4 23.8002562054754
endloop
endfacet
facet normal -0.866025403784441 1.6508603487032e-015 0.499999999999996
outer loop
vertex 29.4393252152135 1.9 12.827576148484
vertex 28.3892584942211 6.85000108033377 11.0089647678249
vertex 24.9393252152135 1.9 5.03334751442404
endloop
endfacet
facet normal -0.866025403784441 1.6508603487032e-015 0.499999999999996
outer loop
vertex 28.3892584942211 6.85000108033377 11.0089647678249
vertex 29.4393252152135 1.9 12.827576148484
vertex 29.4393252152135 18.4 12.827576148484
endloop
endfacet
facet normal -0.866025403784441 1.6508603487032e-015 0.499999999999996
outer loop
vertex 28.3892584942211 6.85000108033377 11.0089647678249
vertex 29.4393252152135 18.4 12.827576148484
vertex 28.3892584942211 13.4500010803295 11.0089647678249
endloop
endfacet
facet normal -0.866025403784441 1.6508603487032e-015 0.499999999999996
outer loop
vertex 28.3892584942211 13.4500010803295 11.0089647678249
vertex 29.4393252152135 18.4 12.827576148484
vertex 25.0892530884671 13.4500010803295 5.29320022389622
endloop
endfacet
facet normal -0.866025403784441 1.6508603487032e-015 0.499999999999996
outer loop
vertex 24.9393252152135 1.9 5.03334751442404
vertex 25.0892462809165 6.85000108033377 5.29320415424597
vertex 24.9393252152136 18.4 5.03334751442403
endloop
endfacet
facet normal -0.866025403784441 1.6508603487032e-015 0.499999999999996
outer loop
vertex 25.0892462809165 6.85000108033377 5.29320415424597
vertex 24.9393252152135 1.9 5.03334751442404
vertex 28.3892584942211 6.85000108033377 11.0089647678249
endloop
endfacet
facet normal -0.866025403784441 1.6508603487032e-015 0.499999999999996
outer loop
vertex 24.9393252152136 18.4 5.03334751442403
vertex 25.0892462809165 6.85000108033377 5.29320415424597
vertex 25.0892530884671 13.4500010803295 5.29320022389622
endloop
endfacet
facet normal -0.866025403784441 1.6508603487032e-015 0.499999999999996
outer loop
vertex 24.9393252152136 18.4 5.03334751442403
vertex 25.0892530884671 13.4500010803295 5.29320022389622
vertex 29.4393252152135 18.4 12.827576148484
endloop
endfacet
facet normal 0.86602540378444 1.18515469083758e-016 -0.499999999999998
outer loop
vertex 5.93408586130638 18.4 16.0060275714155
vertex 10.4340858613064 1.9 23.8002562054754
vertex 5.93408586130638 1.89999999999997 16.0060275714155
endloop
endfacet
facet normal 0.86602540378444 1.18515469083758e-016 -0.499999999999998
outer loop
vertex 10.4340858613064 1.9 23.8002562054754
vertex 5.93408586130638 18.4 16.0060275714155
vertex 10.4340858613064 18.4 23.8002562054754
endloop
endfacet
facet normal -1.33140254920394e-015 1.0 -8.42554917760851e-019
outer loop
vertex 2.89999999999999 17.3999999999999 1.79001778677357e-015
vertex 19.8427217495944 17.4 0.999999999999994
vertex 19.8427217495944 17.4 -7.96420221438332e-015
endloop
endfacet
facet normal -1.33140254920394e-015 1.0 -8.42554917760851e-019
outer loop
vertex 19.8427217495944 17.4 0.999999999999994
vertex 2.89999999999999 17.3999999999999 1.79001778677357e-015
vertex 2.89999999999998 17.3999999999999 0.999999999999987
endloop
endfacet
facet normal 0.501679140773931 -0.0019410800954649 0.865051600727028
outer loop
vertex 31.0713760227824 1.12858903702485e-014 11.827576148484
vertex 10.4340858613064 1.9 23.8002562054754
vertex 8.78863759411591 1.97387419836977e-017 24.7502562054754
endloop
endfacet
facet normal 0.499826959676418 -0.0263066820882345 0.865725689152249
outer loop
vertex 31.0713760227824 1.12858903702485e-014 11.827576148484
vertex 29.4393252152135 1.9 12.827576148484
vertex 10.4340858613064 1.9 23.8002562054754
endloop
endfacet
facet normal 0.522452217831832 2.62721873618062e-016 0.852668564028603
outer loop
vertex 31.0713760227824 1.12858903702485e-014 11.827576148484
vertex 29.4393252152135 18.4 12.827576148484
vertex 29.4393252152135 1.9 12.827576148484
endloop
endfacet
facet normal 0.522452217831832 2.62721873618062e-016 0.852668564028603
outer loop
vertex 29.4393252152135 18.4 12.827576148484
vertex 31.0713760227824 1.12858903702485e-014 11.827576148484
vertex 31.0713760227824 20.3 11.827576148484
endloop
endfacet
facet normal 0.501531289381103 0.0243537436160372 0.864796658725976
outer loop
vertex 31.0713760227824 20.3 11.827576148484
vertex 8.7886375941159 20.3 24.7502562054754
vertex 29.4393252152135 18.4 12.827576148484
endloop
endfacet
facet normal 0.499999999999995 6.21297631996009e-016 0.866025403784442
outer loop
vertex 10.4340858613064 1.9 23.8002562054754
vertex 10.4340858613064 18.4 23.8002562054754
vertex 8.78863759411591 1.97387419836977e-017 24.7502562054754
endloop
endfacet
facet normal 0.499999999999995 6.21297631996009e-016 0.866025403784442
outer loop
vertex 8.7886375941159 20.3 24.7502562054754
vertex 10.4340858613064 18.4 23.8002562054754
vertex 29.4393252152135 18.4 12.827576148484
endloop
endfacet
facet normal 0.499999999999995 6.21297631996009e-016 0.866025403784442
outer loop
vertex 10.4340858613064 18.4 23.8002562054754
vertex 8.7886375941159 20.3 24.7502562054754
vertex 8.78863759411591 1.97387419836977e-017 24.7502562054754
endloop
endfacet
facet normal -4.88973808375261e-007 -0.999999999999841 2.82309776498554e-007
outer loop
vertex 30.0213078095803 13.4499999999896 10.008962183247
vertex 25.0892530884671 13.4500010803295 5.29320022389622
vertex 26.7213024038264 13.4499999999896 4.29319763931836
endloop
endfacet
facet normal -4.88973808375261e-007 -0.999999999999841 2.82309776498554e-007
outer loop
vertex 25.0892530884671 13.4500010803295 5.29320022389622
vertex 30.0213078095803 13.4499999999896 10.008962183247
vertex 28.3892584942211 13.4500010803295 11.0089647678249
endloop
endfacet
facet normal 0.52245354687038 -3.11131022951132e-008 0.852667749690674
outer loop
vertex 26.7212955962758 6.84999999999389 4.29320156966811
vertex 25.0892530884671 13.4500010803295 5.29320022389622
vertex 25.0892462809165 6.85000108033377 5.29320415424597
endloop
endfacet
facet normal 0.52245354687038 -3.11131022951132e-008 0.852667749690674
outer loop
vertex 25.0892530884671 13.4500010803295 5.29320022389622
vertex 26.7212955962758 6.84999999999389 4.29320156966811
vertex 26.7213024038264 13.4499999999896 4.29319763931836
endloop
endfacet
facet normal 4.88973456921937e-007 0.999999999999841 -2.82310350086228e-007
outer loop
vertex 25.0892462809165 6.85000108033377 5.29320415424597
vertex 30.0213078095803 6.84999999999389 10.008962183247
vertex 26.7212955962758 6.84999999999389 4.29320156966811
endloop
endfacet
facet normal 4.88973456921937e-007 0.999999999999841 -2.82310350086228e-007
outer loop
vertex 30.0213078095803 6.84999999999389 10.008962183247
vertex 25.0892462809165 6.85000108033377 5.29320415424597
vertex 28.3892584942211 6.85000108033377 11.0089647678249
endloop
endfacet
facet normal -0.522453546870393 -4.56268199293751e-016 -0.852667749690667
outer loop
vertex 30.0213078095803 13.4499999999896 10.008962183247
vertex 28.3892584942211 6.85000108033377 11.0089647678249
vertex 28.3892584942211 13.4500010803295 11.0089647678249
endloop
endfacet
facet normal -0.522453546870393 -4.56268199293751e-016 -0.852667749690667
outer loop
vertex 28.3892584942211 6.85000108033377 11.0089647678249
vertex 30.0213078095803 13.4499999999896 10.008962183247
vertex 30.0213078095803 6.84999999999389 10.008962183247
endloop
endfacet
facet normal -7.53910291455321e-016 -7.62153103391328e-017 1.0
outer loop
vertex 1.40168008588791 0.899999999999998 1.36505323039884
vertex 23.8444018354823 19.4 1.36505323039886
vertex 1.40168008588789 19.4 1.36505323039884
endloop
endfacet
facet normal -7.53910291455321e-016 -7.62153103391328e-017 1.0
outer loop
vertex 23.8444018354823 19.4 1.36505323039886
vertex 1.40168008588791 0.899999999999998 1.36505323039884
vertex 23.8444018354823 0.899999999999998 1.36505323039886
endloop
endfacet
facet normal 1.93427692303854e-016 -0.941828142947524 -0.336094851421468
outer loop
vertex 24.4393252152136 18.4 4.16732211063959
vertex 1.40168008588789 19.4 1.36505323039884
vertex 23.8444018354823 19.4 1.36505323039886
endloop
endfacet
facet normal 3.10290256404097e-016 0.941828142947523 -0.33609485142147
outer loop
vertex 24.4393252152135 1.9 4.1673221106396
vertex 23.8444018354823 0.899999999999998 1.36505323039886
vertex 1.40168008588791 0.899999999999998 1.36505323039884
endloop
endfacet
facet normal -0.0357616287857272 -0.997438932279249 -0.0619409580182981
outer loop
vertex 5.43408586130637 18.4 15.140002167631
vertex 1.40168008588789 19.4 1.36505323039884
vertex 24.4393252152136 18.4 4.16732211063959
endloop
endfacet
facet normal 0.500323135743842 0.000373285284971937 0.865838680411972
outer loop
vertex 15.6944120912456 7.55 16.1466337808019
vertex 16.606679881719 9.73588952783597 15.6176943559453
vertex 16.5594653216444 10.15 15.644953694914
endloop
endfacet
facet normal 0.500323135743842 0.000373285284971937 0.865838680411972
outer loop
vertex 16.606679881719 9.73588952783597 15.6176943559453
vertex 15.6944120912456 7.55 16.1466337808019
vertex 16.7451059676995 9.35 15.5377740179416
endloop
endfacet
facet normal 0.500323135743842 0.000373285284971937 0.865838680411972
outer loop
vertex 16.7451059676995 9.35 15.5377740179416
vertex 15.6944120912456 7.55 16.1466337808019
vertex 16.9653100705862 9.01862915010153 15.4106391198633
endloop
endfacet
facet normal 0.500323135743842 0.000373285284971937 0.865838680411972
outer loop
vertex 16.9653100705862 9.01862915010153 15.4106391198633
vertex 15.6944120912456 7.55 16.1466337808019
vertex 17.252285644672 8.76435935394489 15.244953694914
endloop
endfacet
facet normal 0.500323135743842 0.000373285284971937 0.865838680411972
outer loop
vertex 17.252285644672 8.76435935394489 15.244953694914
vertex 15.6944120912456 7.55 16.1466337808019
vertex 17.5864757788323 8.60451867793748 15.052008930996
endloop
endfacet
facet normal 0.500323135743842 0.000373285284971937 0.865838680411972
outer loop
vertex 17.5864757788323 8.60451867793748 15.052008930996
vertex 15.6944120912456 7.55 16.1466337808019
vertex 20.1957998441523 7.54999999999863 13.5432736090268
endloop
endfacet
facet normal 0.500323135743842 0.000373285284971937 0.865838680411972
outer loop
vertex 17.5864757788323 8.60451867793748 15.052008930996
vertex 20.1957998441523 7.54999999999863 13.5432736090268
vertex 17.9451059676995 8.55 14.844953694914
endloop
endfacet
facet normal 0.500323135743842 0.000373285284971937 0.865838680411972
outer loop
vertex 17.9451059676995 8.55 14.844953694914
vertex 20.1957998441523 7.54999999999863 13.5432736090268
vertex 18.3037361565667 8.60451867793748 14.637898458832
endloop
endfacet
facet normal 0.500323135743842 0.000373285284971937 0.865838680411972
outer loop
vertex 18.3037361565667 8.60451867793748 14.637898458832
vertex 20.1957998441523 7.54999999999863 13.5432736090268
vertex 18.6379262907271 8.76435935394489 14.444953694914
endloop
endfacet
facet normal 0.500323135743842 0.000373285284971937 0.865838680411972
outer loop
vertex 18.6379262907271 8.76435935394489 14.444953694914
vertex 20.1957998441523 7.54999999999863 13.5432736090268
vertex 18.9249018648128 9.01862915010151 14.2792682699648
endloop
endfacet
facet normal 0.500323135743842 0.000373285284971937 0.865838680411972
outer loop
vertex 18.9249018648128 9.01862915010151 14.2792682699648
vertex 20.1957998441523 7.54999999999863 13.5432736090268
vertex 19.043202775221 9.19665250530615 14.2109672074953
endloop
endfacet
facet normal 0.500323135743842 0.000373285284971937 0.865838680411972
outer loop
vertex 19.043202775221 9.19665250530615 14.2109672074953
vertex 20.1957998441523 7.54999999999863 13.5432736090268
vertex 19.1451059676995 9.35 14.1521333718865
endloop
endfacet
facet normal 0.500323135743842 0.000373285284971937 0.865838680411972
outer loop
vertex 19.1451059676995 9.35 14.1521333718865
vertex 20.1957998441523 7.54999999999863 13.5432736090268
vertex 19.28353205368 9.73588952783597 14.0722130338828
endloop
endfacet
facet normal 0.500323135743842 0.000373285284971937 0.865838680411972
outer loop
vertex 19.28353205368 9.73588952783597 14.0722130338828
vertex 20.1957998441523 7.54999999999863 13.5432736090268
vertex 19.3307466137546 10.15 14.044953694914
endloop
endfacet
facet normal 0.500323135743842 0.000373285284971937 0.865838680411972
outer loop
vertex 15.6924710074945 12.7500000000014 16.1432717251206
vertex 17.5864757788323 11.6954813220625 15.052008930996
vertex 20.1957998441535 12.75 13.5432736090261
endloop
endfacet
facet normal 0.500323135743842 0.000373285284971937 0.865838680411972
outer loop
vertex 17.5864757788323 11.6954813220625 15.052008930996
vertex 15.6924710074945 12.7500000000014 16.1432717251206
vertex 17.252285644672 11.5356406460551 15.244953694914
endloop
endfacet
facet normal 0.500323135743842 0.000373285284971937 0.865838680411972
outer loop
vertex 17.252285644672 11.5356406460551 15.244953694914
vertex 15.6924710074945 12.7500000000014 16.1432717251206
vertex 16.9653100705862 11.2813708498985 15.4106391198633
endloop
endfacet
facet normal 0.500323135743842 0.000373285284971937 0.865838680411972
outer loop
vertex 16.9653100705862 11.2813708498985 15.4106391198633
vertex 15.6924710074945 12.7500000000014 16.1432717251206
vertex 16.8470091601781 11.1033474946938 15.4789401823328
endloop
endfacet
facet normal 0.500323135743842 0.000373285284971937 0.865838680411972
outer loop
vertex 16.8470091601781 11.1033474946938 15.4789401823328
vertex 15.6924710074945 12.7500000000014 16.1432717251206
vertex 16.7451059676995 10.95 15.5377740179416
endloop
endfacet
facet normal 0.500323135743842 0.000373285284971937 0.865838680411972
outer loop
vertex 16.7451059676995 10.95 15.5377740179416
vertex 15.6924710074945 12.7500000000014 16.1432717251206
vertex 16.606679881719 10.564110472164 15.6176943559453
endloop
endfacet
facet normal 0.500323135743842 0.000373285284971937 0.865838680411972
outer loop
vertex 16.606679881719 10.564110472164 15.6176943559453
vertex 15.6924710074945 12.7500000000014 16.1432717251206
vertex 15.6944120912456 7.55 16.1466337808019
endloop
endfacet
facet normal 0.500323135743842 0.000373285284971937 0.865838680411972
outer loop
vertex 16.606679881719 10.564110472164 15.6176943559453
vertex 15.6944120912456 7.55 16.1466337808019
vertex 16.5594653216444 10.15 15.644953694914
endloop
endfacet
facet normal 0.500323135743842 0.000373285284971937 0.865838680411972
outer loop
vertex 20.1957998441535 12.75 13.5432736090261
vertex 17.5864757788323 11.6954813220625 15.052008930996
vertex 17.9451059676995 11.75 14.844953694914
endloop
endfacet
facet normal 0.500323135743842 0.000373285284971937 0.865838680411972
outer loop
vertex 20.1957998441535 12.75 13.5432736090261
vertex 17.9451059676995 11.75 14.844953694914
vertex 18.3037361565667 11.6954813220625 14.637898458832
endloop
endfacet
facet normal 0.500323135743842 0.000373285284971937 0.865838680411972
outer loop
vertex 20.1957998441535 12.75 13.5432736090261
vertex 18.3037361565667 11.6954813220625 14.637898458832
vertex 18.6379262907271 11.5356406460551 14.444953694914
endloop
endfacet
facet normal 0.500323135743842 0.000373285284971937 0.865838680411972
outer loop
vertex 20.1957998441535 12.75 13.5432736090261
vertex 18.6379262907271 11.5356406460551 14.444953694914
vertex 18.9249018648128 11.2813708498985 14.2792682699648
endloop
endfacet
facet normal 0.500323135743842 0.000373285284971937 0.865838680411972
outer loop
vertex 20.1957998441535 12.75 13.5432736090261
vertex 18.9249018648128 11.2813708498985 14.2792682699648
vertex 19.1451059676995 10.95 14.1521333718865
endloop
endfacet
facet normal 0.500323135743842 0.000373285284971937 0.865838680411972
outer loop
vertex 20.1957998441535 12.75 13.5432736090261
vertex 19.1451059676995 10.95 14.1521333718865
vertex 19.28353205368 10.564110472164 14.0722130338828
endloop
endfacet
facet normal 0.500323135743842 0.000373285284971937 0.865838680411972
outer loop
vertex 20.1957998441535 12.75 13.5432736090261
vertex 19.28353205368 10.564110472164 14.0722130338828
vertex 19.3307466137546 10.15 14.044953694914
endloop
endfacet
facet normal 0.500323135743842 0.000373285284971937 0.865838680411972
outer loop
vertex 20.1957998441535 12.75 13.5432736090261
vertex 19.3307466137546 10.15 14.044953694914
vertex 20.1957998441523 7.54999999999863 13.5432736090268
endloop
endfacet
facet normal -0.50014939274732 0.000172537858491381 -0.865939117470261
outer loop
vertex 15.1923986467379 12.7499999999989 15.2771149603443
vertex 16.106679881719 10.564110472164 14.7516689521608
vertex 16.0594653216444 10.15 14.7789282911296
endloop
endfacet
facet normal -0.50014939274732 0.000172537858491381 -0.865939117470261
outer loop
vertex 16.106679881719 10.564110472164 14.7516689521608
vertex 15.1923986467379 12.7499999999989 15.2771149603443
vertex 16.2451059676995 10.95 14.6717486141571
endloop
endfacet
facet normal -0.50014939274732 0.000172537858491381 -0.865939117470261
outer loop
vertex 16.2451059676995 10.95 14.6717486141571
vertex 15.1923986467379 12.7499999999989 15.2771149603443
vertex 16.4653100705862 11.2813708498985 14.5446137160788
endloop
endfacet
facet normal -0.50014939274732 0.000172537858491381 -0.865939117470261
outer loop
vertex 16.4653100705862 11.2813708498985 14.5446137160788
vertex 15.1923986467379 12.7499999999989 15.2771149603443
vertex 16.752285644672 11.5356406460551 14.3789282911296
endloop
endfacet
facet normal -0.50014939274732 0.000172537858491381 -0.865939117470261
outer loop
vertex 16.752285644672 11.5356406460551 14.3789282911296
vertex 15.1923986467379 12.7499999999989 15.2771149603443
vertex 17.0864757788323 11.6954813220625 14.1859835272116
endloop
endfacet
facet normal -0.50014939274732 0.000172537858491381 -0.865939117470261
outer loop
vertex 17.0864757788323 11.6954813220625 14.1859835272116
vertex 15.1923986467379 12.7499999999989 15.2771149603443
vertex 19.6948250656852 12.7499999999975 12.6755658678928
endloop
endfacet
facet normal -0.50014939274732 0.000172537858491381 -0.865939117470261
outer loop
vertex 16.2451059676995 10.95 14.6717486141571
vertex 16.4653100705862 11.2813708498985 14.5446137160788
vertex 16.3470091601781 11.1033474946938 14.6129147785484
endloop
endfacet
facet normal -0.50014939274732 0.000172537858491381 -0.865939117470261
outer loop
vertex 17.0864757788323 11.6954813220625 14.1859835272116
vertex 19.6948250656852 12.7499999999975 12.6755658678928
vertex 17.4451059676995 11.75 13.9789282911296
endloop
endfacet
facet normal -0.50014939274732 0.000172537858491381 -0.865939117470261
outer loop
vertex 17.4451059676995 11.75 13.9789282911296
vertex 19.6948250656852 12.7499999999975 12.6755658678928
vertex 17.8037361565667 11.6954813220625 13.7718730550476
endloop
endfacet
facet normal -0.50014939274732 0.000172537858491381 -0.865939117470261
outer loop
vertex 17.8037361565667 11.6954813220625 13.7718730550476
vertex 19.6948250656852 12.7499999999975 12.6755658678928
vertex 18.1379262907271 11.5356406460551 13.5789282911296
endloop
endfacet
facet normal -0.50014939274732 0.000172537858491381 -0.865939117470261
outer loop
vertex 18.1379262907271 11.5356406460551 13.5789282911296
vertex 19.6948250656852 12.7499999999975 12.6755658678928
vertex 18.4249018648128 11.2813708498985 13.4132428661804
endloop
endfacet
facet normal -0.50014939274732 0.000172537858491381 -0.865939117470261
outer loop
vertex 18.4249018648128 11.2813708498985 13.4132428661804
vertex 19.6948250656852 12.7499999999975 12.6755658678928
vertex 18.6451059676995 10.95 13.286107968102
endloop
endfacet
facet normal -0.50014939274732 0.000172537858491381 -0.865939117470261
outer loop
vertex 18.6451059676995 10.95 13.286107968102
vertex 19.6948250656852 12.7499999999975 12.6755658678928
vertex 18.78353205368 10.564110472164 13.2061876300983
endloop
endfacet
facet normal -0.50014939274732 0.000172537858491381 -0.865939117470261
outer loop
vertex 18.78353205368 10.564110472164 13.2061876300983
vertex 19.6948250656852 12.7499999999975 12.6755658678928
vertex 18.8307466137546 10.15 13.1789282911296
endloop
endfacet
facet normal -0.50014939274732 0.000172537858491381 -0.865939117470261
outer loop
vertex 18.8307466137546 10.15 13.1789282911296
vertex 19.6948250656852 12.7499999999975 12.6755658678928
vertex 19.694825065684 7.55000000000138 12.6755658678935
endloop
endfacet
facet normal -0.50014939274732 0.000172537858491381 -0.865939117470261
outer loop
vertex 15.1915014498458 7.55000000000276 15.2755609697456
vertex 17.0864757788323 8.60451867793748 14.1859835272116
vertex 19.694825065684 7.55000000000138 12.6755658678935
endloop
endfacet
facet normal -0.50014939274732 0.000172537858491381 -0.865939117470261
outer loop
vertex 17.0864757788323 8.60451867793748 14.1859835272116
vertex 15.1915014498458 7.55000000000276 15.2755609697456
vertex 16.752285644672 8.76435935394489 14.3789282911296
endloop
endfacet
facet normal -0.50014939274732 0.000172537858491381 -0.865939117470261
outer loop
vertex 16.752285644672 8.76435935394489 14.3789282911296
vertex 15.1915014498458 7.55000000000276 15.2755609697456
vertex 16.4653100705862 9.01862915010153 14.5446137160788
endloop
endfacet
facet normal -0.50014939274732 0.000172537858491381 -0.865939117470261
outer loop
vertex 16.4653100705862 9.01862915010153 14.5446137160788
vertex 15.1915014498458 7.55000000000276 15.2755609697456
vertex 16.2451059676995 9.35 14.6717486141571
endloop
endfacet
facet normal -0.50014939274732 0.000172537858491381 -0.865939117470261
outer loop
vertex 16.2451059676995 9.35 14.6717486141571
vertex 15.1915014498458 7.55000000000276 15.2755609697456
vertex 16.106679881719 9.73588952783597 14.7516689521608
endloop
endfacet
facet normal -0.50014939274732 0.000172537858491381 -0.865939117470261
outer loop
vertex 16.106679881719 9.73588952783597 14.7516689521608
vertex 15.1915014498458 7.55000000000276 15.2755609697456
vertex 15.1923986467379 12.7499999999989 15.2771149603443
endloop
endfacet
facet normal -0.50014939274732 0.000172537858491381 -0.865939117470261
outer loop
vertex 16.106679881719 9.73588952783597 14.7516689521608
vertex 15.1923986467379 12.7499999999989 15.2771149603443
vertex 16.0594653216444 10.15 14.7789282911296
endloop
endfacet
facet normal -0.50014939274732 0.000172537858491381 -0.865939117470261
outer loop
vertex 19.694825065684 7.55000000000138 12.6755658678935
vertex 17.0864757788323 8.60451867793748 14.1859835272116
vertex 17.4451059676995 8.55 13.9789282911296
endloop
endfacet
facet normal -0.50014939274732 0.000172537858491381 -0.865939117470261
outer loop
vertex 19.694825065684 7.55000000000138 12.6755658678935
vertex 17.4451059676995 8.55 13.9789282911296
vertex 17.8037361565667 8.60451867793748 13.7718730550476
endloop
endfacet
facet normal -0.50014939274732 0.000172537858491381 -0.865939117470261
outer loop
vertex 19.694825065684 7.55000000000138 12.6755658678935
vertex 17.8037361565667 8.60451867793748 13.7718730550476
vertex 18.1379262907271 8.76435935394489 13.5789282911296
endloop
endfacet
facet normal -0.50014939274732 0.000172537858491381 -0.865939117470261
outer loop
vertex 19.694825065684 7.55000000000138 12.6755658678935
vertex 18.1379262907271 8.76435935394489 13.5789282911296
vertex 18.4249018648128 9.01862915010151 13.4132428661804
endloop
endfacet
facet normal -0.50014939274732 0.000172537858491381 -0.865939117470261
outer loop
vertex 19.694825065684 7.55000000000138 12.6755658678935
vertex 18.4249018648128 9.01862915010151 13.4132428661804
vertex 18.543202775221 9.19665250530615 13.3449418037108
endloop
endfacet
facet normal -0.50014939274732 0.000172537858491381 -0.865939117470261
outer loop
vertex 19.694825065684 7.55000000000138 12.6755658678935
vertex 18.543202775221 9.19665250530615 13.3449418037108
vertex 18.6451059676995 9.35 13.286107968102
endloop
endfacet
facet normal -0.50014939274732 0.000172537858491381 -0.865939117470261
outer loop
vertex 19.694825065684 7.55000000000138 12.6755658678935
vertex 18.6451059676995 9.35 13.286107968102
vertex 18.78353205368 9.73588952783597 13.2061876300983
endloop
endfacet
facet normal -0.50014939274732 0.000172537858491381 -0.865939117470261
outer loop
vertex 19.694825065684 7.55000000000138 12.6755658678935
vertex 18.78353205368 9.73588952783597 13.2061876300983
vertex 18.8307466137546 10.15 13.1789282911296
endloop
endfacet
facet normal -0.374563144279117 0.662427206409075 -0.648762396534209
outer loop
vertex 5.43408586130637 1.89999999999997 15.140002167631
vertex 19.694825065684 7.55000000000138 12.6755658678935
vertex 24.4393252152135 1.9 4.1673221106396
endloop
endfacet
facet normal -0.374563144279117 0.662427206409075 -0.648762396534209
outer loop
vertex 19.694825065684 7.55000000000138 12.6755658678935
vertex 5.43408586130637 1.89999999999997 15.140002167631
vertex 15.1915014498458 7.55000000000276 15.2755609697456
endloop
endfacet
facet normal -0.374545513614538 -0.662493992563811 -0.648704376467496
outer loop
vertex 19.6948250656852 12.7499999999975 12.6755658678928
vertex 5.43408586130637 18.4 15.140002167631
vertex 24.4393252152136 18.4 4.16732211063959
endloop
endfacet
facet normal -0.374545513614538 -0.662493992563811 -0.648704376467496
outer loop
vertex 5.43408586130637 18.4 15.140002167631
vertex 19.6948250656852 12.7499999999975 12.6755658678928
vertex 15.1923986467379 12.7499999999989 15.2771149603443
endloop
endfacet
facet normal -0.873384918522357 1.25330964325082e-014 -0.48703057819576
outer loop
vertex 19.694825065684 7.55000000000138 12.6755658678935
vertex 24.4393252152136 18.4 4.16732211063959
vertex 24.4393252152135 1.9 4.1673221106396
endloop
endfacet
facet normal -0.873384918522357 1.25330964325082e-014 -0.48703057819576
outer loop
vertex 24.4393252152136 18.4 4.16732211063959
vertex 19.694825065684 7.55000000000138 12.6755658678935
vertex 19.6948250656852 12.7499999999975 12.6755658678928
endloop
endfacet
facet normal 0.836516303737814 0.258819045102526 -0.48296291314452
outer loop
vertex 16.106679881719 9.73588952783597 14.7516689521608
vertex 16.7451059676995 9.35 15.5377740179416
vertex 16.2451059676995 9.35 14.6717486141571
endloop
endfacet
facet normal 0.750000000000006 0.499999999999997 -0.433012701892212
outer loop
vertex 16.7451059676995 9.35 15.5377740179416
vertex 16.106679881719 9.73588952783597 14.7516689521608
vertex 16.606679881719 9.73588952783597 15.6176943559453
endloop
endfacet
facet normal 0.612372435695801 0.707106781186543 -0.353553390593273
outer loop
vertex 16.4653100705862 9.01862915010153 14.5446137160788
vertex 17.252285644672 8.76435935394489 15.244953694914
vertex 16.752285644672 8.76435935394489 14.3789282911296
endloop
endfacet
facet normal 0.433012701892233 0.86602540378443 -0.250000000000006
outer loop
vertex 17.252285644672 8.76435935394489 15.244953694914
vertex 16.4653100705862 9.01862915010153 14.5446137160788
vertex 16.9653100705862 9.01862915010153 15.4106391198633
endloop
endfacet
facet normal 0.866025403784447 -1.06933318747764e-015 -0.499999999999985
outer loop
vertex 16.0594653216444 10.15 14.7789282911296
vertex 16.606679881719 9.73588952783597 15.6176943559453
vertex 16.106679881719 9.73588952783597 14.7516689521608
endloop
endfacet
facet normal 0.836516303737815 0.258819045102524 -0.482962913144521
outer loop
vertex 16.606679881719 9.73588952783597 15.6176943559453
vertex 16.0594653216444 10.15 14.7789282911296
vertex 16.5594653216444 10.15 15.644953694914
endloop
endfacet
facet normal 0.612372435695805 -0.707106781186539 -0.353553390593273
outer loop
vertex 16.4653100705862 11.2813708498985 14.5446137160788
vertex 16.8470091601781 11.1033474946938 15.4789401823328
vertex 16.3470091601781 11.1033474946938 14.6129147785484
endloop
endfacet
facet normal 0.687064146869459 -0.608761429008715 -0.396676670145611
outer loop
vertex 16.8470091601781 11.1033474946938 15.4789401823328
vertex 16.4653100705862 11.2813708498985 14.5446137160788
vertex 16.9653100705862 11.2813708498985 15.4106391198633
endloop
endfacet
facet normal 0.873468423245843 -1.29857034016696e-014 0.486880800188733
outer loop
vertex 24.9393252152136 18.4 5.03334751442403
vertex 20.1957998441523 7.54999999999863 13.5432736090268
vertex 24.9393252152135 1.9 5.03334751442404
endloop
endfacet
facet normal 0.873468423245843 -1.29857034016696e-014 0.486880800188733
outer loop
vertex 20.1957998441523 7.54999999999863 13.5432736090268
vertex 24.9393252152136 18.4 5.03334751442403
vertex 20.1957998441535 12.75 13.5432736090261
endloop
endfacet
facet normal 0.374499183405997 0.662571842529531 0.648651613052233
outer loop
vertex 5.93408586130638 18.4 16.0060275714155
vertex 20.1957998441535 12.75 13.5432736090261
vertex 24.9393252152136 18.4 5.03334751442403
endloop
endfacet
facet normal 0.374499183405997 0.662571842529531 0.648651613052233
outer loop
vertex 20.1957998441535 12.75 13.5432736090261
vertex 5.93408586130638 18.4 16.0060275714155
vertex 15.6924710074945 12.7500000000014 16.1432717251206
endloop
endfacet
facet normal -0.0142336659011649 5.79279261460481e-005 0.99989869456829
outer loop
vertex 5.93408586130638 1.89999999999997 16.0060275714155
vertex 15.6924710074945 12.7500000000014 16.1432717251206
vertex 5.93408586130638 18.4 16.0060275714155
endloop
endfacet
facet normal -0.0142336659011649 5.79279261460481e-005 0.99989869456829
outer loop
vertex 15.6924710074945 12.7500000000014 16.1432717251206
vertex 5.93408586130638 1.89999999999997 16.0060275714155
vertex 15.6944120912456 7.55 16.1466337808019
endloop
endfacet
facet normal 0.433012701892215 -0.866025403784442 -0.249999999999996
outer loop
vertex 17.252285644672 11.5356406460551 15.244953694914
vertex 16.4653100705862 11.2813708498985 14.5446137160788
vertex 16.752285644672 11.5356406460551 14.3789282911296
endloop
endfacet
facet normal 0.612372435695805 -0.707106781186539 -0.353553390593273
outer loop
vertex 16.4653100705862 11.2813708498985 14.5446137160788
vertex 17.252285644672 11.5356406460551 15.244953694914
vertex 16.9653100705862 11.2813708498985 15.4106391198633
endloop
endfacet
facet normal -0.224143868042007 -0.965925826289071 0.129409522551253
outer loop
vertex 18.3037361565667 11.6954813220625 14.637898458832
vertex 17.4451059676995 11.75 13.9789282911296
vertex 17.8037361565667 11.6954813220625 13.7718730550476
endloop
endfacet
facet normal -3.65355505721527e-016 -1.0 3.20799956243292e-016
outer loop
vertex 17.4451059676995 11.75 13.9789282911296
vertex 18.3037361565667 11.6954813220625 14.637898458832
vertex 17.9451059676995 11.75 14.844953694914
endloop
endfacet
facet normal -0.433012701892225 0.866025403784437 0.249999999999994
outer loop
vertex 18.1379262907271 8.76435935394489 13.5789282911296
vertex 18.9249018648128 9.01862915010151 14.2792682699648
vertex 18.4249018648128 9.01862915010151 13.4132428661804
endloop
endfacet
facet normal -0.612372435695806 0.70710678118654 0.353553390593268
outer loop
vertex 18.9249018648128 9.01862915010151 14.2792682699648
vertex 18.1379262907271 8.76435935394489 13.5789282911296
vertex 18.6379262907271 8.76435935394489 14.444953694914
endloop
endfacet
facet normal -0.433012701892221 -0.86602540378444 0.249999999999992
outer loop
vertex 18.6379262907271 11.5356406460551 14.444953694914
vertex 17.8037361565667 11.6954813220625 13.7718730550476
vertex 18.1379262907271 11.5356406460551 13.5789282911296
endloop
endfacet
facet normal -0.224143868042007 -0.965925826289071 0.129409522551253
outer loop
vertex 17.8037361565667 11.6954813220625 13.7718730550476
vertex 18.6379262907271 11.5356406460551 14.444953694914
vertex 18.3037361565667 11.6954813220625 14.637898458832
endloop
endfacet
facet normal -0.612372435695808 -0.707106781186538 0.35355339059327
outer loop
vertex 18.9249018648128 11.2813708498985 14.2792682699648
vertex 18.6451059676995 10.95 13.286107968102
vertex 19.1451059676995 10.95 14.1521333718865
endloop
endfacet
facet normal -0.750000000000007 -0.499999999999995 0.433012701892214
outer loop
vertex 18.6451059676995 10.95 13.286107968102
vertex 18.9249018648128 11.2813708498985 14.2792682699648
vertex 18.4249018648128 11.2813708498985 13.4132428661804
endloop
endfacet
facet normal 0.224143868042008 -0.96592582628907 -0.129409522551256
outer loop
vertex 17.5864757788323 11.6954813220625 15.052008930996
vertex 16.752285644672 11.5356406460551 14.3789282911296
vertex 17.0864757788323 11.6954813220625 14.1859835272116
endloop
endfacet
facet normal 0.433012701892217 -0.866025403784441 -0.249999999999997
outer loop
vertex 16.752285644672 11.5356406460551 14.3789282911296
vertex 17.5864757788323 11.6954813220625 15.052008930996
vertex 17.252285644672 11.5356406460551 15.244953694914
endloop
endfacet
facet normal -0.836516303737811 0.258819045102525 0.482962913144527
outer loop
vertex 19.28353205368 9.73588952783597 14.0722130338828
vertex 18.6451059676995 9.35 13.286107968102
vertex 19.1451059676995 9.35 14.1521333718865
endloop
endfacet
facet normal -0.750000000000011 0.499999999999984 0.433012701892219
outer loop
vertex 18.6451059676995 9.35 13.286107968102
vertex 19.28353205368 9.73588952783597 14.0722130338828
vertex 18.78353205368 9.73588952783597 13.2061876300983
endloop
endfacet
facet normal -2.58422186973759e-016 -1.0 2.58422186973759e-016
outer loop
vertex 17.9451059676995 11.75 14.844953694914
vertex 17.0864757788323 11.6954813220625 14.1859835272116
vertex 17.4451059676995 11.75 13.9789282911296
endloop
endfacet
facet normal 0.224143868042007 -0.965925826289071 -0.129409522551255
outer loop
vertex 17.0864757788323 11.6954813220625 14.1859835272116
vertex 17.9451059676995 11.75 14.844953694914
vertex 17.5864757788323 11.6954813220625 15.052008930996
endloop
endfacet
facet normal -0.750000000000006 -0.499999999999996 0.433012701892214
outer loop
vertex 19.1451059676995 10.95 14.1521333718865
vertex 18.78353205368 10.564110472164 13.2061876300983
vertex 19.28353205368 10.564110472164 14.0722130338828
endloop
endfacet
facet normal -0.836516303737811 -0.258819045102524 0.482962913144527
outer loop
vertex 18.78353205368 10.564110472164 13.2061876300983
vertex 19.1451059676995 10.95 14.1521333718865
vertex 18.6451059676995 10.95 13.286107968102
endloop
endfacet
facet normal 0.433012701892235 0.866025403784429 -0.250000000000008
outer loop
vertex 16.752285644672 8.76435935394489 14.3789282911296
vertex 17.5864757788323 8.60451867793748 15.052008930996
vertex 17.0864757788323 8.60451867793748 14.1859835272116
endloop
endfacet
facet normal 0.224143868042007 0.96592582628907 -0.129409522551255
outer loop
vertex 17.5864757788323 8.60451867793748 15.052008930996
vertex 16.752285644672 8.76435935394489 14.3789282911296
vertex 17.252285644672 8.76435935394489 15.244953694914
endloop
endfacet
facet normal 0.687064146869446 -0.608761429008735 -0.396676670145603
outer loop
vertex 16.3470091601781 11.1033474946938 14.6129147785484
vertex 16.7451059676995 10.95 15.5377740179416
vertex 16.2451059676995 10.95 14.6717486141571
endloop
endfacet
facet normal 0.750000000000004 -0.500000000000003 -0.433012701892209
outer loop
vertex 16.7451059676995 10.95 15.5377740179416
vertex 16.3470091601781 11.1033474946938 14.6129147785484
vertex 16.8470091601781 11.1033474946938 15.4789401823328
endloop
endfacet
facet normal -0.836516303737811 -0.258819045102523 0.482962913144527
outer loop
vertex 19.28353205368 10.564110472164 14.0722130338828
vertex 18.8307466137546 10.15 13.1789282911296
vertex 19.3307466137546 10.15 14.044953694914
endloop
endfacet
facet normal -0.866025403784443 1.81786641871197e-015 0.499999999999993
outer loop
vertex 18.8307466137546 10.15 13.1789282911296
vertex 19.28353205368 10.564110472164 14.0722130338828
vertex 18.78353205368 10.564110472164 13.2061876300983
endloop
endfacet
facet normal 0.224143868042006 0.965925826289071 -0.129409522551255
outer loop
vertex 17.0864757788323 8.60451867793748 14.1859835272116
vertex 17.9451059676995 8.55 14.844953694914
vertex 17.4451059676995 8.55 13.9789282911296
endloop
endfacet
facet normal -3.65355505721518e-016 1.0 2.58422186973757e-016
outer loop
vertex 17.9451059676995 8.55 14.844953694914
vertex 17.0864757788323 8.60451867793748 14.1859835272116
vertex 17.5864757788323 8.60451867793748 15.052008930996
endloop
endfacet
facet normal 0.750000000000004 -0.500000000000003 -0.433012701892208
outer loop
vertex 16.2451059676995 10.95 14.6717486141571
vertex 16.606679881719 10.564110472164 15.6176943559453
vertex 16.106679881719 10.564110472164 14.7516689521608
endloop
endfacet
facet normal 0.836516303737815 -0.258819045102522 -0.482962913144521
outer loop
vertex 16.606679881719 10.564110472164 15.6176943559453
vertex 16.2451059676995 10.95 14.6717486141571
vertex 16.7451059676995 10.95 15.5377740179416
endloop
endfacet
facet normal -0.612372435695808 -0.707106781186538 0.35355339059327
outer loop
vertex 18.9249018648128 11.2813708498985 14.2792682699648
vertex 18.1379262907271 11.5356406460551 13.5789282911296
vertex 18.4249018648128 11.2813708498985 13.4132428661804
endloop
endfacet
facet normal -0.433012701892222 -0.866025403784439 0.249999999999993
outer loop
vertex 18.1379262907271 11.5356406460551 13.5789282911296
vertex 18.9249018648128 11.2813708498985 14.2792682699648
vertex 18.6379262907271 11.5356406460551 14.444953694914
endloop
endfacet
facet normal -0.866025403784443 1.81786641871197e-015 0.499999999999993
outer loop
vertex 19.3307466137546 10.15 14.044953694914
vertex 18.78353205368 9.73588952783597 13.2061876300983
vertex 19.28353205368 9.73588952783597 14.0722130338828
endloop
endfacet
facet normal -0.836516303737811 0.258819045102525 0.482962913144527
outer loop
vertex 18.78353205368 9.73588952783597 13.2061876300983
vertex 19.3307466137546 10.15 14.044953694914
vertex 18.8307466137546 10.15 13.1789282911296
endloop
endfacet
facet normal -0.750000000000012 0.499999999999983 0.433012701892219
outer loop
vertex 19.1451059676995 9.35 14.1521333718865
vertex 18.543202775221 9.19665250530615 13.3449418037108
vertex 19.043202775221 9.19665250530615 14.2109672074953
endloop
endfacet
facet normal -0.687064146869469 0.608761429008697 0.396676670145622
outer loop
vertex 18.543202775221 9.19665250530615 13.3449418037108
vertex 19.1451059676995 9.35 14.1521333718865
vertex 18.6451059676995 9.35 13.286107968102
endloop
endfacet
facet normal -1.12279984685152e-015 1.0 6.9061101691264e-016
outer loop
vertex 17.4451059676995 8.55 13.9789282911296
vertex 18.3037361565667 8.60451867793748 14.637898458832
vertex 17.8037361565667 8.60451867793748 13.7718730550476
endloop
endfacet
facet normal -0.224143868042006 0.965925826289071 0.129409522551253
outer loop
vertex 18.3037361565667 8.60451867793748 14.637898458832
vertex 17.4451059676995 8.55 13.9789282911296
vertex 17.9451059676995 8.55 14.844953694914
endloop
endfacet
facet normal 0.836516303737814 -0.258819045102525 -0.482962913144521
outer loop
vertex 16.106679881719 10.564110472164 14.7516689521608
vertex 16.5594653216444 10.15 15.644953694914
vertex 16.0594653216444 10.15 14.7789282911296
endloop
endfacet
facet normal 0.866025403784447 -3.47533285930232e-016 -0.499999999999985
outer loop
vertex 16.5594653216444 10.15 15.644953694914
vertex 16.106679881719 10.564110472164 14.7516689521608
vertex 16.606679881719 10.564110472164 15.6176943559453
endloop
endfacet
facet normal -0.687064146869476 0.608761429008689 0.396676670145621
outer loop
vertex 19.043202775221 9.19665250530615 14.2109672074953
vertex 18.4249018648128 9.01862915010151 13.4132428661804
vertex 18.9249018648128 9.01862915010151 14.2792682699648
endloop
endfacet
facet normal -0.612372435695809 0.707106781186537 0.35355339059327
outer loop
vertex 18.4249018648128 9.01862915010151 13.4132428661804
vertex 19.043202775221 9.19665250530615 14.2109672074953
vertex 18.543202775221 9.19665250530615 13.3449418037108
endloop
endfacet
facet normal 0.750000000000006 0.499999999999998 -0.433012701892212
outer loop
vertex 16.2451059676995 9.35 14.6717486141571
vertex 16.9653100705862 9.01862915010153 15.4106391198633
vertex 16.4653100705862 9.01862915010153 14.5446137160788
endloop
endfacet
facet normal 0.6123724356958 0.707106781186543 -0.353553390593273
outer loop
vertex 16.9653100705862 9.01862915010153 15.4106391198633
vertex 16.2451059676995 9.35 14.6717486141571
vertex 16.7451059676995 9.35 15.5377740179416
endloop
endfacet
facet normal -0.224143868042006 0.965925826289071 0.129409522551253
outer loop
vertex 17.8037361565667 8.60451867793748 13.7718730550476
vertex 18.6379262907271 8.76435935394489 14.444953694914
vertex 18.1379262907271 8.76435935394489 13.5789282911296
endloop
endfacet
facet normal -0.433012701892224 0.866025403784438 0.249999999999993
outer loop
vertex 18.6379262907271 8.76435935394489 14.444953694914
vertex 17.8037361565667 8.60451867793748 13.7718730550476
vertex 18.3037361565667 8.60451867793748 14.637898458832
endloop
endfacet
facet normal -0.0357616287857277 0.997438932279249 -0.061940958018297
outer loop
vertex 5.43408586130637 1.89999999999997 15.140002167631
vertex 24.4393252152135 1.9 4.1673221106396
vertex 1.40168008588791 0.899999999999998 1.36505323039884
endloop
endfacet
facet normal 5.81610949396611e-017 2.08371907577431e-016 -1.0
outer loop
vertex -1.97316796454905e-014 20.3 1.0
vertex 2.89999999999998 17.3999999999999 0.999999999999987
vertex 0.0 0.0 1.0
endloop
endfacet
facet normal 5.81610949396611e-017 2.08371907577431e-016 -1.0
outer loop
vertex 2.89999999999998 17.3999999999999 0.999999999999987
vertex -1.97316796454905e-014 20.3 1.0
vertex 24.2427217495944 20.3 1.00000000000001
endloop
endfacet
facet normal 5.81610949396611e-017 2.08371907577431e-016 -1.0
outer loop
vertex 2.89999999999998 17.3999999999999 0.999999999999987
vertex 24.2427217495944 20.3 1.00000000000001
vertex 19.8427217495944 17.4 0.999999999999994
endloop
endfacet
facet normal 5.81610949396611e-017 2.08371907577431e-016 -1.0
outer loop
vertex 19.8427217495944 17.4 0.999999999999994
vertex 24.2427217495944 20.3 1.00000000000001
vertex 19.8427217495944 2.9 1.0
endloop
endfacet
facet normal 5.81610949396611e-017 2.08371907577431e-016 -1.0
outer loop
vertex 0.0 0.0 1.0
vertex 2.89999999999999 2.9 0.999999999999984
vertex 24.2427217495944 -3.07482905724178e-018 1.0
endloop
endfacet
facet normal 5.81610949396611e-017 2.08371907577431e-016 -1.0
outer loop
vertex 2.89999999999999 2.9 0.999999999999984
vertex 0.0 0.0 1.0
vertex 2.89999999999998 17.3999999999999 0.999999999999987
endloop
endfacet
facet normal 5.81610949396611e-017 2.08371907577431e-016 -1.0
outer loop
vertex 24.2427217495944 -3.07482905724178e-018 1.0
vertex 2.89999999999999 2.9 0.999999999999984
vertex 19.8427217495944 2.9 1.0
endloop
endfacet
facet normal 5.81610949396611e-017 2.08371907577431e-016 -1.0
outer loop
vertex 24.2427217495944 -3.07482905724178e-018 1.0
vertex 19.8427217495944 2.9 1.0
vertex 24.2427217495944 20.3 1.00000000000001
endloop
endfacet
facet normal -0.999629827806965 -4.8343940957109e-016 0.0272067520777165
outer loop
vertex 0.238637594115983 20.3 9.76801672000458
vertex 0.0 0.0 1.0
vertex 0.238637594115983 -1.12716661073006e-014 9.76801672000459
endloop
endfacet
facet normal -0.999629827806965 -4.8343940957109e-016 0.0272067520777165
outer loop
vertex 0.0 0.0 1.0
vertex 0.238637594115983 20.3 9.76801672000458
vertex -1.97316796454905e-014 20.3 1.0
endloop
endfacet
facet normal 0.844796538745554 0.0495348658879458 -0.532789925941732
outer loop
vertex 31.0713760227824 20.3 11.827576148484
vertex 26.7213024038264 13.4499999999896 4.29319763931836
vertex 24.2427217495944 20.3 1.00000000000001
endloop
endfacet
facet normal 0.866021016740194 -2.39921849471184e-007 -0.500007598506485
outer loop
vertex 31.0713760227824 20.3 11.827576148484
vertex 30.0213078095803 13.4499999999896 10.008962183247
vertex 26.7213024038264 13.4499999999896 4.29319763931836
endloop
endfacet
facet normal 0.866021016740194 -2.39921849471184e-007 -0.500007598506485
outer loop
vertex 30.0213078095803 6.84999999999389 10.008962183247
vertex 31.0713760227824 20.3 11.827576148484
vertex 31.0713760227824 1.12858903702485e-014 11.827576148484
endloop
endfacet
facet normal 0.866021016740194 -2.39921849471184e-007 -0.500007598506485
outer loop
vertex 31.0713760227824 20.3 11.827576148484
vertex 30.0213078095803 6.84999999999389 10.008962183247
vertex 30.0213078095803 13.4499999999896 10.008962183247
endloop
endfacet
facet normal 0.845774372321087 -0.0119620353195973 -0.533406618665239
outer loop
vertex 30.0213078095803 6.84999999999389 10.008962183247
vertex 31.0713760227824 1.12858903702485e-014 11.827576148484
vertex 24.2427217495944 -3.07482905724178e-018 1.0
endloop
endfacet
facet normal 0.863727383295514 -0.0727843082246005 -0.498675698046086
outer loop
vertex 30.0213078095803 6.84999999999389 10.008962183247
vertex 24.2427217495944 -3.07482905724178e-018 1.0
vertex 26.7212955962758 6.84999999999389 4.29320156966811
endloop
endfacet
facet normal 0.798988308837546 -1.1301992088656e-007 -0.60134655760294
outer loop
vertex 24.2427217495944 20.3 1.00000000000001
vertex 26.7212955962758 6.84999999999389 4.29320156966811
vertex 24.2427217495944 -3.07482905724178e-018 1.0
endloop
endfacet
facet normal 0.798988308837546 -1.1301992088656e-007 -0.60134655760294
outer loop
vertex 26.7212955962758 6.84999999999389 4.29320156966811
vertex 24.2427217495944 20.3 1.00000000000001
vertex 26.7213024038264 13.4499999999896 4.29319763931836
endloop
endfacet
facet normal 4.34225562397873e-016 -1.0 7.3594496811591e-017
outer loop
vertex 31.0713760227824 1.12858903702485e-014 11.827576148484
vertex 0.0 0.0 1.0
vertex 24.2427217495944 -3.07482905724178e-018 1.0
endloop
endfacet
facet normal 4.34225562397873e-016 -1.0 7.3594496811591e-017
outer loop
vertex 0.0 0.0 1.0
vertex 31.0713760227824 1.12858903702485e-014 11.827576148484
vertex 0.238637594115983 -1.12716661073006e-014 9.76801672000459
endloop
endfacet
facet normal 4.34225562397873e-016 -1.0 7.3594496811591e-017
outer loop
vertex 0.238637594115983 -1.12716661073006e-014 9.76801672000459
vertex 31.0713760227824 1.12858903702485e-014 11.827576148484
vertex 8.78863759411591 1.97387419836977e-017 24.7502562054754
endloop
endfacet
facet normal -0.978198489956998 4.28704636992716e-017 0.207672131606168
outer loop
vertex 24.4393252152135 1.9 4.1673221106396
vertex 23.8444018354823 19.4 1.36505323039886
vertex 23.8444018354823 0.899999999999998 1.36505323039886
endloop
endfacet
facet normal -0.978198489956998 4.28704636992716e-017 0.207672131606168
outer loop
vertex 23.8444018354823 19.4 1.36505323039886
vertex 24.4393252152135 1.9 4.1673221106396
vertex 24.4393252152136 18.4 4.16732211063959
endloop
endfacet
facet normal 0.959724006253856 3.31836436171121e-016 -0.280944535131134
outer loop
vertex 1.40168008588789 19.4 1.36505323039884
vertex 5.43408586130637 1.89999999999997 15.140002167631
vertex 1.40168008588791 0.899999999999998 1.36505323039884
endloop
endfacet
facet normal 0.959724006253856 3.31836436171121e-016 -0.280944535131134
outer loop
vertex 5.43408586130637 1.89999999999997 15.140002167631
vertex 1.40168008588789 19.4 1.36505323039884
vertex 5.43408586130637 18.4 15.140002167631
endloop
endfacet
facet normal -0.0 1.0 -0.0
outer loop
vertex 0.238637594115983 20.3 9.76801672000458
vertex 24.2427217495944 20.3 1.00000000000001
vertex -1.97316796454905e-014 20.3 1.0
endloop
endfacet
facet normal -0.0 1.0 -0.0
outer loop
vertex 24.2427217495944 20.3 1.00000000000001
vertex 0.238637594115983 20.3 9.76801672000458
vertex 31.0713760227824 20.3 11.827576148484
endloop
endfacet
facet normal -0.0 1.0 -0.0
outer loop
vertex 31.0713760227824 20.3 11.827576148484
vertex 0.238637594115983 20.3 9.76801672000458
vertex 8.7886375941159 20.3 24.7502562054754
endloop
endfacet
facet normal 0.0140494840501536 -3.41690472533533e-016 -0.999901301128229
outer loop
vertex 15.1923986467379 12.7499999999989 15.2771149603443
vertex 5.43408586130637 1.89999999999997 15.140002167631
vertex 5.43408586130637 18.4 15.140002167631
endloop
endfacet
facet normal 0.0137199342333918 0.000296448996576636 -0.999905833327631
outer loop
vertex 15.1923986467379 12.7499999999989 15.2771149603443
vertex 15.1915014498458 7.55000000000276 15.2755609697456
vertex 5.43408586130637 1.89999999999997 15.140002167631
endloop
endfacet
facet normal 0.37449918340597 -0.662571842529575 0.648651613052204
outer loop
vertex 5.93408586130638 1.89999999999997 16.0060275714155
vertex 24.9393252152135 1.9 5.03334751442404
vertex 20.1957998441523 7.54999999999863 13.5432736090268
endloop
endfacet
facet normal 0.374649513919756 -0.663324853951424 0.647794627833554
outer loop
vertex 15.6944120912456 7.55 16.1466337808019
vertex 5.93408586130638 1.89999999999997 16.0060275714155
vertex 20.1957998441523 7.54999999999863 13.5432736090268
endloop
endfacet
facet normal -2.06345098842476e-016 -9.63635508402496e-017 -1.0
outer loop
vertex 2.89999999999999 17.3999999999999 1.79001778677357e-015
vertex 7.3713608747972 12.9625 -3.31425664274677e-015
vertex 2.9 2.9 -1.05129121553971e-015
endloop
endfacet
facet normal -2.06345098842476e-016 -9.63635508402496e-017 -1.0
outer loop
vertex 7.3713608747972 12.9625 -3.31425664274677e-015
vertex 2.89999999999999 17.3999999999999 1.79001778677357e-015
vertex 19.8427217495944 17.4 -7.96420221438332e-015
endloop
endfacet
facet normal -2.06345098842476e-016 -9.63635508402496e-017 -1.0
outer loop
vertex 7.3713608747972 12.9625 -3.31425664274677e-015
vertex 19.8427217495944 17.4 -7.96420221438332e-015
vertex 15.3713608747972 12.9625 -3.31425664274677e-015
endloop
endfacet
facet normal -2.06345098842476e-016 -9.63635508402496e-017 -1.0
outer loop
vertex 15.3713608747972 12.9625 -3.31425664274677e-015
vertex 19.8427217495944 17.4 -7.96420221438332e-015
vertex 15.3713608747972 10.9625 -3.28598109090225e-015
endloop
endfacet
facet normal -2.06345098842476e-016 -9.63635508402496e-017 -1.0
outer loop
vertex 15.3713608747972 10.9625 -3.28598109090225e-015
vertex 19.8427217495944 17.4 -7.96420221438332e-015
vertex 15.3713608747972 9.33749999999998 -2.78038250843412e-015
endloop
endfacet
facet normal -2.06345098842476e-016 -9.63635508402496e-017 -1.0
outer loop
vertex 15.3713608747972 9.33749999999998 -2.78038250843412e-015
vertex 19.8427217495944 17.4 -7.96420221438332e-015
vertex 15.3713608747972 7.33749999999998 -2.29320803890653e-015
endloop
endfacet
facet normal -2.06345098842476e-016 -9.63635508402496e-017 -1.0
outer loop
vertex 2.9 2.9 -1.05129121553971e-015
vertex 7.3713608747972 7.33749999999998 -3.1160684242421e-015
vertex 19.8427217495944 2.9 -2.30774600817885e-015
endloop
endfacet
facet normal -2.06345098842476e-016 -9.63635508402496e-017 -1.0
outer loop
vertex 7.3713608747972 7.33749999999998 -3.1160684242421e-015
vertex 2.9 2.9 -1.05129121553971e-015
vertex 7.3713608747972 12.9625 -3.31425664274677e-015
endloop
endfacet
facet normal -2.06345098842476e-016 -9.63635508402496e-017 -1.0
outer loop
vertex 7.3713608747972 7.33749999999998 -3.1160684242421e-015
vertex 7.3713608747972 12.9625 -3.31425664274677e-015
vertex 7.3713608747972 10.9625 -3.4131349462204e-015
endloop
endfacet
facet normal -2.06345098842476e-016 -9.63635508402496e-017 -1.0
outer loop
vertex 7.3713608747972 7.33749999999998 -3.1160684242421e-015
vertex 7.3713608747972 10.9625 -3.4131349462204e-015
vertex 7.3713608747972 9.33749999999998 -2.78038250843412e-015
endloop
endfacet
facet normal -2.06345098842476e-016 -9.63635508402496e-017 -1.0
outer loop
vertex 19.8427217495944 2.9 -2.30774600817885e-015
vertex 7.3713608747972 7.33749999999998 -3.1160684242421e-015
vertex 15.3713608747972 7.33749999999998 -2.29320803890653e-015
endloop
endfacet
facet normal -2.06345098842476e-016 -9.63635508402496e-017 -1.0
outer loop
vertex 19.8427217495944 2.9 -2.30774600817885e-015
vertex 15.3713608747972 7.33749999999998 -2.29320803890653e-015
vertex 19.8427217495944 17.4 -7.96420221438332e-015
endloop
endfacet
facet normal -2.06345098842476e-016 -9.63635508402496e-017 -1.0
outer loop
vertex 15.3713608747972 10.9625 -3.28598109090225e-015
vertex 7.3713608747972 9.33749999999998 -2.78038250843412e-015
vertex 7.3713608747972 10.9625 -3.4131349462204e-015
endloop
endfacet
facet normal -2.06345098842476e-016 -9.63635508402496e-017 -1.0
outer loop
vertex 7.3713608747972 9.33749999999998 -2.78038250843412e-015
vertex 15.3713608747972 10.9625 -3.28598109090225e-015
vertex 15.3713608747972 9.33749999999998 -2.78038250843412e-015
endloop
endfacet
facet normal -4.01668968401032e-017 4.04022200554534e-017 -1.0
outer loop
vertex 15.3713608747972 12.9625 0.999999999999997
vertex 7.3713608747972 10.9625 0.999999999999997
vertex 7.3713608747972 12.9625 0.999999999999997
endloop
endfacet
facet normal -4.01668968401032e-017 4.04022200554534e-017 -1.0
outer loop
vertex 7.3713608747972 10.9625 0.999999999999997
vertex 15.3713608747972 12.9625 0.999999999999997
vertex 15.3713608747972 10.9625 0.999999999999997
endloop
endfacet
facet normal 1.0 1.98581730767491e-033 -4.01668968401032e-017
outer loop
vertex 7.3713608747972 12.9625 -3.31425664274677e-015
vertex 7.3713608747972 10.9625 0.999999999999997
vertex 7.3713608747972 10.9625 -3.4131349462204e-015
endloop
endfacet
facet normal 1.0 1.98581730767491e-033 -4.01668968401032e-017
outer loop
vertex 7.3713608747972 10.9625 0.999999999999997
vertex 7.3713608747972 12.9625 -3.31425664274677e-015
vertex 7.3713608747972 12.9625 0.999999999999997
endloop
endfacet
facet normal 0.0 -1.0 -4.04022200554534e-017
outer loop
vertex 15.3713608747972 12.9625 0.999999999999997
vertex 7.3713608747972 12.9625 -3.31425664274677e-015
vertex 15.3713608747972 12.9625 -3.31425664274677e-015
endloop
endfacet
facet normal 0.0 -1.0 -4.04022200554534e-017
outer loop
vertex 7.3713608747972 12.9625 -3.31425664274677e-015
vertex 15.3713608747972 12.9625 0.999999999999997
vertex 7.3713608747972 12.9625 0.999999999999997
endloop
endfacet
facet normal -1.0 5.67870587017881e-034 4.01668968401032e-017
outer loop
vertex 15.3713608747972 12.9625 0.999999999999997
vertex 15.3713608747972 10.9625 -3.28598109090225e-015
vertex 15.3713608747972 10.9625 0.999999999999997
endloop
endfacet
facet normal -1.0 5.67870587017881e-034 4.01668968401032e-017
outer loop
vertex 15.3713608747972 10.9625 -3.28598109090225e-015
vertex 15.3713608747972 12.9625 0.999999999999997
vertex 15.3713608747972 12.9625 -3.31425664274677e-015
endloop
endfacet
facet normal -6.42162255432902e-034 1.0 4.04022200554534e-017
outer loop
vertex 7.3713608747972 10.9625 0.999999999999997
vertex 15.3713608747972 10.9625 -3.28598109090225e-015
vertex 7.3713608747972 10.9625 -3.4131349462204e-015
endloop
endfacet
facet normal -6.42162255432902e-034 1.0 4.04022200554534e-017
outer loop
vertex 15.3713608747972 10.9625 -3.28598109090225e-015
vertex 7.3713608747972 10.9625 0.999999999999997
vertex 15.3713608747972 10.9625 0.999999999999997
endloop
endfacet
facet normal 3.16216959606645e-017 -4.77391222771681e-017 -1.0
outer loop
vertex 15.3713608747972 9.33749999999998 0.999999999999997
vertex 7.3713608747972 7.33749999999998 0.999999999999997
vertex 7.3713608747972 9.33749999999998 0.999999999999997
endloop
endfacet
facet normal 3.16216959606645e-017 -4.77391222771681e-017 -1.0
outer loop
vertex 7.3713608747972 7.33749999999998 0.999999999999997
vertex 15.3713608747972 9.33749999999998 0.999999999999997
vertex 15.3713608747972 7.33749999999998 0.999999999999998
endloop
endfacet
facet normal 1.0 -5.30747898397857e-033 3.16216959606645e-017
outer loop
vertex 7.3713608747972 9.33749999999998 -2.78038250843412e-015
vertex 7.3713608747972 7.33749999999998 0.999999999999997
vertex 7.3713608747972 7.33749999999998 -3.1160684242421e-015
endloop
endfacet
facet normal 1.0 -5.30747898397857e-033 3.16216959606645e-017
outer loop
vertex 7.3713608747972 7.33749999999998 0.999999999999997
vertex 7.3713608747972 9.33749999999998 -2.78038250843412e-015
vertex 7.3713608747972 9.33749999999998 0.999999999999997
endloop
endfacet
facet normal -0.0 -1.0 4.77391222771681e-017
outer loop
vertex 15.3713608747972 9.33749999999998 0.999999999999997
vertex 7.3713608747972 9.33749999999998 -2.78038250843412e-015
vertex 15.3713608747972 9.33749999999998 -2.78038250843412e-015
endloop
endfacet
facet normal -0.0 -1.0 4.77391222771681e-017
outer loop
vertex 7.3713608747972 9.33749999999998 -2.78038250843412e-015
vertex 15.3713608747972 9.33749999999998 0.999999999999997
vertex 7.3713608747972 9.33749999999998 0.999999999999997
endloop
endfacet
facet normal -1.0 -7.70264147759979e-033 -3.16216959606645e-017
outer loop
vertex 15.3713608747972 9.33749999999998 0.999999999999997
vertex 15.3713608747972 7.33749999999998 -2.29320803890653e-015
vertex 15.3713608747972 7.33749999999998 0.999999999999998
endloop
endfacet
facet normal -1.0 -7.70264147759979e-033 -3.16216959606645e-017
outer loop
vertex 15.3713608747972 7.33749999999998 -2.29320803890653e-015
vertex 15.3713608747972 9.33749999999998 0.999999999999997
vertex 15.3713608747972 9.33749999999998 -2.78038250843412e-015
endloop
endfacet
facet normal 4.91032906907158e-033 1.0 -4.77391222771681e-017
outer loop
vertex 7.3713608747972 7.33749999999998 0.999999999999997
vertex 15.3713608747972 7.33749999999998 -2.29320803890653e-015
vertex 7.3713608747972 7.33749999999998 -3.1160684242421e-015
endloop
endfacet
facet normal 4.91032906907158e-033 1.0 -4.77391222771681e-017
outer loop
vertex 15.3713608747972 7.33749999999998 -2.29320803890653e-015
vertex 7.3713608747972 7.33749999999998 0.999999999999997
vertex 15.3713608747972 7.33749999999998 0.999999999999998
endloop
endfacet
endsolid command-display-pause
