solid tonearm-rest-latch
facet normal -7.34803717122996e-017 -5.99833557808187e-016 1.0
outer loop
vertex -2.51140714835158 1.92707048273345 3.5
vertex -2.51140714835157 3.27292951726655 3.5
vertex -2.6 2.6 3.5
endloop
endfacet
facet normal -7.34803717122996e-017 -5.99833557808187e-016 1.0
outer loop
vertex -2.51140714835157 3.27292951726655 3.5
vertex -2.51140714835158 1.92707048273345 3.5
vertex -2.25166604983954 1.30000000000001 3.5
endloop
endfacet
facet normal -7.34803717122996e-017 -5.99833557808187e-016 1.0
outer loop
vertex -2.51140714835157 3.27292951726655 3.5
vertex -2.25166604983954 1.30000000000001 3.5
vertex -2.25166604983954 3.90000000000001 3.5
endloop
endfacet
facet normal -7.34803717122996e-017 -5.99833557808187e-016 1.0
outer loop
vertex -2.25166604983954 3.90000000000001 3.5
vertex -2.25166604983954 1.30000000000001 3.5
vertex -1.83847763108502 0.761522368914982 3.50000000000001
endloop
endfacet
facet normal -7.34803717122996e-017 -5.99833557808187e-016 1.0
outer loop
vertex -2.25166604983954 3.90000000000001 3.5
vertex -1.83847763108502 0.761522368914982 3.50000000000001
vertex -1.83847763108502 4.43847763108503 3.5
endloop
endfacet
facet normal -7.34803717122996e-017 -5.99833557808187e-016 1.0
outer loop
vertex -1.83847763108502 4.43847763108503 3.5
vertex -1.83847763108502 0.761522368914982 3.50000000000001
vertex -1.3 0.348333950160455 3.5
endloop
endfacet
facet normal -7.34803717122996e-017 -5.99833557808187e-016 1.0
outer loop
vertex -1.83847763108502 4.43847763108503 3.5
vertex -1.3 0.348333950160455 3.5
vertex -1.29999999999999 4.85166604983954 3.5
endloop
endfacet
facet normal -7.34803717122996e-017 -5.99833557808187e-016 1.0
outer loop
vertex -1.29999999999999 4.85166604983954 3.5
vertex -1.3 0.348333950160455 3.5
vertex -0.672929517266553 0.0885928516484271 3.50000000000001
endloop
endfacet
facet normal -7.34803717122996e-017 -5.99833557808187e-016 1.0
outer loop
vertex -1.29999999999999 4.85166604983954 3.5
vertex -0.672929517266553 0.0885928516484271 3.50000000000001
vertex -0.67292951726655 5.11140714835158 3.50000000000001
endloop
endfacet
facet normal -7.34803717122996e-017 -5.99833557808187e-016 1.0
outer loop
vertex -0.67292951726655 5.11140714835158 3.50000000000001
vertex -0.672929517266553 0.0885928516484271 3.50000000000001
vertex -0.599999999999997 2.6 3.50000000000001
endloop
endfacet
facet normal -7.34803717122996e-017 -5.99833557808187e-016 1.0
outer loop
vertex -0.599999999999997 2.6 3.50000000000001
vertex -0.672929517266553 0.0885928516484271 3.50000000000001
vertex -0.579555495773438 2.4447085729385 3.5
endloop
endfacet
facet normal -7.34803717122996e-017 -5.99833557808187e-016 1.0
outer loop
vertex -0.579555495773438 2.4447085729385 3.5
vertex -0.672929517266553 0.0885928516484271 3.50000000000001
vertex -1.40998324127395e-015 8.45989944764369e-015 3.5
endloop
endfacet
facet normal -7.34803717122996e-017 -5.99833557808187e-016 1.0
outer loop
vertex -0.579555495773438 2.4447085729385 3.5
vertex -1.40998324127395e-015 8.45989944764369e-015 3.5
vertex -0.519615242270661 2.30000000000001 3.50000000000001
endloop
endfacet
facet normal -7.34803717122996e-017 -5.99833557808187e-016 1.0
outer loop
vertex -0.519615242270661 2.30000000000001 3.50000000000001
vertex -1.40998324127395e-015 8.45989944764369e-015 3.5
vertex -0.424264068711927 2.17573593128808 3.50000000000001
endloop
endfacet
facet normal -7.34803717122996e-017 -5.99833557808187e-016 1.0
outer loop
vertex -0.424264068711927 2.17573593128808 3.50000000000001
vertex -1.40998324127395e-015 8.45989944764369e-015 3.5
vertex -0.299999999999999 2.08038475772934 3.50000000000001
endloop
endfacet
facet normal -7.34803717122996e-017 -5.99833557808187e-016 1.0
outer loop
vertex -0.299999999999999 2.08038475772934 3.50000000000001
vertex -1.40998324127395e-015 8.45989944764369e-015 3.5
vertex -0.155291427061512 2.02044450422657 3.50000000000001
endloop
endfacet
facet normal -7.34803717122996e-017 -5.99833557808187e-016 1.0
outer loop
vertex -0.155291427061512 2.02044450422657 3.50000000000001
vertex -1.40998324127395e-015 8.45989944764369e-015 3.5
vertex 0.0 2.0 3.50000000000001
endloop
endfacet
facet normal -7.34803717122996e-017 -5.99833557808187e-016 1.0
outer loop
vertex 0.0 2.0 3.50000000000001
vertex -1.40998324127395e-015 8.45989944764369e-015 3.5
vertex 0.672929517266555 0.0885928516484271 3.50000000000001
endloop
endfacet
facet normal -7.34803717122996e-017 -5.99833557808187e-016 1.0
outer loop
vertex 0.0 2.0 3.50000000000001
vertex 0.672929517266555 0.0885928516484271 3.50000000000001
vertex 0.155291427061512 2.02044450422657 3.50000000000001
endloop
endfacet
facet normal -7.34803717122996e-017 -5.99833557808187e-016 1.0
outer loop
vertex 0.155291427061512 2.02044450422657 3.50000000000001
vertex 0.672929517266555 0.0885928516484271 3.50000000000001
vertex 0.3 2.08038475772934 3.50000000000001
endloop
endfacet
facet normal -7.34803717122996e-017 -5.99833557808187e-016 1.0
outer loop
vertex 0.3 2.08038475772934 3.50000000000001
vertex 0.672929517266555 0.0885928516484271 3.50000000000001
vertex 0.42426406871193 2.17573593128808 3.50000000000001
endloop
endfacet
facet normal -7.34803717122996e-017 -5.99833557808187e-016 1.0
outer loop
vertex 0.42426406871193 2.17573593128808 3.50000000000001
vertex 0.672929517266555 0.0885928516484271 3.50000000000001
vertex 0.519615242270665 2.30000000000001 3.50000000000001
endloop
endfacet
facet normal -7.34803717122996e-017 -5.99833557808187e-016 1.0
outer loop
vertex 0.519615242270665 2.30000000000001 3.50000000000001
vertex 0.672929517266555 0.0885928516484271 3.50000000000001
vertex 0.579555495773442 2.4447085729385 3.5
endloop
endfacet
facet normal -7.34803717122996e-017 -5.99833557808187e-016 1.0
outer loop
vertex 0.579555495773442 2.4447085729385 3.5
vertex 0.672929517266555 0.0885928516484271 3.50000000000001
vertex 0.600000000000002 2.6 3.50000000000001
endloop
endfacet
facet normal -7.34803717122996e-017 -5.99833557808187e-016 1.0
outer loop
vertex -0.67292951726655 5.11140714835158 3.50000000000001
vertex -0.579555495773438 2.75529142706152 3.50000000000001
vertex 1.40998324127395e-015 5.2 3.50000000000001
endloop
endfacet
facet normal -7.34803717122996e-017 -5.99833557808187e-016 1.0
outer loop
vertex -0.579555495773438 2.75529142706152 3.50000000000001
vertex -0.67292951726655 5.11140714835158 3.50000000000001
vertex -0.599999999999997 2.6 3.50000000000001
endloop
endfacet
facet normal -7.34803717122996e-017 -5.99833557808187e-016 1.0
outer loop
vertex 1.40998324127395e-015 5.2 3.50000000000001
vertex -0.579555495773438 2.75529142706152 3.50000000000001
vertex -0.519615242270661 2.9 3.5
endloop
endfacet
facet normal -7.34803717122996e-017 -5.99833557808187e-016 1.0
outer loop
vertex 1.40998324127395e-015 5.2 3.50000000000001
vertex -0.519615242270661 2.9 3.5
vertex -0.424264068711927 3.02426406871193 3.5
endloop
endfacet
facet normal -7.34803717122996e-017 -5.99833557808187e-016 1.0
outer loop
vertex 1.40998324127395e-015 5.2 3.50000000000001
vertex -0.424264068711927 3.02426406871193 3.5
vertex -0.299999999999999 3.11961524227066 3.50000000000001
endloop
endfacet
facet normal -7.34803717122996e-017 -5.99833557808187e-016 1.0
outer loop
vertex 1.40998324127395e-015 5.2 3.50000000000001
vertex -0.299999999999999 3.11961524227066 3.50000000000001
vertex -0.155291427061512 3.17955549577345 3.50000000000001
endloop
endfacet
facet normal -7.34803717122996e-017 -5.99833557808187e-016 1.0
outer loop
vertex 1.40998324127395e-015 5.2 3.50000000000001
vertex -0.155291427061512 3.17955549577345 3.50000000000001
vertex 0.0 3.2 3.50000000000001
endloop
endfacet
facet normal -7.34803717122996e-017 -5.99833557808187e-016 1.0
outer loop
vertex 1.40998324127395e-015 5.2 3.50000000000001
vertex 0.0 3.2 3.50000000000001
vertex 0.155291427061512 3.17955549577345 3.50000000000001
endloop
endfacet
facet normal -7.34803717122996e-017 -5.99833557808187e-016 1.0
outer loop
vertex 1.40998324127395e-015 5.2 3.50000000000001
vertex 0.155291427061512 3.17955549577345 3.50000000000001
vertex 0.672929517266558 5.11140714835157 3.50000000000001
endloop
endfacet
facet normal -7.34803717122996e-017 -5.99833557808187e-016 1.0
outer loop
vertex 0.672929517266558 5.11140714835157 3.50000000000001
vertex 0.155291427061512 3.17955549577345 3.50000000000001
vertex 0.3 3.11961524227066 3.50000000000001
endloop
endfacet
facet normal -7.34803717122996e-017 -5.99833557808187e-016 1.0
outer loop
vertex 0.672929517266558 5.11140714835157 3.50000000000001
vertex 0.3 3.11961524227066 3.50000000000001
vertex 0.42426406871193 3.02426406871193 3.5
endloop
endfacet
facet normal -7.34803717122996e-017 -5.99833557808187e-016 1.0
outer loop
vertex 0.672929517266558 5.11140714835157 3.50000000000001
vertex 0.42426406871193 3.02426406871193 3.5
vertex 0.519615242270665 2.9 3.5
endloop
endfacet
facet normal -7.34803717122996e-017 -5.99833557808187e-016 1.0
outer loop
vertex 0.672929517266558 5.11140714835157 3.50000000000001
vertex 0.519615242270665 2.9 3.5
vertex 0.579555495773444 2.75529142706152 3.50000000000001
endloop
endfacet
facet normal -7.34803717122996e-017 -5.99833557808187e-016 1.0
outer loop
vertex 0.672929517266558 5.11140714835157 3.50000000000001
vertex 0.579555495773444 2.75529142706152 3.50000000000001
vertex 0.600000000000002 2.6 3.50000000000001
endloop
endfacet
facet normal -7.34803717122996e-017 -5.99833557808187e-016 1.0
outer loop
vertex 0.672929517266558 5.11140714835157 3.50000000000001
vertex 0.600000000000002 2.6 3.50000000000001
vertex 0.672929517266555 0.0885928516484271 3.50000000000001
endloop
endfacet
facet normal -7.34803717122996e-017 -5.99833557808187e-016 1.0
outer loop
vertex 0.672929517266558 5.11140714835157 3.50000000000001
vertex 0.672929517266555 0.0885928516484271 3.50000000000001
vertex 1.3 0.348333950160457 3.5
endloop
endfacet
facet normal -7.34803717122996e-017 -5.99833557808187e-016 1.0
outer loop
vertex 0.672929517266558 5.11140714835157 3.50000000000001
vertex 1.3 0.348333950160457 3.5
vertex 0.672929517266558 13.1114071483516 3.50000000000002
endloop
endfacet
facet normal -7.34803717122996e-017 -5.99833557808187e-016 1.0
outer loop
vertex -10.6 12.6 3.50000000000002
vertex -11.7039185438755 16.0086289605801 3.50000000000001
vertex -17.1172579211603 12.6 3.50000000000001
endloop
endfacet
facet normal -7.34803717122996e-017 -5.99833557808187e-016 1.0
outer loop
vertex -11.7039185438755 16.0086289605801 3.50000000000001
vertex -10.6 12.6 3.50000000000002
vertex -10.7808192302779 17.2116354077128 3.50000000000002
endloop
endfacet
facet normal -7.34803717122996e-017 -5.99833557808187e-016 1.0
outer loop
vertex -10.7808192302779 17.2116354077128 3.50000000000002
vertex -10.6 12.6 3.50000000000002
vertex -10.6205293051502 17.4205293051501 3.50000000000002
endloop
endfacet
facet normal -7.34803717122996e-017 -5.99833557808187e-016 1.0
outer loop
vertex -10.6205293051502 17.4205293051501 3.50000000000002
vertex -10.6 12.6 3.50000000000002
vertex -10.4116354077129 17.5808192302779 3.50000000000001
endloop
endfacet
facet normal -7.34803717122996e-017 -5.99833557808187e-016 1.0
outer loop
vertex -10.4116354077129 17.5808192302779 3.50000000000001
vertex -10.6 12.6 3.50000000000002
vertex -10.4364439661875 13.8423314164921 3.50000000000002
endloop
endfacet
facet normal -7.34803717122996e-017 -5.99833557808187e-016 1.0
outer loop
vertex -10.4116354077129 17.5808192302779 3.50000000000001
vertex -10.4364439661875 13.8423314164921 3.50000000000002
vertex -9.95692193816529 15.0 3.50000000000002
endloop
endfacet
facet normal -7.34803717122996e-017 -5.99833557808187e-016 1.0
outer loop
vertex -10.4116354077129 17.5808192302779 3.50000000000001
vertex -9.95692193816529 15.0 3.50000000000002
vertex -9.20862896058014 18.5039185438755 3.5
endloop
endfacet
facet normal -7.34803717122996e-017 -5.99833557808187e-016 1.0
outer loop
vertex -9.20862896058014 18.5039185438755 3.5
vertex -9.95692193816529 15.0 3.50000000000002
vertex -9.19411254969542 15.9941125496954 3.50000000000002
endloop
endfacet
facet normal -7.34803717122996e-017 -5.99833557808187e-016 1.0
outer loop
vertex -9.20862896058014 18.5039185438755 3.5
vertex -9.19411254969542 15.9941125496954 3.50000000000002
vertex -7.56443618537229 19.1849654905225 3.50000000000002
endloop
endfacet
facet normal -7.34803717122996e-017 -5.99833557808187e-016 1.0
outer loop
vertex -7.56443618537229 19.1849654905225 3.50000000000002
vertex -9.19411254969542 15.9941125496954 3.50000000000002
vertex -8.19999999999999 16.7569219381653 3.50000000000001
endloop
endfacet
facet normal -7.34803717122996e-017 -5.99833557808187e-016 1.0
outer loop
vertex -7.56443618537229 19.1849654905225 3.50000000000002
vertex -8.19999999999999 16.7569219381653 3.50000000000001
vertex -7.04233141649209 17.2364439661875 3.50000000000001
endloop
endfacet
facet normal -7.34803717122996e-017 -5.99833557808187e-016 1.0
outer loop
vertex -7.56443618537229 19.1849654905225 3.50000000000002
vertex -7.04233141649209 17.2364439661875 3.50000000000001
vertex -5.79999999999999 19.4172579211603 3.50000000000002
endloop
endfacet
facet normal -7.34803717122996e-017 -5.99833557808187e-016 1.0
outer loop
vertex -5.79999999999999 19.4172579211603 3.50000000000002
vertex -7.04233141649209 17.2364439661875 3.50000000000001
vertex -5.79999999999999 17.4 3.50000000000001
endloop
endfacet
facet normal -7.34803717122996e-017 -5.99833557808187e-016 1.0
outer loop
vertex -5.79999999999999 19.4172579211603 3.50000000000002
vertex -5.79999999999999 17.4 3.50000000000001
vertex -4.55766858350789 17.2364439661875 3.50000000000002
endloop
endfacet
facet normal -7.34803717122996e-017 -5.99833557808187e-016 1.0
outer loop
vertex -5.79999999999999 19.4172579211603 3.50000000000002
vertex -4.55766858350789 17.2364439661875 3.50000000000002
vertex -4.03556381462767 19.1849654905225 3.50000000000002
endloop
endfacet
facet normal -7.34803717122996e-017 -5.99833557808187e-016 1.0
outer loop
vertex -4.03556381462767 19.1849654905225 3.50000000000002
vertex -4.55766858350789 17.2364439661875 3.50000000000002
vertex -3.39999999999999 16.7569219381653 3.50000000000001
endloop
endfacet
facet normal -7.34803717122996e-017 -5.99833557808187e-016 1.0
outer loop
vertex -4.03556381462767 19.1849654905225 3.50000000000002
vertex -3.39999999999999 16.7569219381653 3.50000000000001
vertex -2.39137103941982 18.5039185438755 3.50000000000002
endloop
endfacet
facet normal -7.34803717122996e-017 -5.99833557808187e-016 1.0
outer loop
vertex -2.39137103941982 18.5039185438755 3.50000000000002
vertex -3.39999999999999 16.7569219381653 3.50000000000001
vertex -2.40588745030456 15.9941125496954 3.50000000000002
endloop
endfacet
facet normal -7.34803717122996e-017 -5.99833557808187e-016 1.0
outer loop
vertex -2.39137103941982 18.5039185438755 3.50000000000002
vertex -2.40588745030456 15.9941125496954 3.50000000000002
vertex 0.672929517266558 13.1114071483516 3.50000000000002
endloop
endfacet
facet normal -7.34803717122996e-017 -5.99833557808187e-016 1.0
outer loop
vertex -2.39137103941982 18.5039185438755 3.50000000000002
vertex 0.672929517266558 13.1114071483516 3.50000000000002
vertex 2.60000000000001 13.8 3.5
endloop
endfacet
facet normal -7.34803717122996e-017 -5.99833557808187e-016 1.0
outer loop
vertex 2.60000000000001 13.8 3.5
vertex 0.672929517266558 13.1114071483516 3.50000000000002
vertex 1.3 0.348333950160457 3.5
endloop
endfacet
facet normal -7.34803717122996e-017 -5.99833557808187e-016 1.0
outer loop
vertex 2.60000000000001 13.8 3.5
vertex 1.3 0.348333950160457 3.5
vertex 1.83847763108502 0.761522368914985 3.50000000000001
endloop
endfacet
facet normal -7.34803717122996e-017 -5.99833557808187e-016 1.0
outer loop
vertex 2.60000000000001 13.8 3.5
vertex 1.83847763108502 0.761522368914985 3.50000000000001
vertex 2.25166604983954 1.30000000000001 3.50000000000001
endloop
endfacet
facet normal -7.34803717122996e-017 -5.99833557808187e-016 1.0
outer loop
vertex 2.60000000000001 13.8 3.5
vertex 2.25166604983954 1.30000000000001 3.50000000000001
vertex 2.51140714835158 1.92707048273345 3.50000000000001
endloop
endfacet
facet normal -7.34803717122996e-017 -5.99833557808187e-016 1.0
outer loop
vertex 2.60000000000001 13.8 3.5
vertex 2.51140714835158 1.92707048273345 3.50000000000001
vertex 2.60000000000001 2.6 3.50000000000001
endloop
endfacet
facet normal 0.99144486137381 -0.130526192220052 -1.56997627794553e-016
outer loop
vertex 2.60000000000001 2.60000000000001 5.63993296509579e-015
vertex 2.51140714835158 1.92707048273345 3.50000000000001
vertex 2.51140714835158 1.92707048273345 7.04991620636974e-015
endloop
endfacet
facet normal 0.965925826289067 -0.258819045102526 7.55998444814675e-017
outer loop
vertex 2.51140714835158 1.92707048273345 3.50000000000001
vertex 2.60000000000001 2.60000000000001 5.63993296509579e-015
vertex 2.60000000000001 2.6 3.50000000000001
endloop
endfacet
facet normal 1.0 -0.0 -0.0
outer loop
vertex 2.60000000000001 2.60000000000001 5.63993296509579e-015
vertex 2.60000000000001 13.8 3.5
vertex 2.60000000000001 2.6 3.50000000000001
endloop
endfacet
facet normal 1.0 -0.0 -0.0
outer loop
vertex 2.60000000000001 13.8 3.5
vertex 2.60000000000001 2.60000000000001 5.63993296509579e-015
vertex 2.60000000000001 13.8 3.52495810318487e-015
endloop
endfacet
facet normal 0.685840625813125 0.727751768107959 5.6289247144762e-016
outer loop
vertex -2.39137103941982 18.5039185438755 1.19848575508286e-014
vertex 2.60000000000001 13.8 3.5
vertex 2.60000000000001 13.8 3.52495810318487e-015
endloop
endfacet
facet normal 0.685840625813125 0.727751768107959 5.6289247144762e-016
outer loop
vertex 2.60000000000001 13.8 3.5
vertex -2.39137103941982 18.5039185438755 1.19848575508286e-014
vertex -2.39137103941982 18.5039185438755 3.50000000000002
endloop
endfacet
facet normal 0.258819045102523 0.965925826289068 -2.70931731796384e-017
outer loop
vertex -4.03556381462767 19.1849654905225 1.69197988952874e-014
vertex -2.39137103941982 18.5039185438755 3.50000000000002
vertex -2.39137103941982 18.5039185438755 1.19848575508286e-014
endloop
endfacet
facet normal 0.382683432365095 0.923879532511285 7.45746329692178e-016
outer loop
vertex -2.39137103941982 18.5039185438755 3.50000000000002
vertex -4.03556381462767 19.1849654905225 1.69197988952874e-014
vertex -4.03556381462767 19.1849654905225 3.50000000000002
endloop
endfacet
facet normal -4.45555494782345e-016 1.0 -8.06367691733162e-016
outer loop
vertex -5.79999999999999 19.4172579211603 3.50000000000002
vertex -4.03556381462767 19.1849654905225 1.69197988952874e-014
vertex -5.79999999999999 19.4172579211603 1.12798659301916e-014
endloop
endfacet
facet normal 0.258819045102523 0.965925826289068 -2.70931731796384e-017
outer loop
vertex -4.03556381462767 19.1849654905225 1.69197988952874e-014
vertex -5.79999999999999 19.4172579211603 3.50000000000002
vertex -4.03556381462767 19.1849654905225 3.50000000000002
endloop
endfacet
facet normal -0.130526192220052 0.99144486137381 -7.99469104346704e-016
outer loop
vertex -7.56443618537229 19.1849654905225 1.69197988952874e-014
vertex -5.79999999999999 19.4172579211603 3.50000000000002
vertex -5.79999999999999 19.4172579211603 1.12798659301916e-014
endloop
endfacet
facet normal -4.45555494782345e-016 1.0 -8.06367691733162e-016
outer loop
vertex -5.79999999999999 19.4172579211603 3.50000000000002
vertex -7.56443618537229 19.1849654905225 1.69197988952874e-014
vertex -7.56443618537229 19.1849654905225 3.50000000000002
endloop
endfacet
facet normal 0.499999999999999 -0.866025403784439 -1.399699477398e-015
outer loop
vertex -8.19999999999999 16.7569219381653 3.50000000000001
vertex -9.19411254969542 15.9941125496954 1.55098156540134e-014
vertex -8.19999999999999 16.7569219381653 1.48048240333765e-014
endloop
endfacet
facet normal 0.608761429008716 -0.793353340291239 -1.28762624154126e-015
outer loop
vertex -9.19411254969542 15.9941125496954 1.55098156540134e-014
vertex -8.19999999999999 16.7569219381653 3.50000000000001
vertex -9.19411254969542 15.9941125496954 3.50000000000002
endloop
endfacet
facet normal 0.258819045102521 -0.965925826289068 -1.15458444724623e-015
outer loop
vertex -7.04233141649209 17.2364439661875 3.50000000000001
vertex -8.19999999999999 16.7569219381653 1.48048240333765e-014
vertex -7.04233141649209 17.2364439661875 1.33948407921025e-014
endloop
endfacet
facet normal 0.499999999999998 -0.86602540378444 -1.399699477398e-015
outer loop
vertex -8.19999999999999 16.7569219381653 1.48048240333765e-014
vertex -7.04233141649209 17.2364439661875 3.50000000000001
vertex -8.19999999999999 16.7569219381653 3.50000000000001
endloop
endfacet
facet normal 1.2742887150775e-015 -1.0 -4.04625411525633e-016
outer loop
vertex -5.79999999999999 17.4 1.76247905159244e-014
vertex -7.04233141649209 17.2364439661875 3.50000000000001
vertex -7.04233141649209 17.2364439661875 1.33948407921025e-014
endloop
endfacet
facet normal 0.258819045102521 -0.965925826289068 -1.15458444724623e-015
outer loop
vertex -7.04233141649209 17.2364439661875 3.50000000000001
vertex -5.79999999999999 17.4 1.76247905159244e-014
vertex -5.79999999999999 17.4 3.50000000000001
endloop
endfacet
facet normal -0.25881904510252 -0.965925826289068 -7.54497714454394e-016
outer loop
vertex -4.55766858350789 17.2364439661875 3.50000000000002
vertex -5.79999999999999 17.4 1.76247905159244e-014
vertex -4.55766858350789 17.2364439661875 1.40998324127395e-014
endloop
endfacet
facet normal 1.2742887150775e-015 -1.0 -4.04625411525633e-016
outer loop
vertex -5.79999999999999 17.4 1.76247905159244e-014
vertex -4.55766858350789 17.2364439661875 3.50000000000002
vertex -5.79999999999999 17.4 3.50000000000001
endloop
endfacet
facet normal -0.5 -0.866025403784439 -1.72333805016131e-015
outer loop
vertex -3.39999999999999 16.7569219381653 1.48048240333765e-014
vertex -4.55766858350789 17.2364439661875 3.50000000000002
vertex -4.55766858350789 17.2364439661875 1.40998324127395e-014
endloop
endfacet
facet normal -0.25881904510252 -0.965925826289068 -7.54497714454394e-016
outer loop
vertex -4.55766858350789 17.2364439661875 3.50000000000002
vertex -3.39999999999999 16.7569219381653 1.48048240333765e-014
vertex -3.39999999999999 16.7569219381653 3.50000000000001
endloop
endfacet
facet normal -0.60876142900872 -0.793353340291236 -1.92184094737097e-015
outer loop
vertex -2.40588745030456 15.9941125496954 1.55098156540134e-014
vertex -3.39999999999999 16.7569219381653 3.50000000000001
vertex -3.39999999999999 16.7569219381653 1.48048240333765e-014
endloop
endfacet
facet normal -0.5 -0.866025403784439 -1.72333805016131e-015
outer loop
vertex -3.39999999999999 16.7569219381653 3.50000000000001
vertex -2.40588745030456 15.9941125496954 1.55098156540134e-014
vertex -2.40588745030456 15.9941125496954 3.50000000000002
endloop
endfacet
facet normal -0.683475923534737 -0.72997305563174 -1.19703997764022e-015
outer loop
vertex 0.672929517266558 13.1114071483516 3.50000000000002
vertex -2.40588745030456 15.9941125496954 1.55098156540134e-014
vertex 0.672929517266558 13.1114071483516 6.34492458573277e-015
endloop
endfacet
facet normal -0.683475923534737 -0.72997305563174 -1.19703997764022e-015
outer loop
vertex -2.40588745030456 15.9941125496954 1.55098156540134e-014
vertex 0.672929517266558 13.1114071483516 3.50000000000002
vertex -2.40588745030456 15.9941125496954 3.50000000000002
endloop
endfacet
facet normal -1.0 0.0 0.0
outer loop
vertex 0.672929517266558 13.1114071483516 3.50000000000002
vertex 0.672929517266558 5.11140714835159 4.22994972382185e-015
vertex 0.672929517266558 5.11140714835157 3.50000000000001
endloop
endfacet
facet normal -1.0 0.0 0.0
outer loop
vertex 0.672929517266558 5.11140714835159 4.22994972382185e-015
vertex 0.672929517266558 13.1114071483516 3.50000000000002
vertex 0.672929517266558 13.1114071483516 6.34492458573277e-015
endloop
endfacet
facet normal 1.5772664515295e-015 1.0 8.05458100101343e-016
outer loop
vertex 1.40998324127395e-015 5.2 3.50000000000001
vertex 0.672929517266558 5.11140714835159 4.22994972382185e-015
vertex 1.40998324127395e-015 5.2 3.52495810318487e-015
endloop
endfacet
facet normal 0.130526192220052 0.99144486137381 1.19790545566984e-015
outer loop
vertex 0.672929517266558 5.11140714835159 4.22994972382185e-015
vertex 1.40998324127395e-015 5.2 3.50000000000001
vertex 0.672929517266558 5.11140714835157 3.50000000000001
endloop
endfacet
facet normal -0.258819045102521 0.965925826289068 9.52267612701716e-016
outer loop
vertex -0.67292951726655 5.11140714835158 3.50000000000001
vertex 1.40998324127395e-015 5.2 3.52495810318487e-015
vertex -0.67292951726655 5.11140714835159 2.8199664825479e-015
endloop
endfacet
facet normal 1.49706646246868e-015 1.0 8.05458100101343e-016
outer loop
vertex 1.40998324127395e-015 5.2 3.52495810318487e-015
vertex -0.67292951726655 5.11140714835158 3.50000000000001
vertex 1.40998324127395e-015 5.2 3.50000000000001
endloop
endfacet
facet normal -0.5 0.866025403784439 1.23526526469688e-015
outer loop
vertex -1.29999999999999 4.85166604983954 3.5
vertex -0.67292951726655 5.11140714835159 2.8199664825479e-015
vertex -1.29999999999999 4.85166604983955 1.40998324127395e-015
endloop
endfacet
facet normal -0.258819045102521 0.965925826289068 9.52267612701717e-016
outer loop
vertex -0.67292951726655 5.11140714835159 2.8199664825479e-015
vertex -1.29999999999999 4.85166604983954 3.5
vertex -0.67292951726655 5.11140714835158 3.50000000000001
endloop
endfacet
facet normal -0.707106781186545 0.707106781186551 8.53319938643537e-016
outer loop
vertex -1.83847763108502 4.43847763108503 3.5
vertex -1.29999999999999 4.85166604983955 1.40998324127395e-015
vertex -1.83847763108502 4.43847763108503 -1.40998324127395e-015
endloop
endfacet
facet normal -0.5 0.866025403784438 1.23526526469688e-015
outer loop
vertex -1.29999999999999 4.85166604983955 1.40998324127395e-015
vertex -1.83847763108502 4.43847763108503 3.5
vertex -1.29999999999999 4.85166604983954 3.5
endloop
endfacet
facet normal -0.707106781186545 0.707106781186551 8.53319938643537e-016
outer loop
vertex -1.83847763108502 4.43847763108503 3.5
vertex -2.25166604983954 3.90000000000001 0.0
vertex -2.25166604983954 3.90000000000001 3.5
endloop
endfacet
facet normal -0.866025403784438 0.500000000000002 8.35132458077392e-016
outer loop
vertex -2.25166604983954 3.90000000000001 0.0
vertex -1.83847763108502 4.43847763108503 3.5
vertex -1.83847763108502 4.43847763108503 -1.40998324127395e-015
endloop
endfacet
facet normal -0.866025403784438 0.500000000000001 8.35132458077392e-016
outer loop
vertex -2.25166604983954 3.90000000000001 3.5
vertex -2.51140714835157 3.27292951726657 0.0
vertex -2.51140714835157 3.27292951726655 3.5
endloop
endfacet
facet normal -0.965925826289068 0.258819045102521 5.25044128952996e-016
outer loop
vertex -2.51140714835157 3.27292951726657 0.0
vertex -2.25166604983954 3.90000000000001 3.5
vertex -2.25166604983954 3.90000000000001 0.0
endloop
endfacet
facet normal -0.965925826289068 0.25881904510252 5.25044128952995e-016
outer loop
vertex -2.51140714835157 3.27292951726655 3.5
vertex -2.6 2.60000000000001 -2.11497486191092e-015
vertex -2.6 2.6 3.5
endloop
endfacet
facet normal -1.0 2.15648859474656e-015 -2.48812067693168e-016
outer loop
vertex -2.6 2.60000000000001 -2.11497486191092e-015
vertex -2.51140714835157 3.27292951726655 3.5
vertex -2.51140714835157 3.27292951726657 0.0
endloop
endfacet
facet normal -1.0 1.96935528693797e-015 -2.48812067693168e-016
outer loop
vertex -2.6 2.6 3.5
vertex -2.51140714835158 1.92707048273345 1.40998324127395e-015
vertex -2.51140714835158 1.92707048273345 3.5
endloop
endfacet
facet normal -0.965925826289068 -0.258819045102521 -4.0184913599681e-016
outer loop
vertex -2.51140714835158 1.92707048273345 1.40998324127395e-015
vertex -2.6 2.6 3.5
vertex -2.6 2.60000000000001 -2.11497486191092e-015
endloop
endfacet
facet normal -0.866025403784438 -0.500000000000002 -2.55385241540005e-016
outer loop
vertex -2.25166604983954 1.30000000000001 3.5
vertex -2.51140714835158 1.92707048273345 1.40998324127395e-015
vertex -2.25166604983954 1.30000000000001 1.40998324127395e-015
endloop
endfacet
facet normal -0.965925826289068 -0.258819045102521 -4.0184913599681e-016
outer loop
vertex -2.51140714835158 1.92707048273345 1.40998324127395e-015
vertex -2.25166604983954 1.30000000000001 3.5
vertex -2.51140714835158 1.92707048273345 3.5
endloop
endfacet
facet normal -0.866025403784438 -0.500000000000002 -2.55385241540005e-016
outer loop
vertex -2.25166604983954 1.30000000000001 3.5
vertex -1.83847763108502 0.761522368914988 3.52495810318487e-015
vertex -1.83847763108502 0.761522368914982 3.50000000000001
endloop
endfacet
facet normal -0.707106781186551 -0.707106781186545 -1.08918762214063e-015
outer loop
vertex -1.83847763108502 0.761522368914988 3.52495810318487e-015
vertex -2.25166604983954 1.30000000000001 3.5
vertex -2.25166604983954 1.30000000000001 1.40998324127395e-015
endloop
endfacet
facet normal -0.500000000000003 -0.866025403784437 -1.11426047493511e-015
outer loop
vertex -1.3 0.348333950160455 3.5
vertex -1.83847763108502 0.761522368914988 3.52495810318487e-015
vertex -1.3 0.348333950160463 -1.40998324127395e-015
endloop
endfacet
facet normal -0.707106781186551 -0.707106781186545 -1.08918762214063e-015
outer loop
vertex -1.83847763108502 0.761522368914988 3.52495810318487e-015
vertex -1.3 0.348333950160455 3.5
vertex -1.83847763108502 0.761522368914982 3.50000000000001
endloop
endfacet
facet normal -0.258819045102518 -0.965925826289069 8.07518594402387e-016
outer loop
vertex -0.672929517266553 0.0885928516484214 3.52495810318487e-015
vertex -1.3 0.348333950160455 3.5
vertex -1.3 0.348333950160463 -1.40998324127395e-015
endloop
endfacet
facet normal -0.500000000000003 -0.866025403784437 -1.11426047493511e-015
outer loop
vertex -1.3 0.348333950160455 3.5
vertex -0.672929517266553 0.0885928516484214 3.52495810318487e-015
vertex -0.672929517266553 0.0885928516484271 3.50000000000001
endloop
endfacet
facet normal 6.95066571860454e-016 -1.0 1.81257117048583e-015
outer loop
vertex -1.40998324127395e-015 8.45989944764369e-015 3.5
vertex -0.672929517266553 0.0885928516484214 3.52495810318487e-015
vertex 0.0 0.0 0.0
endloop
endfacet
facet normal -0.258819045102518 -0.965925826289069 8.07518594402387e-016
outer loop
vertex -0.672929517266553 0.0885928516484214 3.52495810318487e-015
vertex -1.40998324127395e-015 8.45989944764369e-015 3.5
vertex -0.672929517266553 0.0885928516484271 3.50000000000001
endloop
endfacet
facet normal 0.258819045102517 -0.965925826289069 8.15917521236553e-016
outer loop
vertex 0.672929517266555 0.0885928516484242 4.93494134445882e-015
vertex -1.40998324127395e-015 8.45989944764369e-015 3.5
vertex 0.0 0.0 0.0
endloop
endfacet
facet normal 6.95066571860454e-016 -1.0 1.81257117048583e-015
outer loop
vertex -1.40998324127395e-015 8.45989944764369e-015 3.5
vertex 0.672929517266555 0.0885928516484242 4.93494134445882e-015
vertex 0.672929517266555 0.0885928516484271 3.50000000000001
endloop
endfacet
facet normal 0.500000000000003 -0.866025403784437 -1.66392056676101e-016
outer loop
vertex 1.3 0.348333950160457 3.5
vertex 0.672929517266555 0.0885928516484242 4.93494134445882e-015
vertex 1.3 0.34833395016046 2.11497486191092e-015
endloop
endfacet
facet normal 0.258819045102517 -0.965925826289069 8.15917521236553e-016
outer loop
vertex 0.672929517266555 0.0885928516484242 4.93494134445882e-015
vertex 1.3 0.348333950160457 3.5
vertex 0.672929517266555 0.0885928516484271 3.50000000000001
endloop
endfacet
facet normal 0.707106781186551 -0.707106781186544 8.36027528464433e-017
outer loop
vertex 1.83847763108502 0.761522368914985 9.16489106828067e-015
vertex 1.3 0.348333950160457 3.5
vertex 1.3 0.34833395016046 2.11497486191092e-015
endloop
endfacet
facet normal 0.500000000000003 -0.866025403784437 -1.66392056676101e-016
outer loop
vertex 1.3 0.348333950160457 3.5
vertex 1.83847763108502 0.761522368914985 9.16489106828067e-015
vertex 1.83847763108502 0.761522368914985 3.50000000000001
endloop
endfacet
facet normal 0.866025403784436 -0.500000000000005 4.01953726991367e-016
outer loop
vertex 2.25166604983954 1.30000000000001 6.34492458573277e-015
vertex 1.83847763108502 0.761522368914985 3.50000000000001
vertex 1.83847763108502 0.761522368914985 9.16489106828067e-015
endloop
endfacet
facet normal 0.707106781186552 -0.707106781186544 8.36027528464458e-017
outer loop
vertex 1.83847763108502 0.761522368914985 3.50000000000001
vertex 2.25166604983954 1.30000000000001 6.34492458573277e-015
vertex 2.25166604983954 1.30000000000001 3.50000000000001
endloop
endfacet
facet normal 0.965925826289067 -0.258819045102526 7.55998444814674e-017
outer loop
vertex 2.51140714835158 1.92707048273345 7.04991620636974e-015
vertex 2.25166604983954 1.30000000000001 3.50000000000001
vertex 2.25166604983954 1.30000000000001 6.34492458573277e-015
endloop
endfacet
facet normal 0.866025403784436 -0.500000000000005 4.01953726991367e-016
outer loop
vertex 2.25166604983954 1.30000000000001 3.50000000000001
vertex 2.51140714835158 1.92707048273345 7.04991620636974e-015
vertex 2.51140714835158 1.92707048273345 3.50000000000001
endloop
endfacet
facet normal 1.0 4.46446605771915e-015 6.17276450704509e-020
outer loop
vertex -0.599999999999997 2.60000000000001 7.04991620636974e-016
vertex -0.579555495773438 2.75529142706152 3.50000000000001
vertex -0.599999999999997 2.6 3.50000000000001
endloop
endfacet
facet normal 0.965925826289068 -0.258819045102521 -4.43595341995992e-016
outer loop
vertex -0.579555495773438 2.75529142706152 3.50000000000001
vertex -0.599999999999997 2.60000000000001 7.04991620636974e-016
vertex -0.579555495773438 2.75529142706152 3.52495810318487e-015
endloop
endfacet
facet normal 0.965925826289068 -0.258819045102522 -4.43595341995993e-016
outer loop
vertex -0.579555495773438 2.75529142706152 3.52495810318487e-015
vertex -0.519615242270661 2.9 3.5
vertex -0.579555495773438 2.75529142706152 3.50000000000001
endloop
endfacet
facet normal 0.866025403784438 -0.5 -5.58432309891496e-016
outer loop
vertex -0.519615242270661 2.9 3.5
vertex -0.579555495773438 2.75529142706152 3.52495810318487e-015
vertex -0.519615242270661 2.90000000000001 2.11497486191092e-015
endloop
endfacet
facet normal 0.866025403784438 -0.500000000000001 -5.58432309891496e-016
outer loop
vertex -0.519615242270661 2.90000000000001 2.11497486191092e-015
vertex -0.424264068711927 3.02426406871193 3.5
vertex -0.519615242270661 2.9 3.5
endloop
endfacet
facet normal 0.707106781186548 -0.707106781186547 -5.70142894265825e-016
outer loop
vertex -0.424264068711927 3.02426406871193 3.5
vertex -0.519615242270661 2.90000000000001 2.11497486191092e-015
vertex -0.424264068711927 3.02426406871193 4.93494134445882e-015
endloop
endfacet
facet normal 0.500000000000009 -0.866025403784433 -3.22587823684657e-016
outer loop
vertex -0.299999999999999 3.11961524227066 3.50000000000001
vertex -0.424264068711927 3.02426406871193 4.93494134445882e-015
vertex -0.299999999999999 3.11961524227067 4.22994972382185e-015
endloop
endfacet
facet normal 0.707106781186549 -0.707106781186546 -5.70142894265824e-016
outer loop
vertex -0.424264068711927 3.02426406871193 4.93494134445882e-015
vertex -0.299999999999999 3.11961524227066 3.50000000000001
vertex -0.424264068711927 3.02426406871193 3.5
endloop
endfacet
facet normal 0.25881904510252 -0.965925826289069 4.02897059523888e-016
outer loop
vertex -0.155291427061512 3.17955549577345 4.93494134445882e-015
vertex -0.299999999999999 3.11961524227066 3.50000000000001
vertex -0.299999999999999 3.11961524227067 4.22994972382185e-015
endloop
endfacet
facet normal 0.500000000000009 -0.866025403784433 -3.22587823684657e-016
outer loop
vertex -0.299999999999999 3.11961524227066 3.50000000000001
vertex -0.155291427061512 3.17955549577345 4.93494134445882e-015
vertex -0.155291427061512 3.17955549577345 3.50000000000001
endloop
endfacet
facet normal 0.0 -1.0 8.0541261218857e-016
outer loop
vertex 0.0 3.2 3.50000000000001
vertex -0.155291427061512 3.17955549577345 4.93494134445882e-015
vertex 0.0 3.2 4.93494134445882e-015
endloop
endfacet
facet normal 0.25881904510252 -0.965925826289069 4.02897059523888e-016
outer loop
vertex -0.155291427061512 3.17955549577345 4.93494134445882e-015
vertex 0.0 3.2 3.50000000000001
vertex -0.155291427061512 3.17955549577345 3.50000000000001
endloop
endfacet
facet normal -0.258819045102519 -0.965925826289069 4.03172560235601e-016
outer loop
vertex 0.155291427061512 3.17955549577345 3.50000000000001
vertex 0.0 3.2 4.93494134445882e-015
vertex 0.155291427061512 3.17955549577345 4.93494134445882e-015
endloop
endfacet
facet normal 0.0 -1.0 8.0541261218857e-016
outer loop
vertex 0.0 3.2 4.93494134445882e-015
vertex 0.155291427061512 3.17955549577345 3.50000000000001
vertex 0.0 3.2 3.50000000000001
endloop
endfacet
facet normal -0.500000000000006 -0.866025403784435 -3.22312322972946e-016
outer loop
vertex 0.3 3.11961524227066 3.50000000000001
vertex 0.155291427061512 3.17955549577345 4.93494134445882e-015
vertex 0.3 3.11961524227067 4.22994972382185e-015
endloop
endfacet
facet normal -0.258819045102519 -0.965925826289069 4.031725602356e-016
outer loop
vertex 0.155291427061512 3.17955549577345 4.93494134445882e-015
vertex 0.3 3.11961524227066 3.50000000000001
vertex 0.155291427061512 3.17955549577345 3.50000000000001
endloop
endfacet
facet normal -0.707106781186542 -0.707106781186553 -5.7014289426583e-016
outer loop
vertex 0.42426406871193 3.02426406871193 4.93494134445882e-015
vertex 0.3 3.11961524227066 3.50000000000001
vertex 0.3 3.11961524227067 4.22994972382185e-015
endloop
endfacet
facet normal -0.500000000000006 -0.866025403784435 -3.22312322972946e-016
outer loop
vertex 0.3 3.11961524227066 3.50000000000001
vertex 0.42426406871193 3.02426406871193 4.93494134445882e-015
vertex 0.42426406871193 3.02426406871193 3.5
endloop
endfacet
facet normal -0.707106781186541 -0.707106781186554 -5.70142894265831e-016
outer loop
vertex 0.42426406871193 3.02426406871193 3.5
vertex 0.519615242270665 2.90000000000001 2.11497486191092e-015
vertex 0.519615242270665 2.9 3.5
endloop
endfacet
facet normal -0.866025403784435 -0.500000000000007 -3.70536600700104e-016
outer loop
vertex 0.519615242270665 2.90000000000001 2.11497486191092e-015
vertex 0.42426406871193 3.02426406871193 3.5
vertex 0.42426406871193 3.02426406871193 4.93494134445882e-015
endloop
endfacet
facet normal -0.866025403784435 -0.500000000000006 -3.70536600700104e-016
outer loop
vertex 0.519615242270665 2.9 3.5
vertex 0.579555495773441 2.75529142706152 3.52495810318487e-015
vertex 0.579555495773444 2.75529142706152 3.50000000000001
endloop
endfacet
facet normal -0.965925826289068 -0.25881904510252 4.63371594498504e-017
outer loop
vertex 0.579555495773441 2.75529142706152 3.52495810318487e-015
vertex 0.519615242270665 2.9 3.5
vertex 0.519615242270665 2.90000000000001 2.11497486191092e-015
endloop
endfacet
facet normal -0.965925826289069 -0.258819045102519 4.63371594498536e-017
outer loop
vertex 0.579555495773444 2.75529142706152 3.50000000000001
vertex 0.6 2.60000000000001 3.52495810318487e-015
vertex 0.600000000000002 2.6 3.50000000000001
endloop
endfacet
facet normal -1.0 6.90611016912634e-015 5.03481040600853e-016
outer loop
vertex 0.6 2.60000000000001 3.52495810318487e-015
vertex 0.579555495773444 2.75529142706152 3.50000000000001
vertex 0.579555495773441 2.75529142706152 3.52495810318487e-015
endloop
endfacet
facet normal -1.0 6.36253246549193e-015 5.03481040600852e-016
outer loop
vertex 0.600000000000002 2.6 3.50000000000001
vertex 0.579555495773441 2.4447085729385 2.8199664825479e-015
vertex 0.579555495773442 2.4447085729385 3.5
endloop
endfacet
facet normal -0.965925826289069 0.258819045102518 4.43680483100496e-016
outer loop
vertex 0.579555495773441 2.4447085729385 2.8199664825479e-015
vertex 0.600000000000002 2.6 3.50000000000001
vertex 0.6 2.60000000000001 3.52495810318487e-015
endloop
endfacet
facet normal -0.866025403784438 0.500000000000001 6.65729267209579e-017
outer loop
vertex 0.519615242270665 2.30000000000001 3.50000000000001
vertex 0.579555495773441 2.4447085729385 2.8199664825479e-015
vertex 0.519615242270664 2.3 4.93494134445882e-015
endloop
endfacet
facet normal -0.965925826289069 0.258819045102518 4.43680483100496e-016
outer loop
vertex 0.579555495773441 2.4447085729385 2.8199664825479e-015
vertex 0.519615242270665 2.30000000000001 3.50000000000001
vertex 0.579555495773442 2.4447085729385 3.5
endloop
endfacet
facet normal -0.866025403784438 0.500000000000001 6.65729267209579e-017
outer loop
vertex 0.519615242270665 2.30000000000001 3.50000000000001
vertex 0.42426406871193 2.17573593128809 2.8199664825479e-015
vertex 0.42426406871193 2.17573593128808 3.50000000000001
endloop
endfacet
facet normal -0.707106781186558 0.707106781186537 2.78898992700666e-016
outer loop
vertex 0.42426406871193 2.17573593128809 2.8199664825479e-015
vertex 0.519615242270665 2.30000000000001 3.50000000000001
vertex 0.519615242270664 2.3 4.93494134445882e-015
endloop
endfacet
facet normal -0.5 0.866025403784439 6.97493811083209e-016
outer loop
vertex 0.3 2.08038475772934 3.50000000000001
vertex 0.42426406871193 2.17573593128809 2.8199664825479e-015
vertex 0.3 2.08038475772934 1.40998324127395e-015
endloop
endfacet
facet normal -0.707106781186558 0.707106781186537 2.78898992700666e-016
outer loop
vertex 0.42426406871193 2.17573593128809 2.8199664825479e-015
vertex 0.3 2.08038475772934 3.50000000000001
vertex 0.42426406871193 2.17573593128808 3.50000000000001
endloop
endfacet
facet normal -0.2588190451025 0.965925826289074 1.38255389265804e-015
outer loop
vertex 0.155291427061512 2.02044450422657 3.50000000000001
vertex 0.3 2.08038475772934 1.40998324127395e-015
vertex 0.155291427061512 2.02044450422657 1.40998324127395e-015
endloop
endfacet
facet normal -0.5 0.866025403784439 6.97493811083209e-016
outer loop
vertex 0.3 2.08038475772934 1.40998324127395e-015
vertex 0.155291427061512 2.02044450422657 3.50000000000001
vertex 0.3 2.08038475772934 3.50000000000001
endloop
endfacet
facet normal -3.83177725512817e-016 1.0 2.01422330406788e-015
outer loop
vertex 0.0 2.00000000000001 2.11497486191092e-015
vertex 0.155291427061512 2.02044450422657 3.50000000000001
vertex 0.155291427061512 2.02044450422657 1.40998324127395e-015
endloop
endfacet
facet normal -0.2588190451025 0.965925826289074 1.38255389265804e-015
outer loop
vertex 0.155291427061512 2.02044450422657 3.50000000000001
vertex 0.0 2.00000000000001 2.11497486191092e-015
vertex 0.0 2.0 3.50000000000001
endloop
endfacet
facet normal 0.2588190451025 0.965925826289074 1.38253986217152e-015
outer loop
vertex -0.155291427061512 2.02044450422657 2.8199664825479e-015
vertex 0.0 2.0 3.50000000000001
vertex 0.0 2.00000000000001 2.11497486191092e-015
endloop
endfacet
facet normal 0.0 1.0 2.01422330406788e-015
outer loop
vertex 0.0 2.0 3.50000000000001
vertex -0.155291427061512 2.02044450422657 2.8199664825479e-015
vertex -0.155291427061512 2.02044450422657 3.50000000000001
endloop
endfacet
facet normal 0.500000000000003 0.866025403784437 6.97446542633965e-016
outer loop
vertex -0.299999999999999 2.08038475772934 3.50000000000001
vertex -0.155291427061512 2.02044450422657 2.8199664825479e-015
vertex -0.299999999999999 2.08038475772934 1.40998324127395e-015
endloop
endfacet
facet normal 0.2588190451025 0.965925826289074 1.38253986217152e-015
outer loop
vertex -0.155291427061512 2.02044450422657 2.8199664825479e-015
vertex -0.299999999999999 2.08038475772934 3.50000000000001
vertex -0.155291427061512 2.02044450422657 3.50000000000001
endloop
endfacet
facet normal 0.707106781186564 0.707106781186531 1.98194452123446e-016
outer loop
vertex -0.424264068711927 2.17573593128809 2.8199664825479e-015
vertex -0.299999999999999 2.08038475772934 3.50000000000001
vertex -0.299999999999999 2.08038475772934 1.40998324127395e-015
endloop
endfacet
facet normal 0.500000000000003 0.866025403784437 6.97446542633965e-016
outer loop
vertex -0.299999999999999 2.08038475772934 3.50000000000001
vertex -0.424264068711927 2.17573593128809 2.8199664825479e-015
vertex -0.424264068711927 2.17573593128808 3.50000000000001
endloop
endfacet
facet normal 0.707106781186564 0.707106781186531 1.98194452123446e-016
outer loop
vertex -0.424264068711927 2.17573593128809 2.8199664825479e-015
vertex -0.519615242270661 2.30000000000001 3.50000000000001
vertex -0.424264068711927 2.17573593128808 3.50000000000001
endloop
endfacet
facet normal 0.86602540378444 0.499999999999997 -2.01694764270328e-016
outer loop
vertex -0.519615242270661 2.30000000000001 3.50000000000001
vertex -0.424264068711927 2.17573593128809 2.8199664825479e-015
vertex -0.519615242270661 2.3 5.63993296509579e-015
endloop
endfacet
facet normal 0.965925826289069 0.258819045102517 5.4734811985098e-017
outer loop
vertex -0.579555495773438 2.4447085729385 3.52495810318487e-015
vertex -0.519615242270661 2.30000000000001 3.50000000000001
vertex -0.519615242270661 2.3 5.63993296509579e-015
endloop
endfacet
facet normal 0.86602540378444 0.499999999999997 -2.01694764270328e-016
outer loop
vertex -0.519615242270661 2.30000000000001 3.50000000000001
vertex -0.579555495773438 2.4447085729385 3.52495810318487e-015
vertex -0.579555495773438 2.4447085729385 3.5
endloop
endfacet
facet normal 0.965925826289069 0.258819045102517 5.4734811985098e-017
outer loop
vertex -0.579555495773438 2.4447085729385 3.52495810318487e-015
vertex -0.599999999999997 2.6 3.50000000000001
vertex -0.579555495773438 2.4447085729385 3.5
endloop
endfacet
facet normal 1.0 4.12584388168454e-015 6.17276450697541e-020
outer loop
vertex -0.599999999999997 2.6 3.50000000000001
vertex -0.579555495773438 2.4447085729385 3.52495810318487e-015
vertex -0.599999999999997 2.60000000000001 7.04991620636974e-016
endloop
endfacet
facet normal -0.608761429008751 0.793353340291212 6.37825328900937e-016
outer loop
vertex -10.6205293051502 17.4205293051501 3.50000000000002
vertex -10.4116354077129 17.5808192302779 1.40998324127395e-014
vertex -10.6205293051502 17.4205293051502 1.26898491714655e-014
endloop
endfacet
facet normal -0.608761429008751 0.793353340291212 6.37825328900937e-016
outer loop
vertex -10.4116354077129 17.5808192302779 1.40998324127395e-014
vertex -10.6205293051502 17.4205293051501 3.50000000000002
vertex -10.4116354077129 17.5808192302779 3.50000000000001
endloop
endfacet
facet normal -0.608761429008716 0.793353340291239 -8.37791197534078e-016
outer loop
vertex -10.4116354077129 17.5808192302779 1.40998324127395e-014
vertex -9.20862896058014 18.5039185438755 3.5
vertex -9.20862896058014 18.5039185438755 7.04991620636974e-015
endloop
endfacet
facet normal -0.499999999999997 0.866025403784441 -4.24546472581874e-016
outer loop
vertex -9.20862896058014 18.5039185438755 3.5
vertex -10.4116354077129 17.5808192302779 1.40998324127395e-014
vertex -10.4116354077129 17.5808192302779 3.50000000000001
endloop
endfacet
facet normal -0.499999999999997 0.866025403784441 -4.24546472581874e-016
outer loop
vertex -9.20862896058014 18.5039185438755 3.5
vertex -7.56443618537229 19.1849654905225 1.69197988952874e-014
vertex -9.20862896058014 18.5039185438755 7.04991620636974e-015
endloop
endfacet
facet normal -0.382683432365088 0.923879532511287 -4.03763977727649e-018
outer loop
vertex -7.56443618537229 19.1849654905225 1.69197988952874e-014
vertex -9.20862896058014 18.5039185438755 3.5
vertex -7.56443618537229 19.1849654905225 3.50000000000002
endloop
endfacet
facet normal -3.82828574016933e-016 5.86215612869866e-016 -1.0
outer loop
vertex -11.7039185438755 16.0086289605801 1.56860635591727e-014
vertex -10.6 12.6 1.85060300417206e-014
vertex -17.1172579211603 12.6 1.49810719385357e-014
endloop
endfacet
facet normal -3.82828574016933e-016 5.86215612869866e-016 -1.0
outer loop
vertex -10.6 12.6 1.85060300417206e-014
vertex -11.7039185438755 16.0086289605801 1.56860635591727e-014
vertex -10.7808192302779 17.2116354077128 1.92110216623576e-014
endloop
endfacet
facet normal -3.82828574016933e-016 5.86215612869866e-016 -1.0
outer loop
vertex -10.6 12.6 1.85060300417206e-014
vertex -10.7808192302779 17.2116354077128 1.92110216623576e-014
vertex -10.6205293051502 17.4205293051502 1.26898491714655e-014
endloop
endfacet
facet normal -3.82828574016933e-016 5.86215612869866e-016 -1.0
outer loop
vertex -10.6 12.6 1.85060300417206e-014
vertex -10.6205293051502 17.4205293051502 1.26898491714655e-014
vertex -10.4116354077129 17.5808192302779 1.40998324127395e-014
endloop
endfacet
facet normal -3.82828574016933e-016 5.86215612869866e-016 -1.0
outer loop
vertex -10.6 12.6 1.85060300417206e-014
vertex -10.4116354077129 17.5808192302779 1.40998324127395e-014
vertex -10.4364439661875 13.8423314164921 1.85060300417206e-014
endloop
endfacet
facet normal -3.82828574016933e-016 5.86215612869866e-016 -1.0
outer loop
vertex -10.4364439661875 13.8423314164921 1.85060300417206e-014
vertex -10.4116354077129 17.5808192302779 1.40998324127395e-014
vertex -9.95692193816529 15.0 1.85060300417206e-014
endloop
endfacet
facet normal -3.82828574016933e-016 5.86215612869866e-016 -1.0
outer loop
vertex -9.95692193816529 15.0 1.85060300417206e-014
vertex -10.4116354077129 17.5808192302779 1.40998324127395e-014
vertex -9.20862896058014 18.5039185438755 7.04991620636974e-015
endloop
endfacet
facet normal -3.82828574016933e-016 5.86215612869866e-016 -1.0
outer loop
vertex -9.95692193816529 15.0 1.85060300417206e-014
vertex -9.20862896058014 18.5039185438755 7.04991620636974e-015
vertex -9.19411254969542 15.9941125496954 1.55098156540134e-014
endloop
endfacet
facet normal -3.82828574016933e-016 5.86215612869866e-016 -1.0
outer loop
vertex -9.19411254969542 15.9941125496954 1.55098156540134e-014
vertex -9.20862896058014 18.5039185438755 7.04991620636974e-015
vertex -7.56443618537229 19.1849654905225 1.69197988952874e-014
endloop
endfacet
facet normal -3.82828574016933e-016 5.86215612869866e-016 -1.0
outer loop
vertex -9.19411254969542 15.9941125496954 1.55098156540134e-014
vertex -7.56443618537229 19.1849654905225 1.69197988952874e-014
vertex -8.19999999999999 16.7569219381653 1.48048240333765e-014
endloop
endfacet
facet normal -3.82828574016933e-016 5.86215612869866e-016 -1.0
outer loop
vertex -8.19999999999999 16.7569219381653 1.48048240333765e-014
vertex -7.56443618537229 19.1849654905225 1.69197988952874e-014
vertex -7.04233141649209 17.2364439661875 1.33948407921025e-014
endloop
endfacet
facet normal -3.82828574016933e-016 5.86215612869866e-016 -1.0
outer loop
vertex -7.04233141649209 17.2364439661875 1.33948407921025e-014
vertex -7.56443618537229 19.1849654905225 1.69197988952874e-014
vertex -5.79999999999999 19.4172579211603 1.12798659301916e-014
endloop
endfacet
facet normal -3.82828574016933e-016 5.86215612869866e-016 -1.0
outer loop
vertex -7.04233141649209 17.2364439661875 1.33948407921025e-014
vertex -5.79999999999999 19.4172579211603 1.12798659301916e-014
vertex -5.79999999999999 17.4 1.76247905159244e-014
endloop
endfacet
facet normal -3.82828574016933e-016 5.86215612869866e-016 -1.0
outer loop
vertex -5.79999999999999 17.4 1.76247905159244e-014
vertex -5.79999999999999 19.4172579211603 1.12798659301916e-014
vertex -4.03556381462767 19.1849654905225 1.69197988952874e-014
endloop
endfacet
facet normal -3.82828574016933e-016 5.86215612869866e-016 -1.0
outer loop
vertex -5.79999999999999 17.4 1.76247905159244e-014
vertex -4.03556381462767 19.1849654905225 1.69197988952874e-014
vertex -4.55766858350789 17.2364439661875 1.40998324127395e-014
endloop
endfacet
facet normal -3.82828574016933e-016 5.86215612869866e-016 -1.0
outer loop
vertex -4.55766858350789 17.2364439661875 1.40998324127395e-014
vertex -4.03556381462767 19.1849654905225 1.69197988952874e-014
vertex -3.39999999999999 16.7569219381653 1.48048240333765e-014
endloop
endfacet
facet normal -3.82828574016933e-016 5.86215612869866e-016 -1.0
outer loop
vertex -3.39999999999999 16.7569219381653 1.48048240333765e-014
vertex -4.03556381462767 19.1849654905225 1.69197988952874e-014
vertex -2.39137103941982 18.5039185438755 1.19848575508286e-014
endloop
endfacet
facet normal -3.82828574016933e-016 5.86215612869866e-016 -1.0
outer loop
vertex -3.39999999999999 16.7569219381653 1.48048240333765e-014
vertex -2.39137103941982 18.5039185438755 1.19848575508286e-014
vertex -2.40588745030456 15.9941125496954 1.55098156540134e-014
endloop
endfacet
facet normal -3.82828574016933e-016 5.86215612869866e-016 -1.0
outer loop
vertex -2.40588745030456 15.9941125496954 1.55098156540134e-014
vertex -2.39137103941982 18.5039185438755 1.19848575508286e-014
vertex 0.672929517266558 13.1114071483516 6.34492458573277e-015
endloop
endfacet
facet normal -3.82828574016933e-016 5.86215612869866e-016 -1.0
outer loop
vertex 0.672929517266558 13.1114071483516 6.34492458573277e-015
vertex -2.39137103941982 18.5039185438755 1.19848575508286e-014
vertex 2.60000000000001 13.8 3.52495810318487e-015
endloop
endfacet
facet normal -3.82828574016933e-016 5.86215612869866e-016 -1.0
outer loop
vertex 0.672929517266558 13.1114071483516 6.34492458573277e-015
vertex 2.60000000000001 13.8 3.52495810318487e-015
vertex 0.672929517266558 5.11140714835159 4.22994972382185e-015
endloop
endfacet
facet normal -3.82828574016933e-016 5.86215612869866e-016 -1.0
outer loop
vertex 0.672929517266558 5.11140714835159 4.22994972382185e-015
vertex 2.60000000000001 13.8 3.52495810318487e-015
vertex 1.3 0.34833395016046 2.11497486191092e-015
endloop
endfacet
facet normal -3.82828574016933e-016 5.86215612869866e-016 -1.0
outer loop
vertex 1.3 0.34833395016046 2.11497486191092e-015
vertex 2.60000000000001 13.8 3.52495810318487e-015
vertex 1.83847763108502 0.761522368914985 9.16489106828067e-015
endloop
endfacet
facet normal -3.82828574016933e-016 5.86215612869866e-016 -1.0
outer loop
vertex 1.83847763108502 0.761522368914985 9.16489106828067e-015
vertex 2.60000000000001 13.8 3.52495810318487e-015
vertex 2.25166604983954 1.30000000000001 6.34492458573277e-015
endloop
endfacet
facet normal -3.82828574016933e-016 5.86215612869866e-016 -1.0
outer loop
vertex 2.25166604983954 1.30000000000001 6.34492458573277e-015
vertex 2.60000000000001 13.8 3.52495810318487e-015
vertex 2.51140714835158 1.92707048273345 7.04991620636974e-015
endloop
endfacet
facet normal -3.82828574016933e-016 5.86215612869866e-016 -1.0
outer loop
vertex 2.51140714835158 1.92707048273345 7.04991620636974e-015
vertex 2.60000000000001 13.8 3.52495810318487e-015
vertex 2.60000000000001 2.60000000000001 5.63993296509579e-015
endloop
endfacet
facet normal -3.82828574016933e-016 5.86215612869866e-016 -1.0
outer loop
vertex -0.67292951726655 5.11140714835159 2.8199664825479e-015
vertex -0.579555495773438 2.75529142706152 3.52495810318487e-015
vertex -0.599999999999997 2.60000000000001 7.04991620636974e-016
endloop
endfacet
facet normal -3.82828574016933e-016 5.86215612869866e-016 -1.0
outer loop
vertex -0.579555495773438 2.75529142706152 3.52495810318487e-015
vertex -0.67292951726655 5.11140714835159 2.8199664825479e-015
vertex 1.40998324127395e-015 5.2 3.52495810318487e-015
endloop
endfacet
facet normal -3.82828574016933e-016 5.86215612869866e-016 -1.0
outer loop
vertex -0.579555495773438 2.75529142706152 3.52495810318487e-015
vertex 1.40998324127395e-015 5.2 3.52495810318487e-015
vertex -0.519615242270661 2.90000000000001 2.11497486191092e-015
endloop
endfacet
facet normal -3.82828574016933e-016 5.86215612869866e-016 -1.0
outer loop
vertex -0.519615242270661 2.90000000000001 2.11497486191092e-015
vertex 1.40998324127395e-015 5.2 3.52495810318487e-015
vertex -0.424264068711927 3.02426406871193 4.93494134445882e-015
endloop
endfacet
facet normal -3.82828574016933e-016 5.86215612869866e-016 -1.0
outer loop
vertex -0.424264068711927 3.02426406871193 4.93494134445882e-015
vertex 1.40998324127395e-015 5.2 3.52495810318487e-015
vertex -0.299999999999999 3.11961524227067 4.22994972382185e-015
endloop
endfacet
facet normal -3.82828574016933e-016 5.86215612869866e-016 -1.0
outer loop
vertex -0.299999999999999 3.11961524227067 4.22994972382185e-015
vertex 1.40998324127395e-015 5.2 3.52495810318487e-015
vertex -0.155291427061512 3.17955549577345 4.93494134445882e-015
endloop
endfacet
facet normal -3.82828574016933e-016 5.86215612869866e-016 -1.0
outer loop
vertex -0.155291427061512 3.17955549577345 4.93494134445882e-015
vertex 1.40998324127395e-015 5.2 3.52495810318487e-015
vertex 0.0 3.2 4.93494134445882e-015
endloop
endfacet
facet normal -3.82828574016933e-016 5.86215612869866e-016 -1.0
outer loop
vertex 0.0 3.2 4.93494134445882e-015
vertex 1.40998324127395e-015 5.2 3.52495810318487e-015
vertex 0.155291427061512 3.17955549577345 4.93494134445882e-015
endloop
endfacet
facet normal -3.82828574016933e-016 5.86215612869866e-016 -1.0
outer loop
vertex 0.155291427061512 3.17955549577345 4.93494134445882e-015
vertex 1.40998324127395e-015 5.2 3.52495810318487e-015
vertex 0.672929517266558 5.11140714835159 4.22994972382185e-015
endloop
endfacet
facet normal -3.82828574016933e-016 5.86215612869866e-016 -1.0
outer loop
vertex 0.155291427061512 3.17955549577345 4.93494134445882e-015
vertex 0.672929517266558 5.11140714835159 4.22994972382185e-015
vertex 0.3 3.11961524227067 4.22994972382185e-015
endloop
endfacet
facet normal -3.82828574016933e-016 5.86215612869866e-016 -1.0
outer loop
vertex 0.3 3.11961524227067 4.22994972382185e-015
vertex 0.672929517266558 5.11140714835159 4.22994972382185e-015
vertex 0.42426406871193 3.02426406871193 4.93494134445882e-015
endloop
endfacet
facet normal -3.82828574016933e-016 5.86215612869866e-016 -1.0
outer loop
vertex 0.42426406871193 3.02426406871193 4.93494134445882e-015
vertex 0.672929517266558 5.11140714835159 4.22994972382185e-015
vertex 0.519615242270665 2.90000000000001 2.11497486191092e-015
endloop
endfacet
facet normal -3.82828574016933e-016 5.86215612869866e-016 -1.0
outer loop
vertex 0.519615242270665 2.90000000000001 2.11497486191092e-015
vertex 0.672929517266558 5.11140714835159 4.22994972382185e-015
vertex 0.579555495773441 2.75529142706152 3.52495810318487e-015
endloop
endfacet
facet normal -3.82828574016933e-016 5.86215612869866e-016 -1.0
outer loop
vertex 0.579555495773441 2.75529142706152 3.52495810318487e-015
vertex 0.672929517266558 5.11140714835159 4.22994972382185e-015
vertex 0.6 2.60000000000001 3.52495810318487e-015
endloop
endfacet
facet normal -3.82828574016933e-016 5.86215612869866e-016 -1.0
outer loop
vertex 0.6 2.60000000000001 3.52495810318487e-015
vertex 0.672929517266558 5.11140714835159 4.22994972382185e-015
vertex 0.672929517266555 0.0885928516484242 4.93494134445882e-015
endloop
endfacet
facet normal -3.82828574016933e-016 5.86215612869866e-016 -1.0
outer loop
vertex 0.672929517266555 0.0885928516484242 4.93494134445882e-015
vertex 0.672929517266558 5.11140714835159 4.22994972382185e-015
vertex 1.3 0.34833395016046 2.11497486191092e-015
endloop
endfacet
facet normal -3.82828574016933e-016 5.86215612869866e-016 -1.0
outer loop
vertex -2.51140714835157 3.27292951726657 0.0
vertex -2.51140714835158 1.92707048273345 1.40998324127395e-015
vertex -2.6 2.60000000000001 -2.11497486191092e-015
endloop
endfacet
facet normal -3.82828574016933e-016 5.86215612869866e-016 -1.0
outer loop
vertex -2.51140714835158 1.92707048273345 1.40998324127395e-015
vertex -2.51140714835157 3.27292951726657 0.0
vertex -2.25166604983954 1.30000000000001 1.40998324127395e-015
endloop
endfacet
facet normal -3.82828574016933e-016 5.86215612869866e-016 -1.0
outer loop
vertex -2.25166604983954 1.30000000000001 1.40998324127395e-015
vertex -2.51140714835157 3.27292951726657 0.0
vertex -2.25166604983954 3.90000000000001 0.0
endloop
endfacet
facet normal -3.82828574016933e-016 5.86215612869866e-016 -1.0
outer loop
vertex -2.25166604983954 1.30000000000001 1.40998324127395e-015
vertex -2.25166604983954 3.90000000000001 0.0
vertex -1.83847763108502 0.761522368914988 3.52495810318487e-015
endloop
endfacet
facet normal -3.82828574016933e-016 5.86215612869866e-016 -1.0
outer loop
vertex -1.83847763108502 0.761522368914988 3.52495810318487e-015
vertex -2.25166604983954 3.90000000000001 0.0
vertex -1.83847763108502 4.43847763108503 -1.40998324127395e-015
endloop
endfacet
facet normal -3.82828574016933e-016 5.86215612869866e-016 -1.0
outer loop
vertex -1.83847763108502 0.761522368914988 3.52495810318487e-015
vertex -1.83847763108502 4.43847763108503 -1.40998324127395e-015
vertex -1.3 0.348333950160463 -1.40998324127395e-015
endloop
endfacet
facet normal -3.82828574016933e-016 5.86215612869866e-016 -1.0
outer loop
vertex -1.3 0.348333950160463 -1.40998324127395e-015
vertex -1.83847763108502 4.43847763108503 -1.40998324127395e-015
vertex -1.29999999999999 4.85166604983955 1.40998324127395e-015
endloop
endfacet
facet normal -3.82828574016933e-016 5.86215612869866e-016 -1.0
outer loop
vertex -1.3 0.348333950160463 -1.40998324127395e-015
vertex -1.29999999999999 4.85166604983955 1.40998324127395e-015
vertex -0.672929517266553 0.0885928516484214 3.52495810318487e-015
endloop
endfacet
facet normal -3.82828574016933e-016 5.86215612869866e-016 -1.0
outer loop
vertex -0.672929517266553 0.0885928516484214 3.52495810318487e-015
vertex -1.29999999999999 4.85166604983955 1.40998324127395e-015
vertex -0.67292951726655 5.11140714835159 2.8199664825479e-015
endloop
endfacet
facet normal -3.82828574016933e-016 5.86215612869866e-016 -1.0
outer loop
vertex -0.672929517266553 0.0885928516484214 3.52495810318487e-015
vertex -0.67292951726655 5.11140714835159 2.8199664825479e-015
vertex -0.599999999999997 2.60000000000001 7.04991620636974e-016
endloop
endfacet
facet normal -3.82828574016933e-016 5.86215612869866e-016 -1.0
outer loop
vertex -0.672929517266553 0.0885928516484214 3.52495810318487e-015
vertex -0.599999999999997 2.60000000000001 7.04991620636974e-016
vertex -0.579555495773438 2.4447085729385 3.52495810318487e-015
endloop
endfacet
facet normal -3.82828574016933e-016 5.86215612869866e-016 -1.0
outer loop
vertex -0.672929517266553 0.0885928516484214 3.52495810318487e-015
vertex -0.579555495773438 2.4447085729385 3.52495810318487e-015
vertex 0.0 0.0 0.0
endloop
endfacet
facet normal -3.82828574016933e-016 5.86215612869866e-016 -1.0
outer loop
vertex 0.0 0.0 0.0
vertex -0.579555495773438 2.4447085729385 3.52495810318487e-015
vertex -0.519615242270661 2.3 5.63993296509579e-015
endloop
endfacet
facet normal -3.82828574016933e-016 5.86215612869866e-016 -1.0
outer loop
vertex 0.0 0.0 0.0
vertex -0.519615242270661 2.3 5.63993296509579e-015
vertex -0.424264068711927 2.17573593128809 2.8199664825479e-015
endloop
endfacet
facet normal -3.82828574016933e-016 5.86215612869866e-016 -1.0
outer loop
vertex 0.0 0.0 0.0
vertex -0.424264068711927 2.17573593128809 2.8199664825479e-015
vertex -0.299999999999999 2.08038475772934 1.40998324127395e-015
endloop
endfacet
facet normal -3.82828574016933e-016 5.86215612869866e-016 -1.0
outer loop
vertex 0.0 0.0 0.0
vertex -0.299999999999999 2.08038475772934 1.40998324127395e-015
vertex -0.155291427061512 2.02044450422657 2.8199664825479e-015
endloop
endfacet
facet normal -3.82828574016933e-016 5.86215612869866e-016 -1.0
outer loop
vertex 0.0 0.0 0.0
vertex -0.155291427061512 2.02044450422657 2.8199664825479e-015
vertex 0.0 2.00000000000001 2.11497486191092e-015
endloop
endfacet
facet normal -3.82828574016933e-016 5.86215612869866e-016 -1.0
outer loop
vertex 0.0 0.0 0.0
vertex 0.0 2.00000000000001 2.11497486191092e-015
vertex 0.155291427061512 2.02044450422657 1.40998324127395e-015
endloop
endfacet
facet normal -3.82828574016933e-016 5.86215612869866e-016 -1.0
outer loop
vertex 0.0 0.0 0.0
vertex 0.155291427061512 2.02044450422657 1.40998324127395e-015
vertex 0.672929517266555 0.0885928516484242 4.93494134445882e-015
endloop
endfacet
facet normal -3.82828574016933e-016 5.86215612869866e-016 -1.0
outer loop
vertex 0.672929517266555 0.0885928516484242 4.93494134445882e-015
vertex 0.155291427061512 2.02044450422657 1.40998324127395e-015
vertex 0.3 2.08038475772934 1.40998324127395e-015
endloop
endfacet
facet normal -3.82828574016933e-016 5.86215612869866e-016 -1.0
outer loop
vertex 0.672929517266555 0.0885928516484242 4.93494134445882e-015
vertex 0.3 2.08038475772934 1.40998324127395e-015
vertex 0.42426406871193 2.17573593128809 2.8199664825479e-015
endloop
endfacet
facet normal -3.82828574016933e-016 5.86215612869866e-016 -1.0
outer loop
vertex 0.672929517266555 0.0885928516484242 4.93494134445882e-015
vertex 0.42426406871193 2.17573593128809 2.8199664825479e-015
vertex 0.519615242270664 2.3 4.93494134445882e-015
endloop
endfacet
facet normal -3.82828574016933e-016 5.86215612869866e-016 -1.0
outer loop
vertex 0.672929517266555 0.0885928516484242 4.93494134445882e-015
vertex 0.519615242270664 2.3 4.93494134445882e-015
vertex 0.579555495773441 2.4447085729385 2.8199664825479e-015
endloop
endfacet
facet normal -3.82828574016933e-016 5.86215612869866e-016 -1.0
outer loop
vertex 0.672929517266555 0.0885928516484242 4.93494134445882e-015
vertex 0.579555495773441 2.4447085729385 2.8199664825479e-015
vertex 0.6 2.60000000000001 3.52495810318487e-015
endloop
endfacet
facet normal -0.793353340291239 0.608761429008715 -4.21590614522401e-016
outer loop
vertex -10.7808192302779 17.2116354077128 3.50000000000002
vertex -11.7039185438755 16.0086289605801 1.56860635591727e-014
vertex -11.7039185438755 16.0086289605801 3.50000000000001
endloop
endfacet
facet normal -0.793353340291239 0.608761429008715 -4.21590614522401e-016
outer loop
vertex -11.7039185438755 16.0086289605801 1.56860635591727e-014
vertex -10.7808192302779 17.2116354077128 3.50000000000002
vertex -10.7808192302779 17.2116354077128 1.92110216623576e-014
endloop
endfacet
facet normal -0.53283902673185 0.846216622143204 -2.12752395926133e-016
outer loop
vertex -17.1172579211603 12.6 3.50000000000001
vertex -11.7039185438755 16.0086289605801 1.56860635591727e-014
vertex -17.1172579211603 12.6 1.49810719385357e-014
endloop
endfacet
facet normal -0.53283902673185 0.846216622143204 -2.12752395926133e-016
outer loop
vertex -11.7039185438755 16.0086289605801 1.56860635591727e-014
vertex -17.1172579211603 12.6 3.50000000000001
vertex -11.7039185438755 16.0086289605801 3.50000000000001
endloop
endfacet
facet normal -6.49038257345624e-016 -1.0 -1.60967784576974e-016
outer loop
vertex -10.6 12.6 1.85060300417206e-014
vertex -17.1172579211603 12.6 3.50000000000001
vertex -17.1172579211603 12.6 1.49810719385357e-014
endloop
endfacet
facet normal -6.49038257345624e-016 -1.0 -1.60967784576974e-016
outer loop
vertex -17.1172579211603 12.6 3.50000000000001
vertex -10.6 12.6 1.85060300417206e-014
vertex -10.6 12.6 3.50000000000002
endloop
endfacet
facet normal 0.965925826289068 -0.258819045102521 5.90940937890651e-016
outer loop
vertex -10.4364439661875 13.8423314164921 1.85060300417206e-014
vertex -10.6 12.6 3.50000000000002
vertex -10.6 12.6 1.85060300417206e-014
endloop
endfacet
facet normal 0.99144486137381 -0.130526192220053 6.28304836376135e-016
outer loop
vertex -10.6 12.6 3.50000000000002
vertex -10.4364439661875 13.8423314164921 1.85060300417206e-014
vertex -10.4364439661875 13.8423314164921 3.50000000000002
endloop
endfacet
facet normal 0.866025403784441 -0.499999999999997 2.62101004516498e-017
outer loop
vertex -9.95692193816529 15.0 1.85060300417206e-014
vertex -10.4364439661875 13.8423314164921 3.50000000000002
vertex -10.4364439661875 13.8423314164921 1.85060300417206e-014
endloop
endfacet
facet normal 0.965925826289068 -0.258819045102521 5.90940937890651e-016
outer loop
vertex -10.4364439661875 13.8423314164921 3.50000000000002
vertex -9.95692193816529 15.0 1.85060300417206e-014
vertex -9.95692193816529 15.0 3.50000000000002
endloop
endfacet
facet normal 0.79335334029124 -0.608761429008714 -4.91494137300317e-016
outer loop
vertex -9.19411254969542 15.9941125496954 1.55098156540134e-014
vertex -9.95692193816529 15.0 3.50000000000002
vertex -9.95692193816529 15.0 1.85060300417206e-014
endloop
endfacet
facet normal 0.866025403784441 -0.499999999999996 2.62101004516498e-017
outer loop
vertex -9.95692193816529 15.0 3.50000000000002
vertex -9.19411254969542 15.9941125496954 1.55098156540134e-014
vertex -9.19411254969542 15.9941125496954 3.50000000000002
endloop
endfacet
facet normal -0.793353340291242 0.608761429008712 4.89857029384294e-016
outer loop
vertex -10.6205293051502 17.4205293051501 3.50000000000002
vertex -10.7808192302779 17.2116354077128 1.92110216623576e-014
vertex -10.7808192302779 17.2116354077128 3.50000000000002
endloop
endfacet
facet normal -0.793353340291242 0.608761429008712 4.89857029384294e-016
outer loop
vertex -10.7808192302779 17.2116354077128 1.92110216623576e-014
vertex -10.6205293051502 17.4205293051501 3.50000000000002
vertex -10.6205293051502 17.4205293051502 1.26898491714655e-014
endloop
endfacet
endsolid tonearm-rest-latch
