solid tonearm-rest-stencil
facet normal 4.32242849867136e-031 -5.99992868627213e-016 1.0
outer loop
vertex 0.0 3.94795307556706e-014 0.999999999999967
vertex 1.00000000000001 17.8 0.999999999999988
vertex 1.00000000000001 19.8 1.0
endloop
endfacet
facet normal 4.32242849867136e-031 -5.99992868627213e-016 1.0
outer loop
vertex 1.00000000000001 17.8 0.999999999999988
vertex 0.0 3.94795307556706e-014 0.999999999999967
vertex 1.20000000000001 14.5 0.999999999999984
endloop
endfacet
facet normal 4.32242849867136e-031 -5.99992868627213e-016 1.0
outer loop
vertex 1.20000000000001 14.5 0.999999999999984
vertex 0.0 3.94795307556706e-014 0.999999999999967
vertex 1.24429642582422 14.1635352413667 0.999999999999973
endloop
endfacet
facet normal 4.32242849867136e-031 -5.99992868627213e-016 1.0
outer loop
vertex 1.24429642582422 14.1635352413667 0.999999999999973
vertex 0.0 3.94795307556706e-014 0.999999999999967
vertex 1.37416697508025 13.85 0.999999999999985
endloop
endfacet
facet normal 4.32242849867136e-031 -5.99992868627213e-016 1.0
outer loop
vertex 1.37416697508025 13.85 0.999999999999985
vertex 0.0 3.94795307556706e-014 0.999999999999967
vertex 8.00000000000001 2.8199664825479e-014 0.999999999999976
endloop
endfacet
facet normal 4.32242849867136e-031 -5.99992868627213e-016 1.0
outer loop
vertex 1.37416697508025 13.85 0.999999999999985
vertex 8.00000000000001 2.8199664825479e-014 0.999999999999976
vertex 1.58076118445749 13.5807611844575 0.999999999999984
endloop
endfacet
facet normal 4.32242849867136e-031 -5.99992868627213e-016 1.0
outer loop
vertex 1.58076118445749 13.5807611844575 0.999999999999984
vertex 8.00000000000001 2.8199664825479e-014 0.999999999999976
vertex 1.85 13.3741669750802 0.999999999999987
endloop
endfacet
facet normal 4.32242849867136e-031 -5.99992868627213e-016 1.0
outer loop
vertex 1.85 13.3741669750802 0.999999999999987
vertex 8.00000000000001 2.8199664825479e-014 0.999999999999976
vertex 2.16353524136673 13.2442964258242 0.999999999999987
endloop
endfacet
facet normal 4.32242849867136e-031 -5.99992868627213e-016 1.0
outer loop
vertex 2.16353524136673 13.2442964258242 0.999999999999987
vertex 8.00000000000001 2.8199664825479e-014 0.999999999999976
vertex 2.50000000000001 13.2 0.999999999999969
endloop
endfacet
facet normal 4.32242849867136e-031 -5.99992868627213e-016 1.0
outer loop
vertex 2.50000000000001 13.2 0.999999999999969
vertex 8.00000000000001 2.8199664825479e-014 0.999999999999976
vertex 2.83646475863329 13.2442964258242 0.99999999999999
endloop
endfacet
facet normal 4.32242849867136e-031 -5.99992868627213e-016 1.0
outer loop
vertex 2.83646475863329 13.2442964258242 0.99999999999999
vertex 8.00000000000001 2.8199664825479e-014 0.999999999999976
vertex 3.15000000000001 13.3741669750802 0.999999999999987
endloop
endfacet
facet normal 4.32242849867136e-031 -5.99992868627213e-016 1.0
outer loop
vertex 3.15000000000001 13.3741669750802 0.999999999999987
vertex 8.00000000000001 2.8199664825479e-014 0.999999999999976
vertex 3.41923881554252 13.5807611844575 0.999999999999984
endloop
endfacet
facet normal 4.32242849867136e-031 -5.99992868627213e-016 1.0
outer loop
vertex 3.41923881554252 13.5807611844575 0.999999999999984
vertex 8.00000000000001 2.8199664825479e-014 0.999999999999976
vertex 3.62583302491977 13.85 0.999999999999969
endloop
endfacet
facet normal 4.32242849867136e-031 -5.99992868627213e-016 1.0
outer loop
vertex 3.62583302491977 13.85 0.999999999999969
vertex 8.00000000000001 2.8199664825479e-014 0.999999999999976
vertex 3.75570357417579 14.1635352413667 0.999999999999974
endloop
endfacet
facet normal 4.32242849867136e-031 -5.99992868627213e-016 1.0
outer loop
vertex 3.75570357417579 14.1635352413667 0.999999999999974
vertex 8.00000000000001 2.8199664825479e-014 0.999999999999976
vertex 3.8 14.5 0.999999999999978
endloop
endfacet
facet normal 4.32242849867136e-031 -5.99992868627213e-016 1.0
outer loop
vertex 3.8 14.5 0.999999999999978
vertex 8.00000000000001 2.8199664825479e-014 0.999999999999976
vertex 3.80000000000002 23.1 0.999999999999987
endloop
endfacet
facet normal 4.32242849867136e-031 -5.99992868627213e-016 1.0
outer loop
vertex 3.80000000000002 23.1 0.999999999999987
vertex 8.00000000000001 2.8199664825479e-014 0.999999999999976
vertex 5.00000000000001 17.8 0.999999999999993
endloop
endfacet
facet normal 4.32242849867136e-031 -5.99992868627213e-016 1.0
outer loop
vertex 5.00000000000001 17.8 0.999999999999993
vertex 8.00000000000001 2.8199664825479e-014 0.999999999999976
vertex 7.00000000000001 17.8 0.999999999999997
endloop
endfacet
facet normal 4.32242849867136e-031 -5.99992868627213e-016 1.0
outer loop
vertex 7.00000000000001 17.8 0.999999999999997
vertex 8.00000000000001 2.8199664825479e-014 0.999999999999976
vertex 7.00000000000001 19.8 0.999999999999988
endloop
endfacet
facet normal 4.32242849867136e-031 -5.99992868627213e-016 1.0
outer loop
vertex 7.00000000000001 19.8 0.999999999999988
vertex 8.00000000000001 2.8199664825479e-014 0.999999999999976
vertex 7.99999999999998 37.6 0.99999999999999
endloop
endfacet
facet normal 4.32242849867136e-031 -5.99992868627213e-016 1.0
outer loop
vertex -3.24296145493008e-014 37.6 0.999999999999998
vertex 1.37416697508023 23.75 1.00000000000001
vertex 7.99999999999998 37.6 0.99999999999999
endloop
endfacet
facet normal 4.32242849867136e-031 -5.99992868627213e-016 1.0
outer loop
vertex 1.37416697508023 23.75 1.00000000000001
vertex -3.24296145493008e-014 37.6 0.999999999999998
vertex 1.24429642582421 23.4364647586332 0.999999999999993
endloop
endfacet
facet normal 4.32242849867136e-031 -5.99992868627213e-016 1.0
outer loop
vertex 1.24429642582421 23.4364647586332 0.999999999999993
vertex -3.24296145493008e-014 37.6 0.999999999999998
vertex 1.2 23.1 0.999999999999998
endloop
endfacet
facet normal 4.32242849867136e-031 -5.99992868627213e-016 1.0
outer loop
vertex 1.2 23.1 0.999999999999998
vertex -3.24296145493008e-014 37.6 0.999999999999998
vertex 1.00000000000001 19.8 1.0
endloop
endfacet
facet normal 4.32242849867136e-031 -5.99992868627213e-016 1.0
outer loop
vertex 1.00000000000001 19.8 1.0
vertex -3.24296145493008e-014 37.6 0.999999999999998
vertex 0.0 3.94795307556706e-014 0.999999999999967
endloop
endfacet
facet normal 4.32242849867136e-031 -5.99992868627213e-016 1.0
outer loop
vertex 7.99999999999998 37.6 0.99999999999999
vertex 1.37416697508023 23.75 1.00000000000001
vertex 1.58076118445748 24.0192388155425 0.999999999999984
endloop
endfacet
facet normal 4.32242849867136e-031 -5.99992868627213e-016 1.0
outer loop
vertex 7.99999999999998 37.6 0.99999999999999
vertex 1.58076118445748 24.0192388155425 0.999999999999984
vertex 1.85 24.2258330249197 0.999999999999995
endloop
endfacet
facet normal 4.32242849867136e-031 -5.99992868627213e-016 1.0
outer loop
vertex 7.99999999999998 37.6 0.99999999999999
vertex 1.85 24.2258330249197 0.999999999999995
vertex 2.16353524136673 24.3557035741758 0.999999999999973
endloop
endfacet
facet normal 4.32242849867136e-031 -5.99992868627213e-016 1.0
outer loop
vertex 7.99999999999998 37.6 0.99999999999999
vertex 2.16353524136673 24.3557035741758 0.999999999999973
vertex 2.5 24.4 0.999999999999973
endloop
endfacet
facet normal 4.32242849867136e-031 -5.99992868627213e-016 1.0
outer loop
vertex 7.99999999999998 37.6 0.99999999999999
vertex 2.5 24.4 0.999999999999973
vertex 2.83646475863328 24.3557035741758 0.999999999999973
endloop
endfacet
facet normal 4.32242849867136e-031 -5.99992868627213e-016 1.0
outer loop
vertex 7.99999999999998 37.6 0.99999999999999
vertex 2.83646475863328 24.3557035741758 0.999999999999973
vertex 3.15 24.2258330249197 0.999999999999995
endloop
endfacet
facet normal 4.32242849867136e-031 -5.99992868627213e-016 1.0
outer loop
vertex 7.99999999999998 37.6 0.99999999999999
vertex 3.15 24.2258330249197 0.999999999999995
vertex 3.41923881554252 24.0192388155425 0.99999999999997
endloop
endfacet
facet normal 4.32242849867136e-031 -5.99992868627213e-016 1.0
outer loop
vertex 7.99999999999998 37.6 0.99999999999999
vertex 3.41923881554252 24.0192388155425 0.99999999999997
vertex 3.62583302491977 23.75 0.999999999999983
endloop
endfacet
facet normal 4.32242849867136e-031 -5.99992868627213e-016 1.0
outer loop
vertex 7.99999999999998 37.6 0.99999999999999
vertex 3.62583302491977 23.75 0.999999999999983
vertex 3.7557035741758 23.4364647586333 0.999999999999991
endloop
endfacet
facet normal 4.32242849867136e-031 -5.99992868627213e-016 1.0
outer loop
vertex 7.99999999999998 37.6 0.99999999999999
vertex 3.7557035741758 23.4364647586333 0.999999999999991
vertex 3.80000000000002 23.1 0.999999999999987
endloop
endfacet
facet normal 4.32242849867136e-031 -5.99992868627213e-016 1.0
outer loop
vertex 7.99999999999998 37.6 0.99999999999999
vertex 3.80000000000002 23.1 0.999999999999987
vertex 5.00000000000001 19.8 1.0
endloop
endfacet
facet normal 4.32242849867136e-031 -5.99992868627213e-016 1.0
outer loop
vertex 5.00000000000001 19.8 1.0
vertex 3.80000000000002 23.1 0.999999999999987
vertex 5.00000000000001 17.8 0.999999999999993
endloop
endfacet
facet normal 4.32242849867136e-031 -5.99992868627213e-016 1.0
outer loop
vertex 7.99999999999998 37.6 0.99999999999999
vertex 5.00000000000001 19.8 1.0
vertex 7.00000000000001 19.8 0.999999999999988
endloop
endfacet
facet normal 4.32242849867136e-031 -5.99992868627213e-016 1.0
outer loop
vertex 1.00000000000001 17.8 0.999999999999988
vertex 1.37416697508023 15.15 0.999999999999969
vertex 3.0 17.8 0.999999999999991
endloop
endfacet
facet normal 4.32242849867136e-031 -5.99992868627213e-016 1.0
outer loop
vertex 1.37416697508023 15.15 0.999999999999969
vertex 1.00000000000001 17.8 0.999999999999988
vertex 1.24429642582422 14.8364647586333 0.999999999999969
endloop
endfacet
facet normal 4.32242849867136e-031 -5.99992868627213e-016 1.0
outer loop
vertex 1.24429642582422 14.8364647586333 0.999999999999969
vertex 1.00000000000001 17.8 0.999999999999988
vertex 1.20000000000001 14.5 0.999999999999984
endloop
endfacet
facet normal 4.32242849867136e-031 -5.99992868627213e-016 1.0
outer loop
vertex 3.0 17.8 0.999999999999991
vertex 1.37416697508023 15.15 0.999999999999969
vertex 1.5807611844575 15.4192388155425 0.999999999999978
endloop
endfacet
facet normal 4.32242849867136e-031 -5.99992868627213e-016 1.0
outer loop
vertex 3.0 17.8 0.999999999999991
vertex 1.5807611844575 15.4192388155425 0.999999999999978
vertex 1.85000000000001 15.6258330249198 0.999999999999974
endloop
endfacet
facet normal 4.32242849867136e-031 -5.99992868627213e-016 1.0
outer loop
vertex 3.0 17.8 0.999999999999991
vertex 1.85000000000001 15.6258330249198 0.999999999999974
vertex 2.16353524136673 15.7557035741758 0.999999999999991
endloop
endfacet
facet normal 4.32242849867136e-031 -5.99992868627213e-016 1.0
outer loop
vertex 3.0 17.8 0.999999999999991
vertex 2.16353524136673 15.7557035741758 0.999999999999991
vertex 2.5 15.8 0.99999999999996
endloop
endfacet
facet normal 4.32242849867136e-031 -5.99992868627213e-016 1.0
outer loop
vertex 3.0 17.8 0.999999999999991
vertex 2.5 15.8 0.99999999999996
vertex 2.83646475863329 15.7557035741758 0.999999999999987
endloop
endfacet
facet normal 4.32242849867136e-031 -5.99992868627213e-016 1.0
outer loop
vertex 3.0 17.8 0.999999999999991
vertex 2.83646475863329 15.7557035741758 0.999999999999987
vertex 3.15000000000001 15.6258330249198 0.99999999999997
endloop
endfacet
facet normal 4.32242849867136e-031 -5.99992868627213e-016 1.0
outer loop
vertex 3.0 17.8 0.999999999999991
vertex 3.15000000000001 15.6258330249198 0.99999999999997
vertex 3.0 19.8 0.999999999999997
endloop
endfacet
facet normal 4.32242849867136e-031 -5.99992868627213e-016 1.0
outer loop
vertex 3.0 19.8 0.999999999999997
vertex 3.15000000000001 15.6258330249198 0.99999999999997
vertex 3.15000000000001 21.9741669750802 0.99999999999999
endloop
endfacet
facet normal 4.32242849867136e-031 -5.99992868627213e-016 1.0
outer loop
vertex 3.15000000000001 21.9741669750802 0.99999999999999
vertex 3.15000000000001 15.6258330249198 0.99999999999997
vertex 3.41923881554252 22.1807611844575 0.999999999999991
endloop
endfacet
facet normal 4.32242849867136e-031 -5.99992868627213e-016 1.0
outer loop
vertex 3.41923881554252 22.1807611844575 0.999999999999991
vertex 3.15000000000001 15.6258330249198 0.99999999999997
vertex 3.41923881554252 15.4192388155425 0.999999999999981
endloop
endfacet
facet normal 4.32242849867136e-031 -5.99992868627213e-016 1.0
outer loop
vertex 3.41923881554252 22.1807611844575 0.999999999999991
vertex 3.41923881554252 15.4192388155425 0.999999999999981
vertex 3.62583302491977 22.45 0.999999999999998
endloop
endfacet
facet normal 4.32242849867136e-031 -5.99992868627213e-016 1.0
outer loop
vertex 3.62583302491977 22.45 0.999999999999998
vertex 3.41923881554252 15.4192388155425 0.999999999999981
vertex 3.62583302491978 15.15 0.999999999999964
endloop
endfacet
facet normal 4.32242849867136e-031 -5.99992868627213e-016 1.0
outer loop
vertex 3.62583302491977 22.45 0.999999999999998
vertex 3.62583302491978 15.15 0.999999999999964
vertex 3.75570357417579 22.7635352413667 0.999999999999995
endloop
endfacet
facet normal 4.32242849867136e-031 -5.99992868627213e-016 1.0
outer loop
vertex 3.75570357417579 22.7635352413667 0.999999999999995
vertex 3.62583302491978 15.15 0.999999999999964
vertex 3.7557035741758 14.8364647586333 0.999999999999969
endloop
endfacet
facet normal 4.32242849867136e-031 -5.99992868627213e-016 1.0
outer loop
vertex 3.75570357417579 22.7635352413667 0.999999999999995
vertex 3.7557035741758 14.8364647586333 0.999999999999969
vertex 3.80000000000002 23.1 0.999999999999987
endloop
endfacet
facet normal 4.32242849867136e-031 -5.99992868627213e-016 1.0
outer loop
vertex 3.80000000000002 23.1 0.999999999999987
vertex 3.7557035741758 14.8364647586333 0.999999999999969
vertex 3.8 14.5 0.999999999999978
endloop
endfacet
facet normal 4.32242849867136e-031 -5.99992868627213e-016 1.0
outer loop
vertex 1.00000000000001 19.8 1.0
vertex 1.24429642582422 22.7635352413667 0.999999999999991
vertex 1.2 23.1 0.999999999999998
endloop
endfacet
facet normal 4.32242849867136e-031 -5.99992868627213e-016 1.0
outer loop
vertex 1.24429642582422 22.7635352413667 0.999999999999991
vertex 1.00000000000001 19.8 1.0
vertex 1.37416697508023 22.45 0.99999999999999
endloop
endfacet
facet normal 4.32242849867136e-031 -5.99992868627213e-016 1.0
outer loop
vertex 1.37416697508023 22.45 0.99999999999999
vertex 1.00000000000001 19.8 1.0
vertex 3.0 19.8 0.999999999999997
endloop
endfacet
facet normal 4.32242849867136e-031 -5.99992868627213e-016 1.0
outer loop
vertex 1.37416697508023 22.45 0.99999999999999
vertex 3.0 19.8 0.999999999999997
vertex 1.58076118445749 22.1807611844575 0.999999999999991
endloop
endfacet
facet normal 4.32242849867136e-031 -5.99992868627213e-016 1.0
outer loop
vertex 1.58076118445749 22.1807611844575 0.999999999999991
vertex 3.0 19.8 0.999999999999997
vertex 1.85 21.9741669750802 0.999999999999998
endloop
endfacet
facet normal 4.32242849867136e-031 -5.99992868627213e-016 1.0
outer loop
vertex 1.85 21.9741669750802 0.999999999999998
vertex 3.0 19.8 0.999999999999997
vertex 2.16353524136672 21.8442964258242 0.999999999999993
endloop
endfacet
facet normal 4.32242849867136e-031 -5.99992868627213e-016 1.0
outer loop
vertex 2.16353524136672 21.8442964258242 0.999999999999993
vertex 3.0 19.8 0.999999999999997
vertex 2.50000000000002 21.8 1.0
endloop
endfacet
facet normal 4.32242849867136e-031 -5.99992868627213e-016 1.0
outer loop
vertex 2.50000000000002 21.8 1.0
vertex 3.0 19.8 0.999999999999997
vertex 2.83646475863328 21.8442964258242 0.999999999999997
endloop
endfacet
facet normal 4.32242849867136e-031 -5.99992868627213e-016 1.0
outer loop
vertex 2.83646475863328 21.8442964258242 0.999999999999997
vertex 3.0 19.8 0.999999999999997
vertex 3.15000000000001 21.9741669750802 0.99999999999999
endloop
endfacet
facet normal 2.64371857738865e-016 -9.37488857230017e-017 -1.0
outer loop
vertex 1.00000000000001 19.8 -1.12798659301916e-014
vertex 1.37416697508023 22.45 -9.86988268891764e-015
vertex 3.0 19.8 -1.12798659301916e-014
endloop
endfacet
facet normal 2.64371857738865e-016 -9.37488857230017e-017 -1.0
outer loop
vertex 1.37416697508023 22.45 -9.86988268891764e-015
vertex 1.00000000000001 19.8 -1.12798659301916e-014
vertex 1.24429642582422 22.7635352413667 -2.11497486191092e-014
endloop
endfacet
facet normal 2.64371857738865e-016 -9.37488857230017e-017 -1.0
outer loop
vertex 1.24429642582422 22.7635352413667 -2.11497486191092e-014
vertex 1.00000000000001 19.8 -1.12798659301916e-014
vertex 1.2 23.1 0.0
endloop
endfacet
facet normal 2.64371857738865e-016 -9.37488857230017e-017 -1.0
outer loop
vertex 3.0 19.8 -1.12798659301916e-014
vertex 1.37416697508023 22.45 -9.86988268891764e-015
vertex 1.58076118445749 22.1807611844574 5.63993296509579e-015
endloop
endfacet
facet normal 2.64371857738865e-016 -9.37488857230017e-017 -1.0
outer loop
vertex 3.0 19.8 -1.12798659301916e-014
vertex 1.58076118445749 22.1807611844574 5.63993296509579e-015
vertex 1.85 21.9741669750802 4.22994972382185e-015
endloop
endfacet
facet normal 2.64371857738865e-016 -9.37488857230017e-017 -1.0
outer loop
vertex 3.0 19.8 -1.12798659301916e-014
vertex 1.85 21.9741669750802 4.22994972382185e-015
vertex 2.16353524136672 21.8442964258242 -1.55098156540134e-014
endloop
endfacet
facet normal 2.64371857738865e-016 -9.37488857230017e-017 -1.0
outer loop
vertex 3.0 19.8 -1.12798659301916e-014
vertex 2.16353524136672 21.8442964258242 -1.55098156540134e-014
vertex 2.50000000000002 21.8 -2.25597318603832e-014
endloop
endfacet
facet normal 2.64371857738865e-016 -9.37488857230017e-017 -1.0
outer loop
vertex 3.0 19.8 -1.12798659301916e-014
vertex 2.50000000000002 21.8 -2.25597318603832e-014
vertex 2.83646475863328 21.8442964258241 -2.39697151016571e-014
endloop
endfacet
facet normal 2.64371857738865e-016 -9.37488857230017e-017 -1.0
outer loop
vertex 3.0 19.8 -1.12798659301916e-014
vertex 2.83646475863328 21.8442964258241 -2.39697151016571e-014
vertex 3.15000000000001 21.9741669750802 1.12798659301916e-014
endloop
endfacet
facet normal 2.64371857738865e-016 -9.37488857230017e-017 -1.0
outer loop
vertex 1.00000000000001 17.8 -2.53796983429311e-014
vertex 1.24429642582422 14.8364647586333 -2.25597318603832e-014
vertex 1.20000000000001 14.5 -1.69197988952874e-014
endloop
endfacet
facet normal 2.64371857738865e-016 -9.37488857230017e-017 -1.0
outer loop
vertex 1.24429642582422 14.8364647586333 -2.25597318603832e-014
vertex 1.00000000000001 17.8 -2.53796983429311e-014
vertex 1.37416697508023 15.15 -2.25597318603832e-014
endloop
endfacet
facet normal 2.64371857738865e-016 -9.37488857230017e-017 -1.0
outer loop
vertex 1.37416697508023 15.15 -2.25597318603832e-014
vertex 1.00000000000001 17.8 -2.53796983429311e-014
vertex 3.0 17.8 -2.11497486191092e-014
endloop
endfacet
facet normal 2.64371857738865e-016 -9.37488857230017e-017 -1.0
outer loop
vertex 1.37416697508023 15.15 -2.25597318603832e-014
vertex 3.0 17.8 -2.11497486191092e-014
vertex 1.5807611844575 15.4192388155425 -3.10196313080269e-014
endloop
endfacet
facet normal 2.64371857738865e-016 -9.37488857230017e-017 -1.0
outer loop
vertex 1.5807611844575 15.4192388155425 -3.10196313080269e-014
vertex 3.0 17.8 -2.11497486191092e-014
vertex 1.85000000000001 15.6258330249197 -2.8199664825479e-014
endloop
endfacet
facet normal 2.64371857738865e-016 -9.37488857230017e-017 -1.0
outer loop
vertex 1.85000000000001 15.6258330249197 -2.8199664825479e-014
vertex 3.0 17.8 -2.11497486191092e-014
vertex 2.16353524136673 15.7557035741757 -1.97397653778353e-014
endloop
endfacet
facet normal 2.64371857738865e-016 -9.37488857230017e-017 -1.0
outer loop
vertex 2.16353524136673 15.7557035741757 -1.97397653778353e-014
vertex 3.0 17.8 -2.11497486191092e-014
vertex 2.5 15.8 -8.45989944764369e-015
endloop
endfacet
facet normal 2.64371857738865e-016 -9.37488857230017e-017 -1.0
outer loop
vertex 2.5 15.8 -8.45989944764369e-015
vertex 3.0 17.8 -2.11497486191092e-014
vertex 2.83646475863329 15.7557035741758 -3.24296145493008e-014
endloop
endfacet
facet normal 2.64371857738865e-016 -9.37488857230017e-017 -1.0
outer loop
vertex 2.83646475863329 15.7557035741758 -3.24296145493008e-014
vertex 3.0 17.8 -2.11497486191092e-014
vertex 3.15000000000001 15.6258330249198 -1.83297821365613e-014
endloop
endfacet
facet normal 2.64371857738865e-016 -9.37488857230017e-017 -1.0
outer loop
vertex 3.15000000000001 15.6258330249198 -1.83297821365613e-014
vertex 3.0 17.8 -2.11497486191092e-014
vertex 3.0 19.8 -1.12798659301916e-014
endloop
endfacet
facet normal 2.64371857738865e-016 -9.37488857230017e-017 -1.0
outer loop
vertex 3.15000000000001 15.6258330249198 -1.83297821365613e-014
vertex 3.0 19.8 -1.12798659301916e-014
vertex 3.15000000000001 21.9741669750802 1.12798659301916e-014
endloop
endfacet
facet normal 2.64371857738865e-016 -9.37488857230017e-017 -1.0
outer loop
vertex 3.15000000000001 15.6258330249198 -1.83297821365613e-014
vertex 3.15000000000001 21.9741669750802 1.12798659301916e-014
vertex 3.41923881554252 22.1807611844574 5.63993296509579e-015
endloop
endfacet
facet normal 2.64371857738865e-016 -9.37488857230017e-017 -1.0
outer loop
vertex 3.15000000000001 15.6258330249198 -1.83297821365613e-014
vertex 3.41923881554252 22.1807611844574 5.63993296509579e-015
vertex 3.41923881554252 15.4192388155425 -2.6789681584205e-014
endloop
endfacet
facet normal 2.64371857738865e-016 -9.37488857230017e-017 -1.0
outer loop
vertex 3.41923881554252 15.4192388155425 -2.6789681584205e-014
vertex 3.41923881554252 22.1807611844574 5.63993296509579e-015
vertex 3.62583302491977 22.45 -8.45989944764369e-015
endloop
endfacet
facet normal 2.64371857738865e-016 -9.37488857230017e-017 -1.0
outer loop
vertex 3.41923881554252 15.4192388155425 -2.6789681584205e-014
vertex 3.62583302491977 22.45 -8.45989944764369e-015
vertex 3.62583302491978 15.15 -1.69197988952874e-014
endloop
endfacet
facet normal 2.64371857738865e-016 -9.37488857230017e-017 -1.0
outer loop
vertex 3.62583302491978 15.15 -1.69197988952874e-014
vertex 3.62583302491977 22.45 -8.45989944764369e-015
vertex 3.75570357417579 22.7635352413667 -1.55098156540134e-014
endloop
endfacet
facet normal 2.64371857738865e-016 -9.37488857230017e-017 -1.0
outer loop
vertex 3.62583302491978 15.15 -1.69197988952874e-014
vertex 3.75570357417579 22.7635352413667 -1.55098156540134e-014
vertex 3.7557035741758 14.8364647586332 -2.53796983429311e-014
endloop
endfacet
facet normal 2.64371857738865e-016 -9.37488857230017e-017 -1.0
outer loop
vertex 3.7557035741758 14.8364647586332 -2.53796983429311e-014
vertex 3.75570357417579 22.7635352413667 -1.55098156540134e-014
vertex 3.80000000000002 23.1 1.40998324127395e-015
endloop
endfacet
facet normal 2.64371857738865e-016 -9.37488857230017e-017 -1.0
outer loop
vertex 3.7557035741758 14.8364647586332 -2.53796983429311e-014
vertex 3.80000000000002 23.1 1.40998324127395e-015
vertex 3.8 14.5 -1.97397653778353e-014
endloop
endfacet
facet normal 2.64371857738865e-016 -9.37488857230017e-017 -1.0
outer loop
vertex -3.24296145493008e-014 37.5999999999999 -9.86988268891764e-015
vertex 1.00000000000001 19.8 -1.12798659301916e-014
vertex 0.0 0.0 0.0
endloop
endfacet
facet normal 2.64371857738865e-016 -9.37488857230017e-017 -1.0
outer loop
vertex 1.00000000000001 19.8 -1.12798659301916e-014
vertex -3.24296145493008e-014 37.5999999999999 -9.86988268891764e-015
vertex 1.2 23.1 0.0
endloop
endfacet
facet normal 2.64371857738865e-016 -9.37488857230017e-017 -1.0
outer loop
vertex 1.2 23.1 0.0
vertex -3.24296145493008e-014 37.5999999999999 -9.86988268891764e-015
vertex 1.24429642582421 23.4364647586332 1.40998324127395e-015
endloop
endfacet
facet normal 2.64371857738865e-016 -9.37488857230017e-017 -1.0
outer loop
vertex 1.24429642582421 23.4364647586332 1.40998324127395e-015
vertex -3.24296145493008e-014 37.5999999999999 -9.86988268891764e-015
vertex 1.37416697508023 23.75 -2.6789681584205e-014
endloop
endfacet
facet normal 2.64371857738865e-016 -9.37488857230017e-017 -1.0
outer loop
vertex 1.37416697508023 23.75 -2.6789681584205e-014
vertex -3.24296145493008e-014 37.5999999999999 -9.86988268891764e-015
vertex 7.99999999999998 37.6 -1.40998324127395e-015
endloop
endfacet
facet normal 2.64371857738865e-016 -9.37488857230017e-017 -1.0
outer loop
vertex 1.37416697508023 23.75 -2.6789681584205e-014
vertex 7.99999999999998 37.6 -1.40998324127395e-015
vertex 1.58076118445748 24.0192388155425 -2.25597318603832e-014
endloop
endfacet
facet normal 2.64371857738865e-016 -9.37488857230017e-017 -1.0
outer loop
vertex 1.58076118445748 24.0192388155425 -2.25597318603832e-014
vertex 7.99999999999998 37.6 -1.40998324127395e-015
vertex 1.85 24.2258330249197 -1.83297821365613e-014
endloop
endfacet
facet normal 2.64371857738865e-016 -9.37488857230017e-017 -1.0
outer loop
vertex 1.85 24.2258330249197 -1.83297821365613e-014
vertex 7.99999999999998 37.6 -1.40998324127395e-015
vertex 2.16353524136673 24.3557035741758 -1.83297821365613e-014
endloop
endfacet
facet normal 2.64371857738865e-016 -9.37488857230017e-017 -1.0
outer loop
vertex 2.16353524136673 24.3557035741758 -1.83297821365613e-014
vertex 7.99999999999998 37.6 -1.40998324127395e-015
vertex 2.5 24.4 -7.04991620636974e-015
endloop
endfacet
facet normal 2.64371857738865e-016 -9.37488857230017e-017 -1.0
outer loop
vertex 2.5 24.4 -7.04991620636974e-015
vertex 7.99999999999998 37.6 -1.40998324127395e-015
vertex 2.83646475863328 24.3557035741758 -1.83297821365613e-014
endloop
endfacet
facet normal 2.64371857738865e-016 -9.37488857230017e-017 -1.0
outer loop
vertex 2.83646475863328 24.3557035741758 -1.83297821365613e-014
vertex 7.99999999999998 37.6 -1.40998324127395e-015
vertex 3.15 24.2258330249197 -1.69197988952874e-014
endloop
endfacet
facet normal 2.64371857738865e-016 -9.37488857230017e-017 -1.0
outer loop
vertex 3.15 24.2258330249197 -1.69197988952874e-014
vertex 7.99999999999998 37.6 -1.40998324127395e-015
vertex 3.41923881554252 24.0192388155425 -1.12798659301916e-014
endloop
endfacet
facet normal 2.64371857738865e-016 -9.37488857230017e-017 -1.0
outer loop
vertex 3.41923881554252 24.0192388155425 -1.12798659301916e-014
vertex 7.99999999999998 37.6 -1.40998324127395e-015
vertex 3.62583302491977 23.75 -2.6789681584205e-014
endloop
endfacet
facet normal 2.64371857738865e-016 -9.37488857230017e-017 -1.0
outer loop
vertex 3.62583302491977 23.75 -2.6789681584205e-014
vertex 7.99999999999998 37.6 -1.40998324127395e-015
vertex 3.7557035741758 23.4364647586332 4.22994972382185e-015
endloop
endfacet
facet normal 2.64371857738865e-016 -9.37488857230017e-017 -1.0
outer loop
vertex 3.7557035741758 23.4364647586332 4.22994972382185e-015
vertex 7.99999999999998 37.6 -1.40998324127395e-015
vertex 3.80000000000002 23.1 1.40998324127395e-015
endloop
endfacet
facet normal 2.64371857738865e-016 -9.37488857230017e-017 -1.0
outer loop
vertex 3.80000000000002 23.1 1.40998324127395e-015
vertex 7.99999999999998 37.6 -1.40998324127395e-015
vertex 5.00000000000001 19.8 -1.12798659301916e-014
endloop
endfacet
facet normal 2.64371857738865e-016 -9.37488857230017e-017 -1.0
outer loop
vertex 3.80000000000002 23.1 1.40998324127395e-015
vertex 5.00000000000001 19.8 -1.12798659301916e-014
vertex 5.00000000000001 17.8 -2.39697151016571e-014
endloop
endfacet
facet normal 2.64371857738865e-016 -9.37488857230017e-017 -1.0
outer loop
vertex 5.00000000000001 19.8 -1.12798659301916e-014
vertex 7.99999999999998 37.6 -1.40998324127395e-015
vertex 7.00000000000001 19.8 -5.63993296509579e-015
endloop
endfacet
facet normal 2.64371857738865e-016 -9.37488857230017e-017 -1.0
outer loop
vertex 0.0 0.0 0.0
vertex 1.37416697508025 13.85 -1.97397653778353e-014
vertex 8.00000000000001 0.0 -4.22994972382185e-015
endloop
endfacet
facet normal 2.64371857738865e-016 -9.37488857230017e-017 -1.0
outer loop
vertex 1.37416697508025 13.85 -1.97397653778353e-014
vertex 0.0 0.0 0.0
vertex 1.24429642582422 14.1635352413667 -2.25597318603832e-014
endloop
endfacet
facet normal 2.64371857738865e-016 -9.37488857230017e-017 -1.0
outer loop
vertex 1.24429642582422 14.1635352413667 -2.25597318603832e-014
vertex 0.0 0.0 0.0
vertex 1.20000000000001 14.5 -1.69197988952874e-014
endloop
endfacet
facet normal 2.64371857738865e-016 -9.37488857230017e-017 -1.0
outer loop
vertex 1.20000000000001 14.5 -1.69197988952874e-014
vertex 0.0 0.0 0.0
vertex 1.00000000000001 17.8 -2.53796983429311e-014
endloop
endfacet
facet normal 2.64371857738865e-016 -9.37488857230017e-017 -1.0
outer loop
vertex 1.00000000000001 17.8 -2.53796983429311e-014
vertex 0.0 0.0 0.0
vertex 1.00000000000001 19.8 -1.12798659301916e-014
endloop
endfacet
facet normal 2.64371857738865e-016 -9.37488857230017e-017 -1.0
outer loop
vertex 8.00000000000001 0.0 -4.22994972382185e-015
vertex 1.37416697508025 13.85 -1.97397653778353e-014
vertex 1.58076118445749 13.5807611844575 -1.97397653778353e-014
endloop
endfacet
facet normal 2.64371857738865e-016 -9.37488857230017e-017 -1.0
outer loop
vertex 8.00000000000001 0.0 -4.22994972382185e-015
vertex 1.58076118445749 13.5807611844575 -1.97397653778353e-014
vertex 1.85 13.3741669750802 -2.8199664825479e-015
endloop
endfacet
facet normal 2.64371857738865e-016 -9.37488857230017e-017 -1.0
outer loop
vertex 8.00000000000001 0.0 -4.22994972382185e-015
vertex 1.85 13.3741669750802 -2.8199664825479e-015
vertex 2.16353524136673 13.2442964258242 -1.55098156540134e-014
endloop
endfacet
facet normal 2.64371857738865e-016 -9.37488857230017e-017 -1.0
outer loop
vertex 8.00000000000001 0.0 -4.22994972382185e-015
vertex 2.16353524136673 13.2442964258242 -1.55098156540134e-014
vertex 2.50000000000001 13.2 -1.97397653778353e-014
endloop
endfacet
facet normal 2.64371857738865e-016 -9.37488857230017e-017 -1.0
outer loop
vertex 8.00000000000001 0.0 -4.22994972382185e-015
vertex 2.50000000000001 13.2 -1.97397653778353e-014
vertex 2.83646475863329 13.2442964258242 -1.55098156540134e-014
endloop
endfacet
facet normal 2.64371857738865e-016 -9.37488857230017e-017 -1.0
outer loop
vertex 8.00000000000001 0.0 -4.22994972382185e-015
vertex 2.83646475863329 13.2442964258242 -1.55098156540134e-014
vertex 3.15000000000001 13.3741669750802 -2.8199664825479e-015
endloop
endfacet
facet normal 2.64371857738865e-016 -9.37488857230017e-017 -1.0
outer loop
vertex 8.00000000000001 0.0 -4.22994972382185e-015
vertex 3.15000000000001 13.3741669750802 -2.8199664825479e-015
vertex 3.41923881554252 13.5807611844574 -8.45989944764369e-015
endloop
endfacet
facet normal 2.64371857738865e-016 -9.37488857230017e-017 -1.0
outer loop
vertex 8.00000000000001 0.0 -4.22994972382185e-015
vertex 3.41923881554252 13.5807611844574 -8.45989944764369e-015
vertex 3.62583302491977 13.85 -1.83297821365613e-014
endloop
endfacet
facet normal 2.64371857738865e-016 -9.37488857230017e-017 -1.0
outer loop
vertex 8.00000000000001 0.0 -4.22994972382185e-015
vertex 3.62583302491977 13.85 -1.83297821365613e-014
vertex 3.75570357417579 14.1635352413667 -1.97397653778353e-014
endloop
endfacet
facet normal 2.64371857738865e-016 -9.37488857230017e-017 -1.0
outer loop
vertex 8.00000000000001 0.0 -4.22994972382185e-015
vertex 3.75570357417579 14.1635352413667 -1.97397653778353e-014
vertex 3.8 14.5 -1.97397653778353e-014
endloop
endfacet
facet normal 2.64371857738865e-016 -9.37488857230017e-017 -1.0
outer loop
vertex 8.00000000000001 0.0 -4.22994972382185e-015
vertex 3.8 14.5 -1.97397653778353e-014
vertex 3.80000000000002 23.1 1.40998324127395e-015
endloop
endfacet
facet normal 2.64371857738865e-016 -9.37488857230017e-017 -1.0
outer loop
vertex 8.00000000000001 0.0 -4.22994972382185e-015
vertex 3.80000000000002 23.1 1.40998324127395e-015
vertex 5.00000000000001 17.8 -2.39697151016571e-014
endloop
endfacet
facet normal 2.64371857738865e-016 -9.37488857230017e-017 -1.0
outer loop
vertex 8.00000000000001 0.0 -4.22994972382185e-015
vertex 5.00000000000001 17.8 -2.39697151016571e-014
vertex 7.00000000000001 17.8 -2.53796983429311e-014
endloop
endfacet
facet normal 2.64371857738865e-016 -9.37488857230017e-017 -1.0
outer loop
vertex 8.00000000000001 0.0 -4.22994972382185e-015
vertex 7.00000000000001 17.8 -2.53796983429311e-014
vertex 7.00000000000001 19.8 -5.63993296509579e-015
endloop
endfacet
facet normal 2.64371857738865e-016 -9.37488857230017e-017 -1.0
outer loop
vertex 8.00000000000001 0.0 -4.22994972382185e-015
vertex 7.00000000000001 19.8 -5.63993296509579e-015
vertex 7.99999999999998 37.6 -1.40998324127395e-015
endloop
endfacet
facet normal -1.0 -8.62489748651619e-016 2.1935333248076e-029
outer loop
vertex 0.0 3.94795307556706e-014 0.999999999999967
vertex -3.24296145493008e-014 37.5999999999999 -9.86988268891764e-015
vertex 0.0 0.0 0.0
endloop
endfacet
facet normal -1.0 -8.62489748651619e-016 2.1935333248076e-029
outer loop
vertex -3.24296145493008e-014 37.5999999999999 -9.86988268891764e-015
vertex 0.0 3.94795307556706e-014 0.999999999999967
vertex -3.24296145493008e-014 37.6 0.999999999999998
endloop
endfacet
facet normal -7.04991620636982e-016 -1.0 3.38395977905756e-014
outer loop
vertex 8.00000000000001 2.8199664825479e-014 0.999999999999976
vertex 0.0 0.0 0.0
vertex 8.00000000000001 0.0 -4.22994972382185e-015
endloop
endfacet
facet normal -7.04991620636982e-016 -1.0 3.38395977905756e-014
outer loop
vertex 0.0 0.0 0.0
vertex 8.00000000000001 2.8199664825479e-014 0.999999999999976
vertex 0.0 3.94795307556706e-014 0.999999999999967
endloop
endfacet
facet normal 1.0 8.99989302940819e-016 -1.79083367889922e-029
outer loop
vertex 7.99999999999998 37.6 -1.40998324127395e-015
vertex 8.00000000000001 2.8199664825479e-014 0.999999999999976
vertex 8.00000000000001 0.0 -4.22994972382185e-015
endloop
endfacet
facet normal 1.0 8.99989302940819e-016 -1.79083367889922e-029
outer loop
vertex 8.00000000000001 2.8199664825479e-014 0.999999999999976
vertex 7.99999999999998 37.6 -1.40998324127395e-015
vertex 7.99999999999998 37.6 0.99999999999999
endloop
endfacet
facet normal -2.81996648254789e-015 1.0 -1.12798659301916e-014
outer loop
vertex -3.24296145493008e-014 37.6 0.999999999999998
vertex 7.99999999999998 37.6 -1.40998324127395e-015
vertex -3.24296145493008e-014 37.5999999999999 -9.86988268891764e-015
endloop
endfacet
facet normal -2.81996648254789e-015 1.0 -1.12798659301916e-014
outer loop
vertex 7.99999999999998 37.6 -1.40998324127395e-015
vertex -3.24296145493008e-014 37.6 0.999999999999998
vertex 7.99999999999998 37.6 0.99999999999999
endloop
endfacet
facet normal -0.707106781186565 -0.70710678118653 1.24897799227342e-014
outer loop
vertex 3.41923881554252 15.4192388155425 0.999999999999981
vertex 3.15000000000001 15.6258330249198 -1.83297821365613e-014
vertex 3.41923881554252 15.4192388155425 -2.6789681584205e-014
endloop
endfacet
facet normal -0.500000000000014 -0.86602540378443 2.21658967339569e-014
outer loop
vertex 3.15000000000001 15.6258330249198 -1.83297821365613e-014
vertex 3.41923881554252 15.4192388155425 0.999999999999981
vertex 3.15000000000001 15.6258330249198 0.99999999999997
endloop
endfacet
facet normal -0.866025403784437 -0.500000000000002 6.7269935376937e-015
outer loop
vertex 3.62583302491978 15.15 0.999999999999964
vertex 3.41923881554252 15.4192388155425 -2.6789681584205e-014
vertex 3.62583302491978 15.15 -1.69197988952874e-014
endloop
endfacet
facet normal -0.707106781186566 -0.707106781186529 1.24897799227342e-014
outer loop
vertex 3.41923881554252 15.4192388155425 -2.6789681584205e-014
vertex 3.62583302491978 15.15 0.999999999999964
vertex 3.41923881554252 15.4192388155425 0.999999999999981
endloop
endfacet
facet normal -0.965925826289072 -0.258819045102506 4.00686052282138e-015
outer loop
vertex 3.7557035741758 14.8364647586333 0.999999999999969
vertex 3.62583302491978 15.15 -1.69197988952874e-014
vertex 3.7557035741758 14.8364647586332 -2.53796983429311e-014
endloop
endfacet
facet normal -0.866025403784439 -0.5 6.7269935376937e-015
outer loop
vertex 3.62583302491978 15.15 -1.69197988952874e-014
vertex 3.7557035741758 14.8364647586333 0.999999999999969
vertex 3.62583302491978 15.15 0.999999999999964
endloop
endfacet
facet normal -0.965925826289072 -0.258819045102506 4.00686052282138e-015
outer loop
vertex 3.7557035741758 14.8364647586333 0.999999999999969
vertex 3.8 14.5 -1.97397653778353e-014
vertex 3.8 14.5 0.999999999999978
endloop
endfacet
facet normal -1.0 7.34275455401298e-015 -1.22187081185541e-019
outer loop
vertex 3.8 14.5 -1.97397653778353e-014
vertex 3.7557035741758 14.8364647586333 0.999999999999969
vertex 3.7557035741758 14.8364647586332 -2.53796983429311e-014
endloop
endfacet
facet normal -0.965925826289073 0.258819045102504 -2.91619630753005e-015
outer loop
vertex 3.75570357417579 14.1635352413667 0.999999999999974
vertex 3.8 14.5 -1.97397653778353e-014
vertex 3.75570357417579 14.1635352413667 -1.97397653778353e-014
endloop
endfacet
facet normal -1.0 7.34275455401298e-015 -1.22187081185541e-019
outer loop
vertex 3.8 14.5 -1.97397653778353e-014
vertex 3.75570357417579 14.1635352413667 0.999999999999974
vertex 3.8 14.5 0.999999999999978
endloop
endfacet
facet normal -0.965925826289073 0.258819045102504 -2.91619630753005e-015
outer loop
vertex 3.75570357417579 14.1635352413667 0.999999999999974
vertex 3.62583302491977 13.85 -1.83297821365613e-014
vertex 3.62583302491977 13.85 0.999999999999969
endloop
endfacet
facet normal -0.866025403784453 0.499999999999976 -5.63738433094235e-015
outer loop
vertex 3.62583302491977 13.85 -1.83297821365613e-014
vertex 3.75570357417579 14.1635352413667 0.999999999999974
vertex 3.75570357417579 14.1635352413667 -1.97397653778353e-014
endloop
endfacet
facet normal -0.707106781186559 0.707106781186536 -1.24874242686018e-014
outer loop
vertex 3.41923881554252 13.5807611844575 0.999999999999984
vertex 3.62583302491977 13.85 -1.83297821365613e-014
vertex 3.41923881554252 13.5807611844574 -8.45989944764369e-015
endloop
endfacet
facet normal -0.866025403784453 0.499999999999976 -5.63738433094235e-015
outer loop
vertex 3.62583302491977 13.85 -1.83297821365613e-014
vertex 3.41923881554252 13.5807611844575 0.999999999999984
vertex 3.62583302491977 13.85 0.999999999999969
endloop
endfacet
facet normal -0.499999999999983 0.866025403784448 -1.4282420397335e-014
outer loop
vertex 3.15000000000001 13.3741669750802 -2.8199664825479e-015
vertex 3.41923881554252 13.5807611844575 0.999999999999984
vertex 3.41923881554252 13.5807611844574 -8.45989944764369e-015
endloop
endfacet
facet normal -0.707106781186559 0.707106781186536 -1.24874242686018e-014
outer loop
vertex 3.41923881554252 13.5807611844575 0.999999999999984
vertex 3.15000000000001 13.3741669750802 -2.8199664825479e-015
vertex 3.15000000000001 13.3741669750802 0.999999999999987
endloop
endfacet
facet normal -0.258819045102521 0.965925826289068 -1.0897302307673e-014
outer loop
vertex 2.83646475863329 13.2442964258242 0.99999999999999
vertex 3.15000000000001 13.3741669750802 -2.8199664825479e-015
vertex 2.83646475863329 13.2442964258242 -1.55098156540134e-014
endloop
endfacet
facet normal -0.499999999999983 0.866025403784448 -1.4282420397335e-014
outer loop
vertex 3.15000000000001 13.3741669750802 -2.8199664825479e-015
vertex 2.83646475863329 13.2442964258242 0.99999999999999
vertex 3.15000000000001 13.3741669750802 0.999999999999987
endloop
endfacet
facet normal 1.01586652810371e-015 1.0 -1.12808374341832e-014
outer loop
vertex 2.50000000000001 13.2 0.999999999999969
vertex 2.83646475863329 13.2442964258242 -1.55098156540134e-014
vertex 2.50000000000001 13.2 -1.97397653778353e-014
endloop
endfacet
facet normal -0.258819045102517 0.965925826289069 -1.0897302307673e-014
outer loop
vertex 2.83646475863329 13.2442964258242 -1.55098156540134e-014
vertex 2.50000000000001 13.2 0.999999999999969
vertex 2.83646475863329 13.2442964258242 0.99999999999999
endloop
endfacet
facet normal 0.258819045102512 0.965925826289071 -1.08984221784935e-014
outer loop
vertex 2.16353524136673 13.2442964258242 -1.55098156540134e-014
vertex 2.50000000000001 13.2 0.999999999999969
vertex 2.50000000000001 13.2 -1.97397653778353e-014
endloop
endfacet
facet normal 1.01586652810371e-015 1.0 -1.12808374341832e-014
outer loop
vertex 2.50000000000001 13.2 0.999999999999969
vertex 2.16353524136673 13.2442964258242 -1.55098156540134e-014
vertex 2.16353524136673 13.2442964258242 0.999999999999987
endloop
endfacet
facet normal 0.500000000000006 0.866025403784435 -1.42802145731749e-014
outer loop
vertex 1.85 13.3741669750802 -2.8199664825479e-015
vertex 2.16353524136673 13.2442964258242 0.999999999999987
vertex 2.16353524136673 13.2442964258242 -1.55098156540134e-014
endloop
endfacet
facet normal 0.258819045102516 0.96592582628907 -1.08984221784935e-014
outer loop
vertex 2.16353524136673 13.2442964258242 0.999999999999987
vertex 1.85 13.3741669750802 -2.8199664825479e-015
vertex 1.85 13.3741669750802 0.999999999999987
endloop
endfacet
facet normal 0.70710678118656 0.707106781186535 -1.24888968456054e-014
outer loop
vertex 1.58076118445749 13.5807611844575 0.999999999999984
vertex 1.85 13.3741669750802 -2.8199664825479e-015
vertex 1.58076118445749 13.5807611844575 -1.97397653778353e-014
endloop
endfacet
facet normal 0.500000000000006 0.866025403784435 -1.42802145731749e-014
outer loop
vertex 1.85 13.3741669750802 -2.8199664825479e-015
vertex 1.58076118445749 13.5807611844575 0.999999999999984
vertex 1.85 13.3741669750802 0.999999999999987
endloop
endfacet
facet normal 0.866025403784436 0.500000000000005 -3.46525474444084e-015
outer loop
vertex 1.37416697508025 13.85 -1.97397653778353e-014
vertex 1.58076118445749 13.5807611844575 0.999999999999984
vertex 1.58076118445749 13.5807611844575 -1.97397653778353e-014
endloop
endfacet
facet normal 0.70710678118656 0.707106781186535 -1.24888968456054e-014
outer loop
vertex 1.58076118445749 13.5807611844575 0.999999999999984
vertex 1.37416697508025 13.85 -1.97397653778353e-014
vertex 1.37416697508025 13.85 0.999999999999985
endloop
endfacet
facet normal 0.965925826289067 0.258819045102525 9.72022410080012e-019
outer loop
vertex 1.24429642582422 14.1635352413667 -2.25597318603832e-014
vertex 1.37416697508025 13.85 0.999999999999985
vertex 1.37416697508025 13.85 -1.97397653778353e-014
endloop
endfacet
facet normal 0.866025403784435 0.500000000000006 -3.46525474444088e-015
outer loop
vertex 1.37416697508025 13.85 0.999999999999985
vertex 1.24429642582422 14.1635352413667 -2.25597318603832e-014
vertex 1.24429642582422 14.1635352413667 0.999999999999973
endloop
endfacet
facet normal 1.0 1.14864206554887e-014 3.71227371825522e-016
outer loop
vertex 1.20000000000001 14.5 -1.69197988952874e-014
vertex 1.24429642582422 14.1635352413667 0.999999999999973
vertex 1.24429642582422 14.1635352413667 -2.25597318603832e-014
endloop
endfacet
facet normal 0.965925826289067 0.258819045102525 9.72022410080011e-019
outer loop
vertex 1.24429642582422 14.1635352413667 0.999999999999973
vertex 1.20000000000001 14.5 -1.69197988952874e-014
vertex 1.20000000000001 14.5 0.999999999999984
endloop
endfacet
facet normal 0.965925826289073 -0.258819045102502 3.63775944820738e-015
outer loop
vertex 1.24429642582422 14.8364647586333 -2.25597318603832e-014
vertex 1.20000000000001 14.5 0.999999999999984
vertex 1.20000000000001 14.5 -1.69197988952874e-014
endloop
endfacet
facet normal 1.0 1.20121761393323e-014 3.71227371825521e-016
outer loop
vertex 1.20000000000001 14.5 0.999999999999984
vertex 1.24429642582422 14.8364647586333 -2.25597318603832e-014
vertex 1.24429642582422 14.8364647586333 0.999999999999969
endloop
endfacet
facet normal 0.866025403784441 -0.499999999999996 6.7292605532042e-015
outer loop
vertex 1.37416697508023 15.15 -2.25597318603832e-014
vertex 1.24429642582422 14.8364647586333 0.999999999999969
vertex 1.24429642582422 14.8364647586333 -2.25597318603832e-014
endloop
endfacet
facet normal 0.965925826289074 -0.258819045102501 3.63775944820736e-015
outer loop
vertex 1.24429642582422 14.8364647586333 0.999999999999969
vertex 1.37416697508023 15.15 -2.25597318603832e-014
vertex 1.37416697508023 15.15 0.999999999999969
endloop
endfacet
facet normal 0.70710678118653 -0.707106781186564 1.24910440589083e-014
outer loop
vertex 1.5807611844575 15.4192388155425 -3.10196313080269e-014
vertex 1.37416697508023 15.15 0.999999999999969
vertex 1.37416697508023 15.15 -2.25597318603832e-014
endloop
endfacet
facet normal 0.866025403784439 -0.499999999999999 6.7292605532042e-015
outer loop
vertex 1.37416697508023 15.15 0.999999999999969
vertex 1.5807611844575 15.4192388155425 -3.10196313080269e-014
vertex 1.5807611844575 15.4192388155425 0.999999999999978
endloop
endfacet
facet normal 0.49999999999999 -0.866025403784444 2.74205275197247e-014
outer loop
vertex 1.85000000000001 15.6258330249197 -2.8199664825479e-014
vertex 1.5807611844575 15.4192388155425 0.999999999999978
vertex 1.5807611844575 15.4192388155425 -3.10196313080269e-014
endloop
endfacet
facet normal 0.70710678118653 -0.707106781186564 1.24910440589083e-014
outer loop
vertex 1.5807611844575 15.4192388155425 0.999999999999978
vertex 1.85000000000001 15.6258330249197 -2.8199664825479e-014
vertex 1.85000000000001 15.6258330249198 0.999999999999974
endloop
endfacet
facet normal 0.258819045102532 -0.965925826289065 3.53118378978861e-014
outer loop
vertex 2.16353524136673 15.7557035741757 -1.97397653778353e-014
vertex 1.85000000000001 15.6258330249198 0.999999999999974
vertex 1.85000000000001 15.6258330249197 -2.8199664825479e-014
endloop
endfacet
facet normal 0.499999999999984 -0.866025403784448 2.74205275197252e-014
outer loop
vertex 1.85000000000001 15.6258330249198 0.999999999999974
vertex 2.16353524136673 15.7557035741757 -1.97397653778353e-014
vertex 2.16353524136673 15.7557035741758 0.999999999999991
endloop
endfacet
facet normal 2.61541075437227e-014 -1.0 3.10205818107909e-014
outer loop
vertex 2.5 15.8 -8.45989944764369e-015
vertex 2.16353524136673 15.7557035741758 0.999999999999991
vertex 2.16353524136673 15.7557035741757 -1.97397653778353e-014
endloop
endfacet
facet normal 0.25881904510253 -0.965925826289066 3.53118378978861e-014
outer loop
vertex 2.16353524136673 15.7557035741758 0.999999999999991
vertex 2.5 15.8 -8.45989944764369e-015
vertex 2.5 15.8 0.99999999999996
endloop
endfacet
facet normal -0.2588190451025 -0.965925826289074 2.72382418949753e-014
outer loop
vertex 2.83646475863329 15.7557035741758 0.999999999999987
vertex 2.5 15.8 -8.45989944764369e-015
vertex 2.83646475863329 15.7557035741758 -3.24296145493008e-014
endloop
endfacet
facet normal 2.61541075437227e-014 -1.0 3.10205818107909e-014
outer loop
vertex 2.5 15.8 -8.45989944764369e-015
vertex 2.83646475863329 15.7557035741758 0.999999999999987
vertex 2.5 15.8 0.99999999999996
endloop
endfacet
facet normal -0.500000000000014 -0.86602540378443 2.21658967339569e-014
outer loop
vertex 3.15000000000001 15.6258330249198 -1.83297821365613e-014
vertex 2.83646475863329 15.7557035741758 0.999999999999987
vertex 2.83646475863329 15.7557035741758 -3.24296145493008e-014
endloop
endfacet
facet normal -0.2588190451025 -0.965925826289074 2.72382418949753e-014
outer loop
vertex 2.83646475863329 15.7557035741758 0.999999999999987
vertex 3.15000000000001 15.6258330249198 -1.83297821365613e-014
vertex 3.15000000000001 15.6258330249198 0.99999999999997
endloop
endfacet
facet normal -0.707106781186541 -0.707106781186554 1.14401031964736e-014
outer loop
vertex 3.41923881554252 24.0192388155425 -1.12798659301916e-014
vertex 3.15 24.2258330249197 0.999999999999995
vertex 3.15 24.2258330249197 -1.69197988952874e-014
endloop
endfacet
facet normal -0.499999999999997 -0.86602540378444 4.51231426451583e-015
outer loop
vertex 3.15 24.2258330249197 0.999999999999995
vertex 3.41923881554252 24.0192388155425 -1.12798659301916e-014
vertex 3.41923881554252 24.0192388155425 0.99999999999997
endloop
endfacet
facet normal -0.866025403784437 -0.500000000000004 1.12824597113494e-014
outer loop
vertex 3.62583302491977 23.75 0.999999999999983
vertex 3.41923881554252 24.0192388155425 -1.12798659301916e-014
vertex 3.62583302491977 23.75 -2.6789681584205e-014
endloop
endfacet
facet normal -0.707106781186541 -0.707106781186554 1.14401031964736e-014
outer loop
vertex 3.41923881554252 24.0192388155425 -1.12798659301916e-014
vertex 3.62583302491977 23.75 0.999999999999983
vertex 3.41923881554252 24.0192388155425 0.99999999999997
endloop
endfacet
facet normal -0.96592582628906 -0.258819045102551 5.09626467903069e-015
outer loop
vertex 3.7557035741758 23.4364647586333 0.999999999999991
vertex 3.62583302491977 23.75 -2.6789681584205e-014
vertex 3.7557035741758 23.4364647586332 4.22994972382185e-015
endloop
endfacet
facet normal -0.866025403784436 -0.500000000000005 1.12824597113494e-014
outer loop
vertex 3.62583302491977 23.75 -2.6789681584205e-014
vertex 3.7557035741758 23.4364647586333 0.999999999999991
vertex 3.62583302491977 23.75 0.999999999999983
endloop
endfacet
facet normal -0.96592582628906 -0.258819045102551 5.09626467903069e-015
outer loop
vertex 3.7557035741758 23.4364647586333 0.999999999999991
vertex 3.80000000000002 23.1 1.40998324127395e-015
vertex 3.80000000000002 23.1 0.999999999999987
endloop
endfacet
facet normal -1.0 1.15487984247583e-014 3.69901252249099e-016
outer loop
vertex 3.80000000000002 23.1 1.40998324127395e-015
vertex 3.7557035741758 23.4364647586333 0.999999999999991
vertex 3.7557035741758 23.4364647586332 4.22994972382185e-015
endloop
endfacet
facet normal -0.965925826289065 0.258819045102534 -3.70861710436768e-016
outer loop
vertex 3.75570357417579 22.7635352413667 0.999999999999995
vertex 3.80000000000002 23.1 1.40998324127395e-015
vertex 3.75570357417579 22.7635352413667 -1.55098156540134e-014
endloop
endfacet
facet normal -1.0 1.15487984247583e-014 3.69901252249099e-016
outer loop
vertex 3.80000000000002 23.1 1.40998324127395e-015
vertex 3.75570357417579 22.7635352413667 0.999999999999995
vertex 3.80000000000002 23.1 0.999999999999987
endloop
endfacet
facet normal -0.965925826289065 0.258819045102534 -3.70861710436768e-016
outer loop
vertex 3.75570357417579 22.7635352413667 0.999999999999995
vertex 3.62583302491977 22.45 -8.45989944764369e-015
vertex 3.62583302491977 22.45 0.999999999999998
endloop
endfacet
facet normal -0.86602540378445 0.499999999999981 -5.1968450447973e-015
outer loop
vertex 3.62583302491977 22.45 -8.45989944764369e-015
vertex 3.75570357417579 22.7635352413667 0.999999999999995
vertex 3.75570357417579 22.7635352413667 -1.55098156540134e-014
endloop
endfacet
facet normal -0.707106781186563 0.707106781186532 -1.87360810795216e-014
outer loop
vertex 3.41923881554252 22.1807611844575 0.999999999999991
vertex 3.62583302491977 22.45 -8.45989944764369e-015
vertex 3.41923881554252 22.1807611844574 5.63993296509579e-015
endloop
endfacet
facet normal -0.86602540378445 0.499999999999981 -5.1968450447973e-015
outer loop
vertex 3.62583302491977 22.45 -8.45989944764369e-015
vertex 3.41923881554252 22.1807611844575 0.999999999999991
vertex 3.62583302491977 22.45 0.999999999999998
endloop
endfacet
facet normal -0.500000000000004 0.866025403784436 -2.40477451405209e-014
outer loop
vertex 3.15000000000001 21.9741669750802 1.12798659301916e-014
vertex 3.41923881554252 22.1807611844575 0.999999999999991
vertex 3.41923881554252 22.1807611844574 5.63993296509579e-015
endloop
endfacet
facet normal -0.707106781186563 0.707106781186532 -1.87360810795216e-014
outer loop
vertex 3.41923881554252 22.1807611844575 0.999999999999991
vertex 3.15000000000001 21.9741669750802 1.12798659301916e-014
vertex 3.15000000000001 21.9741669750802 0.99999999999999
endloop
endfacet
facet normal -0.258819045102495 0.965925826289075 -1.89690408814335e-014
outer loop
vertex 2.83646475863328 21.8442964258242 0.999999999999997
vertex 3.15000000000001 21.9741669750802 1.12798659301916e-014
vertex 2.83646475863328 21.8442964258241 -2.39697151016571e-014
endloop
endfacet
facet normal -0.500000000000004 0.866025403784436 -2.40477451405209e-014
outer loop
vertex 3.15000000000001 21.9741669750802 1.12798659301916e-014
vertex 2.83646475863328 21.8442964258242 0.999999999999997
vertex 3.15000000000001 21.9741669750802 0.99999999999999
endloop
endfacet
facet normal 1.85083752532586e-014 1.0 -1.40996483141713e-014
outer loop
vertex 2.50000000000002 21.8 -2.25597318603832e-014
vertex 2.83646475863328 21.8442964258242 0.999999999999997
vertex 2.83646475863328 21.8442964258241 -2.39697151016571e-014
endloop
endfacet
facet normal -0.258819045102495 0.965925826289075 -1.89690408814335e-014
outer loop
vertex 2.83646475863328 21.8442964258242 0.999999999999997
vertex 2.50000000000002 21.8 -2.25597318603832e-014
vertex 2.50000000000002 21.8 1.0
endloop
endfacet
facet normal 0.258819045102511 0.965925826289071 -1.61514064399041e-014
outer loop
vertex 2.16353524136672 21.8442964258242 -1.55098156540134e-014
vertex 2.50000000000002 21.8 1.0
vertex 2.50000000000002 21.8 -2.25597318603832e-014
endloop
endfacet
facet normal 1.90341307371019e-014 1.0 -1.40996483141713e-014
outer loop
vertex 2.50000000000002 21.8 1.0
vertex 2.16353524136672 21.8442964258242 -1.55098156540134e-014
vertex 2.16353524136672 21.8442964258242 0.999999999999993
endloop
endfacet
facet normal 0.499999999999988 0.866025403784446 -2.63111169632701e-014
outer loop
vertex 1.85 21.9741669750802 4.22994972382185e-015
vertex 2.16353524136672 21.8442964258242 0.999999999999993
vertex 2.16353524136672 21.8442964258242 -1.55098156540134e-014
endloop
endfacet
facet normal 0.258819045102514 0.96592582628907 -1.61514064399042e-014
outer loop
vertex 2.16353524136672 21.8442964258242 0.999999999999993
vertex 1.85 21.9741669750802 4.22994972382185e-015
vertex 1.85 21.9741669750802 0.999999999999998
endloop
endfacet
facet normal 0.707106781186538 0.707106781186557 -2.09933439452716e-014
outer loop
vertex 1.58076118445749 22.1807611844574 5.63993296509579e-015
vertex 1.85 21.9741669750802 0.999999999999998
vertex 1.85 21.9741669750802 4.22994972382185e-015
endloop
endfacet
facet normal 0.499999999999992 0.866025403784443 -2.63111169632704e-014
outer loop
vertex 1.85 21.9741669750802 0.999999999999998
vertex 1.58076118445749 22.1807611844574 5.63993296509579e-015
vertex 1.58076118445749 22.1807611844575 0.999999999999991
endloop
endfacet
facet normal 0.866025403784455 0.499999999999971 -5.19229331910641e-015
outer loop
vertex 1.37416697508023 22.45 -9.86988268891764e-015
vertex 1.58076118445749 22.1807611844575 0.999999999999991
vertex 1.58076118445749 22.1807611844574 5.63993296509579e-015
endloop
endfacet
facet normal 0.707106781186539 0.707106781186556 -2.09933439452714e-014
outer loop
vertex 1.58076118445749 22.1807611844575 0.999999999999991
vertex 1.37416697508023 22.45 -9.86988268891764e-015
vertex 1.37416697508023 22.45 0.99999999999999
endloop
endfacet
facet normal 0.866025403784455 0.499999999999971 -5.19229331910641e-015
outer loop
vertex 1.37416697508023 22.45 -9.86988268891764e-015
vertex 1.24429642582422 22.7635352413667 0.999999999999991
vertex 1.37416697508023 22.45 0.99999999999999
endloop
endfacet
facet normal 0.965925826289068 0.25881904510252 -3.70240434617555e-016
outer loop
vertex 1.24429642582422 22.7635352413667 0.999999999999991
vertex 1.37416697508023 22.45 -9.86988268891764e-015
vertex 1.24429642582422 22.7635352413667 -2.11497486191092e-014
endloop
endfacet
facet normal 1.0 2.35966190036727e-014 4.32112744202942e-019
outer loop
vertex 1.2 23.1 0.0
vertex 1.24429642582422 22.7635352413667 0.999999999999991
vertex 1.24429642582422 22.7635352413667 -2.11497486191092e-014
endloop
endfacet
facet normal 0.965925826289068 0.25881904510252 -3.70240434617555e-016
outer loop
vertex 1.24429642582422 22.7635352413667 0.999999999999991
vertex 1.2 23.1 0.0
vertex 1.2 23.1 0.999999999999998
endloop
endfacet
facet normal 0.965925826289065 -0.258819045102533 3.72949315474031e-016
outer loop
vertex 1.24429642582421 23.4364647586332 1.40998324127395e-015
vertex 1.2 23.1 0.999999999999998
vertex 1.2 23.1 0.0
endloop
endfacet
facet normal 1.0 2.06470416282142e-014 4.32112744219544e-019
outer loop
vertex 1.2 23.1 0.999999999999998
vertex 1.24429642582421 23.4364647586332 1.40998324127395e-015
vertex 1.24429642582421 23.4364647586332 0.999999999999993
endloop
endfacet
facet normal 0.866025403784439 -0.5 -1.73057447912304e-015
outer loop
vertex 1.37416697508023 23.75 -2.6789681584205e-014
vertex 1.24429642582421 23.4364647586332 0.999999999999993
vertex 1.24429642582421 23.4364647586332 1.40998324127395e-015
endloop
endfacet
facet normal 0.965925826289065 -0.258819045102533 3.72949315474032e-016
outer loop
vertex 1.24429642582421 23.4364647586332 0.999999999999993
vertex 1.37416697508023 23.75 -2.6789681584205e-014
vertex 1.37416697508023 23.75 1.00000000000001
endloop
endfacet
facet normal 0.866025403784439 -0.5 -1.73057447912304e-015
outer loop
vertex 1.37416697508023 23.75 -2.6789681584205e-014
vertex 1.58076118445748 24.0192388155425 0.999999999999984
vertex 1.37416697508023 23.75 1.00000000000001
endloop
endfacet
facet normal 0.707106781186544 -0.707106781186551 5.25798838815867e-016
outer loop
vertex 1.58076118445748 24.0192388155425 0.999999999999984
vertex 1.37416697508023 23.75 -2.6789681584205e-014
vertex 1.58076118445748 24.0192388155425 -2.25597318603832e-014
endloop
endfacet
facet normal 0.500000000000025 -0.866025403784424 4.88470055352183e-015
outer loop
vertex 1.85 24.2258330249197 -1.83297821365613e-014
vertex 1.58076118445748 24.0192388155425 0.999999999999984
vertex 1.58076118445748 24.0192388155425 -2.25597318603832e-014
endloop
endfacet
facet normal 0.707106781186544 -0.707106781186551 5.25798838815867e-016
outer loop
vertex 1.58076118445748 24.0192388155425 0.999999999999984
vertex 1.85 24.2258330249197 -1.83297821365613e-014
vertex 1.85 24.2258330249197 0.999999999999995
endloop
endfacet
facet normal 0.258819045102539 -0.965925826289063 2.62726319563684e-015
outer loop
vertex 2.16353524136673 24.3557035741758 0.999999999999973
vertex 1.85 24.2258330249197 -1.83297821365613e-014
vertex 2.16353524136673 24.3557035741758 -1.83297821365613e-014
endloop
endfacet
facet normal 0.500000000000025 -0.866025403784424 4.88470055352183e-015
outer loop
vertex 1.85 24.2258330249197 -1.83297821365613e-014
vertex 2.16353524136673 24.3557035741758 0.999999999999973
vertex 1.85 24.2258330249197 0.999999999999995
endloop
endfacet
facet normal 1.36339981403394e-015 -1.0 -5.99737267346951e-019
outer loop
vertex 2.5 24.4 -7.04991620636974e-015
vertex 2.16353524136673 24.3557035741758 0.999999999999973
vertex 2.16353524136673 24.3557035741758 -1.83297821365613e-014
endloop
endfacet
facet normal 0.258819045102539 -0.965925826289063 2.62726319563684e-015
outer loop
vertex 2.16353524136673 24.3557035741758 0.999999999999973
vertex 2.5 24.4 -7.04991620636974e-015
vertex 2.5 24.4 0.999999999999973
endloop
endfacet
facet normal -0.258819045102522 -0.965925826289068 -4.19838122211074e-019
outer loop
vertex 2.83646475863328 24.3557035741758 0.999999999999973
vertex 2.5 24.4 -7.04991620636974e-015
vertex 2.83646475863328 24.3557035741758 -1.83297821365613e-014
endloop
endfacet
facet normal 1.36339981403394e-015 -1.0 -5.99737267346951e-019
outer loop
vertex 2.5 24.4 -7.04991620636974e-015
vertex 2.83646475863328 24.3557035741758 0.999999999999973
vertex 2.5 24.4 0.999999999999973
endloop
endfacet
facet normal -0.499999999999996 -0.866025403784441 4.51231426451581e-015
outer loop
vertex 3.15 24.2258330249197 -1.69197988952874e-014
vertex 2.83646475863328 24.3557035741758 0.999999999999973
vertex 2.83646475863328 24.3557035741758 -1.83297821365613e-014
endloop
endfacet
facet normal -0.258819045102522 -0.965925826289068 -4.19838122211074e-019
outer loop
vertex 2.83646475863328 24.3557035741758 0.999999999999973
vertex 3.15 24.2258330249197 -1.69197988952874e-014
vertex 3.15 24.2258330249197 0.999999999999995
endloop
endfacet
facet normal -0.0 1.0 -0.0
outer loop
vertex 5.00000000000001 17.8 -2.39697151016571e-014
vertex 7.00000000000001 17.8 0.999999999999997
vertex 7.00000000000001 17.8 -2.53796983429311e-014
endloop
endfacet
facet normal -0.0 1.0 -0.0
outer loop
vertex 7.00000000000001 17.8 0.999999999999997
vertex 5.00000000000001 17.8 -2.39697151016571e-014
vertex 5.00000000000001 17.8 0.999999999999993
endloop
endfacet
facet normal 1.0 -1.40998324127396e-015 6.29032312480891e-032
outer loop
vertex 5.00000000000001 19.8 -1.12798659301916e-014
vertex 5.00000000000001 17.8 0.999999999999993
vertex 5.00000000000001 17.8 -2.39697151016571e-014
endloop
endfacet
facet normal 1.0 -1.40998324127396e-015 6.29032312480891e-032
outer loop
vertex 5.00000000000001 17.8 0.999999999999993
vertex 5.00000000000001 19.8 -1.12798659301916e-014
vertex 5.00000000000001 19.8 1.0
endloop
endfacet
facet normal -1.12798659301916e-014 -1.0 6.21266481460287e-031
outer loop
vertex 7.00000000000001 19.8 -5.63993296509579e-015
vertex 5.00000000000001 19.8 1.0
vertex 5.00000000000001 19.8 -1.12798659301916e-014
endloop
endfacet
facet normal -1.12798659301916e-014 -1.0 6.21266481460287e-031
outer loop
vertex 5.00000000000001 19.8 1.0
vertex 7.00000000000001 19.8 -5.63993296509579e-015
vertex 7.00000000000001 19.8 0.999999999999988
endloop
endfacet
facet normal -1.0 1.40998324127398e-015 2.56272423599471e-032
outer loop
vertex 7.00000000000001 19.8 0.999999999999988
vertex 7.00000000000001 17.8 -2.53796983429311e-014
vertex 7.00000000000001 17.8 0.999999999999997
endloop
endfacet
facet normal -1.0 1.40998324127398e-015 2.56272423599471e-032
outer loop
vertex 7.00000000000001 17.8 -2.53796983429311e-014
vertex 7.00000000000001 19.8 0.999999999999988
vertex 7.00000000000001 19.8 -5.63993296509579e-015
endloop
endfacet
facet normal 1.0 1.40998324127396e-015 -9.94026370339473e-032
outer loop
vertex 1.00000000000001 19.8 -1.12798659301916e-014
vertex 1.00000000000001 17.8 0.999999999999988
vertex 1.00000000000001 17.8 -2.53796983429311e-014
endloop
endfacet
facet normal 1.0 1.40998324127396e-015 -9.94026370339473e-032
outer loop
vertex 1.00000000000001 17.8 0.999999999999988
vertex 1.00000000000001 19.8 -1.12798659301916e-014
vertex 1.00000000000001 19.8 1.0
endloop
endfacet
facet normal 0.0 -1.0 0.0
outer loop
vertex 3.0 19.8 0.999999999999997
vertex 1.00000000000001 19.8 -1.12798659301916e-014
vertex 3.0 19.8 -1.12798659301916e-014
endloop
endfacet
facet normal 0.0 -1.0 0.0
outer loop
vertex 1.00000000000001 19.8 -1.12798659301916e-014
vertex 3.0 19.8 0.999999999999997
vertex 1.00000000000001 19.8 1.0
endloop
endfacet
facet normal -1.0 1.40998324127394e-015 -2.64038254619859e-032
outer loop
vertex 3.0 19.8 0.999999999999997
vertex 3.0 17.8 -2.11497486191092e-014
vertex 3.0 17.8 0.999999999999991
endloop
endfacet
facet normal -1.0 1.40998324127394e-015 -2.64038254619859e-032
outer loop
vertex 3.0 17.8 -2.11497486191092e-014
vertex 3.0 19.8 0.999999999999997
vertex 3.0 19.8 -1.12798659301916e-014
endloop
endfacet
facet normal 1.12798659301917e-014 1.0 6.21266481459951e-031
outer loop
vertex 1.00000000000001 17.8 0.999999999999988
vertex 3.0 17.8 -2.11497486191092e-014
vertex 1.00000000000001 17.8 -2.53796983429311e-014
endloop
endfacet
facet normal 1.12798659301917e-014 1.0 6.21266481459951e-031
outer loop
vertex 3.0 17.8 -2.11497486191092e-014
vertex 1.00000000000001 17.8 0.999999999999988
vertex 3.0 17.8 0.999999999999991
endloop
endfacet
endsolid tonearm-rest-stencil
