solid tonearm-rest-stencil
facet normal -7.72322281034888e-016 -8.92394456502506e-017 1.0
outer loop
vertex -1.40998324127395e-014 0.0 0.999999999999995
vertex 12.85 1.37416697508026 0.999999999999996
vertex -1.40998324127395e-014 7.90000000000001 1.0
endloop
endfacet
facet normal -7.72322281034888e-016 -8.92394456502506e-017 1.0
outer loop
vertex 12.85 1.37416697508026 0.999999999999996
vertex -1.40998324127395e-014 0.0 0.999999999999995
vertex 13.1635352413667 1.24429642582424 0.999999999999996
endloop
endfacet
facet normal -7.72322281034888e-016 -8.92394456502506e-017 1.0
outer loop
vertex 13.1635352413667 1.24429642582424 0.999999999999996
vertex -1.40998324127395e-014 0.0 0.999999999999995
vertex 13.5 1.20000000000003 0.999999999999999
endloop
endfacet
facet normal -7.72322281034888e-016 -8.92394456502506e-017 1.0
outer loop
vertex 13.5 1.20000000000003 0.999999999999999
vertex -1.40998324127395e-014 0.0 0.999999999999995
vertex 35.6 1.62772748866056e-014 1.00000000000003
endloop
endfacet
facet normal -7.72322281034888e-016 -8.92394456502506e-017 1.0
outer loop
vertex -1.40998324127395e-014 7.90000000000001 1.0
vertex 12.85 1.37416697508026 0.999999999999996
vertex 12.5807611844575 1.58076118445751 0.999999999999995
endloop
endfacet
facet normal -7.72322281034888e-016 -8.92394456502506e-017 1.0
outer loop
vertex -1.40998324127395e-014 7.90000000000001 1.0
vertex 12.5807611844575 1.58076118445751 0.999999999999995
vertex 12.3741669750802 1.85000000000002 0.999999999999994
endloop
endfacet
facet normal -7.72322281034888e-016 -8.92394456502506e-017 1.0
outer loop
vertex -1.40998324127395e-014 7.90000000000001 1.0
vertex 12.3741669750802 1.85000000000002 0.999999999999994
vertex 12.2442964258242 2.16353524136675 0.999999999999995
endloop
endfacet
facet normal -7.72322281034888e-016 -8.92394456502506e-017 1.0
outer loop
vertex -1.40998324127395e-014 7.90000000000001 1.0
vertex 12.2442964258242 2.16353524136675 0.999999999999995
vertex 12.2 2.50000000000002 0.999999999999995
endloop
endfacet
facet normal -7.72322281034888e-016 -8.92394456502506e-017 1.0
outer loop
vertex 13.5 1.20000000000003 0.999999999999999
vertex 35.6 1.62772748866056e-014 1.00000000000003
vertex 13.8364647586333 1.24429642582424 0.999999999999999
endloop
endfacet
facet normal -7.72322281034888e-016 -8.92394456502506e-017 1.0
outer loop
vertex 13.8364647586333 1.24429642582424 0.999999999999999
vertex 35.6 1.62772748866056e-014 1.00000000000003
vertex 14.15 1.37416697508026 0.999999999999999
endloop
endfacet
facet normal -7.72322281034888e-016 -8.92394456502506e-017 1.0
outer loop
vertex 14.15 1.37416697508026 0.999999999999999
vertex 35.6 1.62772748866056e-014 1.00000000000003
vertex 14.4192388155425 1.58076118445751 0.999999999999999
endloop
endfacet
facet normal -7.72322281034888e-016 -8.92394456502506e-017 1.0
outer loop
vertex 14.4192388155425 1.58076118445751 0.999999999999999
vertex 35.6 1.62772748866056e-014 1.00000000000003
vertex 14.6258330249198 1.85000000000003 0.999999999999999
endloop
endfacet
facet normal -7.72322281034888e-016 -8.92394456502506e-017 1.0
outer loop
vertex 14.6258330249198 1.85000000000003 0.999999999999999
vertex 35.6 1.62772748866056e-014 1.00000000000003
vertex 22.1 1.20000000000003 1.00000000000001
endloop
endfacet
facet normal -7.72322281034888e-016 -8.92394456502506e-017 1.0
outer loop
vertex 14.6258330249198 1.85000000000003 0.999999999999999
vertex 22.1 1.20000000000003 1.00000000000001
vertex 14.7557035741758 2.16353524136675 0.999999999999999
endloop
endfacet
facet normal -7.72322281034888e-016 -8.92394456502506e-017 1.0
outer loop
vertex 14.7557035741758 2.16353524136675 0.999999999999999
vertex 22.1 1.20000000000003 1.00000000000001
vertex 21.7635352413667 1.24429642582424 1.00000000000001
endloop
endfacet
facet normal -7.72322281034888e-016 -8.92394456502506e-017 1.0
outer loop
vertex 14.7557035741758 2.16353524136675 0.999999999999999
vertex 21.7635352413667 1.24429642582424 1.00000000000001
vertex 14.8 2.50000000000002 0.999999999999999
endloop
endfacet
facet normal -7.72322281034888e-016 -8.92394456502506e-017 1.0
outer loop
vertex 14.8 2.50000000000002 0.999999999999999
vertex 21.7635352413667 1.24429642582424 1.00000000000001
vertex 21.45 1.37416697508026 1.0
endloop
endfacet
facet normal -7.72322281034888e-016 -8.92394456502506e-017 1.0
outer loop
vertex 14.8 2.50000000000002 0.999999999999999
vertex 21.45 1.37416697508026 1.0
vertex 17.4 3.10717967697246 1.00000000000001
endloop
endfacet
facet normal -7.72322281034888e-016 -8.92394456502506e-017 1.0
outer loop
vertex 14.8 2.50000000000002 0.999999999999999
vertex 17.4 3.10717967697246 1.00000000000001
vertex 17.2343145750507 3.23431457505077 1.00000000000001
endloop
endfacet
facet normal -7.72322281034888e-016 -8.92394456502506e-017 1.0
outer loop
vertex 14.8 2.50000000000002 0.999999999999999
vertex 17.2343145750507 3.23431457505077 1.00000000000001
vertex 17.1071796769724 3.40000000000001 1.00000000000001
endloop
endfacet
facet normal -7.72322281034888e-016 -8.92394456502506e-017 1.0
outer loop
vertex 14.8 2.50000000000002 0.999999999999999
vertex 17.1071796769724 3.40000000000001 1.00000000000001
vertex 17.0272593389687 3.59294476391799 1.00000000000001
endloop
endfacet
facet normal -7.72322281034888e-016 -8.92394456502506e-017 1.0
outer loop
vertex 14.8 2.50000000000002 0.999999999999999
vertex 17.0272593389687 3.59294476391799 1.00000000000001
vertex 17.0 3.80000000000001 1.00000000000001
endloop
endfacet
facet normal -7.72322281034888e-016 -8.92394456502506e-017 1.0
outer loop
vertex 17.4 3.10717967697246 1.00000000000001
vertex 21.45 1.37416697508026 1.0
vertex 17.5929447639179 3.02725933896875 1.00000000000001
endloop
endfacet
facet normal -7.72322281034888e-016 -8.92394456502506e-017 1.0
outer loop
vertex 17.5929447639179 3.02725933896875 1.00000000000001
vertex 21.45 1.37416697508026 1.0
vertex 17.8 3.00000000000001 1.00000000000001
endloop
endfacet
facet normal -7.72322281034888e-016 -8.92394456502506e-017 1.0
outer loop
vertex 17.8 3.00000000000001 1.00000000000001
vertex 21.45 1.37416697508026 1.0
vertex 18.007055236082 3.02725933896876 1.00000000000001
endloop
endfacet
facet normal -7.72322281034888e-016 -8.92394456502506e-017 1.0
outer loop
vertex 18.007055236082 3.02725933896876 1.00000000000001
vertex 21.45 1.37416697508026 1.0
vertex 18.2 3.10717967697246 1.00000000000001
endloop
endfacet
facet normal -7.72322281034888e-016 -8.92394456502506e-017 1.0
outer loop
vertex 18.2 3.10717967697246 1.00000000000001
vertex 21.45 1.37416697508026 1.0
vertex 18.3656854249492 3.23431457505077 1.00000000000001
endloop
endfacet
facet normal -7.72322281034888e-016 -8.92394456502506e-017 1.0
outer loop
vertex 18.3656854249492 3.23431457505077 1.00000000000001
vertex 21.45 1.37416697508026 1.0
vertex 18.4928203230275 3.40000000000001 1.00000000000001
endloop
endfacet
facet normal -7.72322281034888e-016 -8.92394456502506e-017 1.0
outer loop
vertex 18.4928203230275 3.40000000000001 1.00000000000001
vertex 21.45 1.37416697508026 1.0
vertex 21.1807611844575 1.58076118445752 1.0
endloop
endfacet
facet normal -7.72322281034888e-016 -8.92394456502506e-017 1.0
outer loop
vertex 18.4928203230275 3.40000000000001 1.00000000000001
vertex 21.1807611844575 1.58076118445752 1.0
vertex 18.5727406610312 3.59294476391799 1.00000000000001
endloop
endfacet
facet normal -7.72322281034888e-016 -8.92394456502506e-017 1.0
outer loop
vertex 18.5727406610312 3.59294476391799 1.00000000000001
vertex 21.1807611844575 1.58076118445752 1.0
vertex 18.6 3.80000000000001 1.00000000000001
endloop
endfacet
facet normal -7.72322281034888e-016 -8.92394456502506e-017 1.0
outer loop
vertex 18.6 3.80000000000001 1.00000000000001
vertex 21.1807611844575 1.58076118445752 1.0
vertex 20.9741669750802 1.85000000000003 1.0
endloop
endfacet
facet normal -7.72322281034888e-016 -8.92394456502506e-017 1.0
outer loop
vertex 18.6 3.80000000000001 1.00000000000001
vertex 20.9741669750802 1.85000000000003 1.0
vertex 20.8442964258242 2.16353524136675 1.0
endloop
endfacet
facet normal -7.72322281034888e-016 -8.92394456502506e-017 1.0
outer loop
vertex 18.6 3.80000000000001 1.00000000000001
vertex 20.8442964258242 2.16353524136675 1.0
vertex 20.8 2.50000000000002 1.0
endloop
endfacet
facet normal -7.72322281034888e-016 -8.92394456502506e-017 1.0
outer loop
vertex 22.1 1.20000000000003 1.00000000000001
vertex 35.6 1.62772748866056e-014 1.00000000000003
vertex 22.4364647586333 1.24429642582424 1.0
endloop
endfacet
facet normal -7.72322281034888e-016 -8.92394456502506e-017 1.0
outer loop
vertex 22.4364647586333 1.24429642582424 1.0
vertex 35.6 1.62772748866056e-014 1.00000000000003
vertex 22.75 1.37416697508026 1.0
endloop
endfacet
facet normal -7.72322281034888e-016 -8.92394456502506e-017 1.0
outer loop
vertex 22.75 1.37416697508026 1.0
vertex 35.6 1.62772748866056e-014 1.00000000000003
vertex 23.0192388155425 1.58076118445752 1.00000000000001
endloop
endfacet
facet normal -7.72322281034888e-016 -8.92394456502506e-017 1.0
outer loop
vertex 23.0192388155425 1.58076118445752 1.00000000000001
vertex 35.6 1.62772748866056e-014 1.00000000000003
vertex 23.2258330249198 1.85000000000002 1.0
endloop
endfacet
facet normal -7.72322281034888e-016 -8.92394456502506e-017 1.0
outer loop
vertex 23.2258330249198 1.85000000000002 1.0
vertex 35.6 1.62772748866056e-014 1.00000000000003
vertex 23.3557035741758 2.16353524136675 1.0
endloop
endfacet
facet normal -7.72322281034888e-016 -8.92394456502506e-017 1.0
outer loop
vertex 23.3557035741758 2.16353524136675 1.0
vertex 35.6 1.62772748866056e-014 1.00000000000003
vertex 23.4 2.50000000000003 1.00000000000001
endloop
endfacet
facet normal -7.72322281034888e-016 -8.92394456502506e-017 1.0
outer loop
vertex 23.4 2.50000000000003 1.00000000000001
vertex 35.6 1.62772748866056e-014 1.00000000000003
vertex 35.6 7.90000000000002 1.00000000000002
endloop
endfacet
facet normal -7.72322281034888e-016 -8.92394456502506e-017 1.0
outer loop
vertex -1.40998324127395e-014 7.90000000000001 1.0
vertex 13.1635352413667 3.75570357417581 0.999999999999995
vertex 35.6 7.90000000000002 1.00000000000002
endloop
endfacet
facet normal -7.72322281034888e-016 -8.92394456502506e-017 1.0
outer loop
vertex 13.1635352413667 3.75570357417581 0.999999999999995
vertex -1.40998324127395e-014 7.90000000000001 1.0
vertex 12.85 3.6258330249198 0.999999999999995
endloop
endfacet
facet normal -7.72322281034888e-016 -8.92394456502506e-017 1.0
outer loop
vertex 12.85 3.6258330249198 0.999999999999995
vertex -1.40998324127395e-014 7.90000000000001 1.0
vertex 12.5807611844575 3.41923881554254 0.999999999999995
endloop
endfacet
facet normal -7.72322281034888e-016 -8.92394456502506e-017 1.0
outer loop
vertex 12.5807611844575 3.41923881554254 0.999999999999995
vertex -1.40998324127395e-014 7.90000000000001 1.0
vertex 12.3741669750802 3.15000000000002 0.999999999999994
endloop
endfacet
facet normal -7.72322281034888e-016 -8.92394456502506e-017 1.0
outer loop
vertex 12.3741669750802 3.15000000000002 0.999999999999994
vertex -1.40998324127395e-014 7.90000000000001 1.0
vertex 12.2442964258242 2.8364647586333 0.999999999999995
endloop
endfacet
facet normal -7.72322281034888e-016 -8.92394456502506e-017 1.0
outer loop
vertex 12.2442964258242 2.8364647586333 0.999999999999995
vertex -1.40998324127395e-014 7.90000000000001 1.0
vertex 12.2 2.50000000000002 0.999999999999995
endloop
endfacet
facet normal -7.72322281034888e-016 -8.92394456502506e-017 1.0
outer loop
vertex 35.6 7.90000000000002 1.00000000000002
vertex 13.1635352413667 3.75570357417581 0.999999999999995
vertex 17.5929447639179 4.57274066103126 1.00000000000001
endloop
endfacet
facet normal -7.72322281034888e-016 -8.92394456502506e-017 1.0
outer loop
vertex 17.5929447639179 4.57274066103126 1.00000000000001
vertex 13.1635352413667 3.75570357417581 0.999999999999995
vertex 13.5 3.80000000000002 0.999999999999998
endloop
endfacet
facet normal -7.72322281034888e-016 -8.92394456502506e-017 1.0
outer loop
vertex 17.5929447639179 4.57274066103126 1.00000000000001
vertex 13.5 3.80000000000002 0.999999999999998
vertex 13.8364647586333 3.75570357417582 0.999999999999996
endloop
endfacet
facet normal -7.72322281034888e-016 -8.92394456502506e-017 1.0
outer loop
vertex 17.5929447639179 4.57274066103126 1.00000000000001
vertex 13.8364647586333 3.75570357417582 0.999999999999996
vertex 14.15 3.62583302491979 0.999999999999998
endloop
endfacet
facet normal -7.72322281034888e-016 -8.92394456502506e-017 1.0
outer loop
vertex 17.5929447639179 4.57274066103126 1.00000000000001
vertex 14.15 3.62583302491979 0.999999999999998
vertex 14.4192388155425 3.41923881554254 0.999999999999996
endloop
endfacet
facet normal -7.72322281034888e-016 -8.92394456502506e-017 1.0
outer loop
vertex 17.5929447639179 4.57274066103126 1.00000000000001
vertex 14.4192388155425 3.41923881554254 0.999999999999996
vertex 17.4 4.49282032302756 1.00000000000001
endloop
endfacet
facet normal -7.72322281034888e-016 -8.92394456502506e-017 1.0
outer loop
vertex 17.4 4.49282032302756 1.00000000000001
vertex 14.4192388155425 3.41923881554254 0.999999999999996
vertex 14.6258330249198 3.15000000000002 0.999999999999998
endloop
endfacet
facet normal -7.72322281034888e-016 -8.92394456502506e-017 1.0
outer loop
vertex 17.4 4.49282032302756 1.00000000000001
vertex 14.6258330249198 3.15000000000002 0.999999999999998
vertex 14.7557035741758 2.8364647586333 0.999999999999999
endloop
endfacet
facet normal -7.72322281034888e-016 -8.92394456502506e-017 1.0
outer loop
vertex 17.4 4.49282032302756 1.00000000000001
vertex 14.7557035741758 2.8364647586333 0.999999999999999
vertex 14.8 2.50000000000002 0.999999999999999
endloop
endfacet
facet normal -7.72322281034888e-016 -8.92394456502506e-017 1.0
outer loop
vertex 17.4 4.49282032302756 1.00000000000001
vertex 14.8 2.50000000000002 0.999999999999999
vertex 17.2343145750507 4.36568542494925 1.00000000000001
endloop
endfacet
facet normal -7.72322281034888e-016 -8.92394456502506e-017 1.0
outer loop
vertex 17.2343145750507 4.36568542494925 1.00000000000001
vertex 14.8 2.50000000000002 0.999999999999999
vertex 17.1071796769724 4.20000000000001 1.00000000000001
endloop
endfacet
facet normal -7.72322281034888e-016 -8.92394456502506e-017 1.0
outer loop
vertex 17.1071796769724 4.20000000000001 1.00000000000001
vertex 14.8 2.50000000000002 0.999999999999999
vertex 17.0272593389687 4.00705523608203 1.00000000000001
endloop
endfacet
facet normal -7.72322281034888e-016 -8.92394456502506e-017 1.0
outer loop
vertex 17.0272593389687 4.00705523608203 1.00000000000001
vertex 14.8 2.50000000000002 0.999999999999999
vertex 17.0 3.80000000000001 1.00000000000001
endloop
endfacet
facet normal -7.72322281034888e-016 -8.92394456502506e-017 1.0
outer loop
vertex 35.6 7.90000000000002 1.00000000000002
vertex 17.5929447639179 4.57274066103126 1.00000000000001
vertex 17.8 4.60000000000001 1.00000000000001
endloop
endfacet
facet normal -7.72322281034888e-016 -8.92394456502506e-017 1.0
outer loop
vertex 35.6 7.90000000000002 1.00000000000002
vertex 17.8 4.60000000000001 1.00000000000001
vertex 18.007055236082 4.57274066103126 1.00000000000001
endloop
endfacet
facet normal -7.72322281034888e-016 -8.92394456502506e-017 1.0
outer loop
vertex 35.6 7.90000000000002 1.00000000000002
vertex 18.007055236082 4.57274066103126 1.00000000000001
vertex 18.2 4.49282032302756 1.00000000000001
endloop
endfacet
facet normal -7.72322281034888e-016 -8.92394456502506e-017 1.0
outer loop
vertex 35.6 7.90000000000002 1.00000000000002
vertex 18.2 4.49282032302756 1.00000000000001
vertex 18.3656854249492 4.36568542494925 1.00000000000001
endloop
endfacet
facet normal -7.72322281034888e-016 -8.92394456502506e-017 1.0
outer loop
vertex 35.6 7.90000000000002 1.00000000000002
vertex 18.3656854249492 4.36568542494925 1.00000000000001
vertex 18.4928203230275 4.20000000000001 1.00000000000001
endloop
endfacet
facet normal -7.72322281034888e-016 -8.92394456502506e-017 1.0
outer loop
vertex 35.6 7.90000000000002 1.00000000000002
vertex 18.4928203230275 4.20000000000001 1.00000000000001
vertex 18.5727406610312 4.00705523608203 1.00000000000001
endloop
endfacet
facet normal -7.72322281034888e-016 -8.92394456502506e-017 1.0
outer loop
vertex 35.6 7.90000000000002 1.00000000000002
vertex 18.5727406610312 4.00705523608203 1.00000000000001
vertex 18.6 3.80000000000001 1.00000000000001
endloop
endfacet
facet normal -7.72322281034888e-016 -8.92394456502506e-017 1.0
outer loop
vertex 35.6 7.90000000000002 1.00000000000002
vertex 18.6 3.80000000000001 1.00000000000001
vertex 21.7635352413667 3.75570357417582 1.0
endloop
endfacet
facet normal -7.72322281034888e-016 -8.92394456502506e-017 1.0
outer loop
vertex 21.7635352413667 3.75570357417582 1.0
vertex 18.6 3.80000000000001 1.00000000000001
vertex 21.45 3.6258330249198 1.0
endloop
endfacet
facet normal -7.72322281034888e-016 -8.92394456502506e-017 1.0
outer loop
vertex 21.45 3.6258330249198 1.0
vertex 18.6 3.80000000000001 1.00000000000001
vertex 21.1807611844575 3.41923881554254 1.0
endloop
endfacet
facet normal -7.72322281034888e-016 -8.92394456502506e-017 1.0
outer loop
vertex 21.1807611844575 3.41923881554254 1.0
vertex 18.6 3.80000000000001 1.00000000000001
vertex 20.9741669750802 3.15000000000003 1.0
endloop
endfacet
facet normal -7.72322281034888e-016 -8.92394456502506e-017 1.0
outer loop
vertex 20.9741669750802 3.15000000000003 1.0
vertex 18.6 3.80000000000001 1.00000000000001
vertex 20.8442964258242 2.83646475863331 1.0
endloop
endfacet
facet normal -7.72322281034888e-016 -8.92394456502506e-017 1.0
outer loop
vertex 20.8442964258242 2.83646475863331 1.0
vertex 18.6 3.80000000000001 1.00000000000001
vertex 20.8 2.50000000000002 1.0
endloop
endfacet
facet normal -7.72322281034888e-016 -8.92394456502506e-017 1.0
outer loop
vertex 35.6 7.90000000000002 1.00000000000002
vertex 21.7635352413667 3.75570357417582 1.0
vertex 22.1 3.80000000000003 1.0
endloop
endfacet
facet normal -7.72322281034888e-016 -8.92394456502506e-017 1.0
outer loop
vertex 35.6 7.90000000000002 1.00000000000002
vertex 22.1 3.80000000000003 1.0
vertex 22.4364647586333 3.75570357417582 1.0
endloop
endfacet
facet normal -7.72322281034888e-016 -8.92394456502506e-017 1.0
outer loop
vertex 35.6 7.90000000000002 1.00000000000002
vertex 22.4364647586333 3.75570357417582 1.0
vertex 22.75 3.6258330249198 1.0
endloop
endfacet
facet normal -7.72322281034888e-016 -8.92394456502506e-017 1.0
outer loop
vertex 35.6 7.90000000000002 1.00000000000002
vertex 22.75 3.6258330249198 1.0
vertex 23.0192388155425 3.41923881554254 1.00000000000001
endloop
endfacet
facet normal -7.72322281034888e-016 -8.92394456502506e-017 1.0
outer loop
vertex 35.6 7.90000000000002 1.00000000000002
vertex 23.0192388155425 3.41923881554254 1.00000000000001
vertex 23.2258330249197 3.15000000000002 1.00000000000001
endloop
endfacet
facet normal -7.72322281034888e-016 -8.92394456502506e-017 1.0
outer loop
vertex 35.6 7.90000000000002 1.00000000000002
vertex 23.2258330249197 3.15000000000002 1.00000000000001
vertex 23.3557035741758 2.8364647586333 1.0
endloop
endfacet
facet normal -7.72322281034888e-016 -8.92394456502506e-017 1.0
outer loop
vertex 35.6 7.90000000000002 1.00000000000002
vertex 23.3557035741758 2.8364647586333 1.0
vertex 23.4 2.50000000000003 1.00000000000001
endloop
endfacet
facet normal 6.33700333156831e-016 -2.67718336950749e-016 -1.0
outer loop
vertex -2.8199664825479e-015 7.90000000000001 1.40998324127395e-015
vertex 13.1635352413667 3.75570357417581 -2.11497486191092e-015
vertex 0.0 0.0 0.0
endloop
endfacet
facet normal 6.33700333156831e-016 -2.67718336950749e-016 -1.0
outer loop
vertex 13.1635352413667 3.75570357417581 -2.11497486191092e-015
vertex -2.8199664825479e-015 7.90000000000001 1.40998324127395e-015
vertex 35.6 7.90000000000002 2.04447569984723e-014
endloop
endfacet
facet normal 6.33700333156831e-016 -2.67718336950749e-016 -1.0
outer loop
vertex 0.0 0.0 0.0
vertex 13.1635352413667 3.75570357417581 -2.11497486191092e-015
vertex 12.85 3.6258330249198 -3.52495810318487e-015
endloop
endfacet
facet normal 6.33700333156831e-016 -2.67718336950749e-016 -1.0
outer loop
vertex 0.0 0.0 0.0
vertex 12.85 3.6258330249198 -3.52495810318487e-015
vertex 12.5807611844575 3.41923881554254 -3.52495810318487e-015
endloop
endfacet
facet normal 6.33700333156831e-016 -2.67718336950749e-016 -1.0
outer loop
vertex 0.0 0.0 0.0
vertex 12.5807611844575 3.41923881554254 -3.52495810318487e-015
vertex 12.3741669750802 3.15000000000002 -5.63993296509579e-015
endloop
endfacet
facet normal 6.33700333156831e-016 -2.67718336950749e-016 -1.0
outer loop
vertex 0.0 0.0 0.0
vertex 12.3741669750802 3.15000000000002 -5.63993296509579e-015
vertex 12.2442964258242 2.8364647586333 -4.93494134445882e-015
endloop
endfacet
facet normal 6.33700333156831e-016 -2.67718336950749e-016 -1.0
outer loop
vertex 0.0 0.0 0.0
vertex 12.2442964258242 2.8364647586333 -4.93494134445882e-015
vertex 12.2 2.50000000000002 -5.63993296509579e-015
endloop
endfacet
facet normal 6.33700333156831e-016 -2.67718336950749e-016 -1.0
outer loop
vertex 13.1635352413667 3.75570357417581 -2.11497486191092e-015
vertex 35.6 7.90000000000002 2.04447569984723e-014
vertex 17.5929447639179 4.57274066103126 9.86988268891764e-015
endloop
endfacet
facet normal 6.33700333156831e-016 -2.67718336950749e-016 -1.0
outer loop
vertex 13.1635352413667 3.75570357417581 -2.11497486191092e-015
vertex 17.5929447639179 4.57274066103126 9.86988268891764e-015
vertex 13.5 3.80000000000002 -4.93494134445882e-015
endloop
endfacet
facet normal 6.33700333156831e-016 -2.67718336950749e-016 -1.0
outer loop
vertex 13.5 3.80000000000002 -4.93494134445882e-015
vertex 17.5929447639179 4.57274066103126 9.86988268891764e-015
vertex 13.8364647586333 3.75570357417582 -2.8199664825479e-015
endloop
endfacet
facet normal 6.33700333156831e-016 -2.67718336950749e-016 -1.0
outer loop
vertex 13.8364647586333 3.75570357417582 -2.8199664825479e-015
vertex 17.5929447639179 4.57274066103126 9.86988268891764e-015
vertex 14.15 3.62583302491979 -4.22994972382185e-015
endloop
endfacet
facet normal 6.33700333156831e-016 -2.67718336950749e-016 -1.0
outer loop
vertex 14.15 3.62583302491979 -4.22994972382185e-015
vertex 17.5929447639179 4.57274066103126 9.86988268891764e-015
vertex 14.4192388155425 3.41923881554254 -3.52495810318487e-015
endloop
endfacet
facet normal 6.33700333156831e-016 -2.67718336950749e-016 -1.0
outer loop
vertex 14.4192388155425 3.41923881554254 -3.52495810318487e-015
vertex 17.5929447639179 4.57274066103126 9.86988268891764e-015
vertex 17.4 4.49282032302756 1.05748743095546e-014
endloop
endfacet
facet normal 6.33700333156831e-016 -2.67718336950749e-016 -1.0
outer loop
vertex 14.4192388155425 3.41923881554254 -3.52495810318487e-015
vertex 17.4 4.49282032302756 1.05748743095546e-014
vertex 14.6258330249198 3.15000000000002 -4.22994972382185e-015
endloop
endfacet
facet normal 6.33700333156831e-016 -2.67718336950749e-016 -1.0
outer loop
vertex 14.6258330249198 3.15000000000002 -4.22994972382185e-015
vertex 17.4 4.49282032302756 1.05748743095546e-014
vertex 14.7557035741758 2.8364647586333 -3.52495810318487e-015
endloop
endfacet
facet normal 6.33700333156831e-016 -2.67718336950749e-016 -1.0
outer loop
vertex 14.7557035741758 2.8364647586333 -3.52495810318487e-015
vertex 17.4 4.49282032302756 1.05748743095546e-014
vertex 14.8 2.50000000000002 -3.52495810318487e-015
endloop
endfacet
facet normal 6.33700333156831e-016 -2.67718336950749e-016 -1.0
outer loop
vertex 14.8 2.50000000000002 -3.52495810318487e-015
vertex 17.4 4.49282032302756 1.05748743095546e-014
vertex 17.2343145750507 4.36568542494925 8.45989944764369e-015
endloop
endfacet
facet normal 6.33700333156831e-016 -2.67718336950749e-016 -1.0
outer loop
vertex 14.8 2.50000000000002 -3.52495810318487e-015
vertex 17.2343145750507 4.36568542494925 8.45989944764369e-015
vertex 17.1071796769724 4.20000000000001 9.16489106828067e-015
endloop
endfacet
facet normal 6.33700333156831e-016 -2.67718336950749e-016 -1.0
outer loop
vertex 14.8 2.50000000000002 -3.52495810318487e-015
vertex 17.1071796769724 4.20000000000001 9.16489106828067e-015
vertex 17.0272593389687 4.00705523608203 9.16489106828067e-015
endloop
endfacet
facet normal 6.33700333156831e-016 -2.67718336950749e-016 -1.0
outer loop
vertex 14.8 2.50000000000002 -3.52495810318487e-015
vertex 17.0272593389687 4.00705523608203 9.16489106828067e-015
vertex 17.0 3.80000000000001 1.19848575508286e-014
endloop
endfacet
facet normal 6.33700333156831e-016 -2.67718336950749e-016 -1.0
outer loop
vertex 17.5929447639179 4.57274066103126 9.86988268891764e-015
vertex 35.6 7.90000000000002 2.04447569984723e-014
vertex 17.8 4.60000000000001 9.86988268891764e-015
endloop
endfacet
facet normal 6.33700333156831e-016 -2.67718336950749e-016 -1.0
outer loop
vertex 17.8 4.60000000000001 9.86988268891764e-015
vertex 35.6 7.90000000000002 2.04447569984723e-014
vertex 18.007055236082 4.57274066103126 1.12798659301916e-014
endloop
endfacet
facet normal 6.33700333156831e-016 -2.67718336950749e-016 -1.0
outer loop
vertex 18.007055236082 4.57274066103126 1.12798659301916e-014
vertex 35.6 7.90000000000002 2.04447569984723e-014
vertex 18.2 4.49282032302756 1.05748743095546e-014
endloop
endfacet
facet normal 6.33700333156831e-016 -2.67718336950749e-016 -1.0
outer loop
vertex 18.2 4.49282032302756 1.05748743095546e-014
vertex 35.6 7.90000000000002 2.04447569984723e-014
vertex 18.3656854249492 4.36568542494925 1.12798659301916e-014
endloop
endfacet
facet normal 6.33700333156831e-016 -2.67718336950749e-016 -1.0
outer loop
vertex 18.3656854249492 4.36568542494925 1.12798659301916e-014
vertex 35.6 7.90000000000002 2.04447569984723e-014
vertex 18.4928203230275 4.20000000000001 1.12798659301916e-014
endloop
endfacet
facet normal 6.33700333156831e-016 -2.67718336950749e-016 -1.0
outer loop
vertex 18.4928203230275 4.20000000000001 1.12798659301916e-014
vertex 35.6 7.90000000000002 2.04447569984723e-014
vertex 18.5727406610312 4.00705523608203 1.05748743095546e-014
endloop
endfacet
facet normal 6.33700333156831e-016 -2.67718336950749e-016 -1.0
outer loop
vertex 18.5727406610312 4.00705523608203 1.05748743095546e-014
vertex 35.6 7.90000000000002 2.04447569984723e-014
vertex 18.6 3.80000000000001 1.19848575508286e-014
endloop
endfacet
facet normal 6.33700333156831e-016 -2.67718336950749e-016 -1.0
outer loop
vertex 18.6 3.80000000000001 1.19848575508286e-014
vertex 35.6 7.90000000000002 2.04447569984723e-014
vertex 21.7635352413667 3.75570357417582 4.22994972382185e-015
endloop
endfacet
facet normal 6.33700333156831e-016 -2.67718336950749e-016 -1.0
outer loop
vertex 18.6 3.80000000000001 1.19848575508286e-014
vertex 21.7635352413667 3.75570357417582 4.22994972382185e-015
vertex 21.45 3.6258330249198 6.34492458573277e-015
endloop
endfacet
facet normal 6.33700333156831e-016 -2.67718336950749e-016 -1.0
outer loop
vertex 18.6 3.80000000000001 1.19848575508286e-014
vertex 21.45 3.6258330249198 6.34492458573277e-015
vertex 21.1807611844575 3.41923881554254 4.22994972382185e-015
endloop
endfacet
facet normal 6.33700333156831e-016 -2.67718336950749e-016 -1.0
outer loop
vertex 18.6 3.80000000000001 1.19848575508286e-014
vertex 21.1807611844575 3.41923881554254 4.22994972382185e-015
vertex 20.9741669750802 3.15000000000003 3.52495810318487e-015
endloop
endfacet
facet normal 6.33700333156831e-016 -2.67718336950749e-016 -1.0
outer loop
vertex 18.6 3.80000000000001 1.19848575508286e-014
vertex 20.9741669750802 3.15000000000003 3.52495810318487e-015
vertex 20.8442964258242 2.83646475863331 2.11497486191092e-015
endloop
endfacet
facet normal 6.33700333156831e-016 -2.67718336950749e-016 -1.0
outer loop
vertex 18.6 3.80000000000001 1.19848575508286e-014
vertex 20.8442964258242 2.83646475863331 2.11497486191092e-015
vertex 20.8 2.50000000000002 4.93494134445882e-015
endloop
endfacet
facet normal 6.33700333156831e-016 -2.67718336950749e-016 -1.0
outer loop
vertex 21.7635352413667 3.75570357417582 4.22994972382185e-015
vertex 35.6 7.90000000000002 2.04447569984723e-014
vertex 22.1 3.80000000000003 7.04991620636974e-016
endloop
endfacet
facet normal 6.33700333156831e-016 -2.67718336950749e-016 -1.0
outer loop
vertex 22.1 3.80000000000003 7.04991620636974e-016
vertex 35.6 7.90000000000002 2.04447569984723e-014
vertex 22.4364647586333 3.75570357417582 4.22994972382185e-015
endloop
endfacet
facet normal 6.33700333156831e-016 -2.67718336950749e-016 -1.0
outer loop
vertex 22.4364647586333 3.75570357417582 4.22994972382185e-015
vertex 35.6 7.90000000000002 2.04447569984723e-014
vertex 22.75 3.6258330249198 1.40998324127395e-015
endloop
endfacet
facet normal 6.33700333156831e-016 -2.67718336950749e-016 -1.0
outer loop
vertex 22.75 3.6258330249198 1.40998324127395e-015
vertex 35.6 7.90000000000002 2.04447569984723e-014
vertex 23.0192388155425 3.41923881554254 2.8199664825479e-015
endloop
endfacet
facet normal 6.33700333156831e-016 -2.67718336950749e-016 -1.0
outer loop
vertex 23.0192388155425 3.41923881554254 2.8199664825479e-015
vertex 35.6 7.90000000000002 2.04447569984723e-014
vertex 23.2258330249197 3.15000000000002 4.93494134445882e-015
endloop
endfacet
facet normal 6.33700333156831e-016 -2.67718336950749e-016 -1.0
outer loop
vertex 23.2258330249197 3.15000000000002 4.93494134445882e-015
vertex 35.6 7.90000000000002 2.04447569984723e-014
vertex 23.3557035741758 2.8364647586333 7.04991620636974e-015
endloop
endfacet
facet normal 6.33700333156831e-016 -2.67718336950749e-016 -1.0
outer loop
vertex 23.3557035741758 2.8364647586333 7.04991620636974e-015
vertex 35.6 7.90000000000002 2.04447569984723e-014
vertex 23.4 2.50000000000003 1.12798659301916e-014
endloop
endfacet
facet normal 6.33700333156831e-016 -2.67718336950749e-016 -1.0
outer loop
vertex 0.0 0.0 0.0
vertex 13.5 1.20000000000003 -3.52495810318487e-015
vertex 35.6 1.62772748866056e-014 2.60846899635681e-014
endloop
endfacet
facet normal 6.33700333156831e-016 -2.67718336950749e-016 -1.0
outer loop
vertex 13.5 1.20000000000003 -3.52495810318487e-015
vertex 0.0 0.0 0.0
vertex 13.1635352413667 1.24429642582424 -2.11497486191092e-015
endloop
endfacet
facet normal 6.33700333156831e-016 -2.67718336950749e-016 -1.0
outer loop
vertex 13.1635352413667 1.24429642582424 -2.11497486191092e-015
vertex 0.0 0.0 0.0
vertex 12.85 1.37416697508026 -3.52495810318487e-015
endloop
endfacet
facet normal 6.33700333156831e-016 -2.67718336950749e-016 -1.0
outer loop
vertex 12.85 1.37416697508026 -3.52495810318487e-015
vertex 0.0 0.0 0.0
vertex 12.5807611844575 1.58076118445751 -2.11497486191092e-015
endloop
endfacet
facet normal 6.33700333156831e-016 -2.67718336950749e-016 -1.0
outer loop
vertex 12.5807611844575 1.58076118445751 -2.11497486191092e-015
vertex 0.0 0.0 0.0
vertex 12.3741669750802 1.85000000000002 -4.93494134445882e-015
endloop
endfacet
facet normal 6.33700333156831e-016 -2.67718336950749e-016 -1.0
outer loop
vertex 12.3741669750802 1.85000000000002 -4.93494134445882e-015
vertex 0.0 0.0 0.0
vertex 12.2442964258242 2.16353524136675 -4.22994972382185e-015
endloop
endfacet
facet normal 6.33700333156831e-016 -2.67718336950749e-016 -1.0
outer loop
vertex 12.2442964258242 2.16353524136675 -4.22994972382185e-015
vertex 0.0 0.0 0.0
vertex 12.2 2.50000000000002 -5.63993296509579e-015
endloop
endfacet
facet normal 6.33700333156831e-016 -2.67718336950749e-016 -1.0
outer loop
vertex 35.6 1.62772748866056e-014 2.60846899635681e-014
vertex 13.5 1.20000000000003 -3.52495810318487e-015
vertex 13.8364647586333 1.24429642582424 -2.8199664825479e-015
endloop
endfacet
facet normal 6.33700333156831e-016 -2.67718336950749e-016 -1.0
outer loop
vertex 35.6 1.62772748866056e-014 2.60846899635681e-014
vertex 13.8364647586333 1.24429642582424 -2.8199664825479e-015
vertex 14.15 1.37416697508026 -2.8199664825479e-015
endloop
endfacet
facet normal 6.33700333156831e-016 -2.67718336950749e-016 -1.0
outer loop
vertex 35.6 1.62772748866056e-014 2.60846899635681e-014
vertex 14.15 1.37416697508026 -2.8199664825479e-015
vertex 14.4192388155425 1.58076118445751 -2.8199664825479e-015
endloop
endfacet
facet normal 6.33700333156831e-016 -2.67718336950749e-016 -1.0
outer loop
vertex 35.6 1.62772748866056e-014 2.60846899635681e-014
vertex 14.4192388155425 1.58076118445751 -2.8199664825479e-015
vertex 14.6258330249198 1.85000000000003 -3.52495810318487e-015
endloop
endfacet
facet normal 6.33700333156831e-016 -2.67718336950749e-016 -1.0
outer loop
vertex 35.6 1.62772748866056e-014 2.60846899635681e-014
vertex 14.6258330249198 1.85000000000003 -3.52495810318487e-015
vertex 22.1 1.20000000000003 2.8199664825479e-015
endloop
endfacet
facet normal 6.33700333156831e-016 -2.67718336950749e-016 -1.0
outer loop
vertex 22.1 1.20000000000003 2.8199664825479e-015
vertex 14.6258330249198 1.85000000000003 -3.52495810318487e-015
vertex 14.7557035741758 2.16353524136675 -2.8199664825479e-015
endloop
endfacet
facet normal 6.33700333156831e-016 -2.67718336950749e-016 -1.0
outer loop
vertex 22.1 1.20000000000003 2.8199664825479e-015
vertex 14.7557035741758 2.16353524136675 -2.8199664825479e-015
vertex 21.7635352413667 1.24429642582424 5.63993296509579e-015
endloop
endfacet
facet normal 6.33700333156831e-016 -2.67718336950749e-016 -1.0
outer loop
vertex 21.7635352413667 1.24429642582424 5.63993296509579e-015
vertex 14.7557035741758 2.16353524136675 -2.8199664825479e-015
vertex 14.8 2.50000000000002 -3.52495810318487e-015
endloop
endfacet
facet normal 6.33700333156831e-016 -2.67718336950749e-016 -1.0
outer loop
vertex 21.7635352413667 1.24429642582424 5.63993296509579e-015
vertex 14.8 2.50000000000002 -3.52495810318487e-015
vertex 21.45 1.37416697508026 7.75490782700672e-015
endloop
endfacet
facet normal 6.33700333156831e-016 -2.67718336950749e-016 -1.0
outer loop
vertex 21.45 1.37416697508026 7.75490782700672e-015
vertex 14.8 2.50000000000002 -3.52495810318487e-015
vertex 17.4 3.10717967697246 9.86988268891764e-015
endloop
endfacet
facet normal 6.33700333156831e-016 -2.67718336950749e-016 -1.0
outer loop
vertex 17.4 3.10717967697246 9.86988268891764e-015
vertex 14.8 2.50000000000002 -3.52495810318487e-015
vertex 17.2343145750507 3.23431457505077 1.05748743095546e-014
endloop
endfacet
facet normal 6.33700333156831e-016 -2.67718336950749e-016 -1.0
outer loop
vertex 17.2343145750507 3.23431457505077 1.05748743095546e-014
vertex 14.8 2.50000000000002 -3.52495810318487e-015
vertex 17.1071796769724 3.40000000000001 1.05748743095546e-014
endloop
endfacet
facet normal 6.33700333156831e-016 -2.67718336950749e-016 -1.0
outer loop
vertex 17.1071796769724 3.40000000000001 1.05748743095546e-014
vertex 14.8 2.50000000000002 -3.52495810318487e-015
vertex 17.0272593389687 3.59294476391799 9.86988268891764e-015
endloop
endfacet
facet normal 6.33700333156831e-016 -2.67718336950749e-016 -1.0
outer loop
vertex 17.0272593389687 3.59294476391799 9.86988268891764e-015
vertex 14.8 2.50000000000002 -3.52495810318487e-015
vertex 17.0 3.80000000000001 1.19848575508286e-014
endloop
endfacet
facet normal 6.33700333156831e-016 -2.67718336950749e-016 -1.0
outer loop
vertex 21.45 1.37416697508026 7.75490782700672e-015
vertex 17.4 3.10717967697246 9.86988268891764e-015
vertex 17.5929447639179 3.02725933896875 9.86988268891764e-015
endloop
endfacet
facet normal 6.33700333156831e-016 -2.67718336950749e-016 -1.0
outer loop
vertex 21.45 1.37416697508026 7.75490782700672e-015
vertex 17.5929447639179 3.02725933896875 9.86988268891764e-015
vertex 17.8 3.00000000000001 9.86988268891764e-015
endloop
endfacet
facet normal 6.33700333156831e-016 -2.67718336950749e-016 -1.0
outer loop
vertex 21.45 1.37416697508026 7.75490782700672e-015
vertex 17.8 3.00000000000001 9.86988268891764e-015
vertex 18.007055236082 3.02725933896876 1.05748743095546e-014
endloop
endfacet
facet normal 6.33700333156831e-016 -2.67718336950749e-016 -1.0
outer loop
vertex 21.45 1.37416697508026 7.75490782700672e-015
vertex 18.007055236082 3.02725933896876 1.05748743095546e-014
vertex 18.2 3.10717967697246 9.86988268891764e-015
endloop
endfacet
facet normal 6.33700333156831e-016 -2.67718336950749e-016 -1.0
outer loop
vertex 21.45 1.37416697508026 7.75490782700672e-015
vertex 18.2 3.10717967697246 9.86988268891764e-015
vertex 18.3656854249492 3.23431457505077 1.26898491714655e-014
endloop
endfacet
facet normal 6.33700333156831e-016 -2.67718336950749e-016 -1.0
outer loop
vertex 21.45 1.37416697508026 7.75490782700672e-015
vertex 18.3656854249492 3.23431457505077 1.26898491714655e-014
vertex 18.4928203230275 3.40000000000001 1.12798659301916e-014
endloop
endfacet
facet normal 6.33700333156831e-016 -2.67718336950749e-016 -1.0
outer loop
vertex 21.45 1.37416697508026 7.75490782700672e-015
vertex 18.4928203230275 3.40000000000001 1.12798659301916e-014
vertex 21.1807611844575 1.58076118445752 5.63993296509579e-015
endloop
endfacet
facet normal 6.33700333156831e-016 -2.67718336950749e-016 -1.0
outer loop
vertex 21.1807611844575 1.58076118445752 5.63993296509579e-015
vertex 18.4928203230275 3.40000000000001 1.12798659301916e-014
vertex 18.5727406610312 3.59294476391799 1.05748743095546e-014
endloop
endfacet
facet normal 6.33700333156831e-016 -2.67718336950749e-016 -1.0
outer loop
vertex 21.1807611844575 1.58076118445752 5.63993296509579e-015
vertex 18.5727406610312 3.59294476391799 1.05748743095546e-014
vertex 18.6 3.80000000000001 1.19848575508286e-014
endloop
endfacet
facet normal 6.33700333156831e-016 -2.67718336950749e-016 -1.0
outer loop
vertex 21.1807611844575 1.58076118445752 5.63993296509579e-015
vertex 18.6 3.80000000000001 1.19848575508286e-014
vertex 20.9741669750802 1.85000000000003 4.22994972382185e-015
endloop
endfacet
facet normal 6.33700333156831e-016 -2.67718336950749e-016 -1.0
outer loop
vertex 20.9741669750802 1.85000000000003 4.22994972382185e-015
vertex 18.6 3.80000000000001 1.19848575508286e-014
vertex 20.8442964258242 2.16353524136675 2.11497486191092e-015
endloop
endfacet
facet normal 6.33700333156831e-016 -2.67718336950749e-016 -1.0
outer loop
vertex 20.8442964258242 2.16353524136675 2.11497486191092e-015
vertex 18.6 3.80000000000001 1.19848575508286e-014
vertex 20.8 2.50000000000002 4.93494134445882e-015
endloop
endfacet
facet normal 6.33700333156831e-016 -2.67718336950749e-016 -1.0
outer loop
vertex 35.6 1.62772748866056e-014 2.60846899635681e-014
vertex 22.1 1.20000000000003 2.8199664825479e-015
vertex 22.4364647586333 1.24429642582424 7.75490782700672e-015
endloop
endfacet
facet normal 6.33700333156831e-016 -2.67718336950749e-016 -1.0
outer loop
vertex 35.6 1.62772748866056e-014 2.60846899635681e-014
vertex 22.4364647586333 1.24429642582424 7.75490782700672e-015
vertex 22.75 1.37416697508026 5.63993296509579e-015
endloop
endfacet
facet normal 6.33700333156831e-016 -2.67718336950749e-016 -1.0
outer loop
vertex 35.6 1.62772748866056e-014 2.60846899635681e-014
vertex 22.75 1.37416697508026 5.63993296509579e-015
vertex 23.0192388155425 1.58076118445752 7.75490782700672e-015
endloop
endfacet
facet normal 6.33700333156831e-016 -2.67718336950749e-016 -1.0
outer loop
vertex 35.6 1.62772748866056e-014 2.60846899635681e-014
vertex 23.0192388155425 1.58076118445752 7.75490782700672e-015
vertex 23.2258330249197 1.85000000000002 9.16489106828067e-015
endloop
endfacet
facet normal 6.33700333156831e-016 -2.67718336950749e-016 -1.0
outer loop
vertex 35.6 1.62772748866056e-014 2.60846899635681e-014
vertex 23.2258330249197 1.85000000000002 9.16489106828067e-015
vertex 23.3557035741758 2.16353524136675 4.93494134445882e-015
endloop
endfacet
facet normal 6.33700333156831e-016 -2.67718336950749e-016 -1.0
outer loop
vertex 35.6 1.62772748866056e-014 2.60846899635681e-014
vertex 23.3557035741758 2.16353524136675 4.93494134445882e-015
vertex 23.4 2.50000000000003 1.12798659301916e-014
endloop
endfacet
facet normal 6.33700333156831e-016 -2.67718336950749e-016 -1.0
outer loop
vertex 35.6 1.62772748866056e-014 2.60846899635681e-014
vertex 23.4 2.50000000000003 1.12798659301916e-014
vertex 35.6 7.90000000000002 2.04447569984723e-014
endloop
endfacet
facet normal 1.0 7.13915565201996e-016 -5.63993296509578e-015
outer loop
vertex 35.6 7.90000000000002 2.04447569984723e-014
vertex 35.6 1.62772748866056e-014 1.00000000000003
vertex 35.6 1.62772748866056e-014 2.60846899635681e-014
endloop
endfacet
facet normal 1.0 7.13915565201996e-016 -5.63993296509578e-015
outer loop
vertex 35.6 1.62772748866056e-014 1.00000000000003
vertex 35.6 7.90000000000002 2.04447569984723e-014
vertex 35.6 7.90000000000002 1.00000000000002
endloop
endfacet
facet normal -3.96062708223019e-016 1.0 -2.01388067304861e-030
outer loop
vertex -1.40998324127395e-014 7.90000000000001 1.0
vertex 35.6 7.90000000000002 2.04447569984723e-014
vertex -2.8199664825479e-015 7.90000000000001 1.40998324127395e-015
endloop
endfacet
facet normal -3.96062708223019e-016 1.0 -2.01388067304861e-030
outer loop
vertex 35.6 7.90000000000002 2.04447569984723e-014
vertex -1.40998324127395e-014 7.90000000000001 1.0
vertex 35.6 7.90000000000002 1.00000000000002
endloop
endfacet
facet normal -1.0 -1.78478891300494e-016 -1.26898491714656e-014
outer loop
vertex -1.40998324127395e-014 7.90000000000001 1.0
vertex 0.0 0.0 0.0
vertex -1.40998324127395e-014 0.0 0.999999999999995
endloop
endfacet
facet normal -1.0 -1.78478891300494e-016 -1.26898491714656e-014
outer loop
vertex 0.0 0.0 0.0
vertex -1.40998324127395e-014 7.90000000000001 1.0
vertex -2.8199664825479e-015 7.90000000000001 1.40998324127395e-015
endloop
endfacet
facet normal 4.5722682265746e-016 -1.0 1.74806415247153e-030
outer loop
vertex 35.6 1.62772748866056e-014 2.60846899635681e-014
vertex -1.40998324127395e-014 0.0 0.999999999999995
vertex 0.0 0.0 0.0
endloop
endfacet
facet normal 4.5722682265746e-016 -1.0 1.74806415247153e-030
outer loop
vertex -1.40998324127395e-014 0.0 0.999999999999995
vertex 35.6 1.62772748866056e-014 2.60846899635681e-014
vertex 35.6 1.62772748866056e-014 1.00000000000003
endloop
endfacet
facet normal -0.258819045102524 -0.965925826289067 -1.24764667222042e-015
outer loop
vertex 18.007055236082 4.57274066103126 1.12798659301916e-014
vertex 17.8 4.60000000000001 1.00000000000001
vertex 17.8 4.60000000000001 9.86988268891764e-015
endloop
endfacet
facet normal -0.130526192220078 -0.991444861373807 -1.06624315650194e-015
outer loop
vertex 17.8 4.60000000000001 1.00000000000001
vertex 18.007055236082 4.57274066103126 1.12798659301916e-014
vertex 18.007055236082 4.57274066103126 1.00000000000001
endloop
endfacet
facet normal -0.499999999999986 -0.866025403784447 -1.5780898750424e-015
outer loop
vertex 18.2 4.49282032302756 1.00000000000001
vertex 18.007055236082 4.57274066103126 1.12798659301916e-014
vertex 18.2 4.49282032302756 1.05748743095546e-014
endloop
endfacet
facet normal -0.258819045102524 -0.965925826289067 -1.24764667222042e-015
outer loop
vertex 18.007055236082 4.57274066103126 1.12798659301916e-014
vertex 18.2 4.49282032302756 1.00000000000001
vertex 18.007055236082 4.57274066103126 1.00000000000001
endloop
endfacet
facet normal -0.70710678118655 -0.707106781186545 -2.10441234258491e-015
outer loop
vertex 18.3656854249492 4.36568542494925 1.12798659301916e-014
vertex 18.2 4.49282032302756 1.00000000000001
vertex 18.2 4.49282032302756 1.05748743095546e-014
endloop
endfacet
facet normal -0.499999999999986 -0.866025403784447 -1.5780898750424e-015
outer loop
vertex 18.2 4.49282032302756 1.00000000000001
vertex 18.3656854249492 4.36568542494925 1.12798659301916e-014
vertex 18.3656854249492 4.36568542494925 1.00000000000001
endloop
endfacet
facet normal -0.70710678118655 -0.707106781186545 -2.10441234258491e-015
outer loop
vertex 18.3656854249492 4.36568542494925 1.00000000000001
vertex 18.4928203230275 4.20000000000001 1.12798659301916e-014
vertex 18.4928203230275 4.20000000000001 1.00000000000001
endloop
endfacet
facet normal -0.866025403784437 -0.500000000000003 -1.3748573544876e-015
outer loop
vertex 18.4928203230275 4.20000000000001 1.12798659301916e-014
vertex 18.3656854249492 4.36568542494925 1.00000000000001
vertex 18.3656854249492 4.36568542494925 1.12798659301916e-014
endloop
endfacet
facet normal -0.866025403784437 -0.500000000000003 -1.3748573544876e-015
outer loop
vertex 18.4928203230275 4.20000000000001 1.00000000000001
vertex 18.5727406610312 4.00705523608203 1.05748743095546e-014
vertex 18.5727406610312 4.00705523608203 1.00000000000001
endloop
endfacet
facet normal -0.965925826289067 -0.258819045102525 -1.85363229922053e-016
outer loop
vertex 18.5727406610312 4.00705523608203 1.05748743095546e-014
vertex 18.4928203230275 4.20000000000001 1.00000000000001
vertex 18.4928203230275 4.20000000000001 1.12798659301916e-014
endloop
endfacet
facet normal -0.965925826289067 -0.258819045102526 -1.85363229922054e-016
outer loop
vertex 18.5727406610312 4.00705523608203 1.00000000000001
vertex 18.6 3.80000000000001 1.19848575508286e-014
vertex 18.6 3.80000000000001 1.00000000000001
endloop
endfacet
facet normal -1.0 5.76548810248351e-015 1.4096307879689e-015
outer loop
vertex 18.6 3.80000000000001 1.19848575508286e-014
vertex 18.5727406610312 4.00705523608203 1.00000000000001
vertex 18.5727406610312 4.00705523608203 1.05748743095546e-014
endloop
endfacet
facet normal -1.0 5.89024364102252e-015 1.4096307879689e-015
outer loop
vertex 18.6 3.80000000000001 1.00000000000001
vertex 18.5727406610312 3.59294476391799 1.05748743095546e-014
vertex 18.5727406610312 3.59294476391799 1.00000000000001
endloop
endfacet
facet normal -0.96592582628907 0.258819045102513 2.90815974992653e-015
outer loop
vertex 18.5727406610312 3.59294476391799 1.05748743095546e-014
vertex 18.6 3.80000000000001 1.00000000000001
vertex 18.6 3.80000000000001 1.19848575508286e-014
endloop
endfacet
facet normal -0.96592582628907 0.258819045102514 2.90815974992653e-015
outer loop
vertex 18.5727406610312 3.59294476391799 1.00000000000001
vertex 18.4928203230275 3.40000000000001 1.12798659301916e-014
vertex 18.4928203230275 3.40000000000001 1.00000000000001
endloop
endfacet
facet normal -0.866025403784437 0.500000000000002 4.31037149610043e-016
outer loop
vertex 18.4928203230275 3.40000000000001 1.12798659301916e-014
vertex 18.5727406610312 3.59294476391799 1.00000000000001
vertex 18.5727406610312 3.59294476391799 1.05748743095546e-014
endloop
endfacet
facet normal -0.866025403784437 0.500000000000002 4.31037149610043e-016
outer loop
vertex 18.4928203230275 3.40000000000001 1.00000000000001
vertex 18.3656854249492 3.23431457505077 1.26898491714655e-014
vertex 18.3656854249492 3.23431457505077 1.00000000000001
endloop
endfacet
facet normal -0.707106781186545 0.70710678118655 -1.88500709770422e-015
outer loop
vertex 18.3656854249492 3.23431457505077 1.26898491714655e-014
vertex 18.4928203230275 3.40000000000001 1.00000000000001
vertex 18.4928203230275 3.40000000000001 1.12798659301916e-014
endloop
endfacet
facet normal -0.499999999999992 0.866025403784443 -8.66714801783232e-016
outer loop
vertex 18.2 3.10717967697246 1.00000000000001
vertex 18.3656854249492 3.23431457505077 1.26898491714655e-014
vertex 18.2 3.10717967697246 9.86988268891764e-015
endloop
endfacet
facet normal -0.707106781186545 0.70710678118655 -1.88500709770422e-015
outer loop
vertex 18.3656854249492 3.23431457505077 1.26898491714655e-014
vertex 18.2 3.10717967697246 1.00000000000001
vertex 18.3656854249492 3.23431457505077 1.00000000000001
endloop
endfacet
facet normal -0.25881904510252 0.965925826289069 -2.81222768122722e-018
outer loop
vertex 18.007055236082 3.02725933896876 1.05748743095546e-014
vertex 18.2 3.10717967697246 1.00000000000001
vertex 18.2 3.10717967697246 9.86988268891764e-015
endloop
endfacet
facet normal -0.499999999999992 0.866025403784443 -8.66714801783232e-016
outer loop
vertex 18.2 3.10717967697246 1.00000000000001
vertex 18.007055236082 3.02725933896876 1.05748743095546e-014
vertex 18.007055236082 3.02725933896876 1.00000000000001
endloop
endfacet
facet normal -0.130526192220076 0.991444861373807 -7.25466216378707e-019
outer loop
vertex 17.8 3.00000000000001 1.00000000000001
vertex 18.007055236082 3.02725933896876 1.05748743095546e-014
vertex 17.8 3.00000000000001 9.86988268891764e-015
endloop
endfacet
facet normal -0.25881904510252 0.965925826289069 -2.81222768122722e-018
outer loop
vertex 18.007055236082 3.02725933896876 1.05748743095546e-014
vertex 17.8 3.00000000000001 1.00000000000001
vertex 18.007055236082 3.02725933896876 1.00000000000001
endloop
endfacet
facet normal 0.258819045102528 0.965925826289066 -5.41968643817249e-016
outer loop
vertex 17.5929447639179 3.02725933896875 1.00000000000001
vertex 17.8 3.00000000000001 9.86988268891764e-015
vertex 17.5929447639179 3.02725933896875 9.86988268891764e-015
endloop
endfacet
facet normal 0.130526192220063 0.991444861373809 -0.0
outer loop
vertex 17.8 3.00000000000001 9.86988268891764e-015
vertex 17.5929447639179 3.02725933896875 1.00000000000001
vertex 17.8 3.00000000000001 1.00000000000001
endloop
endfacet
facet normal 0.500000000000004 0.866025403784436 -1.26670381879847e-015
outer loop
vertex 17.4 3.10717967697246 1.00000000000001
vertex 17.5929447639179 3.02725933896875 9.86988268891764e-015
vertex 17.4 3.10717967697246 9.86988268891764e-015
endloop
endfacet
facet normal 0.258819045102527 0.965925826289067 -5.41968643817247e-016
outer loop
vertex 17.5929447639179 3.02725933896875 9.86988268891764e-015
vertex 17.4 3.10717967697246 1.00000000000001
vertex 17.5929447639179 3.02725933896875 1.00000000000001
endloop
endfacet
facet normal 0.707106781186548 0.707106781186547 -5.08066282452436e-016
outer loop
vertex 17.2343145750507 3.23431457505077 1.05748743095546e-014
vertex 17.4 3.10717967697246 1.00000000000001
vertex 17.4 3.10717967697246 9.86988268891764e-015
endloop
endfacet
facet normal 0.500000000000004 0.866025403784436 -1.26670381879847e-015
outer loop
vertex 17.4 3.10717967697246 1.00000000000001
vertex 17.2343145750507 3.23431457505077 1.05748743095546e-014
vertex 17.2343145750507 3.23431457505077 1.00000000000001
endloop
endfacet
facet normal 0.707106781186548 0.707106781186547 -5.08066282452436e-016
outer loop
vertex 17.2343145750507 3.23431457505077 1.05748743095546e-014
vertex 17.1071796769724 3.40000000000001 1.00000000000001
vertex 17.2343145750507 3.23431457505077 1.00000000000001
endloop
endfacet
facet normal 0.866025403784438 0.500000000000001 3.52942241074959e-016
outer loop
vertex 17.1071796769724 3.40000000000001 1.00000000000001
vertex 17.2343145750507 3.23431457505077 1.05748743095546e-014
vertex 17.1071796769724 3.40000000000001 1.05748743095546e-014
endloop
endfacet
facet normal 0.866025403784438 0.500000000000002 3.5294224107496e-016
outer loop
vertex 17.1071796769724 3.40000000000001 1.05748743095546e-014
vertex 17.0272593389687 3.59294476391799 1.00000000000001
vertex 17.1071796769724 3.40000000000001 1.00000000000001
endloop
endfacet
facet normal 0.965925826289069 0.258819045102518 1.59359870648985e-015
outer loop
vertex 17.0272593389687 3.59294476391799 1.00000000000001
vertex 17.1071796769724 3.40000000000001 1.05748743095546e-014
vertex 17.0272593389687 3.59294476391799 9.86988268891764e-015
endloop
endfacet
facet normal 0.965925826289069 0.258819045102517 1.59359870648985e-015
outer loop
vertex 17.0272593389687 3.59294476391799 9.86988268891764e-015
vertex 17.0 3.80000000000001 1.00000000000001
vertex 17.0272593389687 3.59294476391799 1.00000000000001
endloop
endfacet
facet normal 1.0 1.23864427549491e-015 2.82123019826008e-015
outer loop
vertex 17.0 3.80000000000001 1.00000000000001
vertex 17.0272593389687 3.59294476391799 9.86988268891764e-015
vertex 17.0 3.80000000000001 1.19848575508286e-014
endloop
endfacet
facet normal 1.0 6.86155461964806e-016 2.82123019826008e-015
outer loop
vertex 17.0 3.80000000000001 1.19848575508286e-014
vertex 17.0272593389687 4.00705523608203 1.00000000000001
vertex 17.0 3.80000000000001 1.00000000000001
endloop
endfacet
facet normal 0.96592582628907 -0.258819045102513 -8.77613347272426e-017
outer loop
vertex 17.0272593389687 4.00705523608203 1.00000000000001
vertex 17.0 3.80000000000001 1.19848575508286e-014
vertex 17.0272593389687 4.00705523608203 9.16489106828067e-015
endloop
endfacet
facet normal 0.96592582628907 -0.258819045102513 -8.77613347272449e-017
outer loop
vertex 17.0272593389687 4.00705523608203 9.16489106828067e-015
vertex 17.1071796769724 4.20000000000001 1.00000000000001
vertex 17.0272593389687 4.00705523608203 1.00000000000001
endloop
endfacet
facet normal 0.866025403784439 -0.5 -2.79667220154174e-015
outer loop
vertex 17.1071796769724 4.20000000000001 1.00000000000001
vertex 17.0272593389687 4.00705523608203 9.16489106828067e-015
vertex 17.1071796769724 4.20000000000001 9.16489106828067e-015
endloop
endfacet
facet normal 0.866025403784439 -0.5 -2.79667220154174e-015
outer loop
vertex 17.1071796769724 4.20000000000001 9.16489106828067e-015
vertex 17.2343145750507 4.36568542494925 1.00000000000001
vertex 17.1071796769724 4.20000000000001 1.00000000000001
endloop
endfacet
facet normal 0.707106781186539 -0.707106781186556 -1.62867927800022e-015
outer loop
vertex 17.2343145750507 4.36568542494925 1.00000000000001
vertex 17.1071796769724 4.20000000000001 9.16489106828067e-015
vertex 17.2343145750507 4.36568542494925 8.45989944764369e-015
endloop
endfacet
facet normal 0.5 -0.866025403784438 -6.86709391737208e-017
outer loop
vertex 17.4 4.49282032302756 1.05748743095546e-014
vertex 17.2343145750507 4.36568542494925 1.00000000000001
vertex 17.2343145750507 4.36568542494925 8.45989944764369e-015
endloop
endfacet
facet normal 0.707106781186539 -0.707106781186556 -1.62867927800022e-015
outer loop
vertex 17.2343145750507 4.36568542494925 1.00000000000001
vertex 17.4 4.49282032302756 1.05748743095546e-014
vertex 17.4 4.49282032302756 1.00000000000001
endloop
endfacet
facet normal 0.258819045102539 -0.965925826289063 4.79899219761593e-017
outer loop
vertex 17.5929447639179 4.57274066103126 1.00000000000001
vertex 17.4 4.49282032302756 1.05748743095546e-014
vertex 17.5929447639179 4.57274066103126 9.86988268891764e-015
endloop
endfacet
facet normal 0.5 -0.866025403784438 -6.86709391737208e-017
outer loop
vertex 17.4 4.49282032302756 1.05748743095546e-014
vertex 17.5929447639179 4.57274066103126 1.00000000000001
vertex 17.4 4.49282032302756 1.00000000000001
endloop
endfacet
facet normal 0.130526192220074 -0.991444861373808 -3.31167152400951e-016
outer loop
vertex 17.8 4.60000000000001 1.00000000000001
vertex 17.5929447639179 4.57274066103126 9.86988268891764e-015
vertex 17.8 4.60000000000001 9.86988268891764e-015
endloop
endfacet
facet normal 0.258819045102538 -0.965925826289064 4.79899219761578e-017
outer loop
vertex 17.5929447639179 4.57274066103126 9.86988268891764e-015
vertex 17.8 4.60000000000001 1.00000000000001
vertex 17.5929447639179 4.57274066103126 1.00000000000001
endloop
endfacet
facet normal -0.866025403784439 0.499999999999999 1.15570263975903e-015
outer loop
vertex 23.2258330249198 1.85000000000002 1.0
vertex 23.0192388155425 1.58076118445752 7.75490782700672e-015
vertex 23.0192388155425 1.58076118445752 1.00000000000001
endloop
endfacet
facet normal -0.707106781186542 0.707106781186553 3.61830468442328e-016
outer loop
vertex 23.0192388155425 1.58076118445752 7.75490782700672e-015
vertex 23.2258330249198 1.85000000000002 1.0
vertex 23.2258330249197 1.85000000000002 9.16489106828067e-015
endloop
endfacet
facet normal -0.500000000000008 0.866025403784434 -1.80107450158195e-015
outer loop
vertex 22.75 1.37416697508026 1.0
vertex 23.0192388155425 1.58076118445752 7.75490782700672e-015
vertex 22.75 1.37416697508026 5.63993296509579e-015
endloop
endfacet
facet normal -0.707106781186542 0.707106781186553 3.61830468442328e-016
outer loop
vertex 23.0192388155425 1.58076118445752 7.75490782700672e-015
vertex 22.75 1.37416697508026 1.0
vertex 23.0192388155425 1.58076118445752 1.00000000000001
endloop
endfacet
facet normal -0.258819045102518 0.965925826289069 -1.06025325108483e-015
outer loop
vertex 22.4364647586333 1.24429642582424 7.75490782700672e-015
vertex 22.75 1.37416697508026 1.0
vertex 22.75 1.37416697508026 5.63993296509579e-015
endloop
endfacet
facet normal -0.500000000000008 0.866025403784434 -1.80107450158195e-015
outer loop
vertex 22.75 1.37416697508026 1.0
vertex 22.4364647586333 1.24429642582424 7.75490782700672e-015
vertex 22.4364647586333 1.24429642582424 1.0
endloop
endfacet
facet normal 5.39122148686637e-015 1.0 7.94329536181706e-017
outer loop
vertex 22.1 1.20000000000003 1.00000000000001
vertex 22.4364647586333 1.24429642582424 7.75490782700672e-015
vertex 22.1 1.20000000000003 2.8199664825479e-015
endloop
endfacet
facet normal -0.258819045102518 0.965925826289069 -1.06025325108483e-015
outer loop
vertex 22.4364647586333 1.24429642582424 7.75490782700672e-015
vertex 22.1 1.20000000000003 1.00000000000001
vertex 22.4364647586333 1.24429642582424 1.0
endloop
endfacet
facet normal 0.258819045102512 0.965925826289071 2.15768139543391e-016
outer loop
vertex 21.7635352413667 1.24429642582424 5.63993296509579e-015
vertex 22.1 1.20000000000003 1.00000000000001
vertex 22.1 1.20000000000003 2.8199664825479e-015
endloop
endfacet
facet normal 5.39122148686637e-015 1.0 7.94329536181706e-017
outer loop
vertex 22.1 1.20000000000003 1.00000000000001
vertex 21.7635352413667 1.24429642582424 5.63993296509579e-015
vertex 21.7635352413667 1.24429642582424 1.00000000000001
endloop
endfacet
facet normal 0.499999999999999 0.866025403784439 1.87283022275612e-016
outer loop
vertex 21.45 1.37416697508026 7.75490782700672e-015
vertex 21.7635352413667 1.24429642582424 1.00000000000001
vertex 21.7635352413667 1.24429642582424 5.63993296509579e-015
endloop
endfacet
facet normal 0.258819045102512 0.965925826289071 2.15768139543391e-016
outer loop
vertex 21.7635352413667 1.24429642582424 1.00000000000001
vertex 21.45 1.37416697508026 7.75490782700672e-015
vertex 21.45 1.37416697508026 1.0
endloop
endfacet
facet normal 0.707106781186546 0.707106781186549 1.60176683504165e-016
outer loop
vertex 21.1807611844575 1.58076118445752 1.0
vertex 21.45 1.37416697508026 7.75490782700672e-015
vertex 21.1807611844575 1.58076118445752 5.63993296509579e-015
endloop
endfacet
facet normal 0.499999999999999 0.866025403784439 1.87283022275612e-016
outer loop
vertex 21.45 1.37416697508026 7.75490782700672e-015
vertex 21.1807611844575 1.58076118445752 1.0
vertex 21.45 1.37416697508026 1.0
endloop
endfacet
facet normal 0.707106781186547 0.707106781186548 1.60176683504165e-016
outer loop
vertex 21.1807611844575 1.58076118445752 5.63993296509579e-015
vertex 20.9741669750802 1.85000000000003 1.0
vertex 21.1807611844575 1.58076118445752 1.0
endloop
endfacet
facet normal 0.866025403784441 0.499999999999996 5.80949260447662e-017
outer loop
vertex 20.9741669750802 1.85000000000003 1.0
vertex 21.1807611844575 1.58076118445752 5.63993296509579e-015
vertex 20.9741669750802 1.85000000000003 4.22994972382185e-015
endloop
endfacet
facet normal 0.965925826289069 0.258819045102519 1.3190394998164e-017
outer loop
vertex 20.8442964258242 2.16353524136675 2.11497486191092e-015
vertex 20.9741669750802 1.85000000000003 1.0
vertex 20.9741669750802 1.85000000000003 4.22994972382185e-015
endloop
endfacet
facet normal 0.866025403784441 0.499999999999996 5.80949260447662e-017
outer loop
vertex 20.9741669750802 1.85000000000003 1.0
vertex 20.8442964258242 2.16353524136675 2.11497486191092e-015
vertex 20.8442964258242 2.16353524136675 1.0
endloop
endfacet
facet normal 1.0 6.05955472903987e-016 -9.55100372551539e-019
outer loop
vertex 20.8 2.50000000000002 4.93494134445882e-015
vertex 20.8442964258242 2.16353524136675 1.0
vertex 20.8442964258242 2.16353524136675 2.11497486191092e-015
endloop
endfacet
facet normal 0.965925826289069 0.258819045102518 1.3190394998164e-017
outer loop
vertex 20.8442964258242 2.16353524136675 1.0
vertex 20.8 2.50000000000002 4.93494134445882e-015
vertex 20.8 2.50000000000002 1.0
endloop
endfacet
facet normal 1.0 6.05955472903987e-016 -9.55100372551539e-019
outer loop
vertex 20.8 2.50000000000002 4.93494134445882e-015
vertex 20.8442964258242 2.83646475863331 1.0
vertex 20.8 2.50000000000002 1.0
endloop
endfacet
facet normal 0.965925826289068 -0.258819045102522 1.30241569588306e-015
outer loop
vertex 20.8442964258242 2.83646475863331 1.0
vertex 20.8 2.50000000000002 4.93494134445882e-015
vertex 20.8442964258242 2.83646475863331 2.11497486191092e-015
endloop
endfacet
facet normal 0.866025403784445 -0.499999999999989 3.46455383725347e-015
outer loop
vertex 20.9741669750802 3.15000000000003 3.52495810318487e-015
vertex 20.8442964258242 2.83646475863331 1.0
vertex 20.8442964258242 2.83646475863331 2.11497486191092e-015
endloop
endfacet
facet normal 0.965925826289068 -0.258819045102522 1.30241569588306e-015
outer loop
vertex 20.8442964258242 2.83646475863331 1.0
vertex 20.9741669750802 3.15000000000003 3.52495810318487e-015
vertex 20.9741669750802 3.15000000000003 1.0
endloop
endfacet
facet normal 0.707106781186549 -0.707106781186546 2.73619992145733e-015
outer loop
vertex 21.1807611844575 3.41923881554254 4.22994972382185e-015
vertex 20.9741669750802 3.15000000000003 1.0
vertex 20.9741669750802 3.15000000000003 3.52495810318487e-015
endloop
endfacet
facet normal 0.866025403784445 -0.499999999999989 3.46455383725347e-015
outer loop
vertex 20.9741669750802 3.15000000000003 1.0
vertex 21.1807611844575 3.41923881554254 4.22994972382185e-015
vertex 21.1807611844575 3.41923881554254 1.0
endloop
endfacet
facet normal 0.499999999999998 -0.86602540378444 2.5908409865702e-016
outer loop
vertex 21.45 3.6258330249198 6.34492458573277e-015
vertex 21.1807611844575 3.41923881554254 1.0
vertex 21.1807611844575 3.41923881554254 4.22994972382185e-015
endloop
endfacet
facet normal 0.707106781186549 -0.707106781186546 2.73619992145734e-015
outer loop
vertex 21.1807611844575 3.41923881554254 1.0
vertex 21.45 3.6258330249198 6.34492458573277e-015
vertex 21.45 3.6258330249198 1.0
endloop
endfacet
facet normal 0.258819045102522 -0.965925826289068 -8.6524542175443e-016
outer loop
vertex 21.7635352413667 3.75570357417582 1.0
vertex 21.45 3.6258330249198 6.34492458573277e-015
vertex 21.7635352413667 3.75570357417582 4.22994972382185e-015
endloop
endfacet
facet normal 0.499999999999998 -0.86602540378444 2.5908409865702e-016
outer loop
vertex 21.45 3.6258330249198 6.34492458573277e-015
vertex 21.7635352413667 3.75570357417582 1.0
vertex 21.45 3.6258330249198 1.0
endloop
endfacet
facet normal -4.81199934364934e-016 -1.0 -7.0590076462998e-016
outer loop
vertex 22.1 3.80000000000003 1.0
vertex 21.7635352413667 3.75570357417582 4.22994972382185e-015
vertex 22.1 3.80000000000003 7.04991620636974e-016
endloop
endfacet
facet normal 0.258819045102522 -0.965925826289068 -8.65245421754431e-016
outer loop
vertex 21.7635352413667 3.75570357417582 4.22994972382185e-015
vertex 22.1 3.80000000000003 1.0
vertex 21.7635352413667 3.75570357417582 1.0
endloop
endfacet
facet normal -0.258819045102519 -0.965925826289069 -4.96664314265044e-016
outer loop
vertex 22.4364647586333 3.75570357417582 4.22994972382185e-015
vertex 22.1 3.80000000000003 1.0
vertex 22.1 3.80000000000003 7.04991620636974e-016
endloop
endfacet
facet normal -4.81199934364934e-016 -1.0 -7.0590076462998e-016
outer loop
vertex 22.1 3.80000000000003 1.0
vertex 22.4364647586333 3.75570357417582 4.22994972382185e-015
vertex 22.4364647586333 3.75570357417582 1.0
endloop
endfacet
facet normal -0.499999999999997 -0.86602540378444 -6.1016997836677e-016
outer loop
vertex 22.75 3.6258330249198 1.0
vertex 22.4364647586333 3.75570357417582 4.22994972382185e-015
vertex 22.75 3.6258330249198 1.40998324127395e-015
endloop
endfacet
facet normal -0.258819045102519 -0.965925826289069 -4.96664314265044e-016
outer loop
vertex 22.4364647586333 3.75570357417582 4.22994972382185e-015
vertex 22.75 3.6258330249198 1.0
vertex 22.4364647586333 3.75570357417582 1.0
endloop
endfacet
facet normal -0.707106781186549 -0.707106781186546 7.36805760008878e-016
outer loop
vertex 23.0192388155425 3.41923881554254 2.8199664825479e-015
vertex 22.75 3.6258330249198 1.0
vertex 22.75 3.6258330249198 1.40998324127395e-015
endloop
endfacet
facet normal -0.499999999999997 -0.86602540378444 -6.1016997836677e-016
outer loop
vertex 22.75 3.6258330249198 1.0
vertex 23.0192388155425 3.41923881554254 2.8199664825479e-015
vertex 23.0192388155425 3.41923881554254 1.00000000000001
endloop
endfacet
facet normal -0.70710678118655 -0.707106781186545 7.36805760008887e-016
outer loop
vertex 23.0192388155425 3.41923881554254 1.00000000000001
vertex 23.2258330249197 3.15000000000002 4.93494134445882e-015
vertex 23.2258330249197 3.15000000000002 1.00000000000001
endloop
endfacet
facet normal -0.866025403784438 -0.500000000000001 1.01636557941639e-015
outer loop
vertex 23.2258330249197 3.15000000000002 4.93494134445882e-015
vertex 23.0192388155425 3.41923881554254 1.00000000000001
vertex 23.0192388155425 3.41923881554254 2.8199664825479e-015
endloop
endfacet
facet normal -0.866025403784438 -0.5 1.01636557941639e-015
outer loop
vertex 23.2258330249197 3.15000000000002 1.00000000000001
vertex 23.3557035741758 2.8364647586333 7.04991620636974e-015
vertex 23.3557035741758 2.8364647586333 1.0
endloop
endfacet
facet normal -0.965925826289067 -0.258819045102527 -1.42967587869695e-018
outer loop
vertex 23.3557035741758 2.8364647586333 7.04991620636974e-015
vertex 23.2258330249197 3.15000000000002 1.00000000000001
vertex 23.2258330249197 3.15000000000002 4.93494134445882e-015
endloop
endfacet
facet normal -0.965925826289067 -0.258819045102526 -1.42967587869694e-018
outer loop
vertex 23.3557035741758 2.8364647586333 1.0
vertex 23.4 2.50000000000003 1.12798659301916e-014
vertex 23.4 2.50000000000003 1.00000000000001
endloop
endfacet
facet normal -1.0 7.41404343317815e-015 1.24007833474899e-018
outer loop
vertex 23.4 2.50000000000003 1.12798659301916e-014
vertex 23.3557035741758 2.8364647586333 1.0
vertex 23.3557035741758 2.8364647586333 7.04991620636974e-015
endloop
endfacet
facet normal -1.0 7.14671013630884e-015 1.24007833474899e-018
outer loop
vertex 23.4 2.50000000000003 1.00000000000001
vertex 23.3557035741758 2.16353524136675 4.93494134445882e-015
vertex 23.3557035741758 2.16353524136675 1.0
endloop
endfacet
facet normal -0.965925826289069 0.258819045102517 8.6238955361706e-019
outer loop
vertex 23.3557035741758 2.16353524136675 4.93494134445882e-015
vertex 23.4 2.50000000000003 1.00000000000001
vertex 23.4 2.50000000000003 1.12798659301916e-014
endloop
endfacet
facet normal -0.965925826289069 0.258819045102516 8.62389553617066e-019
outer loop
vertex 23.3557035741758 2.16353524136675 1.0
vertex 23.2258330249197 1.85000000000002 9.16489106828067e-015
vertex 23.2258330249198 1.85000000000002 1.0
endloop
endfacet
facet normal -0.866025403784439 0.499999999999999 1.15570263975903e-015
outer loop
vertex 23.2258330249197 1.85000000000002 9.16489106828067e-015
vertex 23.3557035741758 2.16353524136675 1.0
vertex 23.3557035741758 2.16353524136675 4.93494134445882e-015
endloop
endfacet
facet normal -0.866025403784439 0.499999999999999 -1.3421350961863e-015
outer loop
vertex 14.6258330249198 1.85000000000003 0.999999999999999
vertex 14.4192388155425 1.58076118445751 -2.8199664825479e-015
vertex 14.4192388155425 1.58076118445751 0.999999999999999
endloop
endfacet
facet normal -0.707106781186549 0.707106781186546 -1.05104580450166e-015
outer loop
vertex 14.4192388155425 1.58076118445751 -2.8199664825479e-015
vertex 14.6258330249198 1.85000000000003 0.999999999999999
vertex 14.6258330249198 1.85000000000003 -3.52495810318487e-015
endloop
endfacet
facet normal -0.500000000000002 0.866025403784437 -3.91439058250325e-016
outer loop
vertex 14.15 1.37416697508026 0.999999999999999
vertex 14.4192388155425 1.58076118445751 -2.8199664825479e-015
vertex 14.15 1.37416697508026 -2.8199664825479e-015
endloop
endfacet
facet normal -0.707106781186549 0.707106781186546 -1.05104580450166e-015
outer loop
vertex 14.4192388155425 1.58076118445751 -2.8199664825479e-015
vertex 14.15 1.37416697508026 0.999999999999999
vertex 14.4192388155425 1.58076118445751 0.999999999999999
endloop
endfacet
facet normal -0.258819045102524 0.965925826289067 1.29674043018893e-016
outer loop
vertex 13.8364647586333 1.24429642582424 0.999999999999999
vertex 14.15 1.37416697508026 -2.8199664825479e-015
vertex 13.8364647586333 1.24429642582424 -2.8199664825479e-015
endloop
endfacet
facet normal -0.500000000000002 0.866025403784437 -3.91439058250325e-016
outer loop
vertex 14.15 1.37416697508026 -2.8199664825479e-015
vertex 13.8364647586333 1.24429642582424 0.999999999999999
vertex 14.15 1.37416697508026 0.999999999999999
endloop
endfacet
facet normal -9.17844319251633e-016 1.0 3.62036564847128e-016
outer loop
vertex 13.5 1.20000000000003 0.999999999999999
vertex 13.8364647586333 1.24429642582424 -2.8199664825479e-015
vertex 13.5 1.20000000000003 -3.52495810318487e-015
endloop
endfacet
facet normal -0.258819045102524 0.965925826289067 1.29674043018893e-016
outer loop
vertex 13.8364647586333 1.24429642582424 -2.8199664825479e-015
vertex 13.5 1.20000000000003 0.999999999999999
vertex 13.8364647586333 1.24429642582424 0.999999999999999
endloop
endfacet
facet normal 0.258819045102522 0.965925826289068 9.41298850159142e-016
outer loop
vertex 13.1635352413667 1.24429642582424 -2.11497486191092e-015
vertex 13.5 1.20000000000003 0.999999999999999
vertex 13.5 1.20000000000003 -3.52495810318487e-015
endloop
endfacet
facet normal -9.17844319251633e-016 1.0 3.62036564847128e-016
outer loop
vertex 13.5 1.20000000000003 0.999999999999999
vertex 13.1635352413667 1.24429642582424 -2.11497486191092e-015
vertex 13.1635352413667 1.24429642582424 0.999999999999996
endloop
endfacet
facet normal 0.499999999999996 0.866025403784441 7.73146578967677e-016
outer loop
vertex 12.85 1.37416697508026 0.999999999999996
vertex 13.1635352413667 1.24429642582424 -2.11497486191092e-015
vertex 12.85 1.37416697508026 -3.52495810318487e-015
endloop
endfacet
facet normal 0.258819045102522 0.965925826289068 9.41298850159142e-016
outer loop
vertex 13.1635352413667 1.24429642582424 -2.11497486191092e-015
vertex 12.85 1.37416697508026 0.999999999999996
vertex 13.1635352413667 1.24429642582424 0.999999999999996
endloop
endfacet
facet normal 0.707106781186544 0.707106781186551 7.4827046736323e-016
outer loop
vertex 12.5807611844575 1.58076118445751 -2.11497486191092e-015
vertex 12.85 1.37416697508026 0.999999999999996
vertex 12.85 1.37416697508026 -3.52495810318487e-015
endloop
endfacet
facet normal 0.499999999999996 0.866025403784441 7.73146578967677e-016
outer loop
vertex 12.85 1.37416697508026 0.999999999999996
vertex 12.5807611844575 1.58076118445751 -2.11497486191092e-015
vertex 12.5807611844575 1.58076118445751 0.999999999999995
endloop
endfacet
facet normal 0.707106781186544 0.707106781186551 7.4827046736323e-016
outer loop
vertex 12.5807611844575 1.58076118445751 -2.11497486191092e-015
vertex 12.3741669750802 1.85000000000002 0.999999999999994
vertex 12.5807611844575 1.58076118445751 0.999999999999995
endloop
endfacet
facet normal 0.866025403784439 0.5 1.36980414167873e-015
outer loop
vertex 12.3741669750802 1.85000000000002 0.999999999999994
vertex 12.5807611844575 1.58076118445751 -2.11497486191092e-015
vertex 12.3741669750802 1.85000000000002 -4.93494134445882e-015
endloop
endfacet
facet normal 0.866025403784439 0.5 1.36980414167874e-015
outer loop
vertex 12.3741669750802 1.85000000000002 -4.93494134445882e-015
vertex 12.2442964258242 2.16353524136675 0.999999999999995
vertex 12.3741669750802 1.85000000000002 0.999999999999994
endloop
endfacet
facet normal 0.965925826289068 0.258819045102522 7.50318905007372e-016
outer loop
vertex 12.2442964258242 2.16353524136675 0.999999999999995
vertex 12.3741669750802 1.85000000000002 -4.93494134445882e-015
vertex 12.2442964258242 2.16353524136675 -4.22994972382185e-015
endloop
endfacet
facet normal 0.965925826289068 0.258819045102522 7.50318905007372e-016
outer loop
vertex 12.2442964258242 2.16353524136675 -4.22994972382185e-015
vertex 12.2 2.50000000000002 0.999999999999995
vertex 12.2442964258242 2.16353524136675 0.999999999999995
endloop
endfacet
facet normal 1.0 -2.5842218697376e-015 7.0617008649341e-016
outer loop
vertex 12.2 2.50000000000002 0.999999999999995
vertex 12.2442964258242 2.16353524136675 -4.22994972382185e-015
vertex 12.2 2.50000000000002 -5.63993296509579e-015
endloop
endfacet
facet normal 1.0 -2.72679962806796e-015 7.0617008649341e-016
outer loop
vertex 12.2 2.50000000000002 -5.63993296509579e-015
vertex 12.2442964258242 2.8364647586333 0.999999999999995
vertex 12.2 2.50000000000002 0.999999999999995
endloop
endfacet
facet normal 0.965925826289068 -0.258819045102522 1.26974673807499e-015
outer loop
vertex 12.2442964258242 2.8364647586333 0.999999999999995
vertex 12.2 2.50000000000002 -5.63993296509579e-015
vertex 12.2442964258242 2.8364647586333 -4.93494134445882e-015
endloop
endfacet
facet normal 0.965925826289068 -0.258819045102523 1.26974673807499e-015
outer loop
vertex 12.2442964258242 2.8364647586333 -4.93494134445882e-015
vertex 12.3741669750802 3.15000000000002 0.999999999999994
vertex 12.2442964258242 2.8364647586333 0.999999999999995
endloop
endfacet
facet normal 0.866025403784441 -0.499999999999995 4.24379006105615e-016
outer loop
vertex 12.3741669750802 3.15000000000002 0.999999999999994
vertex 12.2442964258242 2.8364647586333 -4.93494134445882e-015
vertex 12.3741669750802 3.15000000000002 -5.63993296509579e-015
endloop
endfacet
facet normal 0.866025403784441 -0.499999999999995 4.24379006105616e-016
outer loop
vertex 12.3741669750802 3.15000000000002 -5.63993296509579e-015
vertex 12.5807611844575 3.41923881554254 0.999999999999995
vertex 12.3741669750802 3.15000000000002 0.999999999999994
endloop
endfacet
facet normal 0.707106781186552 -0.707106781186543 -3.06464066483047e-016
outer loop
vertex 12.5807611844575 3.41923881554254 0.999999999999995
vertex 12.3741669750802 3.15000000000002 -5.63993296509579e-015
vertex 12.5807611844575 3.41923881554254 -3.52495810318487e-015
endloop
endfacet
facet normal 0.499999999999994 -0.866025403784442 1.28837574415684e-016
outer loop
vertex 12.85 3.6258330249198 0.999999999999995
vertex 12.5807611844575 3.41923881554254 -3.52495810318487e-015
vertex 12.85 3.6258330249198 -3.52495810318487e-015
endloop
endfacet
facet normal 0.707106781186552 -0.707106781186543 -3.06464066483047e-016
outer loop
vertex 12.5807611844575 3.41923881554254 -3.52495810318487e-015
vertex 12.85 3.6258330249198 0.999999999999995
vertex 12.5807611844575 3.41923881554254 0.999999999999995
endloop
endfacet
facet normal 0.258819045102516 -0.96592582628907 4.5759617354115e-016
outer loop
vertex 13.1635352413667 3.75570357417581 -2.11497486191092e-015
vertex 12.85 3.6258330249198 0.999999999999995
vertex 12.85 3.6258330249198 -3.52495810318487e-015
endloop
endfacet
facet normal 0.499999999999994 -0.866025403784442 1.28837574415684e-016
outer loop
vertex 12.85 3.6258330249198 0.999999999999995
vertex 13.1635352413667 3.75570357417581 -2.11497486191092e-015
vertex 13.1635352413667 3.75570357417581 0.999999999999995
endloop
endfacet
facet normal 1.01319319513506e-014 -1.0 -8.34679479276391e-017
outer loop
vertex 13.5 3.80000000000002 0.999999999999998
vertex 13.1635352413667 3.75570357417581 -2.11497486191092e-015
vertex 13.5 3.80000000000002 -4.93494134445882e-015
endloop
endfacet
facet normal 0.258819045102516 -0.96592582628907 4.5759617354115e-016
outer loop
vertex 13.1635352413667 3.75570357417581 -2.11497486191092e-015
vertex 13.5 3.80000000000002 0.999999999999998
vertex 13.1635352413667 3.75570357417581 0.999999999999995
endloop
endfacet
facet normal -0.258819045102518 -0.965925826289069 -5.98778102683806e-016
outer loop
vertex 13.8364647586333 3.75570357417582 -2.8199664825479e-015
vertex 13.5 3.80000000000002 0.999999999999998
vertex 13.5 3.80000000000002 -4.93494134445882e-015
endloop
endfacet
facet normal 1.01319319513506e-014 -1.0 -8.34679479276391e-017
outer loop
vertex 13.5 3.80000000000002 0.999999999999998
vertex 13.8364647586333 3.75570357417582 -2.8199664825479e-015
vertex 13.8364647586333 3.75570357417582 0.999999999999996
endloop
endfacet
facet normal -0.500000000000001 -0.866025403784438 -6.08701652376487e-016
outer loop
vertex 14.15 3.62583302491979 0.999999999999998
vertex 13.8364647586333 3.75570357417582 -2.8199664825479e-015
vertex 14.15 3.62583302491979 -4.22994972382185e-015
endloop
endfacet
facet normal -0.258819045102518 -0.965925826289069 -5.98778102683806e-016
outer loop
vertex 13.8364647586333 3.75570357417582 -2.8199664825479e-015
vertex 14.15 3.62583302491979 0.999999999999998
vertex 13.8364647586333 3.75570357417582 0.999999999999996
endloop
endfacet
facet normal -0.707106781186552 -0.707106781186543 -3.30449898186715e-016
outer loop
vertex 14.4192388155425 3.41923881554254 -3.52495810318487e-015
vertex 14.15 3.62583302491979 0.999999999999998
vertex 14.15 3.62583302491979 -4.22994972382185e-015
endloop
endfacet
facet normal -0.500000000000001 -0.866025403784438 -6.08701652376487e-016
outer loop
vertex 14.15 3.62583302491979 0.999999999999998
vertex 14.4192388155425 3.41923881554254 -3.52495810318487e-015
vertex 14.4192388155425 3.41923881554254 0.999999999999996
endloop
endfacet
facet normal -0.866025403784441 -0.499999999999995 -6.41099259640729e-016
outer loop
vertex 14.6258330249198 3.15000000000002 0.999999999999998
vertex 14.4192388155425 3.41923881554254 -3.52495810318487e-015
vertex 14.6258330249198 3.15000000000002 -4.22994972382185e-015
endloop
endfacet
facet normal -0.707106781186552 -0.707106781186543 -3.30449898186715e-016
outer loop
vertex 14.4192388155425 3.41923881554254 -3.52495810318487e-015
vertex 14.6258330249198 3.15000000000002 0.999999999999998
vertex 14.4192388155425 3.41923881554254 0.999999999999996
endloop
endfacet
facet normal -0.965925826289068 -0.258819045102522 -1.27129595864275e-015
outer loop
vertex 14.7557035741758 2.8364647586333 0.999999999999999
vertex 14.6258330249198 3.15000000000002 -4.22994972382185e-015
vertex 14.7557035741758 2.8364647586333 -3.52495810318487e-015
endloop
endfacet
facet normal -0.866025403784441 -0.499999999999995 -6.41099259640728e-016
outer loop
vertex 14.6258330249198 3.15000000000002 -4.22994972382185e-015
vertex 14.7557035741758 2.8364647586333 0.999999999999999
vertex 14.6258330249198 3.15000000000002 0.999999999999998
endloop
endfacet
facet normal -1.0 4.09911055199758e-015 -1.40949001768312e-015
outer loop
vertex 14.8 2.50000000000002 0.999999999999999
vertex 14.7557035741758 2.8364647586333 -3.52495810318487e-015
vertex 14.8 2.50000000000002 -3.52495810318487e-015
endloop
endfacet
facet normal -0.965925826289068 -0.258819045102522 -1.27129595864275e-015
outer loop
vertex 14.7557035741758 2.8364647586333 -3.52495810318487e-015
vertex 14.8 2.50000000000002 0.999999999999999
vertex 14.7557035741758 2.8364647586333 0.999999999999999
endloop
endfacet
facet normal -0.965925826289068 0.258819045102524 -1.45083042622316e-015
outer loop
vertex 14.7557035741758 2.16353524136675 0.999999999999999
vertex 14.8 2.50000000000002 -3.52495810318487e-015
vertex 14.7557035741758 2.16353524136675 -2.8199664825479e-015
endloop
endfacet
facet normal -1.0 4.06346611241499e-015 -1.40949001768312e-015
outer loop
vertex 14.8 2.50000000000002 -3.52495810318487e-015
vertex 14.7557035741758 2.16353524136675 0.999999999999999
vertex 14.8 2.50000000000002 0.999999999999999
endloop
endfacet
facet normal -0.866025403784439 0.499999999999999 -1.3421350961863e-015
outer loop
vertex 14.6258330249198 1.85000000000003 0.999999999999999
vertex 14.7557035741758 2.16353524136675 -2.8199664825479e-015
vertex 14.6258330249198 1.85000000000003 -3.52495810318487e-015
endloop
endfacet
facet normal -0.965925826289068 0.258819045102524 -1.45083042622316e-015
outer loop
vertex 14.7557035741758 2.16353524136675 -2.8199664825479e-015
vertex 14.6258330249198 1.85000000000003 0.999999999999999
vertex 14.7557035741758 2.16353524136675 0.999999999999999
endloop
endfacet
endsolid tonearm-rest-stencil
