solid tonearm-rest
facet normal 0.0 0.0 1.0
outer loop
vertex -4.63644396618753 -1.2423314164921 0.5
vertex -4.63644396618753 1.2423314164921 0.5
vertex -4.8 1.35972933543552e-015 0.5
endloop
endfacet
facet normal 0.0 0.0 1.0
outer loop
vertex -4.63644396618753 1.2423314164921 0.5
vertex -4.63644396618753 -1.2423314164921 0.5
vertex -4.15692193816531 -2.4 0.5
endloop
endfacet
facet normal 0.0 0.0 1.0
outer loop
vertex -4.63644396618753 1.2423314164921 0.5
vertex -4.15692193816531 -2.4 0.5
vertex -4.1569219381653 2.4 0.5
endloop
endfacet
facet normal 0.0 0.0 1.0
outer loop
vertex -4.1569219381653 2.4 0.5
vertex -4.15692193816531 -2.4 0.5
vertex -3.39411254969543 -3.39411254969543 0.5
endloop
endfacet
facet normal 0.0 0.0 1.0
outer loop
vertex -4.1569219381653 2.4 0.5
vertex -3.39411254969543 -3.39411254969543 0.5
vertex -3.39411254969543 3.39411254969543 0.5
endloop
endfacet
facet normal 0.0 0.0 1.0
outer loop
vertex -3.39411254969543 3.39411254969543 0.5
vertex -3.39411254969543 -3.39411254969543 0.5
vertex -2.4 -4.15692193816531 0.5
endloop
endfacet
facet normal 0.0 0.0 1.0
outer loop
vertex -3.39411254969543 3.39411254969543 0.5
vertex -2.4 -4.15692193816531 0.5
vertex -2.4 4.15692193816531 0.5
endloop
endfacet
facet normal 0.0 0.0 1.0
outer loop
vertex -2.4 4.15692193816531 0.5
vertex -2.4 -4.15692193816531 0.5
vertex -1.2423314164921 -4.63644396618753 0.5
endloop
endfacet
facet normal 0.0 0.0 1.0
outer loop
vertex -2.4 4.15692193816531 0.5
vertex -1.2423314164921 -4.63644396618753 0.5
vertex -1.2423314164921 4.63644396618753 0.5
endloop
endfacet
facet normal 0.0 0.0 1.0
outer loop
vertex -1.2423314164921 4.63644396618753 0.5
vertex -1.2423314164921 -4.63644396618753 0.5
vertex 9.70217375630266e-015 4.8 0.5
endloop
endfacet
facet normal 0.0 0.0 1.0
outer loop
vertex 9.70217375630266e-015 4.8 0.5
vertex -1.2423314164921 -4.63644396618753 0.5
vertex 1.54379774368957e-015 -4.8 0.5
endloop
endfacet
facet normal 0.0 0.0 1.0
outer loop
vertex 9.70217375630266e-015 4.8 0.5
vertex 1.54379774368957e-015 -4.8 0.5
vertex 1.2423314164921 -4.63644396618753 0.5
endloop
endfacet
facet normal 0.0 0.0 1.0
outer loop
vertex 9.70217375630266e-015 4.8 0.5
vertex 1.2423314164921 -4.63644396618753 0.5
vertex 1.24233141649211 4.63644396618753 0.5
endloop
endfacet
facet normal 0.0 0.0 1.0
outer loop
vertex 1.24233141649211 4.63644396618753 0.5
vertex 1.2423314164921 -4.63644396618753 0.5
vertex 2.4 -4.1569219381653 0.5
endloop
endfacet
facet normal 0.0 0.0 1.0
outer loop
vertex 1.24233141649211 4.63644396618753 0.5
vertex 2.4 -4.1569219381653 0.5
vertex 2.40000000000001 4.1569219381653 0.5
endloop
endfacet
facet normal 0.0 0.0 1.0
outer loop
vertex 2.40000000000001 4.1569219381653 0.5
vertex 2.4 -4.1569219381653 0.5
vertex 3.39411254969543 -3.39411254969543 0.5
endloop
endfacet
facet normal 0.0 0.0 1.0
outer loop
vertex 2.40000000000001 4.1569219381653 0.5
vertex 3.39411254969543 -3.39411254969543 0.5
vertex 3.39411254969543 3.39411254969542 0.5
endloop
endfacet
facet normal 0.0 0.0 1.0
outer loop
vertex 3.39411254969543 3.39411254969542 0.5
vertex 3.39411254969543 -3.39411254969543 0.5
vertex 4.15692193816531 -2.4 0.5
endloop
endfacet
facet normal 0.0 0.0 1.0
outer loop
vertex 3.39411254969543 3.39411254969542 0.5
vertex 4.15692193816531 -2.4 0.5
vertex 4.15692193816531 2.4 0.5
endloop
endfacet
facet normal 0.0 0.0 1.0
outer loop
vertex 4.15692193816531 2.4 0.5
vertex 4.15692193816531 -2.4 0.5
vertex 4.63644396618753 -1.2423314164921 0.5
endloop
endfacet
facet normal 0.0 0.0 1.0
outer loop
vertex 4.15692193816531 2.4 0.5
vertex 4.63644396618753 -1.2423314164921 0.5
vertex 4.63644396618753 1.2423314164921 0.5
endloop
endfacet
facet normal 0.0 0.0 1.0
outer loop
vertex 4.63644396618753 1.2423314164921 0.5
vertex 4.63644396618753 -1.2423314164921 0.5
vertex 4.8 -8.81745695386094e-016 0.5
endloop
endfacet
facet normal 0.965925826289068 -0.258819045102521 -1.95628029837565e-016
outer loop
vertex 4.15348105304299 -1.11292189394084 -1.4
vertex 3.72390923627309 -2.15 -0.5
vertex 3.72390923627308 -2.15000000000001 -1.4
endloop
endfacet
facet normal 0.866025403784439 -0.5 -4.05908379027526e-016
outer loop
vertex 3.72390923627309 -2.15 -0.5
vertex 4.15348105304299 -1.11292189394084 -1.4
vertex 4.15348105304299 -1.11292189394084 -0.5
endloop
endfacet
facet normal 0.866025403784438 -0.500000000000001 -4.05908379027524e-016
outer loop
vertex 3.72390923627308 -2.15000000000001 -1.4
vertex 3.04055915910215 -3.04055915910215 -0.5
vertex 3.04055915910215 -3.04055915910216 -1.4
endloop
endfacet
facet normal 0.707106781186547 -0.707106781186548 -9.52717281594024e-017
outer loop
vertex 3.04055915910215 -3.04055915910215 -0.5
vertex 3.72390923627308 -2.15000000000001 -1.4
vertex 3.72390923627309 -2.15 -0.5
endloop
endfacet
facet normal 0.707106781186547 -0.707106781186548 -9.52717281594024e-017
outer loop
vertex 3.04055915910215 -3.04055915910215 -0.5
vertex 2.15 -3.72390923627309 -1.4
vertex 3.04055915910215 -3.04055915910216 -1.4
endloop
endfacet
facet normal 0.499999999999999 -0.866025403784439 3.79026850995633e-016
outer loop
vertex 2.15 -3.72390923627309 -1.4
vertex 3.04055915910215 -3.04055915910215 -0.5
vertex 2.15 -3.72390923627309 -0.5
endloop
endfacet
facet normal 0.5 -0.866025403784439 3.79026850995631e-016
outer loop
vertex 2.15 -3.72390923627309 -0.5
vertex 1.11292189394084 -4.153481053043 -1.4
vertex 2.15 -3.72390923627309 -1.4
endloop
endfacet
facet normal 0.25881904510252 -0.965925826289069 7.92631525551675e-016
outer loop
vertex 1.11292189394084 -4.153481053043 -1.4
vertex 2.15 -3.72390923627309 -0.5
vertex 1.11292189394084 -4.15348105304299 -0.5
endloop
endfacet
facet normal 0.25881904510252 -0.965925826289068 7.92631525551674e-016
outer loop
vertex 1.11292189394084 -4.15348105304299 -0.5
vertex -2.8199664825479e-015 -4.3 -1.4
vertex 1.11292189394084 -4.153481053043 -1.4
endloop
endfacet
facet normal -6.77244352069165e-016 -1.0 6.34804718240173e-016
outer loop
vertex -2.8199664825479e-015 -4.3 -1.4
vertex 1.11292189394084 -4.15348105304299 -0.5
vertex -1.76247905159244e-015 -4.3 -0.5
endloop
endfacet
facet normal -4.9011104426058e-016 -1.0 6.34804718240174e-016
outer loop
vertex -1.76247905159244e-015 -4.3 -0.5
vertex -1.11292189394084 -4.15348105304299 -1.4
vertex -2.8199664825479e-015 -4.3 -1.4
endloop
endfacet
facet normal -0.258819045102521 -0.965925826289068 5.30206047027363e-017
outer loop
vertex -1.11292189394084 -4.15348105304299 -1.4
vertex -1.76247905159244e-015 -4.3 -0.5
vertex -1.11292189394084 -4.15348105304299 -0.5
endloop
endfacet
facet normal -0.258819045102521 -0.965925826289068 5.30206047027357e-017
outer loop
vertex -1.11292189394084 -4.15348105304299 -0.5
vertex -2.15 -3.72390923627309 -1.4
vertex -1.11292189394084 -4.15348105304299 -1.4
endloop
endfacet
facet normal -0.5 -0.866025403784439 -9.00983299449055e-017
outer loop
vertex -2.15 -3.72390923627309 -1.4
vertex -1.11292189394084 -4.15348105304299 -0.5
vertex -2.15 -3.72390923627309 -0.5
endloop
endfacet
facet normal -0.5 -0.866025403784438 -9.0098329944905e-017
outer loop
vertex -2.15 -3.72390923627309 -0.5
vertex -3.04055915910215 -3.04055915910216 -1.4
vertex -2.15 -3.72390923627309 -1.4
endloop
endfacet
facet normal -0.707106781186547 -0.707106781186548 1.24691644858327e-016
outer loop
vertex -3.04055915910215 -3.04055915910216 -1.4
vertex -2.15 -3.72390923627309 -0.5
vertex -3.04055915910216 -3.04055915910215 -0.5
endloop
endfacet
facet normal -0.707106781186548 -0.707106781186547 1.24691644858327e-016
outer loop
vertex -3.04055915910216 -3.04055915910215 -0.5
vertex -3.72390923627309 -2.15 -1.4
vertex -3.04055915910215 -3.04055915910216 -1.4
endloop
endfacet
facet normal -0.866025403784439 -0.5 2.46590827571816e-016
outer loop
vertex -3.72390923627309 -2.15 -1.4
vertex -3.04055915910216 -3.04055915910215 -0.5
vertex -3.72390923627309 -2.15 -0.5
endloop
endfacet
facet normal -0.866025403784439 -0.5 2.46590827571817e-016
outer loop
vertex -3.72390923627309 -2.15 -0.5
vertex -4.15348105304299 -1.11292189394084 -1.4
vertex -3.72390923627309 -2.15 -1.4
endloop
endfacet
facet normal -0.965925826289068 -0.258819045102521 3.17007627041642e-016
outer loop
vertex -4.15348105304299 -1.11292189394084 -1.4
vertex -3.72390923627309 -2.15 -0.5
vertex -4.15348105304299 -1.11292189394084 -0.5
endloop
endfacet
facet normal -0.965925826289068 -0.25881904510252 3.17007627041642e-016
outer loop
vertex -4.15348105304299 -1.11292189394084 -0.5
vertex -4.3 -3.17246229286638e-015 -1.4
vertex -4.15348105304299 -1.11292189394084 -1.4
endloop
endfacet
facet normal -1.0 -7.57444341129987e-016 5.6844937642993e-017
outer loop
vertex -4.3 -3.17246229286638e-015 -1.4
vertex -4.15348105304299 -1.11292189394084 -0.5
vertex -4.3 1.40998324127395e-015 -0.5
endloop
endfacet
facet normal -1.0 8.01999890608221e-017 5.68449376429915e-017
outer loop
vertex -4.3 1.40998324127395e-015 -0.5
vertex -4.15348105304299 1.11292189394084 -1.4
vertex -4.3 -3.17246229286638e-015 -1.4
endloop
endfacet
facet normal -0.965925826289068 0.25881904510252 1.31938999658596e-016
outer loop
vertex -4.15348105304299 1.11292189394084 -1.4
vertex -4.3 1.40998324127395e-015 -0.5
vertex -4.15348105304299 1.11292189394084 -0.5
endloop
endfacet
facet normal -0.965925826289068 0.258819045102521 1.31938999658597e-016
outer loop
vertex -4.15348105304299 1.11292189394084 -0.5
vertex -3.72390923627309 2.15 -1.4
vertex -4.15348105304299 1.11292189394084 -1.4
endloop
endfacet
facet normal -0.866025403784439 0.5 2.03836471630171e-016
outer loop
vertex -3.72390923627309 2.15 -1.4
vertex -4.15348105304299 1.11292189394084 -0.5
vertex -3.72390923627308 2.15000000000001 -0.5
endloop
endfacet
facet normal -0.866025403784438 0.500000000000002 2.03836471630167e-016
outer loop
vertex -3.72390923627308 2.15000000000001 -0.5
vertex -3.04055915910216 3.04055915910215 -1.4
vertex -3.72390923627309 2.15 -1.4
endloop
endfacet
facet normal -0.707106781186548 0.707106781186548 -4.41296523163654e-017
outer loop
vertex -3.04055915910216 3.04055915910215 -1.4
vertex -3.72390923627308 2.15000000000001 -0.5
vertex -3.04055915910215 3.04055915910216 -0.5
endloop
endfacet
facet normal -0.707106781186546 0.707106781186549 -4.41296523163654e-017
outer loop
vertex -3.04055915910215 3.04055915910216 -0.5
vertex -2.15 3.72390923627309 -1.4
vertex -3.04055915910216 3.04055915910215 -1.4
endloop
endfacet
facet normal -0.5 0.866025403784439 -1.40177930764437e-016
outer loop
vertex -2.15 3.72390923627309 -1.4
vertex -3.04055915910215 3.04055915910216 -0.5
vertex -2.14999999999999 3.72390923627309 -0.5
endloop
endfacet
facet normal -0.499999999999999 0.866025403784439 -1.40177930764438e-016
outer loop
vertex -2.14999999999999 3.72390923627309 -0.5
vertex -1.11292189394084 4.15348105304299 -1.4
vertex -2.15 3.72390923627309 -1.4
endloop
endfacet
facet normal -0.258819045102521 0.965925826289068 -3.61448893771632e-016
outer loop
vertex -1.11292189394084 4.15348105304299 -1.4
vertex -2.14999999999999 3.72390923627309 -0.5
vertex -1.11292189394083 4.153481053043 -0.5
endloop
endfacet
facet normal -0.25881904510252 0.965925826289069 -3.61448893771633e-016
outer loop
vertex -1.11292189394083 4.153481053043 -0.5
vertex 3.52495810318487e-016 4.3 -1.4
vertex -1.11292189394084 4.15348105304299 -1.4
endloop
endfacet
facet normal 4.09911055199758e-016 1.0 -4.55002118303898e-016
outer loop
vertex 3.52495810318487e-016 4.3 -1.4
vertex -1.11292189394083 4.153481053043 -0.5
vertex 4.22994972382185e-015 4.3 -0.5
endloop
endfacet
facet normal 1.12279984685151e-015 1.0 -4.55002118303898e-016
outer loop
vertex 4.22994972382185e-015 4.3 -0.5
vertex 1.11292189394084 4.15348105304299 -1.4
vertex 3.52495810318487e-016 4.3 -1.4
endloop
endfacet
facet normal 0.258819045102521 0.965925826289068 -1.81672181307257e-016
outer loop
vertex 1.11292189394084 4.15348105304299 -1.4
vertex 4.22994972382185e-015 4.3 -0.5
vertex 1.11292189394084 4.15348105304299 -0.5
endloop
endfacet
facet normal 0.258819045102522 0.965925826289068 -1.81672181307256e-016
outer loop
vertex 1.11292189394084 4.15348105304299 -0.5
vertex 2.15 3.72390923627309 -1.4
vertex 1.11292189394084 4.15348105304299 -1.4
endloop
endfacet
facet normal 0.5 0.866025403784439 -6.57900217250507e-017
outer loop
vertex 2.15 3.72390923627309 -1.4
vertex 1.11292189394084 4.15348105304299 -0.5
vertex 2.15 3.72390923627309 -0.5
endloop
endfacet
facet normal 0.5 0.866025403784439 -6.5790021725051e-017
outer loop
vertex 2.15 3.72390923627309 -0.5
vertex 3.04055915910215 3.04055915910215 -1.4
vertex 2.15 3.72390923627309 -1.4
endloop
endfacet
facet normal 0.707106781186548 0.707106781186548 -2.43995304892349e-016
outer loop
vertex 3.04055915910215 3.04055915910215 -1.4
vertex 2.15 3.72390923627309 -0.5
vertex 3.04055915910215 3.04055915910215 -0.5
endloop
endfacet
facet normal 0.707106781186548 0.707106781186548 -2.43995304892349e-016
outer loop
vertex 3.04055915910215 3.04055915910215 -1.4
vertex 3.72390923627309 2.15 -0.5
vertex 3.72390923627309 2.15 -1.4
endloop
endfacet
facet normal 0.866025403784439 0.5 -1.53942050444356e-016
outer loop
vertex 3.72390923627309 2.15 -0.5
vertex 3.04055915910215 3.04055915910215 -1.4
vertex 3.04055915910215 3.04055915910215 -0.5
endloop
endfacet
facet normal 0.866025403784439 0.5 -1.53942050444356e-016
outer loop
vertex 3.72390923627309 2.15 -1.4
vertex 4.15348105304299 1.11292189394084 -0.5
vertex 4.15348105304299 1.11292189394084 -1.4
endloop
endfacet
facet normal 0.965925826289068 0.258819045102521 5.88796225192786e-017
outer loop
vertex 4.15348105304299 1.11292189394084 -0.5
vertex 3.72390923627309 2.15 -1.4
vertex 3.72390923627309 2.15 -0.5
endloop
endfacet
facet normal 0.965925826289068 0.258819045102521 5.88796225192788e-017
outer loop
vertex 4.15348105304299 1.11292189394084 -1.4
vertex 4.3 1.76247905159244e-015 -0.5
vertex 4.3 0.0 -1.4
endloop
endfacet
facet normal 1.0 3.20799956243289e-016 1.45839258177074e-016
outer loop
vertex 4.3 1.76247905159244e-015 -0.5
vertex 4.15348105304299 1.11292189394084 -1.4
vertex 4.15348105304299 1.11292189394084 -0.5
endloop
endfacet
facet normal 1.0 8.9111098956469e-018 1.45839258177074e-016
outer loop
vertex 4.3 0.0 -1.4
vertex 4.15348105304299 -1.11292189394084 -0.5
vertex 4.15348105304299 -1.11292189394084 -1.4
endloop
endfacet
facet normal 0.965925826289068 -0.258819045102521 -1.95628029837565e-016
outer loop
vertex 4.15348105304299 -1.11292189394084 -0.5
vertex 4.3 0.0 -1.4
vertex 4.3 1.76247905159244e-015 -0.5
endloop
endfacet
facet normal 0.0 0.0 -1.0
outer loop
vertex -4.63644396618753 1.2423314164921 -2.4
vertex -4.63644396618753 -1.2423314164921 -2.4
vertex -4.8 -3.52495810318487e-015 -2.4
endloop
endfacet
facet normal 0.0 0.0 -1.0
outer loop
vertex -4.63644396618753 -1.2423314164921 -2.4
vertex -4.63644396618753 1.2423314164921 -2.4
vertex -4.15692193816531 2.4 -2.4
endloop
endfacet
facet normal 0.0 0.0 -1.0
outer loop
vertex -4.63644396618753 -1.2423314164921 -2.4
vertex -4.15692193816531 2.4 -2.4
vertex -4.1569219381653 -2.4 -2.4
endloop
endfacet
facet normal 0.0 0.0 -1.0
outer loop
vertex -4.1569219381653 -2.4 -2.4
vertex -4.15692193816531 2.4 -2.4
vertex -3.39411254969543 3.39411254969543 -2.4
endloop
endfacet
facet normal 0.0 0.0 -1.0
outer loop
vertex -4.1569219381653 -2.4 -2.4
vertex -3.39411254969543 3.39411254969543 -2.4
vertex -3.39411254969543 -3.39411254969543 -2.4
endloop
endfacet
facet normal 0.0 0.0 -1.0
outer loop
vertex -3.39411254969543 -3.39411254969543 -2.4
vertex -3.39411254969543 3.39411254969543 -2.4
vertex -2.4 4.1569219381653 -2.4
endloop
endfacet
facet normal 0.0 0.0 -1.0
outer loop
vertex -3.39411254969543 -3.39411254969543 -2.4
vertex -2.4 4.1569219381653 -2.4
vertex -2.4 -4.1569219381653 -2.4
endloop
endfacet
facet normal 0.0 0.0 -1.0
outer loop
vertex -2.4 -4.1569219381653 -2.4
vertex -2.4 4.1569219381653 -2.4
vertex -1.2423314164921 4.63644396618753 -2.4
endloop
endfacet
facet normal 0.0 0.0 -1.0
outer loop
vertex -2.4 -4.1569219381653 -2.4
vertex -1.2423314164921 4.63644396618753 -2.4
vertex -1.2423314164921 -4.63644396618753 -2.4
endloop
endfacet
facet normal 0.0 0.0 -1.0
outer loop
vertex -1.2423314164921 -4.63644396618753 -2.4
vertex -1.2423314164921 4.63644396618753 -2.4
vertex -3.52495810318487e-015 -4.8 -2.4
endloop
endfacet
facet normal 0.0 0.0 -1.0
outer loop
vertex -3.52495810318487e-015 -4.8 -2.4
vertex -1.2423314164921 4.63644396618753 -2.4
vertex 7.04991620636974e-016 4.8 -2.4
endloop
endfacet
facet normal 0.0 0.0 -1.0
outer loop
vertex -3.52495810318487e-015 -4.8 -2.4
vertex 7.04991620636974e-016 4.8 -2.4
vertex 1.2423314164921 -4.63644396618753 -2.4
endloop
endfacet
facet normal 0.0 0.0 -1.0
outer loop
vertex 1.2423314164921 -4.63644396618753 -2.4
vertex 7.04991620636974e-016 4.8 -2.4
vertex 1.2423314164921 4.63644396618753 -2.4
endloop
endfacet
facet normal 0.0 0.0 -1.0
outer loop
vertex 1.2423314164921 -4.63644396618753 -2.4
vertex 1.2423314164921 4.63644396618753 -2.4
vertex 2.39999999999999 -4.15692193816531 -2.4
endloop
endfacet
facet normal 0.0 0.0 -1.0
outer loop
vertex 2.39999999999999 -4.15692193816531 -2.4
vertex 1.2423314164921 4.63644396618753 -2.4
vertex 2.4 4.1569219381653 -2.4
endloop
endfacet
facet normal 0.0 0.0 -1.0
outer loop
vertex 2.39999999999999 -4.15692193816531 -2.4
vertex 2.4 4.1569219381653 -2.4
vertex 3.39411254969542 -3.39411254969543 -2.4
endloop
endfacet
facet normal 0.0 0.0 -1.0
outer loop
vertex 3.39411254969542 -3.39411254969543 -2.4
vertex 2.4 4.1569219381653 -2.4
vertex 3.39411254969543 3.39411254969543 -2.4
endloop
endfacet
facet normal 0.0 0.0 -1.0
outer loop
vertex 3.39411254969542 -3.39411254969543 -2.4
vertex 3.39411254969543 3.39411254969543 -2.4
vertex 4.1569219381653 -2.40000000000001 -2.4
endloop
endfacet
facet normal 0.0 0.0 -1.0
outer loop
vertex 4.1569219381653 -2.40000000000001 -2.4
vertex 3.39411254969543 3.39411254969543 -2.4
vertex 4.15692193816531 2.4 -2.4
endloop
endfacet
facet normal 0.0 0.0 -1.0
outer loop
vertex 4.1569219381653 -2.40000000000001 -2.4
vertex 4.15692193816531 2.4 -2.4
vertex 4.63644396618753 -1.2423314164921 -2.4
endloop
endfacet
facet normal 0.0 0.0 -1.0
outer loop
vertex 4.63644396618753 -1.2423314164921 -2.4
vertex 4.15692193816531 2.4 -2.4
vertex 4.63644396618753 1.2423314164921 -2.4
endloop
endfacet
facet normal 0.0 0.0 -1.0
outer loop
vertex 4.63644396618753 -1.2423314164921 -2.4
vertex 4.63644396618753 1.2423314164921 -2.4
vertex 4.8 0.0 -2.4
endloop
endfacet
facet normal 0.185695338177052 -0.321633760451339 0.928476690885259
outer loop
vertex 2.39999999999999 -4.15692193816531 -1.6
vertex 3.04055915910215 -3.04055915910216 -1.4
vertex 2.15 -3.72390923627309 -1.4
endloop
endfacet
facet normal 0.262612865719445 -0.262612865719446 0.928476690885259
outer loop
vertex 3.04055915910215 -3.04055915910216 -1.4
vertex 2.39999999999999 -4.15692193816531 -1.6
vertex 3.39411254969542 -3.39411254969543 -1.6
endloop
endfacet
facet normal 0.262612865719445 -0.262612865719446 0.928476690885259
outer loop
vertex 3.39411254969542 -3.39411254969543 -1.6
vertex 3.72390923627308 -2.15000000000001 -1.4
vertex 3.04055915910215 -3.04055915910216 -1.4
endloop
endfacet
facet normal 0.321633760451338 -0.185695338177052 0.928476690885259
outer loop
vertex 3.72390923627308 -2.15000000000001 -1.4
vertex 3.39411254969542 -3.39411254969543 -1.6
vertex 4.1569219381653 -2.40000000000001 -1.6
endloop
endfacet
facet normal 0.321633760451338 -0.185695338177053 0.928476690885259
outer loop
vertex 4.1569219381653 -2.40000000000001 -1.6
vertex 4.15348105304299 -1.11292189394084 -1.4
vertex 3.72390923627308 -2.15000000000001 -1.4
endloop
endfacet
facet normal 0.358735845933393 -0.0961229802139487 0.92847669088526
outer loop
vertex 4.15348105304299 -1.11292189394084 -1.4
vertex 4.1569219381653 -2.40000000000001 -1.6
vertex 4.63644396618753 -1.2423314164921 -1.6
endloop
endfacet
facet normal 0.358735845933393 -0.0961229802139486 0.928476690885259
outer loop
vertex 4.63644396618753 -1.2423314164921 -1.6
vertex 4.3 0.0 -1.4
vertex 4.15348105304299 -1.11292189394084 -1.4
endloop
endfacet
facet normal 0.371390676354103 -4.10520760924744e-018 0.92847669088526
outer loop
vertex 4.3 0.0 -1.4
vertex 4.63644396618753 -1.2423314164921 -1.6
vertex 4.8 0.0 -1.6
endloop
endfacet
facet normal 0.371390676354103 -4.10520760924744e-018 0.92847669088526
outer loop
vertex 4.3 0.0 -1.4
vertex 4.63644396618753 1.2423314164921 -1.6
vertex 4.15348105304299 1.11292189394084 -1.4
endloop
endfacet
facet normal 0.358735845933393 0.0961229802139483 0.928476690885259
outer loop
vertex 4.63644396618753 1.2423314164921 -1.6
vertex 4.3 0.0 -1.4
vertex 4.8 0.0 -1.6
endloop
endfacet
facet normal 0.358735845933393 0.0961229802139484 0.928476690885259
outer loop
vertex 4.15348105304299 1.11292189394084 -1.4
vertex 4.15692193816531 2.4 -1.6
vertex 3.72390923627309 2.15 -1.4
endloop
endfacet
facet normal 0.321633760451338 0.185695338177052 0.928476690885259
outer loop
vertex 4.15692193816531 2.4 -1.6
vertex 4.15348105304299 1.11292189394084 -1.4
vertex 4.63644396618753 1.2423314164921 -1.6
endloop
endfacet
facet normal 0.321633760451338 0.185695338177052 0.928476690885259
outer loop
vertex 3.72390923627309 2.15 -1.4
vertex 3.39411254969543 3.39411254969543 -1.6
vertex 3.04055915910215 3.04055915910215 -1.4
endloop
endfacet
facet normal 0.262612865719445 0.262612865719445 0.928476690885259
outer loop
vertex 3.39411254969543 3.39411254969543 -1.6
vertex 3.72390923627309 2.15 -1.4
vertex 4.15692193816531 2.4 -1.6
endloop
endfacet
facet normal 0.262612865719445 0.262612865719445 0.928476690885259
outer loop
vertex 3.04055915910215 3.04055915910215 -1.4
vertex 2.4 4.1569219381653 -1.6
vertex 2.15 3.72390923627309 -1.4
endloop
endfacet
facet normal 0.185695338177052 0.321633760451339 0.928476690885259
outer loop
vertex 2.4 4.1569219381653 -1.6
vertex 3.04055915910215 3.04055915910215 -1.4
vertex 3.39411254969543 3.39411254969543 -1.6
endloop
endfacet
facet normal 0.185695338177052 0.321633760451339 0.928476690885259
outer loop
vertex 2.15 3.72390923627309 -1.4
vertex 1.2423314164921 4.63644396618753 -1.6
vertex 1.11292189394084 4.15348105304299 -1.4
endloop
endfacet
facet normal 0.0961229802139486 0.358735845933394 0.928476690885259
outer loop
vertex 1.2423314164921 4.63644396618753 -1.6
vertex 2.15 3.72390923627309 -1.4
vertex 2.4 4.1569219381653 -1.6
endloop
endfacet
facet normal 0.0961229802139486 0.358735845933394 0.928476690885259
outer loop
vertex 1.11292189394084 4.15348105304299 -1.4
vertex 7.04991620636974e-016 4.8 -1.6
vertex 3.52495810318487e-016 4.3 -1.4
endloop
endfacet
facet normal 1.29423184235106e-016 0.371390676354104 0.928476690885259
outer loop
vertex 7.04991620636974e-016 4.8 -1.6
vertex 1.11292189394084 4.15348105304299 -1.4
vertex 1.2423314164921 4.63644396618753 -1.6
endloop
endfacet
facet normal -0.0961229802139485 0.358735845933394 0.928476690885259
outer loop
vertex -1.11292189394084 4.15348105304299 -1.4
vertex 7.04991620636974e-016 4.8 -1.6
vertex -1.2423314164921 4.63644396618753 -1.6
endloop
endfacet
facet normal 1.29423184235106e-016 0.371390676354104 0.928476690885259
outer loop
vertex 7.04991620636974e-016 4.8 -1.6
vertex -1.11292189394084 4.15348105304299 -1.4
vertex 3.52495810318487e-016 4.3 -1.4
endloop
endfacet
facet normal -0.185695338177052 0.321633760451339 0.928476690885259
outer loop
vertex -2.15 3.72390923627309 -1.4
vertex -1.2423314164921 4.63644396618753 -1.6
vertex -2.4 4.1569219381653 -1.6
endloop
endfacet
facet normal -0.0961229802139485 0.358735845933394 0.928476690885259
outer loop
vertex -1.2423314164921 4.63644396618753 -1.6
vertex -2.15 3.72390923627309 -1.4
vertex -1.11292189394084 4.15348105304299 -1.4
endloop
endfacet
facet normal -0.262612865719446 0.262612865719445 0.928476690885259
outer loop
vertex -3.04055915910216 3.04055915910215 -1.4
vertex -2.4 4.1569219381653 -1.6
vertex -3.39411254969543 3.39411254969543 -1.6
endloop
endfacet
facet normal -0.185695338177052 0.321633760451339 0.928476690885259
outer loop
vertex -2.4 4.1569219381653 -1.6
vertex -3.04055915910216 3.04055915910215 -1.4
vertex -2.15 3.72390923627309 -1.4
endloop
endfacet
facet normal -0.321633760451339 0.185695338177052 0.928476690885259
outer loop
vertex -3.72390923627309 2.15 -1.4
vertex -3.39411254969543 3.39411254969543 -1.6
vertex -4.15692193816531 2.4 -1.6
endloop
endfacet
facet normal -0.262612865719446 0.262612865719446 0.928476690885259
outer loop
vertex -3.39411254969543 3.39411254969543 -1.6
vertex -3.72390923627309 2.15 -1.4
vertex -3.04055915910216 3.04055915910215 -1.4
endloop
endfacet
facet normal -0.358735845933394 0.0961229802139484 0.928476690885259
outer loop
vertex -4.15348105304299 1.11292189394084 -1.4
vertex -4.15692193816531 2.4 -1.6
vertex -4.63644396618753 1.2423314164921 -1.6
endloop
endfacet
facet normal -0.321633760451339 0.185695338177052 0.928476690885259
outer loop
vertex -4.15692193816531 2.4 -1.6
vertex -4.15348105304299 1.11292189394084 -1.4
vertex -3.72390923627309 2.15 -1.4
endloop
endfacet
facet normal -0.371390676354104 -2.38102041336351e-016 0.928476690885259
outer loop
vertex -4.3 -3.17246229286638e-015 -1.4
vertex -4.63644396618753 1.2423314164921 -1.6
vertex -4.8 -3.52495810318487e-015 -1.6
endloop
endfacet
facet normal -0.358735845933394 0.0961229802139485 0.928476690885259
outer loop
vertex -4.63644396618753 1.2423314164921 -1.6
vertex -4.3 -3.17246229286638e-015 -1.4
vertex -4.15348105304299 1.11292189394084 -1.4
endloop
endfacet
facet normal -0.358735845933394 -0.096122980213949 0.928476690885259
outer loop
vertex -4.63644396618753 -1.2423314164921 -1.6
vertex -4.3 -3.17246229286638e-015 -1.4
vertex -4.8 -3.52495810318487e-015 -1.6
endloop
endfacet
facet normal -0.371390676354104 -2.38102041336351e-016 0.928476690885259
outer loop
vertex -4.3 -3.17246229286638e-015 -1.4
vertex -4.63644396618753 -1.2423314164921 -1.6
vertex -4.15348105304299 -1.11292189394084 -1.4
endloop
endfacet
facet normal -0.321633760451339 -0.185695338177053 0.928476690885259
outer loop
vertex -4.1569219381653 -2.4 -1.6
vertex -4.15348105304299 -1.11292189394084 -1.4
vertex -4.63644396618753 -1.2423314164921 -1.6
endloop
endfacet
facet normal -0.358735845933394 -0.096122980213949 0.928476690885259
outer loop
vertex -4.15348105304299 -1.11292189394084 -1.4
vertex -4.1569219381653 -2.4 -1.6
vertex -3.72390923627309 -2.15 -1.4
endloop
endfacet
facet normal -0.262612865719446 -0.262612865719446 0.928476690885259
outer loop
vertex -3.39411254969543 -3.39411254969543 -1.6
vertex -3.72390923627309 -2.15 -1.4
vertex -4.1569219381653 -2.4 -1.6
endloop
endfacet
facet normal -0.321633760451339 -0.185695338177053 0.928476690885259
outer loop
vertex -3.72390923627309 -2.15 -1.4
vertex -3.39411254969543 -3.39411254969543 -1.6
vertex -3.04055915910215 -3.04055915910216 -1.4
endloop
endfacet
facet normal -0.185695338177052 -0.321633760451339 0.928476690885259
outer loop
vertex -2.4 -4.1569219381653 -1.6
vertex -3.04055915910215 -3.04055915910216 -1.4
vertex -3.39411254969543 -3.39411254969543 -1.6
endloop
endfacet
facet normal -0.262612865719446 -0.262612865719446 0.928476690885259
outer loop
vertex -3.04055915910215 -3.04055915910216 -1.4
vertex -2.4 -4.1569219381653 -1.6
vertex -2.15 -3.72390923627309 -1.4
endloop
endfacet
facet normal -0.0961229802139488 -0.358735845933394 0.928476690885259
outer loop
vertex -1.2423314164921 -4.63644396618753 -1.6
vertex -2.15 -3.72390923627309 -1.4
vertex -2.4 -4.1569219381653 -1.6
endloop
endfacet
facet normal -0.185695338177052 -0.321633760451339 0.928476690885259
outer loop
vertex -2.15 -3.72390923627309 -1.4
vertex -1.2423314164921 -4.63644396618753 -1.6
vertex -1.11292189394084 -4.15348105304299 -1.4
endloop
endfacet
facet normal -3.45128491293615e-016 -0.371390676354104 0.928476690885259
outer loop
vertex -3.52495810318487e-015 -4.8 -1.6
vertex -1.11292189394084 -4.15348105304299 -1.4
vertex -1.2423314164921 -4.63644396618753 -1.6
endloop
endfacet
facet normal -0.0961229802139488 -0.358735845933394 0.928476690885259
outer loop
vertex -1.11292189394084 -4.15348105304299 -1.4
vertex -3.52495810318487e-015 -4.8 -1.6
vertex -2.8199664825479e-015 -4.3 -1.4
endloop
endfacet
facet normal 0.0961229802139482 -0.358735845933394 0.928476690885259
outer loop
vertex 1.2423314164921 -4.63644396618753 -1.6
vertex -2.8199664825479e-015 -4.3 -1.4
vertex -3.52495810318487e-015 -4.8 -1.6
endloop
endfacet
facet normal -3.202061935213e-016 -0.371390676354104 0.928476690885259
outer loop
vertex -2.8199664825479e-015 -4.3 -1.4
vertex 1.2423314164921 -4.63644396618753 -1.6
vertex 1.11292189394084 -4.153481053043 -1.4
endloop
endfacet
facet normal 0.0961229802139482 -0.358735845933394 0.928476690885259
outer loop
vertex 1.2423314164921 -4.63644396618753 -1.6
vertex 2.15 -3.72390923627309 -1.4
vertex 1.11292189394084 -4.153481053043 -1.4
endloop
endfacet
facet normal 0.185695338177052 -0.321633760451339 0.928476690885259
outer loop
vertex 2.15 -3.72390923627309 -1.4
vertex 1.2423314164921 -4.63644396618753 -1.6
vertex 2.39999999999999 -4.15692193816531 -1.6
endloop
endfacet
facet normal 0.866025403784438 -0.500000000000002 -2.16423016809227e-016
outer loop
vertex 4.1569219381653 -2.40000000000001 -2.4
vertex 3.39411254969542 -3.39411254969543 -1.6
vertex 3.39411254969542 -3.39411254969543 -2.4
endloop
endfacet
facet normal 0.707106781186546 -0.707106781186549 -6.71083087691369e-017
outer loop
vertex 3.39411254969542 -3.39411254969543 -1.6
vertex 4.1569219381653 -2.40000000000001 -2.4
vertex 4.1569219381653 -2.40000000000001 -1.6
endloop
endfacet
facet normal 0.707106781186546 -0.707106781186549 -6.71083087691369e-017
outer loop
vertex 3.39411254969542 -3.39411254969543 -1.6
vertex 2.39999999999999 -4.15692193816531 -2.4
vertex 3.39411254969542 -3.39411254969543 -2.4
endloop
endfacet
facet normal 0.499999999999999 -0.866025403784439 -1.09294355250117e-016
outer loop
vertex 2.39999999999999 -4.15692193816531 -2.4
vertex 3.39411254969542 -3.39411254969543 -1.6
vertex 2.39999999999999 -4.15692193816531 -1.6
endloop
endfacet
facet normal 1.0 1.78222197912938e-017 -8.81185739204068e-016
outer loop
vertex 4.8 0.0 -2.4
vertex 4.63644396618753 -1.2423314164921 -1.6
vertex 4.63644396618753 -1.2423314164921 -2.4
endloop
endfacet
facet normal 0.965925826289068 -0.258819045102521 -6.57015886411261e-016
outer loop
vertex 4.63644396618753 -1.2423314164921 -1.6
vertex 4.8 0.0 -2.4
vertex 4.8 0.0 -1.6
endloop
endfacet
facet normal 0.707106781186547 0.707106781186548 -2.4202281020194e-016
outer loop
vertex 3.39411254969543 3.39411254969543 -2.4
vertex 4.15692193816531 2.4 -1.6
vertex 4.15692193816531 2.4 -2.4
endloop
endfacet
facet normal 0.866025403784438 0.5 -5.82299003661936e-016
outer loop
vertex 4.15692193816531 2.4 -1.6
vertex 3.39411254969543 3.39411254969543 -2.4
vertex 3.39411254969543 3.39411254969543 -1.6
endloop
endfacet
facet normal -0.965925826289068 -0.258819045102522 1.06998153093297e-015
outer loop
vertex -4.63644396618753 -1.2423314164921 -1.6
vertex -4.1569219381653 -2.4 -2.4
vertex -4.1569219381653 -2.4 -1.6
endloop
endfacet
facet normal -0.866025403784438 -0.500000000000001 9.32128006527541e-016
outer loop
vertex -4.1569219381653 -2.4 -2.4
vertex -4.63644396618753 -1.2423314164921 -1.6
vertex -4.63644396618753 -1.2423314164921 -2.4
endloop
endfacet
facet normal 2.5842218697376e-016 1.0 1.4388874840882e-017
outer loop
vertex 7.04991620636974e-016 4.8 -1.6
vertex 1.2423314164921 4.63644396618753 -2.4
vertex 7.04991620636974e-016 4.8 -2.4
endloop
endfacet
facet normal 0.258819045102521 0.965925826289068 -4.21860464809799e-017
outer loop
vertex 1.2423314164921 4.63644396618753 -2.4
vertex 7.04991620636974e-016 4.8 -1.6
vertex 1.2423314164921 4.63644396618753 -1.6
endloop
endfacet
facet normal -0.258819045102521 0.965925826289068 9.87609678028417e-017
outer loop
vertex -1.2423314164921 4.63644396618753 -1.6
vertex 7.04991620636974e-016 4.8 -2.4
vertex -1.2423314164921 4.63644396618753 -2.4
endloop
endfacet
facet normal 2.5842218697376e-016 1.0 1.4388874840882e-017
outer loop
vertex 7.04991620636974e-016 4.8 -2.4
vertex -1.2423314164921 4.63644396618753 -1.6
vertex 7.04991620636974e-016 4.8 -1.6
endloop
endfacet
facet normal 0.258819045102521 0.965925826289068 -4.21860464809799e-017
outer loop
vertex 1.2423314164921 4.63644396618753 -1.6
vertex 2.4 4.1569219381653 -2.4
vertex 1.2423314164921 4.63644396618753 -2.4
endloop
endfacet
facet normal 0.5 0.866025403784439 -1.09294355250117e-016
outer loop
vertex 2.4 4.1569219381653 -2.4
vertex 1.2423314164921 4.63644396618753 -1.6
vertex 2.4 4.1569219381653 -1.6
endloop
endfacet
facet normal -0.965925826289068 0.25881904510252 1.0665660823314e-015
outer loop
vertex -4.63644396618753 1.2423314164921 -1.6
vertex -4.8 -3.52495810318487e-015 -2.4
vertex -4.8 -3.52495810318487e-015 -1.6
endloop
endfacet
facet normal -1.0 -6.14866582799637e-016 1.3217786088061e-015
outer loop
vertex -4.8 -3.52495810318487e-015 -2.4
vertex -4.63644396618753 1.2423314164921 -1.6
vertex -4.63644396618753 1.2423314164921 -2.4
endloop
endfacet
facet normal 0.965925826289068 0.258819045102521 -8.47977371831167e-016
outer loop
vertex 4.63644396618753 1.2423314164921 -2.4
vertex 4.8 0.0 -1.6
vertex 4.8 0.0 -2.4
endloop
endfacet
facet normal 1.0 1.78222197912938e-017 -8.81185739204068e-016
outer loop
vertex 4.8 0.0 -1.6
vertex 4.63644396618753 1.2423314164921 -2.4
vertex 4.63644396618753 1.2423314164921 -1.6
endloop
endfacet
facet normal -0.258819045102521 -0.965925826289068 1.83133060764802e-016
outer loop
vertex -1.2423314164921 -4.63644396618753 -1.6
vertex -2.4 -4.1569219381653 -2.4
vertex -1.2423314164921 -4.63644396618753 -2.4
endloop
endfacet
facet normal -0.5 -0.866025403784439 6.38502347307879e-016
outer loop
vertex -2.4 -4.1569219381653 -2.4
vertex -1.2423314164921 -4.63644396618753 -1.6
vertex -2.4 -4.1569219381653 -1.6
endloop
endfacet
facet normal -1.0 -6.14866582799636e-016 1.3217786088061e-015
outer loop
vertex -4.8 -3.52495810318487e-015 -1.6
vertex -4.63644396618753 -1.2423314164921 -2.4
vertex -4.63644396618753 -1.2423314164921 -1.6
endloop
endfacet
facet normal -0.965925826289068 -0.258819045102522 1.06998153093297e-015
outer loop
vertex -4.63644396618753 -1.2423314164921 -2.4
vertex -4.8 -3.52495810318487e-015 -1.6
vertex -4.8 -3.52495810318487e-015 -2.4
endloop
endfacet
facet normal 0.866025403784438 0.5 -5.82299003661936e-016
outer loop
vertex 4.15692193816531 2.4 -2.4
vertex 4.63644396618753 1.2423314164921 -1.6
vertex 4.63644396618753 1.2423314164921 -2.4
endloop
endfacet
facet normal 0.965925826289068 0.258819045102521 -8.47977371831167e-016
outer loop
vertex 4.63644396618753 1.2423314164921 -1.6
vertex 4.15692193816531 2.4 -2.4
vertex 4.15692193816531 2.4 -1.6
endloop
endfacet
facet normal 0.965925826289068 -0.258819045102521 -6.57015886411261e-016
outer loop
vertex 4.63644396618753 -1.2423314164921 -2.4
vertex 4.1569219381653 -2.40000000000001 -1.6
vertex 4.1569219381653 -2.40000000000001 -2.4
endloop
endfacet
facet normal 0.866025403784438 -0.500000000000002 -2.16423016809227e-016
outer loop
vertex 4.1569219381653 -2.40000000000001 -1.6
vertex 4.63644396618753 -1.2423314164921 -2.4
vertex 4.63644396618753 -1.2423314164921 -1.6
endloop
endfacet
facet normal -0.707106781186548 0.707106781186547 8.60285048144094e-016
outer loop
vertex -3.39411254969543 3.39411254969543 -1.6
vertex -4.15692193816531 2.4 -2.4
vertex -4.15692193816531 2.4 -1.6
endloop
endfacet
facet normal -0.866025403784439 0.5 9.32128006527542e-016
outer loop
vertex -4.15692193816531 2.4 -2.4
vertex -3.39411254969543 3.39411254969543 -1.6
vertex -3.39411254969543 3.39411254969543 -2.4
endloop
endfacet
facet normal -0.5 0.866025403784439 4.19913636807645e-016
outer loop
vertex -2.4 4.1569219381653 -1.6
vertex -1.2423314164921 4.63644396618753 -2.4
vertex -2.4 4.1569219381653 -2.4
endloop
endfacet
facet normal -0.258819045102521 0.965925826289068 9.87609678028418e-017
outer loop
vertex -1.2423314164921 4.63644396618753 -2.4
vertex -2.4 4.1569219381653 -1.6
vertex -1.2423314164921 4.63644396618753 -1.6
endloop
endfacet
facet normal 0.25881904510252 -0.965925826289069 -4.21860464809798e-017
outer loop
vertex 1.2423314164921 -4.63644396618753 -1.6
vertex -3.52495810318487e-015 -4.8 -2.4
vertex 1.2423314164921 -4.63644396618753 -2.4
endloop
endfacet
facet normal -8.6437765987775e-016 -1.0 1.43888748408821e-017
outer loop
vertex -3.52495810318487e-015 -4.8 -2.4
vertex 1.2423314164921 -4.63644396618753 -1.6
vertex -3.52495810318487e-015 -4.8 -1.6
endloop
endfacet
facet normal -0.707106781186548 0.707106781186547 8.60285048144094e-016
outer loop
vertex -3.39411254969543 3.39411254969543 -1.6
vertex -2.4 4.1569219381653 -2.4
vertex -3.39411254969543 3.39411254969543 -2.4
endloop
endfacet
facet normal -0.5 0.866025403784438 4.19913636807645e-016
outer loop
vertex -2.4 4.1569219381653 -2.4
vertex -3.39411254969543 3.39411254969543 -1.6
vertex -2.4 4.1569219381653 -1.6
endloop
endfacet
facet normal 0.499999999999999 -0.866025403784439 -1.09294355250117e-016
outer loop
vertex 2.39999999999999 -4.15692193816531 -1.6
vertex 1.2423314164921 -4.63644396618753 -2.4
vertex 2.39999999999999 -4.15692193816531 -2.4
endloop
endfacet
facet normal 0.25881904510252 -0.965925826289069 -4.21860464809798e-017
outer loop
vertex 1.2423314164921 -4.63644396618753 -2.4
vertex 2.39999999999999 -4.15692193816531 -1.6
vertex 1.2423314164921 -4.63644396618753 -1.6
endloop
endfacet
facet normal -8.6437765987775e-016 -1.0 1.43888748408821e-017
outer loop
vertex -3.52495810318487e-015 -4.8 -1.6
vertex -1.2423314164921 -4.63644396618753 -2.4
vertex -3.52495810318487e-015 -4.8 -2.4
endloop
endfacet
facet normal -0.258819045102521 -0.965925826289068 1.83133060764802e-016
outer loop
vertex -1.2423314164921 -4.63644396618753 -2.4
vertex -3.52495810318487e-015 -4.8 -1.6
vertex -1.2423314164921 -4.63644396618753 -1.6
endloop
endfacet
facet normal -0.5 -0.866025403784439 6.38502347307879e-016
outer loop
vertex -2.4 -4.1569219381653 -1.6
vertex -3.39411254969543 -3.39411254969543 -2.4
vertex -2.4 -4.1569219381653 -2.4
endloop
endfacet
facet normal -0.707106781186547 -0.707106781186547 9.94501665682368e-016
outer loop
vertex -3.39411254969543 -3.39411254969543 -2.4
vertex -2.4 -4.1569219381653 -1.6
vertex -3.39411254969543 -3.39411254969543 -1.6
endloop
endfacet
facet normal -0.866025403784439 0.5 9.32128006527542e-016
outer loop
vertex -4.15692193816531 2.4 -1.6
vertex -4.63644396618753 1.2423314164921 -2.4
vertex -4.63644396618753 1.2423314164921 -1.6
endloop
endfacet
facet normal -0.965925826289068 0.25881904510252 1.0665660823314e-015
outer loop
vertex -4.63644396618753 1.2423314164921 -2.4
vertex -4.15692193816531 2.4 -1.6
vertex -4.15692193816531 2.4 -2.4
endloop
endfacet
facet normal -0.866025403784438 -0.500000000000001 9.32128006527541e-016
outer loop
vertex -4.1569219381653 -2.4 -1.6
vertex -3.39411254969543 -3.39411254969543 -2.4
vertex -3.39411254969543 -3.39411254969543 -1.6
endloop
endfacet
facet normal -0.707106781186547 -0.707106781186547 9.94501665682368e-016
outer loop
vertex -3.39411254969543 -3.39411254969543 -2.4
vertex -4.1569219381653 -2.4 -1.6
vertex -4.1569219381653 -2.4 -2.4
endloop
endfacet
facet normal 0.5 0.866025403784438 -1.09294355250117e-016
outer loop
vertex 2.4 4.1569219381653 -1.6
vertex 3.39411254969543 3.39411254969543 -2.4
vertex 2.4 4.1569219381653 -2.4
endloop
endfacet
facet normal 0.707106781186547 0.707106781186548 -2.4202281020194e-016
outer loop
vertex 3.39411254969543 3.39411254969543 -2.4
vertex 2.4 4.1569219381653 -1.6
vertex 3.39411254969543 3.39411254969543 -1.6
endloop
endfacet
facet normal -0.5 -0.866025403784439 4.47195215764769e-016
outer loop
vertex -2.4 -4.15692193816531 0.5
vertex -3.39411254969543 -3.39411254969543 0.0
vertex -2.4 -4.15692193816531 0.0
endloop
endfacet
facet normal -0.707106781186548 -0.707106781186547 -1.35359614259868e-016
outer loop
vertex -3.39411254969543 -3.39411254969543 0.0
vertex -2.4 -4.15692193816531 0.5
vertex -3.39411254969543 -3.39411254969543 0.5
endloop
endfacet
facet normal -0.866025403784439 -0.5 -6.33757124305039e-016
outer loop
vertex -4.15692193816531 -2.4 0.5
vertex -3.39411254969543 -3.39411254969543 0.0
vertex -3.39411254969543 -3.39411254969543 0.5
endloop
endfacet
facet normal -0.707106781186548 -0.707106781186547 -1.35359614259868e-016
outer loop
vertex -3.39411254969543 -3.39411254969543 0.0
vertex -4.15692193816531 -2.4 0.5
vertex -4.1569219381653 -2.4 0.0
endloop
endfacet
facet normal -0.707106781186547 0.707106781186548 -3.87236496323104e-016
outer loop
vertex -3.39411254969543 3.39411254969543 0.5
vertex -4.1569219381653 2.4 0.0
vertex -4.1569219381653 2.4 0.5
endloop
endfacet
facet normal -0.866025403784439 0.5 -3.42202981872472e-016
outer loop
vertex -4.1569219381653 2.4 0.0
vertex -3.39411254969543 3.39411254969543 0.5
vertex -3.39411254969543 3.39411254969543 0.0
endloop
endfacet
facet normal 1.0 0.0 0.0
outer loop
vertex 4.8 -8.81745695386094e-016 0.0
vertex 4.63644396618753 -1.2423314164921 0.5
vertex 4.63644396618753 -1.2423314164921 0.0
endloop
endfacet
facet normal 0.965925826289068 -0.258819045102521 0.0
outer loop
vertex 4.63644396618753 -1.2423314164921 0.5
vertex 4.8 -8.81745695386094e-016 0.0
vertex 4.8 -8.81745695386094e-016 0.5
endloop
endfacet
facet normal -0.25881904510252 0.965925826289068 -3.93405276152875e-016
outer loop
vertex -1.2423314164921 4.63644396618753 0.5
vertex 9.6936347837584e-015 4.8 0.0
vertex -1.2423314164921 4.63644396618753 0.0
endloop
endfacet
facet normal 1.58617756142515e-015 1.0 -3.58485485220383e-016
outer loop
vertex 9.6936347837584e-015 4.8 0.0
vertex -1.2423314164921 4.63644396618753 0.5
vertex 9.70217375630266e-015 4.8 0.5
endloop
endfacet
facet normal -0.707106781186547 0.707106781186548 -3.87236496323104e-016
outer loop
vertex -3.39411254969543 3.39411254969543 0.5
vertex -2.4 4.1569219381653 0.0
vertex -3.39411254969543 3.39411254969543 0.0
endloop
endfacet
facet normal -0.5 0.866025403784439 -7.80641772475978e-016
outer loop
vertex -2.4 4.1569219381653 0.0
vertex -3.39411254969543 3.39411254969543 0.5
vertex -2.4 4.15692193816531 0.5
endloop
endfacet
facet normal 0.707106781186548 0.707106781186547 -3.87236496323103e-016
outer loop
vertex 3.39411254969543 3.39411254969542 0.0
vertex 4.15692193816531 2.4 0.5
vertex 4.15692193816531 2.4 0.0
endloop
endfacet
facet normal 0.866025403784439 0.499999999999999 -2.14746588061238e-016
outer loop
vertex 4.15692193816531 2.4 0.5
vertex 3.39411254969543 3.39411254969542 0.0
vertex 3.39411254969543 3.39411254969542 0.5
endloop
endfacet
facet normal 0.500000000000001 0.866025403784438 -4.30899835675603e-016
outer loop
vertex 2.40000000000001 4.1569219381653 0.5
vertex 3.39411254969543 3.39411254969542 0.0
vertex 2.40000000000001 4.1569219381653 0.0
endloop
endfacet
facet normal 0.707106781186548 0.707106781186547 -3.87236496323103e-016
outer loop
vertex 3.39411254969543 3.39411254969542 0.0
vertex 2.40000000000001 4.1569219381653 0.5
vertex 3.39411254969543 3.39411254969542 0.5
endloop
endfacet
facet normal 0.707106781186548 -0.707106781186547 7.74472992646206e-016
outer loop
vertex 3.39411254969543 -3.39411254969543 0.5
vertex 2.4 -4.1569219381653 0.0
vertex 3.39411254969543 -3.39411254969543 0.0
endloop
endfacet
facet normal 0.5 -0.866025403784438 1.21154160815158e-015
outer loop
vertex 2.4 -4.1569219381653 0.0
vertex 3.39411254969543 -3.39411254969543 0.5
vertex 2.4 -4.1569219381653 0.5
endloop
endfacet
facet normal 0.866025403784439 -0.5 2.14746588061238e-016
outer loop
vertex 4.15692193816531 -2.4 0.0
vertex 3.39411254969543 -3.39411254969543 0.5
vertex 3.39411254969543 -3.39411254969543 0.0
endloop
endfacet
facet normal 0.707106781186548 -0.707106781186547 7.74472992646206e-016
outer loop
vertex 3.39411254969543 -3.39411254969543 0.5
vertex 4.15692193816531 -2.4 0.0
vertex 4.15692193816531 -2.4 0.5
endloop
endfacet
facet normal 0.258819045102521 -0.965925826289068 1.00155714036699e-015
outer loop
vertex 1.2423314164921 -4.63644396618753 0.5
vertex 1.58623114643319e-015 -4.8 0.0
vertex 1.2423314164921 -4.63644396618753 0.0
endloop
endfacet
facet normal 1.33666648434704e-016 -1.0 3.49741936800374e-016
outer loop
vertex 1.58623114643319e-015 -4.8 0.0
vertex 1.2423314164921 -4.63644396618753 0.5
vertex 1.54379774368957e-015 -4.8 0.5
endloop
endfacet
facet normal 1.1584442864341e-016 -1.0 3.49741936800374e-016
outer loop
vertex 1.54379774368957e-015 -4.8 0.5
vertex -1.2423314164921 -4.63644396618753 0.0
vertex 1.58623114643319e-015 -4.8 0.0
endloop
endfacet
facet normal -0.258819045102521 -0.965925826289068 2.74705307502904e-016
outer loop
vertex -1.2423314164921 -4.63644396618753 0.0
vertex 1.54379774368957e-015 -4.8 0.5
vertex -1.2423314164921 -4.63644396618753 0.5
endloop
endfacet
facet normal -0.5 0.866025403784439 -7.80641772475978e-016
outer loop
vertex -2.4 4.15692193816531 0.5
vertex -1.2423314164921 4.63644396618753 0.0
vertex -2.4 4.1569219381653 0.0
endloop
endfacet
facet normal -0.25881904510252 0.965925826289068 -3.93405276152875e-016
outer loop
vertex -1.2423314164921 4.63644396618753 0.0
vertex -2.4 4.15692193816531 0.5
vertex -1.2423314164921 4.63644396618753 0.5
endloop
endfacet
facet normal 1.44245611350532e-015 0.707106781186548 -0.707106781186547
outer loop
vertex 9.6936347837584e-015 4.8 0.0
vertex 1.11292189394084 4.15348105304299 -0.5
vertex 4.22994972382185e-015 4.3 -0.5
endloop
endfacet
facet normal 0.18301270189222 0.68301270189222 -0.707106781186547
outer loop
vertex 1.11292189394084 4.15348105304299 -0.5
vertex 9.6936347837584e-015 4.8 0.0
vertex 1.24233141649211 4.63644396618753 0.0
endloop
endfacet
facet normal 0.183012701892221 0.683012701892219 -0.707106781186547
outer loop
vertex 1.24233141649211 4.63644396618753 0.0
vertex 2.15 3.72390923627309 -0.5
vertex 1.11292189394084 4.15348105304299 -0.5
endloop
endfacet
facet normal 0.353553390593274 0.612372435695794 -0.707106781186548
outer loop
vertex 2.15 3.72390923627309 -0.5
vertex 1.24233141649211 4.63644396618753 0.0
vertex 2.40000000000001 4.1569219381653 0.0
endloop
endfacet
facet normal 0.500000000000001 0.5 -0.707106781186547
outer loop
vertex 3.39411254969543 3.39411254969542 0.0
vertex 3.72390923627309 2.15 -0.5
vertex 3.04055915910215 3.04055915910215 -0.5
endloop
endfacet
facet normal 0.612372435695795 0.353553390593274 -0.707106781186547
outer loop
vertex 3.72390923627309 2.15 -0.5
vertex 3.39411254969543 3.39411254969542 0.0
vertex 4.15692193816531 2.4 0.0
endloop
endfacet
facet normal 0.612372435695795 0.353553390593273 -0.707106781186547
outer loop
vertex 4.15692193816531 2.4 0.0
vertex 4.15348105304299 1.11292189394084 -0.5
vertex 3.72390923627309 2.15 -0.5
endloop
endfacet
facet normal 0.68301270189222 0.18301270189222 -0.707106781186547
outer loop
vertex 4.15348105304299 1.11292189394084 -0.5
vertex 4.15692193816531 2.4 0.0
vertex 4.63644396618753 1.2423314164921 0.0
endloop
endfacet
facet normal 0.500000000000001 -0.866025403784438 1.21154160815158e-015
outer loop
vertex 2.4 -4.1569219381653 0.5
vertex 1.2423314164921 -4.63644396618753 0.0
vertex 2.4 -4.1569219381653 0.0
endloop
endfacet
facet normal 0.258819045102521 -0.965925826289068 1.00155714036699e-015
outer loop
vertex 1.2423314164921 -4.63644396618753 0.0
vertex 2.4 -4.1569219381653 0.5
vertex 1.2423314164921 -4.63644396618753 0.5
endloop
endfacet
facet normal 0.707106781186548 3.60339384821987e-016 -0.707106781186547
outer loop
vertex 4.3 1.76247905159244e-015 -0.5
vertex 4.63644396618753 1.2423314164921 0.0
vertex 4.8 -8.81745695386094e-016 0.0
endloop
endfacet
facet normal 0.68301270189222 0.183012701892219 -0.707106781186547
outer loop
vertex 4.63644396618753 1.2423314164921 0.0
vertex 4.3 1.76247905159244e-015 -0.5
vertex 4.15348105304299 1.11292189394084 -0.5
endloop
endfacet
facet normal -0.612372435695795 0.353553390593274 -0.707106781186547
outer loop
vertex -4.1569219381653 2.4 0.0
vertex -4.15348105304299 1.11292189394084 -0.5
vertex -4.63644396618753 1.2423314164921 0.0
endloop
endfacet
facet normal -0.68301270189222 0.18301270189222 -0.707106781186547
outer loop
vertex -4.15348105304299 1.11292189394084 -0.5
vertex -4.1569219381653 2.4 0.0
vertex -3.72390923627308 2.15000000000001 -0.5
endloop
endfacet
facet normal -0.353553390593274 0.612372435695795 -0.707106781186547
outer loop
vertex -2.4 4.1569219381653 0.0
vertex -3.04055915910215 3.04055915910216 -0.5
vertex -3.39411254969543 3.39411254969543 0.0
endloop
endfacet
facet normal -0.499999999999999 0.500000000000001 -0.707106781186547
outer loop
vertex -3.04055915910215 3.04055915910216 -0.5
vertex -2.4 4.1569219381653 0.0
vertex -2.14999999999999 3.72390923627309 -0.5
endloop
endfacet
facet normal -0.5 0.5 -0.707106781186547
outer loop
vertex -3.39411254969543 3.39411254969543 0.0
vertex -3.72390923627308 2.15000000000001 -0.5
vertex -4.1569219381653 2.4 0.0
endloop
endfacet
facet normal -0.612372435695794 0.353553390593275 -0.707106781186547
outer loop
vertex -3.72390923627308 2.15000000000001 -0.5
vertex -3.39411254969543 3.39411254969543 0.0
vertex -3.04055915910215 3.04055915910216 -0.5
endloop
endfacet
facet normal 0.353553390593275 0.612372435695794 -0.707106781186548
outer loop
vertex 2.40000000000001 4.1569219381653 0.0
vertex 3.04055915910215 3.04055915910215 -0.5
vertex 2.15 3.72390923627309 -0.5
endloop
endfacet
facet normal 0.5 0.5 -0.707106781186547
outer loop
vertex 3.04055915910215 3.04055915910215 -0.5
vertex 2.40000000000001 4.1569219381653 0.0
vertex 3.39411254969543 3.39411254969542 0.0
endloop
endfacet
facet normal -0.183012701892219 0.68301270189222 -0.707106781186547
outer loop
vertex -1.2423314164921 4.63644396618753 0.0
vertex -2.14999999999999 3.72390923627309 -0.5
vertex -2.4 4.1569219381653 0.0
endloop
endfacet
facet normal -0.353553390593273 0.612372435695796 -0.707106781186547
outer loop
vertex -2.14999999999999 3.72390923627309 -0.5
vertex -1.2423314164921 4.63644396618753 0.0
vertex -1.11292189394083 4.153481053043 -0.5
endloop
endfacet
facet normal -0.183012701892219 0.68301270189222 -0.707106781186547
outer loop
vertex -1.2423314164921 4.63644396618753 0.0
vertex 4.22994972382185e-015 4.3 -0.5
vertex -1.11292189394083 4.153481053043 -0.5
endloop
endfacet
facet normal 6.53638884095698e-016 0.707106781186548 -0.707106781186547
outer loop
vertex 4.22994972382185e-015 4.3 -0.5
vertex -1.2423314164921 4.63644396618753 0.0
vertex 9.6936347837584e-015 4.8 0.0
endloop
endfacet
facet normal 0.68301270189222 -0.183012701892219 -0.707106781186547
outer loop
vertex 4.15348105304299 -1.11292189394084 -0.5
vertex 4.15692193816531 -2.4 0.0
vertex 3.72390923627309 -2.15 -0.5
endloop
endfacet
facet normal 0.612372435695795 -0.353553390593274 -0.707106781186547
outer loop
vertex 4.15692193816531 -2.4 0.0
vertex 4.15348105304299 -1.11292189394084 -0.5
vertex 4.63644396618753 -1.2423314164921 0.0
endloop
endfacet
facet normal 0.183012701892219 -0.683012701892219 -0.707106781186548
outer loop
vertex 1.11292189394084 -4.15348105304299 -0.5
vertex 1.58623114643319e-015 -4.8 0.0
vertex -1.76247905159244e-015 -4.3 -0.5
endloop
endfacet
facet normal 2.07411990177236e-016 -0.707106781186548 -0.707106781186548
outer loop
vertex 1.58623114643319e-015 -4.8 0.0
vertex 1.11292189394084 -4.15348105304299 -0.5
vertex 1.2423314164921 -4.63644396618753 0.0
endloop
endfacet
facet normal 0.68301270189222 -0.183012701892219 -0.707106781186547
outer loop
vertex 4.15348105304299 -1.11292189394084 -0.5
vertex 4.8 -8.81745695386094e-016 0.0
vertex 4.63644396618753 -1.2423314164921 0.0
endloop
endfacet
facet normal 0.707106781186548 -1.03705995088618e-016 -0.707106781186547
outer loop
vertex 4.8 -8.81745695386094e-016 0.0
vertex 4.15348105304299 -1.11292189394084 -0.5
vertex 4.3 1.76247905159244e-015 -0.5
endloop
endfacet
facet normal 0.353553390593274 -0.612372435695794 -0.707106781186548
outer loop
vertex 2.15 -3.72390923627309 -0.5
vertex 1.2423314164921 -4.63644396618753 0.0
vertex 1.11292189394084 -4.15348105304299 -0.5
endloop
endfacet
facet normal 0.183012701892219 -0.683012701892219 -0.707106781186548
outer loop
vertex 1.2423314164921 -4.63644396618753 0.0
vertex 2.15 -3.72390923627309 -0.5
vertex 2.4 -4.1569219381653 0.0
endloop
endfacet
facet normal 0.5 -0.5 -0.707106781186547
outer loop
vertex 3.04055915910215 -3.04055915910215 -0.5
vertex 2.4 -4.1569219381653 0.0
vertex 2.15 -3.72390923627309 -0.5
endloop
endfacet
facet normal 0.353553390593274 -0.612372435695794 -0.707106781186548
outer loop
vertex 2.4 -4.1569219381653 0.0
vertex 3.04055915910215 -3.04055915910215 -0.5
vertex 3.39411254969543 -3.39411254969543 0.0
endloop
endfacet
facet normal -0.353553390593274 -0.612372435695794 -0.707106781186547
outer loop
vertex -2.15 -3.72390923627309 -0.5
vertex -1.2423314164921 -4.63644396618753 0.0
vertex -2.4 -4.15692193816531 0.0
endloop
endfacet
facet normal -0.183012701892219 -0.68301270189222 -0.707106781186547
outer loop
vertex -1.2423314164921 -4.63644396618753 0.0
vertex -2.15 -3.72390923627309 -0.5
vertex -1.11292189394084 -4.15348105304299 -0.5
endloop
endfacet
facet normal -0.500000000000001 -0.5 -0.707106781186547
outer loop
vertex -3.04055915910216 -3.04055915910215 -0.5
vertex -2.4 -4.15692193816531 0.0
vertex -3.39411254969543 -3.39411254969543 0.0
endloop
endfacet
facet normal -0.353553390593274 -0.612372435695795 -0.707106781186548
outer loop
vertex -2.4 -4.15692193816531 0.0
vertex -3.04055915910216 -3.04055915910215 -0.5
vertex -2.15 -3.72390923627309 -0.5
endloop
endfacet
facet normal 2.07411990177236e-016 -0.707106781186548 -0.707106781186548
outer loop
vertex 1.58623114643319e-015 -4.8 0.0
vertex -1.11292189394084 -4.15348105304299 -0.5
vertex -1.76247905159244e-015 -4.3 -0.5
endloop
endfacet
facet normal -0.18301270189222 -0.683012701892219 -0.707106781186547
outer loop
vertex -1.11292189394084 -4.15348105304299 -0.5
vertex 1.58623114643319e-015 -4.8 0.0
vertex -1.2423314164921 -4.63644396618753 0.0
endloop
endfacet
facet normal 0.612372435695795 -0.353553390593274 -0.707106781186547
outer loop
vertex 3.72390923627309 -2.15 -0.5
vertex 3.39411254969543 -3.39411254969543 0.0
vertex 3.04055915910215 -3.04055915910215 -0.5
endloop
endfacet
facet normal 0.5 -0.5 -0.707106781186547
outer loop
vertex 3.39411254969543 -3.39411254969543 0.0
vertex 3.72390923627309 -2.15 -0.5
vertex 4.15692193816531 -2.4 0.0
endloop
endfacet
facet normal 0.965925826289068 0.25881904510252 0.0
outer loop
vertex 4.63644396618753 1.2423314164921 0.0
vertex 4.8 -8.81745695386094e-016 0.5
vertex 4.8 -8.81745695386094e-016 0.0
endloop
endfacet
facet normal 1.0 0.0 0.0
outer loop
vertex 4.8 -8.81745695386094e-016 0.5
vertex 4.63644396618753 1.2423314164921 0.0
vertex 4.63644396618753 1.2423314164921 0.5
endloop
endfacet
facet normal -0.965925826289068 0.258819045102521 -6.91944918672846e-016
outer loop
vertex -4.63644396618753 1.2423314164921 0.5
vertex -4.8 1.35972933543552e-015 0.0
vertex -4.8 1.35972933543552e-015 0.5
endloop
endfacet
facet normal -1.0 4.00999945304111e-016 -3.49741936800374e-016
outer loop
vertex -4.8 1.35972933543552e-015 0.0
vertex -4.63644396618753 1.2423314164921 0.5
vertex -4.63644396618753 1.2423314164921 0.0
endloop
endfacet
facet normal -0.866025403784439 0.5 -3.42202981872472e-016
outer loop
vertex -4.1569219381653 2.4 0.5
vertex -4.63644396618753 1.2423314164921 0.0
vertex -4.63644396618753 1.2423314164921 0.5
endloop
endfacet
facet normal -0.965925826289068 0.258819045102521 -6.91944918672846e-016
outer loop
vertex -4.63644396618753 1.2423314164921 0.0
vertex -4.1569219381653 2.4 0.5
vertex -4.1569219381653 2.4 0.0
endloop
endfacet
facet normal 1.58617756142515e-015 1.0 -3.58485485220383e-016
outer loop
vertex 9.70217375630266e-015 4.8 0.5
vertex 1.24233141649211 4.63644396618753 0.0
vertex 9.6936347837584e-015 4.8 0.0
endloop
endfacet
facet normal 0.258819045102522 0.965925826289068 -6.16895412634122e-016
outer loop
vertex 1.24233141649211 4.63644396618753 0.0
vertex 9.70217375630266e-015 4.8 0.5
vertex 1.24233141649211 4.63644396618753 0.5
endloop
endfacet
facet normal -0.68301270189222 -0.183012701892219 -0.707106781186547
outer loop
vertex -4.15348105304299 -1.11292189394084 -0.5
vertex -4.1569219381653 -2.4 0.0
vertex -4.63644396618753 -1.2423314164921 0.0
endloop
endfacet
facet normal -0.612372435695795 -0.353553390593274 -0.707106781186547
outer loop
vertex -4.1569219381653 -2.4 0.0
vertex -4.15348105304299 -1.11292189394084 -0.5
vertex -3.72390923627309 -2.15 -0.5
endloop
endfacet
facet normal -0.68301270189222 0.18301270189222 -0.707106781186547
outer loop
vertex -4.63644396618753 1.2423314164921 0.0
vertex -4.3 1.40998324127395e-015 -0.5
vertex -4.8 1.35972933543552e-015 0.0
endloop
endfacet
facet normal -0.707106781186548 2.76539527886641e-016 -0.707106781186547
outer loop
vertex -4.3 1.40998324127395e-015 -0.5
vertex -4.63644396618753 1.2423314164921 0.0
vertex -4.15348105304299 1.11292189394084 -0.5
endloop
endfacet
facet normal -0.707106781186548 2.45123261118551e-016 -0.707106781186547
outer loop
vertex -4.8 1.35972933543552e-015 0.0
vertex -4.15348105304299 -1.11292189394084 -0.5
vertex -4.63644396618753 -1.2423314164921 0.0
endloop
endfacet
facet normal -0.68301270189222 -0.183012701892219 -0.707106781186547
outer loop
vertex -4.15348105304299 -1.11292189394084 -0.5
vertex -4.8 1.35972933543552e-015 0.0
vertex -4.3 1.40998324127395e-015 -0.5
endloop
endfacet
facet normal -0.258819045102521 -0.965925826289068 2.74705307502904e-016
outer loop
vertex -1.2423314164921 -4.63644396618753 0.5
vertex -2.4 -4.15692193816531 0.0
vertex -1.2423314164921 -4.63644396618753 0.0
endloop
endfacet
facet normal -0.5 -0.866025403784439 4.4719521576477e-016
outer loop
vertex -2.4 -4.15692193816531 0.0
vertex -1.2423314164921 -4.63644396618753 0.5
vertex -2.4 -4.15692193816531 0.5
endloop
endfacet
facet normal -0.612372435695795 -0.353553390593274 -0.707106781186547
outer loop
vertex -3.72390923627309 -2.15 -0.5
vertex -3.39411254969543 -3.39411254969543 0.0
vertex -4.1569219381653 -2.4 0.0
endloop
endfacet
facet normal -0.5 -0.5 -0.707106781186547
outer loop
vertex -3.39411254969543 -3.39411254969543 0.0
vertex -3.72390923627309 -2.15 -0.5
vertex -3.04055915910216 -3.04055915910215 -0.5
endloop
endfacet
facet normal -1.0 4.00999945304111e-016 -3.49741936800374e-016
outer loop
vertex -4.8 1.35972933543552e-015 0.5
vertex -4.63644396618753 -1.2423314164921 0.0
vertex -4.63644396618753 -1.2423314164921 0.5
endloop
endfacet
facet normal -0.965925826289068 -0.258819045102521 -3.25907601783307e-016
outer loop
vertex -4.63644396618753 -1.2423314164921 0.0
vertex -4.8 1.35972933543552e-015 0.5
vertex -4.8 1.35972933543552e-015 0.0
endloop
endfacet
facet normal 0.866025403784439 0.499999999999999 -2.14746588061238e-016
outer loop
vertex 4.15692193816531 2.4 0.0
vertex 4.63644396618753 1.2423314164921 0.5
vertex 4.63644396618753 1.2423314164921 0.0
endloop
endfacet
facet normal 0.965925826289068 0.25881904510252 0.0
outer loop
vertex 4.63644396618753 1.2423314164921 0.5
vertex 4.15692193816531 2.4 0.0
vertex 4.15692193816531 2.4 0.5
endloop
endfacet
facet normal -0.965925826289068 -0.258819045102521 -3.25907601783307e-016
outer loop
vertex -4.63644396618753 -1.2423314164921 0.5
vertex -4.1569219381653 -2.4 0.0
vertex -4.15692193816531 -2.4 0.5
endloop
endfacet
facet normal -0.866025403784439 -0.5 -6.3375712430504e-016
outer loop
vertex -4.1569219381653 -2.4 0.0
vertex -4.63644396618753 -1.2423314164921 0.5
vertex -4.63644396618753 -1.2423314164921 0.0
endloop
endfacet
facet normal 0.258819045102522 0.965925826289068 -6.16895412634122e-016
outer loop
vertex 1.24233141649211 4.63644396618753 0.5
vertex 2.40000000000001 4.1569219381653 0.0
vertex 1.24233141649211 4.63644396618753 0.0
endloop
endfacet
facet normal 0.500000000000001 0.866025403784438 -4.30899835675603e-016
outer loop
vertex 2.40000000000001 4.1569219381653 0.0
vertex 1.24233141649211 4.63644396618753 0.5
vertex 2.40000000000001 4.1569219381653 0.5
endloop
endfacet
facet normal 0.965925826289068 -0.258819045102521 0.0
outer loop
vertex 4.63644396618753 -1.2423314164921 0.0
vertex 4.15692193816531 -2.4 0.5
vertex 4.15692193816531 -2.4 0.0
endloop
endfacet
facet normal 0.866025403784439 -0.5 2.14746588061238e-016
outer loop
vertex 4.15692193816531 -2.4 0.5
vertex 4.63644396618753 -1.2423314164921 0.0
vertex 4.63644396618753 -1.2423314164921 0.5
endloop
endfacet
endsolid tonearm-rest
