solid motor-pulley-cap
facet normal 0.965925826289068 0.258819045102521 -2.17166471590813e-019
outer loop
vertex -2.41481456572267 -0.647047612756302 0.0
vertex -2.1650635094611 -1.25 5.0
vertex -2.1650635094611 -1.25 0.0
endloop
endfacet
facet normal 0.866025403784439 0.5 1.01563258896466e-018
outer loop
vertex -2.1650635094611 -1.25 5.0
vertex -2.41481456572267 -0.647047612756302 0.0
vertex -2.41481456572267 -0.647047612756302 5.0
endloop
endfacet
facet normal 0.866025403784439 0.5 1.01563258896466e-018
outer loop
vertex -2.1650635094611 -1.25 0.0
vertex -1.76776695296637 -1.76776695296637 5.0
vertex -1.76776695296637 -1.76776695296637 0.0
endloop
endfacet
facet normal 0.707106781186548 0.707106781186547 1.87372498220856e-018
outer loop
vertex -1.76776695296637 -1.76776695296637 5.0
vertex -2.1650635094611 -1.25 0.0
vertex -2.1650635094611 -1.25 5.0
endloop
endfacet
facet normal 0.707106781186548 0.707106781186547 1.87372498220856e-018
outer loop
vertex -1.76776695296637 -1.76776695296637 5.0
vertex -1.25 -2.1650635094611 0.0
vertex -1.76776695296637 -1.76776695296637 0.0
endloop
endfacet
facet normal 0.5 0.866025403784439 2.04889092893247e-019
outer loop
vertex -1.25 -2.1650635094611 0.0
vertex -1.76776695296637 -1.76776695296637 5.0
vertex -1.25 -2.1650635094611 5.0
endloop
endfacet
facet normal 0.5 0.866025403784439 2.04889092893247e-019
outer loop
vertex -1.25 -2.1650635094611 5.0
vertex -0.647047612756303 -2.41481456572267 0.0
vertex -1.25 -2.1650635094611 0.0
endloop
endfacet
facet normal 0.258819045102521 0.965925826289068 -3.24639088056241e-019
outer loop
vertex -0.647047612756303 -2.41481456572267 0.0
vertex -1.25 -2.1650635094611 5.0
vertex -0.647047612756303 -2.41481456572267 5.0
endloop
endfacet
facet normal 0.258819045102521 0.965925826289068 -3.24639088056241e-019
outer loop
vertex -0.647047612756303 -2.41481456572267 5.0
vertex -3.06161699786838e-016 -2.5 0.0
vertex -0.647047612756303 -2.41481456572267 0.0
endloop
endfacet
facet normal 1.69311088017291e-016 1.0 1.11397740703602e-019
outer loop
vertex -3.06161699786838e-016 -2.5 0.0
vertex -0.647047612756303 -2.41481456572267 5.0
vertex -3.06161699786838e-016 -2.5 5.0
endloop
endfacet
facet normal 1.69311088017291e-016 1.0 1.11397740703602e-019
outer loop
vertex -3.06161699786838e-016 -2.5 5.0
vertex 0.647047612756301 -2.41481456572267 0.0
vertex -3.06161699786838e-016 -2.5 0.0
endloop
endfacet
facet normal -0.25881904510252 0.965925826289068 -2.17166471590814e-019
outer loop
vertex 0.647047612756301 -2.41481456572267 0.0
vertex -3.06161699786838e-016 -2.5 5.0
vertex 0.647047612756301 -2.41481456572267 5.0
endloop
endfacet
facet normal -0.25881904510252 0.965925826289068 -2.17166471590814e-019
outer loop
vertex 0.647047612756301 -2.41481456572267 5.0
vertex 1.25 -2.1650635094611 0.0
vertex 0.647047612756301 -2.41481456572267 0.0
endloop
endfacet
facet normal -0.5 0.866025403784439 -8.58092393243906e-019
outer loop
vertex 1.25 -2.1650635094611 0.0
vertex 0.647047612756301 -2.41481456572267 5.0
vertex 1.25 -2.1650635094611 5.0
endloop
endfacet
facet normal -0.5 0.866025403784439 -8.58092393243906e-019
outer loop
vertex 1.25 -2.1650635094611 5.0
vertex 1.76776695296637 -1.76776695296637 0.0
vertex 1.25 -2.1650635094611 0.0
endloop
endfacet
facet normal -0.707106781186547 0.707106781186548 1.57540195720753e-019
outer loop
vertex 1.76776695296637 -1.76776695296637 0.0
vertex 1.25 -2.1650635094611 5.0
vertex 1.76776695296637 -1.76776695296637 5.0
endloop
endfacet
facet normal -0.866025403784438 0.500000000000001 1.34223423913998e-018
outer loop
vertex 2.1650635094611 -1.25 5.0
vertex 1.76776695296637 -1.76776695296637 0.0
vertex 1.76776695296637 -1.76776695296637 5.0
endloop
endfacet
facet normal -0.707106781186547 0.707106781186548 1.57540195720753e-019
outer loop
vertex 1.76776695296637 -1.76776695296637 0.0
vertex 2.1650635094611 -1.25 5.0
vertex 2.1650635094611 -1.25 0.0
endloop
endfacet
facet normal -0.965925826289068 0.258819045102521 -1.96256211909109e-021
outer loop
vertex 2.41481456572267 -0.647047612756304 5.0
vertex 2.1650635094611 -1.25 0.0
vertex 2.1650635094611 -1.25 5.0
endloop
endfacet
facet normal -0.866025403784438 0.500000000000001 1.34223423913998e-018
outer loop
vertex 2.1650635094611 -1.25 0.0
vertex 2.41481456572267 -0.647047612756304 5.0
vertex 2.41481456572267 -0.647047612756304 0.0
endloop
endfacet
facet normal -1.0 3.11888846347642e-016 -4.34332943181629e-019
outer loop
vertex 2.5 -4.59242549680257e-016 5.0
vertex 2.41481456572267 -0.647047612756304 0.0
vertex 2.41481456572267 -0.647047612756304 5.0
endloop
endfacet
facet normal -0.965925826289068 0.258819045102521 -1.96256211909109e-021
outer loop
vertex 2.41481456572267 -0.647047612756304 0.0
vertex 2.5 -4.59242549680257e-016 5.0
vertex 2.5 -4.59242549680257e-016 0.0
endloop
endfacet
facet normal -0.965925826289068 -0.25881904510252 2.88474335786142e-019
outer loop
vertex 2.41481456572267 0.647047612756301 5.0
vertex 2.5 -4.59242549680257e-016 0.0
vertex 2.5 -4.59242549680257e-016 5.0
endloop
endfacet
facet normal -1.0 3.11888846347642e-016 -4.34332943181629e-019
outer loop
vertex 2.5 -4.59242549680257e-016 0.0
vertex 2.41481456572267 0.647047612756301 5.0
vertex 2.41481456572267 0.647047612756301 0.0
endloop
endfacet
facet normal -0.866025403784439 -0.5 7.32787262994905e-019
outer loop
vertex 2.1650635094611 1.25 5.0
vertex 2.41481456572267 0.647047612756301 0.0
vertex 2.41481456572267 0.647047612756301 5.0
endloop
endfacet
facet normal -0.965925826289068 -0.25881904510252 2.88474335786142e-019
outer loop
vertex 2.41481456572267 0.647047612756301 0.0
vertex 2.1650635094611 1.25 5.0
vertex 2.1650635094611 1.25 0.0
endloop
endfacet
facet normal -0.707106781186548 -0.707106781186547 6.77088392643102e-019
outer loop
vertex 1.76776695296637 1.76776695296637 5.0
vertex 2.1650635094611 1.25 0.0
vertex 2.1650635094611 1.25 5.0
endloop
endfacet
facet normal -0.866025403784439 -0.5 7.32787262994905e-019
outer loop
vertex 2.1650635094611 1.25 0.0
vertex 1.76776695296637 1.76776695296637 5.0
vertex 1.76776695296637 1.76776695296637 0.0
endloop
endfacet
facet normal -0.707106781186548 -0.707106781186547 6.77088392643102e-019
outer loop
vertex 1.76776695296637 1.76776695296637 5.0
vertex 1.25 2.1650635094611 0.0
vertex 1.76776695296637 1.76776695296637 0.0
endloop
endfacet
facet normal -0.500000000000001 -0.866025403784438 1.19425461462183e-020
outer loop
vertex 1.25 2.1650635094611 0.0
vertex 1.76776695296637 1.76776695296637 5.0
vertex 1.25 2.1650635094611 5.0
endloop
endfacet
facet normal -0.500000000000001 -0.866025403784438 1.19425461462183e-020
outer loop
vertex 1.25 2.1650635094611 5.0
vertex 0.647047612756304 2.41481456572267 0.0
vertex 1.25 2.1650635094611 0.0
endloop
endfacet
facet normal -0.258819045102521 -0.965925826289068 -5.43768121766146e-019
outer loop
vertex 0.647047612756304 2.41481456572267 0.0
vertex 1.25 2.1650635094611 5.0
vertex 0.647047612756304 2.41481456572267 5.0
endloop
endfacet
facet normal -0.258819045102521 -0.965925826289068 -5.43768121766146e-019
outer loop
vertex 0.647047612756304 2.41481456572267 5.0
vertex 0.0 2.5 0.0
vertex 0.647047612756304 2.41481456572267 0.0
endloop
endfacet
facet normal -3.56444395825876e-017 -1.0 -4.34332943181627e-019
outer loop
vertex 0.0 2.5 0.0
vertex 0.647047612756304 2.41481456572267 5.0
vertex 0.0 2.5 5.0
endloop
endfacet
facet normal -3.56444395825876e-017 -1.0 -4.34332943181627e-019
outer loop
vertex 0.0 2.5 5.0
vertex -0.647047612756302 2.41481456572267 0.0
vertex 0.0 2.5 0.0
endloop
endfacet
facet normal 0.258819045102521 -0.965925826289068 -2.17166471590812e-019
outer loop
vertex -0.647047612756302 2.41481456572267 0.0
vertex 0.0 2.5 5.0
vertex -0.647047612756302 2.41481456572267 5.0
endloop
endfacet
facet normal 0.258819045102521 -0.965925826289068 -2.17166471590812e-019
outer loop
vertex -0.647047612756302 2.41481456572267 5.0
vertex -1.25 2.1650635094611 0.0
vertex -0.647047612756302 2.41481456572267 0.0
endloop
endfacet
facet normal 0.5 -0.866025403784439 1.01563258896466e-018
outer loop
vertex -1.25 2.1650635094611 0.0
vertex -0.647047612756302 2.41481456572267 5.0
vertex -1.25 2.1650635094611 5.0
endloop
endfacet
facet normal 0.5 -0.866025403784439 1.01563258896466e-018
outer loop
vertex -1.25 2.1650635094611 5.0
vertex -1.76776695296637 1.76776695296637 0.0
vertex -1.25 2.1650635094611 0.0
endloop
endfacet
facet normal 0.707106781186547 -0.707106781186548 5.19548196922352e-019
outer loop
vertex -1.76776695296637 1.76776695296637 0.0
vertex -1.25 2.1650635094611 5.0
vertex -1.76776695296637 1.76776695296637 5.0
endloop
endfacet
facet normal 0.707106781186547 -0.707106781186548 5.19548196922352e-019
outer loop
vertex -1.76776695296637 1.76776695296637 0.0
vertex -2.1650635094611 1.25 5.0
vertex -2.1650635094611 1.25 0.0
endloop
endfacet
facet normal 0.866025403784439 -0.5 -4.96084392042309e-019
outer loop
vertex -2.1650635094611 1.25 5.0
vertex -1.76776695296637 1.76776695296637 0.0
vertex -1.76776695296637 1.76776695296637 5.0
endloop
endfacet
facet normal 0.866025403784439 -0.5 -4.96084392042309e-019
outer loop
vertex -2.1650635094611 1.25 0.0
vertex -2.41481456572267 0.647047612756302 5.0
vertex -2.41481456572267 0.647047612756302 0.0
endloop
endfacet
facet normal 0.965925826289068 -0.258819045102521 -2.28424491223599e-019
outer loop
vertex -2.41481456572267 0.647047612756302 5.0
vertex -2.1650635094611 1.25 0.0
vertex -2.1650635094611 1.25 5.0
endloop
endfacet
facet normal 0.965925826289068 -0.258819045102521 -2.28424491223599e-019
outer loop
vertex -2.41481456572267 0.647047612756302 0.0
vertex -2.5 1.53080849893419e-016 5.0
vertex -2.5 1.53080849893419e-016 0.0
endloop
endfacet
facet normal 1.0 8.01999890608221e-017 -4.45590962814411e-019
outer loop
vertex -2.5 1.53080849893419e-016 5.0
vertex -2.41481456572267 0.647047612756302 0.0
vertex -2.41481456572267 0.647047612756302 5.0
endloop
endfacet
facet normal 1.0 8.01999890608221e-017 -4.45590962814411e-019
outer loop
vertex -2.5 1.53080849893419e-016 0.0
vertex -2.41481456572267 -0.647047612756302 5.0
vertex -2.41481456572267 -0.647047612756302 0.0
endloop
endfacet
facet normal 0.965925826289068 0.258819045102521 -2.17166471590813e-019
outer loop
vertex -2.41481456572267 -0.647047612756302 5.0
vertex -2.5 1.53080849893419e-016 0.0
vertex -2.5 1.53080849893419e-016 5.0
endloop
endfacet
facet normal -0.0 -0.0 1.0
outer loop
vertex -2.41481456572267 -0.647047612756302 0.0
vertex -2.41481456572267 0.647047612756302 0.0
vertex -2.5 1.53080849893419e-016 0.0
endloop
endfacet
facet normal -0.0 -0.0 1.0
outer loop
vertex -2.41481456572267 0.647047612756302 0.0
vertex -2.41481456572267 -0.647047612756302 0.0
vertex -2.1650635094611 -1.25 0.0
endloop
endfacet
facet normal -0.0 -0.0 1.0
outer loop
vertex -2.41481456572267 0.647047612756302 0.0
vertex -2.1650635094611 -1.25 0.0
vertex -2.1650635094611 1.25 0.0
endloop
endfacet
facet normal -0.0 -0.0 1.0
outer loop
vertex -2.1650635094611 1.25 0.0
vertex -2.1650635094611 -1.25 0.0
vertex -1.76776695296637 -1.76776695296637 0.0
endloop
endfacet
facet normal -0.0 -0.0 1.0
outer loop
vertex -2.1650635094611 1.25 0.0
vertex -1.76776695296637 -1.76776695296637 0.0
vertex -1.76776695296637 1.76776695296637 0.0
endloop
endfacet
facet normal -0.0 -0.0 1.0
outer loop
vertex -1.76776695296637 1.76776695296637 0.0
vertex -1.76776695296637 -1.76776695296637 0.0
vertex -1.25 -2.1650635094611 0.0
endloop
endfacet
facet normal -0.0 -0.0 1.0
outer loop
vertex -1.76776695296637 1.76776695296637 0.0
vertex -1.25 -2.1650635094611 0.0
vertex -1.25 2.1650635094611 0.0
endloop
endfacet
facet normal -0.0 -0.0 1.0
outer loop
vertex -1.25 2.1650635094611 0.0
vertex -1.25 -2.1650635094611 0.0
vertex -0.647047612756303 -2.41481456572267 0.0
endloop
endfacet
facet normal -0.0 -0.0 1.0
outer loop
vertex -1.25 2.1650635094611 0.0
vertex -0.647047612756303 -2.41481456572267 0.0
vertex -0.647047612756302 2.41481456572267 0.0
endloop
endfacet
facet normal -0.0 -0.0 1.0
outer loop
vertex -0.647047612756302 2.41481456572267 0.0
vertex -0.647047612756303 -2.41481456572267 0.0
vertex -3.06161699786838e-016 -2.5 0.0
endloop
endfacet
facet normal -0.0 -0.0 1.0
outer loop
vertex -0.647047612756302 2.41481456572267 0.0
vertex -3.06161699786838e-016 -2.5 0.0
vertex 0.0 2.5 0.0
endloop
endfacet
facet normal -0.0 -0.0 1.0
outer loop
vertex 0.0 2.5 0.0
vertex -3.06161699786838e-016 -2.5 0.0
vertex 0.647047612756301 -2.41481456572267 0.0
endloop
endfacet
facet normal -0.0 -0.0 1.0
outer loop
vertex 0.0 2.5 0.0
vertex 0.647047612756301 -2.41481456572267 0.0
vertex 0.647047612756304 2.41481456572267 0.0
endloop
endfacet
facet normal -0.0 -0.0 1.0
outer loop
vertex 0.647047612756304 2.41481456572267 0.0
vertex 0.647047612756301 -2.41481456572267 0.0
vertex 1.25 -2.1650635094611 0.0
endloop
endfacet
facet normal -0.0 -0.0 1.0
outer loop
vertex 0.647047612756304 2.41481456572267 0.0
vertex 1.25 -2.1650635094611 0.0
vertex 1.25 2.1650635094611 0.0
endloop
endfacet
facet normal -0.0 -0.0 1.0
outer loop
vertex 1.25 2.1650635094611 0.0
vertex 1.25 -2.1650635094611 0.0
vertex 1.76776695296637 -1.76776695296637 0.0
endloop
endfacet
facet normal -0.0 -0.0 1.0
outer loop
vertex 1.25 2.1650635094611 0.0
vertex 1.76776695296637 -1.76776695296637 0.0
vertex 1.76776695296637 1.76776695296637 0.0
endloop
endfacet
facet normal -0.0 -0.0 1.0
outer loop
vertex 1.76776695296637 1.76776695296637 0.0
vertex 1.76776695296637 -1.76776695296637 0.0
vertex 2.1650635094611 -1.25 0.0
endloop
endfacet
facet normal -0.0 -0.0 1.0
outer loop
vertex 1.76776695296637 1.76776695296637 0.0
vertex 2.1650635094611 -1.25 0.0
vertex 2.1650635094611 1.25 0.0
endloop
endfacet
facet normal -0.0 -0.0 1.0
outer loop
vertex 2.1650635094611 1.25 0.0
vertex 2.1650635094611 -1.25 0.0
vertex 2.41481456572267 -0.647047612756304 0.0
endloop
endfacet
facet normal -0.0 -0.0 1.0
outer loop
vertex 2.1650635094611 1.25 0.0
vertex 2.41481456572267 -0.647047612756304 0.0
vertex 2.41481456572267 0.647047612756301 0.0
endloop
endfacet
facet normal -0.0 -0.0 1.0
outer loop
vertex 2.41481456572267 0.647047612756301 0.0
vertex 2.41481456572267 -0.647047612756304 0.0
vertex 2.5 -4.59242549680257e-016 0.0
endloop
endfacet
facet normal 0.999999845239806 6.81655545631378e-005 -0.000552153802736887
outer loop
vertex 3.5 -5.50862896058015 -8.99999999999999
vertex 3.50061635432716 -2.00862896058015 -7.99999999999999
vertex 3.50862896058015 -5.50862896058015 5.0
endloop
endfacet
facet normal 0.999999845239806 6.81655545631378e-005 -0.000552153802736887
outer loop
vertex 3.50061635432716 -2.00862896058015 -7.99999999999999
vertex 3.5 -5.50862896058015 -8.99999999999999
vertex 3.5 5.50862896058015 -9.0
endloop
endfacet
facet normal 0.999999845239806 6.81655545631378e-005 -0.000552153802736887
outer loop
vertex 3.50061635432716 -2.00862896058015 -7.99999999999999
vertex 3.5 5.50862896058015 -9.0
vertex 3.50061635432716 2.00862896058015 -8.0
endloop
endfacet
facet normal 0.999999845239806 6.81655545631378e-005 -0.000552153802736887
outer loop
vertex 3.50061635432716 2.00862896058015 -8.0
vertex 3.5 5.50862896058015 -9.0
vertex 3.50616788796232 2.00862896058015 1.00704901481408
endloop
endfacet
facet normal 0.999999845239806 6.81655545631378e-005 -0.000552153802736887
outer loop
vertex 3.50862896058015 -5.50862896058015 5.0
vertex 3.50616788796232 -2.00862896058015 1.00704901481408
vertex 3.50524517532408 9.00862896058015 4.99
endloop
endfacet
facet normal 0.999999845239806 6.81655545631378e-005 -0.000552153802736887
outer loop
vertex 3.50616788796232 -2.00862896058015 1.00704901481408
vertex 3.50862896058015 -5.50862896058015 5.0
vertex 3.50061635432716 -2.00862896058015 -7.99999999999999
endloop
endfacet
facet normal 0.999999845239806 6.81655545631378e-005 -0.000552153802736887
outer loop
vertex 3.50524517532408 9.00862896058015 4.99
vertex 3.50616788796232 -2.00862896058015 1.00704901481408
vertex 3.50616788796232 2.00862896058015 1.00704901481408
endloop
endfacet
facet normal 0.999999845239806 6.81655545631378e-005 -0.000552153802736887
outer loop
vertex 3.50524517532408 9.00862896058015 4.99
vertex 3.50616788796232 2.00862896058015 1.00704901481408
vertex 3.50524517532408 5.50862896058015 -0.49
endloop
endfacet
facet normal 0.999999845239806 6.81655545631378e-005 -0.000552153802736887
outer loop
vertex 3.50524517532408 5.50862896058015 -0.49
vertex 3.50616788796232 2.00862896058015 1.00704901481408
vertex 3.5 5.50862896058015 -9.0
endloop
endfacet
facet normal 0.999999845239806 6.81655545631378e-005 -0.000552153802736887
outer loop
vertex 3.50524517532408 9.00862896058015 4.99
vertex 3.50524517532408 5.50862896058015 -0.49
vertex 3.50524517532408 9.00862896058015 -0.49
endloop
endfacet
facet normal -0.000475314861733536 0.000620737613390248 0.999999694380252
outer loop
vertex -3.50862896058015 -5.50862896058015 5.0
vertex -2.5 1.53080849893419e-016 5.0
vertex -3.50524517532408 9.00862896058015 4.99
endloop
endfacet
facet normal -0.000475314861733536 0.000620737613390248 0.999999694380252
outer loop
vertex -2.5 1.53080849893419e-016 5.0
vertex -3.50862896058015 -5.50862896058015 5.0
vertex -2.41481456572267 -0.647047612756302 5.0
endloop
endfacet
facet normal -0.000475314861733536 0.000620737613390248 0.999999694380252
outer loop
vertex -2.41481456572267 -0.647047612756302 5.0
vertex -3.50862896058015 -5.50862896058015 5.0
vertex -2.1650635094611 -1.25 5.0
endloop
endfacet
facet normal -0.000475314861733536 0.000620737613390248 0.999999694380252
outer loop
vertex -2.1650635094611 -1.25 5.0
vertex -3.50862896058015 -5.50862896058015 5.0
vertex -1.76776695296637 -1.76776695296637 5.0
endloop
endfacet
facet normal -0.000475314861733536 0.000620737613390248 0.999999694380252
outer loop
vertex -1.76776695296637 -1.76776695296637 5.0
vertex -3.50862896058015 -5.50862896058015 5.0
vertex -1.25 -2.1650635094611 5.0
endloop
endfacet
facet normal -0.000475314861733536 0.000620737613390248 0.999999694380252
outer loop
vertex -1.25 -2.1650635094611 5.0
vertex -3.50862896058015 -5.50862896058015 5.0
vertex 3.50862896058015 -5.50862896058015 5.0
endloop
endfacet
facet normal -0.000475314861733536 0.000620737613390248 0.999999694380252
outer loop
vertex -1.25 -2.1650635094611 5.0
vertex 3.50862896058015 -5.50862896058015 5.0
vertex -0.647047612756303 -2.41481456572267 5.0
endloop
endfacet
facet normal -0.000475314861733536 0.000620737613390248 0.999999694380252
outer loop
vertex -0.647047612756303 -2.41481456572267 5.0
vertex 3.50862896058015 -5.50862896058015 5.0
vertex -3.06161699786838e-016 -2.5 5.0
endloop
endfacet
facet normal -0.000475314861733536 0.000620737613390248 0.999999694380252
outer loop
vertex -3.06161699786838e-016 -2.5 5.0
vertex 3.50862896058015 -5.50862896058015 5.0
vertex 0.647047612756301 -2.41481456572267 5.0
endloop
endfacet
facet normal -0.000475314861733536 0.000620737613390248 0.999999694380252
outer loop
vertex 0.647047612756301 -2.41481456572267 5.0
vertex 3.50862896058015 -5.50862896058015 5.0
vertex 1.25 -2.1650635094611 5.0
endloop
endfacet
facet normal -0.000475314861733536 0.000620737613390248 0.999999694380252
outer loop
vertex 1.25 -2.1650635094611 5.0
vertex 3.50862896058015 -5.50862896058015 5.0
vertex 1.76776695296637 -1.76776695296637 5.0
endloop
endfacet
facet normal -0.000475314861733536 0.000620737613390248 0.999999694380252
outer loop
vertex 1.76776695296637 -1.76776695296637 5.0
vertex 3.50862896058015 -5.50862896058015 5.0
vertex 2.1650635094611 -1.25 5.0
endloop
endfacet
facet normal -0.000475314861733536 0.000620737613390248 0.999999694380252
outer loop
vertex 2.1650635094611 -1.25 5.0
vertex 3.50862896058015 -5.50862896058015 5.0
vertex 2.41481456572267 -0.647047612756304 5.0
endloop
endfacet
facet normal -0.000475314861733536 0.000620737613390248 0.999999694380252
outer loop
vertex 2.41481456572267 -0.647047612756304 5.0
vertex 3.50862896058015 -5.50862896058015 5.0
vertex 2.5 -4.59242549680257e-016 5.0
endloop
endfacet
facet normal -0.000475314861733536 0.000620737613390248 0.999999694380252
outer loop
vertex 2.5 -4.59242549680257e-016 5.0
vertex 3.50862896058015 -5.50862896058015 5.0
vertex 3.50524517532408 9.00862896058015 4.99
endloop
endfacet
facet normal -0.000475314861733536 0.000620737613390248 0.999999694380252
outer loop
vertex -3.50524517532408 9.00862896058015 4.99
vertex -2.1650635094611 1.25 5.0
vertex 3.50524517532408 9.00862896058015 4.99
endloop
endfacet
facet normal -0.000475314861733536 0.000620737613390248 0.999999694380252
outer loop
vertex -2.1650635094611 1.25 5.0
vertex -3.50524517532408 9.00862896058015 4.99
vertex -2.41481456572267 0.647047612756302 5.0
endloop
endfacet
facet normal -0.000475314861733536 0.000620737613390248 0.999999694380252
outer loop
vertex -2.41481456572267 0.647047612756302 5.0
vertex -3.50524517532408 9.00862896058015 4.99
vertex -2.5 1.53080849893419e-016 5.0
endloop
endfacet
facet normal -0.000475314861733536 0.000620737613390248 0.999999694380252
outer loop
vertex 3.50524517532408 9.00862896058015 4.99
vertex -2.1650635094611 1.25 5.0
vertex -1.76776695296637 1.76776695296637 5.0
endloop
endfacet
facet normal -0.000475314861733536 0.000620737613390248 0.999999694380252
outer loop
vertex 3.50524517532408 9.00862896058015 4.99
vertex -1.76776695296637 1.76776695296637 5.0
vertex -1.25 2.1650635094611 5.0
endloop
endfacet
facet normal -0.000475314861733536 0.000620737613390248 0.999999694380252
outer loop
vertex 3.50524517532408 9.00862896058015 4.99
vertex -1.25 2.1650635094611 5.0
vertex -0.647047612756302 2.41481456572267 5.0
endloop
endfacet
facet normal -0.000475314861733536 0.000620737613390248 0.999999694380252
outer loop
vertex 3.50524517532408 9.00862896058015 4.99
vertex -0.647047612756302 2.41481456572267 5.0
vertex 0.0 2.5 5.0
endloop
endfacet
facet normal -0.000475314861733536 0.000620737613390248 0.999999694380252
outer loop
vertex 3.50524517532408 9.00862896058015 4.99
vertex 0.0 2.5 5.0
vertex 0.647047612756304 2.41481456572267 5.0
endloop
endfacet
facet normal -0.000475314861733536 0.000620737613390248 0.999999694380252
outer loop
vertex 3.50524517532408 9.00862896058015 4.99
vertex 0.647047612756304 2.41481456572267 5.0
vertex 1.25 2.1650635094611 5.0
endloop
endfacet
facet normal -0.000475314861733536 0.000620737613390248 0.999999694380252
outer loop
vertex 3.50524517532408 9.00862896058015 4.99
vertex 1.25 2.1650635094611 5.0
vertex 1.76776695296637 1.76776695296637 5.0
endloop
endfacet
facet normal -0.000475314861733536 0.000620737613390248 0.999999694380252
outer loop
vertex 3.50524517532408 9.00862896058015 4.99
vertex 1.76776695296637 1.76776695296637 5.0
vertex 2.1650635094611 1.25 5.0
endloop
endfacet
facet normal -0.000475314861733536 0.000620737613390248 0.999999694380252
outer loop
vertex 3.50524517532408 9.00862896058015 4.99
vertex 2.1650635094611 1.25 5.0
vertex 2.41481456572267 0.647047612756301 5.0
endloop
endfacet
facet normal -0.000475314861733536 0.000620737613390248 0.999999694380252
outer loop
vertex 3.50524517532408 9.00862896058015 4.99
vertex 2.41481456572267 0.647047612756301 5.0
vertex 2.5 -4.59242549680257e-016 5.0
endloop
endfacet
facet normal 6.23777692695283e-017 -1.65671061722783e-031 -1.0
outer loop
vertex 3.55557427316356e-015 -2.00862896058015 -4.0
vertex -0.129409522551257 -3.00862896058015 -4.01703708685547
vertex -0.129409522551257 -2.00862896058015 -4.01703708685547
endloop
endfacet
facet normal 0.258819045102519 -2.08264636432504e-031 -0.965925826289069
outer loop
vertex -0.129409522551257 -3.00862896058015 -4.01703708685547
vertex 3.55557427316356e-015 -2.00862896058015 -4.0
vertex 3.65628736182598e-015 -3.00862896058015 -4.0
endloop
endfacet
facet normal -0.258819045102519 -1.11787277941029e-031 -0.965925826289069
outer loop
vertex 0.129409522551264 -2.00862896058015 -4.01703708685547
vertex 3.65628736182598e-015 -3.00862896058015 -4.0
vertex 3.55557427316356e-015 -2.00862896058015 -4.0
endloop
endfacet
facet normal 4.45555494782345e-017 -1.65671061722783e-031 -1.0
outer loop
vertex 3.65628736182598e-015 -3.00862896058015 -4.0
vertex 0.129409522551264 -2.00862896058015 -4.01703708685547
vertex 0.129409522551264 -3.00862896058015 -4.01703708685547
endloop
endfacet
facet normal -0.499999999999999 -5.02853759048045e-032 -0.866025403784439
outer loop
vertex 0.250000000000004 -2.00862896058015 -4.06698729810778
vertex 0.129409522551264 -3.00862896058015 -4.01703708685547
vertex 0.129409522551264 -2.00862896058015 -4.01703708685547
endloop
endfacet
facet normal -0.258819045102519 -1.11787277941029e-031 -0.965925826289069
outer loop
vertex 0.129409522551264 -3.00862896058015 -4.01703708685547
vertex 0.250000000000004 -2.00862896058015 -4.06698729810778
vertex 0.250000000000004 -3.00862896058015 -4.06698729810778
endloop
endfacet
facet normal -0.707106781186548 1.46433913988194e-032 -0.707106781186547
outer loop
vertex 0.353553390593277 -2.00862896058015 -4.14644660940673
vertex 0.250000000000004 -3.00862896058015 -4.06698729810778
vertex 0.250000000000004 -2.00862896058015 -4.06698729810778
endloop
endfacet
facet normal -0.499999999999999 -5.02853759048046e-032 -0.866025403784439
outer loop
vertex 0.250000000000004 -3.00862896058015 -4.06698729810778
vertex 0.353553390593277 -2.00862896058015 -4.14644660940673
vertex 0.353553390593277 -3.00862896058015 -4.14644660940673
endloop
endfacet
facet normal -0.707106781186548 1.46433913988194e-032 -0.707106781186547
outer loop
vertex 0.353553390593277 -2.00862896058015 -4.14644660940673
vertex 0.433012701892223 -3.00862896058015 -4.25
vertex 0.353553390593277 -3.00862896058015 -4.14644660940673
endloop
endfacet
facet normal -0.866025403784439 2.37083276312467e-032 -0.5
outer loop
vertex 0.433012701892223 -3.00862896058015 -4.25
vertex 0.353553390593277 -2.00862896058015 -4.14644660940673
vertex 0.433012701892223 -2.00862896058015 -4.25
endloop
endfacet
facet normal -0.866025403784439 2.37083276312467e-032 -0.5
outer loop
vertex 0.433012701892223 -2.00862896058015 -4.25
vertex 0.482962913144538 -3.00862896058015 -4.37059047744874
vertex 0.433012701892223 -3.00862896058015 -4.25
endloop
endfacet
facet normal -0.976344204783667 0.0 -0.216222093656845
outer loop
vertex 0.482962913144538 -3.00862896058015 -4.37059047744874
vertex 0.433012701892223 -2.00862896058015 -4.25
vertex 0.482962913144538 -2.00862896058015 -4.37059047744874
endloop
endfacet
facet normal -0.976344204783667 0.0 -0.216222093656845
outer loop
vertex 0.482962913144538 -3.00862896058015 -4.37059047744874
vertex 0.500000000000003 -5.50862896058015 -4.5
vertex 0.482962913144538 -5.50862896058015 -4.37059047744874
endloop
endfacet
facet normal -1.0 1.04095476745945e-031 3.38622176034582e-016
outer loop
vertex 0.500000000000003 -5.50862896058015 -4.5
vertex 0.482962913144538 -3.00862896058015 -4.37059047744874
vertex 0.500000000000003 -2.00862896058015 -4.5
endloop
endfacet
facet normal -1.0 1.04095476745945e-031 3.38622176034582e-016
outer loop
vertex 0.500000000000003 -2.00862896058015 -4.5
vertex 0.482962913144538 -3.00862896058015 -4.37059047744874
vertex 0.482962913144538 -2.00862896058015 -4.37059047744874
endloop
endfacet
facet normal -1.0 1.04095476745945e-031 3.38622176034582e-016
outer loop
vertex 0.500000000000003 -2.00862896058015 -4.5
vertex 0.482962913144537 -5.50862896058015 -4.62940952255126
vertex 0.500000000000003 -5.50862896058015 -4.5
endloop
endfacet
facet normal -0.965925826289068 2.22908027831323e-031 0.258819045102521
outer loop
vertex 0.482962913144537 -5.50862896058015 -4.62940952255126
vertex 0.500000000000003 -2.00862896058015 -4.5
vertex 0.482962913144537 -2.00862896058015 -4.62940952255126
endloop
endfacet
facet normal -0.965925826289068 2.22908027831323e-031 0.258819045102521
outer loop
vertex 0.482962913144537 -2.00862896058015 -4.62940952255126
vertex 0.433012701892223 -5.50862896058015 -4.75
vertex 0.482962913144537 -5.50862896058015 -4.62940952255126
endloop
endfacet
facet normal -0.866025403784439 2.44245297500744e-031 0.5
outer loop
vertex 0.433012701892223 -5.50862896058015 -4.75
vertex 0.482962913144537 -2.00862896058015 -4.62940952255126
vertex 0.433012701892223 -2.00862896058015 -4.75
endloop
endfacet
facet normal -0.866025403784439 2.44245297500744e-031 0.5
outer loop
vertex 0.433012701892223 -2.00862896058015 -4.75
vertex 0.353553390593277 -5.50862896058015 -4.85355339059327
vertex 0.433012701892223 -5.50862896058015 -4.75
endloop
endfacet
facet normal -0.707106781186547 2.48937653779929e-031 0.707106781186548
outer loop
vertex 0.353553390593277 -5.50862896058015 -4.85355339059327
vertex 0.433012701892223 -2.00862896058015 -4.75
vertex 0.353553390593277 -2.00862896058015 -4.85355339059327
endloop
endfacet
facet normal -0.707106781186547 2.48937653779929e-031 0.707106781186548
outer loop
vertex 0.353553390593277 -5.50862896058015 -4.85355339059327
vertex 0.250000000000003 -2.00862896058015 -4.93301270189222
vertex 0.250000000000003 -5.50862896058015 -4.93301270189222
endloop
endfacet
facet normal -0.499999999999998 2.36665320342934e-031 0.866025403784439
outer loop
vertex 0.250000000000003 -2.00862896058015 -4.93301270189222
vertex 0.353553390593277 -5.50862896058015 -4.85355339059327
vertex 0.353553390593277 -2.00862896058015 -4.85355339059327
endloop
endfacet
facet normal -0.499999999999998 2.36665320342934e-031 0.866025403784439
outer loop
vertex 0.250000000000003 -5.50862896058015 -4.93301270189222
vertex 0.129409522551264 -2.00862896058015 -4.98296291314453
vertex 0.129409522551264 -5.50862896058015 -4.98296291314453
endloop
endfacet
facet normal -0.258819045102519 2.08264636432504e-031 0.965925826289069
outer loop
vertex 0.129409522551264 -2.00862896058015 -4.98296291314453
vertex 0.250000000000003 -5.50862896058015 -4.93301270189222
vertex 0.250000000000003 -2.00862896058015 -4.93301270189222
endloop
endfacet
facet normal -0.258819045102519 2.08264636432504e-031 0.965925826289069
outer loop
vertex 0.129409522551264 -5.50862896058015 -4.98296291314453
vertex 3.43310959324882e-015 -2.00862896058015 -5.0
vertex 3.42484287807379e-015 -5.50862896058015 -5.0
endloop
endfacet
facet normal -2.22777747391173e-016 1.65671061722783e-031 1.0
outer loop
vertex 3.43310959324882e-015 -2.00862896058015 -5.0
vertex 0.129409522551264 -5.50862896058015 -4.98296291314453
vertex 0.129409522551264 -2.00862896058015 -4.98296291314453
endloop
endfacet
facet normal -2.22777747391173e-016 1.65671061722783e-031 1.0
outer loop
vertex 3.42484287807379e-015 -5.50862896058015 -5.0
vertex -0.129409522551257 -2.00862896058015 -4.98296291314453
vertex -0.129409522551257 -5.50862896058015 -4.98296291314453
endloop
endfacet
facet normal 0.258819045102522 1.11787277941028e-031 0.965925826289068
outer loop
vertex -0.129409522551257 -2.00862896058015 -4.98296291314453
vertex 3.42484287807379e-015 -5.50862896058015 -5.0
vertex 3.43310959324882e-015 -2.00862896058015 -5.0
endloop
endfacet
facet normal 0.258819045102522 1.11787277941028e-031 0.965925826289068
outer loop
vertex -0.129409522551257 -5.50862896058015 -4.98296291314453
vertex -0.249999999999997 -2.00862896058015 -4.93301270189222
vertex -0.249999999999997 -5.50862896058015 -4.93301270189222
endloop
endfacet
facet normal 0.500000000000001 5.02853759048039e-032 0.866025403784438
outer loop
vertex -0.249999999999997 -2.00862896058015 -4.93301270189222
vertex -0.129409522551257 -5.50862896058015 -4.98296291314453
vertex -0.129409522551257 -2.00862896058015 -4.98296291314453
endloop
endfacet
facet normal 0.500000000000001 5.02853759048039e-032 0.866025403784438
outer loop
vertex -0.249999999999997 -5.50862896058015 -4.93301270189222
vertex -0.35355339059327 -2.00862896058015 -4.85355339059327
vertex -0.35355339059327 -5.50862896058015 -4.85355339059327
endloop
endfacet
facet normal 0.707106781186548 -1.46433913988195e-032 0.707106781186547
outer loop
vertex -0.35355339059327 -2.00862896058015 -4.85355339059327
vertex -0.249999999999997 -5.50862896058015 -4.93301270189222
vertex -0.249999999999997 -2.00862896058015 -4.93301270189222
endloop
endfacet
facet normal 0.707106781186548 -1.46433913988195e-032 0.707106781186547
outer loop
vertex -0.35355339059327 -2.00862896058015 -4.85355339059327
vertex -0.433012701892216 -5.50862896058015 -4.75
vertex -0.35355339059327 -5.50862896058015 -4.85355339059327
endloop
endfacet
facet normal 0.866025403784439 -7.85742357779619e-032 0.5
outer loop
vertex -0.433012701892216 -5.50862896058015 -4.75
vertex -0.35355339059327 -2.00862896058015 -4.85355339059327
vertex -0.433012701892216 -2.00862896058015 -4.75
endloop
endfacet
facet normal 0.866025403784439 -7.85742357779619e-032 0.5
outer loop
vertex -0.433012701892216 -2.00862896058015 -4.75
vertex -0.482962913144531 -5.50862896058015 -4.62940952255126
vertex -0.433012701892216 -5.50862896058015 -4.75
endloop
endfacet
facet normal 0.965925826289068 -1.371503758389e-031 0.258819045102521
outer loop
vertex -0.482962913144531 -5.50862896058015 -4.62940952255126
vertex -0.433012701892216 -2.00862896058015 -4.75
vertex -0.482962913144531 -2.00862896058015 -4.62940952255126
endloop
endfacet
facet normal 0.965925826289068 -1.371503758389e-031 0.258819045102521
outer loop
vertex -0.482962913144531 -2.00862896058015 -4.62940952255126
vertex -0.499999999999996 -5.50862896058015 -4.5
vertex -0.482962913144531 -5.50862896058015 -4.62940952255126
endloop
endfacet
facet normal 1.0 -8.22844676921853e-032 2.67333296869407e-017
outer loop
vertex -0.499999999999996 -5.50862896058015 -4.5
vertex -0.482962913144531 -2.00862896058015 -4.62940952255126
vertex -0.499999999999996 -2.00862896058015 -4.5
endloop
endfacet
facet normal 1.0 -8.22844676921853e-032 2.67333296869407e-017
outer loop
vertex -0.499999999999996 -2.00862896058015 -4.5
vertex -0.48296291314453 -5.50862896058015 -4.37059047744874
vertex -0.499999999999996 -5.50862896058015 -4.5
endloop
endfacet
facet normal 0.99144486137381 -0.0 -0.130526192220051
outer loop
vertex -0.48296291314453 -5.50862896058015 -4.37059047744874
vertex -0.499999999999996 -2.00862896058015 -4.5
vertex -0.48296291314453 -3.00862896058015 -4.37059047744874
endloop
endfacet
facet normal 0.976344204783667 0.0 -0.216222093656845
outer loop
vertex -0.48296291314453 -3.00862896058015 -4.37059047744874
vertex -0.499999999999996 -2.00862896058015 -4.5
vertex -0.48296291314453 -2.00862896058015 -4.37059047744874
endloop
endfacet
facet normal 0.965925826289068 0.0 -0.258819045102521
outer loop
vertex -0.48296291314453 -2.00862896058015 -4.37059047744874
vertex -0.433012701892216 -3.00862896058015 -4.25
vertex -0.48296291314453 -3.00862896058015 -4.37059047744874
endloop
endfacet
facet normal 0.866025403784439 -1.25432746415367e-031 -0.5
outer loop
vertex -0.433012701892216 -3.00862896058015 -4.25
vertex -0.48296291314453 -2.00862896058015 -4.37059047744874
vertex -0.433012701892216 -2.00862896058015 -4.25
endloop
endfacet
facet normal 0.866025403784439 -1.25432746415366e-031 -0.5
outer loop
vertex -0.433012701892216 -2.00862896058015 -4.25
vertex -0.35355339059327 -3.00862896058015 -4.14644660940673
vertex -0.433012701892216 -3.00862896058015 -4.25
endloop
endfacet
facet normal 0.707106781186548 -2.48937653779929e-031 -0.707106781186548
outer loop
vertex -0.35355339059327 -3.00862896058015 -4.14644660940673
vertex -0.433012701892216 -2.00862896058015 -4.25
vertex -0.35355339059327 -2.00862896058015 -4.14644660940673
endloop
endfacet
facet normal 0.499999999999999 -2.36665320342935e-031 -0.866025403784439
outer loop
vertex -0.249999999999996 -2.00862896058015 -4.06698729810778
vertex -0.35355339059327 -3.00862896058015 -4.14644660940673
vertex -0.35355339059327 -2.00862896058015 -4.14644660940673
endloop
endfacet
facet normal 0.707106781186548 -2.48937653779929e-031 -0.707106781186548
outer loop
vertex -0.35355339059327 -3.00862896058015 -4.14644660940673
vertex -0.249999999999996 -2.00862896058015 -4.06698729810778
vertex -0.249999999999996 -3.00862896058015 -4.06698729810778
endloop
endfacet
facet normal 0.258819045102519 -2.08264636432504e-031 -0.965925826289069
outer loop
vertex -0.129409522551257 -2.00862896058015 -4.01703708685547
vertex -0.249999999999996 -3.00862896058015 -4.06698729810778
vertex -0.249999999999996 -2.00862896058015 -4.06698729810778
endloop
endfacet
facet normal 0.499999999999999 -2.36665320342935e-031 -0.866025403784439
outer loop
vertex -0.249999999999996 -3.00862896058015 -4.06698729810778
vertex -0.129409522551257 -2.00862896058015 -4.01703708685547
vertex -0.129409522551257 -3.00862896058015 -4.01703708685547
endloop
endfacet
facet normal -0.258819045102519 2.1362448968203e-031 -0.965925826289069
outer loop
vertex 0.129409522551264 3.00862896058015 -4.01703708685547
vertex 3.49434193320619e-015 2.00862896058015 -4.0
vertex 3.49434193320619e-015 3.00862896058015 -4.0
endloop
endfacet
facet normal -7.12888791651753e-017 1.65671061722783e-031 -1.0
outer loop
vertex 3.49434193320619e-015 2.00862896058015 -4.0
vertex 0.129409522551264 3.00862896058015 -4.01703708685547
vertex 0.129409522551264 2.00862896058015 -4.01703708685547
endloop
endfacet
facet normal -7.12888791651753e-017 1.65671061722783e-031 -1.0
outer loop
vertex 3.49434193320619e-015 3.00862896058015 -4.0
vertex -0.129409522551257 2.00862896058015 -4.01703708685547
vertex -0.129409522551257 3.00862896058015 -4.01703708685547
endloop
endfacet
facet normal 0.258819045102519 1.06427424691502e-031 -0.965925826289069
outer loop
vertex -0.129409522551257 2.00862896058015 -4.01703708685547
vertex 3.49434193320619e-015 3.00862896058015 -4.0
vertex 3.49434193320619e-015 2.00862896058015 -4.0
endloop
endfacet
facet normal 0.258819045102519 1.06427424691502e-031 -0.965925826289069
outer loop
vertex -0.129409522551257 3.00862896058015 -4.01703708685547
vertex -0.249999999999997 2.00862896058015 -4.06698729810778
vertex -0.249999999999997 3.00862896058015 -4.06698729810778
endloop
endfacet
facet normal 0.499999999999999 3.99309345471307e-032 -0.866025403784439
outer loop
vertex -0.249999999999997 2.00862896058015 -4.06698729810778
vertex -0.129409522551257 3.00862896058015 -4.01703708685547
vertex -0.129409522551257 2.00862896058015 -4.01703708685547
endloop
endfacet
facet normal 0.499999999999999 3.99309345471307e-032 -0.866025403784439
outer loop
vertex -0.249999999999997 3.00862896058015 -4.06698729810778
vertex -0.35355339059327 2.00862896058015 -4.14644660940673
vertex -0.35355339059327 3.00862896058015 -4.14644660940673
endloop
endfacet
facet normal 0.707106781186548 -2.92867827976387e-032 -0.707106781186547
outer loop
vertex -0.35355339059327 2.00862896058015 -4.14644660940673
vertex -0.249999999999997 3.00862896058015 -4.06698729810778
vertex -0.249999999999997 2.00862896058015 -4.06698729810778
endloop
endfacet
facet normal 0.866025403784439 -3.19939428560584e-032 -0.5
outer loop
vertex -0.433012701892216 3.00862896058015 -4.25
vertex -0.35355339059327 2.00862896058015 -4.14644660940673
vertex -0.433012701892216 2.00862896058015 -4.25
endloop
endfacet
facet normal 0.707106781186548 -2.92867827976387e-032 -0.707106781186547
outer loop
vertex -0.35355339059327 2.00862896058015 -4.14644660940673
vertex -0.433012701892216 3.00862896058015 -4.25
vertex -0.35355339059327 3.00862896058015 -4.14644660940673
endloop
endfacet
facet normal 0.976344204783667 0.0 -0.216222093656845
outer loop
vertex -0.482962913144531 3.00862896058015 -4.37059047744874
vertex -0.433012701892216 2.00862896058015 -4.25
vertex -0.482962913144531 2.00862896058015 -4.37059047744874
endloop
endfacet
facet normal 0.866025403784439 -3.19939428560584e-032 -0.5
outer loop
vertex -0.433012701892216 2.00862896058015 -4.25
vertex -0.482962913144531 3.00862896058015 -4.37059047744874
vertex -0.433012701892216 3.00862896058015 -4.25
endloop
endfacet
facet normal 1.0 -1.14449918103619e-031 3.38622176034582e-016
outer loop
vertex -0.499999999999996 5.50862896058015 -4.5
vertex -0.482962913144531 2.00862896058015 -4.37059047744874
vertex -0.499999999999996 2.00862896058015 -4.5
endloop
endfacet
facet normal 0.965925826289068 0.0 -0.258819045102521
outer loop
vertex -0.482962913144531 2.00862896058015 -4.37059047744874
vertex -0.499999999999996 5.50862896058015 -4.5
vertex -0.482962913144531 3.00862896058015 -4.37059047744874
endloop
endfacet
facet normal 0.976344204783667 0.0 -0.216222093656845
outer loop
vertex -0.482962913144531 3.00862896058015 -4.37059047744874
vertex -0.499999999999996 5.50862896058015 -4.5
vertex -0.482962913144531 5.50862896058015 -4.37059047744874
endloop
endfacet
facet normal 0.965925826289068 -2.42911272479669e-031 0.258819045102521
outer loop
vertex -0.48296291314453 5.50862896058015 -4.62940952255126
vertex -0.499999999999996 2.00862896058015 -4.5
vertex -0.48296291314453 2.00862896058015 -4.62940952255126
endloop
endfacet
facet normal 1.0 -1.14449918103619e-031 3.02977736451995e-016
outer loop
vertex -0.499999999999996 2.00862896058015 -4.5
vertex -0.48296291314453 5.50862896058015 -4.62940952255126
vertex -0.499999999999996 5.50862896058015 -4.5
endloop
endfacet
facet normal 0.866025403784439 -2.62179716016228e-031 0.5
outer loop
vertex -0.433012701892216 5.50862896058015 -4.75
vertex -0.48296291314453 2.00862896058015 -4.62940952255126
vertex -0.433012701892216 2.00862896058015 -4.75
endloop
endfacet
facet normal 0.965925826289068 -2.42911272479669e-031 0.258819045102521
outer loop
vertex -0.48296291314453 2.00862896058015 -4.62940952255126
vertex -0.433012701892216 5.50862896058015 -4.75
vertex -0.48296291314453 5.50862896058015 -4.62940952255126
endloop
endfacet
facet normal 0.707106781186547 -2.63581045178748e-031 0.707106781186548
outer loop
vertex -0.35355339059327 5.50862896058015 -4.85355339059327
vertex -0.433012701892216 2.00862896058015 -4.75
vertex -0.35355339059327 2.00862896058015 -4.85355339059327
endloop
endfacet
facet normal 0.866025403784439 -2.62179716016228e-031 0.5
outer loop
vertex -0.433012701892216 2.00862896058015 -4.75
vertex -0.35355339059327 5.50862896058015 -4.85355339059327
vertex -0.433012701892216 5.50862896058015 -4.75
endloop
endfacet
facet normal 0.499999999999998 -2.47019761700608e-031 0.866025403784439
outer loop
vertex -0.249999999999996 2.00862896058015 -4.93301270189222
vertex -0.35355339059327 5.50862896058015 -4.85355339059327
vertex -0.35355339059327 2.00862896058015 -4.85355339059327
endloop
endfacet
facet normal 0.707106781186547 -2.63581045178748e-031 0.707106781186548
outer loop
vertex -0.35355339059327 5.50862896058015 -4.85355339059327
vertex -0.249999999999996 2.00862896058015 -4.93301270189222
vertex -0.249999999999996 5.50862896058015 -4.93301270189222
endloop
endfacet
facet normal 0.258819045102519 -2.1362448968203e-031 0.965925826289069
outer loop
vertex -0.129409522551257 2.00862896058015 -4.98296291314453
vertex -0.249999999999996 5.50862896058015 -4.93301270189222
vertex -0.249999999999996 2.00862896058015 -4.93301270189222
endloop
endfacet
facet normal 0.499999999999998 -2.47019761700608e-031 0.866025403784439
outer loop
vertex -0.249999999999996 5.50862896058015 -4.93301270189222
vertex -0.129409522551257 2.00862896058015 -4.98296291314453
vertex -0.129409522551257 5.50862896058015 -4.98296291314453
endloop
endfacet
facet normal 2.22777747391173e-016 -1.65671061722783e-031 1.0
outer loop
vertex 3.61680661312092e-015 2.00862896058015 -5.0
vertex -0.129409522551257 5.50862896058015 -4.98296291314453
vertex -0.129409522551257 2.00862896058015 -4.98296291314453
endloop
endfacet
facet normal 0.258819045102519 -2.1362448968203e-031 0.965925826289069
outer loop
vertex -0.129409522551257 5.50862896058015 -4.98296291314453
vertex 3.61680661312092e-015 2.00862896058015 -5.0
vertex 3.61680661312092e-015 5.50862896058015 -5.0
endloop
endfacet
facet normal 2.22777747391173e-016 -1.65671061722783e-031 1.0
outer loop
vertex 3.61680661312092e-015 2.00862896058015 -5.0
vertex 0.129409522551264 5.50862896058015 -4.98296291314453
vertex 3.61680661312092e-015 5.50862896058015 -5.0
endloop
endfacet
facet normal -0.258819045102522 -1.06427424691502e-031 0.965925826289068
outer loop
vertex 0.129409522551264 5.50862896058015 -4.98296291314453
vertex 3.61680661312092e-015 2.00862896058015 -5.0
vertex 0.129409522551264 2.00862896058015 -4.98296291314453
endloop
endfacet
facet normal -0.500000000000001 -3.993093454713e-032 0.866025403784438
outer loop
vertex 0.250000000000004 2.00862896058015 -4.93301270189222
vertex 0.129409522551264 5.50862896058015 -4.98296291314453
vertex 0.129409522551264 2.00862896058015 -4.98296291314453
endloop
endfacet
facet normal -0.258819045102522 -1.06427424691502e-031 0.965925826289068
outer loop
vertex 0.129409522551264 5.50862896058015 -4.98296291314453
vertex 0.250000000000004 2.00862896058015 -4.93301270189222
vertex 0.250000000000004 5.50862896058015 -4.93301270189222
endloop
endfacet
facet normal -0.707106781186548 2.92867827976387e-032 0.707106781186547
outer loop
vertex 0.353553390593277 2.00862896058015 -4.85355339059327
vertex 0.250000000000004 5.50862896058015 -4.93301270189222
vertex 0.250000000000004 2.00862896058015 -4.93301270189222
endloop
endfacet
facet normal -0.500000000000001 -3.993093454713e-032 0.866025403784438
outer loop
vertex 0.250000000000004 5.50862896058015 -4.93301270189222
vertex 0.353553390593277 2.00862896058015 -4.85355339059327
vertex 0.353553390593277 5.50862896058015 -4.85355339059327
endloop
endfacet
facet normal -0.866025403784439 9.65086542934455e-032 0.5
outer loop
vertex 0.433012701892223 5.50862896058015 -4.75
vertex 0.353553390593277 2.00862896058015 -4.85355339059327
vertex 0.433012701892223 2.00862896058015 -4.75
endloop
endfacet
facet normal -0.707106781186548 2.92867827976387e-032 0.707106781186547
outer loop
vertex 0.353553390593277 2.00862896058015 -4.85355339059327
vertex 0.433012701892223 5.50862896058015 -4.75
vertex 0.353553390593277 5.50862896058015 -4.85355339059327
endloop
endfacet
facet normal -0.965925826289068 1.57153620487246e-031 0.258819045102521
outer loop
vertex 0.482962913144538 5.50862896058015 -4.62940952255126
vertex 0.433012701892223 2.00862896058015 -4.75
vertex 0.482962913144538 2.00862896058015 -4.62940952255126
endloop
endfacet
facet normal -0.866025403784439 9.65086542934455e-032 0.5
outer loop
vertex 0.433012701892223 2.00862896058015 -4.75
vertex 0.482962913144538 5.50862896058015 -4.62940952255126
vertex 0.433012701892223 5.50862896058015 -4.75
endloop
endfacet
facet normal -1.0 9.26389090498592e-032 3.56444395825876e-017
outer loop
vertex 0.500000000000003 5.50862896058015 -4.5
vertex 0.482962913144538 2.00862896058015 -4.62940952255126
vertex 0.500000000000003 2.00862896058015 -4.5
endloop
endfacet
facet normal -0.965925826289068 1.57153620487246e-031 0.258819045102521
outer loop
vertex 0.482962913144538 2.00862896058015 -4.62940952255126
vertex 0.500000000000003 5.50862896058015 -4.5
vertex 0.482962913144538 5.50862896058015 -4.62940952255126
endloop
endfacet
facet normal -0.976344204783667 0.0 -0.216222093656845
outer loop
vertex 0.482962913144538 3.00862896058015 -4.37059047744874
vertex 0.500000000000003 2.00862896058015 -4.5
vertex 0.482962913144538 2.00862896058015 -4.37059047744874
endloop
endfacet
facet normal -1.0 9.26389090498591e-032 0.0
outer loop
vertex 0.500000000000003 2.00862896058015 -4.5
vertex 0.482962913144538 3.00862896058015 -4.37059047744874
vertex 0.500000000000003 5.50862896058015 -4.5
endloop
endfacet
facet normal -1.0 9.26389090498592e-032 3.56444395825876e-017
outer loop
vertex 0.500000000000003 5.50862896058015 -4.5
vertex 0.482962913144538 3.00862896058015 -4.37059047744874
vertex 0.482962913144538 5.50862896058015 -4.37059047744874
endloop
endfacet
facet normal -0.866025403784439 1.33718361640178e-031 -0.5
outer loop
vertex 0.433012701892223 3.00862896058015 -4.25
vertex 0.482962913144538 2.00862896058015 -4.37059047744874
vertex 0.433012701892223 2.00862896058015 -4.25
endloop
endfacet
facet normal -0.965925826289068 0.0 -0.258819045102521
outer loop
vertex 0.482962913144538 2.00862896058015 -4.37059047744874
vertex 0.433012701892223 3.00862896058015 -4.25
vertex 0.482962913144538 3.00862896058015 -4.37059047744874
endloop
endfacet
facet normal -0.707106781186547 2.63581045178748e-031 -0.707106781186548
outer loop
vertex 0.353553390593277 3.00862896058015 -4.14644660940673
vertex 0.433012701892223 2.00862896058015 -4.25
vertex 0.353553390593277 2.00862896058015 -4.14644660940673
endloop
endfacet
facet normal -0.866025403784439 1.33718361640178e-031 -0.5
outer loop
vertex 0.433012701892223 2.00862896058015 -4.25
vertex 0.353553390593277 3.00862896058015 -4.14644660940673
vertex 0.433012701892223 3.00862896058015 -4.25
endloop
endfacet
facet normal -0.707106781186547 2.63581045178748e-031 -0.707106781186548
outer loop
vertex 0.353553390593277 3.00862896058015 -4.14644660940673
vertex 0.250000000000003 2.00862896058015 -4.06698729810778
vertex 0.250000000000003 3.00862896058015 -4.06698729810778
endloop
endfacet
facet normal -0.499999999999999 2.47019761700608e-031 -0.866025403784439
outer loop
vertex 0.250000000000003 2.00862896058015 -4.06698729810778
vertex 0.353553390593277 3.00862896058015 -4.14644660940673
vertex 0.353553390593277 2.00862896058015 -4.14644660940673
endloop
endfacet
facet normal -0.499999999999999 2.47019761700608e-031 -0.866025403784439
outer loop
vertex 0.250000000000003 3.00862896058015 -4.06698729810778
vertex 0.129409522551264 2.00862896058015 -4.01703708685547
vertex 0.129409522551264 3.00862896058015 -4.01703708685547
endloop
endfacet
facet normal -0.258819045102519 2.1362448968203e-031 -0.965925826289069
outer loop
vertex 0.129409522551264 2.00862896058015 -4.01703708685547
vertex 0.250000000000003 3.00862896058015 -4.06698729810778
vertex 0.250000000000003 2.00862896058015 -4.06698729810778
endloop
endfacet
facet normal -3.37156739358155e-032 1.0 -4.41988425775003e-016
outer loop
vertex -0.499999999999997 3.00862896058015 -1.0
vertex -0.433012701892216 3.00862896058015 -4.25
vertex -0.482962913144531 3.00862896058015 -4.37059047744874
endloop
endfacet
facet normal -3.37156739358155e-032 1.0 -4.41988425775003e-016
outer loop
vertex -0.433012701892216 3.00862896058015 -4.25
vertex -0.499999999999997 3.00862896058015 -1.0
vertex -0.35355339059327 3.00862896058015 -4.14644660940673
endloop
endfacet
facet normal -3.37156739358155e-032 1.0 -4.41988425775003e-016
outer loop
vertex -0.35355339059327 3.00862896058015 -4.14644660940673
vertex -0.499999999999997 3.00862896058015 -1.0
vertex -0.249999999999997 3.00862896058015 -4.06698729810778
endloop
endfacet
facet normal -3.37156739358155e-032 1.0 -4.41988425775003e-016
outer loop
vertex -0.249999999999997 3.00862896058015 -4.06698729810778
vertex -0.499999999999997 3.00862896058015 -1.0
vertex -0.129409522551257 3.00862896058015 -4.01703708685547
endloop
endfacet
facet normal -3.37156739358155e-032 1.0 -4.41988425775003e-016
outer loop
vertex -0.129409522551257 3.00862896058015 -4.01703708685547
vertex -0.499999999999997 3.00862896058015 -1.0
vertex 3.49434193320619e-015 3.00862896058015 -4.0
endloop
endfacet
facet normal -3.37156739358155e-032 1.0 -4.41988425775003e-016
outer loop
vertex 0.433012701892223 3.00862896058015 -4.25
vertex 0.500000000000003 3.00862896058015 -0.999999999999999
vertex 0.482962913144538 3.00862896058015 -4.37059047744874
endloop
endfacet
facet normal -3.37156739358155e-032 1.0 -4.41988425775003e-016
outer loop
vertex 0.500000000000003 3.00862896058015 -0.999999999999999
vertex 0.433012701892223 3.00862896058015 -4.25
vertex 0.353553390593277 3.00862896058015 -4.14644660940673
endloop
endfacet
facet normal -3.37156739358155e-032 1.0 -4.41988425775003e-016
outer loop
vertex 0.500000000000003 3.00862896058015 -0.999999999999999
vertex 0.353553390593277 3.00862896058015 -4.14644660940673
vertex 0.250000000000003 3.00862896058015 -4.06698729810778
endloop
endfacet
facet normal -3.37156739358155e-032 1.0 -4.41988425775003e-016
outer loop
vertex 0.500000000000003 3.00862896058015 -0.999999999999999
vertex 0.250000000000003 3.00862896058015 -4.06698729810778
vertex 0.129409522551264 3.00862896058015 -4.01703708685547
endloop
endfacet
facet normal -3.37156739358155e-032 1.0 -4.41988425775003e-016
outer loop
vertex 0.500000000000003 3.00862896058015 -0.999999999999999
vertex 0.129409522551264 3.00862896058015 -4.01703708685547
vertex 3.49434193320619e-015 3.00862896058015 -4.0
endloop
endfacet
facet normal -3.37156739358155e-032 1.0 -4.41988425775003e-016
outer loop
vertex 0.500000000000003 3.00862896058015 -0.999999999999999
vertex 3.49434193320619e-015 3.00862896058015 -4.0
vertex -0.499999999999997 3.00862896058015 -1.0
endloop
endfacet
facet normal -0.999987225603898 1.23459912460042e-018 0.0050545651662392
outer loop
vertex 0.500000000000003 3.00862896058015 -0.999999999999999
vertex 0.482962913144538 5.50862896058015 -4.37059047744874
vertex 0.482962913144538 3.00862896058015 -4.37059047744874
endloop
endfacet
facet normal -0.999987225603898 1.23459912460042e-018 0.0050545651662392
outer loop
vertex 0.482962913144538 5.50862896058015 -4.37059047744874
vertex 0.500000000000003 3.00862896058015 -0.999999999999999
vertex 0.500000000000003 5.50862896058015 -1.0
endloop
endfacet
facet normal 0.999987225603898 1.93407406271707e-018 0.00505456516623925
outer loop
vertex -0.482962913144531 5.50862896058015 -4.37059047744874
vertex -0.499999999999997 3.00862896058015 -1.0
vertex -0.482962913144531 3.00862896058015 -4.37059047744874
endloop
endfacet
facet normal 0.999987225603898 1.93407406271707e-018 0.00505456516623925
outer loop
vertex -0.499999999999997 3.00862896058015 -1.0
vertex -0.482962913144531 5.50862896058015 -4.37059047744874
vertex -0.499999999999997 5.50862896058015 -1.0
endloop
endfacet
facet normal 0.0 1.0 0.0
outer loop
vertex -0.8 3.50862896058015 4.25
vertex 0.8 3.50862896058015 0.0500000000000001
vertex -0.8 3.50862896058015 0.0500000000000001
endloop
endfacet
facet normal 0.0 1.0 0.0
outer loop
vertex 0.8 3.50862896058015 0.0500000000000001
vertex -0.8 3.50862896058015 4.25
vertex 0.8 3.50862896058015 4.25
endloop
endfacet
facet normal 1.0 0.0 0.0
outer loop
vertex -0.8 9.00862896058015 0.0500000000000001
vertex -0.8 3.50862896058015 4.25
vertex -0.8 3.50862896058015 0.0500000000000001
endloop
endfacet
facet normal 1.0 0.0 0.0
outer loop
vertex -0.8 3.50862896058015 4.25
vertex -0.8 9.00862896058015 0.0500000000000001
vertex -0.8 9.00862896058015 4.25
endloop
endfacet
facet normal -3.52495810318487e-016 -0.0 -1.0
outer loop
vertex 0.8 9.00862896058015 4.25
vertex -0.8 3.50862896058015 4.25
vertex -0.8 9.00862896058015 4.25
endloop
endfacet
facet normal -3.52495810318487e-016 -0.0 -1.0
outer loop
vertex -0.8 3.50862896058015 4.25
vertex 0.8 9.00862896058015 4.25
vertex 0.8 3.50862896058015 4.25
endloop
endfacet
facet normal -1.0 -0.0 -0.0
outer loop
vertex 0.8 9.00862896058015 4.25
vertex 0.8 3.50862896058015 0.0500000000000001
vertex 0.8 3.50862896058015 4.25
endloop
endfacet
facet normal -1.0 -0.0 -0.0
outer loop
vertex 0.8 3.50862896058015 0.0500000000000001
vertex 0.8 9.00862896058015 4.25
vertex 0.8 9.00862896058015 0.0500000000000001
endloop
endfacet
facet normal 0.0 0.0 1.0
outer loop
vertex 0.8 3.50862896058015 0.0500000000000001
vertex -0.8 9.00862896058015 0.0500000000000001
vertex -0.8 3.50862896058015 0.0500000000000001
endloop
endfacet
facet normal 0.0 0.0 1.0
outer loop
vertex -0.8 9.00862896058015 0.0500000000000001
vertex 0.8 3.50862896058015 0.0500000000000001
vertex 0.8 9.00862896058015 0.0500000000000001
endloop
endfacet
facet normal -0.0 1.0 -0.0
outer loop
vertex -3.49999999999999 5.50862896058015 -9.0
vertex -0.35355339059327 5.50862896058015 -4.85355339059327
vertex 3.5 5.50862896058015 -9.0
endloop
endfacet
facet normal -0.0 1.0 -0.0
outer loop
vertex -0.35355339059327 5.50862896058015 -4.85355339059327
vertex -3.49999999999999 5.50862896058015 -9.0
vertex -0.433012701892216 5.50862896058015 -4.75
endloop
endfacet
facet normal -0.0 1.0 -0.0
outer loop
vertex -0.433012701892216 5.50862896058015 -4.75
vertex -3.49999999999999 5.50862896058015 -9.0
vertex -3.50524517532408 5.50862896058015 -0.49
endloop
endfacet
facet normal -0.0 1.0 -0.0
outer loop
vertex 3.5 5.50862896058015 -9.0
vertex -0.35355339059327 5.50862896058015 -4.85355339059327
vertex -0.249999999999996 5.50862896058015 -4.93301270189222
endloop
endfacet
facet normal -0.0 1.0 -0.0
outer loop
vertex 3.5 5.50862896058015 -9.0
vertex -0.249999999999996 5.50862896058015 -4.93301270189222
vertex -0.129409522551257 5.50862896058015 -4.98296291314453
endloop
endfacet
facet normal -0.0 1.0 -0.0
outer loop
vertex 3.5 5.50862896058015 -9.0
vertex -0.129409522551257 5.50862896058015 -4.98296291314453
vertex 3.61680661312092e-015 5.50862896058015 -5.0
endloop
endfacet
facet normal -0.0 1.0 -0.0
outer loop
vertex -0.433012701892216 5.50862896058015 -4.75
vertex -3.50524517532408 5.50862896058015 -0.49
vertex -0.48296291314453 5.50862896058015 -4.62940952255126
endloop
endfacet
facet normal -0.0 1.0 -0.0
outer loop
vertex -0.48296291314453 5.50862896058015 -4.62940952255126
vertex -3.50524517532408 5.50862896058015 -0.49
vertex -0.499999999999996 5.50862896058015 -4.5
endloop
endfacet
facet normal -0.0 1.0 -0.0
outer loop
vertex -0.499999999999996 5.50862896058015 -4.5
vertex -3.50524517532408 5.50862896058015 -0.49
vertex -0.482962913144531 5.50862896058015 -4.37059047744874
endloop
endfacet
facet normal -0.0 1.0 -0.0
outer loop
vertex -0.482962913144531 5.50862896058015 -4.37059047744874
vertex -3.50524517532408 5.50862896058015 -0.49
vertex -0.499999999999997 5.50862896058015 -1.0
endloop
endfacet
facet normal -0.0 1.0 -0.0
outer loop
vertex -0.499999999999997 5.50862896058015 -1.0
vertex -3.50524517532408 5.50862896058015 -0.49
vertex 0.500000000000003 5.50862896058015 -1.0
endloop
endfacet
facet normal -0.0 1.0 -0.0
outer loop
vertex 3.5 5.50862896058015 -9.0
vertex 0.433012701892223 5.50862896058015 -4.75
vertex 3.50524517532408 5.50862896058015 -0.49
endloop
endfacet
facet normal -0.0 1.0 -0.0
outer loop
vertex 0.433012701892223 5.50862896058015 -4.75
vertex 3.5 5.50862896058015 -9.0
vertex 0.353553390593277 5.50862896058015 -4.85355339059327
endloop
endfacet
facet normal -0.0 1.0 -0.0
outer loop
vertex 0.353553390593277 5.50862896058015 -4.85355339059327
vertex 3.5 5.50862896058015 -9.0
vertex 0.250000000000004 5.50862896058015 -4.93301270189222
endloop
endfacet
facet normal -0.0 1.0 -0.0
outer loop
vertex 0.250000000000004 5.50862896058015 -4.93301270189222
vertex 3.5 5.50862896058015 -9.0
vertex 0.129409522551264 5.50862896058015 -4.98296291314453
endloop
endfacet
facet normal -0.0 1.0 -0.0
outer loop
vertex 0.129409522551264 5.50862896058015 -4.98296291314453
vertex 3.5 5.50862896058015 -9.0
vertex 3.61680661312092e-015 5.50862896058015 -5.0
endloop
endfacet
facet normal -0.0 1.0 -0.0
outer loop
vertex 3.50524517532408 5.50862896058015 -0.49
vertex 0.433012701892223 5.50862896058015 -4.75
vertex 0.482962913144538 5.50862896058015 -4.62940952255126
endloop
endfacet
facet normal -0.0 1.0 -0.0
outer loop
vertex 3.50524517532408 5.50862896058015 -0.49
vertex 0.482962913144538 5.50862896058015 -4.62940952255126
vertex 0.500000000000003 5.50862896058015 -4.5
endloop
endfacet
facet normal -0.0 1.0 -0.0
outer loop
vertex 3.50524517532408 5.50862896058015 -0.49
vertex 0.500000000000003 5.50862896058015 -4.5
vertex 0.482962913144538 5.50862896058015 -4.37059047744874
endloop
endfacet
facet normal -0.0 1.0 -0.0
outer loop
vertex 3.50524517532408 5.50862896058015 -0.49
vertex 0.482962913144538 5.50862896058015 -4.37059047744874
vertex 0.500000000000003 5.50862896058015 -1.0
endloop
endfacet
facet normal -0.0 1.0 -0.0
outer loop
vertex 3.50524517532408 5.50862896058015 -0.49
vertex 0.500000000000003 5.50862896058015 -1.0
vertex -3.50524517532408 5.50862896058015 -0.49
endloop
endfacet
facet normal 1.76247905159243e-016 -3.52495810318487e-016 -1.0
outer loop
vertex 0.500000000000003 5.50862896058015 -1.0
vertex -0.499999999999997 3.00862896058015 -1.0
vertex -0.499999999999997 5.50862896058015 -1.0
endloop
endfacet
facet normal 1.76247905159243e-016 -3.52495810318487e-016 -1.0
outer loop
vertex -0.499999999999997 3.00862896058015 -1.0
vertex 0.500000000000003 5.50862896058015 -1.0
vertex 0.500000000000003 3.00862896058015 -0.999999999999999
endloop
endfacet
facet normal 0.0 -1.0 0.0
outer loop
vertex 3.5 -5.50862896058015 -8.99999999999999
vertex 0.353553390593277 -5.50862896058015 -4.85355339059327
vertex -3.49999999999999 -5.50862896058015 -8.99999999999999
endloop
endfacet
facet normal 0.0 -1.0 0.0
outer loop
vertex 0.353553390593277 -5.50862896058015 -4.85355339059327
vertex 3.5 -5.50862896058015 -8.99999999999999
vertex 0.433012701892223 -5.50862896058015 -4.75
endloop
endfacet
facet normal 0.0 -1.0 0.0
outer loop
vertex 0.433012701892223 -5.50862896058015 -4.75
vertex 3.5 -5.50862896058015 -8.99999999999999
vertex 0.482962913144537 -5.50862896058015 -4.62940952255126
endloop
endfacet
facet normal 0.0 -1.0 0.0
outer loop
vertex 0.482962913144537 -5.50862896058015 -4.62940952255126
vertex 3.5 -5.50862896058015 -8.99999999999999
vertex 3.50862896058015 -5.50862896058015 5.0
endloop
endfacet
facet normal 0.0 -1.0 0.0
outer loop
vertex -3.49999999999999 -5.50862896058015 -8.99999999999999
vertex 0.353553390593277 -5.50862896058015 -4.85355339059327
vertex 0.250000000000003 -5.50862896058015 -4.93301270189222
endloop
endfacet
facet normal 0.0 -1.0 0.0
outer loop
vertex -3.49999999999999 -5.50862896058015 -8.99999999999999
vertex 0.250000000000003 -5.50862896058015 -4.93301270189222
vertex 0.129409522551264 -5.50862896058015 -4.98296291314453
endloop
endfacet
facet normal 0.0 -1.0 0.0
outer loop
vertex -3.49999999999999 -5.50862896058015 -8.99999999999999
vertex 0.129409522551264 -5.50862896058015 -4.98296291314453
vertex 3.42484287807379e-015 -5.50862896058015 -5.0
endloop
endfacet
facet normal 0.0 -1.0 0.0
outer loop
vertex 0.482962913144537 -5.50862896058015 -4.62940952255126
vertex 3.50862896058015 -5.50862896058015 5.0
vertex 0.500000000000003 -5.50862896058015 -4.5
endloop
endfacet
facet normal 0.0 -1.0 0.0
outer loop
vertex 0.500000000000003 -5.50862896058015 -4.5
vertex 3.50862896058015 -5.50862896058015 5.0
vertex 0.482962913144538 -5.50862896058015 -4.37059047744874
endloop
endfacet
facet normal 0.0 -1.0 0.0
outer loop
vertex 0.482962913144538 -5.50862896058015 -4.37059047744874
vertex 3.50862896058015 -5.50862896058015 5.0
vertex 0.500000000000003 -5.50862896058015 2.0
endloop
endfacet
facet normal 0.0 -1.0 0.0
outer loop
vertex 0.500000000000003 -5.50862896058015 2.0
vertex 3.50862896058015 -5.50862896058015 5.0
vertex -0.499999999999996 -5.50862896058015 2.0
endloop
endfacet
facet normal 0.0 -1.0 0.0
outer loop
vertex -3.49999999999999 -5.50862896058015 -8.99999999999999
vertex -0.482962913144531 -5.50862896058015 -4.62940952255126
vertex -3.50862896058015 -5.50862896058015 5.0
endloop
endfacet
facet normal 0.0 -1.0 0.0
outer loop
vertex -0.482962913144531 -5.50862896058015 -4.62940952255126
vertex -3.49999999999999 -5.50862896058015 -8.99999999999999
vertex -0.433012701892216 -5.50862896058015 -4.75
endloop
endfacet
facet normal 0.0 -1.0 0.0
outer loop
vertex -0.433012701892216 -5.50862896058015 -4.75
vertex -3.49999999999999 -5.50862896058015 -8.99999999999999
vertex -0.35355339059327 -5.50862896058015 -4.85355339059327
endloop
endfacet
facet normal 0.0 -1.0 0.0
outer loop
vertex -0.35355339059327 -5.50862896058015 -4.85355339059327
vertex -3.49999999999999 -5.50862896058015 -8.99999999999999
vertex -0.249999999999997 -5.50862896058015 -4.93301270189222
endloop
endfacet
facet normal 0.0 -1.0 0.0
outer loop
vertex -0.249999999999997 -5.50862896058015 -4.93301270189222
vertex -3.49999999999999 -5.50862896058015 -8.99999999999999
vertex -0.129409522551257 -5.50862896058015 -4.98296291314453
endloop
endfacet
facet normal 0.0 -1.0 0.0
outer loop
vertex -0.129409522551257 -5.50862896058015 -4.98296291314453
vertex -3.49999999999999 -5.50862896058015 -8.99999999999999
vertex 3.42484287807379e-015 -5.50862896058015 -5.0
endloop
endfacet
facet normal 0.0 -1.0 0.0
outer loop
vertex -3.50862896058015 -5.50862896058015 5.0
vertex -0.482962913144531 -5.50862896058015 -4.62940952255126
vertex -0.499999999999996 -5.50862896058015 -4.5
endloop
endfacet
facet normal 0.0 -1.0 0.0
outer loop
vertex -3.50862896058015 -5.50862896058015 5.0
vertex -0.499999999999996 -5.50862896058015 -4.5
vertex -0.48296291314453 -5.50862896058015 -4.37059047744874
endloop
endfacet
facet normal 0.0 -1.0 0.0
outer loop
vertex -3.50862896058015 -5.50862896058015 5.0
vertex -0.48296291314453 -5.50862896058015 -4.37059047744874
vertex -0.499999999999996 -5.50862896058015 2.0
endloop
endfacet
facet normal 0.0 -1.0 0.0
outer loop
vertex -3.50862896058015 -5.50862896058015 5.0
vertex -0.499999999999996 -5.50862896058015 2.0
vertex 3.50862896058015 -5.50862896058015 5.0
endloop
endfacet
facet normal -0.999996423987951 3.51409075369494e-017 0.00267432445876838
outer loop
vertex 0.500000000000004 -3.00862896058015 2.0
vertex 0.482962913144538 -5.50862896058015 -4.37059047744874
vertex 0.500000000000003 -5.50862896058015 2.0
endloop
endfacet
facet normal -0.999996423987951 3.51409075369494e-017 0.00267432445876838
outer loop
vertex 0.482962913144538 -5.50862896058015 -4.37059047744874
vertex 0.500000000000004 -3.00862896058015 2.0
vertex 0.482962913144538 -3.00862896058015 -4.37059047744874
endloop
endfacet
facet normal -3.13329609171989e-016 -1.0 -4.37124660371104e-017
outer loop
vertex 0.500000000000004 -3.00862896058015 2.0
vertex 0.433012701892223 -3.00862896058015 -4.25
vertex 0.482962913144538 -3.00862896058015 -4.37059047744874
endloop
endfacet
facet normal -3.13329609171989e-016 -1.0 -4.37124660371104e-017
outer loop
vertex 0.433012701892223 -3.00862896058015 -4.25
vertex 0.500000000000004 -3.00862896058015 2.0
vertex 0.353553390593277 -3.00862896058015 -4.14644660940673
endloop
endfacet
facet normal -3.13329609171989e-016 -1.0 -4.37124660371104e-017
outer loop
vertex 0.353553390593277 -3.00862896058015 -4.14644660940673
vertex 0.500000000000004 -3.00862896058015 2.0
vertex 0.250000000000004 -3.00862896058015 -4.06698729810778
endloop
endfacet
facet normal -3.13329609171989e-016 -1.0 -4.37124660371104e-017
outer loop
vertex 0.250000000000004 -3.00862896058015 -4.06698729810778
vertex 0.500000000000004 -3.00862896058015 2.0
vertex 0.129409522551264 -3.00862896058015 -4.01703708685547
endloop
endfacet
facet normal -3.13329609171989e-016 -1.0 -4.37124660371104e-017
outer loop
vertex 0.129409522551264 -3.00862896058015 -4.01703708685547
vertex 0.500000000000004 -3.00862896058015 2.0
vertex 3.65628736182598e-015 -3.00862896058015 -4.0
endloop
endfacet
facet normal -3.13329609171989e-016 -1.0 -4.37124660371104e-017
outer loop
vertex -0.433012701892216 -3.00862896058015 -4.25
vertex -0.499999999999996 -3.00862896058015 2.0
vertex -0.48296291314453 -3.00862896058015 -4.37059047744874
endloop
endfacet
facet normal -3.13329609171989e-016 -1.0 -4.37124660371104e-017
outer loop
vertex -0.499999999999996 -3.00862896058015 2.0
vertex -0.433012701892216 -3.00862896058015 -4.25
vertex -0.35355339059327 -3.00862896058015 -4.14644660940673
endloop
endfacet
facet normal -3.13329609171989e-016 -1.0 -4.37124660371104e-017
outer loop
vertex -0.499999999999996 -3.00862896058015 2.0
vertex -0.35355339059327 -3.00862896058015 -4.14644660940673
vertex -0.249999999999996 -3.00862896058015 -4.06698729810778
endloop
endfacet
facet normal -3.13329609171989e-016 -1.0 -4.37124660371104e-017
outer loop
vertex -0.499999999999996 -3.00862896058015 2.0
vertex -0.249999999999996 -3.00862896058015 -4.06698729810778
vertex -0.129409522551257 -3.00862896058015 -4.01703708685547
endloop
endfacet
facet normal -3.13329609171989e-016 -1.0 -4.37124660371104e-017
outer loop
vertex -0.499999999999996 -3.00862896058015 2.0
vertex -0.129409522551257 -3.00862896058015 -4.01703708685547
vertex 3.65628736182598e-015 -3.00862896058015 -4.0
endloop
endfacet
facet normal -3.13329609171989e-016 -1.0 -4.37124660371104e-017
outer loop
vertex -0.499999999999996 -3.00862896058015 2.0
vertex 3.65628736182598e-015 -3.00862896058015 -4.0
vertex 0.500000000000004 -3.00862896058015 2.0
endloop
endfacet
facet normal -0.0 7.01963015044204e-016 1.0
outer loop
vertex 3.50061635432716 -2.00862896058015 -7.99999999999999
vertex -3.50061635432715 2.00862896058015 -8.0
vertex -3.50061635432715 -2.00862896058015 -7.99999999999999
endloop
endfacet
facet normal -0.0 7.01963015044204e-016 1.0
outer loop
vertex -3.50061635432715 2.00862896058015 -8.0
vertex 3.50061635432716 -2.00862896058015 -7.99999999999999
vertex 3.50061635432716 2.00862896058015 -8.0
endloop
endfacet
facet normal -9.03617675530118e-017 -5.13103052630041e-016 -1.0
outer loop
vertex 3.5 5.50862896058015 -9.0
vertex -3.49999999999999 -5.50862896058015 -8.99999999999999
vertex -3.49999999999999 5.50862896058015 -9.0
endloop
endfacet
facet normal -9.03617675530118e-017 -5.13103052630041e-016 -1.0
outer loop
vertex -3.49999999999999 -5.50862896058015 -8.99999999999999
vertex 3.5 5.50862896058015 -9.0
vertex 3.5 -5.50862896058015 -8.99999999999999
endloop
endfacet
facet normal 0.0 0.0 -1.0
outer loop
vertex -0.499999999999996 -3.00862896058015 2.0
vertex 0.500000000000003 -5.50862896058015 2.0
vertex -0.499999999999996 -5.50862896058015 2.0
endloop
endfacet
facet normal 0.0 0.0 -1.0
outer loop
vertex 0.500000000000003 -5.50862896058015 2.0
vertex -0.499999999999996 -3.00862896058015 2.0
vertex 0.500000000000004 -3.00862896058015 2.0
endloop
endfacet
facet normal 0.999996423987951 -3.56735499841374e-017 0.00267432445876835
outer loop
vertex -0.48296291314453 -3.00862896058015 -4.37059047744874
vertex -0.499999999999996 -5.50862896058015 2.0
vertex -0.48296291314453 -5.50862896058015 -4.37059047744874
endloop
endfacet
facet normal 0.999996423987951 -3.56735499841374e-017 0.00267432445876835
outer loop
vertex -0.499999999999996 -5.50862896058015 2.0
vertex -0.48296291314453 -3.00862896058015 -4.37059047744874
vertex -0.499999999999996 -3.00862896058015 2.0
endloop
endfacet
facet normal 0.752576694706878 -0.0 -0.658504607868518
outer loop
vertex 1.75 2.00862896058015 -1.0
vertex 3.50616788796232 -2.00862896058015 1.00704901481408
vertex 1.75 -2.00862896058015 -1.0
endloop
endfacet
facet normal 0.752576694706878 -0.0 -0.658504607868518
outer loop
vertex 3.50616788796232 -2.00862896058015 1.00704901481408
vertex 1.75 2.00862896058015 -1.0
vertex 3.50616788796232 2.00862896058015 1.00704901481408
endloop
endfacet
facet normal -0.0 1.0 -0.0
outer loop
vertex -3.50061635432715 -2.00862896058015 -7.99999999999999
vertex -0.35355339059327 -2.00862896058015 -4.85355339059327
vertex 3.50061635432716 -2.00862896058015 -7.99999999999999
endloop
endfacet
facet normal -0.0 1.0 -0.0
outer loop
vertex -0.35355339059327 -2.00862896058015 -4.85355339059327
vertex -3.50061635432715 -2.00862896058015 -7.99999999999999
vertex -0.433012701892216 -2.00862896058015 -4.75
endloop
endfacet
facet normal -0.0 1.0 -0.0
outer loop
vertex -0.433012701892216 -2.00862896058015 -4.75
vertex -3.50061635432715 -2.00862896058015 -7.99999999999999
vertex -3.50616701340399 -2.00862896058015 1.00563009344732
endloop
endfacet
facet normal -0.0 1.0 -0.0
outer loop
vertex 3.50061635432716 -2.00862896058015 -7.99999999999999
vertex -0.35355339059327 -2.00862896058015 -4.85355339059327
vertex -0.249999999999997 -2.00862896058015 -4.93301270189222
endloop
endfacet
facet normal -0.0 1.0 -0.0
outer loop
vertex 3.50061635432716 -2.00862896058015 -7.99999999999999
vertex -0.249999999999997 -2.00862896058015 -4.93301270189222
vertex -0.129409522551257 -2.00862896058015 -4.98296291314453
endloop
endfacet
facet normal -0.0 1.0 -0.0
outer loop
vertex 3.50061635432716 -2.00862896058015 -7.99999999999999
vertex -0.129409522551257 -2.00862896058015 -4.98296291314453
vertex 3.43310959324882e-015 -2.00862896058015 -5.0
endloop
endfacet
facet normal -0.0 1.0 -0.0
outer loop
vertex -0.433012701892216 -2.00862896058015 -4.75
vertex -3.50616701340399 -2.00862896058015 1.00563009344732
vertex -0.482962913144531 -2.00862896058015 -4.62940952255126
endloop
endfacet
facet normal -0.0 1.0 -0.0
outer loop
vertex -0.482962913144531 -2.00862896058015 -4.62940952255126
vertex -3.50616701340399 -2.00862896058015 1.00563009344732
vertex -0.499999999999996 -2.00862896058015 -4.5
endloop
endfacet
facet normal -0.0 1.0 -0.0
outer loop
vertex -0.499999999999996 -2.00862896058015 -4.5
vertex -3.50616701340399 -2.00862896058015 1.00563009344732
vertex -0.48296291314453 -2.00862896058015 -4.37059047744874
endloop
endfacet
facet normal -0.0 1.0 -0.0
outer loop
vertex -0.48296291314453 -2.00862896058015 -4.37059047744874
vertex -3.50616701340399 -2.00862896058015 1.00563009344732
vertex -0.433012701892216 -2.00862896058015 -4.25
endloop
endfacet
facet normal -0.0 1.0 -0.0
outer loop
vertex -0.433012701892216 -2.00862896058015 -4.25
vertex -3.50616701340399 -2.00862896058015 1.00563009344732
vertex -0.35355339059327 -2.00862896058015 -4.14644660940673
endloop
endfacet
facet normal -0.0 1.0 -0.0
outer loop
vertex -0.35355339059327 -2.00862896058015 -4.14644660940673
vertex -3.50616701340399 -2.00862896058015 1.00563009344732
vertex -0.249999999999996 -2.00862896058015 -4.06698729810778
endloop
endfacet
facet normal -0.0 1.0 -0.0
outer loop
vertex -0.249999999999996 -2.00862896058015 -4.06698729810778
vertex -3.50616701340399 -2.00862896058015 1.00563009344732
vertex -0.129409522551257 -2.00862896058015 -4.01703708685547
endloop
endfacet
facet normal -0.0 1.0 -0.0
outer loop
vertex -0.129409522551257 -2.00862896058015 -4.01703708685547
vertex -3.50616701340399 -2.00862896058015 1.00563009344732
vertex 3.55557427316356e-015 -2.00862896058015 -4.0
endloop
endfacet
facet normal -0.0 1.0 -0.0
outer loop
vertex 3.55557427316356e-015 -2.00862896058015 -4.0
vertex -3.50616701340399 -2.00862896058015 1.00563009344732
vertex -1.75 -2.00862896058015 -1.0
endloop
endfacet
facet normal -0.0 1.0 -0.0
outer loop
vertex 3.50061635432716 -2.00862896058015 -7.99999999999999
vertex 0.433012701892223 -2.00862896058015 -4.75
vertex 3.50616788796232 -2.00862896058015 1.00704901481408
endloop
endfacet
facet normal -0.0 1.0 -0.0
outer loop
vertex 0.433012701892223 -2.00862896058015 -4.75
vertex 3.50061635432716 -2.00862896058015 -7.99999999999999
vertex 0.353553390593277 -2.00862896058015 -4.85355339059327
endloop
endfacet
facet normal -0.0 1.0 -0.0
outer loop
vertex 0.353553390593277 -2.00862896058015 -4.85355339059327
vertex 3.50061635432716 -2.00862896058015 -7.99999999999999
vertex 0.250000000000003 -2.00862896058015 -4.93301270189222
endloop
endfacet
facet normal -0.0 1.0 -0.0
outer loop
vertex 0.250000000000003 -2.00862896058015 -4.93301270189222
vertex 3.50061635432716 -2.00862896058015 -7.99999999999999
vertex 0.129409522551264 -2.00862896058015 -4.98296291314453
endloop
endfacet
facet normal -0.0 1.0 -0.0
outer loop
vertex 0.129409522551264 -2.00862896058015 -4.98296291314453
vertex 3.50061635432716 -2.00862896058015 -7.99999999999999
vertex 3.43310959324882e-015 -2.00862896058015 -5.0
endloop
endfacet
facet normal -0.0 1.0 -0.0
outer loop
vertex 3.50616788796232 -2.00862896058015 1.00704901481408
vertex 0.433012701892223 -2.00862896058015 -4.75
vertex 0.482962913144537 -2.00862896058015 -4.62940952255126
endloop
endfacet
facet normal -0.0 1.0 -0.0
outer loop
vertex 3.50616788796232 -2.00862896058015 1.00704901481408
vertex 0.482962913144537 -2.00862896058015 -4.62940952255126
vertex 0.500000000000003 -2.00862896058015 -4.5
endloop
endfacet
facet normal -0.0 1.0 -0.0
outer loop
vertex 3.50616788796232 -2.00862896058015 1.00704901481408
vertex 0.500000000000003 -2.00862896058015 -4.5
vertex 0.482962913144538 -2.00862896058015 -4.37059047744874
endloop
endfacet
facet normal -0.0 1.0 -0.0
outer loop
vertex 3.50616788796232 -2.00862896058015 1.00704901481408
vertex 0.482962913144538 -2.00862896058015 -4.37059047744874
vertex 0.433012701892223 -2.00862896058015 -4.25
endloop
endfacet
facet normal -0.0 1.0 -0.0
outer loop
vertex 3.50616788796232 -2.00862896058015 1.00704901481408
vertex 0.433012701892223 -2.00862896058015 -4.25
vertex 0.353553390593277 -2.00862896058015 -4.14644660940673
endloop
endfacet
facet normal -0.0 1.0 -0.0
outer loop
vertex 3.50616788796232 -2.00862896058015 1.00704901481408
vertex 0.353553390593277 -2.00862896058015 -4.14644660940673
vertex 0.250000000000004 -2.00862896058015 -4.06698729810778
endloop
endfacet
facet normal -0.0 1.0 -0.0
outer loop
vertex 3.50616788796232 -2.00862896058015 1.00704901481408
vertex 0.250000000000004 -2.00862896058015 -4.06698729810778
vertex 0.129409522551264 -2.00862896058015 -4.01703708685547
endloop
endfacet
facet normal -0.0 1.0 -0.0
outer loop
vertex 3.50616788796232 -2.00862896058015 1.00704901481408
vertex 0.129409522551264 -2.00862896058015 -4.01703708685547
vertex 3.55557427316356e-015 -2.00862896058015 -4.0
endloop
endfacet
facet normal -0.0 1.0 -0.0
outer loop
vertex 3.50616788796232 -2.00862896058015 1.00704901481408
vertex 3.55557427316356e-015 -2.00862896058015 -4.0
vertex 1.75 -2.00862896058015 -1.0
endloop
endfacet
facet normal -0.0 1.0 -0.0
outer loop
vertex 1.75 -2.00862896058015 -1.0
vertex 3.55557427316356e-015 -2.00862896058015 -4.0
vertex -1.75 -2.00862896058015 -1.0
endloop
endfacet
facet normal 0.0 -1.0 0.0
outer loop
vertex 3.50061635432716 2.00862896058015 -8.0
vertex 0.353553390593277 2.00862896058015 -4.85355339059327
vertex -3.50061635432715 2.00862896058015 -8.0
endloop
endfacet
facet normal 0.0 -1.0 0.0
outer loop
vertex 0.353553390593277 2.00862896058015 -4.85355339059327
vertex 3.50061635432716 2.00862896058015 -8.0
vertex 0.433012701892223 2.00862896058015 -4.75
endloop
endfacet
facet normal 0.0 -1.0 0.0
outer loop
vertex 0.433012701892223 2.00862896058015 -4.75
vertex 3.50061635432716 2.00862896058015 -8.0
vertex 3.50616788796232 2.00862896058015 1.00704901481408
endloop
endfacet
facet normal 0.0 -1.0 0.0
outer loop
vertex -3.50061635432715 2.00862896058015 -8.0
vertex 0.353553390593277 2.00862896058015 -4.85355339059327
vertex 0.250000000000004 2.00862896058015 -4.93301270189222
endloop
endfacet
facet normal 0.0 -1.0 0.0
outer loop
vertex -3.50061635432715 2.00862896058015 -8.0
vertex 0.250000000000004 2.00862896058015 -4.93301270189222
vertex 0.129409522551264 2.00862896058015 -4.98296291314453
endloop
endfacet
facet normal 0.0 -1.0 0.0
outer loop
vertex -3.50061635432715 2.00862896058015 -8.0
vertex 0.129409522551264 2.00862896058015 -4.98296291314453
vertex 3.61680661312092e-015 2.00862896058015 -5.0
endloop
endfacet
facet normal 0.0 -1.0 0.0
outer loop
vertex 0.433012701892223 2.00862896058015 -4.75
vertex 3.50616788796232 2.00862896058015 1.00704901481408
vertex 0.482962913144538 2.00862896058015 -4.62940952255126
endloop
endfacet
facet normal 0.0 -1.0 0.0
outer loop
vertex 0.482962913144538 2.00862896058015 -4.62940952255126
vertex 3.50616788796232 2.00862896058015 1.00704901481408
vertex 0.500000000000003 2.00862896058015 -4.5
endloop
endfacet
facet normal 0.0 -1.0 0.0
outer loop
vertex 0.500000000000003 2.00862896058015 -4.5
vertex 3.50616788796232 2.00862896058015 1.00704901481408
vertex 0.482962913144538 2.00862896058015 -4.37059047744874
endloop
endfacet
facet normal 0.0 -1.0 0.0
outer loop
vertex 0.482962913144538 2.00862896058015 -4.37059047744874
vertex 3.50616788796232 2.00862896058015 1.00704901481408
vertex 0.433012701892223 2.00862896058015 -4.25
endloop
endfacet
facet normal 0.0 -1.0 0.0
outer loop
vertex 0.433012701892223 2.00862896058015 -4.25
vertex 3.50616788796232 2.00862896058015 1.00704901481408
vertex 0.353553390593277 2.00862896058015 -4.14644660940673
endloop
endfacet
facet normal 0.0 -1.0 0.0
outer loop
vertex 0.353553390593277 2.00862896058015 -4.14644660940673
vertex 3.50616788796232 2.00862896058015 1.00704901481408
vertex 0.250000000000003 2.00862896058015 -4.06698729810778
endloop
endfacet
facet normal 0.0 -1.0 0.0
outer loop
vertex 0.250000000000003 2.00862896058015 -4.06698729810778
vertex 3.50616788796232 2.00862896058015 1.00704901481408
vertex 0.129409522551264 2.00862896058015 -4.01703708685547
endloop
endfacet
facet normal 0.0 -1.0 0.0
outer loop
vertex 0.129409522551264 2.00862896058015 -4.01703708685547
vertex 3.50616788796232 2.00862896058015 1.00704901481408
vertex 3.49434193320619e-015 2.00862896058015 -4.0
endloop
endfacet
facet normal 0.0 -1.0 0.0
outer loop
vertex 3.49434193320619e-015 2.00862896058015 -4.0
vertex 3.50616788796232 2.00862896058015 1.00704901481408
vertex 1.75 2.00862896058015 -1.0
endloop
endfacet
facet normal 0.0 -1.0 0.0
outer loop
vertex -3.50061635432715 2.00862896058015 -8.0
vertex -0.433012701892216 2.00862896058015 -4.75
vertex -3.50616701340399 2.00862896058015 1.00563009344732
endloop
endfacet
facet normal 0.0 -1.0 0.0
outer loop
vertex -0.433012701892216 2.00862896058015 -4.75
vertex -3.50061635432715 2.00862896058015 -8.0
vertex -0.35355339059327 2.00862896058015 -4.85355339059327
endloop
endfacet
facet normal 0.0 -1.0 0.0
outer loop
vertex -0.35355339059327 2.00862896058015 -4.85355339059327
vertex -3.50061635432715 2.00862896058015 -8.0
vertex -0.249999999999996 2.00862896058015 -4.93301270189222
endloop
endfacet
facet normal 0.0 -1.0 0.0
outer loop
vertex -0.249999999999996 2.00862896058015 -4.93301270189222
vertex -3.50061635432715 2.00862896058015 -8.0
vertex -0.129409522551257 2.00862896058015 -4.98296291314453
endloop
endfacet
facet normal 0.0 -1.0 0.0
outer loop
vertex -0.129409522551257 2.00862896058015 -4.98296291314453
vertex -3.50061635432715 2.00862896058015 -8.0
vertex 3.61680661312092e-015 2.00862896058015 -5.0
endloop
endfacet
facet normal 0.0 -1.0 0.0
outer loop
vertex -3.50616701340399 2.00862896058015 1.00563009344732
vertex -0.433012701892216 2.00862896058015 -4.75
vertex -0.48296291314453 2.00862896058015 -4.62940952255126
endloop
endfacet
facet normal 0.0 -1.0 0.0
outer loop
vertex -3.50616701340399 2.00862896058015 1.00563009344732
vertex -0.48296291314453 2.00862896058015 -4.62940952255126
vertex -0.499999999999996 2.00862896058015 -4.5
endloop
endfacet
facet normal 0.0 -1.0 0.0
outer loop
vertex -3.50616701340399 2.00862896058015 1.00563009344732
vertex -0.499999999999996 2.00862896058015 -4.5
vertex -0.482962913144531 2.00862896058015 -4.37059047744874
endloop
endfacet
facet normal 0.0 -1.0 0.0
outer loop
vertex -3.50616701340399 2.00862896058015 1.00563009344732
vertex -0.482962913144531 2.00862896058015 -4.37059047744874
vertex -0.433012701892216 2.00862896058015 -4.25
endloop
endfacet
facet normal 0.0 -1.0 0.0
outer loop
vertex -3.50616701340399 2.00862896058015 1.00563009344732
vertex -0.433012701892216 2.00862896058015 -4.25
vertex -0.35355339059327 2.00862896058015 -4.14644660940673
endloop
endfacet
facet normal 0.0 -1.0 0.0
outer loop
vertex -3.50616701340399 2.00862896058015 1.00563009344732
vertex -0.35355339059327 2.00862896058015 -4.14644660940673
vertex -0.249999999999997 2.00862896058015 -4.06698729810778
endloop
endfacet
facet normal 0.0 -1.0 0.0
outer loop
vertex -3.50616701340399 2.00862896058015 1.00563009344732
vertex -0.249999999999997 2.00862896058015 -4.06698729810778
vertex -0.129409522551257 2.00862896058015 -4.01703708685547
endloop
endfacet
facet normal 0.0 -1.0 0.0
outer loop
vertex -3.50616701340399 2.00862896058015 1.00563009344732
vertex -0.129409522551257 2.00862896058015 -4.01703708685547
vertex 3.49434193320619e-015 2.00862896058015 -4.0
endloop
endfacet
facet normal 0.0 -1.0 0.0
outer loop
vertex -3.50616701340399 2.00862896058015 1.00563009344732
vertex 3.49434193320619e-015 2.00862896058015 -4.0
vertex -1.75 2.00862896058015 -1.0
endloop
endfacet
facet normal 0.0 -1.0 0.0
outer loop
vertex -1.75 2.00862896058015 -1.0
vertex 3.49434193320619e-015 2.00862896058015 -4.0
vertex 1.75 2.00862896058015 -1.0
endloop
endfacet
facet normal -0.752346007434747 0.0 -0.65876815731864
outer loop
vertex -3.50616701340399 2.00862896058015 1.00563009344732
vertex -1.75 -2.00862896058015 -1.0
vertex -3.50616701340399 -2.00862896058015 1.00563009344732
endloop
endfacet
facet normal -0.752346007434747 0.0 -0.65876815731864
outer loop
vertex -1.75 -2.00862896058015 -1.0
vertex -3.50616701340399 2.00862896058015 1.00563009344732
vertex -1.75 2.00862896058015 -1.0
endloop
endfacet
facet normal 0.0 0.0 -1.0
outer loop
vertex 1.75 2.00862896058015 -1.0
vertex -1.75 -2.00862896058015 -1.0
vertex -1.75 2.00862896058015 -1.0
endloop
endfacet
facet normal 0.0 0.0 -1.0
outer loop
vertex -1.75 -2.00862896058015 -1.0
vertex 1.75 2.00862896058015 -1.0
vertex 1.75 -2.00862896058015 -1.0
endloop
endfacet
facet normal 0.0 1.0 0.0
outer loop
vertex -3.50524517532408 9.00862896058015 -0.49
vertex -0.8 9.00862896058015 0.0500000000000001
vertex 3.50524517532408 9.00862896058015 -0.49
endloop
endfacet
facet normal 0.0 1.0 0.0
outer loop
vertex -0.8 9.00862896058015 0.0500000000000001
vertex -3.50524517532408 9.00862896058015 -0.49
vertex -3.50524517532408 9.00862896058015 4.99
endloop
endfacet
facet normal 0.0 1.0 0.0
outer loop
vertex -0.8 9.00862896058015 0.0500000000000001
vertex -3.50524517532408 9.00862896058015 4.99
vertex -0.8 9.00862896058015 4.25
endloop
endfacet
facet normal 0.0 1.0 0.0
outer loop
vertex -0.8 9.00862896058015 4.25
vertex -3.50524517532408 9.00862896058015 4.99
vertex 3.50524517532408 9.00862896058015 4.99
endloop
endfacet
facet normal 0.0 1.0 0.0
outer loop
vertex 3.50524517532408 9.00862896058015 -0.49
vertex 0.8 9.00862896058015 0.0500000000000001
vertex 3.50524517532408 9.00862896058015 4.99
endloop
endfacet
facet normal 0.0 1.0 0.0
outer loop
vertex 0.8 9.00862896058015 0.0500000000000001
vertex 3.50524517532408 9.00862896058015 -0.49
vertex -0.8 9.00862896058015 0.0500000000000001
endloop
endfacet
facet normal 0.0 1.0 0.0
outer loop
vertex 3.50524517532408 9.00862896058015 4.99
vertex 0.8 9.00862896058015 0.0500000000000001
vertex 0.8 9.00862896058015 4.25
endloop
endfacet
facet normal 0.0 1.0 0.0
outer loop
vertex 3.50524517532408 9.00862896058015 4.99
vertex 0.8 9.00862896058015 4.25
vertex -0.8 9.00862896058015 4.25
endloop
endfacet
facet normal 0.0 0.0 -1.0
outer loop
vertex 3.50524517532408 9.00862896058015 -0.49
vertex -3.50524517532408 5.50862896058015 -0.49
vertex -3.50524517532408 9.00862896058015 -0.49
endloop
endfacet
facet normal 0.0 0.0 -1.0
outer loop
vertex -3.50524517532408 5.50862896058015 -0.49
vertex 3.50524517532408 9.00862896058015 -0.49
vertex 3.50524517532408 5.50862896058015 -0.49
endloop
endfacet
facet normal -0.999999884301839 7.8625694441669e-005 -0.00047456749609828
outer loop
vertex -3.50862896058015 -5.50862896058015 5.0
vertex -3.50616701340399 -2.00862896058015 1.00563009344732
vertex -3.49999999999999 -5.50862896058015 -8.99999999999999
endloop
endfacet
facet normal -0.999999884301839 7.8625694441669e-005 -0.00047456749609828
outer loop
vertex -3.50616701340399 -2.00862896058015 1.00563009344732
vertex -3.50862896058015 -5.50862896058015 5.0
vertex -3.50524517532408 9.00862896058015 4.99
endloop
endfacet
facet normal -0.999999884301839 7.8625694441669e-005 -0.00047456749609828
outer loop
vertex -3.50616701340399 -2.00862896058015 1.00563009344732
vertex -3.50524517532408 9.00862896058015 4.99
vertex -3.50616701340399 2.00862896058015 1.00563009344732
endloop
endfacet
facet normal -0.999999884301839 7.8625694441669e-005 -0.00047456749609828
outer loop
vertex -3.50616701340399 2.00862896058015 1.00563009344732
vertex -3.50524517532408 9.00862896058015 4.99
vertex -3.50524517532408 5.50862896058015 -0.49
endloop
endfacet
facet normal -0.999999884301839 7.8625694441669e-005 -0.00047456749609828
outer loop
vertex -3.50616701340399 2.00862896058015 1.00563009344732
vertex -3.50524517532408 5.50862896058015 -0.49
vertex -3.50061635432715 2.00862896058015 -8.0
endloop
endfacet
facet normal -0.999999884301839 7.8625694441669e-005 -0.00047456749609828
outer loop
vertex -3.50524517532408 5.50862896058015 -0.49
vertex -3.50524517532408 9.00862896058015 4.99
vertex -3.50524517532408 9.00862896058015 -0.49
endloop
endfacet
facet normal -0.999999884301839 7.8625694441669e-005 -0.00047456749609828
outer loop
vertex -3.49999999999999 -5.50862896058015 -8.99999999999999
vertex -3.50061635432715 -2.00862896058015 -7.99999999999999
vertex -3.49999999999999 5.50862896058015 -9.0
endloop
endfacet
facet normal -0.999999884301839 7.8625694441669e-005 -0.00047456749609828
outer loop
vertex -3.50061635432715 -2.00862896058015 -7.99999999999999
vertex -3.49999999999999 -5.50862896058015 -8.99999999999999
vertex -3.50616701340399 -2.00862896058015 1.00563009344732
endloop
endfacet
facet normal -0.999999884301839 7.8625694441669e-005 -0.00047456749609828
outer loop
vertex -3.49999999999999 5.50862896058015 -9.0
vertex -3.50061635432715 -2.00862896058015 -7.99999999999999
vertex -3.50061635432715 2.00862896058015 -8.0
endloop
endfacet
facet normal -0.999999884301839 7.8625694441669e-005 -0.00047456749609828
outer loop
vertex -3.49999999999999 5.50862896058015 -9.0
vertex -3.50061635432715 2.00862896058015 -8.0
vertex -3.50524517532408 5.50862896058015 -0.49
endloop
endfacet
endsolid motor-pulley-cap
