solid rod-cap
facet normal 0.999999986712544 0.000150980184206609 -6.14808630556897e-005
outer loop
vertex 10.9890200761158 26.0159688874125 -2.49720214767025
vertex 10.9889359226819 23.018244823784 11.0137405940244
vertex 10.9894730445131 23.0159689558063 -2.49674917676528
endloop
endfacet
facet normal 0.999999986712544 0.000150980184206609 -6.14808630556897e-005
outer loop
vertex 10.9889359226819 23.018244823784 11.0137405940244
vertex 10.9890200761158 26.0159688874125 -2.49720214767025
vertex 10.9884829542845 26.0182447553901 11.0132876231194
endloop
endfacet
facet normal -7.48367093011867e-016 0.000150990233758182 0.999999988600975
outer loop
vertex 5.24863685129758 20.5156663956216 2.70887327448019
vertex 9.44780635751618 26.0163004289167 2.70804273245222
vertex 5.24780640539205 26.0156662702324 2.708042828204
endloop
endfacet
facet normal -7.48367093011867e-016 0.000150990233758182 0.999999988600975
outer loop
vertex 9.44780635751618 26.0163004289167 2.70804273245222
vertex 5.24863685129758 20.5156663956216 2.70887327448019
vertex 9.44863680342171 20.5163005543059 2.70887317872844
endloop
endfacet
facet normal 0.999999988600985 0.000150990162922036 -2.27980384923758e-008
outer loop
vertex 5.24780640539205 26.0156662702324 2.708042828204
vertex 5.24863685129758 20.5159079799956 4.30887325624174
vertex 5.24863685129758 20.5156663956216 2.70887327448019
endloop
endfacet
facet normal 0.999999988600985 0.000150990162922036 -2.27980384923758e-008
outer loop
vertex 5.24863685129758 20.5159079799956 4.30887325624174
vertex 5.24780640539205 26.0156662702324 2.708042828204
vertex 5.24780640539204 26.0159078546064 4.30804280996554
endloop
endfacet
facet normal -0.999999988600985 -0.000150990162920753 2.27980411351012e-008
outer loop
vertex 9.44863680342171 20.5165421386799 4.30887316048999
vertex 9.44780635751618 26.0163004289167 2.70804273245222
vertex 9.44863680342171 20.5163005543059 2.70887317872844
endloop
endfacet
facet normal -0.999999988600985 -0.000150990162920753 2.27980411351012e-008
outer loop
vertex 9.44780635751618 26.0163004289167 2.70804273245222
vertex 9.44863680342171 20.5165421386799 4.30887316048999
vertex 9.44780635751618 26.0165420132907 4.30804271421377
endloop
endfacet
facet normal -0.000207244509389591 -0.258673233392282 0.965964862392051
outer loop
vertex 6.89543023373775 12.6555813768425 1.09410327248639
vertex 0.0033634027364644 13.258831268298 1.34276736099287
vertex 0.00311215627982482 12.6558412337802 1.09310727042621
endloop
endfacet
facet normal -0.000266506248805455 -0.499840047270783 0.866117691840295
outer loop
vertex 0.0033634027364644 13.258831268298 1.34276736099287
vertex 6.89543023373775 12.6555813768425 1.09410327248639
vertex 14.7997327240188 13.2582734453215 1.34490554492924
endloop
endfacet
facet normal -0.000266506544448071 -0.499862686976344 0.866104625979478
outer loop
vertex 14.7997327240188 13.2582734453215 1.34490554492924
vertex 6.89543023373775 12.6555813768425 1.09410327248639
vertex 7.89527433922007 12.6555436803195 1.09424775896796
endloop
endfacet
facet normal -0.000266506544448071 -0.499862686976344 0.866104625979478
outer loop
vertex 14.7997327240188 13.2582734453215 1.34490554492924
vertex 7.89527433922007 12.6555436803195 1.09424775896796
vertex 10.5951946129215 12.6554418865736 1.09463792382571
endloop
endfacet
facet normal -0.000266506544448071 -0.499862686976344 0.866104625979478
outer loop
vertex 14.7997327240188 13.2582734453215 1.34490554492924
vertex 10.5951946129215 12.6554418865736 1.09463792382571
vertex 14.799823763899 12.6552833618536 1.09524553143544
endloop
endfacet
facet normal 2.7624701820691e-015 -0.000150990233759207 -0.999999988600975
outer loop
vertex 9.44780635751618 26.0165420132907 4.30804271421377
vertex 5.24863685129758 20.5159079799956 4.30887325624174
vertex 5.24780640539204 26.0159078546064 4.30804280996554
endloop
endfacet
facet normal 2.7624701820691e-015 -0.000150990233759207 -0.999999988600975
outer loop
vertex 5.24863685129758 20.5159079799956 4.30887325624174
vertex 9.44780635751618 26.0165420132907 4.30804271421377
vertex 9.44863680342171 20.5165421386799 4.30887316048999
endloop
endfacet
facet normal -0.00015099016464244 0.99999997720196 -0.000150990232036627
outer loop
vertex 5.24863685129758 20.5156663956216 2.70887327448019
vertex 9.44863680342171 20.5165421386799 4.30887316048999
vertex 9.44863680342171 20.5163005543059 2.70887317872844
endloop
endfacet
facet normal -0.00015099016464244 0.99999997720196 -0.000150990232036627
outer loop
vertex 9.44863680342171 20.5165421386799 4.30887316048999
vertex 5.24863685129758 20.5156663956216 2.70887327448019
vertex 5.24863685129758 20.5159079799956 4.30887325624174
endloop
endfacet
facet normal -0.999999979405961 0.000193434463659539 6.14099868179993e-005
outer loop
vertex 3.80790368643587 23.0186456920144 11.0124174206959
vertex 3.80902108371517 26.016368987768 -2.49934112498368
vertex 3.80844080826708 23.0163695776798 -2.49970395885984
endloop
endfacet
facet normal -0.999999979405961 0.000193434463659539 6.14099868179993e-005
outer loop
vertex 3.80902108371517 26.016368987768 -2.49934112498368
vertex 3.80790368643587 23.0186456920144 11.0124174206959
vertex 3.80848396188394 26.0186448557457 11.011148645806
endloop
endfacet
facet normal 5.57816587030412e-005 0.999999979902341 -0.000192571348821758
outer loop
vertex 3.80902108371517 26.016368987768 -2.49934112498368
vertex 5.24780640539205 26.0156662702324 2.708042828204
vertex 10.9890200761158 26.0159688874125 -2.49720214767025
endloop
endfacet
facet normal 5.57816587030412e-005 0.999999979902341 -0.000192571348821758
outer loop
vertex 5.24780640539205 26.0156662702324 2.708042828204
vertex 3.80902108371517 26.016368987768 -2.49934112498368
vertex 3.80848396188394 26.0186448557457 11.011148645806
endloop
endfacet
facet normal 5.57816587030412e-005 0.999999979902341 -0.000192571348821758
outer loop
vertex 10.9890200761158 26.0159688874125 -2.49720214767025
vertex 5.24780640539205 26.0156662702324 2.708042828204
vertex 9.44780635751618 26.0163004289167 2.70804273245222
endloop
endfacet
facet normal 5.57816587030412e-005 0.999999979902341 -0.000192571348821758
outer loop
vertex 5.24780640539205 26.0156662702324 2.708042828204
vertex 3.80848396188394 26.0186448557457 11.011148645806
vertex 5.24780640539204 26.0159078546064 4.30804280996554
endloop
endfacet
facet normal 5.57816587030412e-005 0.999999979902341 -0.000192571348821758
outer loop
vertex 9.44780635751618 26.0163004289167 2.70804273245222
vertex 10.9884829542845 26.0182447553901 11.0132876231194
vertex 10.9890200761158 26.0159688874125 -2.49720214767025
endloop
endfacet
facet normal 5.57816587030412e-005 0.999999979902341 -0.000192571348821758
outer loop
vertex 10.9884829542845 26.0182447553901 11.0132876231194
vertex 9.44780635751618 26.0163004289167 2.70804273245222
vertex 9.44780635751618 26.0165420132907 4.30804271421377
endloop
endfacet
facet normal 5.57816587030412e-005 0.999999979902341 -0.000192571348821758
outer loop
vertex 10.9884829542845 26.0182447553901 11.0132876231194
vertex 9.44780635751618 26.0165420132907 4.30804271421377
vertex 5.24780640539204 26.0159078546064 4.30804280996554
endloop
endfacet
facet normal 5.57816587030412e-005 0.999999979902341 -0.000192571348821758
outer loop
vertex 10.9884829542845 26.0182447553901 11.0132876231194
vertex 5.24780640539204 26.0159078546064 4.30804280996554
vertex 3.80848396188394 26.0186448557457 11.011148645806
endloop
endfacet
facet normal 0.000193432654908679 0.999999962750983 -0.000192566457410363
outer loop
vertex 0.00790444930523617 23.0193811699197 11.0150816639705
vertex 3.80844080826708 23.0163695776798 -2.49970395885984
vertex 0.00844149782573582 23.0171044690847 -2.50090710084605
endloop
endfacet
facet normal 0.000193432654908679 0.999999962750983 -0.000192566457410363
outer loop
vertex 3.80844080826708 23.0163695776798 -2.49970395885984
vertex 0.00790444930523617 23.0193811699197 11.0150816639705
vertex 3.80790368643587 23.0186456920144 11.0124174206959
endloop
endfacet
facet normal -0.00015099031276496 0.999999970060381 -0.000192564700352298
outer loop
vertex 10.9889359226819 23.018244823784 11.0137405940244
vertex 14.789473001194 23.0165430461069 -2.49470397086415
vertex 10.9894730445131 23.0159689558063 -2.49674917676528
endloop
endfacet
facet normal -0.00015099031276496 0.999999970060381 -0.000192564700352298
outer loop
vertex 14.789473001194 23.0165430461069 -2.49470397086415
vertex 10.9889359226819 23.018244823784 11.0137405940244
vertex 14.7889358793637 23.018818402234 11.012434632703
endloop
endfacet
facet normal 0.000260349645468837 0.707022671634977 -0.707190832811202
outer loop
vertex 0.00230031289202306 10.2416584203162 5.27605308994584
vertex 14.8002483650204 9.84372565495473 4.76048465669365
vertex 0.00212151425145297 9.84428372927455 4.75834607701303
endloop
endfacet
facet normal 0.000236454175735917 0.865948606593022 -0.500132937156738
outer loop
vertex 14.8002483650204 9.84372565495473 4.76048465669365
vertex 0.00230031289202306 10.2416584203162 5.27605308994584
vertex 14.8001883771479 10.2411003801452 5.27819161585872
endloop
endfacet
facet normal -1.12998397069957e-005 -0.86609177432484 -0.499885025099937
outer loop
vertex 14.7995945584289 14.1738525751585 4.75983084981032
vertex 0.00371861922214971 13.7771919664716 5.27551969842524
vertex 0.00385857765533548 14.1744103075613 4.75769280848373
endloop
endfacet
facet normal 5.80602684963683e-005 -0.707206000818351 -0.707007545246527
outer loop
vertex 0.00371861922214971 13.7771919664716 5.27551969842524
vertex 14.7995945584289 14.1738525751585 4.75983084981032
vertex 14.7996545463013 13.7766342054747 5.2776577847739
endloop
endfacet
facet normal -7.98925111610305e-005 -0.965960842627609 -0.25868831463239
outer loop
vertex 14.7995568484758 14.4235125858044 4.15684075946974
vertex 0.00385857765533548 14.1744103075613 4.75769280848373
vertex 0.00393615200229309 14.4240703017204 4.15470274410181
endloop
endfacet
facet normal -1.13041667946818e-005 -0.866099890501535 -0.499870962894871
outer loop
vertex 0.00385857765533548 14.1744103075613 4.75769280848373
vertex 14.7995568484758 14.4235125858044 4.15684075946974
vertex 14.7995945584289 14.1738525751585 4.75983084981032
endloop
endfacet
facet normal -0.000143040771122909 -0.999999980111643 0.000138982198434315
outer loop
vertex 14.799543986313 14.5086003202693 3.50978029192067
vertex 0.00393615200229309 14.4240703017204 4.15470274410181
vertex 0.00394605569949338 14.5091580329296 3.50764228167895
endloop
endfacet
facet normal -7.98982241974015e-005 -0.965966649436916 -0.258666630611471
outer loop
vertex 0.00393615200229309 14.4240703017204 4.15470274410181
vertex 14.799543986313 14.5086003202693 3.50978029192067
vertex 14.7995568484758 14.4235125858044 4.15684075946974
endloop
endfacet
facet normal -9.5367029202984e-007 0.965963138587627 0.2586797535352
outer loop
vertex 0.00195017134902411 9.59424627294091 2.86133614877856
vertex 14.8002483650204 9.84334817937034 2.26048468519122
vertex 0.002027745695993 9.84390626709994 2.25834608439666
endloop
endfacet
facet normal -2.21984512650719e-005 0.866110009665208 0.499853429181958
outer loop
vertex 14.8002483650204 9.84334817937034 2.26048468519122
vertex 0.00195017134902411 9.59424627294091 2.86133614877856
vertex 14.8002860749735 9.59368816872453 2.86347477553178
endloop
endfacet
facet normal 9.56888494753437e-005 0.999999986192432 -0.00013586309292149
outer loop
vertex 0.00194026765182946 9.50915854173166 3.50839661120145
vertex 14.8002860749735 9.59368816872453 2.86347477553178
vertex 0.00195017134902411 9.59424627294091 2.86133614877856
endloop
endfacet
facet normal -9.50316930527647e-007 0.965968946248358 0.25865806556714
outer loop
vertex 14.8002860749735 9.59368816872453 2.86347477553178
vertex 0.00194026765182946 9.50915854173166 3.50839661120145
vertex 14.8002989371362 9.50860043425957 3.51053524308086
endloop
endfacet
facet normal 0.000177888178112428 -0.00012075109415582 -0.999999976887485
outer loop
vertex 0.00303693023111857 12.0095357495052 6.00801943905655
vertex 14.8000191595502 11.3619173926753 5.92507000356609
vertex 0.0027741670714811 11.3624753408811 5.92293162245418
endloop
endfacet
facet normal 0.000149347296060598 0.258684874129725 -0.965961755760482
outer loop
vertex 14.8000191595502 11.3619173926753 5.92507000356609
vertex 0.00303693023111857 12.0095357495052 6.00801943905655
vertex 14.7999214617246 12.0089778528488 6.01015773900319
endloop
endfacet
facet normal 0.000149347276016433 0.258705202760249 -0.965956311517332
outer loop
vertex 0.0027741670714811 11.3624753408811 5.92293162245418
vertex 14.8001101994304 10.7589273092074 5.67540999007229
vertex 0.0025229206148528 10.7594853063633 5.6732715318875
endloop
endfacet
facet normal 0.000208612058092745 0.499875822990723 -0.866097060421265
outer loop
vertex 14.8001101994304 10.7589273092074 5.67540999007229
vertex 0.0027741670714811 11.3624753408811 5.92293162245418
vertex 14.8000191595502 11.3619173926753 5.92507000356609
endloop
endfacet
facet normal 0.000123467560560943 -0.500114643107094 -0.865959195635467
outer loop
vertex 0.00352581463868757 13.2594850519623 5.67289436712625
vertex 14.799823763899 12.6560125886851 5.92487460782771
vertex 0.00329330321865755 12.656570434706 5.92273638760747
endloop
endfacet
facet normal 0.000180458609839767 -0.258947229308887 -0.96589145346045
outer loop
vertex 14.799823763899 12.6560125886851 5.92487460782771
vertex 0.00352581463868757 13.2594850519623 5.67289436712625
vertex 14.7997327240188 13.2589272522123 5.67503251449222
endloop
endfacet
facet normal -0.00019644091481036 -0.965888672843063 0.258957589354768
outer loop
vertex 14.7995568484758 14.4233171900638 2.86274554870857
vertex 0.00394605569949338 14.5091580329296 3.50764228167895
vertex 0.00388761382632721 14.4238749129212 2.86060752241124
endloop
endfacet
facet normal -0.000143046879468549 -0.999999975972123 0.00016611244160112
outer loop
vertex 0.00394605569949338 14.5091580329296 3.50764228167895
vertex 14.7995568484758 14.4233171900638 2.86274554870857
vertex 14.799543986313 14.5086003202693 3.50978029192067
endloop
endfacet
facet normal 0.00020862384869818 0.499898461429138 -0.866083994042651
outer loop
vertex 0.0025229206148528 10.7594853063633 5.6732715318875
vertex 14.8001883771479 10.2411003801452 5.27819161585872
vertex 0.00230031289202306 10.2416584203162 5.27605308994584
endloop
endfacet
facet normal 0.000260351355467227 0.707001843677212 -0.707211655202454
outer loop
vertex 14.8001883771479 10.2411003801452 5.27819161585872
vertex 0.0025229206148528 10.7594853063633 5.6732715318875
vertex 14.8001101994304 10.7589273092074 5.67540999007229
endloop
endfacet
facet normal -0.00023645354403854 -0.865951165509316 0.50012850652885
outer loop
vertex 14.7995945584289 14.1734750995741 2.25983087830788
vertex 0.00388761382632721 14.4238749129212 2.86060752241124
vertex 0.00376480909986423 14.1740328453867 2.25769281586733
endloop
endfacet
facet normal -0.000196446321872483 -0.965880913072275 0.258986530868906
outer loop
vertex 0.00388761382632721 14.4238749129212 2.86060752241124
vertex 14.7995945584289 14.1734750995741 2.25983087830788
vertex 14.7995568484758 14.4233171900638 2.86274554870857
endloop
endfacet
facet normal -0.000260351657105603 -0.706998169356655 0.70721532841374
outer loop
vertex 14.7996545463013 13.7761003743837 1.7421239191428
vertex 0.00376480909986423 14.1740328453867 2.25769281586733
vertex 0.00358601045929978 13.776658154345 1.73998580293452
endloop
endfacet
facet normal -0.000236457341098129 -0.865935783471003 0.5001551389243
outer loop
vertex 0.00376480909986423 14.1740328453867 2.25769281586733
vertex 14.7996545463013 13.7761003743837 1.7421239191428
vertex 14.7995945584289 14.1734750995741 2.25983087830788
endloop
endfacet
facet normal -0.000266506544448071 -0.499862686976344 0.866104625979478
outer loop
vertex 14.7997327240188 13.2582734453215 1.34490554492924
vertex 0.00358601045929978 13.776658154345 1.73998580293452
vertex 0.0033634027364644 13.258831268298 1.34276736099287
endloop
endfacet
facet normal -0.000260353366825272 -0.706977340836607 0.707236149924284
outer loop
vertex 0.00358601045929978 13.776658154345 1.73998580293452
vertex 14.7997327240188 13.2582734453215 1.34490554492924
vertex 14.7996545463013 13.7761003743837 1.7421239191428
endloop
endfacet
facet normal -2.21986465251878e-005 0.866101891993632 0.499867494634599
outer loop
vertex 0.002027745695993 9.84390626709994 2.25834608439666
vertex 14.8001883771479 10.2405665490542 1.74265775022763
vertex 0.00216770412916749 10.2411246081896 1.74051919445514
endloop
endfacet
facet normal -5.8052395407965e-005 0.707227380542069 0.706986158875492
outer loop
vertex 14.8001883771479 10.2405665490542 1.74265775022763
vertex 0.002027745695993 9.84390626709994 2.25834608439666
vertex 14.8002483650204 9.84334817937034 2.26048468519122
endloop
endfacet
facet normal -0.000123458533612553 0.500147701907279 0.86594010245216
outer loop
vertex 14.8001101994304 10.7582735023166 1.34528302050933
vertex 0.00259302013265965 11.3617461399553 1.09330250527289
vertex 0.00236050871264091 10.758831522699 1.34314452575412
endloop
endfacet
facet normal -0.000147067717102623 0.258989248416099 0.965880193179232
outer loop
vertex 0.00259302013265965 11.3617461399553 1.09330250527289
vertex 14.8001101994304 10.7582735023166 1.34528302050933
vertex 6.89542188768723 11.3614862284708 1.09429860885229
endloop
endfacet
facet normal -0.000147066385310152 0.258964855307286 0.965886733570326
outer loop
vertex 6.89542188768723 11.3614862284708 1.09429860885229
vertex 14.8001101994304 10.7582735023166 1.34528302050933
vertex 7.89527427254403 11.3614485265888 1.09444310109599
endloop
endfacet
facet normal -0.000147066436535566 0.258964860221256 0.965886732252829
outer loop
vertex 7.89527427254403 11.3614485265888 1.09444310109599
vertex 14.8001101994304 10.7582735023166 1.34528302050933
vertex 10.5951945685548 11.361346719314 1.09483327494362
endloop
endfacet
facet normal -0.000161788034116432 0.258564569137613 0.965993963444551
outer loop
vertex 10.5951945685548 11.361346719314 1.09483327494362
vertex 14.8001101994304 10.7582735023166 1.34528302050933
vertex 14.8000191595502 11.3611881658438 1.09544092717383
endloop
endfacet
facet normal -5.8052395407965e-005 0.707227380542069 0.706986158875492
outer loop
vertex 14.8001883771479 10.2405665490542 1.74265775022763
vertex 0.00236050871264091 10.758831522699 1.34314452575412
vertex 0.00216770412916749 10.2411246081896 1.74051919445514
endloop
endfacet
facet normal -0.000123458768562531 0.500146841483008 0.865940599413437
outer loop
vertex 0.00236050871264091 10.758831522699 1.34314452575412
vertex 14.8001883771479 10.2405665490542 1.74265775022763
vertex 14.8001101994304 10.7582735023166 1.34528302050933
endloop
endfacet
facet normal 0.000196438228362393 0.965892527794675 -0.258943210303795
outer loop
vertex 0.00199870952498999 9.59444166174008 4.15543137046913
vertex 14.8002989371362 9.50860043425957 3.51053524308086
vertex 0.00194026765182946 9.50915854173166 3.50839661120145
endloop
endfacet
facet normal 9.57047168136688e-005 0.999999982136272 -0.000162997126856473
outer loop
vertex 14.8002989371362 9.50860043425957 3.51053524308086
vertex 0.00199870952498999 9.59444166174008 4.15543137046913
vertex 14.8002860749735 9.59388356446513 4.15756998629296
endloop
endfacet
facet normal 0.000236450378293318 0.86596398874465 -0.500106302988348
outer loop
vertex 0.00212151425145297 9.84428372927455 4.75834607701303
vertex 14.8002860749735 9.59388356446513 4.15756998629296
vertex 0.00199870952498999 9.59444166174008 4.15543137046913
endloop
endfacet
facet normal 0.000196443636034926 0.965884767704477 -0.258972154731676
outer loop
vertex 14.8002860749735 9.59388356446513 4.15756998629296
vertex 0.00212151425145297 9.84428372927455 4.75834607701303
vertex 14.8002483650204 9.84372565495473 4.76048465669365
endloop
endfacet
facet normal 5.80602684963683e-005 -0.707206000818351 -0.707007545246527
outer loop
vertex 0.00371861922214971 13.7771919664716 5.27551969842524
vertex 14.7997327240188 13.2589272522123 5.67503251449222
vertex 0.00352581463868757 13.2594850519623 5.67289436712625
endloop
endfacet
facet normal 0.000123467795238949 -0.500113783642748 -0.865959691998558
outer loop
vertex 14.7997327240188 13.2589272522123 5.67503251449222
vertex 0.00371861922214971 13.7771919664716 5.27551969842524
vertex 14.7996545463013 13.7766342054747 5.2776577847739
endloop
endfacet
facet normal 0.00018045998509745 -0.258940467131551 -0.965893266316671
outer loop
vertex 0.00329330321865755 12.656570434706 5.92273638760747
vertex 14.7999214617246 12.0089778528488 6.01015773900319
vertex 0.00303693023111857 12.0095357495052 6.00801943905655
endloop
endfacet
facet normal 0.00017789131235767 -0.000135268616288362 -0.999999975028541
outer loop
vertex 14.7999214617246 12.0089778528488 6.01015773900319
vertex 0.00329330321865755 12.656570434706 5.92273638760747
vertex 14.799823763899 12.6560125886851 5.92487460782771
endloop
endfacet
facet normal 0.000169153006096049 0.000251758260947906 0.999999954002518
outer loop
vertex 0.000676716441322084 6.00212176432987 11.0199696999023
vertex 6.94848392504088 13.9524509017127 11.0160706363814
vertex 0.00790444930523617 23.0193811699197 11.0150816639705
endloop
endfacet
facet normal 0.000169153006096049 0.000251758260947906 0.999999954002518
outer loop
vertex 6.94848392504088 13.9524509017127 11.0160706363814
vertex 0.000676716441322084 6.00212176432987 11.0199696999023
vertex 14.7906749194962 6.00212097368448 11.0147545999877
endloop
endfacet
facet normal 0.000169153006096049 0.000251758260947906 0.999999954002518
outer loop
vertex 0.00790444930523617 23.0193811699197 11.0150816639705
vertex 6.94848392504088 13.9524509017127 11.0160706363814
vertex 3.80790368643587 23.0186456920144 11.0124174206959
endloop
endfacet
facet normal 0.000169153006096049 0.000251758260947906 0.999999954002518
outer loop
vertex 3.80790368643587 23.0186456920144 11.0124174206959
vertex 6.94848392504088 13.9524509017127 11.0160706363814
vertex 3.80848396188394 26.0186448557457 11.011148645806
endloop
endfacet
facet normal 0.000169153006096049 0.000251758260947906 0.999999954002518
outer loop
vertex 3.80848396188394 26.0186448557457 11.011148645806
vertex 6.94848392504088 13.9524509017127 11.0160706363814
vertex 6.94847980415091 23.4433981841533 11.0134500459205
endloop
endfacet
facet normal 0.000169153006096049 0.000251758260947906 0.999999954002518
outer loop
vertex 6.94848392504088 13.9524509017127 11.0160706363814
vertex 14.7906749194962 6.00212097368448 11.0147545999877
vertex 7.8484769596881 13.9523783539293 11.0172256138524
endloop
endfacet
facet normal 0.000169153006096049 0.000251758260947906 0.999999954002518
outer loop
vertex 7.8484769596881 13.9523783539293 11.0172256138524
vertex 14.7906749194962 6.00212097368448 11.0147545999877
vertex 7.84847739565532 23.4433256360968 11.0157621835739
endloop
endfacet
facet normal 0.000169153006096049 0.000251758260947906 0.999999954002518
outer loop
vertex 7.84847739565532 23.4433256360968 11.0157621835739
vertex 14.7906749194962 6.00212097368448 11.0147545999877
vertex 10.9889359226819 23.018244823784 11.0137405940244
endloop
endfacet
facet normal 0.000169153006096049 0.000251758260947906 0.999999954002518
outer loop
vertex 7.84847739565532 23.4433256360968 11.0157621835739
vertex 10.9889359226819 23.018244823784 11.0137405940244
vertex 10.9884829542845 26.0182447553901 11.0132876231194
endloop
endfacet
facet normal 0.000169153006096049 0.000251758260947906 0.999999954002518
outer loop
vertex 10.9889359226819 23.018244823784 11.0137405940244
vertex 14.7906749194962 6.00212097368448 11.0147545999877
vertex 14.7889358793637 23.018818402234 11.012434632703
endloop
endfacet
facet normal 0.000169153006096049 0.000251758260947906 0.999999954002518
outer loop
vertex 6.94847980415091 23.4433981841533 11.0134500459205
vertex 10.9884829542845 26.0182447553901 11.0132876231194
vertex 3.80848396188394 26.0186448557457 11.011148645806
endloop
endfacet
facet normal 0.000169153006096049 0.000251758260947906 0.999999954002518
outer loop
vertex 10.9884829542845 26.0182447553901 11.0132876231194
vertex 6.94847980415091 23.4433981841533 11.0134500459205
vertex 7.84847739565532 23.4433256360968 11.0157621835739
endloop
endfacet
facet normal -0.999998760063631 -1.96880850107846e-007 -0.0015747606681115
outer loop
vertex 7.8484769596881 13.9523783539293 11.0172256138524
vertex 7.8532016776793 23.442693984277 8.0157659698804
vertex 7.85320124171208 13.9517467021095 8.01722940015889
endloop
endfacet
facet normal -0.999998760063631 -1.96880850107846e-007 -0.0015747606681115
outer loop
vertex 7.8532016776793 23.442693984277 8.0157659698804
vertex 7.8484769596881 13.9523783539293 11.0172256138524
vertex 7.84847739565532 23.4433256360968 11.0157621835739
endloop
endfacet
facet normal 0.999998760063496 8.69005698193165e-007 0.00157476052659482
outer loop
vertex 6.95320408617489 23.4427665323335 8.01345383222696
vertex 6.94848392504088 13.9524509017127 11.0160706363814
vertex 6.95320820706486 13.9518192498928 8.01607442268793
endloop
endfacet
facet normal 0.999998760063496 8.69005698193165e-007 0.00157476052659482
outer loop
vertex 6.94848392504088 13.9524509017127 11.0160706363814
vertex 6.95320408617489 23.4427665323335 8.01345383222696
vertex 6.94847980415091 23.4433981841533 11.0134500459205
endloop
endfacet
facet normal 8.08793103403383e-005 0.999999974590243 -0.000210423501288038
outer loop
vertex 6.94848392504088 13.9524509017127 11.0160706363814
vertex 7.85320124171208 13.9517467021095 8.01722940015889
vertex 6.95320820706486 13.9518192498928 8.01607442268793
endloop
endfacet
facet normal 8.08793103403383e-005 0.999999974590243 -0.000210423501288038
outer loop
vertex 7.85320124171208 13.9517467021095 8.01722940015889
vertex 6.94848392504088 13.9524509017127 11.0160706363814
vertex 7.8484769596881 13.9523783539293 11.0172256138524
endloop
endfacet
facet normal -8.11497525024254e-005 -0.999999974568423 0.000210423075401224
outer loop
vertex 7.8532016776793 23.442693984277 8.0157659698804
vertex 6.94847980415091 23.4433981841533 11.0134500459205
vertex 6.95320408617489 23.4427665323335 8.01345383222696
endloop
endfacet
facet normal -8.11497525024254e-005 -0.999999974568423 0.000210423075401224
outer loop
vertex 6.94847980415091 23.4433981841533 11.0134500459205
vertex 7.8532016776793 23.442693984277 8.0157659698804
vertex 7.84847739565532 23.4433256360968 11.0157621835739
endloop
endfacet
facet normal -0.00192616576650466 0.000215152705498002 0.999998121795613
outer loop
vertex 6.95320820706486 13.9518192498928 8.01607442268793
vertex 7.8532016776793 23.442693984277 8.0157659698804
vertex 6.95320408617489 23.4427665323335 8.01345383222696
endloop
endfacet
facet normal -0.00192616576650466 0.000215152705498002 0.999998121795613
outer loop
vertex 7.8532016776793 23.442693984277 8.0157659698804
vertex 6.95320820706486 13.9518192498928 8.01607442268793
vertex 7.85320124171208 13.9517467021095 8.01722940015889
endloop
endfacet
facet normal 0.999999824153326 4.39520377356984e-008 0.000593037364052547
outer loop
vertex 9.39817590318664 1.99984518194587 -2.49481207122305
vertex 9.39696227259867 1.00000079725375 0.00538018736802124
vertex 9.39817600875273 0.999845200485168 -2.49461951315932
endloop
endfacet
facet normal 0.999999824153326 4.39520377356984e-008 0.000593037364052547
outer loop
vertex 9.39696227259867 1.00000079725375 0.00538018736802124
vertex 9.39817590318664 1.99984518194587 -2.49481207122305
vertex 9.39696216703257 2.00000077871445 0.00518762930428839
endloop
endfacet
facet normal 7.02381012479662e-008 0.999999981461992 -0.000192551317572002
outer loop
vertex 8.39696234287925 2.00000073476241 0.00459459194023586
vertex 9.39817590318664 1.99984518194587 -2.49481207122305
vertex 8.39817607903331 1.99984513799383 -2.49540510858711
endloop
endfacet
facet normal 7.02381012479662e-008 0.999999981461992 -0.000192551317572002
outer loop
vertex 9.39817590318664 1.99984518194587 -2.49481207122305
vertex 8.39696234287925 2.00000073476241 0.00459459194023586
vertex 9.39696216703257 2.00000077871445 0.00518762930428839
endloop
endfacet
facet normal -5.31349672305599e-009 -0.999999981461671 0.000192553001957355
outer loop
vertex 14.7912120413265 5.99984561755734 -2.49238400357946
vertex 8.39696262182634 6.00000066061051 0.00382438730376289
vertex 8.3981763579804 5.99984506384192 -2.49617531322358
endloop
endfacet
facet normal -5.31349672305599e-009 -0.999999981461671 0.000192553001957355
outer loop
vertex 8.39696262182634 6.00000066061051 0.00382438730376289
vertex 14.7912120413265 5.99984561755734 -2.49238400357946
vertex 14.7906749194962 6.00212097368448 11.0147545999877
endloop
endfacet
facet normal -5.31349672305599e-009 -0.999999981461671 0.000192553001957355
outer loop
vertex 6.39621286482392 5.999844883876 -2.49736255256755
vertex 0.000676716441322084 6.00212176432987 11.0199696999023
vertex 0.00121376496183302 5.99984428801475 -2.50115502658313
endloop
endfacet
facet normal -5.31349672305599e-009 -0.999999981461671 0.000192553001957355
outer loop
vertex 0.000676716441322084 6.00212176432987 11.0199696999023
vertex 6.39621286482392 5.999844883876 -2.49736255256755
vertex 6.39499912866985 6.00000048861486 0.00263714795825575
endloop
endfacet
facet normal -5.31349672305599e-009 -0.999999981461671 0.000192553001957355
outer loop
vertex 0.000676716441322084 6.00212176432987 11.0199696999023
vertex 6.39499912866985 6.00000048861486 0.00263714795825575
vertex 8.39696262182634 6.00000066061051 0.00382438730376289
endloop
endfacet
facet normal -5.31349672305599e-009 -0.999999981461671 0.000192553001957355
outer loop
vertex 0.000676716441322084 6.00212176432987 11.0199696999023
vertex 8.39696262182634 6.00000066061051 0.00382438730376289
vertex 14.7906749194962 6.00212097368448 11.0147545999877
endloop
endfacet
facet normal -0.000593037361521513 0.000192552653746538 0.999999805615063
outer loop
vertex 5.39499915312524 1.00044533278843 0.00315508616381926
vertex 6.39410965886303 1.99942322229953 0.00263673103830473
vertex 5.3941098566994 1.99986797378189 0.00219190654366312
endloop
endfacet
facet normal -0.000593037361521513 0.000192552653746538 0.999999805615063
outer loop
vertex 6.39410965886303 1.99942322229953 0.00263673103830473
vertex 5.39499915312524 1.00044533278843 0.00315508616381926
vertex 9.39696227259867 1.00000079725375 0.00538018736802124
endloop
endfacet
facet normal -0.000593037361521513 0.000192552653746538 0.999999805615063
outer loop
vertex 6.39410965886303 1.99942322229953 0.00263673103830473
vertex 9.39696227259867 1.00000079725375 0.00538018736802124
vertex 8.39696234287925 2.00000073476241 0.00459459194023586
endloop
endfacet
facet normal -0.000593037361521513 0.000192552653746538 0.999999805615063
outer loop
vertex 6.39410965886303 1.99942322229953 0.00263673103830473
vertex 8.39696234287925 2.00000073476241 0.00459459194023586
vertex 6.39499912866985 6.00000048861486 0.00263714795825575
endloop
endfacet
facet normal -0.000593037361521513 0.000192552653746538 0.999999805615063
outer loop
vertex 8.39696234287925 2.00000073476241 0.00459459194023586
vertex 9.39696227259867 1.00000079725375 0.00538018736802124
vertex 9.39696216703257 2.00000077871445 0.00518762930428839
endloop
endfacet
facet normal -0.000593037361521513 0.000192552653746538 0.999999805615063
outer loop
vertex 8.39696262182634 6.00000066061051 0.00382438730376289
vertex 6.39499912866985 6.00000048861486 0.00263714795825575
vertex 8.39696234287925 2.00000073476241 0.00459459194023586
endloop
endfacet
facet normal 0.999999824153329 1.09880098081396e-007 0.00059303735135801
outer loop
vertex 8.3981763579804 5.99984506384192 -2.49617531322358
vertex 8.39696234287925 2.00000073476241 0.00459459194023586
vertex 8.39817607903331 1.99984513799383 -2.49540510858711
endloop
endfacet
facet normal 0.999999824153329 1.09880098081396e-007 0.00059303735135801
outer loop
vertex 8.39696234287925 2.00000073476241 0.00459459194023586
vertex 8.3981763579804 5.99984506384192 -2.49617531322358
vertex 8.39696262182634 6.00000066061051 0.00382438730376289
endloop
endfacet
facet normal -2.62868557028152e-008 -0.999999981461734 0.000192552672017197
outer loop
vertex 9.39817600875273 0.999845200485168 -2.49461951315932
vertex 5.39499915312524 1.00044533278843 0.00315508616381926
vertex 5.39621288927929 1.00028972804957 -2.49684461436199
endloop
endfacet
facet normal -2.62868557028152e-008 -0.999999981461734 0.000192552672017197
outer loop
vertex 5.39499915312524 1.00044533278843 0.00315508616381926
vertex 9.39817600875273 0.999845200485168 -2.49461951315932
vertex 9.39696227259867 1.00000079725375 0.00538018736802124
endloop
endfacet
facet normal -0.999999876348838 -0.00022246481159058 -0.000444760290047059
outer loop
vertex 6.39499912866985 6.00000048861486 0.00263714795825575
vertex 6.39443386095842 1.99984527948366 -2.49736308069178
vertex 6.39410965886303 1.99942322229953 0.00263673103830473
endloop
endfacet
facet normal -0.999999876348838 -0.00022246481159058 -0.000444760290047059
outer loop
vertex 6.39443386095842 1.99984527948366 -2.49736308069178
vertex 6.39499912866985 6.00000048861486 0.00263714795825575
vertex 6.39621286482392 5.999844883876 -2.49736255256755
endloop
endfacet
facet normal 1.56728155935937e-008 -0.999999989418755 -0.000145473327645939
outer loop
vertex 7.8966310506896 12.507819545379 -0.796301506469703
vertex 6.89543023373775 12.5080664725708 1.07470521915941
vertex 6.89678693464113 12.507819545379 -0.796409226373765
endloop
endfacet
facet normal 1.56728155935937e-008 -0.999999989418755 -0.000145473327645939
outer loop
vertex 6.89543023373775 12.5080664725708 1.07470521915941
vertex 7.8966310506896 12.507819545379 -0.796301506469703
vertex 7.8952743392203 12.5080664665011 1.07485466324388
endloop
endfacet
facet normal -5.80043906295283e-008 0.999999989418755 0.000145473316924001
outer loop
vertex 6.89543020687882 11.5080664489791 1.07497844809004
vertex 7.8966310506896 11.5078196038598 -0.796301506469703
vertex 6.8967870506499 11.5078196038598 -0.796700172993681
endloop
endfacet
facet normal -5.80043906295283e-008 0.999999989418755 0.000145473316924001
outer loop
vertex 7.8966310506896 11.5078196038598 -0.796301506469703
vertex 6.89543020687882 11.5080664489791 1.07497844809004
vertex 7.89527427254403 11.5080664866787 1.07511796358227
endloop
endfacet
facet normal 0.000444751467704343 0.999999901098052 1.31872603675118e-007
outer loop
vertex 5.3941098566994 1.99986797378189 0.00219190654366312
vertex 6.39443386095842 1.99984527948366 -2.49736308069178
vertex 5.39443405879479 2.00029003096603 -2.49780790518642
endloop
endfacet
facet normal 0.000444751467704343 0.999999901098052 1.31872603675118e-007
outer loop
vertex 6.39443386095842 1.99984527948366 -2.49736308069178
vertex 5.3941098566994 1.99986797378189 0.00219190654366312
vertex 6.39410965886303 1.99942322229953 0.00263673103830473
endloop
endfacet
facet normal -0.999999802163624 0.000444751482363276 -0.000444824494641896
outer loop
vertex 5.39499915312524 1.00044533278843 0.00315508616381926
vertex 5.39443405879479 2.00029003096603 -2.49780790518642
vertex 5.39621288927929 1.00028972804957 -2.49684461436199
endloop
endfacet
facet normal -0.999999802163624 0.000444751482363276 -0.000444824494641896
outer loop
vertex 5.39443405879479 2.00029003096603 -2.49780790518642
vertex 5.39499915312524 1.00044533278843 0.00315508616381926
vertex 5.3941098566994 1.99986797378189 0.00219190654366312
endloop
endfacet
facet normal 0.999999872618798 0.00044353871220636 -0.000240906201881847
outer loop
vertex 14.7906900929461 11.5080667121475 -2.4937855831489
vertex 14.7906749194962 6.00212097368448 11.0147545999877
vertex 14.7912120413265 5.99984561755734 -2.49238400357946
endloop
endfacet
facet normal 0.999999872618798 0.00044353871220636 -0.000240906201881847
outer loop
vertex 14.7906749194962 6.00212097368448 11.0147545999877
vertex 14.7906900929461 11.5080667121475 -2.4937855831489
vertex 14.8002860749735 9.59368816872453 2.86347477553178
endloop
endfacet
facet normal 0.999999872618798 0.00044353871220636 -0.000240906201881847
outer loop
vertex 14.7906749194962 6.00212097368448 11.0147545999877
vertex 14.8002860749735 9.59368816872453 2.86347477553178
vertex 14.8002989371362 9.50860043425957 3.51053524308086
endloop
endfacet
facet normal 0.999999872618798 0.00044353871220636 -0.000240906201881847
outer loop
vertex 14.8002860749735 9.59368816872453 2.86347477553178
vertex 14.7906900929461 11.5080667121475 -2.4937855831489
vertex 14.8002483650204 9.84334817937034 2.26048468519122
endloop
endfacet
facet normal 0.999999872618798 0.00044353871220636 -0.000240906201881847
outer loop
vertex 14.8002483650204 9.84334817937034 2.26048468519122
vertex 14.7906900929461 11.5080667121475 -2.4937855831489
vertex 14.8001883771479 10.2405665490542 1.74265775022763
endloop
endfacet
facet normal 0.999999872618798 0.00044353871220636 -0.000240906201881847
outer loop
vertex 14.8001883771479 10.2405665490542 1.74265775022763
vertex 14.7906900929461 11.5080667121475 -2.4937855831489
vertex 14.8001101994304 10.7582735023166 1.34528302050933
endloop
endfacet
facet normal 0.999999872618798 0.00044353871220636 -0.000240906201881847
outer loop
vertex 14.8001101994304 10.7582735023166 1.34528302050933
vertex 14.7906900929461 11.5080667121475 -2.4937855831489
vertex 14.8000191595502 11.3611881658438 1.09544092717383
endloop
endfacet
facet normal 0.999999872618798 0.00044353871220636 -0.000240906201881847
outer loop
vertex 14.8000191595502 11.3611881658438 1.09544092717383
vertex 14.7906900929461 11.5080667121475 -2.4937855831489
vertex 14.7891613896091 11.5081105737508 1.07656842182344
endloop
endfacet
facet normal 0.999999872618798 0.00044353871220636 -0.000240906201881847
outer loop
vertex 14.789473001194 23.0165430461069 -2.49470397086415
vertex 14.7891614528667 12.5081105910537 1.07635345340518
vertex 14.7906900929461 12.5080667070088 -2.4937855831489
endloop
endfacet
facet normal 0.999999872618798 0.00044353871220636 -0.000240906201881847
outer loop
vertex 14.7891614528667 12.5081105910537 1.07635345340518
vertex 14.789473001194 23.0165430461069 -2.49470397086415
vertex 14.799823763899 12.6552833618536 1.09524553143544
endloop
endfacet
facet normal 0.999999872618798 0.00044353871220636 -0.000240906201881847
outer loop
vertex 14.799823763899 12.6552833618536 1.09524553143544
vertex 14.789473001194 23.0165430461069 -2.49470397086415
vertex 14.7997327240188 13.2582734453215 1.34490554492924
endloop
endfacet
facet normal 0.999999872618798 0.00044353871220636 -0.000240906201881847
outer loop
vertex 14.7997327240188 13.2582734453215 1.34490554492924
vertex 14.789473001194 23.0165430461069 -2.49470397086415
vertex 14.7996545463013 13.7761003743837 1.7421239191428
endloop
endfacet
facet normal 0.999999872618798 0.00044353871220636 -0.000240906201881847
outer loop
vertex 14.7996545463013 13.7761003743837 1.7421239191428
vertex 14.789473001194 23.0165430461069 -2.49470397086415
vertex 14.7995945584289 14.1734750995741 2.25983087830788
endloop
endfacet
facet normal 0.999999872618798 0.00044353871220636 -0.000240906201881847
outer loop
vertex 14.7995945584289 14.1734750995741 2.25983087830788
vertex 14.789473001194 23.0165430461069 -2.49470397086415
vertex 14.7995568484758 14.4233171900638 2.86274554870857
endloop
endfacet
facet normal 0.999999872618798 0.00044353871220636 -0.000240906201881847
outer loop
vertex 14.7995568484758 14.4233171900638 2.86274554870857
vertex 14.789473001194 23.0165430461069 -2.49470397086415
vertex 14.799543986313 14.5086003202693 3.50978029192067
endloop
endfacet
facet normal 0.999999872618798 0.00044353871220636 -0.000240906201881847
outer loop
vertex 14.7906749194962 6.00212097368448 11.0147545999877
vertex 14.8001101994304 10.7589273092074 5.67540999007229
vertex 14.7889358793637 23.018818402234 11.012434632703
endloop
endfacet
facet normal 0.999999872618798 0.00044353871220636 -0.000240906201881847
outer loop
vertex 14.8001101994304 10.7589273092074 5.67540999007229
vertex 14.7906749194962 6.00212097368448 11.0147545999877
vertex 14.8001883771479 10.2411003801452 5.27819161585872
endloop
endfacet
facet normal 0.999999872618798 0.00044353871220636 -0.000240906201881847
outer loop
vertex 14.8001883771479 10.2411003801452 5.27819161585872
vertex 14.7906749194962 6.00212097368448 11.0147545999877
vertex 14.8002483650204 9.84372565495473 4.76048465669365
endloop
endfacet
facet normal 0.999999872618798 0.00044353871220636 -0.000240906201881847
outer loop
vertex 14.8002483650204 9.84372565495473 4.76048465669365
vertex 14.7906749194962 6.00212097368448 11.0147545999877
vertex 14.8002860749735 9.59388356446513 4.15756998629296
endloop
endfacet
facet normal 0.999999872618798 0.00044353871220636 -0.000240906201881847
outer loop
vertex 14.8002860749735 9.59388356446513 4.15756998629296
vertex 14.7906749194962 6.00212097368448 11.0147545999877
vertex 14.8002989371362 9.50860043425957 3.51053524308086
endloop
endfacet
facet normal 0.999999872618798 0.00044353871220636 -0.000240906201881847
outer loop
vertex 14.7889358793637 23.018818402234 11.012434632703
vertex 14.8001101994304 10.7589273092074 5.67540999007229
vertex 14.8000191595502 11.3619173926753 5.92507000356609
endloop
endfacet
facet normal 0.999999872618798 0.00044353871220636 -0.000240906201881847
outer loop
vertex 14.7889358793637 23.018818402234 11.012434632703
vertex 14.8000191595502 11.3619173926753 5.92507000356609
vertex 14.7999214617246 12.0089778528488 6.01015773900319
endloop
endfacet
facet normal 0.999999872618798 0.00044353871220636 -0.000240906201881847
outer loop
vertex 14.7889358793637 23.018818402234 11.012434632703
vertex 14.7999214617246 12.0089778528488 6.01015773900319
vertex 14.799823763899 12.6560125886851 5.92487460782771
endloop
endfacet
facet normal 0.999999872618798 0.00044353871220636 -0.000240906201881847
outer loop
vertex 14.7889358793637 23.018818402234 11.012434632703
vertex 14.799823763899 12.6560125886851 5.92487460782771
vertex 14.7997327240188 13.2589272522123 5.67503251449222
endloop
endfacet
facet normal 0.999999872618798 0.00044353871220636 -0.000240906201881847
outer loop
vertex 14.7889358793637 23.018818402234 11.012434632703
vertex 14.7997327240188 13.2589272522123 5.67503251449222
vertex 14.7996545463013 13.7766342054747 5.2776577847739
endloop
endfacet
facet normal 0.999999872618798 0.00044353871220636 -0.000240906201881847
outer loop
vertex 14.7889358793637 23.018818402234 11.012434632703
vertex 14.7996545463013 13.7766342054747 5.2776577847739
vertex 14.7995945584289 14.1738525751585 4.75983084981032
endloop
endfacet
facet normal 0.999999872618798 0.00044353871220636 -0.000240906201881847
outer loop
vertex 14.7889358793637 23.018818402234 11.012434632703
vertex 14.7995945584289 14.1738525751585 4.75983084981032
vertex 14.7995568484758 14.4235125858044 4.15684075946974
endloop
endfacet
facet normal 0.999999872618798 0.00044353871220636 -0.000240906201881847
outer loop
vertex 14.7889358793637 23.018818402234 11.012434632703
vertex 14.7995568484758 14.4235125858044 4.15684075946974
vertex 14.799543986313 14.5086003202693 3.50978029192067
endloop
endfacet
facet normal 0.999999872618798 0.00044353871220636 -0.000240906201881847
outer loop
vertex 14.7889358793637 23.018818402234 11.012434632703
vertex 14.799543986313 14.5086003202693 3.50978029192067
vertex 14.789473001194 23.0165430461069 -2.49470397086415
endloop
endfacet
facet normal -0.999999910587475 0.000421238850852726 3.71869945293862e-005
outer loop
vertex 0.000676716441322084 6.00212176432987 11.0199696999023
vertex 0.00199870952498999 9.59444166174008 4.15543137046913
vertex 0.00194026765182946 9.50915854173166 3.50839661120145
endloop
endfacet
facet normal -0.999999910587475 0.000421238850852726 3.71869945293862e-005
outer loop
vertex 0.00199870952498999 9.59444166174008 4.15543137046913
vertex 0.000676716441322084 6.00212176432987 11.0199696999023
vertex 0.00212151425145297 9.84428372927455 4.75834607701303
endloop
endfacet
facet normal -0.999999910587475 0.000421238850852726 3.71869945293862e-005
outer loop
vertex 0.00212151425145297 9.84428372927455 4.75834607701303
vertex 0.000676716441322084 6.00212176432987 11.0199696999023
vertex 0.00230031289202306 10.2416584203162 5.27605308994584
endloop
endfacet
facet normal -0.999999910587475 0.000421238850852726 3.71869945293862e-005
outer loop
vertex 0.00230031289202306 10.2416584203162 5.27605308994584
vertex 0.000676716441322084 6.00212176432987 11.0199696999023
vertex 0.0025229206148528 10.7594853063633 5.6732715318875
endloop
endfacet
facet normal -0.999999910587475 0.000421238850852726 3.71869945293862e-005
outer loop
vertex 0.0025229206148528 10.7594853063633 5.6732715318875
vertex 0.000676716441322084 6.00212176432987 11.0199696999023
vertex 0.00790444930523617 23.0193811699197 11.0150816639705
endloop
endfacet
facet normal -0.999999910587475 0.000421238850852726 3.71869945293862e-005
outer loop
vertex 0.0025229206148528 10.7594853063633 5.6732715318875
vertex 0.00790444930523617 23.0193811699197 11.0150816639705
vertex 0.0027741670714811 11.3624753408811 5.92293162245418
endloop
endfacet
facet normal -0.999999910587475 0.000421238850852726 3.71869945293862e-005
outer loop
vertex 0.0027741670714811 11.3624753408811 5.92293162245418
vertex 0.00790444930523617 23.0193811699197 11.0150816639705
vertex 0.00303693023111857 12.0095357495052 6.00801943905655
endloop
endfacet
facet normal -0.999999910587475 0.000421238850852726 3.71869945293862e-005
outer loop
vertex 0.00303693023111857 12.0095357495052 6.00801943905655
vertex 0.00790444930523617 23.0193811699197 11.0150816639705
vertex 0.00329330321865755 12.656570434706 5.92273638760747
endloop
endfacet
facet normal -0.999999910587475 0.000421238850852726 3.71869945293862e-005
outer loop
vertex 0.00329330321865755 12.656570434706 5.92273638760747
vertex 0.00790444930523617 23.0193811699197 11.0150816639705
vertex 0.00352581463868757 13.2594850519623 5.67289436712625
endloop
endfacet
facet normal -0.999999910587475 0.000421238850852726 3.71869945293862e-005
outer loop
vertex 0.00352581463868757 13.2594850519623 5.67289436712625
vertex 0.00790444930523617 23.0193811699197 11.0150816639705
vertex 0.00371861922214971 13.7771919664716 5.27551969842524
endloop
endfacet
facet normal -0.999999910587475 0.000421238850852726 3.71869945293862e-005
outer loop
vertex 0.00371861922214971 13.7771919664716 5.27551969842524
vertex 0.00790444930523617 23.0193811699197 11.0150816639705
vertex 0.00385857765533548 14.1744103075613 4.75769280848373
endloop
endfacet
facet normal -0.999999910587475 0.000421238850852726 3.71869945293862e-005
outer loop
vertex 0.00385857765533548 14.1744103075613 4.75769280848373
vertex 0.00790444930523617 23.0193811699197 11.0150816639705
vertex 0.00393615200229309 14.4240703017204 4.15470274410181
endloop
endfacet
facet normal -0.999999910587475 0.000421238850852726 3.71869945293862e-005
outer loop
vertex 0.00393615200229309 14.4240703017204 4.15470274410181
vertex 0.00790444930523617 23.0193811699197 11.0150816639705
vertex 0.00394605569949338 14.5091580329296 3.50764228167895
endloop
endfacet
facet normal -0.999999910587475 0.000421238850852726 3.71869945293862e-005
outer loop
vertex 0.00394605569949338 14.5091580329296 3.50764228167895
vertex 0.00790444930523617 23.0193811699197 11.0150816639705
vertex 0.00844149782573582 23.0171044690847 -2.50090710084605
endloop
endfacet
facet normal -0.999999910587475 0.000421238850852726 3.71869945293862e-005
outer loop
vertex 0.00121376496183302 5.99984428801475 -2.50115502658313
vertex 0.00259302013265965 11.3617461399553 1.09330250527289
vertex 0.00844149782573582 23.0171044690847 -2.50090710084605
endloop
endfacet
facet normal -0.999999910587475 0.000421238850852726 3.71869945293862e-005
outer loop
vertex 0.00259302013265965 11.3617461399553 1.09330250527289
vertex 0.00121376496183302 5.99984428801475 -2.50115502658313
vertex 0.00236050871264091 10.758831522699 1.34314452575412
endloop
endfacet
facet normal -0.999999910587475 0.000421238850852726 3.71869945293862e-005
outer loop
vertex 0.00236050871264091 10.758831522699 1.34314452575412
vertex 0.00121376496183302 5.99984428801475 -2.50115502658313
vertex 0.00216770412916749 10.2411246081896 1.74051919445514
endloop
endfacet
facet normal -0.999999910587475 0.000421238850852726 3.71869945293862e-005
outer loop
vertex 0.00216770412916749 10.2411246081896 1.74051919445514
vertex 0.00121376496183302 5.99984428801475 -2.50115502658313
vertex 0.002027745695993 9.84390626709994 2.25834608439666
endloop
endfacet
facet normal -0.999999910587475 0.000421238850852726 3.71869945293862e-005
outer loop
vertex 0.002027745695993 9.84390626709994 2.25834608439666
vertex 0.00121376496183302 5.99984428801475 -2.50115502658313
vertex 0.000676716441322084 6.00212176432987 11.0199696999023
endloop
endfacet
facet normal -0.999999910587475 0.000421238850852726 3.71869945293862e-005
outer loop
vertex 0.002027745695993 9.84390626709994 2.25834608439666
vertex 0.000676716441322084 6.00212176432987 11.0199696999023
vertex 0.00195017134902411 9.59424627294091 2.86133614877856
endloop
endfacet
facet normal -0.999999910587475 0.000421238850852726 3.71869945293862e-005
outer loop
vertex 0.00195017134902411 9.59424627294091 2.86133614877856
vertex 0.000676716441322084 6.00212176432987 11.0199696999023
vertex 0.00194026765182946 9.50915854173166 3.50839661120145
endloop
endfacet
facet normal -0.999999910587475 0.000421238850852726 3.71869945293862e-005
outer loop
vertex 0.00844149782573582 23.0171044690847 -2.50090710084605
vertex 0.00259302013265965 11.3617461399553 1.09330250527289
vertex 0.00284939312020427 12.008780825156 1.00801945382381
endloop
endfacet
facet normal -0.999999910587475 0.000421238850852726 3.71869945293862e-005
outer loop
vertex 0.00844149782573582 23.0171044690847 -2.50090710084605
vertex 0.00284939312020427 12.008780825156 1.00801945382381
vertex 0.00311215627982482 12.6558412337802 1.09310727042621
endloop
endfacet
facet normal -0.999999910587475 0.000421238850852726 3.71869945293862e-005
outer loop
vertex 0.00844149782573582 23.0171044690847 -2.50090710084605
vertex 0.00311215627982482 12.6558412337802 1.09310727042621
vertex 0.0033634027364644 13.258831268298 1.34276736099287
endloop
endfacet
facet normal -0.999999910587475 0.000421238850852726 3.71869945293862e-005
outer loop
vertex 0.00844149782573582 23.0171044690847 -2.50090710084605
vertex 0.0033634027364644 13.258831268298 1.34276736099287
vertex 0.00358601045929978 13.776658154345 1.73998580293452
endloop
endfacet
facet normal -0.999999910587475 0.000421238850852726 3.71869945293862e-005
outer loop
vertex 0.00844149782573582 23.0171044690847 -2.50090710084605
vertex 0.00358601045929978 13.776658154345 1.73998580293452
vertex 0.00376480909986423 14.1740328453867 2.25769281586733
endloop
endfacet
facet normal -0.999999910587475 0.000421238850852726 3.71869945293862e-005
outer loop
vertex 0.00844149782573582 23.0171044690847 -2.50090710084605
vertex 0.00376480909986423 14.1740328453867 2.25769281586733
vertex 0.00388761382632721 14.4238749129212 2.86060752241124
endloop
endfacet
facet normal -0.999999910587475 0.000421238850852726 3.71869945293862e-005
outer loop
vertex 0.00844149782573582 23.0171044690847 -2.50090710084605
vertex 0.00388761382632721 14.4238749129212 2.86060752241124
vertex 0.00394605569949338 14.5091580329296 3.50764228167895
endloop
endfacet
facet normal 2.81210507740593e-008 -0.99999999455089 -0.000104394535951345
outer loop
vertex 14.7906900929461 12.5080667070088 -2.4937855831489
vertex 13.7951944645697 12.5081107084578 1.0762384153152
vertex 13.7967231165092 12.5080668286205 -2.49394092569028
endloop
endfacet
facet normal 2.81210507740593e-008 -0.99999999455089 -0.000104394535951345
outer loop
vertex 13.7951944645697 12.5081107084578 1.0762384153152
vertex 14.7906900929461 12.5080667070088 -2.4937855831489
vertex 14.7891614528667 12.5081105910537 1.07635345340518
endloop
endfacet
facet normal -0.000202740956824889 -0.128844116834328 0.991664838770281
outer loop
vertex 13.7951944645697 12.5081107084578 1.0762384153152
vertex 10.5951946129215 12.6554418865736 1.09463792382571
vertex 10.5951946129215 12.5081105868461 1.07526401720267
endloop
endfacet
facet normal -0.000221010614846055 -0.258300016085047 0.966064724976941
outer loop
vertex 10.5951946129215 12.6554418865736 1.09463792382571
vertex 13.7951944645697 12.5081107084578 1.0762384153152
vertex 14.799823763899 12.6552833618536 1.09524553143544
endloop
endfacet
facet normal -0.000235483126224209 -0.260909862698582 0.965363137940488
outer loop
vertex 14.799823763899 12.6552833618536 1.09524553143544
vertex 13.7951944645697 12.5081107084578 1.0762384153152
vertex 14.7891614528667 12.5081105910537 1.07635345340518
endloop
endfacet
facet normal -0.000175985100536155 0.261226975571456 0.96527738824808
outer loop
vertex 14.8000191595502 11.3611881658438 1.09544092717383
vertex 10.5951945685548 11.5081105467109 1.07548890907638
vertex 10.5951945685548 11.361346719314 1.09483327494362
endloop
endfacet
facet normal -0.00019669164696296 0.129032239095766 0.99164037966711
outer loop
vertex 10.5951945685548 11.5081105467109 1.07548890907638
vertex 14.8000191595502 11.3611881658438 1.09544092717383
vertex 13.795194420203 11.5081106683225 1.07646330718892
endloop
endfacet
facet normal -0.00019669164696296 0.129032239095766 0.99164037966711
outer loop
vertex 13.795194420203 11.5081106683225 1.07646330718892
vertex 14.8000191595502 11.3611881658438 1.09544092717383
vertex 14.7891613896091 11.5081105737508 1.07656842182344
endloop
endfacet
facet normal -3.33181435982426e-008 0.99999999455089 0.000104394534422898
outer loop
vertex 13.795194420203 11.5081106683225 1.07646330718892
vertex 14.7906900929461 11.5080667121475 -2.4937855831489
vertex 13.7967231997594 11.5080668337591 -2.49414971475431
endloop
endfacet
facet normal -3.33181435982426e-008 0.99999999455089 0.000104394534422898
outer loop
vertex 14.7906900929461 11.5080667121475 -2.4937855831489
vertex 13.795194420203 11.5081106683225 1.07646330718892
vertex 14.7891613896091 11.5081105737508 1.07656842182344
endloop
endfacet
facet normal 0.999999939576639 7.43218483339148e-008 0.000347630137570253
outer loop
vertex 13.7967231165092 12.5080668286205 -2.49394092569028
vertex 13.795194420203 11.5081106683225 1.07646330718892
vertex 13.7967231997594 11.5080668337591 -2.49414971475431
endloop
endfacet
facet normal 0.999999939576639 7.43218483339148e-008 0.000347630137570253
outer loop
vertex 13.795194420203 11.5081106683225 1.07646330718892
vertex 13.7967231165092 12.5080668286205 -2.49394092569028
vertex 13.7952138127176 12.0083815622273 0.210524563302937
endloop
endfacet
facet normal 0.999999939576639 7.43218483339148e-008 0.000347630137570253
outer loop
vertex 13.7952138127176 12.0083815622273 0.210524563302937
vertex 13.7967231165092 12.5080668286205 -2.49394092569028
vertex 13.7951944645697 12.5081107084578 1.0762384153152
endloop
endfacet
facet normal -0.000144505141629735 0.000154072016698372 0.999999977690039
outer loop
vertex 6.89544688966636 12.008520939751 1.0090155117143
vertex 0.00311215627982482 12.6558412337802 1.09310727042621
vertex 0.00284939312020427 12.008780825156 1.00801945382381
endloop
endfacet
facet normal -0.000207230091358941 -0.258641279325172 0.965973418725758
outer loop
vertex 0.00311215627982482 12.6558412337802 1.09310727042621
vertex 6.89544688966636 12.008520939751 1.0090155117143
vertex 6.89543023373775 12.5080664725708 1.07470521915941
endloop
endfacet
facet normal -0.000207244509389591 -0.258673233392282 0.965964862392051
outer loop
vertex 6.89543023373775 12.6555813768425 1.09410327248639
vertex 0.00311215627982482 12.6558412337802 1.09310727042621
vertex 6.89543023373775 12.5080664725708 1.07470521915941
endloop
endfacet
facet normal -0.000148191735946193 -0.130376530340017 0.99146454216765
outer loop
vertex 7.8952743392203 12.5080664665011 1.07485466324388
vertex 6.89543023373775 12.6555813768425 1.09410327248639
vertex 6.89543023373775 12.5080664725708 1.07470521915941
endloop
endfacet
facet normal -0.000207244509389591 -0.258673233392282 0.965964862392051
outer loop
vertex 6.89543023373775 12.6555813768425 1.09410327248639
vertex 7.8952743392203 12.5080664665011 1.07485466324388
vertex 7.89527433922007 12.6555436803195 1.09424775896796
endloop
endfacet
facet normal -0.000169004929317942 -0.866289161267074 0.499542851523794
outer loop
vertex 13.7952138127176 12.0083815622273 0.210524563302937
vertex 7.8952743392203 12.5080664665011 1.07485466324388
vertex 7.89529097525712 12.0084832407871 0.209159999220028
endloop
endfacet
facet normal -0.000169004929317942 -0.866289161267074 0.499542851523794
outer loop
vertex 7.8952743392203 12.5080664665011 1.07485466324388
vertex 13.7952138127176 12.0083815622273 0.210524563302937
vertex 10.5951946129215 12.5081105868461 1.07526401720267
endloop
endfacet
facet normal -0.000169004929317942 -0.866289161267074 0.499542851523794
outer loop
vertex 10.5951946129215 12.5081105868461 1.07526401720267
vertex 13.7952138127176 12.0083815622273 0.210524563302937
vertex 13.7951944645697 12.5081107084578 1.0762384153152
endloop
endfacet
facet normal -0.000148192119507485 -0.130376520747865 0.99146454342895
outer loop
vertex 7.8952743392203 12.5080664665011 1.07485466324388
vertex 10.5951946129215 12.6554418865736 1.09463792382571
vertex 7.89527433922007 12.6555436803195 1.09424775896796
endloop
endfacet
facet normal -0.000221010614846055 -0.258300016085047 0.966064724976941
outer loop
vertex 10.5951946129215 12.6554418865736 1.09463792382571
vertex 7.8952743392203 12.5080664665011 1.07485466324388
vertex 10.5951946129215 12.5081105868461 1.07526401720267
endloop
endfacet
facet normal 0.000481101446915573 -8.51461072973168e-005 -0.999999880645762
outer loop
vertex 10.9890200761158 26.0159688874125 -2.49720214767025
vertex 5.89691512723029 13.5080666798752 -2.49637153947921
vertex 3.80902108371517 26.016368987768 -2.49934112498368
endloop
endfacet
facet normal 0.000481101446915573 -8.51461072973168e-005 -0.999999880645762
outer loop
vertex 5.89691512723029 13.5080666798752 -2.49637153947921
vertex 10.9890200761158 26.0159688874125 -2.49720214767025
vertex 8.8967592951632 13.5080666798752 -2.49604832350989
endloop
endfacet
facet normal 0.000481101446915573 -8.51461072973168e-005 -0.999999880645762
outer loop
vertex 14.789473001194 23.0165430461069 -2.49470397086415
vertex 13.7967231165092 12.5080668286205 -2.49394092569028
vertex 10.9894730445131 23.0159689558063 -2.49674917676528
endloop
endfacet
facet normal 0.000481101446915573 -8.51461072973168e-005 -0.999999880645762
outer loop
vertex 13.7967231165092 12.5080668286205 -2.49394092569028
vertex 14.789473001194 23.0165430461069 -2.49470397086415
vertex 14.7906900929461 12.5080667070088 -2.4937855831489
endloop
endfacet
facet normal 0.000481101446915573 -8.51461072973168e-005 -0.999999880645762
outer loop
vertex 0.00844149782573582 23.0171044690847 -2.50090710084605
vertex 6.39621286482392 5.999844883876 -2.49736255256755
vertex 0.00121376496183302 5.99984428801475 -2.50115502658313
endloop
endfacet
facet normal 0.000481101446915573 -8.51461072973168e-005 -0.999999880645762
outer loop
vertex 6.39621286482392 5.999844883876 -2.49736255256755
vertex 0.00844149782573582 23.0171044690847 -2.50090710084605
vertex 3.80844080826708 23.0163695776798 -2.49970395885984
endloop
endfacet
facet normal 0.000481101446915573 -8.51461072973168e-005 -0.999999880645762
outer loop
vertex 6.39621286482392 5.999844883876 -2.49736255256755
vertex 3.80844080826708 23.0163695776798 -2.49970395885984
vertex 3.80902108371517 26.016368987768 -2.49934112498368
endloop
endfacet
facet normal 0.000481101446915573 -8.51461072973168e-005 -0.999999880645762
outer loop
vertex 6.39621286482392 5.999844883876 -2.49736255256755
vertex 3.80902108371517 26.016368987768 -2.49934112498368
vertex 5.89691547525907 10.5080667595119 -2.49724440203569
endloop
endfacet
facet normal 0.000481101446915573 -8.51461072973168e-005 -0.999999880645762
outer loop
vertex 5.89691547525907 10.5080667595119 -2.49724440203569
vertex 3.80902108371517 26.016368987768 -2.49934112498368
vertex 5.89691512723029 13.5080666798752 -2.49637153947921
endloop
endfacet
facet normal 0.000481101446915573 -8.51461072973168e-005 -0.999999880645762
outer loop
vertex 6.39621286482392 5.999844883876 -2.49736255256755
vertex 5.89691547525907 10.5080667595119 -2.49724440203569
vertex 8.89675929515415 10.5080667595185 -2.49604830082415
endloop
endfacet
facet normal 0.000481101446915573 -8.51461072973168e-005 -0.999999880645762
outer loop
vertex 6.39621286482392 5.999844883876 -2.49736255256755
vertex 8.89675929515415 10.5080667595185 -2.49604830082415
vertex 8.3981763579804 5.99984506384192 -2.49617531322358
endloop
endfacet
facet normal 0.000481101446915573 -8.51461072973168e-005 -0.999999880645762
outer loop
vertex 6.39621286482392 5.999844883876 -2.49736255256755
vertex 8.3981763579804 5.99984506384192 -2.49617531322358
vertex 8.39817607903331 1.99984513799383 -2.49540510858711
endloop
endfacet
facet normal 0.000481101446915573 -8.51461072973168e-005 -0.999999880645762
outer loop
vertex 8.3981763579804 5.99984506384192 -2.49617531322358
vertex 8.89675929515415 10.5080667595185 -2.49604830082415
vertex 14.7912120413265 5.99984561755734 -2.49238400357946
endloop
endfacet
facet normal 0.000481101446915573 -8.51461072973168e-005 -0.999999880645762
outer loop
vertex 14.7912120413265 5.99984561755734 -2.49238400357946
vertex 8.89675929515415 10.5080667595185 -2.49604830082415
vertex 8.8967592951632 13.5080666798752 -2.49604832350989
endloop
endfacet
facet normal 0.000481101446915573 -8.51461072973168e-005 -0.999999880645762
outer loop
vertex 14.7912120413265 5.99984561755734 -2.49238400357946
vertex 8.8967592951632 13.5080666798752 -2.49604832350989
vertex 10.9894730445131 23.0159689558063 -2.49674917676528
endloop
endfacet
facet normal 0.000481101446915573 -8.51461072973168e-005 -0.999999880645762
outer loop
vertex 10.9894730445131 23.0159689558063 -2.49674917676528
vertex 8.8967592951632 13.5080666798752 -2.49604832350989
vertex 10.9890200761158 26.0159688874125 -2.49720214767025
endloop
endfacet
facet normal 0.000481101446915573 -8.51461072973168e-005 -0.999999880645762
outer loop
vertex 14.7912120413265 5.99984561755734 -2.49238400357946
vertex 10.9894730445131 23.0159689558063 -2.49674917676528
vertex 13.7967231997594 11.5080668337591 -2.49414971475431
endloop
endfacet
facet normal 0.000481101446915573 -8.51461072973168e-005 -0.999999880645762
outer loop
vertex 13.7967231997594 11.5080668337591 -2.49414971475431
vertex 10.9894730445131 23.0159689558063 -2.49674917676528
vertex 13.7967231165092 12.5080668286205 -2.49394092569028
endloop
endfacet
facet normal 0.000481101446915573 -8.51461072973168e-005 -0.999999880645762
outer loop
vertex 14.7912120413265 5.99984561755734 -2.49238400357946
vertex 13.7967231997594 11.5080668337591 -2.49414971475431
vertex 14.7906900929461 11.5080667121475 -2.4937855831489
endloop
endfacet
facet normal 0.000481101446915573 -8.51461072973168e-005 -0.999999880645762
outer loop
vertex 6.39443386095842 1.99984527948366 -2.49736308069178
vertex 5.39621288927929 1.00028972804957 -2.49684461436199
vertex 5.39443405879479 2.00029003096603 -2.49780790518642
endloop
endfacet
facet normal 0.000481101446915573 -8.51461072973168e-005 -0.999999880645762
outer loop
vertex 5.39621288927929 1.00028972804957 -2.49684461436199
vertex 6.39443386095842 1.99984527948366 -2.49736308069178
vertex 9.39817600875273 0.999845200485168 -2.49461951315932
endloop
endfacet
facet normal 0.000481101446915573 -8.51461072973168e-005 -0.999999880645762
outer loop
vertex 9.39817600875273 0.999845200485168 -2.49461951315932
vertex 6.39443386095842 1.99984527948366 -2.49736308069178
vertex 8.39817607903331 1.99984513799383 -2.49540510858711
endloop
endfacet
facet normal 0.000481101446915573 -8.51461072973168e-005 -0.999999880645762
outer loop
vertex 8.39817607903331 1.99984513799383 -2.49540510858711
vertex 6.39443386095842 1.99984527948366 -2.49736308069178
vertex 6.39621286482392 5.999844883876 -2.49736255256755
endloop
endfacet
facet normal 0.000481101446915573 -8.51461072973168e-005 -0.999999880645762
outer loop
vertex 9.39817600875273 0.999845200485168 -2.49461951315932
vertex 8.39817607903331 1.99984513799383 -2.49540510858711
vertex 9.39817590318664 1.99984518194587 -2.49481207122305
endloop
endfacet
facet normal -0.000147066436535566 0.258964860221256 0.965886732252829
outer loop
vertex 7.89527427254403 11.3614485265888 1.09444310109599
vertex 6.89543020687882 11.5080664489791 1.07497844809004
vertex 6.89542188768723 11.3614862284708 1.09429860885229
endloop
endfacet
facet normal -0.000138346302280589 0.13067584945169 0.991425137481585
outer loop
vertex 6.89543020687882 11.5080664489791 1.07497844809004
vertex 7.89527427254403 11.3614485265888 1.09444310109599
vertex 7.89527427254403 11.5080664866787 1.07511796358227
endloop
endfacet
facet normal 0.9999999679366 4.23315741857447e-008 0.000253232693218131
outer loop
vertex 6.89678693464113 12.507819545379 -0.796409226373765
vertex 6.89543020687882 11.5080664489791 1.07497844809004
vertex 6.8967870506499 11.5078196038598 -0.796700172993681
endloop
endfacet
facet normal 0.9999999679366 4.23315741857447e-008 0.000253232693218131
outer loop
vertex 6.89543020687882 11.5080664489791 1.07497844809004
vertex 6.89678693464113 12.507819545379 -0.796409226373765
vertex 6.89544688966636 12.008520939751 1.0090155117143
endloop
endfacet
facet normal 0.9999999679366 4.23315741857447e-008 0.000253232693218131
outer loop
vertex 6.89544688966636 12.008520939751 1.0090155117143
vertex 6.89678693464113 12.507819545379 -0.796409226373765
vertex 6.89543023373775 12.5080664725708 1.07470521915941
endloop
endfacet
facet normal -0.000147066385310152 0.258964855307286 0.965886733570326
outer loop
vertex 6.89542188768723 11.3614862284708 1.09429860885229
vertex 0.00284939312020427 12.008780825156 1.00801945382381
vertex 0.00259302013265965 11.3617461399553 1.09330250527289
endloop
endfacet
facet normal -0.000144504120750191 0.000181136659354616 0.999999973154035
outer loop
vertex 0.00284939312020427 12.008780825156 1.00801945382381
vertex 6.89542188768723 11.3614862284708 1.09429860885229
vertex 6.89544688966636 12.008520939751 1.0090155117143
endloop
endfacet
facet normal -0.000144505141629735 0.000154072016698372 0.999999977690039
outer loop
vertex 6.89544688966636 12.008520939751 1.0090155117143
vertex 6.89542188768723 11.3614862284708 1.09429860885229
vertex 6.89543020687882 11.5080664489791 1.07497844809004
endloop
endfacet
facet normal -0.000157620840228367 0.866050876562954 0.4999558524112
outer loop
vertex 7.89527427254403 11.5080664866787 1.07511796358227
vertex 13.7952138127176 12.0083815622273 0.210524563302937
vertex 7.89529097525712 12.0084832407871 0.209159999220028
endloop
endfacet
facet normal -0.000157620840228367 0.866050876562954 0.4999558524112
outer loop
vertex 13.7952138127176 12.0083815622273 0.210524563302937
vertex 7.89527427254403 11.5080664866787 1.07511796358227
vertex 10.5951945685548 11.5081105467109 1.07548890907638
endloop
endfacet
facet normal -0.000157620840228367 0.866050876562954 0.4999558524112
outer loop
vertex 13.7952138127176 12.0083815622273 0.210524563302937
vertex 10.5951945685548 11.5081105467109 1.07548890907638
vertex 13.795194420203 11.5081106683225 1.07646330718892
endloop
endfacet
facet normal -0.000161788034116432 0.258564569137613 0.965993963444551
outer loop
vertex 10.5951945685548 11.361346719314 1.09483327494362
vertex 7.89527427254403 11.5080664866787 1.07511796358227
vertex 7.89527427254403 11.3614485265888 1.09444310109599
endloop
endfacet
facet normal -0.000138346061055536 0.130675860887647 0.99142513597429
outer loop
vertex 7.89527427254403 11.5080664866787 1.07511796358227
vertex 10.5951945685548 11.361346719314 1.09483327494362
vertex 10.5951945685548 11.5081105467109 1.07548890907638
endloop
endfacet
facet normal 0.000202110048494259 0.86200792499068 -0.506894758707161
outer loop
vertex 6.8967870506499 11.5078196038598 -0.796700172993681
vertex 8.89675929515415 10.5080667595185 -2.49604830082415
vertex 5.89691547525907 10.5080667595119 -2.49724440203569
endloop
endfacet
facet normal 0.000202110048494259 0.86200792499068 -0.506894758707161
outer loop
vertex 8.89675929515415 10.5080667595185 -2.49604830082415
vertex 6.8967870506499 11.5078196038598 -0.796700172993681
vertex 7.8966310506896 11.5078196038598 -0.796301506469703
endloop
endfacet
facet normal 0.861995645456735 0.000147588853276592 -0.5069156590905
outer loop
vertex 5.89691512723029 13.5080666798752 -2.49637153947921
vertex 6.8967870506499 11.5078196038598 -0.796700172993681
vertex 5.89691547525907 10.5080667595119 -2.49724440203569
endloop
endfacet
facet normal 0.861995645456735 0.000147588853276592 -0.5069156590905
outer loop
vertex 6.8967870506499 11.5078196038598 -0.796700172993681
vertex 5.89691512723029 13.5080666798752 -2.49637153947921
vertex 6.89678693464113 12.507819545379 -0.796409226373765
endloop
endfacet
facet normal 5.46416228625515e-005 -0.861860491365447 -0.507145433221678
outer loop
vertex 8.8967592951632 13.5080666798752 -2.49604832350989
vertex 6.89678693464113 12.507819545379 -0.796409226373765
vertex 5.89691512723029 13.5080666798752 -2.49637153947921
endloop
endfacet
facet normal 5.46416228625515e-005 -0.861860491365447 -0.507145433221678
outer loop
vertex 6.89678693464113 12.507819545379 -0.796409226373765
vertex 8.8967592951632 13.5080666798752 -2.49604832350989
vertex 7.8966310506896 12.507819545379 -0.796301506469703
endloop
endfacet
facet normal -0.999999730057421 -3.22695073246085e-007 -0.000734768658466486
outer loop
vertex 7.89527427254403 11.5080664866787 1.07511796358227
vertex 7.8966310506896 12.507819545379 -0.796301506469703
vertex 7.8966310506896 11.5078196038598 -0.796301506469703
endloop
endfacet
facet normal -0.999999730057421 -3.22695073246085e-007 -0.000734768658466486
outer loop
vertex 7.8966310506896 12.507819545379 -0.796301506469703
vertex 7.89527427254403 11.5080664866787 1.07511796358227
vertex 7.89529097525712 12.0084832407871 0.209159999220028
endloop
endfacet
facet normal -0.999999730057421 -3.22695073246085e-007 -0.000734768658466486
outer loop
vertex 7.8966310506896 12.507819545379 -0.796301506469703
vertex 7.89529097525712 12.0084832407871 0.209159999220028
vertex 7.8952743392203 12.5080664665011 1.07485466324388
endloop
endfacet
facet normal -0.861764309269665 8.88444548127016e-008 -0.507308855894482
outer loop
vertex 7.8966310506896 11.5078196038598 -0.796301506469703
vertex 8.8967592951632 13.5080666798752 -2.49604832350989
vertex 8.89675929515415 10.5080667595185 -2.49604830082415
endloop
endfacet
facet normal -0.861764309269665 8.88444548127016e-008 -0.507308855894482
outer loop
vertex 8.8967592951632 13.5080666798752 -2.49604832350989
vertex 7.8966310506896 11.5078196038598 -0.796301506469703
vertex 7.8966310506896 12.507819545379 -0.796301506469703
endloop
endfacet
endsolid rod-cap
