solid rod-cap
facet normal -0.000123458533612553 0.500147701907279 0.86594010245216
outer loop
vertex 14.8001101994304 10.7582735023166 1.34528302050933
vertex 0.00259302013265965 11.3617461399553 1.09330250527289
vertex 0.00236050871264091 10.758831522699 1.34314452575412
endloop
endfacet
facet normal -0.000180450062394635 0.258989256062172 0.965880185469263
outer loop
vertex 0.00259302013265965 11.3617461399553 1.09330250527289
vertex 14.8001101994304 10.7582735023166 1.34528302050933
vertex 14.8000191595502 11.3611881658438 1.09544092717383
endloop
endfacet
facet normal -5.8052395407965e-005 0.707227380542069 0.706986158875492
outer loop
vertex 14.8001883771479 10.2405665490542 1.74265775022763
vertex 0.00236050871264091 10.758831522699 1.34314452575412
vertex 0.00216770412916749 10.2411246081896 1.74051919445514
endloop
endfacet
facet normal -0.000123458768562531 0.500146841483008 0.865940599413437
outer loop
vertex 0.00236050871264091 10.758831522699 1.34314452575412
vertex 14.8001883771479 10.2405665490542 1.74265775022763
vertex 14.8001101994304 10.7582735023166 1.34528302050933
endloop
endfacet
facet normal 1.13052336937391e-005 0.866101891616637 0.499867495652873
outer loop
vertex 0.002027745695993 9.84390626709994 2.25834608439666
vertex 14.8001883771479 10.2405665490542 1.74265775022763
vertex 0.00216770412916749 10.2411246081896 1.74051919445514
endloop
endfacet
facet normal -5.8052395407965e-005 0.707227380542069 0.706986158875492
outer loop
vertex 14.8001883771479 10.2405665490542 1.74265775022763
vertex 0.002027745695993 9.84390626709994 2.25834608439666
vertex 14.8002483650204 9.84334817937034 2.26048468519122
endloop
endfacet
facet normal 7.9894766637987e-005 0.965963135179944 0.258679753923958
outer loop
vertex 0.00195017134902411 9.59424627294091 2.86133614877856
vertex 14.8002483650204 9.84334817937034 2.26048468519122
vertex 0.002027745695993 9.84390626709994 2.25834608439666
endloop
endfacet
facet normal 1.13095617264384e-005 0.86611000928813 0.499853430200303
outer loop
vertex 14.8002483650204 9.84334817937034 2.26048468519122
vertex 0.00195017134902411 9.59424627294091 2.86133614877856
vertex 14.8002860749735 9.59368816872453 2.86347477553178
endloop
endfacet
facet normal 0.00014304006896691 0.99999998054031 -0.000135863603262122
outer loop
vertex 0.00194026765182946 9.50915854173166 3.50839661120145
vertex 14.8002860749735 9.59368816872453 2.86347477553178
vertex 0.00195017134902411 9.59424627294091 2.86133614877856
endloop
endfacet
facet normal 7.99004806849169e-005 0.96596894284031 0.258658065955593
outer loop
vertex 14.8002860749735 9.59368816872453 2.86347477553178
vertex 0.00194026765182946 9.50915854173166 3.50839661120145
vertex 14.8002989371362 9.50860043425957 3.51053524308086
endloop
endfacet
facet normal 0.000196438228362393 0.965892527794675 -0.258943210303795
outer loop
vertex 0.00199870952498999 9.59444166174008 4.15543137046913
vertex 14.8002989371362 9.50860043425957 3.51053524308086
vertex 0.00194026765182946 9.50915854173166 3.50839661120145
endloop
endfacet
facet normal 0.000143046178178104 0.99999997648478 -0.0001629976370771
outer loop
vertex 14.8002989371362 9.50860043425957 3.51053524308086
vertex 0.00199870952498999 9.59444166174008 4.15543137046913
vertex 14.8002860749735 9.59388356446513 4.15756998629296
endloop
endfacet
facet normal 0.000236450378293318 0.86596398874465 -0.500106302988348
outer loop
vertex 0.00212151425145297 9.84428372927455 4.75834607701303
vertex 14.8002860749735 9.59388356446513 4.15756998629296
vertex 0.00199870952498999 9.59444166174008 4.15543137046913
endloop
endfacet
facet normal 0.000196443636034926 0.965884767704477 -0.258972154731676
outer loop
vertex 14.8002860749735 9.59388356446513 4.15756998629296
vertex 0.00212151425145297 9.84428372927455 4.75834607701303
vertex 14.8002483650204 9.84372565495473 4.76048465669365
endloop
endfacet
facet normal 0.000260349645468837 0.707022671634977 -0.707190832811202
outer loop
vertex 0.00230031289202306 10.2416584203162 5.27605308994584
vertex 14.8002483650204 9.84372565495473 4.76048465669365
vertex 0.00212151425145297 9.84428372927455 4.75834607701303
endloop
endfacet
facet normal 0.000236454175735917 0.865948606593022 -0.500132937156738
outer loop
vertex 14.8002483650204 9.84372565495473 4.76048465669365
vertex 0.00230031289202306 10.2416584203162 5.27605308994584
vertex 14.8001883771479 10.2411003801452 5.27819161585872
endloop
endfacet
facet normal 0.000266507011097935 0.499898449798707 -0.866083984878408
outer loop
vertex 0.0025229206148528 10.7594853063633 5.6732715318875
vertex 14.8001883771479 10.2411003801452 5.27819161585872
vertex 0.00230031289202306 10.2416584203162 5.27605308994584
endloop
endfacet
facet normal 0.000260351355467227 0.707001843677212 -0.707211655202454
outer loop
vertex 14.8001883771479 10.2411003801452 5.27819161585872
vertex 0.0025229206148528 10.7594853063633 5.6732715318875
vertex 14.8001101994304 10.7589273092074 5.67540999007229
endloop
endfacet
facet normal 0.000254502412246505 0.258705184401247 -0.965956294452518
outer loop
vertex 0.0027741670714811 11.3624753408811 5.92293162245418
vertex 14.8001101994304 10.7589273092074 5.67540999007229
vertex 0.0025229206148528 10.7594853063633 5.6732715318875
endloop
endfacet
facet normal 0.00026650671575244 0.49987581135804 -0.866097051255407
outer loop
vertex 14.8001101994304 10.7589273092074 5.67540999007229
vertex 0.0027741670714811 11.3624753408811 5.92293162245418
vertex 14.8000191595502 11.3619173926753 5.92507000356609
endloop
endfacet
facet normal 0.000225153488877957 -0.000120758222082017 -0.999999967361679
outer loop
vertex 0.00303693023111857 12.0095357495052 6.00801943905655
vertex 14.8000191595502 11.3619173926753 5.92507000356609
vertex 0.0027741670714811 11.3624753408811 5.92293162245418
endloop
endfacet
facet normal 0.000254500730944119 0.258684855771256 -0.965961738695681
outer loop
vertex 14.8000191595502 11.3619173926753 5.92507000356609
vertex 0.00303693023111857 12.0095357495052 6.00801943905655
vertex 14.7999214617246 12.0089778528488 6.01015773900319
endloop
endfacet
facet normal 0.00018045998509745 -0.258940467131551 -0.965893266316671
outer loop
vertex 0.00329330321865755 12.656570434706 5.92273638760747
vertex 14.7999214617246 12.0089778528488 6.01015773900319
vertex 0.00303693023111857 12.0095357495052 6.00801943905655
endloop
endfacet
facet normal 0.000225151412316414 -0.000135275743451483 -0.999999965503657
outer loop
vertex 14.7999214617246 12.0089778528488 6.01015773900319
vertex 0.00329330321865755 12.656570434706 5.92273638760747
vertex 14.799823763899 12.6560125886851 5.92487460782771
endloop
endfacet
facet normal 0.000123467560560943 -0.500114643107094 -0.865959195635467
outer loop
vertex 0.00352581463868757 13.2594850519623 5.67289436712625
vertex 14.799823763899 12.6560125886851 5.92487460782771
vertex 0.00329330321865755 12.656570434706 5.92273638760747
endloop
endfacet
facet normal 0.000180458609839767 -0.258947229308887 -0.96589145346045
outer loop
vertex 14.799823763899 12.6560125886851 5.92487460782771
vertex 0.00352581463868757 13.2594850519623 5.67289436712625
vertex 14.7997327240188 13.2589272522123 5.67503251449222
endloop
endfacet
facet normal 5.80602684963683e-005 -0.707206000818351 -0.707007545246527
outer loop
vertex 0.00371861922214971 13.7771919664716 5.27551969842524
vertex 14.7997327240188 13.2589272522123 5.67503251449222
vertex 0.00352581463868757 13.2594850519623 5.67289436712625
endloop
endfacet
facet normal 0.000123467795238949 -0.500113783642748 -0.865959691998558
outer loop
vertex 14.7997327240188 13.2589272522123 5.67503251449222
vertex 0.00371861922214971 13.7771919664716 5.27551969842524
vertex 14.7996545463013 13.7766342054747 5.2776577847739
endloop
endfacet
facet normal -1.12998397069957e-005 -0.86609177432484 -0.499885025099937
outer loop
vertex 14.7995945584289 14.1738525751585 4.75983084981032
vertex 0.00371861922214971 13.7771919664716 5.27551969842524
vertex 0.00385857765533548 14.1744103075613 4.75769280848373
endloop
endfacet
facet normal 5.80602684963683e-005 -0.707206000818351 -0.707007545246527
outer loop
vertex 0.00371861922214971 13.7771919664716 5.27551969842524
vertex 14.7995945584289 14.1738525751585 4.75983084981032
vertex 14.7996545463013 13.7766342054747 5.2776577847739
endloop
endfacet
facet normal -7.98925111610305e-005 -0.965960842627609 -0.25868831463239
outer loop
vertex 14.7995568484758 14.4235125858044 4.15684075946974
vertex 0.00385857765533548 14.1744103075613 4.75769280848373
vertex 0.00393615200229309 14.4240703017204 4.15470274410181
endloop
endfacet
facet normal -1.13041667946818e-005 -0.866099890501535 -0.499870962894871
outer loop
vertex 0.00385857765533548 14.1744103075613 4.75769280848373
vertex 14.7995568484758 14.4235125858044 4.15684075946974
vertex 14.7995945584289 14.1738525751585 4.75983084981032
endloop
endfacet
facet normal -0.000143040771122909 -0.999999980111643 0.000138982198434332
outer loop
vertex 14.799543986313 14.5086003202693 3.50978029192067
vertex 0.00393615200229309 14.4240703017204 4.15470274410181
vertex 0.00394605569949338 14.5091580329296 3.50764228167895
endloop
endfacet
facet normal -7.98982241974016e-005 -0.965966649436917 -0.258666630611471
outer loop
vertex 0.00393615200229309 14.4240703017204 4.15470274410181
vertex 14.799543986313 14.5086003202693 3.50978029192067
vertex 14.7995568484758 14.4235125858044 4.15684075946974
endloop
endfacet
facet normal -0.00019644091481036 -0.965888672843063 0.258957589354768
outer loop
vertex 14.7995568484758 14.4233171900638 2.86274554870857
vertex 0.00394605569949338 14.5091580329296 3.50764228167895
vertex 0.00388761382632721 14.4238749129212 2.86060752241124
endloop
endfacet
facet normal -0.000143046879468549 -0.999999975972123 0.000166112441601138
outer loop
vertex 0.00394605569949338 14.5091580329296 3.50764228167895
vertex 14.7995568484758 14.4233171900638 2.86274554870857
vertex 14.799543986313 14.5086003202693 3.50978029192067
endloop
endfacet
facet normal -0.00023645354403854 -0.865951165509316 0.50012850652885
outer loop
vertex 14.7995945584289 14.1734750995741 2.25983087830788
vertex 0.00388761382632721 14.4238749129212 2.86060752241124
vertex 0.00376480909986423 14.1740328453867 2.25769281586733
endloop
endfacet
facet normal -0.000196446321872483 -0.965880913072275 0.258986530868906
outer loop
vertex 0.00388761382632721 14.4238749129212 2.86060752241124
vertex 14.7995945584289 14.1734750995741 2.25983087830788
vertex 14.7995568484758 14.4233171900638 2.86274554870857
endloop
endfacet
facet normal -0.000260351657105602 -0.706998169356655 0.70721532841374
outer loop
vertex 14.7996545463013 13.7761003743837 1.7421239191428
vertex 0.00376480909986423 14.1740328453867 2.25769281586733
vertex 0.00358601045929978 13.776658154345 1.73998580293452
endloop
endfacet
facet normal -0.000236457341098129 -0.865935783471003 0.5001551389243
outer loop
vertex 0.00376480909986423 14.1740328453867 2.25769281586733
vertex 14.7996545463013 13.7761003743837 1.7421239191428
vertex 14.7995945584289 14.1734750995741 2.25983087830788
endloop
endfacet
facet normal -0.000266506544448071 -0.499862686976344 0.866104625979478
outer loop
vertex 14.7997327240188 13.2582734453215 1.34490554492924
vertex 0.00358601045929978 13.776658154345 1.73998580293452
vertex 0.0033634027364644 13.258831268298 1.34276736099287
endloop
endfacet
facet normal -0.000260353366825272 -0.706977340836607 0.707236149924284
outer loop
vertex 0.00358601045929978 13.776658154345 1.73998580293452
vertex 14.7997327240188 13.2582734453215 1.34490554492924
vertex 14.7996545463013 13.7761003743837 1.7421239191428
endloop
endfacet
facet normal -0.000254498807144512 -0.258661596639703 0.965967967198787
outer loop
vertex 14.799823763899 12.6552833618536 1.09524553143544
vertex 0.0033634027364644 13.258831268298 1.34276736099287
vertex 0.00311215627982482 12.6558412337802 1.09310727042621
endloop
endfacet
facet normal -0.000266506248805455 -0.499840047270783 0.866117691840295
outer loop
vertex 0.0033634027364644 13.258831268298 1.34276736099287
vertex 14.799823763899 12.6552833618536 1.09524553143544
vertex 14.7997327240188 13.2582734453215 1.34490554492924
endloop
endfacet
facet normal -0.000225146926049245 0.000166638715826872 0.999999960770199
outer loop
vertex 14.7999214617246 12.00822290168 1.01015779599834
vertex 0.00311215627982482 12.6558412337802 1.09310727042621
vertex 0.00284939312020427 12.008780825156 1.00801945382381
endloop
endfacet
facet normal -0.0002544971254957 -0.2586412664978 0.965973410863688
outer loop
vertex 0.00311215627982482 12.6558412337802 1.09310727042621
vertex 14.7999214617246 12.00822290168 1.01015779599834
vertex 14.799823763899 12.6552833618536 1.09524553143544
endloop
endfacet
facet normal -0.000180451437741606 0.258982493794989 0.965881998664955
outer loop
vertex 14.8000191595502 11.3611881658438 1.09544092717383
vertex 0.00284939312020427 12.008780825156 1.00801945382381
vertex 0.00259302013265965 11.3617461399553 1.09330250527289
endloop
endfacet
facet normal -0.000225144849184921 0.000181157305363169 0.999999958245913
outer loop
vertex 0.00284939312020427 12.008780825156 1.00801945382381
vertex 14.8000191595502 11.3611881658438 1.09544092717383
vertex 14.7999214617246 12.00822290168 1.01015779599834
endloop
endfacet
facet normal -0.00015099016464244 0.99999997720196 -0.000150990232036627
outer loop
vertex 5.24863685129758 20.5156663956216 2.70887327448019
vertex 9.44863680342171 20.5165421386799 4.30887316048999
vertex 9.44863680342171 20.5163005543059 2.70887317872844
endloop
endfacet
facet normal -0.00015099016464244 0.99999997720196 -0.000150990232036627
outer loop
vertex 9.44863680342171 20.5165421386799 4.30887316048999
vertex 5.24863685129758 20.5156663956216 2.70887327448019
vertex 5.24863685129758 20.5159079799956 4.30887325624174
endloop
endfacet
facet normal -7.48367093011867e-016 0.000150990233758182 0.999999988600975
outer loop
vertex 5.24863685129758 20.5156663956216 2.70887327448019
vertex 9.44780635751618 26.0163004289167 2.70804273245222
vertex 5.24780640539205 26.0156662702324 2.708042828204
endloop
endfacet
facet normal -7.48367093011867e-016 0.000150990233758182 0.999999988600975
outer loop
vertex 9.44780635751618 26.0163004289167 2.70804273245222
vertex 5.24863685129758 20.5156663956216 2.70887327448019
vertex 9.44863680342171 20.5163005543059 2.70887317872844
endloop
endfacet
facet normal 0.999999988600985 0.000150990162922036 -2.27980384923758e-008
outer loop
vertex 5.24780640539205 26.0156662702324 2.708042828204
vertex 5.24863685129758 20.5159079799956 4.30887325624174
vertex 5.24863685129758 20.5156663956216 2.70887327448019
endloop
endfacet
facet normal 0.999999988600985 0.000150990162922036 -2.27980384923758e-008
outer loop
vertex 5.24863685129758 20.5159079799956 4.30887325624174
vertex 5.24780640539205 26.0156662702324 2.708042828204
vertex 5.24780640539204 26.0159078546064 4.30804280996554
endloop
endfacet
facet normal 2.7624701820691e-015 -0.000150990233759207 -0.999999988600975
outer loop
vertex 9.44780635751618 26.0165420132907 4.30804271421377
vertex 5.24863685129758 20.5159079799956 4.30887325624174
vertex 5.24780640539204 26.0159078546064 4.30804280996554
endloop
endfacet
facet normal 2.7624701820691e-015 -0.000150990233759207 -0.999999988600975
outer loop
vertex 5.24863685129758 20.5159079799956 4.30887325624174
vertex 9.44780635751618 26.0165420132907 4.30804271421377
vertex 9.44863680342171 20.5165421386799 4.30887316048999
endloop
endfacet
facet normal -0.999999988600985 -0.000150990162920753 2.27980411351012e-008
outer loop
vertex 9.44863680342171 20.5165421386799 4.30887316048999
vertex 9.44780635751618 26.0163004289167 2.70804273245222
vertex 9.44863680342171 20.5163005543059 2.70887317872844
endloop
endfacet
facet normal -0.999999988600985 -0.000150990162920753 2.27980411351012e-008
outer loop
vertex 9.44780635751618 26.0163004289167 2.70804273245222
vertex 9.44863680342171 20.5165421386799 4.30887316048999
vertex 9.44780635751618 26.0165420132907 4.30804271421377
endloop
endfacet
facet normal -4.92934588561615e-009 -0.999999981461477 0.000192554007559417
outer loop
vertex 14.7899983157994 8.00000118123441 0.00723059094320176
vertex 0.00067672706831553 8.00212172725321 11.0195845938984
vertex 3.94347670849292e-008 7.99999985169181 -0.00154043206047533
endloop
endfacet
facet normal -4.92934588561615e-009 -0.999999981461477 0.000192554007559417
outer loop
vertex 0.00067672706831553 8.00212172725321 11.0195845938984
vertex 14.7899983157994 8.00000118123441 0.00723059094320176
vertex 14.7906749301232 8.00212093660782 11.0143694939838
endloop
endfacet
facet normal 5.57816587030412e-005 0.999999979902341 -0.000192571348821758
outer loop
vertex 3.80780734756111 26.0165245885218 0.000658575542895234
vertex 5.24780640539205 26.0156662702324 2.708042828204
vertex 10.9878063399617 26.0161244881662 0.00279755285632344
endloop
endfacet
facet normal 5.57816587030412e-005 0.999999979902341 -0.000192571348821758
outer loop
vertex 5.24780640539205 26.0156662702324 2.708042828204
vertex 3.80780734756111 26.0165245885218 0.000658575542895234
vertex 3.80848396188394 26.0186448557457 11.011148645806
endloop
endfacet
facet normal 5.57816587030412e-005 0.999999979902341 -0.000192571348821758
outer loop
vertex 10.9878063399617 26.0161244881662 0.00279755285632344
vertex 5.24780640539205 26.0156662702324 2.708042828204
vertex 9.44780635751618 26.0163004289167 2.70804273245222
endloop
endfacet
facet normal 5.57816587030412e-005 0.999999979902341 -0.000192571348821758
outer loop
vertex 5.24780640539205 26.0156662702324 2.708042828204
vertex 3.80848396188394 26.0186448557457 11.011148645806
vertex 5.24780640539204 26.0159078546064 4.30804280996554
endloop
endfacet
facet normal 5.57816587030412e-005 0.999999979902341 -0.000192571348821758
outer loop
vertex 9.44780635751618 26.0163004289167 2.70804273245222
vertex 10.9884829542845 26.0182447553901 11.0132876231194
vertex 10.9878063399617 26.0161244881662 0.00279755285632344
endloop
endfacet
facet normal 5.57816587030412e-005 0.999999979902341 -0.000192571348821758
outer loop
vertex 10.9884829542845 26.0182447553901 11.0132876231194
vertex 9.44780635751618 26.0163004289167 2.70804273245222
vertex 9.44780635751618 26.0165420132907 4.30804271421377
endloop
endfacet
facet normal 5.57816587030412e-005 0.999999979902341 -0.000192571348821758
outer loop
vertex 10.9884829542845 26.0182447553901 11.0132876231194
vertex 9.44780635751618 26.0165420132907 4.30804271421377
vertex 5.24780640539204 26.0159078546064 4.30804280996554
endloop
endfacet
facet normal 5.57816587030412e-005 0.999999979902341 -0.000192571348821758
outer loop
vertex 10.9884829542845 26.0182447553901 11.0132876231194
vertex 5.24780640539204 26.0159078546064 4.30804280996554
vertex 3.80848396188394 26.0186448557457 11.011148645806
endloop
endfacet
facet normal 0.999999986712544 0.000150980184206609 -6.14808630556897e-005
outer loop
vertex 10.9878063399617 26.0161244881662 0.00279755285632344
vertex 10.9889359226819 23.018244823784 11.0137405940244
vertex 10.9882593083591 23.01612455656 0.00325052376129384
endloop
endfacet
facet normal 0.999999986712544 0.000150980184206609 -6.14808630556897e-005
outer loop
vertex 10.9889359226819 23.018244823784 11.0137405940244
vertex 10.9878063399617 26.0161244881662 0.00279755285632344
vertex 10.9884829542845 26.0182447553901 11.0132876231194
endloop
endfacet
facet normal -0.999999979405961 0.000193434463659539 6.14099868179993e-005
outer loop
vertex 3.80790368643587 23.0186456920144 11.0124174206959
vertex 3.80780734756111 26.0165245885218 0.000658575542895234
vertex 3.80722707211303 23.0165251784335 0.000295741666737603
endloop
endfacet
facet normal -0.999999979405961 0.000193434463659539 6.14099868179993e-005
outer loop
vertex 3.80780734756111 26.0165245885218 0.000658575542895234
vertex 3.80790368643587 23.0186456920144 11.0124174206959
vertex 3.80848396188394 26.0186448557457 11.011148645806
endloop
endfacet
facet normal 0.000193432654908679 0.999999962750983 -0.000192566457410363
outer loop
vertex 0.00790444930523617 23.0193811699197 11.0150816639705
vertex 3.80722707211303 23.0165251784335 0.000295741666737603
vertex 0.00722776167167645 23.0172600698384 -0.000907400319472695
endloop
endfacet
facet normal 0.000193432654908679 0.999999962750983 -0.000192566457410363
outer loop
vertex 3.80722707211303 23.0165251784335 0.000295741666737603
vertex 0.00790444930523617 23.0193811699197 11.0150816639705
vertex 3.80790368643587 23.0186456920144 11.0124174206959
endloop
endfacet
facet normal 0.000477450449251329 -0.000103358383196876 -0.99999988067905
outer loop
vertex 0.00722776167167645 23.0172600698384 -0.000907400319472695
vertex 14.7899983157994 8.00000118123441 0.00723059094320176
vertex 3.94347670849292e-008 7.99999985169181 -0.00154043206047533
endloop
endfacet
facet normal 0.000477450449251329 -0.000103358383196876 -0.99999988067905
outer loop
vertex 14.7899983157994 8.00000118123441 0.00723059094320176
vertex 0.00722776167167645 23.0172600698384 -0.000907400319472695
vertex 3.80722707211303 23.0165251784335 0.000295741666737603
endloop
endfacet
facet normal 0.000477450449251329 -0.000103358383196876 -0.99999988067905
outer loop
vertex 14.7899983157994 8.00000118123441 0.00723059094320176
vertex 3.80722707211303 23.0165251784335 0.000295741666737603
vertex 3.80780734756111 26.0165245885218 0.000658575542895234
endloop
endfacet
facet normal 0.000477450449251329 -0.000103358383196876 -0.99999988067905
outer loop
vertex 14.7899983157994 8.00000118123441 0.00723059094320176
vertex 3.80780734756111 26.0165245885218 0.000658575542895234
vertex 10.9882593083591 23.01612455656 0.00325052376129384
endloop
endfacet
facet normal 0.000477450449251329 -0.000103358383196876 -0.99999988067905
outer loop
vertex 10.9882593083591 23.01612455656 0.00325052376129384
vertex 3.80780734756111 26.0165245885218 0.000658575542895234
vertex 10.9878063399617 26.0161244881662 0.00279755285632344
endloop
endfacet
facet normal 0.000477450449251329 -0.000103358383196876 -0.99999988067905
outer loop
vertex 14.7899983157994 8.00000118123441 0.00723059094320176
vertex 10.9882593083591 23.01612455656 0.00325052376129384
vertex 14.7882592650399 23.0166986468606 0.00529572966242735
endloop
endfacet
facet normal -0.00015099031276496 0.99999997006038 -0.000192564700352298
outer loop
vertex 10.9889359226819 23.018244823784 11.0137405940244
vertex 14.7882592650399 23.0166986468606 0.00529572966242735
vertex 10.9882593083591 23.01612455656 0.00325052376129384
endloop
endfacet
facet normal -0.00015099031276496 0.99999997006038 -0.000192564700352298
outer loop
vertex 14.7882592650399 23.0166986468606 0.00529572966242735
vertex 10.9889359226819 23.018244823784 11.0137405940244
vertex 14.7889358793637 23.018818402234 11.012434632703
endloop
endfacet
facet normal -0.999999948812333 0.000314024111755558 6.13529848846011e-005
outer loop
vertex 0.00067672706831553 8.00212172725321 11.0195845938984
vertex 0.00199870952498999 9.59444166174008 4.15543137046913
vertex 0.00194026765182946 9.50915854173166 3.50839661120145
endloop
endfacet
facet normal -0.999999948812333 0.000314024111755558 6.13529848846011e-005
outer loop
vertex 0.00199870952498999 9.59444166174008 4.15543137046913
vertex 0.00067672706831553 8.00212172725321 11.0195845938984
vertex 0.00212151425145297 9.84428372927455 4.75834607701303
endloop
endfacet
facet normal -0.999999948812333 0.000314024111755558 6.13529848846011e-005
outer loop
vertex 0.00212151425145297 9.84428372927455 4.75834607701303
vertex 0.00067672706831553 8.00212172725321 11.0195845938984
vertex 0.00230031289202306 10.2416584203162 5.27605308994584
endloop
endfacet
facet normal -0.999999948812333 0.000314024111755558 6.13529848846011e-005
outer loop
vertex 0.00230031289202306 10.2416584203162 5.27605308994584
vertex 0.00067672706831553 8.00212172725321 11.0195845938984
vertex 0.0025229206148528 10.7594853063633 5.6732715318875
endloop
endfacet
facet normal -0.999999948812333 0.000314024111755558 6.13529848846011e-005
outer loop
vertex 0.0025229206148528 10.7594853063633 5.6732715318875
vertex 0.00067672706831553 8.00212172725321 11.0195845938984
vertex 0.00790444930523617 23.0193811699197 11.0150816639705
endloop
endfacet
facet normal -0.999999948812333 0.000314024111755558 6.13529848846011e-005
outer loop
vertex 0.0025229206148528 10.7594853063633 5.6732715318875
vertex 0.00790444930523617 23.0193811699197 11.0150816639705
vertex 0.0027741670714811 11.3624753408811 5.92293162245418
endloop
endfacet
facet normal -0.999999948812333 0.000314024111755558 6.13529848846011e-005
outer loop
vertex 0.0027741670714811 11.3624753408811 5.92293162245418
vertex 0.00790444930523617 23.0193811699197 11.0150816639705
vertex 0.00303693023111857 12.0095357495052 6.00801943905655
endloop
endfacet
facet normal -0.999999948812333 0.000314024111755558 6.13529848846011e-005
outer loop
vertex 0.00303693023111857 12.0095357495052 6.00801943905655
vertex 0.00790444930523617 23.0193811699197 11.0150816639705
vertex 0.00329330321865755 12.656570434706 5.92273638760747
endloop
endfacet
facet normal -0.999999948812333 0.000314024111755558 6.13529848846011e-005
outer loop
vertex 0.00329330321865755 12.656570434706 5.92273638760747
vertex 0.00790444930523617 23.0193811699197 11.0150816639705
vertex 0.00352581463868757 13.2594850519623 5.67289436712625
endloop
endfacet
facet normal -0.999999948812333 0.000314024111755558 6.13529848846011e-005
outer loop
vertex 0.00352581463868757 13.2594850519623 5.67289436712625
vertex 0.00790444930523617 23.0193811699197 11.0150816639705
vertex 0.00371861922214971 13.7771919664716 5.27551969842524
endloop
endfacet
facet normal -0.999999948812333 0.000314024111755558 6.13529848846011e-005
outer loop
vertex 0.00371861922214971 13.7771919664716 5.27551969842524
vertex 0.00790444930523617 23.0193811699197 11.0150816639705
vertex 0.00385857765533548 14.1744103075613 4.75769280848373
endloop
endfacet
facet normal -0.999999948812333 0.000314024111755558 6.13529848846011e-005
outer loop
vertex 0.00385857765533548 14.1744103075613 4.75769280848373
vertex 0.00790444930523617 23.0193811699197 11.0150816639705
vertex 0.00393615200229309 14.4240703017204 4.15470274410181
endloop
endfacet
facet normal -0.999999948812333 0.000314024111755558 6.13529848846011e-005
outer loop
vertex 0.00393615200229309 14.4240703017204 4.15470274410181
vertex 0.00790444930523617 23.0193811699197 11.0150816639705
vertex 0.00394605569949338 14.5091580329296 3.50764228167895
endloop
endfacet
facet normal -0.999999948812333 0.000314024111755558 6.13529848846011e-005
outer loop
vertex 0.00394605569949338 14.5091580329296 3.50764228167895
vertex 0.00790444930523617 23.0193811699197 11.0150816639705
vertex 0.00722776167167645 23.0172600698384 -0.000907400319472695
endloop
endfacet
facet normal -0.999999948812333 0.000314024111755558 6.13529848846011e-005
outer loop
vertex 3.94347670849292e-008 7.99999985169181 -0.00154043206047533
vertex 0.00284939312020427 12.008780825156 1.00801945382381
vertex 0.00722776167167645 23.0172600698384 -0.000907400319472695
endloop
endfacet
facet normal -0.999999948812333 0.000314024111755558 6.13529848846011e-005
outer loop
vertex 0.00284939312020427 12.008780825156 1.00801945382381
vertex 3.94347670849292e-008 7.99999985169181 -0.00154043206047533
vertex 0.00259302013265965 11.3617461399553 1.09330250527289
endloop
endfacet
facet normal -0.999999948812333 0.000314024111755558 6.13529848846011e-005
outer loop
vertex 0.00259302013265965 11.3617461399553 1.09330250527289
vertex 3.94347670849292e-008 7.99999985169181 -0.00154043206047533
vertex 0.00236050871264091 10.758831522699 1.34314452575412
endloop
endfacet
facet normal -0.999999948812333 0.000314024111755558 6.13529848846011e-005
outer loop
vertex 0.00236050871264091 10.758831522699 1.34314452575412
vertex 3.94347670849292e-008 7.99999985169181 -0.00154043206047533
vertex 0.00216770412916749 10.2411246081896 1.74051919445514
endloop
endfacet
facet normal -0.999999948812333 0.000314024111755558 6.13529848846011e-005
outer loop
vertex 0.00216770412916749 10.2411246081896 1.74051919445514
vertex 3.94347670849292e-008 7.99999985169181 -0.00154043206047533
vertex 0.002027745695993 9.84390626709994 2.25834608439666
endloop
endfacet
facet normal -0.999999948812333 0.000314024111755558 6.13529848846011e-005
outer loop
vertex 0.002027745695993 9.84390626709994 2.25834608439666
vertex 3.94347670849292e-008 7.99999985169181 -0.00154043206047533
vertex 0.00195017134902411 9.59424627294091 2.86133614877856
endloop
endfacet
facet normal -0.999999948812333 0.000314024111755558 6.13529848846011e-005
outer loop
vertex 0.00195017134902411 9.59424627294091 2.86133614877856
vertex 3.94347670849292e-008 7.99999985169181 -0.00154043206047533
vertex 0.00067672706831553 8.00212172725321 11.0195845938984
endloop
endfacet
facet normal -0.999999948812333 0.000314024111755558 6.13529848846011e-005
outer loop
vertex 0.00195017134902411 9.59424627294091 2.86133614877856
vertex 0.00067672706831553 8.00212172725321 11.0195845938984
vertex 0.00194026765182946 9.50915854173166 3.50839661120145
endloop
endfacet
facet normal -0.999999948812333 0.000314024111755558 6.13529848846011e-005
outer loop
vertex 0.00722776167167645 23.0172600698384 -0.000907400319472695
vertex 0.00284939312020427 12.008780825156 1.00801945382381
vertex 0.00311215627982482 12.6558412337802 1.09310727042621
endloop
endfacet
facet normal -0.999999948812333 0.000314024111755558 6.13529848846011e-005
outer loop
vertex 0.00722776167167645 23.0172600698384 -0.000907400319472695
vertex 0.00311215627982482 12.6558412337802 1.09310727042621
vertex 0.0033634027364644 13.258831268298 1.34276736099287
endloop
endfacet
facet normal -0.999999948812333 0.000314024111755558 6.13529848846011e-005
outer loop
vertex 0.00722776167167645 23.0172600698384 -0.000907400319472695
vertex 0.0033634027364644 13.258831268298 1.34276736099287
vertex 0.00358601045929978 13.776658154345 1.73998580293452
endloop
endfacet
facet normal -0.999999948812333 0.000314024111755558 6.13529848846011e-005
outer loop
vertex 0.00722776167167645 23.0172600698384 -0.000907400319472695
vertex 0.00358601045929978 13.776658154345 1.73998580293452
vertex 0.00376480909986423 14.1740328453867 2.25769281586733
endloop
endfacet
facet normal -0.999999948812333 0.000314024111755558 6.13529848846011e-005
outer loop
vertex 0.00722776167167645 23.0172600698384 -0.000907400319472695
vertex 0.00376480909986423 14.1740328453867 2.25769281586733
vertex 0.00388761382632721 14.4238749129212 2.86060752241124
endloop
endfacet
facet normal -0.999999948812333 0.000314024111755558 6.13529848846011e-005
outer loop
vertex 0.00722776167167645 23.0172600698384 -0.000907400319472695
vertex 0.00388761382632721 14.4238749129212 2.86060752241124
vertex 0.00394605569949338 14.5091580329296 3.50764228167895
endloop
endfacet
facet normal 0.999999995256267 7.55450538336563e-005 -6.14850474318907e-005
outer loop
vertex 14.7899983157994 8.00000118123441 0.00723059094320176
vertex 14.8002860749735 9.59368816872453 2.86347477553178
vertex 14.7906749301232 8.00212093660782 11.0143694939838
endloop
endfacet
facet normal 0.999999995256267 7.55450538336563e-005 -6.14850474318907e-005
outer loop
vertex 14.8002860749735 9.59368816872453 2.86347477553178
vertex 14.7899983157994 8.00000118123441 0.00723059094320176
vertex 14.8002483650204 9.84334817937034 2.26048468519122
endloop
endfacet
facet normal 0.999999995256267 7.55450538336563e-005 -6.14850474318907e-005
outer loop
vertex 14.8002483650204 9.84334817937034 2.26048468519122
vertex 14.7899983157994 8.00000118123441 0.00723059094320176
vertex 14.8001883771479 10.2405665490542 1.74265775022763
endloop
endfacet
facet normal 0.999999995256267 7.55450538336563e-005 -6.14850474318907e-005
outer loop
vertex 14.8001883771479 10.2405665490542 1.74265775022763
vertex 14.7899983157994 8.00000118123441 0.00723059094320176
vertex 14.8001101994304 10.7582735023166 1.34528302050933
endloop
endfacet
facet normal 0.999999995256267 7.55450538336563e-005 -6.14850474318907e-005
outer loop
vertex 14.8001101994304 10.7582735023166 1.34528302050933
vertex 14.7899983157994 8.00000118123441 0.00723059094320176
vertex 14.8000191595502 11.3611881658438 1.09544092717383
endloop
endfacet
facet normal 0.999999995256267 7.55450538336563e-005 -6.14850474318907e-005
outer loop
vertex 14.8000191595502 11.3611881658438 1.09544092717383
vertex 14.7899983157994 8.00000118123441 0.00723059094320176
vertex 14.7999214617246 12.00822290168 1.01015779599834
endloop
endfacet
facet normal 0.999999995256267 7.55450538336563e-005 -6.14850474318907e-005
outer loop
vertex 14.7999214617246 12.00822290168 1.01015779599834
vertex 14.7899983157994 8.00000118123441 0.00723059094320176
vertex 14.7882592650399 23.0166986468606 0.00529572966242735
endloop
endfacet
facet normal 0.999999995256267 7.55450538336563e-005 -6.14850474318907e-005
outer loop
vertex 14.7906749301232 8.00212093660782 11.0143694939838
vertex 14.8002860749735 9.59368816872453 2.86347477553178
vertex 14.8002989371362 9.50860043425957 3.51053524308086
endloop
endfacet
facet normal 0.999999995256267 7.55450538336563e-005 -6.14850474318907e-005
outer loop
vertex 14.7999214617246 12.00822290168 1.01015779599834
vertex 14.7882592650399 23.0166986468606 0.00529572966242735
vertex 14.799823763899 12.6552833618536 1.09524553143544
endloop
endfacet
facet normal 0.999999995256267 7.55450538336563e-005 -6.14850474318907e-005
outer loop
vertex 14.799823763899 12.6552833618536 1.09524553143544
vertex 14.7882592650399 23.0166986468606 0.00529572966242735
vertex 14.7997327240188 13.2582734453215 1.34490554492924
endloop
endfacet
facet normal 0.999999995256267 7.55450538336563e-005 -6.14850474318907e-005
outer loop
vertex 14.7997327240188 13.2582734453215 1.34490554492924
vertex 14.7882592650399 23.0166986468606 0.00529572966242735
vertex 14.7996545463013 13.7761003743837 1.7421239191428
endloop
endfacet
facet normal 0.999999995256267 7.55450538336563e-005 -6.14850474318907e-005
outer loop
vertex 14.7996545463013 13.7761003743837 1.7421239191428
vertex 14.7882592650399 23.0166986468606 0.00529572966242735
vertex 14.7995945584289 14.1734750995741 2.25983087830788
endloop
endfacet
facet normal 0.999999995256267 7.55450538336563e-005 -6.14850474318907e-005
outer loop
vertex 14.7995945584289 14.1734750995741 2.25983087830788
vertex 14.7882592650399 23.0166986468606 0.00529572966242735
vertex 14.7995568484758 14.4233171900638 2.86274554870857
endloop
endfacet
facet normal 0.999999995256267 7.55450538336563e-005 -6.14850474318907e-005
outer loop
vertex 14.7995568484758 14.4233171900638 2.86274554870857
vertex 14.7882592650399 23.0166986468606 0.00529572966242735
vertex 14.799543986313 14.5086003202693 3.50978029192067
endloop
endfacet
facet normal 0.999999995256267 7.55450538336563e-005 -6.14850474318907e-005
outer loop
vertex 14.7906749301232 8.00212093660782 11.0143694939838
vertex 14.8001101994304 10.7589273092074 5.67540999007229
vertex 14.7889358793637 23.018818402234 11.012434632703
endloop
endfacet
facet normal 0.999999995256267 7.55450538336563e-005 -6.14850474318907e-005
outer loop
vertex 14.8001101994304 10.7589273092074 5.67540999007229
vertex 14.7906749301232 8.00212093660782 11.0143694939838
vertex 14.8001883771479 10.2411003801452 5.27819161585872
endloop
endfacet
facet normal 0.999999995256267 7.55450538336563e-005 -6.14850474318907e-005
outer loop
vertex 14.8001883771479 10.2411003801452 5.27819161585872
vertex 14.7906749301232 8.00212093660782 11.0143694939838
vertex 14.8002483650204 9.84372565495473 4.76048465669365
endloop
endfacet
facet normal 0.999999995256267 7.55450538336563e-005 -6.14850474318907e-005
outer loop
vertex 14.8002483650204 9.84372565495473 4.76048465669365
vertex 14.7906749301232 8.00212093660782 11.0143694939838
vertex 14.8002860749735 9.59388356446513 4.15756998629296
endloop
endfacet
facet normal 0.999999995256267 7.55450538336563e-005 -6.14850474318907e-005
outer loop
vertex 14.8002860749735 9.59388356446513 4.15756998629296
vertex 14.7906749301232 8.00212093660782 11.0143694939838
vertex 14.8002989371362 9.50860043425957 3.51053524308086
endloop
endfacet
facet normal 0.999999995256267 7.55450538336563e-005 -6.14850474318907e-005
outer loop
vertex 14.7889358793637 23.018818402234 11.012434632703
vertex 14.8001101994304 10.7589273092074 5.67540999007229
vertex 14.8000191595502 11.3619173926753 5.92507000356609
endloop
endfacet
facet normal 0.999999995256267 7.55450538336563e-005 -6.14850474318907e-005
outer loop
vertex 14.7889358793637 23.018818402234 11.012434632703
vertex 14.8000191595502 11.3619173926753 5.92507000356609
vertex 14.7999214617246 12.0089778528488 6.01015773900319
endloop
endfacet
facet normal 0.999999995256267 7.55450538336563e-005 -6.14850474318907e-005
outer loop
vertex 14.7889358793637 23.018818402234 11.012434632703
vertex 14.7999214617246 12.0089778528488 6.01015773900319
vertex 14.799823763899 12.6560125886851 5.92487460782771
endloop
endfacet
facet normal 0.999999995256267 7.55450538336563e-005 -6.14850474318907e-005
outer loop
vertex 14.7889358793637 23.018818402234 11.012434632703
vertex 14.799823763899 12.6560125886851 5.92487460782771
vertex 14.7997327240188 13.2589272522123 5.67503251449222
endloop
endfacet
facet normal 0.999999995256267 7.55450538336563e-005 -6.14850474318907e-005
outer loop
vertex 14.7889358793637 23.018818402234 11.012434632703
vertex 14.7997327240188 13.2589272522123 5.67503251449222
vertex 14.7996545463013 13.7766342054747 5.2776577847739
endloop
endfacet
facet normal 0.999999995256267 7.55450538336563e-005 -6.14850474318907e-005
outer loop
vertex 14.7889358793637 23.018818402234 11.012434632703
vertex 14.7996545463013 13.7766342054747 5.2776577847739
vertex 14.7995945584289 14.1738525751585 4.75983084981032
endloop
endfacet
facet normal 0.999999995256267 7.55450538336563e-005 -6.14850474318907e-005
outer loop
vertex 14.7889358793637 23.018818402234 11.012434632703
vertex 14.7995945584289 14.1738525751585 4.75983084981032
vertex 14.7995568484758 14.4235125858044 4.15684075946974
endloop
endfacet
facet normal 0.999999995256267 7.55450538336563e-005 -6.14850474318907e-005
outer loop
vertex 14.7889358793637 23.018818402234 11.012434632703
vertex 14.7995568484758 14.4235125858044 4.15684075946974
vertex 14.799543986313 14.5086003202693 3.50978029192067
endloop
endfacet
facet normal 0.999999995256267 7.55450538336563e-005 -6.14850474318907e-005
outer loop
vertex 14.7889358793637 23.018818402234 11.012434632703
vertex 14.799543986313 14.5086003202693 3.50978029192067
vertex 14.7882592650399 23.0166986468606 0.00529572966242735
endloop
endfacet
facet normal 0.00027654276206146 0.000379407108714899 0.999999889787167
outer loop
vertex 6.79041445752038 11.6596626462102 7.0181340423285
vertex 6.72094345831056 22.1908483658352 7.01412375554724
vertex 6.72051573443076 11.8285023687788 7.01810169771714
endloop
endfacet
facet normal 0.00027654276206146 0.000379407108714899 0.999999889787167
outer loop
vertex 6.72094345831056 22.1908483658352 7.01412375554724
vertex 6.79041445752038 11.6596626462102 7.0181340423285
vertex 6.79090531076597 22.359661933296 7.01402952780375
endloop
endfacet
facet normal 0.00027654276206146 0.000379407108714899 0.999999889787167
outer loop
vertex 6.79090531076597 22.359661933296 7.01402952780375
vertex 6.79041445752038 11.6596626462102 7.0181340423285
vertex 6.90163037333488 11.5146671138928 7.01814545760732
endloop
endfacet
facet normal 0.00027654276206146 0.000379407108714899 0.999999889787167
outer loop
vertex 6.79090531076597 22.359661933296 7.01402952780375
vertex 6.90163037333488 11.5146671138928 7.01814545760732
vertex 6.90217544246631 22.5046158544674 7.01393590542703
endloop
endfacet
facet normal 0.00027654276206146 0.000379407108714899 0.999999889787167
outer loop
vertex 6.90217544246631 22.5046158544674 7.01393590542703
vertex 6.90163037333488 11.5146671138928 7.01814545760732
vertex 7.0465843010045 11.4033969777375 7.01813516562118
endloop
endfacet
facet normal 0.00027654276206146 0.000379407108714899 0.999999889787167
outer loop
vertex 6.90217544246631 22.5046158544674 7.01393590542703
vertex 7.0465843010045 11.4033969777375 7.01813516562118
vertex 7.04717097781879 22.6158317591692 7.01384926862733
endloop
endfacet
facet normal 0.00027654276206146 0.000379407108714899 0.999999889787167
outer loop
vertex 7.04717097781879 22.6158317591692 7.01384926862733
vertex 7.0465843010045 11.4033969777375 7.01813516562118
vertex 7.21539786990623 11.3334351136408 7.01810386775193
endloop
endfacet
facet normal 0.00027654276206146 0.000379407108714899 0.999999889787167
outer loop
vertex 7.04717097781879 22.6158317591692 7.01384926862733
vertex 7.21539786990623 11.3334351136408 7.01810386775193
vertex 7.21601071070559 22.6857304672888 7.01377552155941
endloop
endfacet
facet normal 0.00027654276206146 0.000379407108714899 0.999999889787167
outer loop
vertex 7.21601071070559 22.6857304672888 7.01377552155941
vertex 7.21539786990623 11.3334351136408 7.01810386775193
vertex 7.39656671429703 11.3095493070235 7.01805369689767
endloop
endfacet
facet normal 0.00027654276206146 0.000379407108714899 0.999999889787167
outer loop
vertex 7.21601071070559 22.6857304672888 7.01377552155941
vertex 7.39656671429703 11.3095493070235 7.01805369689767
vertex 7.39718849235131 22.7095484973811 7.01371968996403
endloop
endfacet
facet normal 0.00027654276206146 0.000379407108714899 0.999999889787167
outer loop
vertex 7.39718849235131 22.7095484973811 7.01371968996403
vertex 7.39656671429703 11.3095493070235 7.01805369689767
vertex 7.57774447682735 11.3333673361332 7.01798807211918
endloop
endfacet
facet normal 0.00027654276206146 0.000379407108714899 0.999999889787167
outer loop
vertex 7.39718849235131 22.7095484973811 7.01371968996403
vertex 7.57774447682735 11.3333673361332 7.01798807211918
vertex 7.57835735634726 22.6856626900565 7.01368557867219
endloop
endfacet
facet normal 0.00027654276206146 0.000379407108714899 0.999999889787167
outer loop
vertex 7.57835735634726 22.6856626900565 7.01368557867219
vertex 7.57774447682735 11.3333673361332 7.01798807211918
vertex 7.74658419239115 11.4032660416474 7.01791146563664
endloop
endfacet
facet normal 0.00027654276206146 0.000379407108714899 0.999999889787167
outer loop
vertex 7.57835735634726 22.6856626900565 7.01368557867219
vertex 7.74658419239115 11.4032660416474 7.01791146563664
vertex 7.74717094400781 22.6157008236109 7.01367551231202
endloop
endfacet
facet normal 0.00027654276206146 0.000379407108714899 0.999999889787167
outer loop
vertex 7.74717094400781 22.6157008236109 7.01367551231202
vertex 7.74658419239115 11.4032660416474 7.01791146563664
vertex 7.89157971339358 11.5144819422983 7.01782909805529
endloop
endfacet
facet normal 0.00027654276206146 0.000379407108714899 0.999999889787167
outer loop
vertex 7.74717094400781 22.6157008236109 7.01367551231202
vertex 7.89157971339358 11.5144819422983 7.01782909805529
vertex 7.89212488831153 22.5044306836251 7.01369017688936
endloop
endfacet
facet normal 0.00027654276206146 0.000379407108714899 0.999999889787167
outer loop
vertex 7.89212488831153 22.5044306836251 7.01369017688936
vertex 7.89157971339358 11.5144819422983 7.01782909805529
vertex 8.00284983469476 11.6594358582495 7.01774658258966
endloop
endfacet
facet normal 0.00027654276206146 0.000379407108714899 0.999999889787167
outer loop
vertex 7.89212488831153 22.5044306836251 7.01369017688936
vertex 8.00284983469476 11.6594358582495 7.01774658258966
vertex 8.00334081750185 22.3594351462565 7.01372857303748
endloop
endfacet
facet normal 0.00027654276206146 0.000379407108714899 0.999999889787167
outer loop
vertex 8.00334081750185 22.3594351462565 7.01372857303748
vertex 8.00284983469476 11.6594358582495 7.01774658258966
vertex 8.07281168141058 11.8282494196767 7.01766954253236
endloop
endfacet
facet normal 0.00027654276206146 0.000379407108714899 0.999999889787167
outer loop
vertex 8.00334081750185 22.3594351462565 7.01372857303748
vertex 8.07281168141058 11.8282494196767 7.01766954253236
vertex 8.07323954979745 22.1905954177605 7.01378808412236
endloop
endfacet
facet normal 0.00027654276206146 0.000379407108714899 0.999999889787167
outer loop
vertex 8.07323954979745 22.1905954177605 7.01378808412236
vertex 8.07281168141058 11.8282494196767 7.01766954253236
vertex 8.09705760210552 22.0094176466132 7.01386465456188
endloop
endfacet
facet normal 0.00016915276738805 0.000231292441986725 0.999999958945573
outer loop
vertex 0.00067672706831553 8.00212172725321 11.0195845938984
vertex 6.79109070504303 11.6607238272002 11.0159653965146
vertex 0.00790444930523617 23.0193811699197 11.0150816639705
endloop
endfacet
facet normal 0.00016915276738805 0.000231292441986725 0.999999958945573
outer loop
vertex 6.79109070504303 11.6607238272002 11.0159653965146
vertex 0.00067672706831553 8.00212172725321 11.0195845938984
vertex 6.9023066214172 11.5157282958739 11.0159801204057
endloop
endfacet
facet normal 0.00016915276738805 0.000231292441986725 0.999999958945573
outer loop
vertex 6.9023066214172 11.5157282958739 11.0159801204057
vertex 0.00067672706831553 8.00212172725321 11.0195845938984
vertex 7.04726055103354 11.4044581631662 11.0159813369881
endloop
endfacet
facet normal 0.00016915276738805 0.000231292441986725 0.999999958945573
outer loop
vertex 7.04726055103354 11.4044581631662 11.0159813369881
vertex 0.00067672706831553 8.00212172725321 11.0195845938984
vertex 14.7906749301232 8.00212093660782 11.0143694939838
endloop
endfacet
facet normal 0.00016915276738805 0.000231292441986725 0.999999958945573
outer loop
vertex 0.00790444930523617 23.0193811699197 11.0150816639705
vertex 6.79109070504303 11.6607238272002 11.0159653965146
vertex 6.72119198281893 11.8295635513016 11.0159381687237
endloop
endfacet
facet normal 0.00016915276738805 0.000231292441986725 0.999999958945573
outer loop
vertex 0.00790444930523617 23.0193811699197 11.0150816639705
vertex 6.72119198281893 11.8295635513016 11.0159381687237
vertex 3.80790368643587 23.0186456920144 11.0124174206959
endloop
endfacet
facet normal 0.00016915276738805 0.000231292441986725 0.999999958945573
outer loop
vertex 3.80790368643587 23.0186456920144 11.0124174206959
vertex 6.72119198281893 11.8295635513016 11.0159381687237
vertex 3.80848396188394 26.0186448557457 11.011148645806
endloop
endfacet
facet normal 0.00016915276738805 0.000231292441986725 0.999999958945573
outer loop
vertex 7.04726055103354 11.4044581631662 11.0159813369881
vertex 14.7906749301232 8.00212093660782 11.0143694939838
vertex 7.21607412313638 11.3344963047385 11.0159689633538
endloop
endfacet
facet normal 0.00016915276738805 0.000231292441986725 0.999999958945573
outer loop
vertex 7.21607412313638 11.3344963047385 11.0159689633538
vertex 14.7906749301232 8.00212093660782 11.0143694939838
vertex 7.39724297176454 11.3106105056253 11.0159438427454
endloop
endfacet
facet normal 0.00016915276738805 0.000231292441986725 0.999999958945573
outer loop
vertex 7.39724297176454 11.3106105056253 11.0159438427454
vertex 14.7906749301232 8.00212093660782 11.0143694939838
vertex 7.57842073927969 11.3344285435629 11.015907687091
endloop
endfacet
facet normal 0.00016915276738805 0.000231292441986725 0.999999958945573
outer loop
vertex 7.57842073927969 11.3344285435629 11.015907687091
vertex 14.7906749301232 8.00212093660782 11.0143694939838
vertex 7.74726046023609 11.4043272586271 11.0158629603387
endloop
endfacet
facet normal 0.00016915276738805 0.000231292441986725 0.999999958945573
outer loop
vertex 7.74726046023609 11.4043272586271 11.0158629603387
vertex 14.7906749301232 8.00212093660782 11.0143694939838
vertex 7.89225598667139 11.5155431688994 11.0158127105426
endloop
endfacet
facet normal 0.00016915276738805 0.000231292441986725 0.999999958945573
outer loop
vertex 7.89225598667139 11.5155431688994 11.0158127105426
vertex 14.7906749301232 8.00212093660782 11.0143694939838
vertex 8.00352611307546 11.6604970938875 11.0157603621433
endloop
endfacet
facet normal 0.00016915276738805 0.000231292441986725 0.999999958945573
outer loop
vertex 8.00352611307546 11.6604970938875 11.0157603621433
vertex 14.7906749301232 8.00212093660782 11.0143694939838
vertex 8.07348796421644 11.8293106631514 11.0157094825978
endloop
endfacet
facet normal 0.00016915276738805 0.000231292441986725 0.999999958945573
outer loop
vertex 8.07348796421644 11.8293106631514 11.0157094825978
vertex 14.7906749301232 8.00212093660782 11.0143694939838
vertex 8.09773412949987 22.0104792443043 11.0133505538516
endloop
endfacet
facet normal 0.00016915276738805 0.000231292441986725 0.999999958945573
outer loop
vertex 8.09773412949987 22.0104792443043 11.0133505538516
vertex 14.7906749301232 8.00212093660782 11.0143694939838
vertex 10.9889359226819 23.018244823784 11.0137405940244
endloop
endfacet
facet normal 0.00016915276738805 0.000231292441986725 0.999999958945573
outer loop
vertex 8.09773412949987 22.0104792443043 11.0133505538516
vertex 10.9889359226819 23.018244823784 11.0137405940244
vertex 10.9884829542845 26.0182447553901 11.0132876231194
endloop
endfacet
facet normal 0.00016915276738805 0.000231292441986725 0.999999958945573
outer loop
vertex 10.9889359226819 23.018244823784 11.0137405940244
vertex 14.7906749301232 8.00212093660782 11.0143694939838
vertex 14.7889358793637 23.018818402234 11.012434632703
endloop
endfacet
facet normal 0.00016915276738805 0.000231292441986725 0.999999958945573
outer loop
vertex 3.80848396188394 26.0186448557457 11.011148645806
vertex 6.90285197262315 22.5056774570512 11.0134381358749
vertex 10.9884829542845 26.0182447553901 11.0132876231194
endloop
endfacet
facet normal 0.00016915276738805 0.000231292441986725 0.999999958945573
outer loop
vertex 6.90285197262315 22.5056774570512 11.0134381358749
vertex 3.80848396188394 26.0186448557457 11.011148645806
vertex 6.79158183394114 22.3607235235148 11.0134904842781
endloop
endfacet
facet normal 0.00016915276738805 0.000231292441986725 0.999999958945573
outer loop
vertex 6.79158183394114 22.3607235235148 11.0134904842781
vertex 3.80848396188394 26.0186448557457 11.011148645806
vertex 6.72161997415319 22.1919099430675 11.0135413638277
endloop
endfacet
facet normal 0.00016915276738805 0.000231292441986725 0.999999958945573
outer loop
vertex 6.72161997415319 22.1919099430675 11.0135413638277
vertex 3.80848396188394 26.0186448557457 11.011148645806
vertex 6.72119198281893 11.8295635513016 11.0159381687237
endloop
endfacet
facet normal 0.00016915276738805 0.000231292441986725 0.999999958945573
outer loop
vertex 10.9884829542845 26.0182447553901 11.0132876231194
vertex 6.90285197262315 22.5056774570512 11.0134381358749
vertex 7.04784751413065 22.6168933726538 11.013387886075
endloop
endfacet
facet normal 0.00016915276738805 0.000231292441986725 0.999999958945573
outer loop
vertex 10.9884829542845 26.0182447553901 11.0132876231194
vertex 7.04784751413065 22.6168933726538 11.013387886075
vertex 7.21668725192636 22.6867920894675 11.0133431593193
endloop
endfacet
facet normal 0.00016915276738805 0.000231292441986725 0.999999958945573
outer loop
vertex 10.9884829542845 26.0182447553901 11.0132876231194
vertex 7.21668725192636 22.6867920894675 11.0133431593193
vertex 7.39786503690036 22.7106101254544 11.0133070036624
endloop
endfacet
facet normal 0.00016915276738805 0.000231292441986725 0.999999958945573
outer loop
vertex 10.9884829542845 26.0182447553901 11.0132876231194
vertex 7.39786503690036 22.7106101254544 11.0133070036624
vertex 7.57903390241712 22.6867243208232 11.0132818830525
endloop
endfacet
facet normal 0.00016915276738805 0.000231292441986725 0.999999958945573
outer loop
vertex 10.9884829542845 26.0182447553901 11.0132876231194
vertex 7.57903390241712 22.6867243208232 11.0132818830525
vertex 7.74784748968738 22.6167624536864 11.0132695094176
endloop
endfacet
facet normal 0.00016915276738805 0.000231292441986725 0.999999958945573
outer loop
vertex 10.9884829542845 26.0182447553901 11.0132876231194
vertex 7.74784748968738 22.6167624536864 11.0132695094176
vertex 7.89280143171631 22.5054923096718 11.0132707260006
endloop
endfacet
facet normal 0.00016915276738805 0.000231292441986725 0.999999958945573
outer loop
vertex 10.9884829542845 26.0182447553901 11.0132876231194
vertex 7.89280143171631 22.5054923096718 11.0132707260006
vertex 8.00401735690236 22.3604967652114 11.0132854498932
endloop
endfacet
facet normal 0.00016915276738805 0.000231292441986725 0.999999958945573
outer loop
vertex 10.9884829542845 26.0182447553901 11.0132876231194
vertex 8.00401735690236 22.3604967652114 11.0132854498932
vertex 8.07391608373711 22.1916570270439 11.0133126776866
endloop
endfacet
facet normal 0.00016915276738805 0.000231292441986725 0.999999958945573
outer loop
vertex 10.9884829542845 26.0182447553901 11.0132876231194
vertex 8.07391608373711 22.1916570270439 11.0133126776866
vertex 8.09773412949987 22.0104792443043 11.0133505538516
endloop
endfacet
facet normal -0.999997150015635 0.00238150399760493 0.000168520967245249
outer loop
vertex 8.07348796421644 11.8293106631514 11.0157094825978
vertex 8.09705760210552 22.0094176466132 7.01386465456188
vertex 8.07281168141058 11.8282494196767 7.01766954253236
endloop
endfacet
facet normal -0.999997150015635 0.00238150399760493 0.000168520967245249
outer loop
vertex 8.09705760210552 22.0094176466132 7.01386465456188
vertex 8.07348796421644 11.8293106631514 11.0157094825978
vertex 8.09773412949987 22.0104792443043 11.0133505538516
endloop
endfacet
facet normal -0.923807958607284 0.382856177471826 5.46397715800731e-005
outer loop
vertex 8.00352611307546 11.6604970938875 11.0157603621433
vertex 8.07281168141058 11.8282494196767 7.01766954253236
vertex 8.00284983469476 11.6594358582495 7.01774658258966
endloop
endfacet
facet normal -0.923807958607284 0.382856177471826 5.46397715800731e-005
outer loop
vertex 8.07281168141058 11.8282494196767 7.01766954253236
vertex 8.00352611307546 11.6604970938875 11.0157603621433
vertex 8.07348796421644 11.8293106631514 11.0157094825978
endloop
endfacet
facet normal -0.793239504178958 0.608909753786565 -2.74500530318169e-005
outer loop
vertex 7.89225598667139 11.5155431688994 11.0158127105426
vertex 8.00284983469476 11.6594358582495 7.01774658258966
vertex 7.89157971339358 11.5144819422983 7.01782909805529
endloop
endfacet
facet normal -0.793239504178958 0.608909753786565 -2.74500530318169e-005
outer loop
vertex 8.00284983469476 11.6594358582495 7.01774658258966
vertex 7.89225598667139 11.5155431688994 11.0158127105426
vertex 8.00352611307546 11.6604970938875 11.0157603621433
endloop
endfacet
facet normal -0.608613087131723 0.793467137680801 -0.000107669083503132
outer loop
vertex 7.74658419239115 11.4032660416474 7.01791146563664
vertex 7.89225598667139 11.5155431688994 11.0158127105426
vertex 7.89157971339358 11.5144819422983 7.01782909805529
endloop
endfacet
facet normal -0.608613087131723 0.793467137680801 -0.000107669083503132
outer loop
vertex 7.89225598667139 11.5155431688994 11.0158127105426
vertex 7.74658419239115 11.4032660416474 7.01791146563664
vertex 7.74726046023609 11.4043272586271 11.0158629603387
endloop
endfacet
facet normal -0.382510692330549 0.923951047217493 -0.000180550553600918
outer loop
vertex 7.57774447682735 11.3333673361332 7.01798807211918
vertex 7.74726046023609 11.4043272586271 11.0158629603387
vertex 7.74658419239115 11.4032660416474 7.01791146563664
endloop
endfacet
facet normal -0.382510692330549 0.923951047217493 -0.000180550553600918
outer loop
vertex 7.74726046023609 11.4043272586271 11.0158629603387
vertex 7.57774447682735 11.3333673361332 7.01798807211918
vertex 7.57842073927969 11.3344285435629 11.015907687091
endloop
endfacet
facet normal -0.130340824946094 0.991469218488288 -0.000241127758791447
outer loop
vertex 7.39656671429703 11.3095493070235 7.01805369689767
vertex 7.57842073927969 11.3344285435629 11.015907687091
vertex 7.57774447682735 11.3333673361332 7.01798807211918
endloop
endfacet
facet normal -0.130340824946094 0.991469218488288 -0.000241127758791447
outer loop
vertex 7.57842073927969 11.3344285435629 11.015907687091
vertex 7.39656671429703 11.3095493070235 7.01805369689767
vertex 7.39724297176454 11.3106105056253 11.0159438427454
endloop
endfacet
facet normal 0.13071155406831 0.991420399352686 -0.000285272516455194
outer loop
vertex 7.21539786990623 11.3334351136408 7.01810386775193
vertex 7.39724297176454 11.3106105056253 11.0159438427454
vertex 7.39656671429703 11.3095493070235 7.01805369689767
endloop
endfacet
facet normal 0.13071155406831 0.991420399352686 -0.000285272516455194
outer loop
vertex 7.39724297176454 11.3106105056253 11.0159438427454
vertex 7.21539786990623 11.3334351136408 7.01810386775193
vertex 7.21607412313638 11.3344963047385 11.0159689633538
endloop
endfacet
facet normal 0.382856155385039 0.923807917371554 -0.000309976480379088
outer loop
vertex 7.0465843010045 11.4033969777375 7.01813516562118
vertex 7.21607412313638 11.3344963047385 11.0159689633538
vertex 7.21539786990623 11.3334351136408 7.01810386775193
endloop
endfacet
facet normal 0.382856155385039 0.923807917371554 -0.000309976480379088
outer loop
vertex 7.21607412313638 11.3344963047385 11.0159689633538
vertex 7.0465843010045 11.4033969777375 7.01813516562118
vertex 7.04726055103354 11.4044581631662 11.0159813369881
endloop
endfacet
facet normal 0.608909740764896 0.793239452677546 -0.000313556142229527
outer loop
vertex 6.90163037333488 11.5146671138928 7.01814545760732
vertex 7.04726055103354 11.4044581631662 11.0159813369881
vertex 7.0465843010045 11.4033969777375 7.01813516562118
endloop
endfacet
facet normal 0.608909740764896 0.793239452677546 -0.000313556142229527
outer loop
vertex 7.04726055103354 11.4044581631662 11.0159813369881
vertex 6.90163037333488 11.5146671138928 7.01814545760732
vertex 6.9023066214172 11.5157282958739 11.0159801204057
endloop
endfacet
facet normal 0.793467132553532 0.608613031473062 -0.000295767552840695
outer loop
vertex 6.79041445752038 11.6596626462102 7.0181340423285
vertex 6.9023066214172 11.5157282958739 11.0159801204057
vertex 6.90163037333488 11.5146671138928 7.01814545760732
endloop
endfacet
facet normal 0.793467132553532 0.608613031473062 -0.000295767552840695
outer loop
vertex 6.9023066214172 11.5157282958739 11.0159801204057
vertex 6.79041445752038 11.6596626462102 7.0181340423285
vertex 6.79109070504303 11.6607238272002 11.0159653965146
endloop
endfacet
facet normal 0.923951050716094 0.382510639600984 -0.000257822947090216
outer loop
vertex 6.72051573443076 11.8285023687788 7.01810169771714
vertex 6.79109070504303 11.6607238272002 11.0159653965146
vertex 6.79041445752038 11.6596626462102 7.0181340423285
endloop
endfacet
facet normal 0.923951050716094 0.382510639600984 -0.000257822947090216
outer loop
vertex 6.79109070504303 11.6607238272002 11.0159653965146
vertex 6.72051573443076 11.8285023687788 7.01810169771714
vertex 6.72119198281893 11.8295635513016 11.0159381687237
endloop
endfacet
facet normal 0.999999984840821 -4.13416723581271e-005 -0.000169142613008075
outer loop
vertex 6.72094345831056 22.1908483658352 7.01412375554724
vertex 6.72119198281893 11.8295635513016 11.0159381687237
vertex 6.72051573443076 11.8285023687788 7.01810169771714
endloop
endfacet
facet normal 0.999999984840821 -4.13416723581271e-005 -0.000169142613008075
outer loop
vertex 6.72119198281893 11.8295635513016 11.0159381687237
vertex 6.72094345831056 22.1908483658352 7.01412375554724
vertex 6.72161997415319 22.1919099430675 11.0135413638277
endloop
endfacet
facet normal 0.923807950605281 -0.382856196779739 -5.46427081155009e-005
outer loop
vertex 6.79090531076597 22.359661933296 7.01402952780375
vertex 6.72161997415319 22.1919099430675 11.0135413638277
vertex 6.72094345831056 22.1908483658352 7.01412375554724
endloop
endfacet
facet normal 0.923807950605281 -0.382856196779739 -5.46427081155009e-005
outer loop
vertex 6.72161997415319 22.1919099430675 11.0135413638277
vertex 6.79090531076597 22.359661933296 7.01402952780375
vertex 6.79158183394114 22.3607235235148 11.0134904842781
endloop
endfacet
facet normal 0.793239488683149 -0.608909773973475 2.74457465415072e-005
outer loop
vertex 6.90217544246631 22.5046158544674 7.01393590542703
vertex 6.79158183394114 22.3607235235148 11.0134904842781
vertex 6.79090531076597 22.359661933296 7.01402952780375
endloop
endfacet
facet normal 0.793239488683149 -0.608909773973475 2.74457465415072e-005
outer loop
vertex 6.79158183394114 22.3607235235148 11.0134904842781
vertex 6.90217544246631 22.5046158544674 7.01393590542703
vertex 6.90285197262315 22.5056774570512 11.0134381358749
endloop
endfacet
facet normal 0.608613065411473 -0.793467154341581 0.000107663943342405
outer loop
vertex 7.04784751413065 22.6168933726538 11.013387886075
vertex 6.90217544246631 22.5046158544674 7.01393590542703
vertex 7.04717097781879 22.6158317591692 7.01384926862733
endloop
endfacet
facet normal 0.608613065411473 -0.793467154341581 0.000107663943342405
outer loop
vertex 6.90217544246631 22.5046158544674 7.01393590542703
vertex 7.04784751413065 22.6168933726538 11.013387886075
vertex 6.90285197262315 22.5056774570512 11.0134381358749
endloop
endfacet
facet normal 0.382510668159087 -0.923951057225416 0.000180545075754676
outer loop
vertex 7.21668725192636 22.6867920894675 11.0133431593193
vertex 7.04717097781879 22.6158317591692 7.01384926862733
vertex 7.21601071070559 22.6857304672888 7.01377552155941
endloop
endfacet
facet normal 0.382510668159087 -0.923951057225416 0.000180545075754676
outer loop
vertex 7.04717097781879 22.6158317591692 7.01384926862733
vertex 7.21668725192636 22.6867920894675 11.0133431593193
vertex 7.04784751413065 22.6168933726538 11.013387886075
endloop
endfacet
facet normal 0.130340803001004 -0.991469221374556 0.000241122343549708
outer loop
vertex 7.39786503690036 22.7106101254544 11.0133070036624
vertex 7.21601071070559 22.6857304672888 7.01377552155941
vertex 7.39718849235131 22.7095484973811 7.01371968996403
endloop
endfacet
facet normal 0.130340803001004 -0.991469221374556 0.000241122343549708
outer loop
vertex 7.21601071070559 22.6857304672888 7.01377552155941
vertex 7.39786503690036 22.7106101254544 11.0133070036624
vertex 7.21668725192636 22.6867920894675 11.0133431593193
endloop
endfacet
facet normal -0.130711570301007 -0.99142039721398 0.000285267451160269
outer loop
vertex 7.57903390241712 22.6867243208232 11.0132818830525
vertex 7.39718849235131 22.7095484973811 7.01371968996403
vertex 7.57835735634726 22.6856626900565 7.01368557867219
endloop
endfacet
facet normal -0.130711570301007 -0.99142039721398 0.000285267451160269
outer loop
vertex 7.39718849235131 22.7095484973811 7.01371968996403
vertex 7.57903390241712 22.6867243208232 11.0132818830525
vertex 7.39786503690036 22.7106101254544 11.0133070036624
endloop
endfacet
facet normal -0.382856165011971 -0.923807913383357 0.000309971958768939
outer loop
vertex 7.74784748968738 22.6167624536864 11.0132695094176
vertex 7.57835735634726 22.6856626900565 7.01368557867219
vertex 7.74717094400781 22.6157008236109 7.01367551231202
endloop
endfacet
facet normal -0.382856165011971 -0.923807913383357 0.000309971958768939
outer loop
vertex 7.57835735634726 22.6856626900565 7.01368557867219
vertex 7.74784748968738 22.6167624536864 11.0132695094176
vertex 7.57903390241712 22.6867243208232 11.0132818830525
endloop
endfacet
facet normal -0.608909745423911 -0.793239449102689 0.000313552308688669
outer loop
vertex 7.89212488831153 22.5044306836251 7.01369017688936
vertex 7.74784748968738 22.6167624536864 11.0132695094176
vertex 7.74717094400781 22.6157008236109 7.01367551231202
endloop
endfacet
facet normal -0.608909745423911 -0.793239449102689 0.000313552308688669
outer loop
vertex 7.74784748968738 22.6167624536864 11.0132695094176
vertex 7.89212488831153 22.5044306836251 7.01369017688936
vertex 7.89280143171631 22.5054923096718 11.0132707260006
endloop
endfacet
facet normal -0.793467134956308 -0.608613028341948 0.000295764553255253
outer loop
vertex 8.00401735690236 22.3604967652114 11.0132854498932
vertex 7.89212488831153 22.5044306836251 7.01369017688936
vertex 8.00334081750185 22.3594351462565 7.01372857303748
endloop
endfacet
facet normal -0.793467134956308 -0.608613028341948 0.000295764553255253
outer loop
vertex 7.89212488831153 22.5044306836251 7.01369017688936
vertex 8.00401735690236 22.3604967652114 11.0132854498932
vertex 7.89280143171631 22.5054923096718 11.0132707260006
endloop
endfacet
facet normal -0.923951052690262 -0.382510634833734 0.000257820966815242
outer loop
vertex 8.07391608373711 22.1916570270439 11.0133126776866
vertex 8.00334081750185 22.3594351462565 7.01372857303748
vertex 8.07323954979745 22.1905954177605 7.01378808412236
endloop
endfacet
facet normal -0.923951052690262 -0.382510634833734 0.000257820966815242
outer loop
vertex 8.00334081750185 22.3594351462565 7.01372857303748
vertex 8.07391608373711 22.1916570270439 11.0133126776866
vertex 8.00401735690236 22.3604967652114 11.0132854498932
endloop
endfacet
facet normal -0.991469234170666 -0.130340771689998 0.000202307413095582
outer loop
vertex 8.09773412949987 22.0104792443043 11.0133505538516
vertex 8.07323954979745 22.1905954177605 7.01378808412236
vertex 8.09705760210552 22.0094176466132 7.01386465456188
endloop
endfacet
facet normal -0.991469234170666 -0.130340771689998 0.000202307413095582
outer loop
vertex 8.07323954979745 22.1905954177605 7.01378808412236
vertex 8.09773412949987 22.0104792443043 11.0133505538516
vertex 8.07391608373711 22.1916570270439 11.0133126776866
endloop
endfacet
endsolid rod-cap
