solid command-top-display-mount
facet normal 0.70710678118655 -0.707106781186545 0.0
outer loop
vertex 17.6204175927348 6.36066017177982 0.0
vertex 17.3820396588379 6.05 3.0
vertex 17.3820396588379 6.05 0.0
endloop
endfacet
facet normal 0.866025403784433 -0.500000000000009 0.0
outer loop
vertex 17.3820396588379 6.05 3.0
vertex 17.6204175927348 6.36066017177982 0.0
vertex 17.6204175927348 6.36066017177982 3.0
endloop
endfacet
facet normal -0.707106781186544 -0.707106781186551 0.0
outer loop
vertex 19.7417379362944 6.36066017177982 3.0
vertex 19.4310777645146 6.59903810567666 0.0
vertex 19.7417379362944 6.36066017177982 0.0
endloop
endfacet
facet normal -0.500000000000002 -0.866025403784438 0.0
outer loop
vertex 19.4310777645146 6.59903810567666 0.0
vertex 19.7417379362944 6.36066017177982 3.0
vertex 19.4310777645146 6.59903810567666 3.0
endloop
endfacet
facet normal -0.258819045102525 -0.965925826289067 0.0
outer loop
vertex 19.0693063321684 6.7488887394336 3.0
vertex 18.6810777645146 6.8 0.0
vertex 19.0693063321684 6.7488887394336 0.0
endloop
endfacet
facet normal 2.79808850723313e-015 -1.0 0.0
outer loop
vertex 18.6810777645146 6.8 0.0
vertex 19.0693063321684 6.7488887394336 3.0
vertex 18.6810777645146 6.8 3.0
endloop
endfacet
facet normal 0.500000000000005 -0.866025403784436 0.0
outer loop
vertex 17.9310777645146 6.59903810567666 3.0
vertex 17.6204175927348 6.36066017177982 0.0
vertex 17.9310777645146 6.59903810567666 0.0
endloop
endfacet
facet normal 0.70710678118655 -0.707106781186545 0.0
outer loop
vertex 17.6204175927348 6.36066017177982 0.0
vertex 17.9310777645146 6.59903810567666 3.0
vertex 17.6204175927348 6.36066017177982 3.0
endloop
endfacet
facet normal 0.866025403784433 -0.500000000000009 0.0
outer loop
vertex 17.3820396588379 6.05 0.0
vertex 17.232189025081 5.68822856765378 3.0
vertex 17.232189025081 5.68822856765378 0.0
endloop
endfacet
facet normal 0.965925826289067 -0.258819045102526 0.0
outer loop
vertex 17.232189025081 5.68822856765378 3.0
vertex 17.3820396588379 6.05 0.0
vertex 17.3820396588379 6.05 3.0
endloop
endfacet
facet normal 0.258819045102522 -0.965925826289068 0.0
outer loop
vertex 18.2928491968608 6.7488887394336 3.0
vertex 17.9310777645146 6.59903810567666 0.0
vertex 18.2928491968608 6.7488887394336 0.0
endloop
endfacet
facet normal 0.500000000000005 -0.866025403784436 0.0
outer loop
vertex 17.9310777645146 6.59903810567666 0.0
vertex 18.2928491968608 6.7488887394336 3.0
vertex 17.9310777645146 6.59903810567666 3.0
endloop
endfacet
facet normal 0.965925826289067 -0.258819045102526 0.0
outer loop
vertex 17.232189025081 5.68822856765378 0.0
vertex 17.1810777645146 5.3 3.0
vertex 17.1810777645146 5.3 0.0
endloop
endfacet
facet normal 1.0 -1.78222197912938e-017 0.0
outer loop
vertex 17.1810777645146 5.3 3.0
vertex 17.232189025081 5.68822856765378 0.0
vertex 17.232189025081 5.68822856765378 3.0
endloop
endfacet
facet normal -0.500000000000002 -0.866025403784438 0.0
outer loop
vertex 19.4310777645146 6.59903810567666 3.0
vertex 19.0693063321684 6.7488887394336 0.0
vertex 19.4310777645146 6.59903810567666 0.0
endloop
endfacet
facet normal -0.258819045102525 -0.965925826289067 0.0
outer loop
vertex 19.0693063321684 6.7488887394336 0.0
vertex 19.4310777645146 6.59903810567666 3.0
vertex 19.0693063321684 6.7488887394336 3.0
endloop
endfacet
facet normal 2.79808850723313e-015 -1.0 0.0
outer loop
vertex 18.6810777645146 6.8 3.0
vertex 18.2928491968608 6.7488887394336 0.0
vertex 18.6810777645146 6.8 0.0
endloop
endfacet
facet normal 0.258819045102522 -0.965925826289068 0.0
outer loop
vertex 18.2928491968608 6.7488887394336 0.0
vertex 18.6810777645146 6.8 3.0
vertex 18.2928491968608 6.7488887394336 3.0
endloop
endfacet
facet normal 5.66074101444083e-017 -2.55431741821141e-017 -1.0
outer loop
vertex 3.0 7.5 -1.40998324127395e-015
vertex 17.232189025081 5.68822856765378 0.0
vertex 17.1810777645146 5.3 0.0
endloop
endfacet
facet normal 5.66074101444083e-017 -2.55431741821141e-017 -1.0
outer loop
vertex 17.232189025081 5.68822856765378 0.0
vertex 3.0 7.5 -1.40998324127395e-015
vertex 17.3820396588379 6.05 0.0
endloop
endfacet
facet normal 5.66074101444083e-017 -2.55431741821141e-017 -1.0
outer loop
vertex 17.3820396588379 6.05 0.0
vertex 3.0 7.5 -1.40998324127395e-015
vertex 17.6204175927348 6.36066017177982 0.0
endloop
endfacet
facet normal 5.66074101444083e-017 -2.55431741821141e-017 -1.0
outer loop
vertex 17.6204175927348 6.36066017177982 0.0
vertex 3.0 7.5 -1.40998324127395e-015
vertex 17.9310777645146 6.59903810567666 0.0
endloop
endfacet
facet normal 5.66074101444083e-017 -2.55431741821141e-017 -1.0
outer loop
vertex 17.9310777645146 6.59903810567666 0.0
vertex 3.0 7.5 -1.40998324127395e-015
vertex 18.2928491968608 6.7488887394336 0.0
endloop
endfacet
facet normal 5.66074101444083e-017 -2.55431741821141e-017 -1.0
outer loop
vertex 18.2928491968608 6.7488887394336 0.0
vertex 3.0 7.5 -1.40998324127395e-015
vertex 18.6810777645146 6.8 0.0
endloop
endfacet
facet normal 5.66074101444083e-017 -2.55431741821141e-017 -1.0
outer loop
vertex 18.6810777645146 6.8 0.0
vertex 3.0 7.5 -1.40998324127395e-015
vertex 34.3621555290291 7.5 -1.40998324127395e-015
endloop
endfacet
facet normal 5.66074101444083e-017 -2.55431741821141e-017 -1.0
outer loop
vertex 18.6810777645146 6.8 0.0
vertex 34.3621555290291 7.5 -1.40998324127395e-015
vertex 19.0693063321684 6.7488887394336 0.0
endloop
endfacet
facet normal 5.66074101444083e-017 -2.55431741821141e-017 -1.0
outer loop
vertex 19.0693063321684 6.7488887394336 0.0
vertex 34.3621555290291 7.5 -1.40998324127395e-015
vertex 19.4310777645146 6.59903810567666 0.0
endloop
endfacet
facet normal 5.66074101444083e-017 -2.55431741821141e-017 -1.0
outer loop
vertex 19.4310777645146 6.59903810567666 0.0
vertex 34.3621555290291 7.5 -1.40998324127395e-015
vertex 19.7417379362944 6.36066017177982 0.0
endloop
endfacet
facet normal 5.66074101444083e-017 -2.55431741821141e-017 -1.0
outer loop
vertex 19.7417379362944 6.36066017177982 0.0
vertex 34.3621555290291 7.5 -1.40998324127395e-015
vertex 19.9801158701912 6.05 0.0
endloop
endfacet
facet normal 5.66074101444083e-017 -2.55431741821141e-017 -1.0
outer loop
vertex 19.9801158701912 6.05 0.0
vertex 34.3621555290291 7.5 -1.40998324127395e-015
vertex 20.1299665039482 5.68822856765378 0.0
endloop
endfacet
facet normal 5.66074101444083e-017 -2.55431741821141e-017 -1.0
outer loop
vertex 20.1299665039482 5.68822856765378 0.0
vertex 34.3621555290291 7.5 -1.40998324127395e-015
vertex 20.1810777645146 5.3 0.0
endloop
endfacet
facet normal 5.66074101444083e-017 -2.55431741821141e-017 -1.0
outer loop
vertex 0.0 82.8000015515643 -4.22994972382185e-015
vertex 3.0 75.2000015515643 -4.22994972382185e-015
vertex 0.0 0.0 0.0
endloop
endfacet
facet normal 5.66074101444083e-017 -2.55431741821141e-017 -1.0
outer loop
vertex 3.0 75.2000015515643 -4.22994972382185e-015
vertex 0.0 82.8000015515643 -4.22994972382185e-015
vertex 18.2928491968608 78.9488902909979 -2.8199664825479e-015
endloop
endfacet
facet normal 5.66074101444083e-017 -2.55431741821141e-017 -1.0
outer loop
vertex 18.2928491968608 78.9488902909979 -2.8199664825479e-015
vertex 0.0 82.8000015515643 -4.22994972382185e-015
vertex 37.3621555290291 82.8000015515643 0.0
endloop
endfacet
facet normal 5.66074101444083e-017 -2.55431741821141e-017 -1.0
outer loop
vertex 3.0 75.2000015515643 -4.22994972382185e-015
vertex 18.2928491968608 78.9488902909979 -2.8199664825479e-015
vertex 17.9310777645146 78.799039657241 -2.8199664825479e-015
endloop
endfacet
facet normal 5.66074101444083e-017 -2.55431741821141e-017 -1.0
outer loop
vertex 3.0 75.2000015515643 -4.22994972382185e-015
vertex 17.9310777645146 78.799039657241 -2.8199664825479e-015
vertex 17.6204175927348 78.5606617233441 -2.8199664825479e-015
endloop
endfacet
facet normal 5.66074101444083e-017 -2.55431741821141e-017 -1.0
outer loop
vertex 3.0 75.2000015515643 -4.22994972382185e-015
vertex 17.6204175927348 78.5606617233441 -2.8199664825479e-015
vertex 17.3820396588379 78.2500015515643 -2.8199664825479e-015
endloop
endfacet
facet normal 5.66074101444083e-017 -2.55431741821141e-017 -1.0
outer loop
vertex 3.0 75.2000015515643 -4.22994972382185e-015
vertex 17.3820396588379 78.2500015515643 -2.8199664825479e-015
vertex 17.232189025081 77.8882301192181 -2.8199664825479e-015
endloop
endfacet
facet normal 5.66074101444083e-017 -2.55431741821141e-017 -1.0
outer loop
vertex 3.0 75.2000015515643 -4.22994972382185e-015
vertex 17.232189025081 77.8882301192181 -2.8199664825479e-015
vertex 17.1810777645146 77.5000015515643 -2.8199664825479e-015
endloop
endfacet
facet normal 5.66074101444083e-017 -2.55431741821141e-017 -1.0
outer loop
vertex 18.2928491968608 78.9488902909979 -2.8199664825479e-015
vertex 37.3621555290291 82.8000015515643 0.0
vertex 18.6810777645146 79.0000015515643 -2.8199664825479e-015
endloop
endfacet
facet normal 5.66074101444083e-017 -2.55431741821141e-017 -1.0
outer loop
vertex 18.6810777645146 79.0000015515643 -2.8199664825479e-015
vertex 37.3621555290291 82.8000015515643 0.0
vertex 19.0693063321684 78.9488902909979 -2.8199664825479e-015
endloop
endfacet
facet normal 5.66074101444083e-017 -2.55431741821141e-017 -1.0
outer loop
vertex 19.0693063321684 78.9488902909979 -2.8199664825479e-015
vertex 37.3621555290291 82.8000015515643 0.0
vertex 19.4310777645146 78.799039657241 -2.8199664825479e-015
endloop
endfacet
facet normal 5.66074101444083e-017 -2.55431741821141e-017 -1.0
outer loop
vertex 19.4310777645146 78.799039657241 -2.8199664825479e-015
vertex 37.3621555290291 82.8000015515643 0.0
vertex 19.7417379362944 78.5606617233441 -2.8199664825479e-015
endloop
endfacet
facet normal 5.66074101444083e-017 -2.55431741821141e-017 -1.0
outer loop
vertex 19.7417379362944 78.5606617233441 -2.8199664825479e-015
vertex 37.3621555290291 82.8000015515643 0.0
vertex 19.9801158701912 78.2500015515643 -2.8199664825479e-015
endloop
endfacet
facet normal 5.66074101444083e-017 -2.55431741821141e-017 -1.0
outer loop
vertex 19.9801158701912 78.2500015515643 -2.8199664825479e-015
vertex 37.3621555290291 82.8000015515643 0.0
vertex 20.1299665039482 77.8882301192181 -2.8199664825479e-015
endloop
endfacet
facet normal 5.66074101444083e-017 -2.55431741821141e-017 -1.0
outer loop
vertex 20.1299665039482 77.8882301192181 -2.8199664825479e-015
vertex 37.3621555290291 82.8000015515643 0.0
vertex 20.1810777645146 77.5000015515643 -2.8199664825479e-015
endloop
endfacet
facet normal 5.66074101444083e-017 -2.55431741821141e-017 -1.0
outer loop
vertex 20.1810777645146 77.5000015515643 -2.8199664825479e-015
vertex 37.3621555290291 82.8000015515643 0.0
vertex 34.3621555290291 75.2000015515643 -1.40998324127395e-015
endloop
endfacet
facet normal 5.66074101444083e-017 -2.55431741821141e-017 -1.0
outer loop
vertex 34.3621555290291 75.2000015515643 -1.40998324127395e-015
vertex 37.3621555290291 82.8000015515643 0.0
vertex 34.3621555290291 7.5 -1.40998324127395e-015
endloop
endfacet
facet normal 5.66074101444083e-017 -2.55431741821141e-017 -1.0
outer loop
vertex 0.0 0.0 0.0
vertex 18.2928491968608 3.8511112605664 0.0
vertex 37.3621555290291 0.0 0.0
endloop
endfacet
facet normal 5.66074101444083e-017 -2.55431741821141e-017 -1.0
outer loop
vertex 18.2928491968608 3.8511112605664 0.0
vertex 0.0 0.0 0.0
vertex 3.0 7.5 -1.40998324127395e-015
endloop
endfacet
facet normal 5.66074101444083e-017 -2.55431741821141e-017 -1.0
outer loop
vertex 3.0 7.5 -1.40998324127395e-015
vertex 0.0 0.0 0.0
vertex 3.0 75.2000015515643 -4.22994972382185e-015
endloop
endfacet
facet normal 5.66074101444083e-017 -2.55431741821141e-017 -1.0
outer loop
vertex 18.2928491968608 3.8511112605664 0.0
vertex 3.0 7.5 -1.40998324127395e-015
vertex 17.9310777645146 4.00096189432334 0.0
endloop
endfacet
facet normal 5.66074101444083e-017 -2.55431741821141e-017 -1.0
outer loop
vertex 17.9310777645146 4.00096189432334 0.0
vertex 3.0 7.5 -1.40998324127395e-015
vertex 17.6204175927348 4.23933982822018 0.0
endloop
endfacet
facet normal 5.66074101444083e-017 -2.55431741821141e-017 -1.0
outer loop
vertex 17.6204175927348 4.23933982822018 0.0
vertex 3.0 7.5 -1.40998324127395e-015
vertex 17.3820396588379 4.55 0.0
endloop
endfacet
facet normal 5.66074101444083e-017 -2.55431741821141e-017 -1.0
outer loop
vertex 17.3820396588379 4.55 0.0
vertex 3.0 7.5 -1.40998324127395e-015
vertex 17.232189025081 4.91177143234622 0.0
endloop
endfacet
facet normal 5.66074101444083e-017 -2.55431741821141e-017 -1.0
outer loop
vertex 17.232189025081 4.91177143234622 0.0
vertex 3.0 7.5 -1.40998324127395e-015
vertex 17.1810777645146 5.3 0.0
endloop
endfacet
facet normal 5.66074101444083e-017 -2.55431741821141e-017 -1.0
outer loop
vertex 37.3621555290291 0.0 0.0
vertex 18.2928491968608 3.8511112605664 0.0
vertex 18.6810777645146 3.8 0.0
endloop
endfacet
facet normal 5.66074101444083e-017 -2.55431741821141e-017 -1.0
outer loop
vertex 37.3621555290291 0.0 0.0
vertex 18.6810777645146 3.8 0.0
vertex 19.0693063321684 3.8511112605664 0.0
endloop
endfacet
facet normal 5.66074101444083e-017 -2.55431741821141e-017 -1.0
outer loop
vertex 37.3621555290291 0.0 0.0
vertex 19.0693063321684 3.8511112605664 0.0
vertex 19.4310777645146 4.00096189432334 0.0
endloop
endfacet
facet normal 5.66074101444083e-017 -2.55431741821141e-017 -1.0
outer loop
vertex 37.3621555290291 0.0 0.0
vertex 19.4310777645146 4.00096189432334 0.0
vertex 19.7417379362944 4.23933982822018 0.0
endloop
endfacet
facet normal 5.66074101444083e-017 -2.55431741821141e-017 -1.0
outer loop
vertex 37.3621555290291 0.0 0.0
vertex 19.7417379362944 4.23933982822018 0.0
vertex 19.9801158701912 4.55 0.0
endloop
endfacet
facet normal 5.66074101444083e-017 -2.55431741821141e-017 -1.0
outer loop
vertex 37.3621555290291 0.0 0.0
vertex 19.9801158701912 4.55 0.0
vertex 20.1299665039482 4.91177143234622 0.0
endloop
endfacet
facet normal 5.66074101444083e-017 -2.55431741821141e-017 -1.0
outer loop
vertex 37.3621555290291 0.0 0.0
vertex 20.1299665039482 4.91177143234622 0.0
vertex 20.1810777645146 5.3 0.0
endloop
endfacet
facet normal 5.66074101444083e-017 -2.55431741821141e-017 -1.0
outer loop
vertex 37.3621555290291 0.0 0.0
vertex 20.1810777645146 5.3 0.0
vertex 34.3621555290291 7.5 -1.40998324127395e-015
endloop
endfacet
facet normal 5.66074101444083e-017 -2.55431741821141e-017 -1.0
outer loop
vertex 37.3621555290291 0.0 0.0
vertex 34.3621555290291 7.5 -1.40998324127395e-015
vertex 37.3621555290291 82.8000015515643 0.0
endloop
endfacet
facet normal 5.66074101444083e-017 -2.55431741821141e-017 -1.0
outer loop
vertex 3.0 75.2000015515643 -4.22994972382185e-015
vertex 18.6810777645146 76.0000015515643 -2.8199664825479e-015
vertex 34.3621555290291 75.2000015515643 -1.40998324127395e-015
endloop
endfacet
facet normal 5.66074101444083e-017 -2.55431741821141e-017 -1.0
outer loop
vertex 18.6810777645146 76.0000015515643 -2.8199664825479e-015
vertex 3.0 75.2000015515643 -4.22994972382185e-015
vertex 18.2928491968608 76.0511128121307 -2.8199664825479e-015
endloop
endfacet
facet normal 5.66074101444083e-017 -2.55431741821141e-017 -1.0
outer loop
vertex 18.2928491968608 76.0511128121307 -2.8199664825479e-015
vertex 3.0 75.2000015515643 -4.22994972382185e-015
vertex 17.9310777645146 76.2009634458877 -2.8199664825479e-015
endloop
endfacet
facet normal 5.66074101444083e-017 -2.55431741821141e-017 -1.0
outer loop
vertex 17.9310777645146 76.2009634458877 -2.8199664825479e-015
vertex 3.0 75.2000015515643 -4.22994972382185e-015
vertex 17.6204175927348 76.4393413797845 -2.8199664825479e-015
endloop
endfacet
facet normal 5.66074101444083e-017 -2.55431741821141e-017 -1.0
outer loop
vertex 17.6204175927348 76.4393413797845 -2.8199664825479e-015
vertex 3.0 75.2000015515643 -4.22994972382185e-015
vertex 17.3820396588379 76.7500015515643 -2.8199664825479e-015
endloop
endfacet
facet normal 5.66074101444083e-017 -2.55431741821141e-017 -1.0
outer loop
vertex 17.3820396588379 76.7500015515643 -2.8199664825479e-015
vertex 3.0 75.2000015515643 -4.22994972382185e-015
vertex 17.232189025081 77.1117729839105 -2.8199664825479e-015
endloop
endfacet
facet normal 5.66074101444083e-017 -2.55431741821141e-017 -1.0
outer loop
vertex 17.232189025081 77.1117729839105 -2.8199664825479e-015
vertex 3.0 75.2000015515643 -4.22994972382185e-015
vertex 17.1810777645146 77.5000015515643 -2.8199664825479e-015
endloop
endfacet
facet normal 5.66074101444083e-017 -2.55431741821141e-017 -1.0
outer loop
vertex 34.3621555290291 75.2000015515643 -1.40998324127395e-015
vertex 18.6810777645146 76.0000015515643 -2.8199664825479e-015
vertex 19.0693063321684 76.0511128121307 -2.8199664825479e-015
endloop
endfacet
facet normal 5.66074101444083e-017 -2.55431741821141e-017 -1.0
outer loop
vertex 34.3621555290291 75.2000015515643 -1.40998324127395e-015
vertex 19.0693063321684 76.0511128121307 -2.8199664825479e-015
vertex 19.4310777645146 76.2009634458877 -2.8199664825479e-015
endloop
endfacet
facet normal 5.66074101444083e-017 -2.55431741821141e-017 -1.0
outer loop
vertex 34.3621555290291 75.2000015515643 -1.40998324127395e-015
vertex 19.4310777645146 76.2009634458877 -2.8199664825479e-015
vertex 19.7417379362944 76.4393413797845 -2.8199664825479e-015
endloop
endfacet
facet normal 5.66074101444083e-017 -2.55431741821141e-017 -1.0
outer loop
vertex 34.3621555290291 75.2000015515643 -1.40998324127395e-015
vertex 19.7417379362944 76.4393413797845 -2.8199664825479e-015
vertex 19.9801158701912 76.7500015515643 -2.8199664825479e-015
endloop
endfacet
facet normal 5.66074101444083e-017 -2.55431741821141e-017 -1.0
outer loop
vertex 34.3621555290291 75.2000015515643 -1.40998324127395e-015
vertex 19.9801158701912 76.7500015515643 -2.8199664825479e-015
vertex 20.1299665039482 77.1117729839105 -2.8199664825479e-015
endloop
endfacet
facet normal 5.66074101444083e-017 -2.55431741821141e-017 -1.0
outer loop
vertex 34.3621555290291 75.2000015515643 -1.40998324127395e-015
vertex 20.1299665039482 77.1117729839105 -2.8199664825479e-015
vertex 20.1810777645146 77.5000015515643 -2.8199664825479e-015
endloop
endfacet
facet normal -9.2188385437649e-017 2.09748939964293e-016 1.0
outer loop
vertex 16.2662631987919 4.6529523872437 3.0
vertex 16.2662631987919 5.9470476127563 3.0
vertex 16.1810777645146 5.3 3.0
endloop
endfacet
facet normal -9.2188385437649e-017 2.09748939964293e-016 1.0
outer loop
vertex 16.2662631987919 5.9470476127563 3.0
vertex 16.2662631987919 4.6529523872437 3.0
vertex 16.5160142550535 4.05 3.0
endloop
endfacet
facet normal -9.2188385437649e-017 2.09748939964293e-016 1.0
outer loop
vertex 16.2662631987919 5.9470476127563 3.0
vertex 16.5160142550535 4.05 3.0
vertex 16.5160142550535 6.55 3.0
endloop
endfacet
facet normal -9.2188385437649e-017 2.09748939964293e-016 1.0
outer loop
vertex 16.5160142550535 6.55 3.0
vertex 16.5160142550535 4.05 3.0
vertex 16.9133108115482 3.53223304703363 3.0
endloop
endfacet
facet normal -9.2188385437649e-017 2.09748939964293e-016 1.0
outer loop
vertex 16.5160142550535 6.55 3.0
vertex 16.9133108115482 3.53223304703363 3.0
vertex 16.9133108115482 7.06776695296637 3.0
endloop
endfacet
facet normal -9.2188385437649e-017 2.09748939964293e-016 1.0
outer loop
vertex 16.9133108115482 7.06776695296637 3.0
vertex 16.9133108115482 3.53223304703363 3.0
vertex 17.4310777645146 3.1349364905389 3.0
endloop
endfacet
facet normal -9.2188385437649e-017 2.09748939964293e-016 1.0
outer loop
vertex 16.9133108115482 7.06776695296637 3.0
vertex 17.4310777645146 3.1349364905389 3.0
vertex 17.1810777645146 5.3 3.0
endloop
endfacet
facet normal -9.2188385437649e-017 2.09748939964293e-016 1.0
outer loop
vertex 17.1810777645146 5.3 3.0
vertex 17.4310777645146 3.1349364905389 3.0
vertex 17.232189025081 4.91177143234622 3.0
endloop
endfacet
facet normal -9.2188385437649e-017 2.09748939964293e-016 1.0
outer loop
vertex 17.232189025081 4.91177143234622 3.0
vertex 17.4310777645146 3.1349364905389 3.0
vertex 17.3820396588379 4.55 3.0
endloop
endfacet
facet normal -9.2188385437649e-017 2.09748939964293e-016 1.0
outer loop
vertex 17.3820396588379 4.55 3.0
vertex 17.4310777645146 3.1349364905389 3.0
vertex 17.6204175927348 4.23933982822018 3.0
endloop
endfacet
facet normal -9.2188385437649e-017 2.09748939964293e-016 1.0
outer loop
vertex 17.6204175927348 4.23933982822018 3.0
vertex 17.4310777645146 3.1349364905389 3.0
vertex 18.0340301517583 2.88518543427733 3.0
endloop
endfacet
facet normal -9.2188385437649e-017 2.09748939964293e-016 1.0
outer loop
vertex 17.6204175927348 4.23933982822018 3.0
vertex 18.0340301517583 2.88518543427733 3.0
vertex 17.9310777645146 4.00096189432334 3.0
endloop
endfacet
facet normal -9.2188385437649e-017 2.09748939964293e-016 1.0
outer loop
vertex 17.9310777645146 4.00096189432334 3.0
vertex 18.0340301517583 2.88518543427733 3.0
vertex 18.2928491968608 3.8511112605664 3.0
endloop
endfacet
facet normal -9.2188385437649e-017 2.09748939964293e-016 1.0
outer loop
vertex 18.2928491968608 3.8511112605664 3.0
vertex 18.0340301517583 2.88518543427733 3.0
vertex 18.6810777645146 2.8 3.0
endloop
endfacet
facet normal -9.2188385437649e-017 2.09748939964293e-016 1.0
outer loop
vertex 18.2928491968608 3.8511112605664 3.0
vertex 18.6810777645146 2.8 3.0
vertex 18.6810777645146 3.8 3.0
endloop
endfacet
facet normal -9.2188385437649e-017 2.09748939964293e-016 1.0
outer loop
vertex 18.6810777645146 3.8 3.0
vertex 18.6810777645146 2.8 3.0
vertex 19.3281253772709 2.88518543427733 3.0
endloop
endfacet
facet normal -9.2188385437649e-017 2.09748939964293e-016 1.0
outer loop
vertex 18.6810777645146 3.8 3.0
vertex 19.3281253772709 2.88518543427733 3.0
vertex 19.0693063321684 3.8511112605664 3.0
endloop
endfacet
facet normal -9.2188385437649e-017 2.09748939964293e-016 1.0
outer loop
vertex 19.0693063321684 3.8511112605664 3.0
vertex 19.3281253772709 2.88518543427733 3.0
vertex 19.4310777645146 4.00096189432334 3.0
endloop
endfacet
facet normal -9.2188385437649e-017 2.09748939964293e-016 1.0
outer loop
vertex 19.4310777645146 4.00096189432334 3.0
vertex 19.3281253772709 2.88518543427733 3.0
vertex 19.6603609860995 3.02280192935744 3.0
endloop
endfacet
facet normal -9.2188385437649e-017 2.09748939964293e-016 1.0
outer loop
vertex 19.4310777645146 4.00096189432334 3.0
vertex 19.6603609860995 3.02280192935744 3.0
vertex 19.7417379362944 4.23933982822018 3.0
endloop
endfacet
facet normal -9.2188385437649e-017 2.09748939964293e-016 1.0
outer loop
vertex 19.7417379362944 4.23933982822018 3.0
vertex 19.6603609860995 3.02280192935744 3.0
vertex 19.9310777645146 3.1349364905389 3.0
endloop
endfacet
facet normal -9.2188385437649e-017 2.09748939964293e-016 1.0
outer loop
vertex 19.7417379362944 4.23933982822018 3.0
vertex 19.9310777645146 3.1349364905389 3.0
vertex 19.9801158701912 4.55 3.0
endloop
endfacet
facet normal -9.2188385437649e-017 2.09748939964293e-016 1.0
outer loop
vertex 19.9801158701912 4.55 3.0
vertex 19.9310777645146 3.1349364905389 3.0
vertex 20.4488447174809 3.53223304703363 3.0
endloop
endfacet
facet normal -9.2188385437649e-017 2.09748939964293e-016 1.0
outer loop
vertex 19.9801158701912 4.55 3.0
vertex 20.4488447174809 3.53223304703363 3.0
vertex 20.1299665039482 4.91177143234622 3.0
endloop
endfacet
facet normal -9.2188385437649e-017 2.09748939964293e-016 1.0
outer loop
vertex 20.1299665039482 4.91177143234622 3.0
vertex 20.4488447174809 3.53223304703363 3.0
vertex 20.1810777645146 5.3 3.0
endloop
endfacet
facet normal -9.2188385437649e-017 2.09748939964293e-016 1.0
outer loop
vertex 17.1810777645146 5.3 3.0
vertex 17.4310777645146 7.4650635094611 3.0
vertex 16.9133108115482 7.06776695296637 3.0
endloop
endfacet
facet normal -9.2188385437649e-017 2.09748939964293e-016 1.0
outer loop
vertex 17.4310777645146 7.4650635094611 3.0
vertex 17.1810777645146 5.3 3.0
vertex 17.232189025081 5.68822856765378 3.0
endloop
endfacet
facet normal -9.2188385437649e-017 2.09748939964293e-016 1.0
outer loop
vertex 17.4310777645146 7.4650635094611 3.0
vertex 17.232189025081 5.68822856765378 3.0
vertex 17.3820396588379 6.05 3.0
endloop
endfacet
facet normal -9.2188385437649e-017 2.09748939964293e-016 1.0
outer loop
vertex 17.4310777645146 7.4650635094611 3.0
vertex 17.3820396588379 6.05 3.0
vertex 17.6204175927348 6.36066017177982 3.0
endloop
endfacet
facet normal -9.2188385437649e-017 2.09748939964293e-016 1.0
outer loop
vertex 17.4310777645146 7.4650635094611 3.0
vertex 17.6204175927348 6.36066017177982 3.0
vertex 17.5154219137953 7.5 3.0
endloop
endfacet
facet normal -9.2188385437649e-017 2.09748939964293e-016 1.0
outer loop
vertex 17.5154219137953 7.5 3.0
vertex 17.6204175927348 6.36066017177982 3.0
vertex 17.9310777645146 6.59903810567666 3.0
endloop
endfacet
facet normal -9.2188385437649e-017 2.09748939964293e-016 1.0
outer loop
vertex 17.5154219137953 7.5 3.0
vertex 17.9310777645146 6.59903810567666 3.0
vertex 19.8467336152338 7.5 3.0
endloop
endfacet
facet normal -9.2188385437649e-017 2.09748939964293e-016 1.0
outer loop
vertex 19.8467336152338 7.5 3.0
vertex 17.9310777645146 6.59903810567666 3.0
vertex 18.2928491968608 6.7488887394336 3.0
endloop
endfacet
facet normal -9.2188385437649e-017 2.09748939964293e-016 1.0
outer loop
vertex 19.8467336152338 7.5 3.0
vertex 18.2928491968608 6.7488887394336 3.0
vertex 18.6810777645146 6.8 3.0
endloop
endfacet
facet normal -9.2188385437649e-017 2.09748939964293e-016 1.0
outer loop
vertex 19.8467336152338 7.5 3.0
vertex 18.6810777645146 6.8 3.0
vertex 19.0693063321684 6.7488887394336 3.0
endloop
endfacet
facet normal -9.2188385437649e-017 2.09748939964293e-016 1.0
outer loop
vertex 19.8467336152338 7.5 3.0
vertex 19.0693063321684 6.7488887394336 3.0
vertex 19.4310777645146 6.59903810567666 3.0
endloop
endfacet
facet normal -9.2188385437649e-017 2.09748939964293e-016 1.0
outer loop
vertex 19.8467336152338 7.5 3.0
vertex 19.4310777645146 6.59903810567666 3.0
vertex 19.7417379362944 6.36066017177982 3.0
endloop
endfacet
facet normal -9.2188385437649e-017 2.09748939964293e-016 1.0
outer loop
vertex 19.8467336152338 7.5 3.0
vertex 19.7417379362944 6.36066017177982 3.0
vertex 19.9801158701912 6.05 3.0
endloop
endfacet
facet normal -9.2188385437649e-017 2.09748939964293e-016 1.0
outer loop
vertex 19.8467336152338 7.5 3.0
vertex 19.9801158701912 6.05 3.0
vertex 19.9310777645146 7.4650635094611 3.0
endloop
endfacet
facet normal -9.2188385437649e-017 2.09748939964293e-016 1.0
outer loop
vertex 19.9310777645146 7.4650635094611 3.0
vertex 19.9801158701912 6.05 3.0
vertex 20.4488447174809 7.06776695296637 3.0
endloop
endfacet
facet normal -9.2188385437649e-017 2.09748939964293e-016 1.0
outer loop
vertex 20.4488447174809 7.06776695296637 3.0
vertex 19.9801158701912 6.05 3.0
vertex 20.1299665039482 5.68822856765378 3.0
endloop
endfacet
facet normal -9.2188385437649e-017 2.09748939964293e-016 1.0
outer loop
vertex 20.4488447174809 7.06776695296637 3.0
vertex 20.1299665039482 5.68822856765378 3.0
vertex 20.1810777645146 5.3 3.0
endloop
endfacet
facet normal -9.2188385437649e-017 2.09748939964293e-016 1.0
outer loop
vertex 20.4488447174809 7.06776695296637 3.0
vertex 20.1810777645146 5.3 3.0
vertex 20.4488447174809 3.53223304703363 3.0
endloop
endfacet
facet normal -9.2188385437649e-017 2.09748939964293e-016 1.0
outer loop
vertex 20.4488447174809 7.06776695296637 3.0
vertex 20.4488447174809 3.53223304703363 3.0
vertex 20.8461412739757 4.05 3.0
endloop
endfacet
facet normal -9.2188385437649e-017 2.09748939964293e-016 1.0
outer loop
vertex 20.4488447174809 7.06776695296637 3.0
vertex 20.8461412739757 4.05 3.0
vertex 20.8461412739757 6.55 3.0
endloop
endfacet
facet normal -9.2188385437649e-017 2.09748939964293e-016 1.0
outer loop
vertex 20.8461412739757 6.55 3.0
vertex 20.8461412739757 4.05 3.0
vertex 21.0958923302373 4.6529523872437 3.0
endloop
endfacet
facet normal -9.2188385437649e-017 2.09748939964293e-016 1.0
outer loop
vertex 20.8461412739757 6.55 3.0
vertex 21.0958923302373 4.6529523872437 3.0
vertex 21.0958923302373 5.9470476127563 3.0
endloop
endfacet
facet normal -9.2188385437649e-017 2.09748939964293e-016 1.0
outer loop
vertex 21.0958923302373 5.9470476127563 3.0
vertex 21.0958923302373 4.6529523872437 3.0
vertex 21.1810777645146 5.3 3.0
endloop
endfacet
facet normal 0.0 0.0 1.0
outer loop
vertex 16.2662631987919 76.852953938808 3.0
vertex 16.2662631987919 78.1470491643206 3.0
vertex 16.1810777645146 77.5000015515643 3.0
endloop
endfacet
facet normal 0.0 0.0 1.0
outer loop
vertex 16.2662631987919 78.1470491643206 3.0
vertex 16.2662631987919 76.852953938808 3.0
vertex 16.5160142550535 76.2500015515643 3.0
endloop
endfacet
facet normal 0.0 0.0 1.0
outer loop
vertex 16.2662631987919 78.1470491643206 3.0
vertex 16.5160142550535 76.2500015515643 3.0
vertex 16.5160142550535 78.7500015515643 3.0
endloop
endfacet
facet normal 0.0 0.0 1.0
outer loop
vertex 16.5160142550535 78.7500015515643 3.0
vertex 16.5160142550535 76.2500015515643 3.0
vertex 16.9133108115482 75.7322345985979 3.0
endloop
endfacet
facet normal 0.0 0.0 1.0
outer loop
vertex 16.5160142550535 78.7500015515643 3.0
vertex 16.9133108115482 75.7322345985979 3.0
vertex 16.9133108115482 79.2677685045307 3.0
endloop
endfacet
facet normal 0.0 0.0 1.0
outer loop
vertex 16.9133108115482 79.2677685045307 3.0
vertex 16.9133108115482 75.7322345985979 3.0
vertex 17.4310777645146 75.3349380421032 3.0
endloop
endfacet
facet normal 0.0 0.0 1.0
outer loop
vertex 16.9133108115482 79.2677685045307 3.0
vertex 17.4310777645146 75.3349380421032 3.0
vertex 17.1810777645146 77.5000015515643 3.0
endloop
endfacet
facet normal 0.0 0.0 1.0
outer loop
vertex 17.1810777645146 77.5000015515643 3.0
vertex 17.4310777645146 75.3349380421032 3.0
vertex 17.232189025081 77.1117729839105 3.0
endloop
endfacet
facet normal 0.0 0.0 1.0
outer loop
vertex 17.232189025081 77.1117729839105 3.0
vertex 17.4310777645146 75.3349380421032 3.0
vertex 17.3820396588379 76.7500015515643 3.0
endloop
endfacet
facet normal 0.0 0.0 1.0
outer loop
vertex 17.3820396588379 76.7500015515643 3.0
vertex 17.4310777645146 75.3349380421032 3.0
vertex 17.6204175927348 76.4393413797845 3.0
endloop
endfacet
facet normal 0.0 0.0 1.0
outer loop
vertex 17.6204175927348 76.4393413797845 3.0
vertex 17.4310777645146 75.3349380421032 3.0
vertex 17.7568432700326 75.2000015515643 3.0
endloop
endfacet
facet normal 0.0 0.0 1.0
outer loop
vertex 17.6204175927348 76.4393413797845 3.0
vertex 17.7568432700326 75.2000015515643 3.0
vertex 17.9310777645146 76.2009634458877 3.0
endloop
endfacet
facet normal 0.0 0.0 1.0
outer loop
vertex 17.9310777645146 76.2009634458877 3.0
vertex 17.7568432700326 75.2000015515643 3.0
vertex 19.6053122589965 75.2000015515643 3.0
endloop
endfacet
facet normal 0.0 0.0 1.0
outer loop
vertex 17.9310777645146 76.2009634458877 3.0
vertex 19.6053122589965 75.2000015515643 3.0
vertex 18.2928491968608 76.0511128121307 3.0
endloop
endfacet
facet normal 0.0 0.0 1.0
outer loop
vertex 18.2928491968608 76.0511128121307 3.0
vertex 19.6053122589965 75.2000015515643 3.0
vertex 18.6810777645146 76.0000015515643 3.0
endloop
endfacet
facet normal 0.0 0.0 1.0
outer loop
vertex 18.6810777645146 76.0000015515643 3.0
vertex 19.6053122589965 75.2000015515643 3.0
vertex 19.0693063321684 76.0511128121307 3.0
endloop
endfacet
facet normal 0.0 0.0 1.0
outer loop
vertex 19.0693063321684 76.0511128121307 3.0
vertex 19.6053122589965 75.2000015515643 3.0
vertex 19.4310777645146 76.2009634458877 3.0
endloop
endfacet
facet normal 0.0 0.0 1.0
outer loop
vertex 19.4310777645146 76.2009634458877 3.0
vertex 19.6053122589965 75.2000015515643 3.0
vertex 19.7417379362944 76.4393413797845 3.0
endloop
endfacet
facet normal 0.0 0.0 1.0
outer loop
vertex 19.7417379362944 76.4393413797845 3.0
vertex 19.6053122589965 75.2000015515643 3.0
vertex 19.9310777645146 75.3349380421032 3.0
endloop
endfacet
facet normal 0.0 0.0 1.0
outer loop
vertex 19.7417379362944 76.4393413797845 3.0
vertex 19.9310777645146 75.3349380421032 3.0
vertex 19.9801158701912 76.7500015515643 3.0
endloop
endfacet
facet normal 0.0 0.0 1.0
outer loop
vertex 19.9801158701912 76.7500015515643 3.0
vertex 19.9310777645146 75.3349380421032 3.0
vertex 20.4488447174809 75.7322345985979 3.0
endloop
endfacet
facet normal 0.0 0.0 1.0
outer loop
vertex 19.9801158701912 76.7500015515643 3.0
vertex 20.4488447174809 75.7322345985979 3.0
vertex 20.1299665039482 77.1117729839105 3.0
endloop
endfacet
facet normal 0.0 0.0 1.0
outer loop
vertex 20.1299665039482 77.1117729839105 3.0
vertex 20.4488447174809 75.7322345985979 3.0
vertex 20.1810777645146 77.5000015515643 3.0
endloop
endfacet
facet normal 0.0 0.0 1.0
outer loop
vertex 17.1810777645146 77.5000015515643 3.0
vertex 17.4310777645146 79.6650650610254 3.0
vertex 16.9133108115482 79.2677685045307 3.0
endloop
endfacet
facet normal 0.0 0.0 1.0
outer loop
vertex 17.4310777645146 79.6650650610254 3.0
vertex 17.1810777645146 77.5000015515643 3.0
vertex 17.232189025081 77.8882301192181 3.0
endloop
endfacet
facet normal 0.0 0.0 1.0
outer loop
vertex 17.4310777645146 79.6650650610254 3.0
vertex 17.232189025081 77.8882301192181 3.0
vertex 17.3820396588379 78.2500015515643 3.0
endloop
endfacet
facet normal 0.0 0.0 1.0
outer loop
vertex 17.4310777645146 79.6650650610254 3.0
vertex 17.3820396588379 78.2500015515643 3.0
vertex 17.6204175927348 78.5606617233441 3.0
endloop
endfacet
facet normal 0.0 0.0 1.0
outer loop
vertex 17.4310777645146 79.6650650610254 3.0
vertex 17.6204175927348 78.5606617233441 3.0
vertex 18.0340301517583 79.914816117287 3.0
endloop
endfacet
facet normal 0.0 0.0 1.0
outer loop
vertex 18.0340301517583 79.914816117287 3.0
vertex 17.6204175927348 78.5606617233441 3.0
vertex 17.9310777645146 78.799039657241 3.0
endloop
endfacet
facet normal 0.0 0.0 1.0
outer loop
vertex 18.0340301517583 79.914816117287 3.0
vertex 17.9310777645146 78.799039657241 3.0
vertex 18.2928491968608 78.9488902909979 3.0
endloop
endfacet
facet normal 0.0 0.0 1.0
outer loop
vertex 18.0340301517583 79.914816117287 3.0
vertex 18.2928491968608 78.9488902909979 3.0
vertex 18.6810777645146 80.0000015515643 3.0
endloop
endfacet
facet normal 0.0 0.0 1.0
outer loop
vertex 18.6810777645146 80.0000015515643 3.0
vertex 18.2928491968608 78.9488902909979 3.0
vertex 18.6810777645146 79.0000015515643 3.0
endloop
endfacet
facet normal 0.0 0.0 1.0
outer loop
vertex 18.6810777645146 80.0000015515643 3.0
vertex 18.6810777645146 79.0000015515643 3.0
vertex 19.0693063321684 78.9488902909979 3.0
endloop
endfacet
facet normal 0.0 0.0 1.0
outer loop
vertex 18.6810777645146 80.0000015515643 3.0
vertex 19.0693063321684 78.9488902909979 3.0
vertex 19.3281253772709 79.914816117287 3.0
endloop
endfacet
facet normal 0.0 0.0 1.0
outer loop
vertex 19.3281253772709 79.914816117287 3.0
vertex 19.0693063321684 78.9488902909979 3.0
vertex 19.4310777645146 78.799039657241 3.0
endloop
endfacet
facet normal 0.0 0.0 1.0
outer loop
vertex 19.3281253772709 79.914816117287 3.0
vertex 19.4310777645146 78.799039657241 3.0
vertex 19.9310777645146 79.6650650610254 3.0
endloop
endfacet
facet normal 0.0 0.0 1.0
outer loop
vertex 19.9310777645146 79.6650650610254 3.0
vertex 19.4310777645146 78.799039657241 3.0
vertex 19.7417379362944 78.5606617233441 3.0
endloop
endfacet
facet normal 0.0 0.0 1.0
outer loop
vertex 19.9310777645146 79.6650650610254 3.0
vertex 19.7417379362944 78.5606617233441 3.0
vertex 19.9801158701912 78.2500015515643 3.0
endloop
endfacet
facet normal 0.0 0.0 1.0
outer loop
vertex 19.9310777645146 79.6650650610254 3.0
vertex 19.9801158701912 78.2500015515643 3.0
vertex 20.4488447174809 79.2677685045307 3.0
endloop
endfacet
facet normal 0.0 0.0 1.0
outer loop
vertex 20.4488447174809 79.2677685045307 3.0
vertex 19.9801158701912 78.2500015515643 3.0
vertex 20.1299665039482 77.8882301192181 3.0
endloop
endfacet
facet normal 0.0 0.0 1.0
outer loop
vertex 20.4488447174809 79.2677685045307 3.0
vertex 20.1299665039482 77.8882301192181 3.0
vertex 20.1810777645146 77.5000015515643 3.0
endloop
endfacet
facet normal 0.0 0.0 1.0
outer loop
vertex 20.4488447174809 79.2677685045307 3.0
vertex 20.1810777645146 77.5000015515643 3.0
vertex 20.4488447174809 75.7322345985979 3.0
endloop
endfacet
facet normal 0.0 0.0 1.0
outer loop
vertex 20.4488447174809 79.2677685045307 3.0
vertex 20.4488447174809 75.7322345985979 3.0
vertex 20.8461412739757 76.2500015515643 3.0
endloop
endfacet
facet normal 0.0 0.0 1.0
outer loop
vertex 20.4488447174809 79.2677685045307 3.0
vertex 20.8461412739757 76.2500015515643 3.0
vertex 20.8461412739757 78.7500015515643 3.0
endloop
endfacet
facet normal 0.0 0.0 1.0
outer loop
vertex 20.8461412739757 78.7500015515643 3.0
vertex 20.8461412739757 76.2500015515643 3.0
vertex 21.0958923302373 76.852953938808 3.0
endloop
endfacet
facet normal 0.0 0.0 1.0
outer loop
vertex 20.8461412739757 78.7500015515643 3.0
vertex 21.0958923302373 76.852953938808 3.0
vertex 21.0958923302373 78.1470491643206 3.0
endloop
endfacet
facet normal 0.0 0.0 1.0
outer loop
vertex 21.0958923302373 78.1470491643206 3.0
vertex 21.0958923302373 76.852953938808 3.0
vertex 21.1810777645146 77.5000015515643 3.0
endloop
endfacet
facet normal -0.0 1.0 -0.0
outer loop
vertex -2.26429640577633e-016 82.8000015515643 5.99999999999999
vertex 37.3621555290291 82.8000015515643 0.0
vertex 0.0 82.8000015515643 -4.22994972382185e-015
endloop
endfacet
facet normal -0.0 1.0 -0.0
outer loop
vertex 37.3621555290291 82.8000015515643 0.0
vertex -2.26429640577633e-016 82.8000015515643 5.99999999999999
vertex 37.3621555290291 82.8000015515643 6.0
endloop
endfacet
facet normal 0.5 -0.866025403784439 0.0
outer loop
vertex 17.9310777645146 78.799039657241 3.0
vertex 17.6204175927348 78.5606617233441 -2.8199664825479e-015
vertex 17.9310777645146 78.799039657241 -2.8199664825479e-015
endloop
endfacet
facet normal 0.707106781186556 -0.707106781186539 0.0
outer loop
vertex 17.6204175927348 78.5606617233441 -2.8199664825479e-015
vertex 17.9310777645146 78.799039657241 3.0
vertex 17.6204175927348 78.5606617233441 3.0
endloop
endfacet
facet normal 0.258819045102527 0.965925826289067 0.0
outer loop
vertex 18.2928491968608 76.0511128121307 3.0
vertex 18.6810777645146 76.0000015515643 -2.8199664825479e-015
vertex 18.2928491968608 76.0511128121307 -2.8199664825479e-015
endloop
endfacet
facet normal 2.79808850723313e-015 1.0 0.0
outer loop
vertex 18.6810777645146 76.0000015515643 -2.8199664825479e-015
vertex 18.2928491968608 76.0511128121307 3.0
vertex 18.6810777645146 76.0000015515643 3.0
endloop
endfacet
facet normal 0.707106781186552 0.707106781186543 0.0
outer loop
vertex 17.6204175927348 76.4393413797845 3.0
vertex 17.9310777645146 76.2009634458877 -2.8199664825479e-015
vertex 17.6204175927348 76.4393413797845 -2.8199664825479e-015
endloop
endfacet
facet normal 0.500000000000003 0.866025403784437 0.0
outer loop
vertex 17.9310777645146 76.2009634458877 -2.8199664825479e-015
vertex 17.6204175927348 76.4393413797845 3.0
vertex 17.9310777645146 76.2009634458877 3.0
endloop
endfacet
facet normal -0.965925826289069 0.258819045102518 0.0
outer loop
vertex 20.1299665039482 77.1117729839105 3.0
vertex 19.9801158701912 76.7500015515643 -2.8199664825479e-015
vertex 19.9801158701912 76.7500015515643 3.0
endloop
endfacet
facet normal -0.866025403784444 0.499999999999991 0.0
outer loop
vertex 19.9801158701912 76.7500015515643 -2.8199664825479e-015
vertex 20.1299665039482 77.1117729839105 3.0
vertex 20.1299665039482 77.1117729839105 -2.8199664825479e-015
endloop
endfacet
facet normal 0.866025403784437 0.500000000000003 0.0
outer loop
vertex 17.3820396588379 76.7500015515643 -2.8199664825479e-015
vertex 17.6204175927348 76.4393413797845 3.0
vertex 17.6204175927348 76.4393413797845 -2.8199664825479e-015
endloop
endfacet
facet normal 0.707106781186552 0.707106781186543 0.0
outer loop
vertex 17.6204175927348 76.4393413797845 3.0
vertex 17.3820396588379 76.7500015515643 -2.8199664825479e-015
vertex 17.3820396588379 76.7500015515643 3.0
endloop
endfacet
facet normal 0.866025403784434 -0.500000000000008 0.0
outer loop
vertex 17.3820396588379 78.2500015515643 -2.8199664825479e-015
vertex 17.232189025081 77.8882301192181 3.0
vertex 17.232189025081 77.8882301192181 -2.8199664825479e-015
endloop
endfacet
facet normal 0.965925826289068 -0.258819045102521 0.0
outer loop
vertex 17.232189025081 77.8882301192181 3.0
vertex 17.3820396588379 78.2500015515643 -2.8199664825479e-015
vertex 17.3820396588379 78.2500015515643 3.0
endloop
endfacet
facet normal -0.707106781186549 -0.707106781186546 0.0
outer loop
vertex 19.7417379362944 78.5606617233441 3.0
vertex 19.9801158701912 78.2500015515643 -2.8199664825479e-015
vertex 19.9801158701912 78.2500015515643 3.0
endloop
endfacet
facet normal -0.86602540378444 -0.499999999999997 0.0
outer loop
vertex 19.9801158701912 78.2500015515643 -2.8199664825479e-015
vertex 19.7417379362944 78.5606617233441 3.0
vertex 19.7417379362944 78.5606617233441 -2.8199664825479e-015
endloop
endfacet
facet normal -0.707106781186549 -0.707106781186546 0.0
outer loop
vertex 19.7417379362944 78.5606617233441 3.0
vertex 19.4310777645146 78.799039657241 -2.8199664825479e-015
vertex 19.7417379362944 78.5606617233441 -2.8199664825479e-015
endloop
endfacet
facet normal -0.499999999999997 -0.86602540378444 0.0
outer loop
vertex 19.4310777645146 78.799039657241 -2.8199664825479e-015
vertex 19.7417379362944 78.5606617233441 3.0
vertex 19.4310777645146 78.799039657241 3.0
endloop
endfacet
facet normal -0.499999999999997 -0.86602540378444 0.0
outer loop
vertex 19.4310777645146 78.799039657241 3.0
vertex 19.0693063321684 78.9488902909979 -2.8199664825479e-015
vertex 19.4310777645146 78.799039657241 -2.8199664825479e-015
endloop
endfacet
facet normal -0.258819045102504 -0.965925826289073 0.0
outer loop
vertex 19.0693063321684 78.9488902909979 -2.8199664825479e-015
vertex 19.4310777645146 78.799039657241 3.0
vertex 19.0693063321684 78.9488902909979 3.0
endloop
endfacet
facet normal -0.258819045102504 -0.965925826289073 0.0
outer loop
vertex 19.0693063321684 78.9488902909979 3.0
vertex 18.6810777645146 79.0000015515643 -2.8199664825479e-015
vertex 19.0693063321684 78.9488902909979 -2.8199664825479e-015
endloop
endfacet
facet normal 2.79808850723313e-015 -1.0 0.0
outer loop
vertex 18.6810777645146 79.0000015515643 -2.8199664825479e-015
vertex 19.0693063321684 78.9488902909979 3.0
vertex 18.6810777645146 79.0000015515643 3.0
endloop
endfacet
facet normal 2.79808850723313e-015 -1.0 0.0
outer loop
vertex 18.6810777645146 79.0000015515643 3.0
vertex 18.2928491968608 78.9488902909979 -2.8199664825479e-015
vertex 18.6810777645146 79.0000015515643 -2.8199664825479e-015
endloop
endfacet
facet normal 0.258819045102501 -0.965925826289074 0.0
outer loop
vertex 18.2928491968608 78.9488902909979 -2.8199664825479e-015
vertex 18.6810777645146 79.0000015515643 3.0
vertex 18.2928491968608 78.9488902909979 3.0
endloop
endfacet
facet normal -1.0 0.0 0.0
outer loop
vertex 34.3621555290291 75.2000015515643 6.0
vertex 34.3621555290291 7.5 -1.40998324127395e-015
vertex 34.3621555290291 7.5 6.0
endloop
endfacet
facet normal -1.0 0.0 0.0
outer loop
vertex 34.3621555290291 7.5 -1.40998324127395e-015
vertex 34.3621555290291 75.2000015515643 6.0
vertex 34.3621555290291 75.2000015515643 -1.40998324127395e-015
endloop
endfacet
facet normal 0.0 -1.0 0.0
outer loop
vertex 37.3621555290291 1.02172696728456e-016 6.0
vertex 0.0 0.0 0.0
vertex 37.3621555290291 0.0 0.0
endloop
endfacet
facet normal 0.0 -1.0 0.0
outer loop
vertex 0.0 0.0 0.0
vertex 37.3621555290291 1.02172696728456e-016 6.0
vertex -2.26429640577633e-016 1.02172696728456e-016 6.0
endloop
endfacet
facet normal 0.965925826289068 -0.258819045102521 0.0
outer loop
vertex 17.232189025081 77.8882301192181 -2.8199664825479e-015
vertex 17.1810777645146 77.5000015515643 3.0
vertex 17.1810777645146 77.5000015515643 -2.8199664825479e-015
endloop
endfacet
facet normal 1.0 0.0 0.0
outer loop
vertex 17.1810777645146 77.5000015515643 3.0
vertex 17.232189025081 77.8882301192181 -2.8199664825479e-015
vertex 17.232189025081 77.8882301192181 3.0
endloop
endfacet
facet normal -0.258819045102529 0.965925826289066 0.0
outer loop
vertex 19.0693063321684 76.0511128121307 3.0
vertex 19.4310777645146 76.2009634458877 -2.8199664825479e-015
vertex 19.0693063321684 76.0511128121307 -2.8199664825479e-015
endloop
endfacet
facet normal -0.5 0.866025403784438 0.0
outer loop
vertex 19.4310777645146 76.2009634458877 -2.8199664825479e-015
vertex 19.0693063321684 76.0511128121307 3.0
vertex 19.4310777645146 76.2009634458877 3.0
endloop
endfacet
facet normal 1.0 -0.0 -0.0
outer loop
vertex 37.3621555290291 82.8000015515643 0.0
vertex 37.3621555290291 1.02172696728456e-016 6.0
vertex 37.3621555290291 0.0 0.0
endloop
endfacet
facet normal 1.0 -0.0 -0.0
outer loop
vertex 37.3621555290291 1.02172696728456e-016 6.0
vertex 37.3621555290291 82.8000015515643 0.0
vertex 37.3621555290291 82.8000015515643 6.0
endloop
endfacet
facet normal -0.866025403784444 0.499999999999991 0.0
outer loop
vertex 19.9801158701912 76.7500015515643 3.0
vertex 19.7417379362944 76.4393413797845 -2.8199664825479e-015
vertex 19.7417379362944 76.4393413797845 3.0
endloop
endfacet
facet normal -0.707106781186546 0.707106781186549 0.0
outer loop
vertex 19.7417379362944 76.4393413797845 -2.8199664825479e-015
vertex 19.9801158701912 76.7500015515643 3.0
vertex 19.9801158701912 76.7500015515643 -2.8199664825479e-015
endloop
endfacet
facet normal -1.0 0.0 0.0
outer loop
vertex 20.1810777645146 77.5000015515643 3.0
vertex 20.1299665039482 77.1117729839105 -2.8199664825479e-015
vertex 20.1299665039482 77.1117729839105 3.0
endloop
endfacet
facet normal -0.965925826289069 0.258819045102518 0.0
outer loop
vertex 20.1299665039482 77.1117729839105 -2.8199664825479e-015
vertex 20.1810777645146 77.5000015515643 3.0
vertex 20.1810777645146 77.5000015515643 -2.8199664825479e-015
endloop
endfacet
facet normal -0.86602540378444 -0.499999999999997 0.0
outer loop
vertex 19.9801158701912 78.2500015515643 3.0
vertex 20.1299665039482 77.8882301192181 -2.8199664825479e-015
vertex 20.1299665039482 77.8882301192181 3.0
endloop
endfacet
facet normal -0.965925826289072 -0.258819045102508 0.0
outer loop
vertex 20.1299665039482 77.8882301192181 -2.8199664825479e-015
vertex 19.9801158701912 78.2500015515643 3.0
vertex 19.9801158701912 78.2500015515643 -2.8199664825479e-015
endloop
endfacet
facet normal -1.0 0.0 0.0
outer loop
vertex -2.26429640577633e-016 1.02172696728456e-016 6.0
vertex 0.0 82.8000015515643 -4.22994972382185e-015
vertex 0.0 0.0 0.0
endloop
endfacet
facet normal -1.0 0.0 0.0
outer loop
vertex 0.0 82.8000015515643 -4.22994972382185e-015
vertex -2.26429640577633e-016 1.02172696728456e-016 6.0
vertex -2.26429640577633e-016 82.8000015515643 5.99999999999999
endloop
endfacet
facet normal 1.0 -0.0 -0.0
outer loop
vertex 3.0 75.2000015515643 -4.22994972382185e-015
vertex 3.0 7.5 6.0
vertex 3.0 7.5 -1.40998324127395e-015
endloop
endfacet
facet normal 1.0 -0.0 -0.0
outer loop
vertex 3.0 7.5 6.0
vertex 3.0 75.2000015515643 -4.22994972382185e-015
vertex 3.0 75.2000015515643 6.0
endloop
endfacet
facet normal -0.0 1.0 -0.0
outer loop
vertex 3.0 7.5 -1.40998324127395e-015
vertex 17.5154219137953 7.5 3.0
vertex 34.3621555290291 7.5 -1.40998324127395e-015
endloop
endfacet
facet normal -0.0 1.0 -0.0
outer loop
vertex 17.5154219137953 7.5 3.0
vertex 3.0 7.5 -1.40998324127395e-015
vertex 3.0 7.5 6.0
endloop
endfacet
facet normal -0.0 1.0 -0.0
outer loop
vertex 17.5154219137953 7.5 3.0
vertex 3.0 7.5 6.0
vertex 17.5154219137953 7.5 6.0
endloop
endfacet
facet normal -0.0 1.0 -0.0
outer loop
vertex 34.3621555290291 7.5 -1.40998324127395e-015
vertex 19.8467336152338 7.5 3.0
vertex 34.3621555290291 7.5 6.0
endloop
endfacet
facet normal -0.0 1.0 -0.0
outer loop
vertex 19.8467336152338 7.5 3.0
vertex 34.3621555290291 7.5 -1.40998324127395e-015
vertex 17.5154219137953 7.5 3.0
endloop
endfacet
facet normal -0.0 1.0 -0.0
outer loop
vertex 34.3621555290291 7.5 6.0
vertex 19.8467336152338 7.5 3.0
vertex 19.8467336152338 7.5 6.0
endloop
endfacet
facet normal 0.707106781186556 -0.707106781186539 0.0
outer loop
vertex 17.6204175927348 78.5606617233441 -2.8199664825479e-015
vertex 17.3820396588379 78.2500015515643 3.0
vertex 17.3820396588379 78.2500015515643 -2.8199664825479e-015
endloop
endfacet
facet normal 0.866025403784434 -0.500000000000008 0.0
outer loop
vertex 17.3820396588379 78.2500015515643 3.0
vertex 17.6204175927348 78.5606617233441 -2.8199664825479e-015
vertex 17.6204175927348 78.5606617233441 3.0
endloop
endfacet
facet normal 0.965925826289065 0.258819045102531 0.0
outer loop
vertex 17.232189025081 77.1117729839105 -2.8199664825479e-015
vertex 17.3820396588379 76.7500015515643 3.0
vertex 17.3820396588379 76.7500015515643 -2.8199664825479e-015
endloop
endfacet
facet normal 0.866025403784437 0.500000000000003 0.0
outer loop
vertex 17.3820396588379 76.7500015515643 3.0
vertex 17.232189025081 77.1117729839105 -2.8199664825479e-015
vertex 17.232189025081 77.1117729839105 3.0
endloop
endfacet
facet normal 0.500000000000003 0.866025403784437 0.0
outer loop
vertex 17.9310777645146 76.2009634458877 3.0
vertex 18.2928491968608 76.0511128121307 -2.8199664825479e-015
vertex 17.9310777645146 76.2009634458877 -2.8199664825479e-015
endloop
endfacet
facet normal 0.258819045102527 0.965925826289067 0.0
outer loop
vertex 18.2928491968608 76.0511128121307 -2.8199664825479e-015
vertex 17.9310777645146 76.2009634458877 3.0
vertex 18.2928491968608 76.0511128121307 3.0
endloop
endfacet
facet normal -0.5 0.866025403784438 0.0
outer loop
vertex 19.4310777645146 76.2009634458877 3.0
vertex 19.7417379362944 76.4393413797845 -2.8199664825479e-015
vertex 19.4310777645146 76.2009634458877 -2.8199664825479e-015
endloop
endfacet
facet normal -0.707106781186546 0.707106781186549 0.0
outer loop
vertex 19.7417379362944 76.4393413797845 -2.8199664825479e-015
vertex 19.4310777645146 76.2009634458877 3.0
vertex 19.7417379362944 76.4393413797845 3.0
endloop
endfacet
facet normal 1.0 0.0 0.0
outer loop
vertex 17.1810777645146 77.5000015515643 -2.8199664825479e-015
vertex 17.232189025081 77.1117729839105 3.0
vertex 17.232189025081 77.1117729839105 -2.8199664825479e-015
endloop
endfacet
facet normal 0.965925826289065 0.258819045102531 0.0
outer loop
vertex 17.232189025081 77.1117729839105 3.0
vertex 17.1810777645146 77.5000015515643 -2.8199664825479e-015
vertex 17.1810777645146 77.5000015515643 3.0
endloop
endfacet
facet normal -0.965925826289072 -0.258819045102508 0.0
outer loop
vertex 20.1299665039482 77.8882301192181 3.0
vertex 20.1810777645146 77.5000015515643 -2.8199664825479e-015
vertex 20.1810777645146 77.5000015515643 3.0
endloop
endfacet
facet normal -1.0 0.0 0.0
outer loop
vertex 20.1810777645146 77.5000015515643 -2.8199664825479e-015
vertex 20.1299665039482 77.8882301192181 3.0
vertex 20.1299665039482 77.8882301192181 -2.8199664825479e-015
endloop
endfacet
facet normal 2.79808850723313e-015 1.0 0.0
outer loop
vertex 18.6810777645146 76.0000015515643 3.0
vertex 19.0693063321684 76.0511128121307 -2.8199664825479e-015
vertex 18.6810777645146 76.0000015515643 -2.8199664825479e-015
endloop
endfacet
facet normal -0.258819045102529 0.965925826289066 0.0
outer loop
vertex 19.0693063321684 76.0511128121307 -2.8199664825479e-015
vertex 18.6810777645146 76.0000015515643 3.0
vertex 19.0693063321684 76.0511128121307 3.0
endloop
endfacet
facet normal 0.0 -1.0 0.0
outer loop
vertex 34.3621555290291 75.2000015515643 6.0
vertex 19.6053122589965 75.2000015515643 3.0
vertex 34.3621555290291 75.2000015515643 -1.40998324127395e-015
endloop
endfacet
facet normal 0.0 -1.0 0.0
outer loop
vertex 19.6053122589965 75.2000015515643 3.0
vertex 34.3621555290291 75.2000015515643 6.0
vertex 19.6053122589965 75.2000015515643 6.0
endloop
endfacet
facet normal 0.0 -1.0 0.0
outer loop
vertex 3.0 75.2000015515643 -4.22994972382185e-015
vertex 17.7568432700326 75.2000015515643 3.0
vertex 3.0 75.2000015515643 6.0
endloop
endfacet
facet normal 0.0 -1.0 0.0
outer loop
vertex 17.7568432700326 75.2000015515643 3.0
vertex 3.0 75.2000015515643 -4.22994972382185e-015
vertex 34.3621555290291 75.2000015515643 -1.40998324127395e-015
endloop
endfacet
facet normal 0.0 -1.0 0.0
outer loop
vertex 17.7568432700326 75.2000015515643 3.0
vertex 34.3621555290291 75.2000015515643 -1.40998324127395e-015
vertex 19.6053122589965 75.2000015515643 3.0
endloop
endfacet
facet normal 0.0 -1.0 0.0
outer loop
vertex 3.0 75.2000015515643 6.0
vertex 17.7568432700326 75.2000015515643 3.0
vertex 17.7568432700326 75.2000015515643 6.0
endloop
endfacet
facet normal -0.707106781186545 0.70710678118655 0.0
outer loop
vertex 19.7417379362944 4.23933982822018 3.0
vertex 19.9801158701912 4.55 0.0
vertex 19.7417379362944 4.23933982822018 0.0
endloop
endfacet
facet normal -0.86602540378444 0.499999999999998 0.0
outer loop
vertex 19.9801158701912 4.55 0.0
vertex 19.7417379362944 4.23933982822018 3.0
vertex 19.9801158701912 4.55 3.0
endloop
endfacet
facet normal -0.86602540378444 0.499999999999998 0.0
outer loop
vertex 19.9801158701912 4.55 3.0
vertex 20.1299665039482 4.91177143234622 0.0
vertex 19.9801158701912 4.55 0.0
endloop
endfacet
facet normal -0.96592582628907 0.258819045102514 0.0
outer loop
vertex 20.1299665039482 4.91177143234622 0.0
vertex 19.9801158701912 4.55 3.0
vertex 20.1299665039482 4.91177143234622 3.0
endloop
endfacet
facet normal -0.96592582628907 -0.258819045102513 0.0
outer loop
vertex 20.1299665039482 5.68822856765378 3.0
vertex 19.9801158701912 6.05 0.0
vertex 20.1299665039482 5.68822856765378 0.0
endloop
endfacet
facet normal -0.86602540378444 -0.499999999999997 0.0
outer loop
vertex 19.9801158701912 6.05 0.0
vertex 20.1299665039482 5.68822856765378 3.0
vertex 19.9801158701912 6.05 3.0
endloop
endfacet
facet normal -0.86602540378444 -0.499999999999997 0.0
outer loop
vertex 19.9801158701912 6.05 3.0
vertex 19.7417379362944 6.36066017177982 0.0
vertex 19.9801158701912 6.05 0.0
endloop
endfacet
facet normal -0.707106781186544 -0.707106781186551 0.0
outer loop
vertex 19.7417379362944 6.36066017177982 0.0
vertex 19.9801158701912 6.05 3.0
vertex 19.7417379362944 6.36066017177982 3.0
endloop
endfacet
facet normal 0.258819045102501 -0.965925826289074 0.0
outer loop
vertex 18.2928491968608 78.9488902909979 3.0
vertex 17.9310777645146 78.799039657241 -2.8199664825479e-015
vertex 18.2928491968608 78.9488902909979 -2.8199664825479e-015
endloop
endfacet
facet normal 0.5 -0.866025403784439 0.0
outer loop
vertex 17.9310777645146 78.799039657241 -2.8199664825479e-015
vertex 18.2928491968608 78.9488902909979 3.0
vertex 17.9310777645146 78.799039657241 3.0
endloop
endfacet
facet normal 0.258819045102522 0.965925826289068 0.0
outer loop
vertex 18.2928491968608 3.8511112605664 3.0
vertex 18.6810777645146 3.8 0.0
vertex 18.2928491968608 3.8511112605664 0.0
endloop
endfacet
facet normal 2.79808850723313e-015 1.0 0.0
outer loop
vertex 18.6810777645146 3.8 0.0
vertex 18.2928491968608 3.8511112605664 3.0
vertex 18.6810777645146 3.8 3.0
endloop
endfacet
facet normal -0.500000000000002 0.866025403784438 0.0
outer loop
vertex 19.4310777645146 4.00096189432334 3.0
vertex 19.7417379362944 4.23933982822018 0.0
vertex 19.4310777645146 4.00096189432334 0.0
endloop
endfacet
facet normal -0.707106781186545 0.70710678118655 0.0
outer loop
vertex 19.7417379362944 4.23933982822018 0.0
vertex 19.4310777645146 4.00096189432334 3.0
vertex 19.7417379362944 4.23933982822018 3.0
endloop
endfacet
facet normal -1.0 -2.49511077078113e-016 0.0
outer loop
vertex 20.1810777645146 5.3 3.0
vertex 20.1299665039482 5.68822856765378 0.0
vertex 20.1810777645146 5.3 0.0
endloop
endfacet
facet normal -0.96592582628907 -0.258819045102513 0.0
outer loop
vertex 20.1299665039482 5.68822856765378 0.0
vertex 20.1810777645146 5.3 3.0
vertex 20.1299665039482 5.68822856765378 3.0
endloop
endfacet
facet normal 0.500000000000005 0.866025403784436 0.0
outer loop
vertex 17.9310777645146 4.00096189432334 3.0
vertex 18.2928491968608 3.8511112605664 0.0
vertex 17.9310777645146 4.00096189432334 0.0
endloop
endfacet
facet normal 0.258819045102522 0.965925826289068 0.0
outer loop
vertex 18.2928491968608 3.8511112605664 0.0
vertex 17.9310777645146 4.00096189432334 3.0
vertex 18.2928491968608 3.8511112605664 3.0
endloop
endfacet
facet normal 0.965925826289067 0.258819045102526 0.0
outer loop
vertex 17.232189025081 4.91177143234622 0.0
vertex 17.3820396588379 4.55 3.0
vertex 17.3820396588379 4.55 0.0
endloop
endfacet
facet normal 0.866025403784434 0.500000000000009 0.0
outer loop
vertex 17.3820396588379 4.55 3.0
vertex 17.232189025081 4.91177143234622 0.0
vertex 17.232189025081 4.91177143234622 3.0
endloop
endfacet
facet normal -0.96592582628907 0.258819045102514 0.0
outer loop
vertex 20.1299665039482 4.91177143234622 3.0
vertex 20.1810777645146 5.3 0.0
vertex 20.1299665039482 4.91177143234622 0.0
endloop
endfacet
facet normal -1.0 -2.13866637495525e-016 0.0
outer loop
vertex 20.1810777645146 5.3 0.0
vertex 20.1299665039482 4.91177143234622 3.0
vertex 20.1810777645146 5.3 3.0
endloop
endfacet
facet normal 0.70710678118655 0.707106781186545 0.0
outer loop
vertex 17.6204175927348 4.23933982822018 3.0
vertex 17.9310777645146 4.00096189432334 0.0
vertex 17.6204175927348 4.23933982822018 0.0
endloop
endfacet
facet normal 0.500000000000005 0.866025403784436 0.0
outer loop
vertex 17.9310777645146 4.00096189432334 0.0
vertex 17.6204175927348 4.23933982822018 3.0
vertex 17.9310777645146 4.00096189432334 3.0
endloop
endfacet
facet normal 1.0 1.78222197912938e-017 0.0
outer loop
vertex 17.1810777645146 5.3 0.0
vertex 17.232189025081 4.91177143234622 3.0
vertex 17.232189025081 4.91177143234622 0.0
endloop
endfacet
facet normal 0.965925826289067 0.258819045102526 0.0
outer loop
vertex 17.232189025081 4.91177143234622 3.0
vertex 17.1810777645146 5.3 0.0
vertex 17.1810777645146 5.3 3.0
endloop
endfacet
facet normal 2.79808850723313e-015 1.0 0.0
outer loop
vertex 18.6810777645146 3.8 3.0
vertex 19.0693063321684 3.8511112605664 0.0
vertex 18.6810777645146 3.8 0.0
endloop
endfacet
facet normal -0.258819045102523 0.965925826289068 0.0
outer loop
vertex 19.0693063321684 3.8511112605664 0.0
vertex 18.6810777645146 3.8 3.0
vertex 19.0693063321684 3.8511112605664 3.0
endloop
endfacet
facet normal 0.866025403784433 0.500000000000009 0.0
outer loop
vertex 17.3820396588379 4.55 0.0
vertex 17.6204175927348 4.23933982822018 3.0
vertex 17.6204175927348 4.23933982822018 0.0
endloop
endfacet
facet normal 0.70710678118655 0.707106781186545 0.0
outer loop
vertex 17.6204175927348 4.23933982822018 3.0
vertex 17.3820396588379 4.55 0.0
vertex 17.3820396588379 4.55 3.0
endloop
endfacet
facet normal -0.258819045102523 0.965925826289068 0.0
outer loop
vertex 19.0693063321684 3.8511112605664 3.0
vertex 19.4310777645146 4.00096189432334 0.0
vertex 19.0693063321684 3.8511112605664 0.0
endloop
endfacet
facet normal -0.500000000000002 0.866025403784438 0.0
outer loop
vertex 19.4310777645146 4.00096189432334 0.0
vertex 19.0693063321684 3.8511112605664 3.0
vertex 19.4310777645146 4.00096189432334 3.0
endloop
endfacet
facet normal 5.79222143217049e-016 1.0 0.0
outer loop
vertex 18.6810777645146 2.8 6.0
vertex 19.3281253772709 2.88518543427733 3.0
vertex 18.6810777645146 2.8 3.0
endloop
endfacet
facet normal -0.258819045102522 0.965925826289068 0.0
outer loop
vertex 19.3281253772709 2.88518543427733 3.0
vertex 18.6810777645146 2.8 6.0
vertex 19.3281253772709 2.88518543427733 6.0
endloop
endfacet
facet normal -0.258819045102522 0.965925826289068 0.0
outer loop
vertex 19.3281253772709 2.88518543427733 6.0
vertex 19.6603609860995 3.02280192935744 3.0
vertex 19.3281253772709 2.88518543427733 3.0
endloop
endfacet
facet normal -0.382683432365091 0.923879532511286 -0.0
outer loop
vertex 19.6603609860995 3.02280192935744 3.0
vertex 19.3281253772709 2.88518543427733 6.0
vertex 19.6603609860995 3.02280192935744 6.0
endloop
endfacet
facet normal -7.5476546859211e-017 3.40575655761521e-017 1.0
outer loop
vertex 3.0 75.2000015515643 6.0
vertex 16.2662631987919 76.852953938808 6.0
vertex 16.1810777645146 77.5000015515643 6.0
endloop
endfacet
facet normal -7.5476546859211e-017 3.40575655761521e-017 1.0
outer loop
vertex 16.2662631987919 76.852953938808 6.0
vertex 3.0 75.2000015515643 6.0
vertex 16.5160142550535 76.2500015515643 6.0
endloop
endfacet
facet normal -7.5476546859211e-017 3.40575655761521e-017 1.0
outer loop
vertex 16.5160142550535 76.2500015515643 6.0
vertex 3.0 75.2000015515643 6.0
vertex 16.9133108115482 75.7322345985979 6.0
endloop
endfacet
facet normal -7.5476546859211e-017 3.40575655761521e-017 1.0
outer loop
vertex 16.9133108115482 75.7322345985979 6.0
vertex 3.0 75.2000015515643 6.0
vertex 17.4310777645146 75.3349380421032 6.0
endloop
endfacet
facet normal -7.5476546859211e-017 3.40575655761521e-017 1.0
outer loop
vertex 17.4310777645146 75.3349380421032 6.0
vertex 3.0 75.2000015515643 6.0
vertex 17.7568432700326 75.2000015515643 6.0
endloop
endfacet
facet normal -7.5476546859211e-017 3.40575655761521e-017 1.0
outer loop
vertex 34.3621555290291 75.2000015515643 6.0
vertex 19.9310777645146 75.3349380421032 6.0
vertex 19.6053122589965 75.2000015515643 6.0
endloop
endfacet
facet normal -7.5476546859211e-017 3.40575655761521e-017 1.0
outer loop
vertex 19.9310777645146 75.3349380421032 6.0
vertex 34.3621555290291 75.2000015515643 6.0
vertex 20.4488447174809 75.7322345985979 6.0
endloop
endfacet
facet normal -7.5476546859211e-017 3.40575655761521e-017 1.0
outer loop
vertex 20.4488447174809 75.7322345985979 6.0
vertex 34.3621555290291 75.2000015515643 6.0
vertex 20.8461412739757 76.2500015515643 6.0
endloop
endfacet
facet normal -7.5476546859211e-017 3.40575655761521e-017 1.0
outer loop
vertex 20.8461412739757 76.2500015515643 6.0
vertex 34.3621555290291 75.2000015515643 6.0
vertex 21.0958923302373 76.852953938808 6.0
endloop
endfacet
facet normal -7.5476546859211e-017 3.40575655761521e-017 1.0
outer loop
vertex 21.0958923302373 76.852953938808 6.0
vertex 34.3621555290291 75.2000015515643 6.0
vertex 21.1810777645146 77.5000015515643 6.0
endloop
endfacet
facet normal -7.5476546859211e-017 3.40575655761521e-017 1.0
outer loop
vertex -2.26429640577633e-016 1.02172696728456e-016 6.0
vertex 3.0 7.5 6.0
vertex -2.26429640577633e-016 82.8000015515643 5.99999999999999
endloop
endfacet
facet normal -7.5476546859211e-017 3.40575655761521e-017 1.0
outer loop
vertex 3.0 7.5 6.0
vertex -2.26429640577633e-016 1.02172696728456e-016 6.0
vertex 18.0340301517583 2.88518543427733 6.0
endloop
endfacet
facet normal -7.5476546859211e-017 3.40575655761521e-017 1.0
outer loop
vertex 18.0340301517583 2.88518543427733 6.0
vertex -2.26429640577633e-016 1.02172696728456e-016 6.0
vertex 37.3621555290291 1.02172696728456e-016 6.0
endloop
endfacet
facet normal -7.5476546859211e-017 3.40575655761521e-017 1.0
outer loop
vertex 3.0 7.5 6.0
vertex 18.0340301517583 2.88518543427733 6.0
vertex 17.4310777645146 3.1349364905389 6.0
endloop
endfacet
facet normal -7.5476546859211e-017 3.40575655761521e-017 1.0
outer loop
vertex 3.0 7.5 6.0
vertex 17.4310777645146 3.1349364905389 6.0
vertex 16.9133108115482 3.53223304703363 6.0
endloop
endfacet
facet normal -7.5476546859211e-017 3.40575655761521e-017 1.0
outer loop
vertex 3.0 7.5 6.0
vertex 16.9133108115482 3.53223304703363 6.0
vertex 16.5160142550535 4.05 6.0
endloop
endfacet
facet normal -7.5476546859211e-017 3.40575655761521e-017 1.0
outer loop
vertex 3.0 7.5 6.0
vertex 16.5160142550535 4.05 6.0
vertex 16.2662631987919 4.6529523872437 6.0
endloop
endfacet
facet normal -7.5476546859211e-017 3.40575655761521e-017 1.0
outer loop
vertex 3.0 7.5 6.0
vertex 16.2662631987919 4.6529523872437 6.0
vertex 16.1810777645146 5.3 6.0
endloop
endfacet
facet normal -7.5476546859211e-017 3.40575655761521e-017 1.0
outer loop
vertex 18.0340301517583 2.88518543427733 6.0
vertex 37.3621555290291 1.02172696728456e-016 6.0
vertex 18.6810777645146 2.8 6.0
endloop
endfacet
facet normal -7.5476546859211e-017 3.40575655761521e-017 1.0
outer loop
vertex 18.6810777645146 2.8 6.0
vertex 37.3621555290291 1.02172696728456e-016 6.0
vertex 19.3281253772709 2.88518543427733 6.0
endloop
endfacet
facet normal -7.5476546859211e-017 3.40575655761521e-017 1.0
outer loop
vertex 19.3281253772709 2.88518543427733 6.0
vertex 37.3621555290291 1.02172696728456e-016 6.0
vertex 19.6603609860995 3.02280192935744 6.0
endloop
endfacet
facet normal -7.5476546859211e-017 3.40575655761521e-017 1.0
outer loop
vertex 19.6603609860995 3.02280192935744 6.0
vertex 37.3621555290291 1.02172696728456e-016 6.0
vertex 19.9310777645146 3.1349364905389 6.0
endloop
endfacet
facet normal -7.5476546859211e-017 3.40575655761521e-017 1.0
outer loop
vertex 19.9310777645146 3.1349364905389 6.0
vertex 37.3621555290291 1.02172696728456e-016 6.0
vertex 20.4488447174809 3.53223304703363 6.0
endloop
endfacet
facet normal -7.5476546859211e-017 3.40575655761521e-017 1.0
outer loop
vertex 20.4488447174809 3.53223304703363 6.0
vertex 37.3621555290291 1.02172696728456e-016 6.0
vertex 20.8461412739757 4.05 6.0
endloop
endfacet
facet normal -7.5476546859211e-017 3.40575655761521e-017 1.0
outer loop
vertex 20.8461412739757 4.05 6.0
vertex 37.3621555290291 1.02172696728456e-016 6.0
vertex 21.0958923302373 4.6529523872437 6.0
endloop
endfacet
facet normal -7.5476546859211e-017 3.40575655761521e-017 1.0
outer loop
vertex 21.0958923302373 4.6529523872437 6.0
vertex 37.3621555290291 1.02172696728456e-016 6.0
vertex 21.1810777645146 5.3 6.0
endloop
endfacet
facet normal -7.5476546859211e-017 3.40575655761521e-017 1.0
outer loop
vertex 21.1810777645146 5.3 6.0
vertex 37.3621555290291 1.02172696728456e-016 6.0
vertex 34.3621555290291 7.5 6.0
endloop
endfacet
facet normal -7.5476546859211e-017 3.40575655761521e-017 1.0
outer loop
vertex 34.3621555290291 7.5 6.0
vertex 37.3621555290291 1.02172696728456e-016 6.0
vertex 34.3621555290291 75.2000015515643 6.0
endloop
endfacet
facet normal -7.5476546859211e-017 3.40575655761521e-017 1.0
outer loop
vertex -2.26429640577633e-016 82.8000015515643 5.99999999999999
vertex 18.0340301517583 79.914816117287 6.0
vertex 37.3621555290291 82.8000015515643 6.0
endloop
endfacet
facet normal -7.5476546859211e-017 3.40575655761521e-017 1.0
outer loop
vertex 18.0340301517583 79.914816117287 6.0
vertex -2.26429640577633e-016 82.8000015515643 5.99999999999999
vertex 3.0 75.2000015515643 6.0
endloop
endfacet
facet normal -7.5476546859211e-017 3.40575655761521e-017 1.0
outer loop
vertex 3.0 75.2000015515643 6.0
vertex -2.26429640577633e-016 82.8000015515643 5.99999999999999
vertex 3.0 7.5 6.0
endloop
endfacet
facet normal -7.5476546859211e-017 3.40575655761521e-017 1.0
outer loop
vertex 18.0340301517583 79.914816117287 6.0
vertex 3.0 75.2000015515643 6.0
vertex 17.4310777645146 79.6650650610254 6.0
endloop
endfacet
facet normal -7.5476546859211e-017 3.40575655761521e-017 1.0
outer loop
vertex 17.4310777645146 79.6650650610254 6.0
vertex 3.0 75.2000015515643 6.0
vertex 16.9133108115482 79.2677685045307 6.0
endloop
endfacet
facet normal -7.5476546859211e-017 3.40575655761521e-017 1.0
outer loop
vertex 16.9133108115482 79.2677685045307 6.0
vertex 3.0 75.2000015515643 6.0
vertex 16.5160142550535 78.7500015515643 6.0
endloop
endfacet
facet normal -7.5476546859211e-017 3.40575655761521e-017 1.0
outer loop
vertex 16.5160142550535 78.7500015515643 6.0
vertex 3.0 75.2000015515643 6.0
vertex 16.2662631987919 78.1470491643206 6.0
endloop
endfacet
facet normal -7.5476546859211e-017 3.40575655761521e-017 1.0
outer loop
vertex 16.2662631987919 78.1470491643206 6.0
vertex 3.0 75.2000015515643 6.0
vertex 16.1810777645146 77.5000015515643 6.0
endloop
endfacet
facet normal -7.5476546859211e-017 3.40575655761521e-017 1.0
outer loop
vertex 37.3621555290291 82.8000015515643 6.0
vertex 18.0340301517583 79.914816117287 6.0
vertex 18.6810777645146 80.0000015515643 6.0
endloop
endfacet
facet normal -7.5476546859211e-017 3.40575655761521e-017 1.0
outer loop
vertex 37.3621555290291 82.8000015515643 6.0
vertex 18.6810777645146 80.0000015515643 6.0
vertex 19.3281253772709 79.914816117287 6.0
endloop
endfacet
facet normal -7.5476546859211e-017 3.40575655761521e-017 1.0
outer loop
vertex 37.3621555290291 82.8000015515643 6.0
vertex 19.3281253772709 79.914816117287 6.0
vertex 19.9310777645146 79.6650650610254 6.0
endloop
endfacet
facet normal -7.5476546859211e-017 3.40575655761521e-017 1.0
outer loop
vertex 37.3621555290291 82.8000015515643 6.0
vertex 19.9310777645146 79.6650650610254 6.0
vertex 20.4488447174809 79.2677685045307 6.0
endloop
endfacet
facet normal -7.5476546859211e-017 3.40575655761521e-017 1.0
outer loop
vertex 37.3621555290291 82.8000015515643 6.0
vertex 20.4488447174809 79.2677685045307 6.0
vertex 20.8461412739757 78.7500015515643 6.0
endloop
endfacet
facet normal -7.5476546859211e-017 3.40575655761521e-017 1.0
outer loop
vertex 37.3621555290291 82.8000015515643 6.0
vertex 20.8461412739757 78.7500015515643 6.0
vertex 21.0958923302373 78.1470491643206 6.0
endloop
endfacet
facet normal -7.5476546859211e-017 3.40575655761521e-017 1.0
outer loop
vertex 37.3621555290291 82.8000015515643 6.0
vertex 21.0958923302373 78.1470491643206 6.0
vertex 21.1810777645146 77.5000015515643 6.0
endloop
endfacet
facet normal -7.5476546859211e-017 3.40575655761521e-017 1.0
outer loop
vertex 37.3621555290291 82.8000015515643 6.0
vertex 21.1810777645146 77.5000015515643 6.0
vertex 34.3621555290291 75.2000015515643 6.0
endloop
endfacet
facet normal -7.5476546859211e-017 3.40575655761521e-017 1.0
outer loop
vertex 37.3621555290291 82.8000015515643 6.0
vertex 34.3621555290291 75.2000015515643 6.0
vertex 37.3621555290291 1.02172696728456e-016 6.0
endloop
endfacet
facet normal -7.5476546859211e-017 3.40575655761521e-017 1.0
outer loop
vertex 19.9310777645146 7.4650635094611 6.0
vertex 34.3621555290291 7.5 6.0
vertex 19.8467336152338 7.5 6.0
endloop
endfacet
facet normal -7.5476546859211e-017 3.40575655761521e-017 1.0
outer loop
vertex 34.3621555290291 7.5 6.0
vertex 19.9310777645146 7.4650635094611 6.0
vertex 20.4488447174809 7.06776695296637 6.0
endloop
endfacet
facet normal -7.5476546859211e-017 3.40575655761521e-017 1.0
outer loop
vertex 34.3621555290291 7.5 6.0
vertex 20.4488447174809 7.06776695296637 6.0
vertex 20.8461412739757 6.55 6.0
endloop
endfacet
facet normal -7.5476546859211e-017 3.40575655761521e-017 1.0
outer loop
vertex 34.3621555290291 7.5 6.0
vertex 20.8461412739757 6.55 6.0
vertex 21.0958923302373 5.9470476127563 6.0
endloop
endfacet
facet normal -7.5476546859211e-017 3.40575655761521e-017 1.0
outer loop
vertex 34.3621555290291 7.5 6.0
vertex 21.0958923302373 5.9470476127563 6.0
vertex 21.1810777645146 5.3 6.0
endloop
endfacet
facet normal -7.5476546859211e-017 3.40575655761521e-017 1.0
outer loop
vertex 3.0 7.5 6.0
vertex 17.4310777645146 7.4650635094611 6.0
vertex 17.5154219137953 7.5 6.0
endloop
endfacet
facet normal -7.5476546859211e-017 3.40575655761521e-017 1.0
outer loop
vertex 17.4310777645146 7.4650635094611 6.0
vertex 3.0 7.5 6.0
vertex 16.9133108115482 7.06776695296637 6.0
endloop
endfacet
facet normal -7.5476546859211e-017 3.40575655761521e-017 1.0
outer loop
vertex 16.9133108115482 7.06776695296637 6.0
vertex 3.0 7.5 6.0
vertex 16.5160142550535 6.55 6.0
endloop
endfacet
facet normal -7.5476546859211e-017 3.40575655761521e-017 1.0
outer loop
vertex 16.5160142550535 6.55 6.0
vertex 3.0 7.5 6.0
vertex 16.2662631987919 5.9470476127563 6.0
endloop
endfacet
facet normal -7.5476546859211e-017 3.40575655761521e-017 1.0
outer loop
vertex 16.2662631987919 5.9470476127563 6.0
vertex 3.0 7.5 6.0
vertex 16.1810777645146 5.3 6.0
endloop
endfacet
facet normal 0.866025403784439 0.499999999999999 0.0
outer loop
vertex 16.5160142550535 4.05 3.0
vertex 16.2662631987919 4.6529523872437 6.0
vertex 16.5160142550535 4.05 6.0
endloop
endfacet
facet normal 0.965925826289069 0.258819045102519 0.0
outer loop
vertex 16.2662631987919 4.6529523872437 6.0
vertex 16.5160142550535 4.05 3.0
vertex 16.2662631987919 4.6529523872437 3.0
endloop
endfacet
facet normal -0.965925826289067 -0.258819045102527 0.0
outer loop
vertex 21.0958923302373 5.9470476127563 6.0
vertex 21.1810777645146 5.3 3.0
vertex 21.1810777645146 5.3 6.0
endloop
endfacet
facet normal -1.0 -2.85155516660701e-016 0.0
outer loop
vertex 21.1810777645146 5.3 3.0
vertex 21.0958923302373 5.9470476127563 6.0
vertex 21.0958923302373 5.9470476127563 3.0
endloop
endfacet
facet normal 0.707106781186547 -0.707106781186549 0.0
outer loop
vertex 16.9133108115482 7.06776695296637 3.0
vertex 16.5160142550535 6.55 6.0
vertex 16.5160142550535 6.55 3.0
endloop
endfacet
facet normal 0.866025403784439 -0.499999999999999 1.19922800586818e-019
outer loop
vertex 16.5160142550535 6.55 6.0
vertex 16.9133108115482 7.06776695296637 3.0
vertex 16.9133108115482 7.06776695296637 6.0
endloop
endfacet
facet normal -1.0 -2.49511077078113e-016 0.0
outer loop
vertex 21.1810777645146 5.3 6.0
vertex 21.0958923302373 4.6529523872437 3.0
vertex 21.0958923302373 4.6529523872437 6.0
endloop
endfacet
facet normal -0.965925826289067 0.258819045102527 0.0
outer loop
vertex 21.0958923302373 4.6529523872437 3.0
vertex 21.1810777645146 5.3 6.0
vertex 21.1810777645146 5.3 3.0
endloop
endfacet
facet normal 0.707106781186547 0.707106781186548 0.0
outer loop
vertex 16.9133108115482 3.53223304703363 3.0
vertex 16.5160142550535 4.05 6.0
vertex 16.9133108115482 3.53223304703363 6.0
endloop
endfacet
facet normal 0.866025403784439 0.499999999999999 0.0
outer loop
vertex 16.5160142550535 4.05 6.0
vertex 16.9133108115482 3.53223304703363 3.0
vertex 16.5160142550535 4.05 3.0
endloop
endfacet
facet normal -0.499999999999996 0.866025403784441 0.0
outer loop
vertex 19.9310777645146 3.1349364905389 6.0
vertex 20.4488447174809 3.53223304703363 3.0
vertex 19.9310777645146 3.1349364905389 3.0
endloop
endfacet
facet normal -0.707106781186548 0.707106781186547 0.0
outer loop
vertex 20.4488447174809 3.53223304703363 3.0
vertex 19.9310777645146 3.1349364905389 6.0
vertex 20.4488447174809 3.53223304703363 6.0
endloop
endfacet
facet normal 1.0 1.51488868225997e-016 0.0
outer loop
vertex 16.1810777645146 5.3 3.0
vertex 16.2662631987919 5.9470476127563 6.0
vertex 16.1810777645146 5.3 6.0
endloop
endfacet
facet normal 0.965925826289069 -0.258819045102519 1.19922800586818e-019
outer loop
vertex 16.2662631987919 5.9470476127563 6.0
vertex 16.1810777645146 5.3 3.0
vertex 16.2662631987919 5.9470476127563 3.0
endloop
endfacet
facet normal -0.707106781186548 -0.707106781186547 -1.54133562917137e-018
outer loop
vertex 20.4488447174809 7.06776695296637 6.0
vertex 20.8461412739757 6.55 3.0
vertex 20.8461412739757 6.55 6.0
endloop
endfacet
facet normal -0.866025403784439 -0.5 -1.54133562917137e-018
outer loop
vertex 20.8461412739757 6.55 3.0
vertex 20.4488447174809 7.06776695296637 6.0
vertex 20.4488447174809 7.06776695296637 3.0
endloop
endfacet
facet normal 0.965925826289069 -0.258819045102519 1.19922800586818e-019
outer loop
vertex 16.2662631987919 5.9470476127563 3.0
vertex 16.5160142550535 6.55 6.0
vertex 16.2662631987919 5.9470476127563 6.0
endloop
endfacet
facet normal 0.866025403784439 -0.499999999999999 1.19922800586818e-019
outer loop
vertex 16.5160142550535 6.55 6.0
vertex 16.2662631987919 5.9470476127563 3.0
vertex 16.5160142550535 6.55 3.0
endloop
endfacet
facet normal -0.500000000000006 -0.866025403784435 1.52254800843485e-019
outer loop
vertex 19.9310777645146 7.4650635094611 3.0
vertex 19.8467336152338 7.5 6.0
vertex 19.8467336152338 7.5 3.0
endloop
endfacet
facet normal -0.382683432365111 -0.923879532511278 3.01904479831532e-019
outer loop
vertex 19.8467336152338 7.5 6.0
vertex 19.9310777645146 7.4650635094611 3.0
vertex 19.9310777645146 7.4650635094611 6.0
endloop
endfacet
facet normal -0.382683432365129 0.923879532511271 -0.0
outer loop
vertex 19.6053122589965 75.2000015515643 6.0
vertex 19.9310777645146 75.3349380421032 3.0
vertex 19.6053122589965 75.2000015515643 3.0
endloop
endfacet
facet normal -0.500000000000007 0.866025403784435 0.0
outer loop
vertex 19.9310777645146 75.3349380421032 3.0
vertex 19.6053122589965 75.2000015515643 6.0
vertex 19.9310777645146 75.3349380421032 6.0
endloop
endfacet
facet normal -0.866025403784438 0.500000000000001 0.0
outer loop
vertex 20.8461412739757 4.05 6.0
vertex 20.4488447174809 3.53223304703363 3.0
vertex 20.4488447174809 3.53223304703363 6.0
endloop
endfacet
facet normal -0.707106781186548 0.707106781186547 0.0
outer loop
vertex 20.4488447174809 3.53223304703363 3.0
vertex 20.8461412739757 4.05 6.0
vertex 20.8461412739757 4.05 3.0
endloop
endfacet
facet normal -0.866025403784443 0.499999999999993 0.0
outer loop
vertex 20.8461412739757 76.2500015515643 6.0
vertex 20.4488447174809 75.7322345985979 3.0
vertex 20.4488447174809 75.7322345985979 6.0
endloop
endfacet
facet normal -0.707106781186546 0.707106781186549 0.0
outer loop
vertex 20.4488447174809 75.7322345985979 3.0
vertex 20.8461412739757 76.2500015515643 6.0
vertex 20.8461412739757 76.2500015515643 3.0
endloop
endfacet
facet normal 0.382683432365067 -0.923879532511296 0.0
outer loop
vertex 17.5154219137953 7.5 6.0
vertex 17.4310777645146 7.4650635094611 3.0
vertex 17.5154219137953 7.5 3.0
endloop
endfacet
facet normal 0.499999999999991 -0.866025403784444 0.0
outer loop
vertex 17.4310777645146 7.4650635094611 3.0
vertex 17.5154219137953 7.5 6.0
vertex 17.4310777645146 7.4650635094611 6.0
endloop
endfacet
facet normal 0.965925826289069 0.258819045102519 0.0
outer loop
vertex 16.2662631987919 4.6529523872437 3.0
vertex 16.1810777645146 5.3 6.0
vertex 16.2662631987919 4.6529523872437 6.0
endloop
endfacet
facet normal 1.0 1.87133307808585e-016 0.0
outer loop
vertex 16.1810777645146 5.3 6.0
vertex 16.2662631987919 4.6529523872437 3.0
vertex 16.1810777645146 5.3 3.0
endloop
endfacet
facet normal -0.382683432365085 0.923879532511289 -0.0
outer loop
vertex 19.6603609860995 3.02280192935744 6.0
vertex 19.9310777645146 3.1349364905389 3.0
vertex 19.6603609860995 3.02280192935744 3.0
endloop
endfacet
facet normal -0.499999999999996 0.866025403784441 0.0
outer loop
vertex 19.9310777645146 3.1349364905389 3.0
vertex 19.6603609860995 3.02280192935744 6.0
vertex 19.9310777645146 3.1349364905389 6.0
endloop
endfacet
facet normal 0.500000000000003 0.866025403784437 1.19922800586307e-019
outer loop
vertex 17.4310777645146 3.1349364905389 6.0
vertex 18.0340301517583 2.88518543427733 3.0
vertex 17.4310777645146 3.1349364905389 3.0
endloop
endfacet
facet normal 0.258819045102522 0.965925826289068 1.19922800586307e-019
outer loop
vertex 18.0340301517583 2.88518543427733 3.0
vertex 17.4310777645146 3.1349364905389 6.0
vertex 18.0340301517583 2.88518543427733 6.0
endloop
endfacet
facet normal -0.500000000000007 0.866025403784435 0.0
outer loop
vertex 19.9310777645146 75.3349380421032 6.0
vertex 20.4488447174809 75.7322345985979 3.0
vertex 19.9310777645146 75.3349380421032 3.0
endloop
endfacet
facet normal -0.707106781186546 0.707106781186549 0.0
outer loop
vertex 20.4488447174809 75.7322345985979 3.0
vertex 19.9310777645146 75.3349380421032 6.0
vertex 20.4488447174809 75.7322345985979 6.0
endloop
endfacet
facet normal 0.707106781186547 0.707106781186548 0.0
outer loop
vertex 16.9133108115482 3.53223304703363 6.0
vertex 17.4310777645146 3.1349364905389 3.0
vertex 16.9133108115482 3.53223304703363 3.0
endloop
endfacet
facet normal 0.500000000000003 0.866025403784437 1.19922800586307e-019
outer loop
vertex 17.4310777645146 3.1349364905389 3.0
vertex 16.9133108115482 3.53223304703363 6.0
vertex 17.4310777645146 3.1349364905389 6.0
endloop
endfacet
facet normal -1.0 2.26342191349431e-015 0.0
outer loop
vertex 21.1810777645146 77.5000015515643 6.0
vertex 21.0958923302373 76.852953938808 3.0
vertex 21.0958923302373 76.852953938808 6.0
endloop
endfacet
facet normal -0.965925826289066 0.258819045102528 0.0
outer loop
vertex 21.0958923302373 76.852953938808 3.0
vertex 21.1810777645146 77.5000015515643 6.0
vertex 21.1810777645146 77.5000015515643 3.0
endloop
endfacet
facet normal 0.258819045102522 0.965925826289068 1.19922800586307e-019
outer loop
vertex 18.0340301517583 2.88518543427733 6.0
vertex 18.6810777645146 2.8 3.0
vertex 18.0340301517583 2.88518543427733 3.0
endloop
endfacet
facet normal 5.79222143217049e-016 1.0 0.0
outer loop
vertex 18.6810777645146 2.8 3.0
vertex 18.0340301517583 2.88518543427733 6.0
vertex 18.6810777645146 2.8 6.0
endloop
endfacet
facet normal -0.965925826289067 -0.258819045102526 0.0
outer loop
vertex 21.0958923302373 78.1470491643206 6.0
vertex 21.1810777645146 77.5000015515643 3.0
vertex 21.1810777645146 77.5000015515643 6.0
endloop
endfacet
facet normal -1.0 2.26342191349431e-015 0.0
outer loop
vertex 21.1810777645146 77.5000015515643 3.0
vertex 21.0958923302373 78.1470491643206 6.0
vertex 21.0958923302373 78.1470491643206 3.0
endloop
endfacet
facet normal -0.866025403784437 -0.500000000000002 0.0
outer loop
vertex 20.8461412739757 78.7500015515643 6.0
vertex 21.0958923302373 78.1470491643206 3.0
vertex 21.0958923302373 78.1470491643206 6.0
endloop
endfacet
facet normal -0.965925826289067 -0.258819045102526 0.0
outer loop
vertex 21.0958923302373 78.1470491643206 3.0
vertex 20.8461412739757 78.7500015515643 6.0
vertex 20.8461412739757 78.7500015515643 3.0
endloop
endfacet
facet normal -0.965925826289066 0.258819045102528 0.0
outer loop
vertex 21.0958923302373 76.852953938808 6.0
vertex 20.8461412739757 76.2500015515643 3.0
vertex 20.8461412739757 76.2500015515643 6.0
endloop
endfacet
facet normal -0.866025403784443 0.499999999999993 0.0
outer loop
vertex 20.8461412739757 76.2500015515643 3.0
vertex 21.0958923302373 76.852953938808 6.0
vertex 21.0958923302373 76.852953938808 3.0
endloop
endfacet
facet normal -0.707106781186549 -0.707106781186546 0.0
outer loop
vertex 20.4488447174809 79.2677685045307 6.0
vertex 20.8461412739757 78.7500015515643 3.0
vertex 20.8461412739757 78.7500015515643 6.0
endloop
endfacet
facet normal -0.866025403784437 -0.500000000000002 0.0
outer loop
vertex 20.8461412739757 78.7500015515643 3.0
vertex 20.4488447174809 79.2677685045307 6.0
vertex 20.4488447174809 79.2677685045307 3.0
endloop
endfacet
facet normal 0.499999999999991 -0.866025403784444 0.0
outer loop
vertex 17.4310777645146 7.4650635094611 6.0
vertex 16.9133108115482 7.06776695296637 3.0
vertex 17.4310777645146 7.4650635094611 3.0
endloop
endfacet
facet normal 0.707106781186547 -0.707106781186549 0.0
outer loop
vertex 16.9133108115482 7.06776695296637 3.0
vertex 17.4310777645146 7.4650635094611 6.0
vertex 16.9133108115482 7.06776695296637 6.0
endloop
endfacet
facet normal -0.866025403784439 -0.5 -1.54133562917137e-018
outer loop
vertex 20.8461412739757 6.55 6.0
vertex 21.0958923302373 5.9470476127563 3.0
vertex 21.0958923302373 5.9470476127563 6.0
endloop
endfacet
facet normal -0.965925826289067 -0.258819045102527 0.0
outer loop
vertex 21.0958923302373 5.9470476127563 3.0
vertex 20.8461412739757 6.55 6.0
vertex 20.8461412739757 6.55 3.0
endloop
endfacet
facet normal -0.707106781186548 -0.707106781186547 -1.54133562917137e-018
outer loop
vertex 20.4488447174809 7.06776695296637 6.0
vertex 19.9310777645146 7.4650635094611 3.0
vertex 20.4488447174809 7.06776695296637 3.0
endloop
endfacet
facet normal -0.500000000000006 -0.866025403784435 1.52254800843485e-019
outer loop
vertex 19.9310777645146 7.4650635094611 3.0
vertex 20.4488447174809 7.06776695296637 6.0
vertex 19.9310777645146 7.4650635094611 6.0
endloop
endfacet
facet normal -0.965925826289067 0.258819045102527 0.0
outer loop
vertex 21.0958923302373 4.6529523872437 6.0
vertex 20.8461412739757 4.05 3.0
vertex 20.8461412739757 4.05 6.0
endloop
endfacet
facet normal -0.866025403784438 0.500000000000001 0.0
outer loop
vertex 20.8461412739757 4.05 3.0
vertex 21.0958923302373 4.6529523872437 6.0
vertex 21.0958923302373 4.6529523872437 3.0
endloop
endfacet
facet normal -0.258819045102511 -0.965925826289071 0.0
outer loop
vertex 19.3281253772709 79.914816117287 6.0
vertex 18.6810777645146 80.0000015515643 3.0
vertex 19.3281253772709 79.914816117287 3.0
endloop
endfacet
facet normal 5.703110333214e-016 -1.0 0.0
outer loop
vertex 18.6810777645146 80.0000015515643 3.0
vertex 19.3281253772709 79.914816117287 6.0
vertex 18.6810777645146 80.0000015515643 6.0
endloop
endfacet
facet normal 0.866025403784443 0.499999999999993 0.0
outer loop
vertex 16.5160142550535 76.2500015515643 3.0
vertex 16.9133108115482 75.7322345985979 6.0
vertex 16.9133108115482 75.7322345985979 3.0
endloop
endfacet
facet normal 0.707106781186545 0.70710678118655 1.14299672159456e-018
outer loop
vertex 16.9133108115482 75.7322345985979 6.0
vertex 16.5160142550535 76.2500015515643 3.0
vertex 16.5160142550535 76.2500015515643 6.0
endloop
endfacet
facet normal 0.707106781186545 0.70710678118655 1.14299672159456e-018
outer loop
vertex 16.9133108115482 75.7322345985979 6.0
vertex 17.4310777645146 75.3349380421032 3.0
vertex 16.9133108115482 75.7322345985979 3.0
endloop
endfacet
facet normal 0.500000000000006 0.866025403784435 1.14299672159456e-018
outer loop
vertex 17.4310777645146 75.3349380421032 3.0
vertex 16.9133108115482 75.7322345985979 6.0
vertex 17.4310777645146 75.3349380421032 6.0
endloop
endfacet
facet normal 0.500000000000006 0.866025403784435 1.14299672159456e-018
outer loop
vertex 17.4310777645146 75.3349380421032 6.0
vertex 17.7568432700326 75.2000015515643 3.0
vertex 17.4310777645146 75.3349380421032 3.0
endloop
endfacet
facet normal 0.382683432365117 0.923879532511276 -0.0
outer loop
vertex 17.7568432700326 75.2000015515643 3.0
vertex 17.4310777645146 75.3349380421032 6.0
vertex 17.7568432700326 75.2000015515643 6.0
endloop
endfacet
facet normal -0.707106781186549 -0.707106781186546 0.0
outer loop
vertex 20.4488447174809 79.2677685045307 6.0
vertex 19.9310777645146 79.6650650610254 3.0
vertex 20.4488447174809 79.2677685045307 3.0
endloop
endfacet
facet normal -0.500000000000004 -0.866025403784436 0.0
outer loop
vertex 19.9310777645146 79.6650650610254 3.0
vertex 20.4488447174809 79.2677685045307 6.0
vertex 19.9310777645146 79.6650650610254 6.0
endloop
endfacet
facet normal 0.965925826289069 0.25881904510252 0.0
outer loop
vertex 16.2662631987919 76.852953938808 3.0
vertex 16.5160142550535 76.2500015515643 6.0
vertex 16.5160142550535 76.2500015515643 3.0
endloop
endfacet
facet normal 0.866025403784443 0.499999999999993 0.0
outer loop
vertex 16.5160142550535 76.2500015515643 6.0
vertex 16.2662631987919 76.852953938808 3.0
vertex 16.2662631987919 76.852953938808 6.0
endloop
endfacet
facet normal 5.703110333214e-016 -1.0 0.0
outer loop
vertex 18.6810777645146 80.0000015515643 6.0
vertex 18.0340301517583 79.914816117287 3.0
vertex 18.6810777645146 80.0000015515643 3.0
endloop
endfacet
facet normal 0.258819045102511 -0.965925826289071 1.19922800585853e-019
outer loop
vertex 18.0340301517583 79.914816117287 3.0
vertex 18.6810777645146 80.0000015515643 6.0
vertex 18.0340301517583 79.914816117287 6.0
endloop
endfacet
facet normal 0.500000000000008 -0.866025403784434 1.19922800585852e-019
outer loop
vertex 17.4310777645146 79.6650650610254 6.0
vertex 16.9133108115482 79.2677685045307 3.0
vertex 17.4310777645146 79.6650650610254 3.0
endloop
endfacet
facet normal 0.707106781186547 -0.707106781186547 0.0
outer loop
vertex 16.9133108115482 79.2677685045307 3.0
vertex 17.4310777645146 79.6650650610254 6.0
vertex 16.9133108115482 79.2677685045307 6.0
endloop
endfacet
facet normal -0.500000000000004 -0.866025403784436 0.0
outer loop
vertex 19.9310777645146 79.6650650610254 6.0
vertex 19.3281253772709 79.914816117287 3.0
vertex 19.9310777645146 79.6650650610254 3.0
endloop
endfacet
facet normal -0.258819045102511 -0.965925826289071 0.0
outer loop
vertex 19.3281253772709 79.914816117287 3.0
vertex 19.9310777645146 79.6650650610254 6.0
vertex 19.3281253772709 79.914816117287 6.0
endloop
endfacet
facet normal 0.258819045102511 -0.965925826289071 1.19922800585852e-019
outer loop
vertex 18.0340301517583 79.914816117287 6.0
vertex 17.4310777645146 79.6650650610254 3.0
vertex 18.0340301517583 79.914816117287 3.0
endloop
endfacet
facet normal 0.500000000000008 -0.866025403784434 1.19922800585852e-019
outer loop
vertex 17.4310777645146 79.6650650610254 3.0
vertex 18.0340301517583 79.914816117287 6.0
vertex 17.4310777645146 79.6650650610254 6.0
endloop
endfacet
facet normal 0.707106781186547 -0.707106781186547 0.0
outer loop
vertex 16.9133108115482 79.2677685045307 3.0
vertex 16.5160142550535 78.7500015515643 6.0
vertex 16.5160142550535 78.7500015515643 3.0
endloop
endfacet
facet normal 0.866025403784438 -0.500000000000002 0.0
outer loop
vertex 16.5160142550535 78.7500015515643 6.0
vertex 16.9133108115482 79.2677685045307 3.0
vertex 16.9133108115482 79.2677685045307 6.0
endloop
endfacet
facet normal 0.866025403784438 -0.500000000000002 0.0
outer loop
vertex 16.5160142550535 78.7500015515643 3.0
vertex 16.2662631987919 78.1470491643206 6.0
vertex 16.2662631987919 78.1470491643206 3.0
endloop
endfacet
facet normal 0.965925826289069 -0.258819045102518 0.0
outer loop
vertex 16.2662631987919 78.1470491643206 6.0
vertex 16.5160142550535 78.7500015515643 3.0
vertex 16.5160142550535 78.7500015515643 6.0
endloop
endfacet
facet normal 1.0 2.25451080359867e-015 0.0
outer loop
vertex 16.1810777645146 77.5000015515643 3.0
vertex 16.2662631987919 76.852953938808 6.0
vertex 16.2662631987919 76.852953938808 3.0
endloop
endfacet
facet normal 0.965925826289069 0.25881904510252 0.0
outer loop
vertex 16.2662631987919 76.852953938808 6.0
vertex 16.1810777645146 77.5000015515643 3.0
vertex 16.1810777645146 77.5000015515643 6.0
endloop
endfacet
facet normal 0.965925826289069 -0.258819045102518 0.0
outer loop
vertex 16.2662631987919 78.1470491643206 3.0
vertex 16.1810777645146 77.5000015515643 6.0
vertex 16.1810777645146 77.5000015515643 3.0
endloop
endfacet
facet normal 1.0 2.25451080359867e-015 0.0
outer loop
vertex 16.1810777645146 77.5000015515643 6.0
vertex 16.2662631987919 78.1470491643206 3.0
vertex 16.2662631987919 78.1470491643206 6.0
endloop
endfacet
endsolid command-top-display-mount
