solid tonearm-lift-alignment-tool
facet normal 1.0 -2.79849885727076e-017 2.47317151902122e-017
outer loop
vertex 41.7 0.0 -7.75490782700672e-015
vertex 41.7 3.6430780618347 7.59999999999999
vertex 41.7 0.0 14.8
endloop
endfacet
facet normal 1.0 -2.79849885727076e-017 2.47317151902122e-017
outer loop
vertex 41.7 3.6430780618347 7.59999999999999
vertex 41.7 0.0 -7.75490782700672e-015
vertex 41.7 4.40588745030458 6.60588745030456
endloop
endfacet
facet normal 1.0 -2.79849885727076e-017 2.47317151902122e-017
outer loop
vertex 41.7 4.40588745030458 6.60588745030456
vertex 41.7 0.0 -7.75490782700672e-015
vertex 41.7 5.4 5.84307806183468
endloop
endfacet
facet normal 1.0 -2.79849885727076e-017 2.47317151902122e-017
outer loop
vertex 41.7 5.4 5.84307806183468
vertex 41.7 0.0 -7.75490782700672e-015
vertex 41.7 15.6 -7.75490782700672e-015
endloop
endfacet
facet normal 1.0 -2.79849885727076e-017 2.47317151902122e-017
outer loop
vertex 41.7 0.0 14.8
vertex 41.7 3.6430780618347 7.59999999999999
vertex 41.7 3.16355603381247 8.75766858350788
endloop
endfacet
facet normal 1.0 -2.79849885727076e-017 2.47317151902122e-017
outer loop
vertex 41.7 0.0 14.8
vertex 41.7 3.16355603381247 8.75766858350788
vertex 41.7 3.0 9.99999999999999
endloop
endfacet
facet normal 1.0 -2.79849885727076e-017 2.47317151902122e-017
outer loop
vertex 41.7 0.0 14.8
vertex 41.7 3.0 9.99999999999999
vertex 41.7 3.0 14.8
endloop
endfacet
facet normal 1.0 -2.79849885727076e-017 2.47317151902122e-017
outer loop
vertex 41.7 5.4 5.84307806183468
vertex 41.7 15.6 -7.75490782700672e-015
vertex 41.7 6.5576685835079 5.36355603381246
endloop
endfacet
facet normal 1.0 -2.79849885727076e-017 2.47317151902122e-017
outer loop
vertex 41.7 6.5576685835079 5.36355603381246
vertex 41.7 15.6 -7.75490782700672e-015
vertex 41.7 7.8 5.19999999999999
endloop
endfacet
facet normal 1.0 -2.79849885727076e-017 2.47317151902122e-017
outer loop
vertex 41.7 7.8 5.19999999999999
vertex 41.7 15.6 -7.75490782700672e-015
vertex 41.7 9.0423314164921 5.36355603381246
endloop
endfacet
facet normal 1.0 -2.79849885727076e-017 2.47317151902122e-017
outer loop
vertex 41.7 9.0423314164921 5.36355603381246
vertex 41.7 15.6 -7.75490782700672e-015
vertex 41.7 10.2 5.84307806183469
endloop
endfacet
facet normal 1.0 -2.79849885727076e-017 2.47317151902122e-017
outer loop
vertex 41.7 10.2 5.84307806183469
vertex 41.7 15.6 -7.75490782700672e-015
vertex 41.7 11.1941125496954 6.60588745030456
endloop
endfacet
facet normal 1.0 -2.79849885727076e-017 2.47317151902122e-017
outer loop
vertex 41.7 11.1941125496954 6.60588745030456
vertex 41.7 15.6 -7.75490782700672e-015
vertex 41.7 11.9569219381653 7.59999999999999
endloop
endfacet
facet normal 1.0 -2.79849885727076e-017 2.47317151902122e-017
outer loop
vertex 41.7 11.9569219381653 7.59999999999999
vertex 41.7 15.6 -7.75490782700672e-015
vertex 41.7 12.4364439661875 8.75766858350789
endloop
endfacet
facet normal 1.0 -2.79849885727076e-017 2.47317151902122e-017
outer loop
vertex 41.7 12.4364439661875 8.75766858350789
vertex 41.7 15.6 -7.75490782700672e-015
vertex 41.7 12.6 9.99999999999999
endloop
endfacet
facet normal 1.0 -2.79849885727076e-017 2.47317151902122e-017
outer loop
vertex 41.7 12.6 9.99999999999999
vertex 41.7 15.6 -7.75490782700672e-015
vertex 41.7 12.6 14.8
endloop
endfacet
facet normal 1.0 -2.79849885727076e-017 2.47317151902122e-017
outer loop
vertex 41.7 12.6 14.8
vertex 41.7 15.6 -7.75490782700672e-015
vertex 41.7 15.6 14.8
endloop
endfacet
facet normal -1.85969012638051e-016 0.0 -1.0
outer loop
vertex 41.7 15.6 -7.75490782700672e-015
vertex 0.0 0.0 0.0
vertex 0.0 15.6 0.0
endloop
endfacet
facet normal -1.85969012638051e-016 0.0 -1.0
outer loop
vertex 0.0 0.0 0.0
vertex 41.7 15.6 -7.75490782700672e-015
vertex 34.5 11.2641016151378 -7.75490782700672e-015
endloop
endfacet
facet normal -1.85969012638051e-016 0.0 -1.0
outer loop
vertex 0.0 0.0 0.0
vertex 34.5 11.2641016151378 -7.75490782700672e-015
vertex 33.6715728752538 10.6284271247462 -2.8199664825479e-015
endloop
endfacet
facet normal -1.85969012638051e-016 0.0 -1.0
outer loop
vertex 0.0 0.0 0.0
vertex 33.6715728752538 10.6284271247462 -2.8199664825479e-015
vertex 33.0358983848623 9.8 -9.16489106828067e-015
endloop
endfacet
facet normal -1.85969012638051e-016 0.0 -1.0
outer loop
vertex 0.0 0.0 0.0
vertex 33.0358983848623 9.8 -9.16489106828067e-015
vertex 32.6362966948437 8.83527618041008 1.40998324127395e-015
endloop
endfacet
facet normal -1.85969012638051e-016 0.0 -1.0
outer loop
vertex 0.0 0.0 0.0
vertex 32.6362966948437 8.83527618041008 1.40998324127395e-015
vertex 32.5 7.8 -1.40998324127395e-015
endloop
endfacet
facet normal -1.85969012638051e-016 0.0 -1.0
outer loop
vertex 34.5 11.2641016151378 -7.75490782700672e-015
vertex 41.7 15.6 -7.75490782700672e-015
vertex 35.4647238195899 11.6637033051563 -3.52495810318487e-015
endloop
endfacet
facet normal -1.85969012638051e-016 0.0 -1.0
outer loop
vertex 35.4647238195899 11.6637033051563 -3.52495810318487e-015
vertex 41.7 15.6 -7.75490782700672e-015
vertex 36.5 11.8 -1.55098156540134e-014
endloop
endfacet
facet normal -1.85969012638051e-016 0.0 -1.0
outer loop
vertex 36.5 11.8 -1.55098156540134e-014
vertex 41.7 15.6 -7.75490782700672e-015
vertex 37.5352761804101 11.6637033051563 -1.69197988952874e-014
endloop
endfacet
facet normal -1.85969012638051e-016 0.0 -1.0
outer loop
vertex 37.5352761804101 11.6637033051563 -1.69197988952874e-014
vertex 41.7 15.6 -7.75490782700672e-015
vertex 38.5 11.2641016151378 -1.62148072746504e-014
endloop
endfacet
facet normal -1.85969012638051e-016 0.0 -1.0
outer loop
vertex 38.5 11.2641016151378 -1.62148072746504e-014
vertex 41.7 15.6 -7.75490782700672e-015
vertex 39.3284271247462 10.6284271247462 -1.55098156540134e-014
endloop
endfacet
facet normal -1.85969012638051e-016 0.0 -1.0
outer loop
vertex 39.3284271247462 10.6284271247462 -1.55098156540134e-014
vertex 41.7 15.6 -7.75490782700672e-015
vertex 39.9641016151378 9.8 -7.75490782700672e-015
endloop
endfacet
facet normal -1.85969012638051e-016 0.0 -1.0
outer loop
vertex 39.9641016151378 9.8 -7.75490782700672e-015
vertex 41.7 15.6 -7.75490782700672e-015
vertex 40.3637033051563 8.83527618041008 -7.75490782700672e-015
endloop
endfacet
facet normal -1.85969012638051e-016 0.0 -1.0
outer loop
vertex 40.3637033051563 8.83527618041008 -7.75490782700672e-015
vertex 41.7 15.6 -7.75490782700672e-015
vertex 40.5 7.79999999999999 -8.45989944764369e-015
endloop
endfacet
facet normal -1.85969012638051e-016 0.0 -1.0
outer loop
vertex 0.0 0.0 0.0
vertex 34.5 4.33589838486225 -7.75490782700672e-015
vertex 41.7 0.0 -7.75490782700672e-015
endloop
endfacet
facet normal -1.85969012638051e-016 0.0 -1.0
outer loop
vertex 34.5 4.33589838486225 -7.75490782700672e-015
vertex 0.0 0.0 0.0
vertex 33.6715728752538 4.97157287525381 -4.22994972382185e-015
endloop
endfacet
facet normal -1.85969012638051e-016 0.0 -1.0
outer loop
vertex 33.6715728752538 4.97157287525381 -4.22994972382185e-015
vertex 0.0 0.0 0.0
vertex 33.0358983848623 5.8 -4.22994972382185e-015
endloop
endfacet
facet normal -1.85969012638051e-016 0.0 -1.0
outer loop
vertex 33.0358983848623 5.8 -4.22994972382185e-015
vertex 0.0 0.0 0.0
vertex 32.6362966948437 6.76472381958992 1.40998324127395e-015
endloop
endfacet
facet normal -1.85969012638051e-016 0.0 -1.0
outer loop
vertex 32.6362966948437 6.76472381958992 1.40998324127395e-015
vertex 0.0 0.0 0.0
vertex 32.5 7.8 -1.40998324127395e-015
endloop
endfacet
facet normal -1.85969012638051e-016 0.0 -1.0
outer loop
vertex 41.7 0.0 -7.75490782700672e-015
vertex 34.5 4.33589838486225 -7.75490782700672e-015
vertex 35.4647238195899 3.93629669484373 -4.93494134445882e-015
endloop
endfacet
facet normal -1.85969012638051e-016 0.0 -1.0
outer loop
vertex 41.7 0.0 -7.75490782700672e-015
vertex 35.4647238195899 3.93629669484373 -4.93494134445882e-015
vertex 36.5 3.8 -1.40998324127395e-014
endloop
endfacet
facet normal -1.85969012638051e-016 0.0 -1.0
outer loop
vertex 41.7 0.0 -7.75490782700672e-015
vertex 36.5 3.8 -1.40998324127395e-014
vertex 37.5352761804101 3.93629669484373 -1.62148072746504e-014
endloop
endfacet
facet normal -1.85969012638051e-016 0.0 -1.0
outer loop
vertex 41.7 0.0 -7.75490782700672e-015
vertex 37.5352761804101 3.93629669484373 -1.62148072746504e-014
vertex 38.5 4.33589838486225 -1.19848575508286e-014
endloop
endfacet
facet normal -1.85969012638051e-016 0.0 -1.0
outer loop
vertex 41.7 0.0 -7.75490782700672e-015
vertex 38.5 4.33589838486225 -1.19848575508286e-014
vertex 39.3284271247462 4.97157287525381 -1.62148072746504e-014
endloop
endfacet
facet normal -1.85969012638051e-016 0.0 -1.0
outer loop
vertex 41.7 0.0 -7.75490782700672e-015
vertex 39.3284271247462 4.97157287525381 -1.62148072746504e-014
vertex 39.9641016151378 5.8 -8.45989944764369e-015
endloop
endfacet
facet normal -1.85969012638051e-016 0.0 -1.0
outer loop
vertex 41.7 0.0 -7.75490782700672e-015
vertex 39.9641016151378 5.8 -8.45989944764369e-015
vertex 40.3637033051563 6.76472381958991 -1.05748743095546e-014
endloop
endfacet
facet normal -1.85969012638051e-016 0.0 -1.0
outer loop
vertex 41.7 0.0 -7.75490782700672e-015
vertex 40.3637033051563 6.76472381958991 -1.05748743095546e-014
vertex 40.5 7.79999999999999 -8.45989944764369e-015
endloop
endfacet
facet normal -1.85969012638051e-016 0.0 -1.0
outer loop
vertex 41.7 0.0 -7.75490782700672e-015
vertex 40.5 7.79999999999999 -8.45989944764369e-015
vertex 41.7 15.6 -7.75490782700672e-015
endloop
endfacet
facet normal -0.0 1.0 -0.0
outer loop
vertex 0.0 15.6 0.0
vertex 41.7 15.6 14.8
vertex 41.7 15.6 -7.75490782700672e-015
endloop
endfacet
facet normal -0.0 1.0 -0.0
outer loop
vertex 41.7 15.6 14.8
vertex 0.0 15.6 0.0
vertex 0.0 15.6 14.8
endloop
endfacet
facet normal 6.2869238527839e-017 -0.99144486137381 0.130526192220053
outer loop
vertex 41.7 12.6 9.99999999999999
vertex 2.00000000000002 12.4364439661875 8.75766858350791
vertex 41.7 12.4364439661875 8.75766858350789
endloop
endfacet
facet normal 1.51921214748393e-016 -0.965925826289068 0.258819045102521
outer loop
vertex 2.00000000000002 12.4364439661875 8.75766858350791
vertex 41.7 12.6 9.99999999999999
vertex 2.00000000000002 12.6 10.0
endloop
endfacet
facet normal 1.51921214748393e-016 -0.965925826289068 0.258819045102521
outer loop
vertex 41.7 12.4364439661875 8.75766858350789
vertex 2.00000000000003 11.9569219381653 7.60000000000002
vertex 41.7 11.9569219381653 7.59999999999999
endloop
endfacet
facet normal 3.76502715958396e-016 -0.866025403784439 0.5
outer loop
vertex 2.00000000000003 11.9569219381653 7.60000000000002
vertex 41.7 12.4364439661875 8.75766858350789
vertex 2.00000000000002 12.4364439661875 8.75766858350791
endloop
endfacet
facet normal 3.76502715958395e-016 -0.866025403784439 0.5
outer loop
vertex 41.7 11.9569219381653 7.59999999999999
vertex 2.00000000000002 11.1941125496954 6.60588745030459
vertex 41.7 11.1941125496954 6.60588745030456
endloop
endfacet
facet normal 3.98209586628373e-016 -0.707106781186552 0.707106781186543
outer loop
vertex 2.00000000000002 11.1941125496954 6.60588745030459
vertex 41.7 11.9569219381653 7.59999999999999
vertex 2.00000000000003 11.9569219381653 7.60000000000002
endloop
endfacet
facet normal 1.26737507048486e-016 -0.500000000000004 0.866025403784436
outer loop
vertex 41.7 10.2 5.84307806183469
vertex 2.00000000000002 11.1941125496954 6.60588745030459
vertex 2.00000000000002 10.2 5.84307806183468
endloop
endfacet
facet normal 3.98209586628373e-016 -0.707106781186552 0.707106781186543
outer loop
vertex 2.00000000000002 11.1941125496954 6.60588745030459
vertex 41.7 10.2 5.84307806183469
vertex 41.7 11.1941125496954 6.60588745030456
endloop
endfacet
facet normal -4.63365071848676e-017 -0.333213967192984 0.942851235385261
outer loop
vertex 35.7828715177682 9.0423314164921 5.36355603381246
vertex 2.00000000000002 10.2 5.84307806183468
vertex 2.00000000000001 9.0423314164921 5.36355603381246
endloop
endfacet
facet normal 1.26737507048485e-016 -0.500000000000004 0.866025403784436
outer loop
vertex 2.00000000000002 10.2 5.84307806183468
vertex 35.7828715177682 9.0423314164921 5.36355603381246
vertex 36.0364745084376 9.22658477444273 5.4398762735884
endloop
endfacet
facet normal 1.26737507048485e-016 -0.500000000000004 0.866025403784436
outer loop
vertex 2.00000000000002 10.2 5.84307806183468
vertex 36.0364745084376 9.22658477444273 5.4398762735884
vertex 41.7 10.2 5.84307806183469
endloop
endfacet
facet normal 1.26737507048486e-016 -0.500000000000004 0.866025403784436
outer loop
vertex 41.7 10.2 5.84307806183469
vertex 36.0364745084376 9.22658477444273 5.4398762735884
vertex 36.9635254915624 9.22658477444273 5.4398762735884
endloop
endfacet
facet normal 1.26737507048486e-016 -0.500000000000004 0.866025403784436
outer loop
vertex 41.7 10.2 5.84307806183469
vertex 36.9635254915624 9.22658477444273 5.4398762735884
vertex 37.2171284822318 9.0423314164921 5.36355603381247
endloop
endfacet
facet normal 1.26737507048486e-016 -0.500000000000004 0.866025403784436
outer loop
vertex 41.7 10.2 5.84307806183469
vertex 37.2171284822318 9.0423314164921 5.36355603381247
vertex 41.7 9.0423314164921 5.36355603381246
endloop
endfacet
facet normal -9.33776199633495e-017 -2.30511396071725e-016 1.0
outer loop
vertex 35.0 7.8 5.19999999999999
vertex 2.00000000000001 9.0423314164921 5.36355603381246
vertex 1.99999999999999 7.8 5.19999999999998
endloop
endfacet
facet normal -6.99462742381993e-017 -0.258819045102521 0.965925826289068
outer loop
vertex 2.00000000000001 9.0423314164921 5.36355603381246
vertex 35.0 7.8 5.19999999999999
vertex 35.2864745084376 8.68167787843871 5.316075094764
endloop
endfacet
facet normal -6.99462742381993e-017 -0.258819045102521 0.965925826289068
outer loop
vertex 2.00000000000001 9.0423314164921 5.36355603381246
vertex 35.2864745084376 8.68167787843871 5.316075094764
vertex 35.7828715177682 9.0423314164921 5.36355603381246
endloop
endfacet
facet normal 2.05839087914637e-016 0.258819045102521 0.965925826289068
outer loop
vertex 41.7 6.5576685835079 5.36355603381246
vertex 37.7135254915624 6.91832212156129 5.316075094764
vertex 37.2171284822318 6.5576685835079 5.36355603381246
endloop
endfacet
facet normal 4.08899659062357e-016 0.130526192220054 0.99144486137381
outer loop
vertex 37.7135254915624 6.91832212156129 5.316075094764
vertex 41.7 6.5576685835079 5.36355603381246
vertex 38.0 7.8 5.19999999999999
endloop
endfacet
facet normal 5.67881683232262e-016 -4.38715237684898e-016 1.0
outer loop
vertex 38.0 7.8 5.19999999999999
vertex 41.7 6.5576685835079 5.36355603381246
vertex 41.7 7.8 5.19999999999999
endloop
endfacet
facet normal 9.19604464070333e-017 0.500000000000003 0.866025403784437
outer loop
vertex 2.00000000000002 5.4 5.84307806183468
vertex 35.7828715177682 6.5576685835079 5.36355603381246
vertex 2.00000000000001 6.5576685835079 5.36355603381246
endloop
endfacet
facet normal -1.62647974036015e-017 0.333213967192984 0.942851235385261
outer loop
vertex 35.7828715177682 6.5576685835079 5.36355603381246
vertex 2.00000000000002 5.4 5.84307806183468
vertex 36.0364745084376 6.37341522555727 5.4398762735884
endloop
endfacet
facet normal -7.43447096679017e-019 0.382683432365087 0.923879532511288
outer loop
vertex 36.0364745084376 6.37341522555727 5.4398762735884
vertex 2.00000000000002 5.4 5.84307806183468
vertex 41.7 5.4 5.84307806183468
endloop
endfacet
facet normal -7.43447096679017e-019 0.382683432365087 0.923879532511288
outer loop
vertex 36.0364745084376 6.37341522555727 5.4398762735884
vertex 41.7 5.4 5.84307806183468
vertex 36.9635254915624 6.37341522555727 5.4398762735884
endloop
endfacet
facet normal -7.43447096679017e-019 0.382683432365087 0.923879532511288
outer loop
vertex 36.9635254915624 6.37341522555727 5.4398762735884
vertex 41.7 5.4 5.84307806183468
vertex 37.2171284822318 6.5576685835079 5.36355603381246
endloop
endfacet
facet normal 8.30805959274378e-017 0.333213967192984 0.942851235385261
outer loop
vertex 37.2171284822318 6.5576685835079 5.36355603381246
vertex 41.7 5.4 5.84307806183468
vertex 41.7 6.5576685835079 5.36355603381246
endloop
endfacet
facet normal 3.21372197209874e-016 0.707106781186551 0.707106781186544
outer loop
vertex 41.7 4.40588745030458 6.60588745030456
vertex 2.00000000000002 5.4 5.84307806183468
vertex 2.00000000000002 4.40588745030458 6.60588745030458
endloop
endfacet
facet normal 9.19604464070333e-017 0.500000000000003 0.866025403784437
outer loop
vertex 2.00000000000002 5.4 5.84307806183468
vertex 41.7 4.40588745030458 6.60588745030456
vertex 41.7 5.4 5.84307806183468
endloop
endfacet
facet normal 3.21372197209874e-016 0.707106781186551 0.707106781186544
outer loop
vertex 2.00000000000002 4.40588745030458 6.60588745030458
vertex 41.7 3.6430780618347 7.59999999999999
vertex 41.7 4.40588745030458 6.60588745030456
endloop
endfacet
facet normal 3.3532077736475e-016 0.866025403784437 0.500000000000002
outer loop
vertex 41.7 3.6430780618347 7.59999999999999
vertex 2.00000000000002 4.40588745030458 6.60588745030458
vertex 2.00000000000003 3.6430780618347 7.60000000000002
endloop
endfacet
facet normal 3.35320777364749e-016 0.866025403784437 0.500000000000002
outer loop
vertex 2.00000000000003 3.6430780618347 7.60000000000002
vertex 41.7 3.16355603381247 8.75766858350788
vertex 41.7 3.6430780618347 7.59999999999999
endloop
endfacet
facet normal 1.30954768427522e-016 0.965925826289068 0.258819045102523
outer loop
vertex 41.7 3.16355603381247 8.75766858350788
vertex 2.00000000000003 3.6430780618347 7.60000000000002
vertex 2.00000000000001 3.16355603381247 8.75766858350789
endloop
endfacet
facet normal 1.30954768427522e-016 0.965925826289068 0.258819045102523
outer loop
vertex 2.00000000000001 3.16355603381247 8.75766858350789
vertex 41.7 3.0 9.99999999999999
vertex 41.7 3.16355603381247 8.75766858350788
endloop
endfacet
facet normal 4.89194970472364e-017 0.99144486137381 0.130526192220051
outer loop
vertex 41.7 3.0 9.99999999999999
vertex 2.00000000000001 3.16355603381247 8.75766858350789
vertex 2.00000000000002 3.0 10.0
endloop
endfacet
facet normal 0.0 -1.0 0.0
outer loop
vertex 41.7 0.0 14.8
vertex 0.0 0.0 0.0
vertex 41.7 0.0 -7.75490782700672e-015
endloop
endfacet
facet normal 0.0 -1.0 0.0
outer loop
vertex 0.0 0.0 0.0
vertex 41.7 0.0 14.8
vertex 0.0 0.0 14.8
endloop
endfacet
facet normal 1.0 -5.13318975676893e-016 -7.57694446460646e-016
outer loop
vertex 2.00000000000002 3.0 10.0
vertex 2.00000000000002 12.6 14.8
vertex 2.00000000000001 3.0 14.8
endloop
endfacet
facet normal 1.0 -5.13318975676893e-016 -7.57694446460646e-016
outer loop
vertex 2.00000000000002 12.6 14.8
vertex 2.00000000000002 3.0 10.0
vertex 2.00000000000001 3.16355603381247 8.75766858350789
endloop
endfacet
facet normal 1.0 -5.13318975676893e-016 -7.57694446460646e-016
outer loop
vertex 2.00000000000002 12.6 14.8
vertex 2.00000000000001 3.16355603381247 8.75766858350789
vertex 2.00000000000003 3.6430780618347 7.60000000000002
endloop
endfacet
facet normal 1.0 -5.13318975676893e-016 -7.57694446460646e-016
outer loop
vertex 2.00000000000002 12.6 14.8
vertex 2.00000000000003 3.6430780618347 7.60000000000002
vertex 2.00000000000002 4.40588745030458 6.60588745030458
endloop
endfacet
facet normal 1.0 -5.13318975676893e-016 -7.57694446460646e-016
outer loop
vertex 2.00000000000002 12.6 14.8
vertex 2.00000000000002 4.40588745030458 6.60588745030458
vertex 2.00000000000002 5.4 5.84307806183468
endloop
endfacet
facet normal 1.0 -5.13318975676893e-016 -7.57694446460646e-016
outer loop
vertex 2.00000000000002 12.6 14.8
vertex 2.00000000000002 5.4 5.84307806183468
vertex 2.00000000000001 6.5576685835079 5.36355603381246
endloop
endfacet
facet normal 1.0 -5.13318975676893e-016 -7.57694446460646e-016
outer loop
vertex 2.00000000000002 12.6 14.8
vertex 2.00000000000001 6.5576685835079 5.36355603381246
vertex 1.99999999999999 7.8 5.19999999999998
endloop
endfacet
facet normal 1.0 -5.13318975676893e-016 -7.57694446460646e-016
outer loop
vertex 2.00000000000002 12.6 14.8
vertex 1.99999999999999 7.8 5.19999999999998
vertex 2.00000000000001 9.0423314164921 5.36355603381246
endloop
endfacet
facet normal 1.0 -5.13318975676893e-016 -7.57694446460646e-016
outer loop
vertex 2.00000000000002 12.6 14.8
vertex 2.00000000000001 9.0423314164921 5.36355603381246
vertex 2.00000000000002 10.2 5.84307806183468
endloop
endfacet
facet normal 1.0 -5.13318975676893e-016 -7.57694446460646e-016
outer loop
vertex 2.00000000000002 12.6 14.8
vertex 2.00000000000002 10.2 5.84307806183468
vertex 2.00000000000002 11.1941125496954 6.60588745030459
endloop
endfacet
facet normal 1.0 -5.13318975676893e-016 -7.57694446460646e-016
outer loop
vertex 2.00000000000002 12.6 14.8
vertex 2.00000000000002 11.1941125496954 6.60588745030459
vertex 2.00000000000003 11.9569219381653 7.60000000000002
endloop
endfacet
facet normal 1.0 -5.13318975676893e-016 -7.57694446460646e-016
outer loop
vertex 2.00000000000002 12.6 14.8
vertex 2.00000000000003 11.9569219381653 7.60000000000002
vertex 2.00000000000002 12.4364439661875 8.75766858350791
endloop
endfacet
facet normal 1.0 -5.13318975676893e-016 -7.57694446460646e-016
outer loop
vertex 2.00000000000002 12.6 14.8
vertex 2.00000000000002 12.4364439661875 8.75766858350791
vertex 2.00000000000002 12.6 10.0
endloop
endfacet
facet normal -1.0 0.0 0.0
outer loop
vertex 0.0 15.6 14.8
vertex 0.0 0.0 0.0
vertex 0.0 0.0 14.8
endloop
endfacet
facet normal -1.0 0.0 0.0
outer loop
vertex 0.0 0.0 0.0
vertex 0.0 15.6 14.8
vertex 0.0 15.6 0.0
endloop
endfacet
facet normal -1.98938536787855e-017 -6.39450544066272e-018 -1.0
outer loop
vertex 32.6362966948437 8.83527618041008 4.19999999999999
vertex 32.6362966948437 6.76472381958992 4.19999999999999
vertex 32.5 7.8 4.19999999999998
endloop
endfacet
facet normal -1.98938536787855e-017 -6.39450544066272e-018 -1.0
outer loop
vertex 32.6362966948437 6.76472381958992 4.19999999999999
vertex 32.6362966948437 8.83527618041008 4.19999999999999
vertex 33.0358983848623 9.8 4.19999999999999
endloop
endfacet
facet normal -1.98938536787855e-017 -6.39450544066272e-018 -1.0
outer loop
vertex 32.6362966948437 6.76472381958992 4.19999999999999
vertex 33.0358983848623 9.8 4.19999999999999
vertex 33.0358983848623 5.8 4.19999999999999
endloop
endfacet
facet normal -1.98938536787855e-017 -6.39450544066272e-018 -1.0
outer loop
vertex 33.0358983848623 5.8 4.19999999999999
vertex 33.0358983848623 9.8 4.19999999999999
vertex 33.6715728752538 10.6284271247462 4.19999999999998
endloop
endfacet
facet normal -1.98938536787855e-017 -6.39450544066272e-018 -1.0
outer loop
vertex 33.0358983848623 5.8 4.19999999999999
vertex 33.6715728752538 10.6284271247462 4.19999999999998
vertex 33.6715728752538 4.97157287525381 4.19999999999998
endloop
endfacet
facet normal -1.98938536787855e-017 -6.39450544066272e-018 -1.0
outer loop
vertex 33.6715728752538 4.97157287525381 4.19999999999998
vertex 33.6715728752538 10.6284271247462 4.19999999999998
vertex 34.5 11.2641016151378 4.19999999999999
endloop
endfacet
facet normal -1.98938536787855e-017 -6.39450544066272e-018 -1.0
outer loop
vertex 33.6715728752538 4.97157287525381 4.19999999999998
vertex 34.5 11.2641016151378 4.19999999999999
vertex 34.5 4.33589838486225 4.19999999999999
endloop
endfacet
facet normal -1.98938536787855e-017 -6.39450544066272e-018 -1.0
outer loop
vertex 34.5 4.33589838486225 4.19999999999999
vertex 34.5 11.2641016151378 4.19999999999999
vertex 35.4647238195899 11.6637033051563 4.19999999999998
endloop
endfacet
facet normal -1.98938536787855e-017 -6.39450544066272e-018 -1.0
outer loop
vertex 34.5 4.33589838486225 4.19999999999999
vertex 35.4647238195899 11.6637033051563 4.19999999999998
vertex 35.0 7.8 4.19999999999999
endloop
endfacet
facet normal -1.98938536787855e-017 -6.39450544066272e-018 -1.0
outer loop
vertex 35.0 7.8 4.19999999999999
vertex 35.4647238195899 11.6637033051563 4.19999999999998
vertex 35.2864745084376 8.68167787843871 4.19999999999998
endloop
endfacet
facet normal -1.98938536787855e-017 -6.39450544066272e-018 -1.0
outer loop
vertex 35.2864745084376 8.68167787843871 4.19999999999998
vertex 35.4647238195899 11.6637033051563 4.19999999999998
vertex 36.0364745084376 9.22658477444273 4.19999999999999
endloop
endfacet
facet normal -1.98938536787855e-017 -6.39450544066272e-018 -1.0
outer loop
vertex 36.0364745084376 9.22658477444273 4.19999999999999
vertex 35.4647238195899 11.6637033051563 4.19999999999998
vertex 36.5 11.8 4.19999999999999
endloop
endfacet
facet normal -1.98938536787855e-017 -6.39450544066272e-018 -1.0
outer loop
vertex 36.0364745084376 9.22658477444273 4.19999999999999
vertex 36.5 11.8 4.19999999999999
vertex 36.9635254915625 9.22658477444273 4.19999999999999
endloop
endfacet
facet normal -1.98938536787855e-017 -6.39450544066272e-018 -1.0
outer loop
vertex 36.9635254915625 9.22658477444273 4.19999999999999
vertex 36.5 11.8 4.19999999999999
vertex 37.5352761804101 11.6637033051563 4.19999999999999
endloop
endfacet
facet normal -1.98938536787855e-017 -6.39450544066272e-018 -1.0
outer loop
vertex 36.9635254915625 9.22658477444273 4.19999999999999
vertex 37.5352761804101 11.6637033051563 4.19999999999999
vertex 37.7135254915624 8.68167787843871 4.19999999999999
endloop
endfacet
facet normal -1.98938536787855e-017 -6.39450544066272e-018 -1.0
outer loop
vertex 37.7135254915624 8.68167787843871 4.19999999999999
vertex 37.5352761804101 11.6637033051563 4.19999999999999
vertex 38.5 11.2641016151378 4.19999999999999
endloop
endfacet
facet normal -1.98938536787855e-017 -6.39450544066272e-018 -1.0
outer loop
vertex 37.7135254915624 8.68167787843871 4.19999999999999
vertex 38.5 11.2641016151378 4.19999999999999
vertex 38.0 7.8 4.19999999999998
endloop
endfacet
facet normal -1.98938536787855e-017 -6.39450544066272e-018 -1.0
outer loop
vertex 38.0 7.8 4.19999999999998
vertex 38.5 11.2641016151378 4.19999999999999
vertex 38.5 4.33589838486225 4.19999999999999
endloop
endfacet
facet normal -1.98938536787855e-017 -6.39450544066272e-018 -1.0
outer loop
vertex 38.5 4.33589838486225 4.19999999999999
vertex 38.5 11.2641016151378 4.19999999999999
vertex 39.3284271247462 4.97157287525381 4.19999999999998
endloop
endfacet
facet normal -1.98938536787855e-017 -6.39450544066272e-018 -1.0
outer loop
vertex 39.3284271247462 4.97157287525381 4.19999999999998
vertex 38.5 11.2641016151378 4.19999999999999
vertex 39.3284271247462 10.6284271247462 4.19999999999999
endloop
endfacet
facet normal -1.98938536787855e-017 -6.39450544066272e-018 -1.0
outer loop
vertex 39.3284271247462 4.97157287525381 4.19999999999998
vertex 39.3284271247462 10.6284271247462 4.19999999999999
vertex 39.9641016151378 5.8 4.19999999999999
endloop
endfacet
facet normal -1.98938536787855e-017 -6.39450544066272e-018 -1.0
outer loop
vertex 39.9641016151378 5.8 4.19999999999999
vertex 39.3284271247462 10.6284271247462 4.19999999999999
vertex 39.9641016151378 9.8 4.19999999999999
endloop
endfacet
facet normal -1.98938536787855e-017 -6.39450544066272e-018 -1.0
outer loop
vertex 39.9641016151378 5.8 4.19999999999999
vertex 39.9641016151378 9.8 4.19999999999999
vertex 40.3637033051563 8.83527618041008 4.19999999999999
endloop
endfacet
facet normal -1.98938536787855e-017 -6.39450544066272e-018 -1.0
outer loop
vertex 39.9641016151378 5.8 4.19999999999999
vertex 40.3637033051563 8.83527618041008 4.19999999999999
vertex 40.3637033051563 6.76472381958991 4.19999999999999
endloop
endfacet
facet normal -1.98938536787855e-017 -6.39450544066272e-018 -1.0
outer loop
vertex 40.3637033051563 6.76472381958991 4.19999999999999
vertex 40.3637033051563 8.83527618041008 4.19999999999999
vertex 40.5 7.79999999999999 4.19999999999999
endloop
endfacet
facet normal -1.98938536787855e-017 -6.39450544066272e-018 -1.0
outer loop
vertex 35.0 7.8 4.19999999999999
vertex 35.4647238195899 3.93629669484373 4.19999999999999
vertex 34.5 4.33589838486225 4.19999999999999
endloop
endfacet
facet normal -1.98938536787855e-017 -6.39450544066272e-018 -1.0
outer loop
vertex 35.4647238195899 3.93629669484373 4.19999999999999
vertex 35.0 7.8 4.19999999999999
vertex 35.2864745084376 6.91832212156129 4.19999999999998
endloop
endfacet
facet normal -1.98938536787855e-017 -6.39450544066272e-018 -1.0
outer loop
vertex 35.4647238195899 3.93629669484373 4.19999999999999
vertex 35.2864745084376 6.91832212156129 4.19999999999998
vertex 36.0364745084376 6.37341522555727 4.19999999999999
endloop
endfacet
facet normal -1.98938536787855e-017 -6.39450544066272e-018 -1.0
outer loop
vertex 35.4647238195899 3.93629669484373 4.19999999999999
vertex 36.0364745084376 6.37341522555727 4.19999999999999
vertex 36.5 3.8 4.19999999999999
endloop
endfacet
facet normal -1.98938536787855e-017 -6.39450544066272e-018 -1.0
outer loop
vertex 36.5 3.8 4.19999999999999
vertex 36.0364745084376 6.37341522555727 4.19999999999999
vertex 36.9635254915625 6.37341522555727 4.19999999999999
endloop
endfacet
facet normal -1.98938536787855e-017 -6.39450544066272e-018 -1.0
outer loop
vertex 36.5 3.8 4.19999999999999
vertex 36.9635254915625 6.37341522555727 4.19999999999999
vertex 37.5352761804101 3.93629669484373 4.19999999999999
endloop
endfacet
facet normal -1.98938536787855e-017 -6.39450544066272e-018 -1.0
outer loop
vertex 37.5352761804101 3.93629669484373 4.19999999999999
vertex 36.9635254915625 6.37341522555727 4.19999999999999
vertex 37.7135254915624 6.91832212156129 4.19999999999999
endloop
endfacet
facet normal -1.98938536787855e-017 -6.39450544066272e-018 -1.0
outer loop
vertex 37.5352761804101 3.93629669484373 4.19999999999999
vertex 37.7135254915624 6.91832212156129 4.19999999999999
vertex 38.5 4.33589838486225 4.19999999999999
endloop
endfacet
facet normal -1.98938536787855e-017 -6.39450544066272e-018 -1.0
outer loop
vertex 38.5 4.33589838486225 4.19999999999999
vertex 37.7135254915624 6.91832212156129 4.19999999999999
vertex 38.0 7.8 4.19999999999998
endloop
endfacet
facet normal -0.499999999999999 0.866025403784439 -3.37605991718626e-018
outer loop
vertex 38.5 4.33589838486225 -1.19848575508286e-014
vertex 39.3284271247462 4.97157287525381 4.19999999999998
vertex 39.3284271247462 4.97157287525381 -1.62148072746504e-014
endloop
endfacet
facet normal -0.707106781186546 0.707106781186549 2.65154019628728e-016
outer loop
vertex 39.3284271247462 4.97157287525381 4.19999999999998
vertex 38.5 4.33589838486225 -1.19848575508286e-014
vertex 38.5 4.33589838486225 4.19999999999999
endloop
endfacet
facet normal -0.258819045102522 0.965925826289068 -8.76720137822551e-017
outer loop
vertex 37.5352761804101 3.93629669484373 4.19999999999999
vertex 38.5 4.33589838486225 -1.19848575508286e-014
vertex 37.5352761804101 3.93629669484373 -1.62148072746504e-014
endloop
endfacet
facet normal -0.499999999999999 0.866025403784439 -3.37605991718626e-018
outer loop
vertex 38.5 4.33589838486225 -1.19848575508286e-014
vertex 37.5352761804101 3.93629669484373 4.19999999999999
vertex 38.5 4.33589838486225 4.19999999999999
endloop
endfacet
facet normal 3.20799956243289e-016 1.0 4.42907339212872e-019
outer loop
vertex 36.5 3.8 -1.40998324127395e-014
vertex 37.5352761804101 3.93629669484373 4.19999999999999
vertex 37.5352761804101 3.93629669484373 -1.62148072746504e-014
endloop
endfacet
facet normal -0.258819045102522 0.965925826289068 -8.76720137822551e-017
outer loop
vertex 37.5352761804101 3.93629669484373 4.19999999999999
vertex 36.5 3.8 -1.40998324127395e-014
vertex 36.5 3.8 4.19999999999999
endloop
endfacet
facet normal 0.25881904510252 0.965925826289068 -4.1828808206698e-017
outer loop
vertex 35.4647238195899 3.93629669484373 -4.93494134445882e-015
vertex 36.5 3.8 4.19999999999999
vertex 36.5 3.8 -1.40998324127395e-014
endloop
endfacet
facet normal 1.01586652810375e-015 1.0 4.42907339213806e-019
outer loop
vertex 36.5 3.8 4.19999999999999
vertex 35.4647238195899 3.93629669484373 -4.93494134445882e-015
vertex 35.4647238195899 3.93629669484373 4.19999999999999
endloop
endfacet
facet normal 0.499999999999998 0.86602540378444 -3.37198742736862e-016
outer loop
vertex 34.5 4.33589838486225 4.19999999999999
vertex 35.4647238195899 3.93629669484373 -4.93494134445882e-015
vertex 34.5 4.33589838486225 -7.75490782700672e-015
endloop
endfacet
facet normal 0.25881904510252 0.965925826289068 -4.1828808206698e-017
outer loop
vertex 35.4647238195899 3.93629669484373 -4.93494134445882e-015
vertex 34.5 4.33589838486225 4.19999999999999
vertex 35.4647238195899 3.93629669484373 4.19999999999999
endloop
endfacet
facet normal 0.707106781186549 0.707106781186546 -2.08196304753759e-016
outer loop
vertex 33.6715728752538 4.97157287525381 -4.22994972382185e-015
vertex 34.5 4.33589838486225 4.19999999999999
vertex 34.5 4.33589838486225 -7.75490782700672e-015
endloop
endfacet
facet normal 0.499999999999998 0.86602540378444 -3.37198742736862e-016
outer loop
vertex 34.5 4.33589838486225 4.19999999999999
vertex 33.6715728752538 4.97157287525381 -4.22994972382185e-015
vertex 33.6715728752538 4.97157287525381 4.19999999999998
endloop
endfacet
facet normal 0.866025403784439 0.5 -1.99170132824149e-018
outer loop
vertex 33.0358983848623 5.8 -4.22994972382185e-015
vertex 33.6715728752538 4.97157287525381 4.19999999999998
vertex 33.6715728752538 4.97157287525381 -4.22994972382185e-015
endloop
endfacet
facet normal 0.707106781186549 0.707106781186546 -2.08196304753759e-016
outer loop
vertex 33.6715728752538 4.97157287525381 4.19999999999998
vertex 33.0358983848623 5.8 -4.22994972382185e-015
vertex 33.0358983848623 5.8 4.19999999999999
endloop
endfacet
facet normal 0.965925826289067 0.258819045102524 6.71168145549224e-016
outer loop
vertex 32.6362966948437 6.76472381958992 1.40998324127395e-015
vertex 33.0358983848623 5.8 4.19999999999999
vertex 33.0358983848623 5.8 -4.22994972382185e-015
endloop
endfacet
facet normal 0.866025403784439 0.5 -1.99170132824149e-018
outer loop
vertex 33.0358983848623 5.8 4.19999999999999
vertex 32.6362966948437 6.76472381958992 1.40998324127395e-015
vertex 32.6362966948437 6.76472381958992 4.19999999999999
endloop
endfacet
facet normal 1.0 -1.60399978121645e-016 1.3426439490595e-015
outer loop
vertex 32.5 7.8 -1.40998324127395e-015
vertex 32.6362966948437 6.76472381958992 4.19999999999999
vertex 32.6362966948437 6.76472381958992 1.40998324127395e-015
endloop
endfacet
facet normal 0.965925826289067 0.258819045102524 6.71168145549224e-016
outer loop
vertex 32.6362966948437 6.76472381958992 4.19999999999999
vertex 32.5 7.8 -1.40998324127395e-015
vertex 32.5 7.8 4.19999999999998
endloop
endfacet
facet normal 0.965925826289068 -0.258819045102521 6.72807478574008e-016
outer loop
vertex 32.6362966948437 8.83527618041008 1.40998324127395e-015
vertex 32.5 7.8 4.19999999999998
vertex 32.5 7.8 -1.40998324127395e-015
endloop
endfacet
facet normal 1.0 -1.60399978121644e-016 1.3426439490595e-015
outer loop
vertex 32.5 7.8 4.19999999999998
vertex 32.6362966948437 8.83527618041008 1.40998324127395e-015
vertex 32.6362966948437 8.83527618041008 4.19999999999999
endloop
endfacet
facet normal 0.866025403784439 -0.5 2.7119493936015e-016
outer loop
vertex 33.0358983848623 9.8 -9.16489106828067e-015
vertex 32.6362966948437 8.83527618041008 4.19999999999999
vertex 32.6362966948437 8.83527618041008 1.40998324127395e-015
endloop
endfacet
facet normal 0.965925826289068 -0.258819045102521 6.72807478574009e-016
outer loop
vertex 32.6362966948437 8.83527618041008 4.19999999999999
vertex 33.0358983848623 9.8 -9.16489106828067e-015
vertex 33.0358983848623 9.8 4.19999999999999
endloop
endfacet
facet normal 0.707106781186547 -0.707106781186548 2.66834831247903e-016
outer loop
vertex 33.6715728752538 10.6284271247462 -2.8199664825479e-015
vertex 33.0358983848623 9.8 4.19999999999999
vertex 33.0358983848623 9.8 -9.16489106828067e-015
endloop
endfacet
facet normal 0.866025403784439 -0.499999999999999 2.71194939360149e-016
outer loop
vertex 33.0358983848623 9.8 4.19999999999999
vertex 33.6715728752538 10.6284271247462 -2.8199664825479e-015
vertex 33.6715728752538 10.6284271247462 4.19999999999998
endloop
endfacet
facet normal 0.499999999999999 -0.86602540378444 -1.32446957385087e-016
outer loop
vertex 34.5 11.2641016151378 4.19999999999999
vertex 33.6715728752538 10.6284271247462 -2.8199664825479e-015
vertex 34.5 11.2641016151378 -7.75490782700672e-015
endloop
endfacet
facet normal 0.707106781186547 -0.707106781186548 2.66834831247903e-016
outer loop
vertex 33.6715728752538 10.6284271247462 -2.8199664825479e-015
vertex 34.5 11.2641016151378 4.19999999999999
vertex 33.6715728752538 10.6284271247462 4.19999999999998
endloop
endfacet
facet normal 0.25881904510252 -0.965925826289068 -1.30036098627585e-016
outer loop
vertex 35.4647238195899 11.6637033051563 -3.52495810318487e-015
vertex 34.5 11.2641016151378 4.19999999999999
vertex 34.5 11.2641016151378 -7.75490782700672e-015
endloop
endfacet
facet normal 0.499999999999999 -0.86602540378444 -1.32446957385087e-016
outer loop
vertex 34.5 11.2641016151378 4.19999999999999
vertex 35.4647238195899 11.6637033051563 -3.52495810318487e-015
vertex 35.4647238195899 11.6637033051563 4.19999999999998
endloop
endfacet
facet normal -1.03368874789504e-015 -1.0 4.35671777126446e-017
outer loop
vertex 36.5 11.8 4.19999999999999
vertex 35.4647238195899 11.6637033051563 -3.52495810318487e-015
vertex 36.5 11.8 -1.55098156540134e-014
endloop
endfacet
facet normal 0.25881904510252 -0.965925826289068 -1.30036098627585e-016
outer loop
vertex 35.4647238195899 11.6637033051563 -3.52495810318487e-015
vertex 36.5 11.8 4.19999999999999
vertex 35.4647238195899 11.6637033051563 4.19999999999998
endloop
endfacet
facet normal -0.258819045102522 -0.965925826289068 4.32530435943893e-016
outer loop
vertex 37.5352761804101 11.6637033051563 4.19999999999999
vertex 36.5 11.8 -1.55098156540134e-014
vertex 37.5352761804101 11.6637033051563 -1.69197988952874e-014
endloop
endfacet
facet normal -1.39904425361657e-015 -1.0 4.35671777126447e-017
outer loop
vertex 36.5 11.8 -1.55098156540134e-014
vertex 37.5352761804101 11.6637033051563 4.19999999999999
vertex 36.5 11.8 4.19999999999999
endloop
endfacet
facet normal -0.499999999999999 -0.866025403784439 1.00449596166785e-015
outer loop
vertex 38.5 11.2641016151378 -1.62148072746504e-014
vertex 37.5352761804101 11.6637033051563 4.19999999999999
vertex 37.5352761804101 11.6637033051563 -1.69197988952874e-014
endloop
endfacet
facet normal -0.258819045102522 -0.965925826289068 4.32530435943893e-016
outer loop
vertex 37.5352761804101 11.6637033051563 4.19999999999999
vertex 38.5 11.2641016151378 -1.62148072746504e-014
vertex 38.5 11.2641016151378 4.19999999999999
endloop
endfacet
facet normal -0.707106781186546 -0.707106781186549 8.83946542079527e-016
outer loop
vertex 39.3284271247462 10.6284271247462 -1.55098156540134e-014
vertex 38.5 11.2641016151378 4.19999999999999
vertex 38.5 11.2641016151378 -1.62148072746504e-014
endloop
endfacet
facet normal -0.499999999999999 -0.866025403784439 1.00449596166785e-015
outer loop
vertex 38.5 11.2641016151378 4.19999999999999
vertex 39.3284271247462 10.6284271247462 -1.55098156540134e-014
vertex 39.3284271247462 10.6284271247462 4.19999999999999
endloop
endfacet
facet normal -0.707106781186546 -0.707106781186549 8.83946542079525e-016
outer loop
vertex 39.3284271247462 10.6284271247462 4.19999999999999
vertex 39.9641016151378 9.8 -7.75490782700672e-015
vertex 39.9641016151378 9.8 4.19999999999999
endloop
endfacet
facet normal -0.866025403784439 -0.5 2.67578717321375e-016
outer loop
vertex 39.9641016151378 9.8 -7.75490782700672e-015
vertex 39.3284271247462 10.6284271247462 4.19999999999999
vertex 39.3284271247462 10.6284271247462 -1.55098156540134e-014
endloop
endfacet
facet normal -0.866025403784439 -0.499999999999999 2.67578717321375e-016
outer loop
vertex 39.9641016151378 9.8 4.19999999999999
vertex 40.3637033051563 8.83527618041008 -7.75490782700672e-015
vertex 40.3637033051563 8.83527618041008 4.19999999999999
endloop
endfacet
facet normal -0.965925826289068 -0.25881904510252 -3.71376011065447e-019
outer loop
vertex 40.3637033051563 8.83527618041008 -7.75490782700672e-015
vertex 39.9641016151378 9.8 4.19999999999999
vertex 39.9641016151378 9.8 -7.75490782700672e-015
endloop
endfacet
facet normal -0.965925826289068 -0.25881904510252 -3.71376011065447e-019
outer loop
vertex 40.3637033051563 8.83527618041008 4.19999999999999
vertex 40.5 7.79999999999999 -8.45989944764369e-015
vertex 40.5 7.79999999999999 4.19999999999999
endloop
endfacet
facet normal -1.0 6.23777692695283e-016 2.31872655241365e-019
outer loop
vertex 40.5 7.79999999999999 -8.45989944764369e-015
vertex 40.3637033051563 8.83527618041008 4.19999999999999
vertex 40.3637033051563 8.83527618041008 -7.75490782700672e-015
endloop
endfacet
facet normal -1.0 5.16844373947521e-016 2.31872655241365e-019
outer loop
vertex 40.5 7.79999999999999 4.19999999999999
vertex 40.3637033051563 6.76472381958991 -1.05748743095546e-014
vertex 40.3637033051563 6.76472381958991 4.19999999999999
endloop
endfacet
facet normal -0.965925826289068 0.258819045102523 3.13889399587006e-016
outer loop
vertex 40.3637033051563 6.76472381958991 -1.05748743095546e-014
vertex 40.5 7.79999999999999 4.19999999999999
vertex 40.5 7.79999999999999 -8.45989944764369e-015
endloop
endfacet
facet normal -0.965925826289068 0.258819045102523 3.13889399587006e-016
outer loop
vertex 40.3637033051563 6.76472381958991 4.19999999999999
vertex 39.9641016151378 5.8 -8.45989944764369e-015
vertex 39.9641016151378 5.8 4.19999999999999
endloop
endfacet
facet normal -0.866025403784438 0.500000000000002 5.83084187480333e-016
outer loop
vertex 39.9641016151378 5.8 -8.45989944764369e-015
vertex 40.3637033051563 6.76472381958991 4.19999999999999
vertex 40.3637033051563 6.76472381958991 -1.05748743095546e-014
endloop
endfacet
facet normal -0.866025403784438 0.500000000000001 5.83084187480333e-016
outer loop
vertex 39.9641016151378 5.8 4.19999999999999
vertex 39.3284271247462 4.97157287525381 -1.62148072746504e-014
vertex 39.3284271247462 4.97157287525381 4.19999999999998
endloop
endfacet
facet normal -0.707106781186546 0.707106781186549 2.65154019628727e-016
outer loop
vertex 39.3284271247462 4.97157287525381 -1.62148072746504e-014
vertex 39.9641016151378 5.8 4.19999999999999
vertex 39.9641016151378 5.8 -8.45989944764369e-015
endloop
endfacet
facet normal -1.0 6.88561479855441e-017 -4.73357866959291e-018
outer loop
vertex 38.0 7.8 5.19999999999999
vertex 37.7135254915624 6.91832212156129 4.19999999999999
vertex 37.7135254915624 6.91832212156129 5.316075094764
endloop
endfacet
facet normal -0.809016994374947 0.587785252292473 -1.32972210317322e-015
outer loop
vertex 37.7135254915624 6.91832212156129 4.19999999999999
vertex 38.0 7.8 5.19999999999999
vertex 38.0 7.8 4.19999999999998
endloop
endfacet
facet normal -0.309016994374949 0.951056516295153 -1.32498852450363e-015
outer loop
vertex 36.9635254915625 6.37341522555727 4.19999999999999
vertex 37.7135254915624 6.91832212156129 5.316075094764
vertex 37.7135254915624 6.91832212156129 4.19999999999999
endloop
endfacet
facet normal -0.796383398254536 0.604792098976629 -1.41550392412698e-015
outer loop
vertex 37.7135254915624 6.91832212156129 5.316075094764
vertex 36.9635254915625 6.37341522555727 4.19999999999999
vertex 37.2171284822318 6.5576685835079 5.36355603381246
endloop
endfacet
facet normal -0.587785252292473 0.809016994374947 -2.52027794049095e-015
outer loop
vertex 37.2171284822318 6.5576685835079 5.36355603381246
vertex 36.9635254915625 6.37341522555727 4.19999999999999
vertex 36.9635254915624 6.37341522555727 5.4398762735884
endloop
endfacet
facet normal 0.283491700899003 0.958974689718863 -1.9772518516913e-015
outer loop
vertex 36.0364745084376 6.37341522555727 5.4398762735884
vertex 36.9635254915625 6.37341522555727 4.19999999999999
vertex 36.0364745084376 6.37341522555727 4.19999999999999
endloop
endfacet
facet normal -0.309016994374949 0.951056516295153 -1.32498852450363e-015
outer loop
vertex 36.9635254915625 6.37341522555727 4.19999999999999
vertex 36.0364745084376 6.37341522555727 5.4398762735884
vertex 36.9635254915624 6.37341522555727 5.4398762735884
endloop
endfacet
facet normal 0.796383398254536 0.604792098976629 -3.74193306884526e-015
outer loop
vertex 35.2864745084376 6.91832212156129 5.316075094764
vertex 36.0364745084376 6.37341522555727 4.19999999999999
vertex 35.2864745084376 6.91832212156129 4.19999999999998
endloop
endfacet
facet normal 0.309016994374948 0.951056516295153 -2.15528152109688e-015
outer loop
vertex 36.0364745084376 6.37341522555727 4.19999999999999
vertex 35.2864745084376 6.91832212156129 5.316075094764
vertex 35.7828715177682 6.5576685835079 5.36355603381246
endloop
endfacet
facet normal 0.309016994374948 0.951056516295153 -2.15528152109688e-015
outer loop
vertex 36.0364745084376 6.37341522555727 4.19999999999999
vertex 35.7828715177682 6.5576685835079 5.36355603381246
vertex 36.0364745084376 6.37341522555727 5.4398762735884
endloop
endfacet
facet normal 1.0 0.0 -3.09418259035723e-015
outer loop
vertex 35.0 7.8 4.19999999999999
vertex 35.2864745084376 6.91832212156129 5.316075094764
vertex 35.2864745084376 6.91832212156129 4.19999999999998
endloop
endfacet
facet normal 0.796383398254536 0.604792098976629 -3.74193306884526e-015
outer loop
vertex 35.2864745084376 6.91832212156129 5.316075094764
vertex 35.0 7.8 4.19999999999999
vertex 35.0 7.8 5.19999999999999
endloop
endfacet
facet normal 0.809016994374948 -0.587785252292473 -2.25975772474844e-015
outer loop
vertex 35.2864745084376 8.68167787843871 4.19999999999998
vertex 35.0 7.8 5.19999999999999
vertex 35.0 7.8 4.19999999999999
endloop
endfacet
facet normal 1.0 -1.72140369963861e-016 -3.09418259035723e-015
outer loop
vertex 35.0 7.8 5.19999999999999
vertex 35.2864745084376 8.68167787843871 4.19999999999998
vertex 35.2864745084376 8.68167787843871 5.316075094764
endloop
endfacet
facet normal -0.796383398254536 -0.604792098976629 -7.25395740687939e-016
outer loop
vertex 37.7135254915624 8.68167787843871 5.316075094764
vertex 38.0 7.8 4.19999999999998
vertex 38.0 7.8 5.19999999999999
endloop
endfacet
facet normal -1.0 0.0 -4.73357866959291e-018
outer loop
vertex 38.0 7.8 4.19999999999998
vertex 37.7135254915624 8.68167787843871 5.316075094764
vertex 37.7135254915624 8.68167787843871 4.19999999999999
endloop
endfacet
facet normal -0.796383398254536 -0.604792098976629 -7.25395740687939e-016
outer loop
vertex 37.7135254915624 8.68167787843871 5.316075094764
vertex 36.9635254915625 9.22658477444273 4.19999999999999
vertex 37.7135254915624 8.68167787843871 4.19999999999999
endloop
endfacet
facet normal -0.309016994374949 -0.951056516295153 -6.81138566067533e-016
outer loop
vertex 36.9635254915625 9.22658477444273 4.19999999999999
vertex 37.7135254915624 8.68167787843871 5.316075094764
vertex 37.2171284822318 9.0423314164921 5.36355603381247
endloop
endfacet
facet normal -0.309016994374949 -0.951056516295153 -6.81138566067533e-016
outer loop
vertex 36.9635254915625 9.22658477444273 4.19999999999999
vertex 37.2171284822318 9.0423314164921 5.36355603381247
vertex 36.9635254915624 9.22658477444273 5.4398762735884
endloop
endfacet
facet normal -0.309016994374949 -0.951056516295153 -6.81138566067533e-016
outer loop
vertex 36.9635254915625 9.22658477444273 4.19999999999999
vertex 36.0364745084376 9.22658477444273 5.4398762735884
vertex 36.0364745084376 9.22658477444273 4.19999999999999
endloop
endfacet
facet normal 0.283491700899004 -0.958974689718863 -6.54522815957786e-016
outer loop
vertex 36.0364745084376 9.22658477444273 5.4398762735884
vertex 36.9635254915625 9.22658477444273 4.19999999999999
vertex 36.9635254915624 9.22658477444273 5.4398762735884
endloop
endfacet
facet normal 0.309016994374947 -0.951056516295154 -7.13455359348095e-016
outer loop
vertex 36.0364745084376 9.22658477444273 4.19999999999999
vertex 35.2864745084376 8.68167787843871 5.316075094764
vertex 35.2864745084376 8.68167787843871 4.19999999999998
endloop
endfacet
facet normal 0.796383398254536 -0.60479209897663 -2.20494920726238e-015
outer loop
vertex 35.2864745084376 8.68167787843871 5.316075094764
vertex 36.0364745084376 9.22658477444273 4.19999999999999
vertex 35.7828715177682 9.0423314164921 5.36355603381246
endloop
endfacet
facet normal 0.587785252292471 -0.809016994374949 -1.35707273718741e-015
outer loop
vertex 35.7828715177682 9.0423314164921 5.36355603381246
vertex 36.0364745084376 9.22658477444273 4.19999999999999
vertex 36.0364745084376 9.22658477444273 5.4398762735884
endloop
endfacet
facet normal 7.17147094355515e-016 -0.130526192220055 0.99144486137381
outer loop
vertex 37.7135254915624 8.68167787843871 5.316075094764
vertex 41.7 9.0423314164921 5.36355603381246
vertex 37.2171284822318 9.0423314164921 5.36355603381247
endloop
endfacet
facet normal 3.46482953165954e-016 -0.258819045102521 0.965925826289068
outer loop
vertex 41.7 9.0423314164921 5.36355603381246
vertex 37.7135254915624 8.68167787843871 5.316075094764
vertex 38.0 7.8 5.19999999999999
endloop
endfacet
facet normal 3.46482953165954e-016 -0.258819045102521 0.965925826289068
outer loop
vertex 41.7 9.0423314164921 5.36355603381246
vertex 38.0 7.8 5.19999999999999
vertex 41.7 7.8 5.19999999999999
endloop
endfacet
facet normal -3.89909878768217e-017 0.258819045102521 0.965925826289068
outer loop
vertex 2.00000000000001 6.5576685835079 5.36355603381246
vertex 35.0 7.8 5.19999999999999
vertex 1.99999999999999 7.8 5.19999999999998
endloop
endfacet
facet normal -9.33776199633495e-017 -2.30511396071725e-016 1.0
outer loop
vertex 35.0 7.8 5.19999999999999
vertex 2.00000000000001 6.5576685835079 5.36355603381246
vertex 35.2864745084376 6.91832212156129 5.316075094764
endloop
endfacet
facet normal -7.65713820440473e-017 0.130526192220057 0.99144486137381
outer loop
vertex 35.2864745084376 6.91832212156129 5.316075094764
vertex 2.00000000000001 6.5576685835079 5.36355603381246
vertex 35.7828715177682 6.5576685835079 5.36355603381246
endloop
endfacet
facet normal 1.51456152544154e-016 -4.43771549471057e-016 1.0
outer loop
vertex 0.0 0.0 14.8
vertex 2.00000000000001 3.0 14.8
vertex 0.0 15.6 14.8
endloop
endfacet
facet normal 1.51456152544154e-016 -4.43771549471057e-016 1.0
outer loop
vertex 2.00000000000001 3.0 14.8
vertex 0.0 0.0 14.8
vertex 41.7 0.0 14.8
endloop
endfacet
facet normal 1.51456152544154e-016 -4.43771549471057e-016 1.0
outer loop
vertex 2.00000000000001 3.0 14.8
vertex 41.7 0.0 14.8
vertex 41.7 3.0 14.8
endloop
endfacet
facet normal 1.51456152544154e-016 -4.43771549471057e-016 1.0
outer loop
vertex 0.0 15.6 14.8
vertex 2.00000000000002 12.6 14.8
vertex 41.7 15.6 14.8
endloop
endfacet
facet normal 1.51456152544154e-016 -4.43771549471057e-016 1.0
outer loop
vertex 2.00000000000002 12.6 14.8
vertex 0.0 15.6 14.8
vertex 2.00000000000001 3.0 14.8
endloop
endfacet
facet normal 1.51456152544154e-016 -4.43771549471057e-016 1.0
outer loop
vertex 41.7 15.6 14.8
vertex 2.00000000000002 12.6 14.8
vertex 41.7 12.6 14.8
endloop
endfacet
facet normal 5.84046492711211e-032 1.0 2.9374650859874e-016
outer loop
vertex 2.00000000000002 3.0 10.0
vertex 41.7 3.0 14.8
vertex 41.7 3.0 9.99999999999999
endloop
endfacet
facet normal 5.84046492711211e-032 1.0 2.9374650859874e-016
outer loop
vertex 41.7 3.0 14.8
vertex 2.00000000000002 3.0 10.0
vertex 2.00000000000001 3.0 14.8
endloop
endfacet
facet normal 0.0 -1.0 0.0
outer loop
vertex 41.7 12.6 14.8
vertex 2.00000000000002 12.6 10.0
vertex 41.7 12.6 9.99999999999999
endloop
endfacet
facet normal 0.0 -1.0 0.0
outer loop
vertex 2.00000000000002 12.6 10.0
vertex 41.7 12.6 14.8
vertex 2.00000000000002 12.6 14.8
endloop
endfacet
endsolid tonearm-lift-alignment-tool
