solid motor-arm
facet normal 0.0 0.0 1.0
outer loop
vertex -1.23606797749979 -3.80422606518061 14.0
vertex -1.5 -2.5 14.0
vertex -1.81596199895819 -3.56402609675347 14.0
endloop
endfacet
facet normal 0.0 0.0 1.0
outer loop
vertex -1.5 -2.5 14.0
vertex -1.23606797749979 -3.80422606518061 14.0
vertex 1.5 -2.5 14.0
endloop
endfacet
facet normal 0.0 0.0 1.0
outer loop
vertex 1.5 -2.5 14.0
vertex -1.23606797749979 -3.80422606518061 14.0
vertex -0.625737860160922 -3.95075336238055 14.0
endloop
endfacet
facet normal 0.0 0.0 1.0
outer loop
vertex 1.5 -2.5 14.0
vertex -0.625737860160922 -3.95075336238055 14.0
vertex 1.76247905159244e-015 -4.0 14.0
endloop
endfacet
facet normal 0.0 0.0 1.0
outer loop
vertex 1.5 -2.5 14.0
vertex 1.76247905159244e-015 -4.0 14.0
vertex 0.625737860160925 -3.95075336238055 14.0
endloop
endfacet
facet normal 0.0 0.0 1.0
outer loop
vertex 1.5 -2.5 14.0
vertex 0.625737860160925 -3.95075336238055 14.0
vertex 1.23606797749979 -3.80422606518061 14.0
endloop
endfacet
facet normal 0.0 0.0 1.0
outer loop
vertex 1.5 -2.5 14.0
vertex 1.23606797749979 -3.80422606518061 14.0
vertex 1.81596199895819 -3.56402609675347 14.0
endloop
endfacet
facet normal 0.0 0.0 1.0
outer loop
vertex 1.5 -2.5 14.0
vertex 1.81596199895819 -3.56402609675347 14.0
vertex 1.5 2.5 14.0
endloop
endfacet
facet normal 0.0 0.0 1.0
outer loop
vertex 1.5 2.5 14.0
vertex 1.81596199895819 -3.56402609675347 14.0
vertex 1.81596199895819 3.56402609675347 14.0
endloop
endfacet
facet normal 0.0 0.0 1.0
outer loop
vertex 1.81596199895819 3.56402609675347 14.0
vertex 1.81596199895819 -3.56402609675347 14.0
vertex 2.35114100916989 3.23606797749979 14.0
endloop
endfacet
facet normal 0.0 0.0 1.0
outer loop
vertex 2.35114100916989 3.23606797749979 14.0
vertex 1.81596199895819 -3.56402609675347 14.0
vertex 2.35114100916989 -3.23606797749979 14.0
endloop
endfacet
facet normal 0.0 0.0 1.0
outer loop
vertex 2.35114100916989 3.23606797749979 14.0
vertex 2.35114100916989 -3.23606797749979 14.0
vertex 2.82842712474619 2.82842712474619 14.0
endloop
endfacet
facet normal 0.0 0.0 1.0
outer loop
vertex 2.82842712474619 2.82842712474619 14.0
vertex 2.35114100916989 -3.23606797749979 14.0
vertex 2.82842712474619 -2.82842712474619 14.0
endloop
endfacet
facet normal 0.0 0.0 1.0
outer loop
vertex 2.82842712474619 2.82842712474619 14.0
vertex 2.82842712474619 -2.82842712474619 14.0
vertex 3.23606797749979 2.3511410091699 14.0
endloop
endfacet
facet normal 0.0 0.0 1.0
outer loop
vertex 3.23606797749979 2.3511410091699 14.0
vertex 2.82842712474619 -2.82842712474619 14.0
vertex 3.23606797749979 -2.35114100916989 14.0
endloop
endfacet
facet normal 0.0 0.0 1.0
outer loop
vertex 3.23606797749979 2.3511410091699 14.0
vertex 3.23606797749979 -2.35114100916989 14.0
vertex 3.56402609675347 1.81596199895819 14.0
endloop
endfacet
facet normal 0.0 0.0 1.0
outer loop
vertex 3.56402609675347 1.81596199895819 14.0
vertex 3.23606797749979 -2.35114100916989 14.0
vertex 3.56402609675347 -1.81596199895818 14.0
endloop
endfacet
facet normal 0.0 0.0 1.0
outer loop
vertex 3.56402609675347 1.81596199895819 14.0
vertex 3.56402609675347 -1.81596199895818 14.0
vertex 3.80422606518061 1.23606797749979 14.0
endloop
endfacet
facet normal 0.0 0.0 1.0
outer loop
vertex 3.80422606518061 1.23606797749979 14.0
vertex 3.56402609675347 -1.81596199895818 14.0
vertex 3.80422606518061 -1.23606797749979 14.0
endloop
endfacet
facet normal 0.0 0.0 1.0
outer loop
vertex 3.80422606518061 1.23606797749979 14.0
vertex 3.80422606518061 -1.23606797749979 14.0
vertex 3.95075336238055 0.625737860160927 14.0
endloop
endfacet
facet normal 0.0 0.0 1.0
outer loop
vertex 3.95075336238055 0.625737860160927 14.0
vertex 3.80422606518061 -1.23606797749979 14.0
vertex 3.95075336238055 -0.62573786016092 14.0
endloop
endfacet
facet normal 0.0 0.0 1.0
outer loop
vertex 3.95075336238055 0.625737860160927 14.0
vertex 3.95075336238055 -0.62573786016092 14.0
vertex 4.0 3.87745391350336e-015 14.0
endloop
endfacet
facet normal 0.0 0.0 1.0
outer loop
vertex -3.95075336238055 -0.625737860160924 14.0
vertex -3.95075336238055 0.625737860160922 14.0
vertex -4.0 -1.05748743095546e-015 14.0
endloop
endfacet
facet normal 0.0 0.0 1.0
outer loop
vertex -3.95075336238055 0.625737860160922 14.0
vertex -3.95075336238055 -0.625737860160924 14.0
vertex -3.80422606518061 -1.23606797749979 14.0
endloop
endfacet
facet normal 0.0 0.0 1.0
outer loop
vertex -3.95075336238055 0.625737860160922 14.0
vertex -3.80422606518061 -1.23606797749979 14.0
vertex -3.80422606518062 1.23606797749979 14.0
endloop
endfacet
facet normal 0.0 0.0 1.0
outer loop
vertex -3.80422606518062 1.23606797749979 14.0
vertex -3.80422606518061 -1.23606797749979 14.0
vertex -3.56402609675347 1.81596199895819 14.0
endloop
endfacet
facet normal 0.0 0.0 1.0
outer loop
vertex -3.56402609675347 1.81596199895819 14.0
vertex -3.80422606518061 -1.23606797749979 14.0
vertex -3.56402609675347 -1.81596199895819 14.0
endloop
endfacet
facet normal 0.0 0.0 1.0
outer loop
vertex -3.56402609675347 1.81596199895819 14.0
vertex -3.56402609675347 -1.81596199895819 14.0
vertex -3.23606797749979 2.35114100916989 14.0
endloop
endfacet
facet normal 0.0 0.0 1.0
outer loop
vertex -3.23606797749979 2.35114100916989 14.0
vertex -3.56402609675347 -1.81596199895819 14.0
vertex -3.23606797749979 -2.35114100916989 14.0
endloop
endfacet
facet normal 0.0 0.0 1.0
outer loop
vertex -3.23606797749979 2.35114100916989 14.0
vertex -3.23606797749979 -2.35114100916989 14.0
vertex -2.82842712474619 2.82842712474619 14.0
endloop
endfacet
facet normal 0.0 0.0 1.0
outer loop
vertex -2.82842712474619 2.82842712474619 14.0
vertex -3.23606797749979 -2.35114100916989 14.0
vertex -2.82842712474619 -2.82842712474619 14.0
endloop
endfacet
facet normal 0.0 0.0 1.0
outer loop
vertex -2.82842712474619 2.82842712474619 14.0
vertex -2.82842712474619 -2.82842712474619 14.0
vertex -2.35114100916989 3.23606797749979 14.0
endloop
endfacet
facet normal 0.0 0.0 1.0
outer loop
vertex -2.35114100916989 3.23606797749979 14.0
vertex -2.82842712474619 -2.82842712474619 14.0
vertex -2.35114100916989 -3.23606797749979 14.0
endloop
endfacet
facet normal 0.0 0.0 1.0
outer loop
vertex -2.35114100916989 3.23606797749979 14.0
vertex -2.35114100916989 -3.23606797749979 14.0
vertex -1.81596199895819 3.56402609675347 14.0
endloop
endfacet
facet normal 0.0 0.0 1.0
outer loop
vertex -1.81596199895819 3.56402609675347 14.0
vertex -2.35114100916989 -3.23606797749979 14.0
vertex -1.81596199895819 -3.56402609675347 14.0
endloop
endfacet
facet normal 0.0 0.0 1.0
outer loop
vertex -1.81596199895819 3.56402609675347 14.0
vertex -1.81596199895819 -3.56402609675347 14.0
vertex -1.5 2.5 14.0
endloop
endfacet
facet normal 0.0 0.0 1.0
outer loop
vertex -1.81596199895819 3.56402609675347 14.0
vertex -1.5 2.5 14.0
vertex -1.23606797749979 3.80422606518061 14.0
endloop
endfacet
facet normal 0.0 0.0 1.0
outer loop
vertex -1.5 2.5 14.0
vertex -1.81596199895819 -3.56402609675347 14.0
vertex -1.5 -2.5 14.0
endloop
endfacet
facet normal 0.0 0.0 1.0
outer loop
vertex -1.23606797749979 3.80422606518061 14.0
vertex -1.5 2.5 14.0
vertex 1.5 2.5 14.0
endloop
endfacet
facet normal 0.0 0.0 1.0
outer loop
vertex -1.23606797749979 3.80422606518061 14.0
vertex 1.5 2.5 14.0
vertex -0.625737860160926 3.95075336238055 14.0
endloop
endfacet
facet normal 0.0 0.0 1.0
outer loop
vertex -0.625737860160926 3.95075336238055 14.0
vertex 1.5 2.5 14.0
vertex -2.46747067222941e-015 4.0 14.0
endloop
endfacet
facet normal 0.0 0.0 1.0
outer loop
vertex -2.46747067222941e-015 4.0 14.0
vertex 1.5 2.5 14.0
vertex 0.625737860160921 3.95075336238055 14.0
endloop
endfacet
facet normal 0.0 0.0 1.0
outer loop
vertex 0.625737860160921 3.95075336238055 14.0
vertex 1.5 2.5 14.0
vertex 1.23606797749979 3.80422606518062 14.0
endloop
endfacet
facet normal 0.0 0.0 1.0
outer loop
vertex 1.23606797749979 3.80422606518062 14.0
vertex 1.5 2.5 14.0
vertex 1.81596199895819 3.56402609675347 14.0
endloop
endfacet
facet normal -1.0 0.0 -0.0
outer loop
vertex 1.5 2.5 14.0
vertex 1.5 -2.5 7.99999999999999
vertex 1.5 -2.5 14.0
endloop
endfacet
facet normal -1.0 0.0 -0.0
outer loop
vertex 1.5 -2.5 7.99999999999999
vertex 1.5 2.5 14.0
vertex 1.5 2.5 7.99999999999999
endloop
endfacet
facet normal -0.0 -1.0 -0.0
outer loop
vertex 1.5 2.5 14.0
vertex -1.5 2.5 7.99999999999999
vertex 1.5 2.5 7.99999999999999
endloop
endfacet
facet normal -0.0 -1.0 -0.0
outer loop
vertex -1.5 2.5 7.99999999999999
vertex 1.5 2.5 14.0
vertex -1.5 2.5 14.0
endloop
endfacet
facet normal 1.0 0.0 0.0
outer loop
vertex -1.5 2.5 7.99999999999999
vertex -1.5 -2.5 14.0
vertex -1.5 -2.5 7.99999999999999
endloop
endfacet
facet normal 1.0 0.0 0.0
outer loop
vertex -1.5 -2.5 14.0
vertex -1.5 2.5 7.99999999999999
vertex -1.5 2.5 14.0
endloop
endfacet
facet normal -0.0 1.0 -0.0
outer loop
vertex -1.5 -2.5 14.0
vertex 1.5 -2.5 7.99999999999999
vertex -1.5 -2.5 7.99999999999999
endloop
endfacet
facet normal -0.0 1.0 -0.0
outer loop
vertex 1.5 -2.5 7.99999999999999
vertex -1.5 -2.5 14.0
vertex 1.5 -2.5 14.0
endloop
endfacet
facet normal 0.707106781186549 -0.707106781186547 0.0
outer loop
vertex 2.82842712474619 -2.82842712474619 14.0
vertex 2.35114100916989 -3.23606797749979 12.0
vertex 2.82842712474619 -2.82842712474619 12.0
endloop
endfacet
facet normal 0.587785252292474 -0.809016994374947 0.0
outer loop
vertex 2.35114100916989 -3.23606797749979 12.0
vertex 2.82842712474619 -2.82842712474619 14.0
vertex 2.35114100916989 -3.23606797749979 14.0
endloop
endfacet
facet normal 0.587785252292474 -0.809016994374947 0.0
outer loop
vertex 2.35114100916989 -3.23606797749979 14.0
vertex 1.81596199895819 -3.56402609675347 12.0
vertex 2.35114100916989 -3.23606797749979 12.0
endloop
endfacet
facet normal 0.453990499739547 -0.891006524188368 0.0
outer loop
vertex 1.81596199895819 -3.56402609675347 12.0
vertex 2.35114100916989 -3.23606797749979 14.0
vertex 1.81596199895819 -3.56402609675347 14.0
endloop
endfacet
facet normal 0.453990499739547 -0.891006524188368 0.0
outer loop
vertex 1.81596199895819 -3.56402609675347 14.0
vertex 1.23606797749979 -3.80422606518061 12.0
vertex 1.81596199895819 -3.56402609675347 12.0
endloop
endfacet
facet normal 0.309016994374948 -0.951056516295154 0.0
outer loop
vertex 1.23606797749979 -3.80422606518061 12.0
vertex 1.81596199895819 -3.56402609675347 14.0
vertex 1.23606797749979 -3.80422606518061 14.0
endloop
endfacet
facet normal 0.309016994374948 -0.951056516295154 0.0
outer loop
vertex 1.23606797749979 -3.80422606518061 14.0
vertex 0.625737860160925 -3.95075336238055 12.0
vertex 1.23606797749979 -3.80422606518061 12.0
endloop
endfacet
facet normal 0.156434465040231 -0.987688340595138 0.0
outer loop
vertex 0.625737860160925 -3.95075336238055 12.0
vertex 1.23606797749979 -3.80422606518061 14.0
vertex 0.625737860160925 -3.95075336238055 14.0
endloop
endfacet
facet normal 0.156434465040231 -0.987688340595138 0.0
outer loop
vertex 0.625737860160925 -3.95075336238055 14.0
vertex 1.76247905159244e-015 -4.0 12.0
vertex 0.625737860160925 -3.95075336238055 12.0
endloop
endfacet
facet normal -0.0262248796147638 -0.999656068700226 0.0
outer loop
vertex 1.76247905159244e-015 -4.0 12.0
vertex 0.625737860160925 -3.95075336238055 14.0
vertex 1.76247905159244e-015 -4.0 14.0
endloop
endfacet
facet normal -0.0262248796147638 -0.999656068700226 0.0
outer loop
vertex 1.76247905159244e-015 -4.0 12.0
vertex -0.625737860160922 -3.95075336238055 7.99999999999999
vertex 1.76247905159244e-015 -4.0 7.99999999999999
endloop
endfacet
facet normal -0.15643446504023 -0.987688340595138 0.0
outer loop
vertex -0.625737860160922 -3.95075336238055 7.99999999999999
vertex 1.76247905159244e-015 -4.0 12.0
vertex -0.625737860160922 -3.95075336238055 14.0
endloop
endfacet
facet normal -0.15643446504023 -0.987688340595138 0.0
outer loop
vertex -0.625737860160922 -3.95075336238055 14.0
vertex 1.76247905159244e-015 -4.0 12.0
vertex 1.76247905159244e-015 -4.0 14.0
endloop
endfacet
facet normal -0.15643446504023 -0.987688340595138 0.0
outer loop
vertex -0.625737860160922 -3.95075336238055 14.0
vertex -1.23606797749979 -3.80422606518061 7.99999999999999
vertex -0.625737860160922 -3.95075336238055 7.99999999999999
endloop
endfacet
facet normal -0.309016994374948 -0.951056516295154 0.0
outer loop
vertex -1.23606797749979 -3.80422606518061 7.99999999999999
vertex -0.625737860160922 -3.95075336238055 14.0
vertex -1.23606797749979 -3.80422606518061 14.0
endloop
endfacet
facet normal -0.309016994374948 -0.951056516295154 0.0
outer loop
vertex -1.23606797749979 -3.80422606518061 14.0
vertex -1.81596199895819 -3.56402609675347 7.99999999999999
vertex -1.23606797749979 -3.80422606518061 7.99999999999999
endloop
endfacet
facet normal -0.453990499739546 -0.891006524188368 0.0
outer loop
vertex -1.81596199895819 -3.56402609675347 7.99999999999999
vertex -1.23606797749979 -3.80422606518061 14.0
vertex -1.81596199895819 -3.56402609675347 14.0
endloop
endfacet
facet normal -0.453990499739546 -0.891006524188368 0.0
outer loop
vertex -1.81596199895819 -3.56402609675347 14.0
vertex -2.35114100916989 -3.23606797749979 7.99999999999999
vertex -1.81596199895819 -3.56402609675347 7.99999999999999
endloop
endfacet
facet normal -0.587785252292473 -0.809016994374948 0.0
outer loop
vertex -2.35114100916989 -3.23606797749979 7.99999999999999
vertex -1.81596199895819 -3.56402609675347 14.0
vertex -2.35114100916989 -3.23606797749979 14.0
endloop
endfacet
facet normal -0.587785252292473 -0.809016994374948 0.0
outer loop
vertex -2.35114100916989 -3.23606797749979 14.0
vertex -2.82842712474619 -2.82842712474619 7.99999999999999
vertex -2.35114100916989 -3.23606797749979 7.99999999999999
endloop
endfacet
facet normal -0.707106781186547 -0.707106781186548 0.0
outer loop
vertex -2.82842712474619 -2.82842712474619 7.99999999999999
vertex -2.35114100916989 -3.23606797749979 14.0
vertex -2.82842712474619 -2.82842712474619 14.0
endloop
endfacet
facet normal -0.809016994374947 -0.587785252292473 0.0
outer loop
vertex -3.23606797749979 -2.35114100916989 14.0
vertex -2.82842712474619 -2.82842712474619 7.99999999999999
vertex -2.82842712474619 -2.82842712474619 14.0
endloop
endfacet
facet normal -0.707106781186547 -0.707106781186548 0.0
outer loop
vertex -2.82842712474619 -2.82842712474619 7.99999999999999
vertex -3.23606797749979 -2.35114100916989 14.0
vertex -3.23606797749979 -2.35114100916989 7.99999999999999
endloop
endfacet
facet normal -0.891006524188368 -0.453990499739547 0.0
outer loop
vertex -3.56402609675347 -1.81596199895819 14.0
vertex -3.23606797749979 -2.35114100916989 7.99999999999999
vertex -3.23606797749979 -2.35114100916989 14.0
endloop
endfacet
facet normal -0.809016994374947 -0.587785252292473 0.0
outer loop
vertex -3.23606797749979 -2.35114100916989 7.99999999999999
vertex -3.56402609675347 -1.81596199895819 14.0
vertex -3.56402609675347 -1.81596199895819 7.99999999999999
endloop
endfacet
facet normal -0.951056516295153 -0.309016994374948 0.0
outer loop
vertex -3.80422606518061 -1.23606797749979 14.0
vertex -3.56402609675347 -1.81596199895819 7.99999999999999
vertex -3.56402609675347 -1.81596199895819 14.0
endloop
endfacet
facet normal -0.891006524188368 -0.453990499739547 0.0
outer loop
vertex -3.56402609675347 -1.81596199895819 7.99999999999999
vertex -3.80422606518061 -1.23606797749979 14.0
vertex -3.80422606518061 -1.23606797749979 7.99999999999999
endloop
endfacet
facet normal -0.987688340595138 -0.156434465040231 0.0
outer loop
vertex -3.95075336238055 -0.625737860160924 14.0
vertex -3.80422606518061 -1.23606797749979 7.99999999999999
vertex -3.80422606518061 -1.23606797749979 14.0
endloop
endfacet
facet normal -0.951056516295153 -0.309016994374948 0.0
outer loop
vertex -3.80422606518061 -1.23606797749979 7.99999999999999
vertex -3.95075336238055 -0.625737860160924 14.0
vertex -3.95075336238055 -0.625737860160924 7.99999999999999
endloop
endfacet
facet normal -1.0 2.6586579898534e-017 0.0
outer loop
vertex -4.0 -1.05748743095546e-015 14.0
vertex -3.95075336238055 -0.625737860160924 7.99999999999999
vertex -3.95075336238055 -0.625737860160924 14.0
endloop
endfacet
facet normal -0.987688340595138 -0.156434465040231 0.0
outer loop
vertex -3.95075336238055 -0.625737860160924 7.99999999999999
vertex -4.0 -1.05748743095546e-015 14.0
vertex -4.0 -1.05748743095546e-015 7.99999999999999
endloop
endfacet
facet normal -0.987688340595138 0.15643446504023 0.0
outer loop
vertex -3.95075336238055 0.625737860160922 14.0
vertex -4.0 -1.05748743095546e-015 7.99999999999999
vertex -4.0 -1.05748743095546e-015 14.0
endloop
endfacet
facet normal -1.0 2.6586579898534e-017 0.0
outer loop
vertex -4.0 -1.05748743095546e-015 7.99999999999999
vertex -3.95075336238055 0.625737860160922 14.0
vertex -3.95075336238055 0.625737860160922 7.99999999999999
endloop
endfacet
facet normal -0.951056516295154 0.309016994374947 0.0
outer loop
vertex -3.80422606518062 1.23606797749979 14.0
vertex -3.95075336238055 0.625737860160922 7.99999999999999
vertex -3.95075336238055 0.625737860160922 14.0
endloop
endfacet
facet normal -0.987688340595138 0.15643446504023 0.0
outer loop
vertex -3.95075336238055 0.625737860160922 7.99999999999999
vertex -3.80422606518062 1.23606797749979 14.0
vertex -3.80422606518062 1.23606797749979 7.99999999999999
endloop
endfacet
facet normal -0.891006524188368 0.453990499739546 0.0
outer loop
vertex -3.56402609675347 1.81596199895819 14.0
vertex -3.80422606518062 1.23606797749979 7.99999999999999
vertex -3.80422606518062 1.23606797749979 14.0
endloop
endfacet
facet normal -0.951056516295154 0.309016994374947 0.0
outer loop
vertex -3.80422606518062 1.23606797749979 7.99999999999999
vertex -3.56402609675347 1.81596199895819 14.0
vertex -3.56402609675347 1.81596199895819 7.99999999999999
endloop
endfacet
facet normal -0.809016994374948 0.587785252292472 0.0
outer loop
vertex -3.23606797749979 2.35114100916989 14.0
vertex -3.56402609675347 1.81596199895819 7.99999999999999
vertex -3.56402609675347 1.81596199895819 14.0
endloop
endfacet
facet normal -0.891006524188368 0.453990499739546 0.0
outer loop
vertex -3.56402609675347 1.81596199895819 7.99999999999999
vertex -3.23606797749979 2.35114100916989 14.0
vertex -3.23606797749979 2.35114100916989 7.99999999999999
endloop
endfacet
facet normal -0.707106781186548 0.707106781186547 0.0
outer loop
vertex -2.82842712474619 2.82842712474619 14.0
vertex -3.23606797749979 2.35114100916989 7.99999999999999
vertex -3.23606797749979 2.35114100916989 14.0
endloop
endfacet
facet normal -0.809016994374948 0.587785252292472 0.0
outer loop
vertex -3.23606797749979 2.35114100916989 7.99999999999999
vertex -2.82842712474619 2.82842712474619 14.0
vertex -2.82842712474619 2.82842712474619 7.99999999999999
endloop
endfacet
facet normal -0.707106781186548 0.707106781186547 0.0
outer loop
vertex -2.82842712474619 2.82842712474619 14.0
vertex -2.35114100916989 3.23606797749979 7.99999999999999
vertex -2.82842712474619 2.82842712474619 7.99999999999999
endloop
endfacet
facet normal -0.587785252292474 0.809016994374947 0.0
outer loop
vertex -2.35114100916989 3.23606797749979 7.99999999999999
vertex -2.82842712474619 2.82842712474619 14.0
vertex -2.35114100916989 3.23606797749979 14.0
endloop
endfacet
facet normal -0.587785252292474 0.809016994374947 0.0
outer loop
vertex -2.35114100916989 3.23606797749979 14.0
vertex -1.81596199895819 3.56402609675347 7.99999999999999
vertex -2.35114100916989 3.23606797749979 7.99999999999999
endloop
endfacet
facet normal -0.453990499739547 0.891006524188368 0.0
outer loop
vertex -1.81596199895819 3.56402609675347 7.99999999999999
vertex -2.35114100916989 3.23606797749979 14.0
vertex -1.81596199895819 3.56402609675347 14.0
endloop
endfacet
facet normal -0.453990499739547 0.891006524188368 0.0
outer loop
vertex -1.81596199895819 3.56402609675347 14.0
vertex -1.23606797749979 3.80422606518061 7.99999999999999
vertex -1.81596199895819 3.56402609675347 7.99999999999999
endloop
endfacet
facet normal -0.309016994374948 0.951056516295153 0.0
outer loop
vertex -1.23606797749979 3.80422606518061 7.99999999999999
vertex -1.81596199895819 3.56402609675347 14.0
vertex -1.23606797749979 3.80422606518061 14.0
endloop
endfacet
facet normal -0.309016994374948 0.951056516295153 0.0
outer loop
vertex -1.23606797749979 3.80422606518061 14.0
vertex -0.625737860160926 3.95075336238055 7.99999999999999
vertex -1.23606797749979 3.80422606518061 7.99999999999999
endloop
endfacet
facet normal -0.156434465040232 0.987688340595138 0.0
outer loop
vertex -0.625737860160926 3.95075336238055 7.99999999999999
vertex -1.23606797749979 3.80422606518061 14.0
vertex -0.625737860160926 3.95075336238055 14.0
endloop
endfacet
facet normal -0.156434465040232 0.987688340595138 0.0
outer loop
vertex -0.625737860160926 3.95075336238055 14.0
vertex -2.46747067222941e-015 4.0 7.99999999999999
vertex -0.625737860160926 3.95075336238055 7.99999999999999
endloop
endfacet
facet normal -0.0784590957278451 0.996917333733128 -0.0
outer loop
vertex -2.46747067222941e-015 4.0 7.99999999999999
vertex -0.625737860160926 3.95075336238055 14.0
vertex -2.46747067222941e-015 4.0 12.0
endloop
endfacet
facet normal -0.0262248796147653 0.999656068700226 0.0
outer loop
vertex -2.46747067222941e-015 4.0 12.0
vertex -0.625737860160926 3.95075336238055 14.0
vertex -2.46747067222941e-015 4.0 14.0
endloop
endfacet
facet normal 0.0 1.0 0.0
outer loop
vertex -2.46747067222941e-015 4.0 14.0
vertex 0.625737860160921 3.95075336238055 12.0
vertex -2.46747067222941e-015 4.0 12.0
endloop
endfacet
facet normal 0.156434465040231 0.987688340595138 0.0
outer loop
vertex 0.625737860160921 3.95075336238055 12.0
vertex -2.46747067222941e-015 4.0 14.0
vertex 0.625737860160921 3.95075336238055 14.0
endloop
endfacet
facet normal 0.156434465040231 0.987688340595138 0.0
outer loop
vertex 0.625737860160921 3.95075336238055 14.0
vertex 1.23606797749979 3.80422606518062 12.0
vertex 0.625737860160921 3.95075336238055 12.0
endloop
endfacet
facet normal 0.309016994374947 0.951056516295154 0.0
outer loop
vertex 1.23606797749979 3.80422606518062 12.0
vertex 0.625737860160921 3.95075336238055 14.0
vertex 1.23606797749979 3.80422606518062 14.0
endloop
endfacet
facet normal 0.309016994374947 0.951056516295154 0.0
outer loop
vertex 1.23606797749979 3.80422606518062 14.0
vertex 1.81596199895819 3.56402609675347 12.0
vertex 1.23606797749979 3.80422606518062 12.0
endloop
endfacet
facet normal 0.453990499739546 0.891006524188368 0.0
outer loop
vertex 1.81596199895819 3.56402609675347 12.0
vertex 1.23606797749979 3.80422606518062 14.0
vertex 1.81596199895819 3.56402609675347 14.0
endloop
endfacet
facet normal 0.453990499739546 0.891006524188368 0.0
outer loop
vertex 1.81596199895819 3.56402609675347 14.0
vertex 2.35114100916989 3.23606797749979 12.0
vertex 1.81596199895819 3.56402609675347 12.0
endloop
endfacet
facet normal 0.587785252292472 0.809016994374948 0.0
outer loop
vertex 2.35114100916989 3.23606797749979 12.0
vertex 1.81596199895819 3.56402609675347 14.0
vertex 2.35114100916989 3.23606797749979 14.0
endloop
endfacet
facet normal 0.587785252292472 0.809016994374948 0.0
outer loop
vertex 2.35114100916989 3.23606797749979 14.0
vertex 2.82842712474619 2.82842712474619 12.0
vertex 2.35114100916989 3.23606797749979 12.0
endloop
endfacet
facet normal 0.707106781186547 0.707106781186548 0.0
outer loop
vertex 2.82842712474619 2.82842712474619 12.0
vertex 2.35114100916989 3.23606797749979 14.0
vertex 2.82842712474619 2.82842712474619 14.0
endloop
endfacet
facet normal 0.707106781186547 0.707106781186548 0.0
outer loop
vertex 2.82842712474619 2.82842712474619 12.0
vertex 3.23606797749979 2.3511410091699 14.0
vertex 3.23606797749979 2.3511410091699 12.0
endloop
endfacet
facet normal 0.809016994374947 0.587785252292474 0.0
outer loop
vertex 3.23606797749979 2.3511410091699 14.0
vertex 2.82842712474619 2.82842712474619 12.0
vertex 2.82842712474619 2.82842712474619 14.0
endloop
endfacet
facet normal 0.809016994374947 0.587785252292474 0.0
outer loop
vertex 3.23606797749979 2.3511410091699 12.0
vertex 3.56402609675347 1.81596199895819 14.0
vertex 3.56402609675347 1.81596199895819 12.0
endloop
endfacet
facet normal 0.891006524188368 0.453990499739547 0.0
outer loop
vertex 3.56402609675347 1.81596199895819 14.0
vertex 3.23606797749979 2.3511410091699 12.0
vertex 3.23606797749979 2.3511410091699 14.0
endloop
endfacet
facet normal 0.891006524188368 0.453990499739547 0.0
outer loop
vertex 3.56402609675347 1.81596199895819 12.0
vertex 3.80422606518061 1.23606797749979 14.0
vertex 3.80422606518061 1.23606797749979 12.0
endloop
endfacet
facet normal 0.951056516295153 0.309016994374948 0.0
outer loop
vertex 3.80422606518061 1.23606797749979 14.0
vertex 3.56402609675347 1.81596199895819 12.0
vertex 3.56402609675347 1.81596199895819 14.0
endloop
endfacet
facet normal 0.951056516295153 0.309016994374948 0.0
outer loop
vertex 3.80422606518061 1.23606797749979 12.0
vertex 3.95075336238055 0.625737860160927 14.0
vertex 3.95075336238055 0.625737860160927 12.0
endloop
endfacet
facet normal 0.987688340595138 0.156434465040232 0.0
outer loop
vertex 3.95075336238055 0.625737860160927 14.0
vertex 3.80422606518061 1.23606797749979 12.0
vertex 3.80422606518061 1.23606797749979 14.0
endloop
endfacet
facet normal 0.987688340595138 0.156434465040232 0.0
outer loop
vertex 3.95075336238055 0.625737860160927 12.0
vertex 4.0 3.87745391350336e-015 14.0
vertex 4.0 3.87745391350336e-015 12.0
endloop
endfacet
facet normal 1.0 1.13879183898721e-015 0.0
outer loop
vertex 4.0 3.87745391350336e-015 14.0
vertex 3.95075336238055 0.625737860160927 12.0
vertex 3.95075336238055 0.625737860160927 14.0
endloop
endfacet
facet normal 1.0 1.13879183898721e-015 0.0
outer loop
vertex 4.0 3.87745391350336e-015 12.0
vertex 3.95075336238055 -0.62573786016092 14.0
vertex 3.95075336238055 -0.62573786016092 12.0
endloop
endfacet
facet normal 0.987688340595138 -0.156434465040231 0.0
outer loop
vertex 3.95075336238055 -0.62573786016092 14.0
vertex 4.0 3.87745391350336e-015 12.0
vertex 4.0 3.87745391350336e-015 14.0
endloop
endfacet
facet normal 0.987688340595138 -0.156434465040231 0.0
outer loop
vertex 3.95075336238055 -0.62573786016092 12.0
vertex 3.80422606518061 -1.23606797749979 14.0
vertex 3.80422606518061 -1.23606797749979 12.0
endloop
endfacet
facet normal 0.951056516295154 -0.309016994374947 0.0
outer loop
vertex 3.80422606518061 -1.23606797749979 14.0
vertex 3.95075336238055 -0.62573786016092 12.0
vertex 3.95075336238055 -0.62573786016092 14.0
endloop
endfacet
facet normal 0.951056516295154 -0.309016994374947 0.0
outer loop
vertex 3.80422606518061 -1.23606797749979 12.0
vertex 3.56402609675347 -1.81596199895818 14.0
vertex 3.56402609675347 -1.81596199895818 12.0
endloop
endfacet
facet normal 0.891006524188368 -0.453990499739546 0.0
outer loop
vertex 3.56402609675347 -1.81596199895818 14.0
vertex 3.80422606518061 -1.23606797749979 12.0
vertex 3.80422606518061 -1.23606797749979 14.0
endloop
endfacet
facet normal 0.891006524188368 -0.453990499739546 0.0
outer loop
vertex 3.56402609675347 -1.81596199895818 12.0
vertex 3.23606797749979 -2.35114100916989 14.0
vertex 3.23606797749979 -2.35114100916989 12.0
endloop
endfacet
facet normal 0.809016994374948 -0.587785252292473 0.0
outer loop
vertex 3.23606797749979 -2.35114100916989 14.0
vertex 3.56402609675347 -1.81596199895818 12.0
vertex 3.56402609675347 -1.81596199895818 14.0
endloop
endfacet
facet normal 0.809016994374948 -0.587785252292473 0.0
outer loop
vertex 3.23606797749979 -2.35114100916989 12.0
vertex 2.82842712474619 -2.82842712474619 14.0
vertex 2.82842712474619 -2.82842712474619 12.0
endloop
endfacet
facet normal 0.707106781186549 -0.707106781186547 0.0
outer loop
vertex 2.82842712474619 -2.82842712474619 14.0
vertex 3.23606797749979 -2.35114100916989 12.0
vertex 3.23606797749979 -2.35114100916989 14.0
endloop
endfacet
facet normal 1.0 -3.11888846347642e-016 6.76277117521472e-018
outer loop
vertex 9.4 5.87390317002199e-015 7.99999999999999
vertex 9.42044450422656 -0.155291427061506 12.0
vertex 9.42044450422656 -0.155291427061507 7.99999999999999
endloop
endfacet
facet normal 0.965925826289068 0.258819045102522 4.7894091574246e-017
outer loop
vertex 9.42044450422656 -0.155291427061506 12.0
vertex 9.4 5.87390317002199e-015 7.99999999999999
vertex 9.4 7.35312841546986e-015 12.0
endloop
endfacet
facet normal 0.965925826289068 -0.258819045102522 -1.22775636410482e-017
outer loop
vertex 9.42044450422656 0.155291427061518 7.99999999999999
vertex 9.4 7.35312841546986e-015 12.0
vertex 9.4 5.87390317002199e-015 7.99999999999999
endloop
endfacet
facet normal 1.0 -3.65355505721523e-016 6.76277117521474e-018
outer loop
vertex 9.4 7.35312841546986e-015 12.0
vertex 9.42044450422656 0.155291427061518 7.99999999999999
vertex 9.42044450422656 0.15529142706152 12.0
endloop
endfacet
facet normal 0.866025403784438 -0.500000000000001 -1.19254930774212e-016
outer loop
vertex 9.48038475772934 0.300000000000006 7.99999999999999
vertex 9.42044450422656 0.15529142706152 12.0
vertex 9.42044450422656 0.155291427061518 7.99999999999999
endloop
endfacet
facet normal 0.965925826289068 -0.258819045102522 -1.22775636410482e-017
outer loop
vertex 9.42044450422656 0.15529142706152 12.0
vertex 9.48038475772934 0.300000000000006 7.99999999999999
vertex 9.48038475772934 0.300000000000007 12.0
endloop
endfacet
facet normal 0.707106781186547 -0.707106781186548 -9.09252333304206e-017
outer loop
vertex 9.57573593128807 0.424264068711935 7.99999999999999
vertex 9.48038475772934 0.300000000000007 12.0
vertex 9.48038475772934 0.300000000000006 7.99999999999999
endloop
endfacet
facet normal 0.866025403784438 -0.500000000000001 -1.19254930774212e-016
outer loop
vertex 9.48038475772934 0.300000000000007 12.0
vertex 9.57573593128807 0.424264068711935 7.99999999999999
vertex 9.57573593128807 0.424264068711935 12.0
endloop
endfacet
facet normal 0.499999999999999 -0.866025403784439 1.96425754339229e-017
outer loop
vertex 9.7 0.51961524227067 12.0
vertex 9.57573593128807 0.424264068711935 7.99999999999999
vertex 9.7 0.519615242270669 7.99999999999999
endloop
endfacet
facet normal 0.707106781186547 -0.707106781186548 -9.09252333304206e-017
outer loop
vertex 9.57573593128807 0.424264068711935 7.99999999999999
vertex 9.7 0.51961524227067 12.0
vertex 9.57573593128807 0.424264068711935 12.0
endloop
endfacet
facet normal 0.258819045102521 -0.965925826289068 3.09262491518268e-017
outer loop
vertex 9.84470857293849 0.579555495773447 12.0
vertex 9.7 0.519615242270669 7.99999999999999
vertex 9.84470857293849 0.579555495773447 7.99999999999999
endloop
endfacet
facet normal 0.499999999999999 -0.866025403784439 1.96425754339228e-017
outer loop
vertex 9.7 0.519615242270669 7.99999999999999
vertex 9.84470857293849 0.579555495773447 12.0
vertex 9.7 0.51961524227067 12.0
endloop
endfacet
facet normal -1.42577758330351e-016 -1.0 5.46471776250586e-018
outer loop
vertex 10.0 0.600000000000006 12.0
vertex 9.84470857293849 0.579555495773447 7.99999999999999
vertex 10.0 0.600000000000006 7.99999999999999
endloop
endfacet
facet normal 0.258819045102521 -0.965925826289068 3.09262491518268e-017
outer loop
vertex 9.84470857293849 0.579555495773447 7.99999999999999
vertex 10.0 0.600000000000006 12.0
vertex 9.84470857293849 0.579555495773447 12.0
endloop
endfacet
facet normal -0.258819045102521 -0.965925826289068 5.09980145290082e-018
outer loop
vertex 10.1552914270615 0.579555495773447 12.0
vertex 10.0 0.600000000000006 7.99999999999999
vertex 10.1552914270615 0.579555495773447 7.99999999999999
endloop
endfacet
facet normal -1.42577758330351e-016 -1.0 5.46471776250586e-018
outer loop
vertex 10.0 0.600000000000006 7.99999999999999
vertex 10.1552914270615 0.579555495773447 12.0
vertex 10.0 0.600000000000006 12.0
endloop
endfacet
facet normal -0.499999999999999 -0.866025403784439 -3.58037994987941e-017
outer loop
vertex 10.3 0.519615242270669 12.0
vertex 10.1552914270615 0.579555495773447 7.99999999999999
vertex 10.3 0.519615242270669 7.99999999999999
endloop
endfacet
facet normal -0.258819045102521 -0.965925826289068 5.09980145290084e-018
outer loop
vertex 10.1552914270615 0.579555495773447 7.99999999999999
vertex 10.3 0.519615242270669 12.0
vertex 10.1552914270615 0.579555495773447 12.0
endloop
endfacet
facet normal -0.707106781186547 -0.707106781186548 -1.6157728197436e-016
outer loop
vertex 10.4242640687119 0.424264068711935 12.0
vertex 10.3 0.519615242270669 7.99999999999999
vertex 10.4242640687119 0.424264068711935 7.99999999999999
endloop
endfacet
facet normal -0.5 -0.866025403784439 -3.58037994987943e-017
outer loop
vertex 10.3 0.519615242270669 7.99999999999999
vertex 10.4242640687119 0.424264068711935 12.0
vertex 10.3 0.519615242270669 12.0
endloop
endfacet
facet normal -0.866025403784438 -0.500000000000001 -1.90258613465878e-016
outer loop
vertex 10.5196152422707 0.300000000000006 12.0
vertex 10.4242640687119 0.424264068711935 7.99999999999999
vertex 10.5196152422707 0.300000000000006 7.99999999999999
endloop
endfacet
facet normal -0.707106781186547 -0.707106781186549 -1.6157728197436e-016
outer loop
vertex 10.4242640687119 0.424264068711935 7.99999999999999
vertex 10.5196152422707 0.300000000000006 12.0
vertex 10.4242640687119 0.424264068711935 12.0
endloop
endfacet
facet normal -0.965925826289068 -0.258819045102522 -5.7282444454258e-017
outer loop
vertex 10.5795554957734 0.155291427061519 12.0
vertex 10.5196152422707 0.300000000000006 7.99999999999999
vertex 10.5795554957734 0.155291427061519 7.99999999999999
endloop
endfacet
facet normal -0.866025403784438 -0.500000000000001 -1.90258613465877e-016
outer loop
vertex 10.5196152422707 0.300000000000006 7.99999999999999
vertex 10.5795554957734 0.155291427061519 12.0
vertex 10.5196152422707 0.300000000000006 12.0
endloop
endfacet
facet normal -1.0 2.76244406765054e-016 -6.7627711752147e-018
outer loop
vertex 10.6 6.30604380929086e-015 12.0
vertex 10.5795554957734 0.155291427061519 7.99999999999999
vertex 10.6 4.97377617974067e-015 7.99999999999999
endloop
endfacet
facet normal -0.965925826289068 -0.258819045102522 -5.7282444454258e-017
outer loop
vertex 10.5795554957734 0.155291427061519 7.99999999999999
vertex 10.6 6.30604380929086e-015 12.0
vertex 10.5795554957734 0.155291427061519 12.0
endloop
endfacet
facet normal -0.965925826289068 0.258819045102522 2.1156685893274e-017
outer loop
vertex 10.5795554957734 -0.155291427061506 12.0
vertex 10.6 4.97377617974067e-015 7.99999999999999
vertex 10.5795554957734 -0.155291427061507 7.99999999999999
endloop
endfacet
facet normal -1.0 3.29711066138935e-016 -6.76277117521472e-018
outer loop
vertex 10.6 4.97377617974067e-015 7.99999999999999
vertex 10.5795554957734 -0.155291427061506 12.0
vertex 10.6 6.30604380929086e-015 12.0
endloop
endfacet
facet normal -0.866025403784438 0.500000000000001 1.35394468747836e-016
outer loop
vertex 10.5196152422707 -0.299999999999994 12.0
vertex 10.5795554957734 -0.155291427061507 7.99999999999999
vertex 10.5196152422707 -0.299999999999995 7.99999999999999
endloop
endfacet
facet normal -0.965925826289068 0.258819045102522 2.1156685893274e-017
outer loop
vertex 10.5795554957734 -0.155291427061507 7.99999999999999
vertex 10.5196152422707 -0.299999999999994 12.0
vertex 10.5795554957734 -0.155291427061506 12.0
endloop
endfacet
facet normal -0.707106781186547 0.707106781186549 1.18482929789071e-016
outer loop
vertex 10.4242640687119 -0.424264068711922 12.0
vertex 10.5196152422707 -0.299999999999995 7.99999999999999
vertex 10.4242640687119 -0.424264068711923 7.99999999999999
endloop
endfacet
facet normal -0.866025403784438 0.500000000000001 1.35394468747836e-016
outer loop
vertex 10.5196152422707 -0.299999999999995 7.99999999999999
vertex 10.4242640687119 -0.424264068711922 12.0
vertex 10.5196152422707 -0.299999999999994 12.0
endloop
endfacet
facet normal -0.499999999999999 0.866025403784439 1.82180998208142e-017
outer loop
vertex 10.3 -0.519615242270657 12.0
vertex 10.4242640687119 -0.424264068711923 7.99999999999999
vertex 10.3 -0.519615242270657 7.99999999999999
endloop
endfacet
facet normal -0.707106781186547 0.707106781186549 1.18482929789071e-016
outer loop
vertex 10.4242640687119 -0.424264068711923 7.99999999999999
vertex 10.3 -0.519615242270657 12.0
vertex 10.4242640687119 -0.424264068711922 12.0
endloop
endfacet
facet normal -0.25881904510252 0.965925826289068 4.15272641461388e-019
outer loop
vertex 10.1552914270615 -0.579555495773435 12.0
vertex 10.3 -0.519615242270657 7.99999999999999
vertex 10.1552914270615 -0.579555495773435 7.99999999999999
endloop
endfacet
facet normal -0.499999999999999 0.866025403784439 1.82180998208142e-017
outer loop
vertex 10.3 -0.519615242270657 7.99999999999999
vertex 10.1552914270615 -0.579555495773435 12.0
vertex 10.3 -0.519615242270657 12.0
endloop
endfacet
facet normal -2.49511077078113e-016 1.0 -5.4218566056861e-018
outer loop
vertex 10.0 -0.599999999999994 7.99999999999999
vertex 10.1552914270615 -0.579555495773435 12.0
vertex 10.1552914270615 -0.579555495773435 7.99999999999999
endloop
endfacet
facet normal -0.25881904510252 0.965925826289068 4.15272641461388e-019
outer loop
vertex 10.1552914270615 -0.579555495773435 12.0
vertex 10.0 -0.599999999999994 7.99999999999999
vertex 10.0 -0.599999999999994 12.0
endloop
endfacet
facet normal 0.258819045102521 0.965925826289068 -3.66455822282258e-017
outer loop
vertex 9.84470857293849 -0.579555495773435 12.0
vertex 10.0 -0.599999999999994 7.99999999999999
vertex 9.84470857293849 -0.579555495773435 7.99999999999999
endloop
endfacet
facet normal -2.49511077078113e-016 1.0 -5.4218566056861e-018
outer loop
vertex 10.0 -0.599999999999994 7.99999999999999
vertex 9.84470857293849 -0.579555495773435 12.0
vertex 10.0 -0.599999999999994 12.0
endloop
endfacet
facet normal 0.499999999999999 0.866025403784439 -1.96845435095371e-018
outer loop
vertex 9.7 -0.519615242270657 12.0
vertex 9.84470857293849 -0.579555495773435 7.99999999999999
vertex 9.7 -0.519615242270657 7.99999999999999
endloop
endfacet
facet normal 0.258819045102521 0.965925826289068 -3.66455822282258e-017
outer loop
vertex 9.84470857293849 -0.579555495773435 7.99999999999999
vertex 9.7 -0.519615242270657 12.0
vertex 9.84470857293849 -0.579555495773435 12.0
endloop
endfacet
facet normal 0.707106781186547 0.707106781186548 1.34355127059555e-016
outer loop
vertex 9.57573593128807 -0.424264068711922 12.0
vertex 9.7 -0.519615242270657 7.99999999999999
vertex 9.57573593128807 -0.424264068711923 7.99999999999999
endloop
endfacet
facet normal 0.499999999999999 0.866025403784439 -1.96845435095371e-018
outer loop
vertex 9.7 -0.519615242270657 7.99999999999999
vertex 9.57573593128807 -0.424264068711922 12.0
vertex 9.7 -0.519615242270657 12.0
endloop
endfacet
facet normal 0.866025403784438 0.500000000000001 1.73609844864467e-016
outer loop
vertex 9.48038475772934 -0.299999999999994 7.99999999999999
vertex 9.57573593128807 -0.424264068711922 12.0
vertex 9.57573593128807 -0.424264068711923 7.99999999999999
endloop
endfacet
facet normal 0.707106781186547 0.707106781186548 1.34355127059555e-016
outer loop
vertex 9.57573593128807 -0.424264068711922 12.0
vertex 9.48038475772934 -0.299999999999994 7.99999999999999
vertex 9.48038475772934 -0.299999999999994 12.0
endloop
endfacet
facet normal 0.965925826289068 0.258819045102522 4.7894091574246e-017
outer loop
vertex 9.42044450422656 -0.155291427061507 7.99999999999999
vertex 9.48038475772934 -0.299999999999994 12.0
vertex 9.48038475772934 -0.299999999999994 7.99999999999999
endloop
endfacet
facet normal 0.866025403784438 0.500000000000001 1.73609844864467e-016
outer loop
vertex 9.48038475772934 -0.299999999999994 12.0
vertex 9.42044450422656 -0.155291427061507 7.99999999999999
vertex 9.42044450422656 -0.155291427061506 12.0
endloop
endfacet
facet normal 1.66675982477528e-016 -4.85885145034018e-018 1.0
outer loop
vertex 7.17127827952881 -4.0 12.0
vertex 0.625737860160925 -3.95075336238055 12.0
vertex 1.76247905159244e-015 -4.0 12.0
endloop
endfacet
facet normal 1.66675982477528e-016 -4.85885145034018e-018 1.0
outer loop
vertex 0.625737860160925 -3.95075336238055 12.0
vertex 7.17127827952881 -4.0 12.0
vertex 1.23606797749979 -3.80422606518061 12.0
endloop
endfacet
facet normal 1.66675982477528e-016 -4.85885145034018e-018 1.0
outer loop
vertex 1.23606797749979 -3.80422606518061 12.0
vertex 7.17127827952881 -4.0 12.0
vertex 1.81596199895819 -3.56402609675347 12.0
endloop
endfacet
facet normal 1.66675982477528e-016 -4.85885145034018e-018 1.0
outer loop
vertex 1.81596199895819 -3.56402609675347 12.0
vertex 7.17127827952881 -4.0 12.0
vertex 2.35114100916989 -3.23606797749979 12.0
endloop
endfacet
facet normal 1.66675982477528e-016 -4.85885145034018e-018 1.0
outer loop
vertex 2.35114100916989 -3.23606797749979 12.0
vertex 7.17127827952881 -4.0 12.0
vertex 2.82842712474619 -2.82842712474619 12.0
endloop
endfacet
facet normal 1.66675982477528e-016 -4.85885145034018e-018 1.0
outer loop
vertex 2.82842712474619 -2.82842712474619 12.0
vertex 7.17127827952881 -4.0 12.0
vertex 3.23606797749979 -2.35114100916989 12.0
endloop
endfacet
facet normal 1.66675982477528e-016 -4.85885145034018e-018 1.0
outer loop
vertex 3.23606797749979 -2.35114100916989 12.0
vertex 7.17127827952881 -4.0 12.0
vertex 3.56402609675347 -1.81596199895818 12.0
endloop
endfacet
facet normal 1.66675982477528e-016 -4.85885145034018e-018 1.0
outer loop
vertex 3.56402609675347 -1.81596199895818 12.0
vertex 7.17127827952881 -4.0 12.0
vertex 3.80422606518061 -1.23606797749979 12.0
endloop
endfacet
facet normal 1.66675982477528e-016 -4.85885145034018e-018 1.0
outer loop
vertex 3.80422606518061 -1.23606797749979 12.0
vertex 7.17127827952881 -4.0 12.0
vertex 3.95075336238055 -0.62573786016092 12.0
endloop
endfacet
facet normal 1.66675982477528e-016 -4.85885145034018e-018 1.0
outer loop
vertex 3.95075336238055 -0.62573786016092 12.0
vertex 7.17127827952881 -4.0 12.0
vertex 4.0 3.87745391350336e-015 12.0
endloop
endfacet
facet normal 1.66675982477528e-016 -4.85885145034018e-018 1.0
outer loop
vertex 9.21345439710203 -3.62150502878699 12.0
vertex 9.42044450422656 -0.155291427061506 12.0
vertex 9.4 7.35312841546986e-015 12.0
endloop
endfacet
facet normal 1.66675982477528e-016 -4.85885145034018e-018 1.0
outer loop
vertex 9.42044450422656 -0.155291427061506 12.0
vertex 9.21345439710203 -3.62150502878699 12.0
vertex 10.0919101892269 -3.05102916709276 12.0
endloop
endfacet
facet normal 1.66675982477528e-016 -4.85885145034018e-018 1.0
outer loop
vertex 9.42044450422656 -0.155291427061506 12.0
vertex 10.0919101892269 -3.05102916709276 12.0
vertex 9.48038475772934 -0.299999999999994 12.0
endloop
endfacet
facet normal 1.66675982477528e-016 -4.85885145034018e-018 1.0
outer loop
vertex 9.48038475772934 -0.299999999999994 12.0
vertex 10.0919101892269 -3.05102916709276 12.0
vertex 9.57573593128807 -0.424264068711922 12.0
endloop
endfacet
facet normal 1.66675982477528e-016 -4.85885145034018e-018 1.0
outer loop
vertex 9.57573593128807 -0.424264068711922 12.0
vertex 10.0919101892269 -3.05102916709276 12.0
vertex 9.7 -0.519615242270657 12.0
endloop
endfacet
facet normal 1.66675982477528e-016 -4.85885145034018e-018 1.0
outer loop
vertex 9.7 -0.519615242270657 12.0
vertex 10.0919101892269 -3.05102916709276 12.0
vertex 9.84470857293849 -0.579555495773435 12.0
endloop
endfacet
facet normal 1.66675982477528e-016 -4.85885145034018e-018 1.0
outer loop
vertex 9.84470857293849 -0.579555495773435 12.0
vertex 10.0919101892269 -3.05102916709276 12.0
vertex 10.0 -0.599999999999994 12.0
endloop
endfacet
facet normal 1.66675982477528e-016 -4.85885145034018e-018 1.0
outer loop
vertex 10.0 -0.599999999999994 12.0
vertex 10.0919101892269 -3.05102916709276 12.0
vertex 10.1552914270615 -0.579555495773435 12.0
endloop
endfacet
facet normal 1.66675982477528e-016 -4.85885145034018e-018 1.0
outer loop
vertex 10.1552914270615 -0.579555495773435 12.0
vertex 10.0919101892269 -3.05102916709276 12.0
vertex 10.7927833083158 -2.27263070972525 12.0
endloop
endfacet
facet normal 1.66675982477528e-016 -4.85885145034018e-018 1.0
outer loop
vertex 10.1552914270615 -0.579555495773435 12.0
vertex 10.7927833083158 -2.27263070972525 12.0
vertex 10.3 -0.519615242270657 12.0
endloop
endfacet
facet normal 1.66675982477528e-016 -4.85885145034018e-018 1.0
outer loop
vertex 10.3 -0.519615242270657 12.0
vertex 10.7927833083158 -2.27263070972525 12.0
vertex 10.4242640687119 -0.424264068711922 12.0
endloop
endfacet
facet normal 1.66675982477528e-016 -4.85885145034018e-018 1.0
outer loop
vertex 10.4242640687119 -0.424264068711922 12.0
vertex 10.7927833083158 -2.27263070972525 12.0
vertex 10.5196152422707 -0.299999999999994 12.0
endloop
endfacet
facet normal 1.66675982477528e-016 -4.85885145034018e-018 1.0
outer loop
vertex 10.5196152422707 -0.299999999999994 12.0
vertex 10.7927833083158 -2.27263070972525 12.0
vertex 10.5795554957734 -0.155291427061506 12.0
endloop
endfacet
facet normal 1.66675982477528e-016 -4.85885145034018e-018 1.0
outer loop
vertex 10.5795554957734 -0.155291427061506 12.0
vertex 10.7927833083158 -2.27263070972525 12.0
vertex 10.6 6.30604380929086e-015 12.0
endloop
endfacet
facet normal 1.66675982477528e-016 -4.85885145034018e-018 1.0
outer loop
vertex 0.625737860160921 3.95075336238055 12.0
vertex 7.80089193412576 4.00000000000001 12.0
vertex -2.46747067222941e-015 4.0 12.0
endloop
endfacet
facet normal 1.66675982477528e-016 -4.85885145034018e-018 1.0
outer loop
vertex 7.80089193412576 4.00000000000001 12.0
vertex 0.625737860160921 3.95075336238055 12.0
vertex 1.23606797749979 3.80422606518062 12.0
endloop
endfacet
facet normal 1.66675982477528e-016 -4.85885145034018e-018 1.0
outer loop
vertex 7.80089193412576 4.00000000000001 12.0
vertex 1.23606797749979 3.80422606518062 12.0
vertex 1.81596199895819 3.56402609675347 12.0
endloop
endfacet
facet normal 1.66675982477528e-016 -4.85885145034018e-018 1.0
outer loop
vertex 7.80089193412576 4.00000000000001 12.0
vertex 1.81596199895819 3.56402609675347 12.0
vertex 2.35114100916989 3.23606797749979 12.0
endloop
endfacet
facet normal 1.66675982477528e-016 -4.85885145034018e-018 1.0
outer loop
vertex 7.80089193412576 4.00000000000001 12.0
vertex 2.35114100916989 3.23606797749979 12.0
vertex 2.82842712474619 2.82842712474619 12.0
endloop
endfacet
facet normal 1.66675982477528e-016 -4.85885145034018e-018 1.0
outer loop
vertex 7.80089193412576 4.00000000000001 12.0
vertex 2.82842712474619 2.82842712474619 12.0
vertex 3.23606797749979 2.3511410091699 12.0
endloop
endfacet
facet normal 1.66675982477528e-016 -4.85885145034018e-018 1.0
outer loop
vertex 7.80089193412576 4.00000000000001 12.0
vertex 3.23606797749979 2.3511410091699 12.0
vertex 3.56402609675347 1.81596199895819 12.0
endloop
endfacet
facet normal 1.66675982477528e-016 -4.85885145034018e-018 1.0
outer loop
vertex 7.80089193412576 4.00000000000001 12.0
vertex 3.56402609675347 1.81596199895819 12.0
vertex 3.80422606518061 1.23606797749979 12.0
endloop
endfacet
facet normal 1.66675982477528e-016 -4.85885145034018e-018 1.0
outer loop
vertex 7.80089193412576 4.00000000000001 12.0
vertex 3.80422606518061 1.23606797749979 12.0
vertex 3.95075336238055 0.625737860160927 12.0
endloop
endfacet
facet normal 1.66675982477528e-016 -4.85885145034018e-018 1.0
outer loop
vertex 7.80089193412576 4.00000000000001 12.0
vertex 3.95075336238055 0.625737860160927 12.0
vertex 4.0 3.87745391350336e-015 12.0
endloop
endfacet
facet normal 1.66675982477528e-016 -4.85885145034018e-018 1.0
outer loop
vertex 7.80089193412576 4.00000000000001 12.0
vertex 4.0 3.87745391350336e-015 12.0
vertex 7.17127827952881 -4.0 12.0
endloop
endfacet
facet normal 1.66675982477528e-016 -4.85885145034018e-018 1.0
outer loop
vertex 7.80089193412576 4.00000000000001 12.0
vertex 7.17127827952881 -4.0 12.0
vertex 8.21728124245765 -3.94518130758942 12.0
endloop
endfacet
facet normal 1.66675982477528e-016 -4.85885145034018e-018 1.0
outer loop
vertex 7.80089193412576 4.00000000000001 12.0
vertex 8.21728124245765 -3.94518130758942 12.0
vertex 8.82544133201709 3.78222530272314 12.0
endloop
endfacet
facet normal 1.66675982477528e-016 -4.85885145034018e-018 1.0
outer loop
vertex 8.82544133201709 3.78222530272314 12.0
vertex 8.21728124245765 -3.94518130758942 12.0
vertex 9.21345439710203 -3.62150502878699 12.0
endloop
endfacet
facet normal 1.66675982477528e-016 -4.85885145034018e-018 1.0
outer loop
vertex 8.82544133201709 3.78222530272314 12.0
vertex 9.21345439710203 -3.62150502878699 12.0
vertex 9.4 7.35312841546986e-015 12.0
endloop
endfacet
facet normal 1.66675982477528e-016 -4.85885145034018e-018 1.0
outer loop
vertex 8.82544133201709 3.78222530272314 12.0
vertex 9.4 7.35312841546986e-015 12.0
vertex 9.75871581655255 3.30669820148853 12.0
endloop
endfacet
facet normal 1.66675982477528e-016 -4.85885145034018e-018 1.0
outer loop
vertex 9.75871581655255 3.30669820148853 12.0
vertex 9.4 7.35312841546986e-015 12.0
vertex 9.42044450422656 0.15529142706152 12.0
endloop
endfacet
facet normal 1.66675982477528e-016 -4.85885145034018e-018 1.0
outer loop
vertex 9.75871581655255 3.30669820148853 12.0
vertex 9.42044450422656 0.15529142706152 12.0
vertex 9.48038475772934 0.300000000000007 12.0
endloop
endfacet
facet normal 1.66675982477528e-016 -4.85885145034018e-018 1.0
outer loop
vertex 9.75871581655255 3.30669820148853 12.0
vertex 9.48038475772934 0.300000000000007 12.0
vertex 9.57573593128807 0.424264068711935 12.0
endloop
endfacet
facet normal 1.66675982477528e-016 -4.85885145034018e-018 1.0
outer loop
vertex 9.75871581655255 3.30669820148853 12.0
vertex 9.57573593128807 0.424264068711935 12.0
vertex 9.7 0.51961524227067 12.0
endloop
endfacet
facet normal 1.66675982477528e-016 -4.85885145034018e-018 1.0
outer loop
vertex 9.75871581655255 3.30669820148853 12.0
vertex 9.7 0.51961524227067 12.0
vertex 9.84470857293849 0.579555495773447 12.0
endloop
endfacet
facet normal 1.66675982477528e-016 -4.85885145034018e-018 1.0
outer loop
vertex 9.75871581655255 3.30669820148853 12.0
vertex 9.84470857293849 0.579555495773447 12.0
vertex 10.5371142739201 2.60582508239963 12.0
endloop
endfacet
facet normal 1.66675982477528e-016 -4.85885145034018e-018 1.0
outer loop
vertex 10.5371142739201 2.60582508239963 12.0
vertex 9.84470857293849 0.579555495773447 12.0
vertex 10.0 0.600000000000006 12.0
endloop
endfacet
facet normal 1.66675982477528e-016 -4.85885145034018e-018 1.0
outer loop
vertex 10.5371142739201 2.60582508239963 12.0
vertex 10.0 0.600000000000006 12.0
vertex 10.1552914270615 0.579555495773447 12.0
endloop
endfacet
facet normal 1.66675982477528e-016 -4.85885145034018e-018 1.0
outer loop
vertex 10.5371142739201 2.60582508239963 12.0
vertex 10.1552914270615 0.579555495773447 12.0
vertex 10.3 0.519615242270669 12.0
endloop
endfacet
facet normal 1.66675982477528e-016 -4.85885145034018e-018 1.0
outer loop
vertex 10.5371142739201 2.60582508239963 12.0
vertex 10.3 0.519615242270669 12.0
vertex 10.4242640687119 0.424264068711935 12.0
endloop
endfacet
facet normal 1.66675982477528e-016 -4.85885145034018e-018 1.0
outer loop
vertex 10.5371142739201 2.60582508239963 12.0
vertex 10.4242640687119 0.424264068711935 12.0
vertex 10.5196152422707 0.300000000000006 12.0
endloop
endfacet
facet normal 1.66675982477528e-016 -4.85885145034018e-018 1.0
outer loop
vertex 10.5371142739201 2.60582508239963 12.0
vertex 10.5196152422707 0.300000000000006 12.0
vertex 10.5795554957734 0.155291427061519 12.0
endloop
endfacet
facet normal 1.66675982477528e-016 -4.85885145034018e-018 1.0
outer loop
vertex 10.5371142739201 2.60582508239963 12.0
vertex 10.5795554957734 0.155291427061519 12.0
vertex 11.1075901356143 1.72736929027475 12.0
endloop
endfacet
facet normal 1.66675982477528e-016 -4.85885145034018e-018 1.0
outer loop
vertex 11.1075901356143 1.72736929027475 12.0
vertex 10.5795554957734 0.155291427061519 12.0
vertex 10.6 6.30604380929086e-015 12.0
endloop
endfacet
facet normal 1.66675982477528e-016 -4.85885145034018e-018 1.0
outer loop
vertex 11.1075901356143 1.72736929027475 12.0
vertex 10.6 6.30604380929086e-015 12.0
vertex 10.7927833083158 -2.27263070972525 12.0
endloop
endfacet
facet normal 1.66675982477528e-016 -4.85885145034018e-018 1.0
outer loop
vertex 11.1075901356143 1.72736929027475 12.0
vertex 10.7927833083158 -2.27263070972525 12.0
vertex 11.2683104095504 -1.33935622518979 12.0
endloop
endfacet
facet normal 1.66675982477528e-016 -4.85885145034018e-018 1.0
outer loop
vertex 11.1075901356143 1.72736929027475 12.0
vertex 11.2683104095504 -1.33935622518979 12.0
vertex 11.4312664144167 0.731196135630374 12.0
endloop
endfacet
facet normal 1.66675982477528e-016 -4.85885145034018e-018 1.0
outer loop
vertex 11.4312664144167 0.731196135630374 12.0
vertex 11.2683104095504 -1.33935622518979 12.0
vertex 11.4860851068273 -0.314806827298465 12.0
endloop
endfacet
facet normal 0.0 -1.0 0.0
outer loop
vertex 7.17127827952881 -4.0 12.0
vertex 1.76247905159244e-015 -4.0 7.99999999999999
vertex 7.17127827952881 -4.0 7.99999999999999
endloop
endfacet
facet normal 0.0 -1.0 0.0
outer loop
vertex 1.76247905159244e-015 -4.0 7.99999999999999
vertex 7.17127827952881 -4.0 12.0
vertex 1.76247905159244e-015 -4.0 12.0
endloop
endfacet
facet normal -1.44597131013272e-015 1.0 -2.61108641857321e-032
outer loop
vertex -2.46747067222941e-015 4.0 7.99999999999999
vertex 7.80089193412576 4.00000000000001 12.0
vertex 7.80089193412576 4.00000000000001 7.99999999999999
endloop
endfacet
facet normal -1.44597131013272e-015 1.0 -2.61108641857321e-032
outer loop
vertex 7.80089193412576 4.00000000000001 12.0
vertex -2.46747067222941e-015 4.0 7.99999999999999
vertex -2.46747067222941e-015 4.0 12.0
endloop
endfacet
facet normal -2.18871691726367e-016 5.91444946037279e-018 -1.0
outer loop
vertex -3.95075336238055 0.625737860160922 7.99999999999999
vertex -3.95075336238055 -0.625737860160924 7.99999999999999
vertex -4.0 -1.05748743095546e-015 7.99999999999999
endloop
endfacet
facet normal -2.18871691726367e-016 5.91444946037279e-018 -1.0
outer loop
vertex -3.95075336238055 -0.625737860160924 7.99999999999999
vertex -3.95075336238055 0.625737860160922 7.99999999999999
vertex -3.80422606518062 1.23606797749979 7.99999999999999
endloop
endfacet
facet normal -2.18871691726367e-016 5.91444946037279e-018 -1.0
outer loop
vertex -3.95075336238055 -0.625737860160924 7.99999999999999
vertex -3.80422606518062 1.23606797749979 7.99999999999999
vertex -3.80422606518061 -1.23606797749979 7.99999999999999
endloop
endfacet
facet normal -2.18871691726367e-016 5.91444946037279e-018 -1.0
outer loop
vertex -3.80422606518061 -1.23606797749979 7.99999999999999
vertex -3.80422606518062 1.23606797749979 7.99999999999999
vertex -3.56402609675347 1.81596199895819 7.99999999999999
endloop
endfacet
facet normal -2.18871691726367e-016 5.91444946037279e-018 -1.0
outer loop
vertex -3.80422606518061 -1.23606797749979 7.99999999999999
vertex -3.56402609675347 1.81596199895819 7.99999999999999
vertex -3.56402609675347 -1.81596199895819 7.99999999999999
endloop
endfacet
facet normal -2.18871691726367e-016 5.91444946037279e-018 -1.0
outer loop
vertex -3.56402609675347 -1.81596199895819 7.99999999999999
vertex -3.56402609675347 1.81596199895819 7.99999999999999
vertex -3.23606797749979 2.35114100916989 7.99999999999999
endloop
endfacet
facet normal -2.18871691726367e-016 5.91444946037279e-018 -1.0
outer loop
vertex -3.56402609675347 -1.81596199895819 7.99999999999999
vertex -3.23606797749979 2.35114100916989 7.99999999999999
vertex -3.23606797749979 -2.35114100916989 7.99999999999999
endloop
endfacet
facet normal -2.18871691726367e-016 5.91444946037279e-018 -1.0
outer loop
vertex -3.23606797749979 -2.35114100916989 7.99999999999999
vertex -3.23606797749979 2.35114100916989 7.99999999999999
vertex -2.82842712474619 2.82842712474619 7.99999999999999
endloop
endfacet
facet normal -2.18871691726367e-016 5.91444946037279e-018 -1.0
outer loop
vertex -3.23606797749979 -2.35114100916989 7.99999999999999
vertex -2.82842712474619 2.82842712474619 7.99999999999999
vertex -2.82842712474619 -2.82842712474619 7.99999999999999
endloop
endfacet
facet normal -2.18871691726367e-016 5.91444946037279e-018 -1.0
outer loop
vertex -2.82842712474619 -2.82842712474619 7.99999999999999
vertex -2.82842712474619 2.82842712474619 7.99999999999999
vertex -2.35114100916989 3.23606797749979 7.99999999999999
endloop
endfacet
facet normal -2.18871691726367e-016 5.91444946037279e-018 -1.0
outer loop
vertex -2.82842712474619 -2.82842712474619 7.99999999999999
vertex -2.35114100916989 3.23606797749979 7.99999999999999
vertex -2.35114100916989 -3.23606797749979 7.99999999999999
endloop
endfacet
facet normal -2.18871691726367e-016 5.91444946037279e-018 -1.0
outer loop
vertex -2.35114100916989 -3.23606797749979 7.99999999999999
vertex -2.35114100916989 3.23606797749979 7.99999999999999
vertex -1.81596199895819 3.56402609675347 7.99999999999999
endloop
endfacet
facet normal -2.18871691726367e-016 5.91444946037279e-018 -1.0
outer loop
vertex -2.35114100916989 -3.23606797749979 7.99999999999999
vertex -1.81596199895819 3.56402609675347 7.99999999999999
vertex -1.81596199895819 -3.56402609675347 7.99999999999999
endloop
endfacet
facet normal -2.18871691726367e-016 5.91444946037279e-018 -1.0
outer loop
vertex -1.81596199895819 -3.56402609675347 7.99999999999999
vertex -1.81596199895819 3.56402609675347 7.99999999999999
vertex -1.5 2.5 7.99999999999999
endloop
endfacet
facet normal -2.18871691726367e-016 5.91444946037279e-018 -1.0
outer loop
vertex -1.5 2.5 7.99999999999999
vertex -1.81596199895819 3.56402609675347 7.99999999999999
vertex -1.23606797749979 3.80422606518061 7.99999999999999
endloop
endfacet
facet normal -2.18871691726367e-016 5.91444946037279e-018 -1.0
outer loop
vertex -1.5 2.5 7.99999999999999
vertex -1.23606797749979 3.80422606518061 7.99999999999999
vertex 1.5 2.5 7.99999999999999
endloop
endfacet
facet normal -2.18871691726367e-016 5.91444946037279e-018 -1.0
outer loop
vertex 1.5 2.5 7.99999999999999
vertex -1.23606797749979 3.80422606518061 7.99999999999999
vertex -0.625737860160926 3.95075336238055 7.99999999999999
endloop
endfacet
facet normal -2.18871691726367e-016 5.91444946037279e-018 -1.0
outer loop
vertex 1.5 2.5 7.99999999999999
vertex -0.625737860160926 3.95075336238055 7.99999999999999
vertex -2.46747067222941e-015 4.0 7.99999999999999
endloop
endfacet
facet normal -2.18871691726367e-016 5.91444946037279e-018 -1.0
outer loop
vertex 1.5 2.5 7.99999999999999
vertex -2.46747067222941e-015 4.0 7.99999999999999
vertex 7.80089193412576 4.00000000000001 7.99999999999999
endloop
endfacet
facet normal -2.18871691726367e-016 5.91444946037279e-018 -1.0
outer loop
vertex 1.5 2.5 7.99999999999999
vertex 7.80089193412576 4.00000000000001 7.99999999999999
vertex 1.5 -2.5 7.99999999999999
endloop
endfacet
facet normal -2.18871691726367e-016 5.91444946037279e-018 -1.0
outer loop
vertex 1.5 -2.5 7.99999999999999
vertex 7.80089193412576 4.00000000000001 7.99999999999999
vertex 7.17127827952881 -4.0 7.99999999999999
endloop
endfacet
facet normal -2.18871691726367e-016 5.91444946037279e-018 -1.0
outer loop
vertex 7.17127827952881 -4.0 7.99999999999999
vertex 7.80089193412576 4.00000000000001 7.99999999999999
vertex 8.21728124245765 -3.94518130758942 7.99999999999999
endloop
endfacet
facet normal -2.18871691726367e-016 5.91444946037279e-018 -1.0
outer loop
vertex 8.21728124245765 -3.94518130758942 7.99999999999999
vertex 7.80089193412576 4.00000000000001 7.99999999999999
vertex 8.82544133201709 3.78222530272314 7.99999999999999
endloop
endfacet
facet normal -2.18871691726367e-016 5.91444946037279e-018 -1.0
outer loop
vertex 8.21728124245765 -3.94518130758942 7.99999999999999
vertex 8.82544133201709 3.78222530272314 7.99999999999999
vertex 9.21345439710203 -3.62150502878699 7.99999999999999
endloop
endfacet
facet normal -2.18871691726367e-016 5.91444946037279e-018 -1.0
outer loop
vertex 9.21345439710203 -3.62150502878699 7.99999999999999
vertex 8.82544133201709 3.78222530272314 7.99999999999999
vertex 9.4 5.87390317002199e-015 7.99999999999999
endloop
endfacet
facet normal -2.18871691726367e-016 5.91444946037279e-018 -1.0
outer loop
vertex 9.4 5.87390317002199e-015 7.99999999999999
vertex 8.82544133201709 3.78222530272314 7.99999999999999
vertex 9.75871581655255 3.30669820148853 7.99999999999999
endloop
endfacet
facet normal -2.18871691726367e-016 5.91444946037279e-018 -1.0
outer loop
vertex 9.4 5.87390317002199e-015 7.99999999999999
vertex 9.75871581655255 3.30669820148853 7.99999999999999
vertex 9.42044450422656 0.155291427061518 7.99999999999999
endloop
endfacet
facet normal -2.18871691726367e-016 5.91444946037279e-018 -1.0
outer loop
vertex 9.42044450422656 0.155291427061518 7.99999999999999
vertex 9.75871581655255 3.30669820148853 7.99999999999999
vertex 9.48038475772934 0.300000000000006 7.99999999999999
endloop
endfacet
facet normal -2.18871691726367e-016 5.91444946037279e-018 -1.0
outer loop
vertex 9.48038475772934 0.300000000000006 7.99999999999999
vertex 9.75871581655255 3.30669820148853 7.99999999999999
vertex 9.57573593128807 0.424264068711935 7.99999999999999
endloop
endfacet
facet normal -2.18871691726367e-016 5.91444946037279e-018 -1.0
outer loop
vertex 9.57573593128807 0.424264068711935 7.99999999999999
vertex 9.75871581655255 3.30669820148853 7.99999999999999
vertex 9.7 0.519615242270669 7.99999999999999
endloop
endfacet
facet normal -2.18871691726367e-016 5.91444946037279e-018 -1.0
outer loop
vertex 9.7 0.519615242270669 7.99999999999999
vertex 9.75871581655255 3.30669820148853 7.99999999999999
vertex 9.84470857293849 0.579555495773447 7.99999999999999
endloop
endfacet
facet normal -2.18871691726367e-016 5.91444946037279e-018 -1.0
outer loop
vertex 9.84470857293849 0.579555495773447 7.99999999999999
vertex 9.75871581655255 3.30669820148853 7.99999999999999
vertex 10.5371142739201 2.60582508239963 7.99999999999999
endloop
endfacet
facet normal -2.18871691726367e-016 5.91444946037279e-018 -1.0
outer loop
vertex 9.84470857293849 0.579555495773447 7.99999999999999
vertex 10.5371142739201 2.60582508239963 7.99999999999999
vertex 10.0 0.600000000000006 7.99999999999999
endloop
endfacet
facet normal -2.18871691726367e-016 5.91444946037279e-018 -1.0
outer loop
vertex 10.0 0.600000000000006 7.99999999999999
vertex 10.5371142739201 2.60582508239963 7.99999999999999
vertex 10.1552914270615 0.579555495773447 7.99999999999999
endloop
endfacet
facet normal -2.18871691726367e-016 5.91444946037279e-018 -1.0
outer loop
vertex 10.1552914270615 0.579555495773447 7.99999999999999
vertex 10.5371142739201 2.60582508239963 7.99999999999999
vertex 10.3 0.519615242270669 7.99999999999999
endloop
endfacet
facet normal -2.18871691726367e-016 5.91444946037279e-018 -1.0
outer loop
vertex 10.3 0.519615242270669 7.99999999999999
vertex 10.5371142739201 2.60582508239963 7.99999999999999
vertex 10.4242640687119 0.424264068711935 7.99999999999999
endloop
endfacet
facet normal -2.18871691726367e-016 5.91444946037279e-018 -1.0
outer loop
vertex 10.4242640687119 0.424264068711935 7.99999999999999
vertex 10.5371142739201 2.60582508239963 7.99999999999999
vertex 10.5196152422707 0.300000000000006 7.99999999999999
endloop
endfacet
facet normal -2.18871691726367e-016 5.91444946037279e-018 -1.0
outer loop
vertex 10.5196152422707 0.300000000000006 7.99999999999999
vertex 10.5371142739201 2.60582508239963 7.99999999999999
vertex 10.5795554957734 0.155291427061519 7.99999999999999
endloop
endfacet
facet normal -2.18871691726367e-016 5.91444946037279e-018 -1.0
outer loop
vertex 10.5795554957734 0.155291427061519 7.99999999999999
vertex 10.5371142739201 2.60582508239963 7.99999999999999
vertex 11.1075901356143 1.72736929027475 7.99999999999999
endloop
endfacet
facet normal -2.18871691726367e-016 5.91444946037279e-018 -1.0
outer loop
vertex 10.5795554957734 0.155291427061519 7.99999999999999
vertex 11.1075901356143 1.72736929027475 7.99999999999999
vertex 10.6 4.97377617974067e-015 7.99999999999999
endloop
endfacet
facet normal -2.18871691726367e-016 5.91444946037279e-018 -1.0
outer loop
vertex 10.6 4.97377617974067e-015 7.99999999999999
vertex 11.1075901356143 1.72736929027475 7.99999999999999
vertex 10.7927833083158 -2.27263070972525 7.99999999999999
endloop
endfacet
facet normal -2.18871691726367e-016 5.91444946037279e-018 -1.0
outer loop
vertex 10.7927833083158 -2.27263070972525 7.99999999999999
vertex 11.1075901356143 1.72736929027475 7.99999999999999
vertex 11.2683104095504 -1.33935622518979 7.99999999999999
endloop
endfacet
facet normal -2.18871691726367e-016 5.91444946037279e-018 -1.0
outer loop
vertex 11.2683104095504 -1.33935622518979 7.99999999999999
vertex 11.1075901356143 1.72736929027475 7.99999999999999
vertex 11.4312664144167 0.731196135630374 7.99999999999999
endloop
endfacet
facet normal -2.18871691726367e-016 5.91444946037279e-018 -1.0
outer loop
vertex 11.2683104095504 -1.33935622518979 7.99999999999999
vertex 11.4312664144167 0.731196135630374 7.99999999999999
vertex 11.4860851068273 -0.314806827298465 7.99999999999999
endloop
endfacet
facet normal -2.18871691726367e-016 5.91444946037279e-018 -1.0
outer loop
vertex 9.21345439710203 -3.62150502878699 7.99999999999999
vertex 9.42044450422656 -0.155291427061507 7.99999999999999
vertex 10.0919101892269 -3.05102916709276 7.99999999999999
endloop
endfacet
facet normal -2.18871691726367e-016 5.91444946037279e-018 -1.0
outer loop
vertex 9.42044450422656 -0.155291427061507 7.99999999999999
vertex 9.21345439710203 -3.62150502878699 7.99999999999999
vertex 9.4 5.87390317002199e-015 7.99999999999999
endloop
endfacet
facet normal -2.18871691726367e-016 5.91444946037279e-018 -1.0
outer loop
vertex 10.0919101892269 -3.05102916709276 7.99999999999999
vertex 9.42044450422656 -0.155291427061507 7.99999999999999
vertex 9.48038475772934 -0.299999999999994 7.99999999999999
endloop
endfacet
facet normal -2.18871691726367e-016 5.91444946037279e-018 -1.0
outer loop
vertex 10.0919101892269 -3.05102916709276 7.99999999999999
vertex 9.48038475772934 -0.299999999999994 7.99999999999999
vertex 9.57573593128807 -0.424264068711923 7.99999999999999
endloop
endfacet
facet normal -2.18871691726367e-016 5.91444946037279e-018 -1.0
outer loop
vertex 10.0919101892269 -3.05102916709276 7.99999999999999
vertex 9.57573593128807 -0.424264068711923 7.99999999999999
vertex 9.7 -0.519615242270657 7.99999999999999
endloop
endfacet
facet normal -2.18871691726367e-016 5.91444946037279e-018 -1.0
outer loop
vertex 10.0919101892269 -3.05102916709276 7.99999999999999
vertex 9.7 -0.519615242270657 7.99999999999999
vertex 9.84470857293849 -0.579555495773435 7.99999999999999
endloop
endfacet
facet normal -2.18871691726367e-016 5.91444946037279e-018 -1.0
outer loop
vertex 10.0919101892269 -3.05102916709276 7.99999999999999
vertex 9.84470857293849 -0.579555495773435 7.99999999999999
vertex 10.0 -0.599999999999994 7.99999999999999
endloop
endfacet
facet normal -2.18871691726367e-016 5.91444946037279e-018 -1.0
outer loop
vertex 10.0919101892269 -3.05102916709276 7.99999999999999
vertex 10.0 -0.599999999999994 7.99999999999999
vertex 10.1552914270615 -0.579555495773435 7.99999999999999
endloop
endfacet
facet normal -2.18871691726367e-016 5.91444946037279e-018 -1.0
outer loop
vertex 10.0919101892269 -3.05102916709276 7.99999999999999
vertex 10.1552914270615 -0.579555495773435 7.99999999999999
vertex 10.7927833083158 -2.27263070972525 7.99999999999999
endloop
endfacet
facet normal -2.18871691726367e-016 5.91444946037279e-018 -1.0
outer loop
vertex 10.7927833083158 -2.27263070972525 7.99999999999999
vertex 10.1552914270615 -0.579555495773435 7.99999999999999
vertex 10.3 -0.519615242270657 7.99999999999999
endloop
endfacet
facet normal -2.18871691726367e-016 5.91444946037279e-018 -1.0
outer loop
vertex 10.7927833083158 -2.27263070972525 7.99999999999999
vertex 10.3 -0.519615242270657 7.99999999999999
vertex 10.4242640687119 -0.424264068711923 7.99999999999999
endloop
endfacet
facet normal -2.18871691726367e-016 5.91444946037279e-018 -1.0
outer loop
vertex 10.7927833083158 -2.27263070972525 7.99999999999999
vertex 10.4242640687119 -0.424264068711923 7.99999999999999
vertex 10.5196152422707 -0.299999999999995 7.99999999999999
endloop
endfacet
facet normal -2.18871691726367e-016 5.91444946037279e-018 -1.0
outer loop
vertex 10.7927833083158 -2.27263070972525 7.99999999999999
vertex 10.5196152422707 -0.299999999999995 7.99999999999999
vertex 10.5795554957734 -0.155291427061507 7.99999999999999
endloop
endfacet
facet normal -2.18871691726367e-016 5.91444946037279e-018 -1.0
outer loop
vertex 10.7927833083158 -2.27263070972525 7.99999999999999
vertex 10.5795554957734 -0.155291427061507 7.99999999999999
vertex 10.6 4.97377617974067e-015 7.99999999999999
endloop
endfacet
facet normal -2.18871691726367e-016 5.91444946037279e-018 -1.0
outer loop
vertex -1.81596199895819 -3.56402609675347 7.99999999999999
vertex -1.5 -2.5 7.99999999999999
vertex -1.23606797749979 -3.80422606518061 7.99999999999999
endloop
endfacet
facet normal -2.18871691726367e-016 5.91444946037279e-018 -1.0
outer loop
vertex -1.5 -2.5 7.99999999999999
vertex -1.81596199895819 -3.56402609675347 7.99999999999999
vertex -1.5 2.5 7.99999999999999
endloop
endfacet
facet normal -2.18871691726367e-016 5.91444946037279e-018 -1.0
outer loop
vertex -1.23606797749979 -3.80422606518061 7.99999999999999
vertex -1.5 -2.5 7.99999999999999
vertex 1.5 -2.5 7.99999999999999
endloop
endfacet
facet normal -2.18871691726367e-016 5.91444946037279e-018 -1.0
outer loop
vertex -1.23606797749979 -3.80422606518061 7.99999999999999
vertex 1.5 -2.5 7.99999999999999
vertex -0.625737860160922 -3.95075336238055 7.99999999999999
endloop
endfacet
facet normal -2.18871691726367e-016 5.91444946037279e-018 -1.0
outer loop
vertex -0.625737860160922 -3.95075336238055 7.99999999999999
vertex 1.5 -2.5 7.99999999999999
vertex 1.76247905159244e-015 -4.0 7.99999999999999
endloop
endfacet
facet normal -2.18871691726367e-016 5.91444946037279e-018 -1.0
outer loop
vertex 1.76247905159244e-015 -4.0 7.99999999999999
vertex 1.5 -2.5 7.99999999999999
vertex 7.17127827952881 -4.0 7.99999999999999
endloop
endfacet
facet normal 0.182235525492148 -0.983254907563955 1.55197065897907e-017
outer loop
vertex 8.21728124245765 -3.94518130758942 12.0
vertex 7.17127827952881 -4.0 7.99999999999999
vertex 8.21728124245765 -3.94518130758942 7.99999999999999
endloop
endfacet
facet normal 0.0523359562429441 -0.998629534754574 0.0
outer loop
vertex 7.17127827952881 -4.0 7.99999999999999
vertex 8.21728124245765 -3.94518130758942 12.0
vertex 7.17127827952881 -4.0 12.0
endloop
endfacet
facet normal 0.430511096808296 -0.90258528434986 4.24012475163134e-017
outer loop
vertex 9.21345439710203 -3.62150502878699 12.0
vertex 8.21728124245765 -3.94518130758942 7.99999999999999
vertex 9.21345439710203 -3.62150502878699 7.99999999999999
endloop
endfacet
facet normal 0.182235525492148 -0.983254907563955 1.55197065897907e-017
outer loop
vertex 8.21728124245765 -3.94518130758942 7.99999999999999
vertex 9.21345439710203 -3.62150502878699 12.0
vertex 8.21728124245765 -3.94518130758942 12.0
endloop
endfacet
facet normal 0.649448048330184 -0.760405965600031 6.32929835994818e-017
outer loop
vertex 10.0919101892269 -3.05102916709276 12.0
vertex 9.21345439710203 -3.62150502878699 7.99999999999999
vertex 10.0919101892269 -3.05102916709276 7.99999999999999
endloop
endfacet
facet normal 0.430511096808296 -0.90258528434986 4.24012475163134e-017
outer loop
vertex 9.21345439710203 -3.62150502878699 7.99999999999999
vertex 10.0919101892269 -3.05102916709276 12.0
vertex 9.21345439710203 -3.62150502878699 12.0
endloop
endfacet
facet normal 0.824126188622016 -0.566406236924832 7.98714074469464e-017
outer loop
vertex 10.7927833083158 -2.27263070972525 7.99999999999999
vertex 10.0919101892269 -3.05102916709276 12.0
vertex 10.0919101892269 -3.05102916709276 7.99999999999999
endloop
endfacet
facet normal 0.649448048330184 -0.760405965600031 6.32929835994818e-017
outer loop
vertex 10.0919101892269 -3.05102916709276 12.0
vertex 10.7927833083158 -2.27263070972525 7.99999999999999
vertex 10.7927833083158 -2.27263070972525 12.0
endloop
endfacet
facet normal 0.942641491092179 -0.33380685923377 9.10067268706433e-017
outer loop
vertex 11.2683104095504 -1.33935622518979 7.99999999999999
vertex 10.7927833083158 -2.27263070972525 12.0
vertex 10.7927833083158 -2.27263070972525 7.99999999999999
endloop
endfacet
facet normal 0.824126188622016 -0.566406236924832 7.98714074469464e-017
outer loop
vertex 10.7927833083158 -2.27263070972525 12.0
vertex 11.2683104095504 -1.33935622518979 7.99999999999999
vertex 11.2683104095504 -1.33935622518979 12.0
endloop
endfacet
facet normal 0.996917333733128 -0.0784590957278446 9.59400882538329e-017
outer loop
vertex 11.4860851068273 -0.314806827298465 7.99999999999999
vertex 11.2683104095504 -1.33935622518979 12.0
vertex 11.2683104095504 -1.33935622518979 7.99999999999999
endloop
endfacet
facet normal 0.942641491092179 -0.33380685923377 9.10067268706433e-017
outer loop
vertex 11.2683104095504 -1.33935622518979 12.0
vertex 11.4860851068273 -0.314806827298465 7.99999999999999
vertex 11.4860851068273 -0.314806827298465 12.0
endloop
endfacet
facet normal 0.983254907563954 0.182235525492148 9.43352911710161e-017
outer loop
vertex 11.4312664144167 0.731196135630374 7.99999999999999
vertex 11.4860851068273 -0.314806827298465 12.0
vertex 11.4860851068273 -0.314806827298465 7.99999999999999
endloop
endfacet
facet normal 0.996917333733128 -0.0784590957278446 9.59400882538329e-017
outer loop
vertex 11.4860851068273 -0.314806827298465 12.0
vertex 11.4312664144167 0.731196135630374 7.99999999999999
vertex 11.4312664144167 0.731196135630374 12.0
endloop
endfacet
facet normal 0.902585284349861 0.430511096808295 8.63016998913342e-017
outer loop
vertex 11.1075901356143 1.72736929027475 7.99999999999999
vertex 11.4312664144167 0.731196135630374 12.0
vertex 11.4312664144167 0.731196135630374 7.99999999999999
endloop
endfacet
facet normal 0.983254907563954 0.182235525492148 9.43352911710161e-017
outer loop
vertex 11.4312664144167 0.731196135630374 12.0
vertex 11.1075901356143 1.72736929027475 7.99999999999999
vertex 11.1075901356143 1.72736929027475 12.0
endloop
endfacet
facet normal 0.760405965600031 0.649448048330184 7.23867903843604e-017
outer loop
vertex 10.5371142739201 2.60582508239963 7.99999999999999
vertex 11.1075901356143 1.72736929027475 12.0
vertex 11.1075901356143 1.72736929027475 7.99999999999999
endloop
endfacet
facet normal 0.902585284349861 0.430511096808295 8.63016998913342e-017
outer loop
vertex 11.1075901356143 1.72736929027475 12.0
vertex 10.5371142739201 2.60582508239963 7.99999999999999
vertex 10.5371142739201 2.60582508239963 12.0
endloop
endfacet
facet normal 0.566406236924832 0.824126188622016 5.35388407375195e-017
outer loop
vertex 9.75871581655255 3.30669820148853 12.0
vertex 10.5371142739201 2.60582508239963 7.99999999999999
vertex 9.75871581655255 3.30669820148853 7.99999999999999
endloop
endfacet
facet normal 0.760405965600031 0.649448048330184 7.23867903843604e-017
outer loop
vertex 10.5371142739201 2.60582508239963 7.99999999999999
vertex 9.75871581655255 3.30669820148853 12.0
vertex 10.5371142739201 2.60582508239963 12.0
endloop
endfacet
facet normal 0.333806859233771 0.942641491092179 2.15117852306543e-017
outer loop
vertex 8.82544133201709 3.78222530272314 12.0
vertex 9.75871581655255 3.30669820148853 7.99999999999999
vertex 8.82544133201709 3.78222530272314 7.99999999999999
endloop
endfacet
facet normal 0.566406236924832 0.824126188622016 5.35388407375195e-017
outer loop
vertex 9.75871581655255 3.30669820148853 7.99999999999999
vertex 8.82544133201709 3.78222530272314 12.0
vertex 9.75871581655255 3.30669820148853 12.0
endloop
endfacet
facet normal 0.207911690817759 0.978147600733806 2.58337129217678e-032
outer loop
vertex 7.80089193412576 4.00000000000001 12.0
vertex 8.82544133201709 3.78222530272314 7.99999999999999
vertex 7.80089193412576 4.00000000000001 7.99999999999999
endloop
endfacet
facet normal 0.333806859233771 0.942641491092179 2.15117852306543e-017
outer loop
vertex 8.82544133201709 3.78222530272314 7.99999999999999
vertex 7.80089193412576 4.00000000000001 12.0
vertex 8.82544133201709 3.78222530272314 12.0
endloop
endfacet
endsolid motor-arm
