solid screw-contact-pad
facet normal 0.0 0.0 -1.0
outer loop
vertex -5.79555495773441 1.55291427061514 0.0
vertex -5.79555495773441 -1.55291427061511 0.0
vertex -6.0 1.38273788646727e-014 0.0
endloop
endfacet
facet normal 0.0 0.0 -1.0
outer loop
vertex -5.79555495773441 -1.55291427061511 0.0
vertex -5.79555495773441 1.55291427061514 0.0
vertex -5.19615242270664 -2.99999999999999 0.0
endloop
endfacet
facet normal 0.0 0.0 -1.0
outer loop
vertex -5.19615242270664 -2.99999999999999 0.0
vertex -5.79555495773441 1.55291427061514 0.0
vertex -5.19615242270662 3.00000000000001 0.0
endloop
endfacet
facet normal 0.0 0.0 -1.0
outer loop
vertex -5.19615242270664 -2.99999999999999 0.0
vertex -5.19615242270662 3.00000000000001 0.0
vertex -4.24264068711929 -4.24264068711928 0.0
endloop
endfacet
facet normal 0.0 0.0 -1.0
outer loop
vertex -4.24264068711929 -4.24264068711928 0.0
vertex -5.19615242270662 3.00000000000001 0.0
vertex -4.24264068711928 4.24264068711929 0.0
endloop
endfacet
facet normal 0.0 0.0 -1.0
outer loop
vertex -4.24264068711929 -4.24264068711928 0.0
vertex -4.24264068711928 4.24264068711929 0.0
vertex -3.00000000000001 -5.19615242270663 0.0
endloop
endfacet
facet normal 0.0 0.0 -1.0
outer loop
vertex -3.00000000000001 -5.19615242270663 0.0
vertex -4.24264068711928 4.24264068711929 0.0
vertex -2.99999999999999 5.19615242270664 0.0
endloop
endfacet
facet normal 0.0 0.0 -1.0
outer loop
vertex -3.00000000000001 -5.19615242270663 0.0
vertex -2.99999999999999 5.19615242270664 0.0
vertex -1.55291427061514 -5.79555495773441 0.0
endloop
endfacet
facet normal 0.0 0.0 -1.0
outer loop
vertex -1.55291427061514 -5.79555495773441 0.0
vertex -2.99999999999999 5.19615242270664 0.0
vertex -1.55291427061511 5.79555495773441 0.0
endloop
endfacet
facet normal 0.0 0.0 -1.0
outer loop
vertex -1.55291427061514 -5.79555495773441 0.0
vertex -1.55291427061511 5.79555495773441 0.0
vertex -1.01979700157664e-014 -6.0 0.0
endloop
endfacet
facet normal 0.0 0.0 -1.0
outer loop
vertex -1.01979700157664e-014 -6.0 0.0
vertex -1.55291427061511 5.79555495773441 0.0
vertex 2.42554343907567e-014 6.0 0.0
endloop
endfacet
facet normal 0.0 0.0 -1.0
outer loop
vertex -1.01979700157664e-014 -6.0 0.0
vertex 2.42554343907567e-014 6.0 0.0
vertex 1.55291427061512 -5.79555495773441 0.0
endloop
endfacet
facet normal 0.0 0.0 -1.0
outer loop
vertex 1.55291427061512 -5.79555495773441 0.0
vertex 2.42554343907567e-014 6.0 0.0
vertex 1.55291427061515 5.7955549577344 0.0
endloop
endfacet
facet normal 0.0 0.0 -1.0
outer loop
vertex 1.55291427061512 -5.79555495773441 0.0
vertex 1.55291427061515 5.7955549577344 0.0
vertex 2.99999999999999 -5.19615242270664 0.0
endloop
endfacet
facet normal 0.0 0.0 -1.0
outer loop
vertex 2.99999999999999 -5.19615242270664 0.0
vertex 1.55291427061515 5.7955549577344 0.0
vertex 3.00000000000002 5.19615242270662 0.0
endloop
endfacet
facet normal 0.0 0.0 -1.0
outer loop
vertex 2.99999999999999 -5.19615242270664 0.0
vertex 3.00000000000002 5.19615242270662 0.0
vertex 4.24264068711928 -4.24264068711929 0.0
endloop
endfacet
facet normal 0.0 0.0 -1.0
outer loop
vertex 4.24264068711928 -4.24264068711929 0.0
vertex 3.00000000000002 5.19615242270662 0.0
vertex 4.2426406871193 4.24264068711927 0.0
endloop
endfacet
facet normal 0.0 0.0 -1.0
outer loop
vertex 4.24264068711928 -4.24264068711929 0.0
vertex 4.2426406871193 4.24264068711927 0.0
vertex 5.19615242270663 -3.00000000000001 0.0
endloop
endfacet
facet normal 0.0 0.0 -1.0
outer loop
vertex 5.19615242270663 -3.00000000000001 0.0
vertex 4.2426406871193 4.24264068711927 0.0
vertex 5.19615242270664 2.99999999999999 0.0
endloop
endfacet
facet normal 0.0 0.0 -1.0
outer loop
vertex 5.19615242270663 -3.00000000000001 0.0
vertex 5.19615242270664 2.99999999999999 0.0
vertex 5.79555495773441 -1.55291427061514 0.0
endloop
endfacet
facet normal 0.0 0.0 -1.0
outer loop
vertex 5.79555495773441 -1.55291427061514 0.0
vertex 5.19615242270664 2.99999999999999 0.0
vertex 5.79555495773441 1.55291427061511 0.0
endloop
endfacet
facet normal 0.0 0.0 -1.0
outer loop
vertex 5.79555495773441 -1.55291427061514 0.0
vertex 5.79555495773441 1.55291427061511 0.0
vertex 6.0 -1.32298993146109e-014 0.0
endloop
endfacet
facet normal -0.0 -0.0 1.0
outer loop
vertex -5.79555495773441 -1.55291427061513 4.0
vertex -5.79555495773441 1.55291427061512 4.0
vertex -6.0 -3.34871019802563e-015 4.0
endloop
endfacet
facet normal -0.0 -0.0 1.0
outer loop
vertex -5.79555495773441 1.55291427061512 4.0
vertex -5.79555495773441 -1.55291427061513 4.0
vertex -5.19615242270663 2.99999999999999 4.0
endloop
endfacet
facet normal -0.0 -0.0 1.0
outer loop
vertex -5.19615242270663 2.99999999999999 4.0
vertex -5.79555495773441 -1.55291427061513 4.0
vertex -5.19615242270663 -3.0 4.0
endloop
endfacet
facet normal -0.0 -0.0 1.0
outer loop
vertex -5.19615242270663 2.99999999999999 4.0
vertex -5.19615242270663 -3.0 4.0
vertex -4.24264068711929 4.24264068711928 4.0
endloop
endfacet
facet normal -0.0 -0.0 1.0
outer loop
vertex -4.24264068711929 4.24264068711928 4.0
vertex -5.19615242270663 -3.0 4.0
vertex -4.24264068711929 -4.24264068711928 4.0
endloop
endfacet
facet normal -0.0 -0.0 1.0
outer loop
vertex -4.24264068711929 4.24264068711928 4.0
vertex -4.24264068711929 -4.24264068711928 4.0
vertex -3.0 5.19615242270663 4.0
endloop
endfacet
facet normal -0.0 -0.0 1.0
outer loop
vertex -3.0 5.19615242270663 4.0
vertex -4.24264068711929 -4.24264068711928 4.0
vertex -3.0 -5.19615242270663 4.0
endloop
endfacet
facet normal -0.0 -0.0 1.0
outer loop
vertex -3.0 5.19615242270663 4.0
vertex -3.0 -5.19615242270663 4.0
vertex -1.55291427061513 5.79555495773441 4.0
endloop
endfacet
facet normal -0.0 -0.0 1.0
outer loop
vertex -1.55291427061513 5.79555495773441 4.0
vertex -3.0 -5.19615242270663 4.0
vertex -1.55291427061513 -5.79555495773441 4.0
endloop
endfacet
facet normal -0.0 -0.0 1.0
outer loop
vertex -1.55291427061513 5.79555495773441 4.0
vertex -1.55291427061513 -5.79555495773441 4.0
vertex -1.4 3.96587722835359e-016 4.0
endloop
endfacet
facet normal -0.0 -0.0 1.0
outer loop
vertex -1.4 3.96587722835359e-016 4.0
vertex -1.55291427061513 -5.79555495773441 4.0
vertex -1.3522961568047 -0.362346663143529 4.0
endloop
endfacet
facet normal -0.0 -0.0 1.0
outer loop
vertex -1.3522961568047 -0.362346663143529 4.0
vertex -1.55291427061513 -5.79555495773441 4.0
vertex -7.75490782700672e-015 -6.0 4.0
endloop
endfacet
facet normal -0.0 -0.0 1.0
outer loop
vertex -1.3522961568047 -0.362346663143529 4.0
vertex -7.75490782700672e-015 -6.0 4.0
vertex -1.21243556529821 -0.7 4.0
endloop
endfacet
facet normal -0.0 -0.0 1.0
outer loop
vertex -1.21243556529821 -0.7 4.0
vertex -7.75490782700672e-015 -6.0 4.0
vertex -0.989949493661167 -0.989949493661167 4.0
endloop
endfacet
facet normal -0.0 -0.0 1.0
outer loop
vertex -0.989949493661167 -0.989949493661167 4.0
vertex -7.75490782700672e-015 -6.0 4.0
vertex -0.7 -1.21243556529821 4.0
endloop
endfacet
facet normal -0.0 -0.0 1.0
outer loop
vertex -0.7 -1.21243556529821 4.0
vertex -7.75490782700672e-015 -6.0 4.0
vertex -0.362346663143529 -1.3522961568047 4.0
endloop
endfacet
facet normal -0.0 -0.0 1.0
outer loop
vertex -0.362346663143529 -1.3522961568047 4.0
vertex -7.75490782700672e-015 -6.0 4.0
vertex 4.50274341909458e-016 -1.4 4.0
endloop
endfacet
facet normal -0.0 -0.0 1.0
outer loop
vertex 4.50274341909458e-016 -1.4 4.0
vertex -7.75490782700672e-015 -6.0 4.0
vertex 1.55291427061512 -5.79555495773441 4.0
endloop
endfacet
facet normal -0.0 -0.0 1.0
outer loop
vertex 4.50274341909458e-016 -1.4 4.0
vertex 1.55291427061512 -5.79555495773441 4.0
vertex 0.36234666314353 -1.3522961568047 4.0
endloop
endfacet
facet normal -0.0 -0.0 1.0
outer loop
vertex 0.36234666314353 -1.3522961568047 4.0
vertex 1.55291427061512 -5.79555495773441 4.0
vertex 0.700000000000001 -1.21243556529821 4.0
endloop
endfacet
facet normal -0.0 -0.0 1.0
outer loop
vertex 0.700000000000001 -1.21243556529821 4.0
vertex 1.55291427061512 -5.79555495773441 4.0
vertex 0.989949493661167 -0.989949493661166 4.0
endloop
endfacet
facet normal -0.0 -0.0 1.0
outer loop
vertex 0.989949493661167 -0.989949493661166 4.0
vertex 1.55291427061512 -5.79555495773441 4.0
vertex 1.21243556529821 -0.7 4.0
endloop
endfacet
facet normal -0.0 -0.0 1.0
outer loop
vertex 1.21243556529821 -0.7 4.0
vertex 1.55291427061512 -5.79555495773441 4.0
vertex 1.3522961568047 -0.362346663143529 4.0
endloop
endfacet
facet normal -0.0 -0.0 1.0
outer loop
vertex 1.3522961568047 -0.362346663143529 4.0
vertex 1.55291427061512 -5.79555495773441 4.0
vertex 1.4 -2.57175827820944e-016 4.0
endloop
endfacet
facet normal -0.0 -0.0 1.0
outer loop
vertex -1.55291427061513 5.79555495773441 4.0
vertex -1.3522961568047 0.362346663143529 4.0
vertex -3.70120600834412e-015 6.0 4.0
endloop
endfacet
facet normal -0.0 -0.0 1.0
outer loop
vertex -1.3522961568047 0.362346663143529 4.0
vertex -1.55291427061513 5.79555495773441 4.0
vertex -1.4 3.96587722835359e-016 4.0
endloop
endfacet
facet normal -0.0 -0.0 1.0
outer loop
vertex -3.70120600834412e-015 6.0 4.0
vertex -1.3522961568047 0.362346663143529 4.0
vertex -1.21243556529821 0.7 4.0
endloop
endfacet
facet normal -0.0 -0.0 1.0
outer loop
vertex -3.70120600834412e-015 6.0 4.0
vertex -1.21243556529821 0.7 4.0
vertex -0.989949493661167 0.989949493661167 4.0
endloop
endfacet
facet normal -0.0 -0.0 1.0
outer loop
vertex -3.70120600834412e-015 6.0 4.0
vertex -0.989949493661167 0.989949493661167 4.0
vertex -0.7 1.21243556529821 4.0
endloop
endfacet
facet normal -0.0 -0.0 1.0
outer loop
vertex -3.70120600834412e-015 6.0 4.0
vertex -0.7 1.21243556529821 4.0
vertex -0.362346663143529 1.3522961568047 4.0
endloop
endfacet
facet normal -0.0 -0.0 1.0
outer loop
vertex -3.70120600834412e-015 6.0 4.0
vertex -0.362346663143529 1.3522961568047 4.0
vertex 2.82980067892161e-015 1.4 4.0
endloop
endfacet
facet normal -0.0 -0.0 1.0
outer loop
vertex -3.70120600834412e-015 6.0 4.0
vertex 2.82980067892161e-015 1.4 4.0
vertex 1.55291427061512 5.79555495773441 4.0
endloop
endfacet
facet normal -0.0 -0.0 1.0
outer loop
vertex 1.55291427061512 5.79555495773441 4.0
vertex 2.82980067892161e-015 1.4 4.0
vertex 0.362346663143531 1.35229615680469 4.0
endloop
endfacet
facet normal -0.0 -0.0 1.0
outer loop
vertex 1.55291427061512 5.79555495773441 4.0
vertex 0.362346663143531 1.35229615680469 4.0
vertex 0.700000000000002 1.21243556529821 4.0
endloop
endfacet
facet normal -0.0 -0.0 1.0
outer loop
vertex 1.55291427061512 5.79555495773441 4.0
vertex 0.700000000000002 1.21243556529821 4.0
vertex 0.989949493661168 0.989949493661165 4.0
endloop
endfacet
facet normal -0.0 -0.0 1.0
outer loop
vertex 1.55291427061512 5.79555495773441 4.0
vertex 0.989949493661168 0.989949493661165 4.0
vertex 1.21243556529821 0.699999999999999 4.0
endloop
endfacet
facet normal -0.0 -0.0 1.0
outer loop
vertex 1.55291427061512 5.79555495773441 4.0
vertex 1.21243556529821 0.699999999999999 4.0
vertex 1.3522961568047 0.362346663143528 4.0
endloop
endfacet
facet normal -0.0 -0.0 1.0
outer loop
vertex 1.55291427061512 5.79555495773441 4.0
vertex 1.3522961568047 0.362346663143528 4.0
vertex 1.4 -2.57175827820944e-016 4.0
endloop
endfacet
facet normal -0.0 -0.0 1.0
outer loop
vertex 1.55291427061512 5.79555495773441 4.0
vertex 1.4 -2.57175827820944e-016 4.0
vertex 1.55291427061512 -5.79555495773441 4.0
endloop
endfacet
facet normal -0.0 -0.0 1.0
outer loop
vertex 1.55291427061512 5.79555495773441 4.0
vertex 1.55291427061512 -5.79555495773441 4.0
vertex 3.0 -5.19615242270663 4.0
endloop
endfacet
facet normal -0.0 -0.0 1.0
outer loop
vertex 1.55291427061512 5.79555495773441 4.0
vertex 3.0 -5.19615242270663 4.0
vertex 3.0 5.19615242270663 4.0
endloop
endfacet
facet normal -0.0 -0.0 1.0
outer loop
vertex 3.0 5.19615242270663 4.0
vertex 3.0 -5.19615242270663 4.0
vertex 4.24264068711928 4.24264068711928 4.0
endloop
endfacet
facet normal -0.0 -0.0 1.0
outer loop
vertex 4.24264068711928 4.24264068711928 4.0
vertex 3.0 -5.19615242270663 4.0
vertex 4.24264068711929 -4.24264068711928 4.0
endloop
endfacet
facet normal -0.0 -0.0 1.0
outer loop
vertex 4.24264068711928 4.24264068711928 4.0
vertex 4.24264068711929 -4.24264068711928 4.0
vertex 5.19615242270663 3.0 4.0
endloop
endfacet
facet normal -0.0 -0.0 1.0
outer loop
vertex 5.19615242270663 3.0 4.0
vertex 4.24264068711929 -4.24264068711928 4.0
vertex 5.19615242270663 -3.0 4.0
endloop
endfacet
facet normal -0.0 -0.0 1.0
outer loop
vertex 5.19615242270663 3.0 4.0
vertex 5.19615242270663 -3.0 4.0
vertex 5.79555495773441 1.55291427061513 4.0
endloop
endfacet
facet normal -0.0 -0.0 1.0
outer loop
vertex 5.79555495773441 1.55291427061513 4.0
vertex 5.19615242270663 -3.0 4.0
vertex 5.79555495773441 -1.55291427061512 4.0
endloop
endfacet
facet normal -0.0 -0.0 1.0
outer loop
vertex 5.79555495773441 1.55291427061513 4.0
vertex 5.79555495773441 -1.55291427061512 4.0
vertex 6.0 1.23373533611471e-015 4.0
endloop
endfacet
facet normal 0.5 -0.866025403784439 4.50802555380778e-016
outer loop
vertex 3.0 -5.19615242270663 4.0
vertex 1.55291427061512 -5.79555495773441 0.0
vertex 2.99999999999999 -5.19615242270664 0.0
endloop
endfacet
facet normal 0.258819045102519 -0.965925826289069 4.52327519230595e-016
outer loop
vertex 1.55291427061512 -5.79555495773441 0.0
vertex 3.0 -5.19615242270663 4.0
vertex 1.55291427061512 -5.79555495773441 4.0
endloop
endfacet
facet normal 0.258819045102519 -0.965925826289069 4.52327519230595e-016
outer loop
vertex 1.55291427061512 -5.79555495773441 4.0
vertex -1.01979700157664e-014 -6.0 0.0
vertex 1.55291427061512 -5.79555495773441 0.0
endloop
endfacet
facet normal -1.41686647340786e-015 -1.0 3.07141575669064e-016
outer loop
vertex -1.01979700157664e-014 -6.0 0.0
vertex 1.55291427061512 -5.79555495773441 4.0
vertex -7.75490782700672e-015 -6.0 4.0
endloop
endfacet
facet normal -1.30993315466009e-015 -1.0 3.07141575669064e-016
outer loop
vertex -7.75490782700672e-015 -6.0 4.0
vertex -1.55291427061514 -5.79555495773441 0.0
vertex -1.01979700157664e-014 -6.0 0.0
endloop
endfacet
facet normal -0.258819045102522 -0.965925826289068 2.31804029701593e-016
outer loop
vertex -1.55291427061514 -5.79555495773441 0.0
vertex -7.75490782700672e-015 -6.0 4.0
vertex -1.55291427061513 -5.79555495773441 4.0
endloop
endfacet
facet normal -0.258819045102522 -0.965925826289068 2.31804029701594e-016
outer loop
vertex -1.55291427061513 -5.79555495773441 4.0
vertex -3.00000000000001 -5.19615242270663 0.0
vertex -1.55291427061514 -5.79555495773441 0.0
endloop
endfacet
facet normal -0.500000000000001 -0.866025403784438 1.90672004021521e-016
outer loop
vertex -3.00000000000001 -5.19615242270663 0.0
vertex -1.55291427061513 -5.79555495773441 4.0
vertex -3.0 -5.19615242270663 4.0
endloop
endfacet
facet normal -0.500000000000001 -0.866025403784438 1.90672004021521e-016
outer loop
vertex -3.0 -5.19615242270663 4.0
vertex -4.24264068711929 -4.24264068711928 0.0
vertex -3.00000000000001 -5.19615242270663 0.0
endloop
endfacet
facet normal -0.707106781186549 -0.707106781186547 2.06329811826835e-016
outer loop
vertex -4.24264068711929 -4.24264068711928 0.0
vertex -3.0 -5.19615242270663 4.0
vertex -4.24264068711929 -4.24264068711928 4.0
endloop
endfacet
facet normal -0.866025403784439 -0.499999999999999 1.7110468365473e-016
outer loop
vertex -5.19615242270663 -3.0 4.0
vertex -4.24264068711929 -4.24264068711928 0.0
vertex -4.24264068711929 -4.24264068711928 4.0
endloop
endfacet
facet normal -0.707106781186549 -0.707106781186547 2.06329811826835e-016
outer loop
vertex -4.24264068711929 -4.24264068711928 0.0
vertex -5.19615242270663 -3.0 4.0
vertex -5.19615242270664 -2.99999999999999 0.0
endloop
endfacet
facet normal -0.965925826289068 -0.25881904510252 2.02977428606452e-016
outer loop
vertex -5.79555495773441 -1.55291427061513 4.0
vertex -5.19615242270664 -2.99999999999999 0.0
vertex -5.19615242270663 -3.0 4.0
endloop
endfacet
facet normal -0.866025403784439 -0.499999999999999 1.7110468365473e-016
outer loop
vertex -5.19615242270664 -2.99999999999999 0.0
vertex -5.79555495773441 -1.55291427061513 4.0
vertex -5.79555495773441 -1.55291427061511 0.0
endloop
endfacet
facet normal -1.0 4.18822165095405e-016 3.32383391538015e-016
outer loop
vertex -6.0 -3.34871019802563e-015 4.0
vertex -5.79555495773441 -1.55291427061511 0.0
vertex -5.79555495773441 -1.55291427061513 4.0
endloop
endfacet
facet normal -0.965925826289069 -0.258819045102519 2.02977428606453e-016
outer loop
vertex -5.79555495773441 -1.55291427061511 0.0
vertex -6.0 -3.34871019802563e-015 4.0
vertex -6.0 1.38273788646727e-014 0.0
endloop
endfacet
facet normal -0.965925826289068 0.258819045102521 3.53486249558473e-016
outer loop
vertex -5.79555495773441 1.55291427061512 4.0
vertex -6.0 1.38273788646727e-014 0.0
vertex -6.0 -3.34871019802563e-015 4.0
endloop
endfacet
facet normal -1.0 1.1406220666428e-015 3.32383391538015e-016
outer loop
vertex -6.0 1.38273788646727e-014 0.0
vertex -5.79555495773441 1.55291427061512 4.0
vertex -5.79555495773441 1.55291427061514 0.0
endloop
endfacet
facet normal -0.866025403784439 0.5 2.85005921998014e-016
outer loop
vertex -5.19615242270663 2.99999999999999 4.0
vertex -5.79555495773441 1.55291427061514 0.0
vertex -5.79555495773441 1.55291427061512 4.0
endloop
endfacet
facet normal -0.965925826289068 0.258819045102522 3.53486249558473e-016
outer loop
vertex -5.79555495773441 1.55291427061514 0.0
vertex -5.19615242270663 2.99999999999999 4.0
vertex -5.19615242270662 3.00000000000001 0.0
endloop
endfacet
facet normal -0.707106781186547 0.707106781186548 2.66008641905613e-016
outer loop
vertex -4.24264068711929 4.24264068711928 4.0
vertex -5.19615242270662 3.00000000000001 0.0
vertex -5.19615242270663 2.99999999999999 4.0
endloop
endfacet
facet normal -0.866025403784438 0.500000000000001 2.85005921998014e-016
outer loop
vertex -5.19615242270662 3.00000000000001 0.0
vertex -4.24264068711929 4.24264068711928 4.0
vertex -4.24264068711928 4.24264068711929 0.0
endloop
endfacet
facet normal -0.707106781186547 0.707106781186548 2.66008641905613e-016
outer loop
vertex -4.24264068711929 4.24264068711928 4.0
vertex -2.99999999999999 5.19615242270664 0.0
vertex -4.24264068711928 4.24264068711929 0.0
endloop
endfacet
facet normal -0.499999999999999 0.866025403784439 2.97404094939288e-016
outer loop
vertex -2.99999999999999 5.19615242270664 0.0
vertex -4.24264068711929 4.24264068711928 4.0
vertex -3.0 5.19615242270663 4.0
endloop
endfacet
facet normal -0.5 0.866025403784439 2.97404094939288e-016
outer loop
vertex -3.0 5.19615242270663 4.0
vertex -1.55291427061511 5.79555495773441 0.0
vertex -2.99999999999999 5.19615242270664 0.0
endloop
endfacet
facet normal -0.25881904510252 0.965925826289069 2.42323020180553e-016
outer loop
vertex -1.55291427061511 5.79555495773441 0.0
vertex -3.0 5.19615242270663 4.0
vertex -1.55291427061513 5.79555495773441 4.0
endloop
endfacet
facet normal -0.25881904510252 0.965925826289068 2.42323020180553e-016
outer loop
vertex -1.55291427061513 5.79555495773441 4.0
vertex 2.42554343907567e-014 6.0 0.0
vertex -1.55291427061511 5.79555495773441 0.0
endloop
endfacet
facet normal 1.8802441879815e-015 1.0 2.91050473263518e-016
outer loop
vertex 2.42554343907567e-014 6.0 0.0
vertex -1.55291427061513 5.79555495773441 4.0
vertex -3.70120600834412e-015 6.0 4.0
endloop
endfacet
facet normal 7.12888791651753e-016 1.0 2.91050473263517e-016
outer loop
vertex -3.70120600834412e-015 6.0 4.0
vertex 1.55291427061515 5.7955549577344 0.0
vertex 2.42554343907567e-014 6.0 0.0
endloop
endfacet
facet normal 0.258819045102523 0.965925826289068 3.84178902419665e-016
outer loop
vertex 1.55291427061515 5.7955549577344 0.0
vertex -3.70120600834412e-015 6.0 4.0
vertex 1.55291427061512 5.79555495773441 4.0
endloop
endfacet
facet normal 0.258819045102522 0.965925826289068 3.84178902419665e-016
outer loop
vertex 1.55291427061512 5.79555495773441 4.0
vertex 3.00000000000002 5.19615242270662 0.0
vertex 1.55291427061515 5.7955549577344 0.0
endloop
endfacet
facet normal 0.500000000000002 0.866025403784437 3.70090608214447e-016
outer loop
vertex 3.00000000000002 5.19615242270662 0.0
vertex 1.55291427061512 5.79555495773441 4.0
vertex 3.0 5.19615242270663 4.0
endloop
endfacet
facet normal 0.500000000000001 0.866025403784438 3.70090608214447e-016
outer loop
vertex 3.0 5.19615242270663 4.0
vertex 4.2426406871193 4.24264068711927 0.0
vertex 3.00000000000002 5.19615242270662 0.0
endloop
endfacet
facet normal 0.707106781186549 0.707106781186546 3.88587392636329e-016
outer loop
vertex 4.2426406871193 4.24264068711927 0.0
vertex 3.0 5.19615242270663 4.0
vertex 4.24264068711928 4.24264068711928 4.0
endloop
endfacet
facet normal 0.707106781186549 0.707106781186546 3.88587392636329e-016
outer loop
vertex 4.2426406871193 4.24264068711927 0.0
vertex 5.19615242270663 3.0 4.0
vertex 5.19615242270664 2.99999999999999 0.0
endloop
endfacet
facet normal 0.866025403784439 0.499999999999999 2.6210683655615e-016
outer loop
vertex 5.19615242270663 3.0 4.0
vertex 4.2426406871193 4.24264068711927 0.0
vertex 4.24264068711928 4.24264068711928 4.0
endloop
endfacet
facet normal 0.866025403784439 0.499999999999999 2.62106836556149e-016
outer loop
vertex 5.19615242270664 2.99999999999999 0.0
vertex 5.79555495773441 1.55291427061513 4.0
vertex 5.79555495773441 1.55291427061511 0.0
endloop
endfacet
facet normal 0.965925826289069 0.25881904510252 1.80459357479622e-016
outer loop
vertex 5.79555495773441 1.55291427061513 4.0
vertex 5.19615242270664 2.99999999999999 0.0
vertex 5.19615242270663 3.0 4.0
endloop
endfacet
facet normal 0.965925826289069 0.258819045102519 1.80459357479623e-016
outer loop
vertex 5.79555495773441 1.55291427061511 0.0
vertex 6.0 1.23373533611471e-015 4.0
vertex 6.0 -1.32298993146109e-014 0.0
endloop
endfacet
facet normal 1.0 -5.88133253112696e-016 3.3235895412178e-016
outer loop
vertex 6.0 1.23373533611471e-015 4.0
vertex 5.79555495773441 1.55291427061511 0.0
vertex 5.79555495773441 1.55291427061513 4.0
endloop
endfacet
facet normal 1.0 -1.19408872601669e-015 3.3235895412178e-016
outer loop
vertex 6.0 -1.32298993146109e-014 0.0
vertex 5.79555495773441 -1.55291427061512 4.0
vertex 5.79555495773441 -1.55291427061514 0.0
endloop
endfacet
facet normal 0.965925826289068 -0.258819045102521 3.65337920109523e-016
outer loop
vertex 5.79555495773441 -1.55291427061512 4.0
vertex 6.0 -1.32298993146109e-014 0.0
vertex 6.0 1.23373533611471e-015 4.0
endloop
endfacet
facet normal 0.965925826289068 -0.258819045102522 3.65337920109522e-016
outer loop
vertex 5.79555495773441 -1.55291427061514 0.0
vertex 5.19615242270663 -3.0 4.0
vertex 5.19615242270663 -3.00000000000001 0.0
endloop
endfacet
facet normal 0.866025403784438 -0.5 2.37186691854233e-016
outer loop
vertex 5.19615242270663 -3.0 4.0
vertex 5.79555495773441 -1.55291427061514 0.0
vertex 5.79555495773441 -1.55291427061512 4.0
endloop
endfacet
facet normal 0.866025403784438 -0.500000000000001 2.37186691854233e-016
outer loop
vertex 5.19615242270663 -3.00000000000001 0.0
vertex 4.24264068711929 -4.24264068711928 4.0
vertex 4.24264068711928 -4.24264068711929 0.0
endloop
endfacet
facet normal 0.707106781186547 -0.707106781186548 2.53487517556284e-016
outer loop
vertex 4.24264068711929 -4.24264068711928 4.0
vertex 5.19615242270663 -3.00000000000001 0.0
vertex 5.19615242270663 -3.0 4.0
endloop
endfacet
facet normal 0.707106781186547 -0.707106781186548 2.53487517556284e-016
outer loop
vertex 4.24264068711929 -4.24264068711928 4.0
vertex 2.99999999999999 -5.19615242270664 0.0
vertex 4.24264068711928 -4.24264068711929 0.0
endloop
endfacet
facet normal 0.499999999999999 -0.866025403784439 4.50802555380779e-016
outer loop
vertex 2.99999999999999 -5.19615242270664 0.0
vertex 4.24264068711929 -4.24264068711928 4.0
vertex 3.0 -5.19615242270663 4.0
endloop
endfacet
facet normal -0.866025403784439 0.5 6.45546812683812e-019
outer loop
vertex 1.21243556529821 -0.7 4.0
vertex 0.989949493661167 -0.989949493661166 1.0
vertex 0.989949493661167 -0.989949493661166 4.0
endloop
endfacet
facet normal -0.707106781186548 0.707106781186547 2.04622032235086e-018
outer loop
vertex 0.989949493661167 -0.989949493661166 1.0
vertex 1.21243556529821 -0.7 4.0
vertex 1.21243556529821 -0.7 1.0
endloop
endfacet
facet normal -0.965925826289068 0.258819045102521 4.92788786150229e-019
outer loop
vertex 1.3522961568047 -0.362346663143529 4.0
vertex 1.21243556529821 -0.7 1.0
vertex 1.21243556529821 -0.7 4.0
endloop
endfacet
facet normal -0.866025403784439 0.5 6.45546812683812e-019
outer loop
vertex 1.21243556529821 -0.7 1.0
vertex 1.3522961568047 -0.362346663143529 4.0
vertex 1.3522961568047 -0.362346663143529 1.0
endloop
endfacet
facet normal -1.0 2.67333296869407e-016 1.32820383146583e-019
outer loop
vertex 1.4 -2.57175827820944e-016 4.0
vertex 1.3522961568047 -0.362346663143529 1.0
vertex 1.3522961568047 -0.362346663143529 4.0
endloop
endfacet
facet normal -0.965925826289068 0.258819045102521 4.92788786150229e-019
outer loop
vertex 1.3522961568047 -0.362346663143529 1.0
vertex 1.4 -2.57175827820944e-016 4.0
vertex 1.4 -2.57175827820944e-016 1.0
endloop
endfacet
facet normal -0.965925826289068 -0.25881904510252 6.97659474253685e-020
outer loop
vertex 1.3522961568047 0.362346663143528 4.0
vertex 1.4 -2.57175827820944e-016 1.0
vertex 1.4 -2.57175827820944e-016 4.0
endloop
endfacet
facet normal -1.0 2.67333296869407e-016 1.32820383146583e-019
outer loop
vertex 1.4 -2.57175827820944e-016 1.0
vertex 1.3522961568047 0.362346663143528 4.0
vertex 1.3522961568047 0.362346663143528 1.0
endloop
endfacet
facet normal -0.866025403784439 -0.499999999999999 -7.13379505317868e-019
outer loop
vertex 1.21243556529821 0.699999999999999 4.0
vertex 1.3522961568047 0.362346663143528 1.0
vertex 1.3522961568047 0.362346663143528 4.0
endloop
endfacet
facet normal -0.965925826289068 -0.25881904510252 6.97659474253685e-020
outer loop
vertex 1.3522961568047 0.362346663143528 1.0
vertex 1.21243556529821 0.699999999999999 4.0
vertex 1.21243556529821 0.699999999999999 1.0
endloop
endfacet
facet normal -0.707106781186548 -0.707106781186547 5.11555080587705e-019
outer loop
vertex 0.989949493661168 0.989949493661165 4.0
vertex 1.21243556529821 0.699999999999999 1.0
vertex 1.21243556529821 0.699999999999999 4.0
endloop
endfacet
facet normal -0.866025403784439 -0.499999999999999 -7.13379505317868e-019
outer loop
vertex 1.21243556529821 0.699999999999999 1.0
vertex 0.989949493661168 0.989949493661165 4.0
vertex 0.989949493661168 0.989949493661165 1.0
endloop
endfacet
facet normal -0.707106781186548 -0.707106781186547 5.11555080587705e-019
outer loop
vertex 0.989949493661168 0.989949493661165 4.0
vertex 0.700000000000002 1.21243556529821 1.0
vertex 0.989949493661168 0.989949493661165 1.0
endloop
endfacet
facet normal -0.500000000000001 -0.866025403784438 -2.99297985898315e-019
outer loop
vertex 0.700000000000002 1.21243556529821 1.0
vertex 0.989949493661168 0.989949493661165 4.0
vertex 0.700000000000002 1.21243556529821 4.0
endloop
endfacet
facet normal -0.500000000000001 -0.866025403784438 -2.99297985898315e-019
outer loop
vertex 0.700000000000002 1.21243556529821 4.0
vertex 0.362346663143531 1.35229615680469 1.0
vertex 0.700000000000002 1.21243556529821 1.0
endloop
endfacet
facet normal -0.258819045102523 -0.965925826289068 -1.26530331721485e-018
outer loop
vertex 0.362346663143531 1.35229615680469 1.0
vertex 0.700000000000002 1.21243556529821 4.0
vertex 0.362346663143531 1.35229615680469 4.0
endloop
endfacet
facet normal -0.258819045102523 -0.965925826289068 -1.26530331721485e-018
outer loop
vertex 0.362346663143531 1.35229615680469 4.0
vertex 2.82980067892161e-015 1.4 1.0
vertex 0.362346663143531 1.35229615680469 1.0
endloop
endfacet
facet normal -1.55053312184256e-015 -1.0 3.21983690310256e-019
outer loop
vertex 2.82980067892161e-015 1.4 1.0
vertex 0.362346663143531 1.35229615680469 4.0
vertex 2.82980067892161e-015 1.4 4.0
endloop
endfacet
facet normal -1.55053312184256e-015 -1.0 3.21983690310256e-019
outer loop
vertex 2.82980067892161e-015 1.4 4.0
vertex -0.362346663143529 1.3522961568047 1.0
vertex 2.82980067892161e-015 1.4 1.0
endloop
endfacet
facet normal 0.25881904510252 -0.965925826289069 1.03379126325807e-019
outer loop
vertex -0.362346663143529 1.3522961568047 1.0
vertex 2.82980067892161e-015 1.4 4.0
vertex -0.362346663143529 1.3522961568047 4.0
endloop
endfacet
facet normal 0.25881904510252 -0.965925826289069 1.03379126325807e-019
outer loop
vertex -0.362346663143529 1.3522961568047 4.0
vertex -0.7 1.21243556529821 1.0
vertex -0.362346663143529 1.3522961568047 1.0
endloop
endfacet
facet normal 0.5 -0.866025403784439 3.36067308937502e-019
outer loop
vertex -0.7 1.21243556529821 1.0
vertex -0.362346663143529 1.3522961568047 4.0
vertex -0.7 1.21243556529821 4.0
endloop
endfacet
facet normal 0.5 -0.866025403784439 3.36067308937502e-019
outer loop
vertex -0.7 1.21243556529821 4.0
vertex -0.989949493661167 0.989949493661167 1.0
vertex -0.7 1.21243556529821 1.0
endloop
endfacet
facet normal 0.707106781186547 -0.707106781186548 1.11702835477818e-018
outer loop
vertex -0.989949493661167 0.989949493661167 1.0
vertex -0.7 1.21243556529821 4.0
vertex -0.989949493661167 0.989949493661167 4.0
endloop
endfacet
facet normal 0.707106781186547 -0.707106781186548 1.11702835477818e-018
outer loop
vertex -0.989949493661167 0.989949493661167 1.0
vertex -1.21243556529821 0.7 4.0
vertex -1.21243556529821 0.7 1.0
endloop
endfacet
facet normal 0.866025403784439 -0.5 1.96846556104033e-019
outer loop
vertex -1.21243556529821 0.7 4.0
vertex -0.989949493661167 0.989949493661167 1.0
vertex -0.989949493661167 0.989949493661167 4.0
endloop
endfacet
facet normal 0.866025403784439 -0.5 1.96846556104033e-019
outer loop
vertex -1.21243556529821 0.7 1.0
vertex -1.3522961568047 0.362346663143529 4.0
vertex -1.3522961568047 0.362346663143529 1.0
endloop
endfacet
facet normal 0.965925826289068 -0.258819045102521 -6.87493616062471e-019
outer loop
vertex -1.3522961568047 0.362346663143529 4.0
vertex -1.21243556529821 0.7 1.0
vertex -1.21243556529821 0.7 4.0
endloop
endfacet
facet normal 0.965925826289068 -0.258819045102521 -6.87493616062471e-019
outer loop
vertex -1.3522961568047 0.362346663143529 1.0
vertex -1.4 3.96587722835359e-016 4.0
vertex -1.4 3.96587722835359e-016 1.0
endloop
endfacet
facet normal 1.0 -4.9011104426058e-016 -1.26108871442468e-019
outer loop
vertex -1.4 3.96587722835359e-016 4.0
vertex -1.3522961568047 0.362346663143529 1.0
vertex -1.3522961568047 0.362346663143529 4.0
endloop
endfacet
facet normal 1.0 -4.9011104426058e-016 -1.26108871442468e-019
outer loop
vertex -1.4 3.96587722835359e-016 1.0
vertex -1.3522961568047 -0.362346663143529 4.0
vertex -1.3522961568047 -0.362346663143529 1.0
endloop
endfacet
facet normal 0.965925826289068 0.258819045102521 -4.12139404941077e-019
outer loop
vertex -1.3522961568047 -0.362346663143529 4.0
vertex -1.4 3.96587722835359e-016 1.0
vertex -1.4 3.96587722835359e-016 4.0
endloop
endfacet
facet normal 0.965925826289068 0.258819045102521 -4.12139404941077e-019
outer loop
vertex -1.3522961568047 -0.362346663143529 1.0
vertex -1.21243556529821 -0.7 4.0
vertex -1.21243556529821 -0.7 1.0
endloop
endfacet
facet normal 0.866025403784439 0.5 2.56388304970621e-019
outer loop
vertex -1.21243556529821 -0.7 4.0
vertex -1.3522961568047 -0.362346663143529 1.0
vertex -1.3522961568047 -0.362346663143529 4.0
endloop
endfacet
facet normal 0.866025403784439 0.5 2.56388304970621e-019
outer loop
vertex -1.21243556529821 -0.7 1.0
vertex -0.989949493661167 -0.989949493661167 4.0
vertex -0.989949493661167 -0.989949493661167 1.0
endloop
endfacet
facet normal 0.707106781186548 0.707106781186547 1.52067720423849e-018
outer loop
vertex -0.989949493661167 -0.989949493661167 4.0
vertex -1.21243556529821 -0.7 1.0
vertex -1.21243556529821 -0.7 4.0
endloop
endfacet
facet normal 0.707106781186548 0.707106781186547 1.52067720423849e-018
outer loop
vertex -0.989949493661167 -0.989949493661167 4.0
vertex -0.7 -1.21243556529821 1.0
vertex -0.989949493661167 -0.989949493661167 1.0
endloop
endfacet
facet normal 0.5 0.866025403784439 4.85469579618999e-019
outer loop
vertex -0.7 -1.21243556529821 1.0
vertex -0.989949493661167 -0.989949493661167 4.0
vertex -0.7 -1.21243556529821 4.0
endloop
endfacet
facet normal 0.5 0.866025403784439 4.85469579618999e-019
outer loop
vertex -0.7 -1.21243556529821 4.0
vertex -0.362346663143529 -1.3522961568047 1.0
vertex -0.7 -1.21243556529821 1.0
endloop
endfacet
facet normal 0.258819045102521 0.965925826289068 -3.66679914707808e-019
outer loop
vertex -0.362346663143529 -1.3522961568047 1.0
vertex -0.7 -1.21243556529821 4.0
vertex -0.362346663143529 -1.3522961568047 4.0
endloop
endfacet
facet normal 0.258819045102521 0.965925826289068 -3.66679914707808e-019
outer loop
vertex -0.362346663143529 -1.3522961568047 4.0
vertex 4.50274341909458e-016 -1.4 1.0
vertex -0.362346663143529 -1.3522961568047 1.0
endloop
endfacet
facet normal -2.04955527599879e-016 1.0 -6.64101915733083e-020
outer loop
vertex 4.50274341909458e-016 -1.4 1.0
vertex -0.362346663143529 -1.3522961568047 4.0
vertex 4.50274341909458e-016 -1.4 4.0
endloop
endfacet
facet normal -2.04955527599879e-016 1.0 -6.64101915733083e-020
outer loop
vertex 4.50274341909458e-016 -1.4 4.0
vertex 0.36234666314353 -1.3522961568047 1.0
vertex 4.50274341909458e-016 -1.4 1.0
endloop
endfacet
facet normal -0.258819045102521 0.965925826289068 4.94974553046683e-019
outer loop
vertex 0.36234666314353 -1.3522961568047 1.0
vertex 4.50274341909458e-016 -1.4 4.0
vertex 0.36234666314353 -1.3522961568047 4.0
endloop
endfacet
facet normal -0.258819045102521 0.965925826289068 4.94974553046683e-019
outer loop
vertex 0.36234666314353 -1.3522961568047 4.0
vertex 0.700000000000001 -1.21243556529821 1.0
vertex 0.36234666314353 -1.3522961568047 1.0
endloop
endfacet
facet normal -0.500000000000001 0.866025403784438 2.45484704043727e-018
outer loop
vertex 0.700000000000001 -1.21243556529821 1.0
vertex 0.36234666314353 -1.3522961568047 4.0
vertex 0.700000000000001 -1.21243556529821 4.0
endloop
endfacet
facet normal -0.500000000000001 0.866025403784438 2.45484704043727e-018
outer loop
vertex 0.700000000000001 -1.21243556529821 4.0
vertex 0.989949493661167 -0.989949493661166 1.0
vertex 0.700000000000001 -1.21243556529821 1.0
endloop
endfacet
facet normal -0.707106781186548 0.707106781186547 2.04622032235086e-018
outer loop
vertex 0.989949493661167 -0.989949493661166 1.0
vertex 0.700000000000001 -1.21243556529821 4.0
vertex 0.989949493661167 -0.989949493661166 4.0
endloop
endfacet
facet normal -0.0 -0.0 1.0
outer loop
vertex -1.3522961568047 -0.362346663143529 1.0
vertex -1.3522961568047 0.362346663143529 1.0
vertex -1.4 3.96587722835359e-016 1.0
endloop
endfacet
facet normal -0.0 -0.0 1.0
outer loop
vertex -1.3522961568047 0.362346663143529 1.0
vertex -1.3522961568047 -0.362346663143529 1.0
vertex -1.21243556529821 -0.7 1.0
endloop
endfacet
facet normal -0.0 -0.0 1.0
outer loop
vertex -1.3522961568047 0.362346663143529 1.0
vertex -1.21243556529821 -0.7 1.0
vertex -1.21243556529821 0.7 1.0
endloop
endfacet
facet normal -0.0 -0.0 1.0
outer loop
vertex -1.21243556529821 0.7 1.0
vertex -1.21243556529821 -0.7 1.0
vertex -0.989949493661167 -0.989949493661167 1.0
endloop
endfacet
facet normal -0.0 -0.0 1.0
outer loop
vertex -1.21243556529821 0.7 1.0
vertex -0.989949493661167 -0.989949493661167 1.0
vertex -0.989949493661167 0.989949493661167 1.0
endloop
endfacet
facet normal -0.0 -0.0 1.0
outer loop
vertex -0.989949493661167 0.989949493661167 1.0
vertex -0.989949493661167 -0.989949493661167 1.0
vertex -0.7 -1.21243556529821 1.0
endloop
endfacet
facet normal -0.0 -0.0 1.0
outer loop
vertex -0.989949493661167 0.989949493661167 1.0
vertex -0.7 -1.21243556529821 1.0
vertex -0.7 1.21243556529821 1.0
endloop
endfacet
facet normal -0.0 -0.0 1.0
outer loop
vertex -0.7 1.21243556529821 1.0
vertex -0.7 -1.21243556529821 1.0
vertex -0.362346663143529 -1.3522961568047 1.0
endloop
endfacet
facet normal -0.0 -0.0 1.0
outer loop
vertex -0.7 1.21243556529821 1.0
vertex -0.362346663143529 -1.3522961568047 1.0
vertex -0.362346663143529 1.3522961568047 1.0
endloop
endfacet
facet normal -0.0 -0.0 1.0
outer loop
vertex -0.362346663143529 1.3522961568047 1.0
vertex -0.362346663143529 -1.3522961568047 1.0
vertex 2.82980067892161e-015 1.4 1.0
endloop
endfacet
facet normal -0.0 -0.0 1.0
outer loop
vertex 2.82980067892161e-015 1.4 1.0
vertex -0.362346663143529 -1.3522961568047 1.0
vertex 4.50274341909458e-016 -1.4 1.0
endloop
endfacet
facet normal -0.0 -0.0 1.0
outer loop
vertex 2.82980067892161e-015 1.4 1.0
vertex 4.50274341909458e-016 -1.4 1.0
vertex 0.36234666314353 -1.3522961568047 1.0
endloop
endfacet
facet normal -0.0 -0.0 1.0
outer loop
vertex 2.82980067892161e-015 1.4 1.0
vertex 0.36234666314353 -1.3522961568047 1.0
vertex 0.362346663143531 1.35229615680469 1.0
endloop
endfacet
facet normal -0.0 -0.0 1.0
outer loop
vertex 0.362346663143531 1.35229615680469 1.0
vertex 0.36234666314353 -1.3522961568047 1.0
vertex 0.700000000000001 -1.21243556529821 1.0
endloop
endfacet
facet normal -0.0 -0.0 1.0
outer loop
vertex 0.362346663143531 1.35229615680469 1.0
vertex 0.700000000000001 -1.21243556529821 1.0
vertex 0.700000000000002 1.21243556529821 1.0
endloop
endfacet
facet normal -0.0 -0.0 1.0
outer loop
vertex 0.700000000000002 1.21243556529821 1.0
vertex 0.700000000000001 -1.21243556529821 1.0
vertex 0.989949493661167 -0.989949493661166 1.0
endloop
endfacet
facet normal -0.0 -0.0 1.0
outer loop
vertex 0.700000000000002 1.21243556529821 1.0
vertex 0.989949493661167 -0.989949493661166 1.0
vertex 0.989949493661168 0.989949493661165 1.0
endloop
endfacet
facet normal -0.0 -0.0 1.0
outer loop
vertex 0.989949493661168 0.989949493661165 1.0
vertex 0.989949493661167 -0.989949493661166 1.0
vertex 1.21243556529821 -0.7 1.0
endloop
endfacet
facet normal -0.0 -0.0 1.0
outer loop
vertex 0.989949493661168 0.989949493661165 1.0
vertex 1.21243556529821 -0.7 1.0
vertex 1.21243556529821 0.699999999999999 1.0
endloop
endfacet
facet normal -0.0 -0.0 1.0
outer loop
vertex 1.21243556529821 0.699999999999999 1.0
vertex 1.21243556529821 -0.7 1.0
vertex 1.3522961568047 -0.362346663143529 1.0
endloop
endfacet
facet normal -0.0 -0.0 1.0
outer loop
vertex 1.21243556529821 0.699999999999999 1.0
vertex 1.3522961568047 -0.362346663143529 1.0
vertex 1.3522961568047 0.362346663143528 1.0
endloop
endfacet
facet normal -0.0 -0.0 1.0
outer loop
vertex 1.3522961568047 0.362346663143528 1.0
vertex 1.3522961568047 -0.362346663143529 1.0
vertex 1.4 -2.57175827820944e-016 1.0
endloop
endfacet
endsolid screw-contact-pad
