solid screw-contact-pad
facet normal 0.0 0.0 -1.0
outer loop
vertex -3.86370330515627 1.03527618041008 0.0
vertex -3.86370330515627 -1.03527618041008 0.0
vertex -4.0 1.1331077795296e-015 0.0
endloop
endfacet
facet normal 0.0 0.0 -1.0
outer loop
vertex -3.86370330515627 -1.03527618041008 0.0
vertex -3.86370330515627 1.03527618041008 0.0
vertex -3.46410161513775 -2.0 0.0
endloop
endfacet
facet normal 0.0 0.0 -1.0
outer loop
vertex -3.46410161513775 -2.0 0.0
vertex -3.86370330515627 1.03527618041008 0.0
vertex -3.46410161513775 2.0 0.0
endloop
endfacet
facet normal 0.0 0.0 -1.0
outer loop
vertex -3.46410161513775 -2.0 0.0
vertex -3.46410161513775 2.0 0.0
vertex -2.82842712474619 -2.82842712474619 0.0
endloop
endfacet
facet normal 0.0 0.0 -1.0
outer loop
vertex -2.82842712474619 -2.82842712474619 0.0
vertex -3.46410161513775 2.0 0.0
vertex -2.82842712474619 2.82842712474619 0.0
endloop
endfacet
facet normal 0.0 0.0 -1.0
outer loop
vertex -2.82842712474619 -2.82842712474619 0.0
vertex -2.82842712474619 2.82842712474619 0.0
vertex -2.0 -3.46410161513775 0.0
endloop
endfacet
facet normal 0.0 0.0 -1.0
outer loop
vertex -2.0 -3.46410161513775 0.0
vertex -2.82842712474619 2.82842712474619 0.0
vertex -2.0 3.46410161513775 0.0
endloop
endfacet
facet normal 0.0 0.0 -1.0
outer loop
vertex -2.0 -3.46410161513775 0.0
vertex -2.0 3.46410161513775 0.0
vertex -1.03527618041008 3.86370330515627 0.0
endloop
endfacet
facet normal 0.0 0.0 -1.0
outer loop
vertex -2.0 -3.46410161513775 0.0
vertex -1.03527618041008 3.86370330515627 0.0
vertex -1.03527618041008 -3.86370330515627 0.0
endloop
endfacet
facet normal 0.0 0.0 -1.0
outer loop
vertex -1.03527618041008 -3.86370330515627 0.0
vertex -1.03527618041008 3.86370330515627 0.0
vertex 8.08514479691888e-015 4.0 0.0
endloop
endfacet
facet normal 0.0 0.0 -1.0
outer loop
vertex -1.03527618041008 -3.86370330515627 0.0
vertex 8.08514479691888e-015 4.0 0.0
vertex 1.28649811974131e-015 -4.0 0.0
endloop
endfacet
facet normal 0.0 0.0 -1.0
outer loop
vertex 1.28649811974131e-015 -4.0 0.0
vertex 8.08514479691888e-015 4.0 0.0
vertex 1.03527618041008 -3.86370330515627 0.0
endloop
endfacet
facet normal 0.0 0.0 -1.0
outer loop
vertex 1.03527618041008 -3.86370330515627 0.0
vertex 8.08514479691888e-015 4.0 0.0
vertex 1.03527618041009 3.86370330515627 0.0
endloop
endfacet
facet normal 0.0 0.0 -1.0
outer loop
vertex 1.03527618041008 -3.86370330515627 0.0
vertex 1.03527618041009 3.86370330515627 0.0
vertex 2.0 -3.46410161513775 0.0
endloop
endfacet
facet normal 0.0 0.0 -1.0
outer loop
vertex 2.0 -3.46410161513775 0.0
vertex 1.03527618041009 3.86370330515627 0.0
vertex 2.0 3.46410161513775 0.0
endloop
endfacet
facet normal 0.0 0.0 -1.0
outer loop
vertex 2.0 -3.46410161513775 0.0
vertex 2.0 3.46410161513775 0.0
vertex 2.82842712474619 -2.82842712474619 0.0
endloop
endfacet
facet normal 0.0 0.0 -1.0
outer loop
vertex 2.82842712474619 -2.82842712474619 0.0
vertex 2.0 3.46410161513775 0.0
vertex 2.82842712474619 2.82842712474619 0.0
endloop
endfacet
facet normal 0.0 0.0 -1.0
outer loop
vertex 2.82842712474619 -2.82842712474619 0.0
vertex 2.82842712474619 2.82842712474619 0.0
vertex 3.46410161513776 -2.0 0.0
endloop
endfacet
facet normal 0.0 0.0 -1.0
outer loop
vertex 3.46410161513776 -2.0 0.0
vertex 2.82842712474619 2.82842712474619 0.0
vertex 3.46410161513776 2.0 0.0
endloop
endfacet
facet normal 0.0 0.0 -1.0
outer loop
vertex 3.46410161513776 -2.0 0.0
vertex 3.46410161513776 2.0 0.0
vertex 3.86370330515627 -1.03527618041008 0.0
endloop
endfacet
facet normal 0.0 0.0 -1.0
outer loop
vertex 3.86370330515627 -1.03527618041008 0.0
vertex 3.46410161513776 2.0 0.0
vertex 3.86370330515627 1.03527618041008 0.0
endloop
endfacet
facet normal 0.0 0.0 -1.0
outer loop
vertex 3.86370330515627 -1.03527618041008 0.0
vertex 3.86370330515627 1.03527618041008 0.0
vertex 4.0 -7.34788079488412e-016 0.0
endloop
endfacet
facet normal -0.0 -0.0 1.0
outer loop
vertex -3.86370330515627 -1.03527618041008 4.0
vertex -3.86370330515627 1.03527618041008 4.0
vertex -4.0 1.1331077795296e-015 4.0
endloop
endfacet
facet normal -0.0 -0.0 1.0
outer loop
vertex -3.86370330515627 1.03527618041008 4.0
vertex -3.86370330515627 -1.03527618041008 4.0
vertex -3.46410161513775 -2.0 4.0
endloop
endfacet
facet normal -0.0 -0.0 1.0
outer loop
vertex -3.86370330515627 1.03527618041008 4.0
vertex -3.46410161513775 -2.0 4.0
vertex -3.46410161513775 2.0 4.0
endloop
endfacet
facet normal -0.0 -0.0 1.0
outer loop
vertex -3.46410161513775 2.0 4.0
vertex -3.46410161513775 -2.0 4.0
vertex -2.82842712474619 -2.82842712474619 4.0
endloop
endfacet
facet normal -0.0 -0.0 1.0
outer loop
vertex -3.46410161513775 2.0 4.0
vertex -2.82842712474619 -2.82842712474619 4.0
vertex -2.82842712474619 2.82842712474619 4.0
endloop
endfacet
facet normal -0.0 -0.0 1.0
outer loop
vertex -2.82842712474619 2.82842712474619 4.0
vertex -2.82842712474619 -2.82842712474619 4.0
vertex -2.0 -3.46410161513775 4.0
endloop
endfacet
facet normal -0.0 -0.0 1.0
outer loop
vertex -2.82842712474619 2.82842712474619 4.0
vertex -2.0 -3.46410161513775 4.0
vertex -2.0 3.46410161513775 4.0
endloop
endfacet
facet normal -0.0 -0.0 1.0
outer loop
vertex -2.0 3.46410161513775 4.0
vertex -2.0 -3.46410161513775 4.0
vertex -1.03527618041008 -3.86370330515627 4.0
endloop
endfacet
facet normal -0.0 -0.0 1.0
outer loop
vertex -2.0 3.46410161513775 4.0
vertex -1.03527618041008 -3.86370330515627 4.0
vertex -1.4 3.96587722835359e-016 4.0
endloop
endfacet
facet normal -0.0 -0.0 1.0
outer loop
vertex -1.4 3.96587722835359e-016 4.0
vertex -1.03527618041008 -3.86370330515627 4.0
vertex -1.3522961568047 -0.362346663143529 4.0
endloop
endfacet
facet normal -0.0 -0.0 1.0
outer loop
vertex -1.3522961568047 -0.362346663143529 4.0
vertex -1.03527618041008 -3.86370330515627 4.0
vertex -1.21243556529821 -0.7 4.0
endloop
endfacet
facet normal -0.0 -0.0 1.0
outer loop
vertex -1.21243556529821 -0.7 4.0
vertex -1.03527618041008 -3.86370330515627 4.0
vertex -0.989949493661167 -0.989949493661167 4.0
endloop
endfacet
facet normal -0.0 -0.0 1.0
outer loop
vertex -0.989949493661167 -0.989949493661167 4.0
vertex -1.03527618041008 -3.86370330515627 4.0
vertex 1.28649811974131e-015 -4.0 4.0
endloop
endfacet
facet normal -0.0 -0.0 1.0
outer loop
vertex -0.989949493661167 -0.989949493661167 4.0
vertex 1.28649811974131e-015 -4.0 4.0
vertex -0.7 -1.21243556529821 4.0
endloop
endfacet
facet normal -0.0 -0.0 1.0
outer loop
vertex -0.7 -1.21243556529821 4.0
vertex 1.28649811974131e-015 -4.0 4.0
vertex -0.362346663143529 -1.3522961568047 4.0
endloop
endfacet
facet normal -0.0 -0.0 1.0
outer loop
vertex -0.362346663143529 -1.3522961568047 4.0
vertex 1.28649811974131e-015 -4.0 4.0
vertex 4.50274341909458e-016 -1.4 4.0
endloop
endfacet
facet normal -0.0 -0.0 1.0
outer loop
vertex 4.50274341909458e-016 -1.4 4.0
vertex 1.28649811974131e-015 -4.0 4.0
vertex 0.36234666314353 -1.3522961568047 4.0
endloop
endfacet
facet normal -0.0 -0.0 1.0
outer loop
vertex 0.36234666314353 -1.3522961568047 4.0
vertex 1.28649811974131e-015 -4.0 4.0
vertex 1.03527618041008 -3.86370330515627 4.0
endloop
endfacet
facet normal -0.0 -0.0 1.0
outer loop
vertex 0.36234666314353 -1.3522961568047 4.0
vertex 1.03527618041008 -3.86370330515627 4.0
vertex 0.700000000000001 -1.21243556529821 4.0
endloop
endfacet
facet normal -0.0 -0.0 1.0
outer loop
vertex 0.700000000000001 -1.21243556529821 4.0
vertex 1.03527618041008 -3.86370330515627 4.0
vertex 0.989949493661167 -0.989949493661166 4.0
endloop
endfacet
facet normal -0.0 -0.0 1.0
outer loop
vertex 0.989949493661167 -0.989949493661166 4.0
vertex 1.03527618041008 -3.86370330515627 4.0
vertex 1.21243556529821 -0.7 4.0
endloop
endfacet
facet normal -0.0 -0.0 1.0
outer loop
vertex 1.21243556529821 -0.7 4.0
vertex 1.03527618041008 -3.86370330515627 4.0
vertex 2.0 -3.46410161513775 4.0
endloop
endfacet
facet normal -0.0 -0.0 1.0
outer loop
vertex 1.21243556529821 -0.7 4.0
vertex 2.0 -3.46410161513775 4.0
vertex 1.3522961568047 -0.362346663143529 4.0
endloop
endfacet
facet normal -0.0 -0.0 1.0
outer loop
vertex 1.3522961568047 -0.362346663143529 4.0
vertex 2.0 -3.46410161513775 4.0
vertex 1.4 -2.57175827820944e-016 4.0
endloop
endfacet
facet normal -0.0 -0.0 1.0
outer loop
vertex -1.4 3.96587722835359e-016 4.0
vertex -1.03527618041008 3.86370330515627 4.0
vertex -2.0 3.46410161513775 4.0
endloop
endfacet
facet normal -0.0 -0.0 1.0
outer loop
vertex -1.03527618041008 3.86370330515627 4.0
vertex -1.4 3.96587722835359e-016 4.0
vertex -1.3522961568047 0.362346663143529 4.0
endloop
endfacet
facet normal -0.0 -0.0 1.0
outer loop
vertex -1.03527618041008 3.86370330515627 4.0
vertex -1.3522961568047 0.362346663143529 4.0
vertex -1.21243556529821 0.7 4.0
endloop
endfacet
facet normal -0.0 -0.0 1.0
outer loop
vertex -1.03527618041008 3.86370330515627 4.0
vertex -1.21243556529821 0.7 4.0
vertex -0.989949493661167 0.989949493661167 4.0
endloop
endfacet
facet normal -0.0 -0.0 1.0
outer loop
vertex -1.03527618041008 3.86370330515627 4.0
vertex -0.989949493661167 0.989949493661167 4.0
vertex 8.08514479691888e-015 4.0 4.0
endloop
endfacet
facet normal -0.0 -0.0 1.0
outer loop
vertex 8.08514479691888e-015 4.0 4.0
vertex -0.989949493661167 0.989949493661167 4.0
vertex -0.7 1.21243556529821 4.0
endloop
endfacet
facet normal -0.0 -0.0 1.0
outer loop
vertex 8.08514479691888e-015 4.0 4.0
vertex -0.7 1.21243556529821 4.0
vertex -0.362346663143529 1.3522961568047 4.0
endloop
endfacet
facet normal -0.0 -0.0 1.0
outer loop
vertex 8.08514479691888e-015 4.0 4.0
vertex -0.362346663143529 1.3522961568047 4.0
vertex 2.82980067892161e-015 1.4 4.0
endloop
endfacet
facet normal -0.0 -0.0 1.0
outer loop
vertex 8.08514479691888e-015 4.0 4.0
vertex 2.82980067892161e-015 1.4 4.0
vertex 0.362346663143531 1.35229615680469 4.0
endloop
endfacet
facet normal -0.0 -0.0 1.0
outer loop
vertex 8.08514479691888e-015 4.0 4.0
vertex 0.362346663143531 1.35229615680469 4.0
vertex 1.03527618041009 3.86370330515627 4.0
endloop
endfacet
facet normal -0.0 -0.0 1.0
outer loop
vertex 1.03527618041009 3.86370330515627 4.0
vertex 0.362346663143531 1.35229615680469 4.0
vertex 0.700000000000002 1.21243556529821 4.0
endloop
endfacet
facet normal -0.0 -0.0 1.0
outer loop
vertex 1.03527618041009 3.86370330515627 4.0
vertex 0.700000000000002 1.21243556529821 4.0
vertex 0.989949493661168 0.989949493661165 4.0
endloop
endfacet
facet normal -0.0 -0.0 1.0
outer loop
vertex 1.03527618041009 3.86370330515627 4.0
vertex 0.989949493661168 0.989949493661165 4.0
vertex 1.21243556529821 0.699999999999999 4.0
endloop
endfacet
facet normal -0.0 -0.0 1.0
outer loop
vertex 1.03527618041009 3.86370330515627 4.0
vertex 1.21243556529821 0.699999999999999 4.0
vertex 2.0 3.46410161513775 4.0
endloop
endfacet
facet normal -0.0 -0.0 1.0
outer loop
vertex 2.0 3.46410161513775 4.0
vertex 1.21243556529821 0.699999999999999 4.0
vertex 1.3522961568047 0.362346663143528 4.0
endloop
endfacet
facet normal -0.0 -0.0 1.0
outer loop
vertex 2.0 3.46410161513775 4.0
vertex 1.3522961568047 0.362346663143528 4.0
vertex 1.4 -2.57175827820944e-016 4.0
endloop
endfacet
facet normal -0.0 -0.0 1.0
outer loop
vertex 2.0 3.46410161513775 4.0
vertex 1.4 -2.57175827820944e-016 4.0
vertex 2.0 -3.46410161513775 4.0
endloop
endfacet
facet normal -0.0 -0.0 1.0
outer loop
vertex 2.0 3.46410161513775 4.0
vertex 2.0 -3.46410161513775 4.0
vertex 2.82842712474619 -2.82842712474619 4.0
endloop
endfacet
facet normal -0.0 -0.0 1.0
outer loop
vertex 2.0 3.46410161513775 4.0
vertex 2.82842712474619 -2.82842712474619 4.0
vertex 2.82842712474619 2.82842712474619 4.0
endloop
endfacet
facet normal -0.0 -0.0 1.0
outer loop
vertex 2.82842712474619 2.82842712474619 4.0
vertex 2.82842712474619 -2.82842712474619 4.0
vertex 3.46410161513776 -2.0 4.0
endloop
endfacet
facet normal -0.0 -0.0 1.0
outer loop
vertex 2.82842712474619 2.82842712474619 4.0
vertex 3.46410161513776 -2.0 4.0
vertex 3.46410161513776 2.0 4.0
endloop
endfacet
facet normal -0.0 -0.0 1.0
outer loop
vertex 3.46410161513776 2.0 4.0
vertex 3.46410161513776 -2.0 4.0
vertex 3.86370330515627 -1.03527618041008 4.0
endloop
endfacet
facet normal -0.0 -0.0 1.0
outer loop
vertex 3.46410161513776 2.0 4.0
vertex 3.86370330515627 -1.03527618041008 4.0
vertex 3.86370330515627 1.03527618041008 4.0
endloop
endfacet
facet normal -0.0 -0.0 1.0
outer loop
vertex 3.86370330515627 1.03527618041008 4.0
vertex 3.86370330515627 -1.03527618041008 4.0
vertex 4.0 -7.34788079488412e-016 4.0
endloop
endfacet
facet normal 0.500000000000001 -0.866025403784438 0.0
outer loop
vertex 2.0 -3.46410161513775 4.0
vertex 1.03527618041008 -3.86370330515627 0.0
vertex 2.0 -3.46410161513775 0.0
endloop
endfacet
facet normal 0.258819045102521 -0.965925826289068 0.0
outer loop
vertex 1.03527618041008 -3.86370330515627 0.0
vertex 2.0 -3.46410161513775 4.0
vertex 1.03527618041008 -3.86370330515627 4.0
endloop
endfacet
facet normal 0.258819045102521 -0.965925826289068 0.0
outer loop
vertex 1.03527618041008 -3.86370330515627 4.0
vertex 1.28649811974131e-015 -4.0 0.0
vertex 1.03527618041008 -3.86370330515627 0.0
endloop
endfacet
facet normal 0.0 -1.0 0.0
outer loop
vertex 1.28649811974131e-015 -4.0 0.0
vertex 1.03527618041008 -3.86370330515627 4.0
vertex 1.28649811974131e-015 -4.0 4.0
endloop
endfacet
facet normal 0.0 -1.0 0.0
outer loop
vertex 1.28649811974131e-015 -4.0 4.0
vertex -1.03527618041008 -3.86370330515627 0.0
vertex 1.28649811974131e-015 -4.0 0.0
endloop
endfacet
facet normal -0.258819045102521 -0.965925826289068 0.0
outer loop
vertex -1.03527618041008 -3.86370330515627 0.0
vertex 1.28649811974131e-015 -4.0 4.0
vertex -1.03527618041008 -3.86370330515627 4.0
endloop
endfacet
facet normal -0.258819045102521 -0.965925826289068 0.0
outer loop
vertex -1.03527618041008 -3.86370330515627 4.0
vertex -2.0 -3.46410161513775 0.0
vertex -1.03527618041008 -3.86370330515627 0.0
endloop
endfacet
facet normal -0.5 -0.866025403784439 0.0
outer loop
vertex -2.0 -3.46410161513775 0.0
vertex -1.03527618041008 -3.86370330515627 4.0
vertex -2.0 -3.46410161513775 4.0
endloop
endfacet
facet normal -0.5 -0.866025403784439 0.0
outer loop
vertex -2.0 -3.46410161513775 4.0
vertex -2.82842712474619 -2.82842712474619 0.0
vertex -2.0 -3.46410161513775 0.0
endloop
endfacet
facet normal -0.707106781186548 -0.707106781186547 0.0
outer loop
vertex -2.82842712474619 -2.82842712474619 0.0
vertex -2.0 -3.46410161513775 4.0
vertex -2.82842712474619 -2.82842712474619 4.0
endloop
endfacet
facet normal -0.866025403784439 -0.5 0.0
outer loop
vertex -3.46410161513775 -2.0 4.0
vertex -2.82842712474619 -2.82842712474619 0.0
vertex -2.82842712474619 -2.82842712474619 4.0
endloop
endfacet
facet normal -0.707106781186548 -0.707106781186547 0.0
outer loop
vertex -2.82842712474619 -2.82842712474619 0.0
vertex -3.46410161513775 -2.0 4.0
vertex -3.46410161513775 -2.0 0.0
endloop
endfacet
facet normal -0.965925826289068 -0.258819045102521 0.0
outer loop
vertex -3.86370330515627 -1.03527618041008 4.0
vertex -3.46410161513775 -2.0 0.0
vertex -3.46410161513775 -2.0 4.0
endloop
endfacet
facet normal -0.866025403784439 -0.5 0.0
outer loop
vertex -3.46410161513775 -2.0 0.0
vertex -3.86370330515627 -1.03527618041008 4.0
vertex -3.86370330515627 -1.03527618041008 0.0
endloop
endfacet
facet normal -1.0 3.29711066138935e-016 0.0
outer loop
vertex -4.0 1.1331077795296e-015 4.0
vertex -3.86370330515627 -1.03527618041008 0.0
vertex -3.86370330515627 -1.03527618041008 4.0
endloop
endfacet
facet normal -0.965925826289068 -0.258819045102521 0.0
outer loop
vertex -3.86370330515627 -1.03527618041008 0.0
vertex -4.0 1.1331077795296e-015 4.0
vertex -4.0 1.1331077795296e-015 0.0
endloop
endfacet
facet normal -0.965925826289068 0.258819045102521 0.0
outer loop
vertex -3.86370330515627 1.03527618041008 4.0
vertex -4.0 1.1331077795296e-015 0.0
vertex -4.0 1.1331077795296e-015 4.0
endloop
endfacet
facet normal -1.0 3.29711066138935e-016 0.0
outer loop
vertex -4.0 1.1331077795296e-015 0.0
vertex -3.86370330515627 1.03527618041008 4.0
vertex -3.86370330515627 1.03527618041008 0.0
endloop
endfacet
facet normal -0.866025403784439 0.5 0.0
outer loop
vertex -3.46410161513775 2.0 4.0
vertex -3.86370330515627 1.03527618041008 0.0
vertex -3.86370330515627 1.03527618041008 4.0
endloop
endfacet
facet normal -0.965925826289068 0.258819045102521 0.0
outer loop
vertex -3.86370330515627 1.03527618041008 0.0
vertex -3.46410161513775 2.0 4.0
vertex -3.46410161513775 2.0 0.0
endloop
endfacet
facet normal -0.707106781186547 0.707106781186547 0.0
outer loop
vertex -2.82842712474619 2.82842712474619 4.0
vertex -3.46410161513775 2.0 0.0
vertex -3.46410161513775 2.0 4.0
endloop
endfacet
facet normal -0.866025403784439 0.5 0.0
outer loop
vertex -3.46410161513775 2.0 0.0
vertex -2.82842712474619 2.82842712474619 4.0
vertex -2.82842712474619 2.82842712474619 0.0
endloop
endfacet
facet normal -0.707106781186547 0.707106781186547 0.0
outer loop
vertex -2.82842712474619 2.82842712474619 4.0
vertex -2.0 3.46410161513775 0.0
vertex -2.82842712474619 2.82842712474619 0.0
endloop
endfacet
facet normal -0.5 0.866025403784439 0.0
outer loop
vertex -2.0 3.46410161513775 0.0
vertex -2.82842712474619 2.82842712474619 4.0
vertex -2.0 3.46410161513775 4.0
endloop
endfacet
facet normal -0.5 0.866025403784439 0.0
outer loop
vertex -2.0 3.46410161513775 4.0
vertex -1.03527618041008 3.86370330515627 0.0
vertex -2.0 3.46410161513775 0.0
endloop
endfacet
facet normal -0.25881904510252 0.965925826289069 0.0
outer loop
vertex -1.03527618041008 3.86370330515627 0.0
vertex -2.0 3.46410161513775 4.0
vertex -1.03527618041008 3.86370330515627 4.0
endloop
endfacet
facet normal -0.25881904510252 0.965925826289069 0.0
outer loop
vertex -1.03527618041008 3.86370330515627 4.0
vertex 8.08514479691888e-015 4.0 0.0
vertex -1.03527618041008 3.86370330515627 0.0
endloop
endfacet
facet normal 1.25646649528621e-015 1.0 0.0
outer loop
vertex 8.08514479691888e-015 4.0 0.0
vertex -1.03527618041008 3.86370330515627 4.0
vertex 8.08514479691888e-015 4.0 4.0
endloop
endfacet
facet normal 1.25646649528621e-015 1.0 0.0
outer loop
vertex 8.08514479691888e-015 4.0 4.0
vertex 1.03527618041009 3.86370330515627 0.0
vertex 8.08514479691888e-015 4.0 0.0
endloop
endfacet
facet normal 0.258819045102522 0.965925826289068 0.0
outer loop
vertex 1.03527618041009 3.86370330515627 0.0
vertex 8.08514479691888e-015 4.0 4.0
vertex 1.03527618041009 3.86370330515627 4.0
endloop
endfacet
facet normal 0.258819045102522 0.965925826289068 0.0
outer loop
vertex 1.03527618041009 3.86370330515627 4.0
vertex 2.0 3.46410161513775 0.0
vertex 1.03527618041009 3.86370330515627 0.0
endloop
endfacet
facet normal 0.500000000000001 0.866025403784438 0.0
outer loop
vertex 2.0 3.46410161513775 0.0
vertex 1.03527618041009 3.86370330515627 4.0
vertex 2.0 3.46410161513775 4.0
endloop
endfacet
facet normal 0.500000000000001 0.866025403784438 0.0
outer loop
vertex 2.0 3.46410161513775 4.0
vertex 2.82842712474619 2.82842712474619 0.0
vertex 2.0 3.46410161513775 0.0
endloop
endfacet
facet normal 0.707106781186548 0.707106781186547 0.0
outer loop
vertex 2.82842712474619 2.82842712474619 0.0
vertex 2.0 3.46410161513775 4.0
vertex 2.82842712474619 2.82842712474619 4.0
endloop
endfacet
facet normal 0.707106781186548 0.707106781186547 0.0
outer loop
vertex 2.82842712474619 2.82842712474619 0.0
vertex 3.46410161513776 2.0 4.0
vertex 3.46410161513776 2.0 0.0
endloop
endfacet
facet normal 0.866025403784439 0.499999999999999 0.0
outer loop
vertex 3.46410161513776 2.0 4.0
vertex 2.82842712474619 2.82842712474619 0.0
vertex 2.82842712474619 2.82842712474619 4.0
endloop
endfacet
facet normal 0.866025403784439 0.499999999999999 0.0
outer loop
vertex 3.46410161513776 2.0 0.0
vertex 3.86370330515627 1.03527618041008 4.0
vertex 3.86370330515627 1.03527618041008 0.0
endloop
endfacet
facet normal 0.965925826289069 0.25881904510252 0.0
outer loop
vertex 3.86370330515627 1.03527618041008 4.0
vertex 3.46410161513776 2.0 0.0
vertex 3.46410161513776 2.0 4.0
endloop
endfacet
facet normal 0.965925826289069 0.25881904510252 0.0
outer loop
vertex 3.86370330515627 1.03527618041008 0.0
vertex 4.0 -7.34788079488412e-016 4.0
vertex 4.0 -7.34788079488412e-016 0.0
endloop
endfacet
facet normal 1.0 -3.29711066138935e-016 0.0
outer loop
vertex 4.0 -7.34788079488412e-016 4.0
vertex 3.86370330515627 1.03527618041008 0.0
vertex 3.86370330515627 1.03527618041008 4.0
endloop
endfacet
facet normal 1.0 -3.29711066138935e-016 0.0
outer loop
vertex 4.0 -7.34788079488412e-016 0.0
vertex 3.86370330515627 -1.03527618041008 4.0
vertex 3.86370330515627 -1.03527618041008 0.0
endloop
endfacet
facet normal 0.965925826289068 -0.258819045102521 0.0
outer loop
vertex 3.86370330515627 -1.03527618041008 4.0
vertex 4.0 -7.34788079488412e-016 0.0
vertex 4.0 -7.34788079488412e-016 4.0
endloop
endfacet
facet normal 0.965925826289068 -0.258819045102521 0.0
outer loop
vertex 3.86370330515627 -1.03527618041008 0.0
vertex 3.46410161513776 -2.0 4.0
vertex 3.46410161513776 -2.0 0.0
endloop
endfacet
facet normal 0.866025403784439 -0.5 0.0
outer loop
vertex 3.46410161513776 -2.0 4.0
vertex 3.86370330515627 -1.03527618041008 0.0
vertex 3.86370330515627 -1.03527618041008 4.0
endloop
endfacet
facet normal 0.866025403784439 -0.5 0.0
outer loop
vertex 3.46410161513776 -2.0 0.0
vertex 2.82842712474619 -2.82842712474619 4.0
vertex 2.82842712474619 -2.82842712474619 0.0
endloop
endfacet
facet normal 0.707106781186548 -0.707106781186547 0.0
outer loop
vertex 2.82842712474619 -2.82842712474619 4.0
vertex 3.46410161513776 -2.0 0.0
vertex 3.46410161513776 -2.0 4.0
endloop
endfacet
facet normal 0.707106781186548 -0.707106781186547 0.0
outer loop
vertex 2.82842712474619 -2.82842712474619 4.0
vertex 2.0 -3.46410161513775 0.0
vertex 2.82842712474619 -2.82842712474619 0.0
endloop
endfacet
facet normal 0.500000000000001 -0.866025403784438 0.0
outer loop
vertex 2.0 -3.46410161513775 0.0
vertex 2.82842712474619 -2.82842712474619 4.0
vertex 2.0 -3.46410161513775 4.0
endloop
endfacet
facet normal -0.866025403784439 0.5 6.45546812683812e-019
outer loop
vertex 1.21243556529821 -0.7 4.0
vertex 0.989949493661167 -0.989949493661166 1.0
vertex 0.989949493661167 -0.989949493661166 4.0
endloop
endfacet
facet normal -0.707106781186548 0.707106781186547 2.04622032235086e-018
outer loop
vertex 0.989949493661167 -0.989949493661166 1.0
vertex 1.21243556529821 -0.7 4.0
vertex 1.21243556529821 -0.7 1.0
endloop
endfacet
facet normal -0.965925826289068 0.258819045102521 4.92788786150229e-019
outer loop
vertex 1.3522961568047 -0.362346663143529 4.0
vertex 1.21243556529821 -0.7 1.0
vertex 1.21243556529821 -0.7 4.0
endloop
endfacet
facet normal -0.866025403784439 0.5 6.45546812683812e-019
outer loop
vertex 1.21243556529821 -0.7 1.0
vertex 1.3522961568047 -0.362346663143529 4.0
vertex 1.3522961568047 -0.362346663143529 1.0
endloop
endfacet
facet normal -1.0 2.67333296869407e-016 1.32820383146583e-019
outer loop
vertex 1.4 -2.57175827820944e-016 4.0
vertex 1.3522961568047 -0.362346663143529 1.0
vertex 1.3522961568047 -0.362346663143529 4.0
endloop
endfacet
facet normal -0.965925826289068 0.258819045102521 4.92788786150229e-019
outer loop
vertex 1.3522961568047 -0.362346663143529 1.0
vertex 1.4 -2.57175827820944e-016 4.0
vertex 1.4 -2.57175827820944e-016 1.0
endloop
endfacet
facet normal -0.965925826289068 -0.25881904510252 6.97659474253685e-020
outer loop
vertex 1.3522961568047 0.362346663143528 4.0
vertex 1.4 -2.57175827820944e-016 1.0
vertex 1.4 -2.57175827820944e-016 4.0
endloop
endfacet
facet normal -1.0 2.67333296869407e-016 1.32820383146583e-019
outer loop
vertex 1.4 -2.57175827820944e-016 1.0
vertex 1.3522961568047 0.362346663143528 4.0
vertex 1.3522961568047 0.362346663143528 1.0
endloop
endfacet
facet normal -0.866025403784439 -0.499999999999999 -7.13379505317868e-019
outer loop
vertex 1.21243556529821 0.699999999999999 4.0
vertex 1.3522961568047 0.362346663143528 1.0
vertex 1.3522961568047 0.362346663143528 4.0
endloop
endfacet
facet normal -0.965925826289068 -0.25881904510252 6.97659474253685e-020
outer loop
vertex 1.3522961568047 0.362346663143528 1.0
vertex 1.21243556529821 0.699999999999999 4.0
vertex 1.21243556529821 0.699999999999999 1.0
endloop
endfacet
facet normal -0.707106781186548 -0.707106781186547 5.11555080587705e-019
outer loop
vertex 0.989949493661168 0.989949493661165 4.0
vertex 1.21243556529821 0.699999999999999 1.0
vertex 1.21243556529821 0.699999999999999 4.0
endloop
endfacet
facet normal -0.866025403784439 -0.499999999999999 -7.13379505317868e-019
outer loop
vertex 1.21243556529821 0.699999999999999 1.0
vertex 0.989949493661168 0.989949493661165 4.0
vertex 0.989949493661168 0.989949493661165 1.0
endloop
endfacet
facet normal -0.707106781186548 -0.707106781186547 5.11555080587705e-019
outer loop
vertex 0.989949493661168 0.989949493661165 4.0
vertex 0.700000000000002 1.21243556529821 1.0
vertex 0.989949493661168 0.989949493661165 1.0
endloop
endfacet
facet normal -0.500000000000001 -0.866025403784438 -2.99297985898315e-019
outer loop
vertex 0.700000000000002 1.21243556529821 1.0
vertex 0.989949493661168 0.989949493661165 4.0
vertex 0.700000000000002 1.21243556529821 4.0
endloop
endfacet
facet normal -0.500000000000001 -0.866025403784438 -2.99297985898315e-019
outer loop
vertex 0.700000000000002 1.21243556529821 4.0
vertex 0.362346663143531 1.35229615680469 1.0
vertex 0.700000000000002 1.21243556529821 1.0
endloop
endfacet
facet normal -0.258819045102523 -0.965925826289068 -1.26530331721485e-018
outer loop
vertex 0.362346663143531 1.35229615680469 1.0
vertex 0.700000000000002 1.21243556529821 4.0
vertex 0.362346663143531 1.35229615680469 4.0
endloop
endfacet
facet normal -0.258819045102523 -0.965925826289068 -1.26530331721485e-018
outer loop
vertex 0.362346663143531 1.35229615680469 4.0
vertex 2.82980067892161e-015 1.4 1.0
vertex 0.362346663143531 1.35229615680469 1.0
endloop
endfacet
facet normal -1.56835534163386e-015 -1.0 3.21983690310256e-019
outer loop
vertex 2.82980067892161e-015 1.4 1.0
vertex 0.362346663143531 1.35229615680469 4.0
vertex 2.82980067892161e-015 1.4 4.0
endloop
endfacet
facet normal -1.56835534163386e-015 -1.0 3.21983690310256e-019
outer loop
vertex 2.82980067892161e-015 1.4 4.0
vertex -0.362346663143529 1.3522961568047 1.0
vertex 2.82980067892161e-015 1.4 1.0
endloop
endfacet
facet normal 0.25881904510252 -0.965925826289068 1.03379126325807e-019
outer loop
vertex -0.362346663143529 1.3522961568047 1.0
vertex 2.82980067892161e-015 1.4 4.0
vertex -0.362346663143529 1.3522961568047 4.0
endloop
endfacet
facet normal 0.25881904510252 -0.965925826289068 1.03379126325807e-019
outer loop
vertex -0.362346663143529 1.3522961568047 4.0
vertex -0.7 1.21243556529821 1.0
vertex -0.362346663143529 1.3522961568047 1.0
endloop
endfacet
facet normal 0.5 -0.866025403784439 3.36067308937502e-019
outer loop
vertex -0.7 1.21243556529821 1.0
vertex -0.362346663143529 1.3522961568047 4.0
vertex -0.7 1.21243556529821 4.0
endloop
endfacet
facet normal 0.5 -0.866025403784439 3.36067308937502e-019
outer loop
vertex -0.7 1.21243556529821 4.0
vertex -0.989949493661167 0.989949493661167 1.0
vertex -0.7 1.21243556529821 1.0
endloop
endfacet
facet normal 0.707106781186547 -0.707106781186548 1.11702835477818e-018
outer loop
vertex -0.989949493661167 0.989949493661167 1.0
vertex -0.7 1.21243556529821 4.0
vertex -0.989949493661167 0.989949493661167 4.0
endloop
endfacet
facet normal 0.707106781186547 -0.707106781186548 1.11702835477818e-018
outer loop
vertex -0.989949493661167 0.989949493661167 1.0
vertex -1.21243556529821 0.7 4.0
vertex -1.21243556529821 0.7 1.0
endloop
endfacet
facet normal 0.866025403784439 -0.5 1.96846556104033e-019
outer loop
vertex -1.21243556529821 0.7 4.0
vertex -0.989949493661167 0.989949493661167 1.0
vertex -0.989949493661167 0.989949493661167 4.0
endloop
endfacet
facet normal 0.866025403784439 -0.5 1.96846556104033e-019
outer loop
vertex -1.21243556529821 0.7 1.0
vertex -1.3522961568047 0.362346663143529 4.0
vertex -1.3522961568047 0.362346663143529 1.0
endloop
endfacet
facet normal 0.965925826289068 -0.258819045102521 -6.87493616062471e-019
outer loop
vertex -1.3522961568047 0.362346663143529 4.0
vertex -1.21243556529821 0.7 1.0
vertex -1.21243556529821 0.7 4.0
endloop
endfacet
facet normal 0.965925826289068 -0.258819045102521 -6.87493616062471e-019
outer loop
vertex -1.3522961568047 0.362346663143529 1.0
vertex -1.4 3.96587722835359e-016 4.0
vertex -1.4 3.96587722835359e-016 1.0
endloop
endfacet
facet normal 1.0 -4.81199934364933e-016 -1.26108871442468e-019
outer loop
vertex -1.4 3.96587722835359e-016 4.0
vertex -1.3522961568047 0.362346663143529 1.0
vertex -1.3522961568047 0.362346663143529 4.0
endloop
endfacet
facet normal 1.0 -4.81199934364933e-016 -1.26108871442468e-019
outer loop
vertex -1.4 3.96587722835359e-016 1.0
vertex -1.3522961568047 -0.362346663143529 4.0
vertex -1.3522961568047 -0.362346663143529 1.0
endloop
endfacet
facet normal 0.965925826289068 0.258819045102521 -4.12139404941077e-019
outer loop
vertex -1.3522961568047 -0.362346663143529 4.0
vertex -1.4 3.96587722835359e-016 1.0
vertex -1.4 3.96587722835359e-016 4.0
endloop
endfacet
facet normal 0.965925826289068 0.258819045102521 -4.12139404941077e-019
outer loop
vertex -1.3522961568047 -0.362346663143529 1.0
vertex -1.21243556529821 -0.7 4.0
vertex -1.21243556529821 -0.7 1.0
endloop
endfacet
facet normal 0.866025403784439 0.5 2.56388304970621e-019
outer loop
vertex -1.21243556529821 -0.7 4.0
vertex -1.3522961568047 -0.362346663143529 1.0
vertex -1.3522961568047 -0.362346663143529 4.0
endloop
endfacet
facet normal 0.866025403784439 0.5 2.56388304970621e-019
outer loop
vertex -1.21243556529821 -0.7 1.0
vertex -0.989949493661167 -0.989949493661167 4.0
vertex -0.989949493661167 -0.989949493661167 1.0
endloop
endfacet
facet normal 0.707106781186548 0.707106781186547 1.52067720423849e-018
outer loop
vertex -0.989949493661167 -0.989949493661167 4.0
vertex -1.21243556529821 -0.7 1.0
vertex -1.21243556529821 -0.7 4.0
endloop
endfacet
facet normal 0.707106781186548 0.707106781186547 1.52067720423849e-018
outer loop
vertex -0.989949493661167 -0.989949493661167 4.0
vertex -0.7 -1.21243556529821 1.0
vertex -0.989949493661167 -0.989949493661167 1.0
endloop
endfacet
facet normal 0.5 0.866025403784439 4.85469579618999e-019
outer loop
vertex -0.7 -1.21243556529821 1.0
vertex -0.989949493661167 -0.989949493661167 4.0
vertex -0.7 -1.21243556529821 4.0
endloop
endfacet
facet normal 0.5 0.866025403784439 4.85469579618999e-019
outer loop
vertex -0.7 -1.21243556529821 4.0
vertex -0.362346663143529 -1.3522961568047 1.0
vertex -0.7 -1.21243556529821 1.0
endloop
endfacet
facet normal 0.258819045102521 0.965925826289068 -3.66679914707808e-019
outer loop
vertex -0.362346663143529 -1.3522961568047 1.0
vertex -0.7 -1.21243556529821 4.0
vertex -0.362346663143529 -1.3522961568047 4.0
endloop
endfacet
facet normal 0.258819045102521 0.965925826289068 -3.66679914707808e-019
outer loop
vertex -0.362346663143529 -1.3522961568047 4.0
vertex 4.50274341909458e-016 -1.4 1.0
vertex -0.362346663143529 -1.3522961568047 1.0
endloop
endfacet
facet normal -2.04955527599879e-016 1.0 -6.64101915733083e-020
outer loop
vertex 4.50274341909458e-016 -1.4 1.0
vertex -0.362346663143529 -1.3522961568047 4.0
vertex 4.50274341909458e-016 -1.4 4.0
endloop
endfacet
facet normal -2.04955527599879e-016 1.0 -6.64101915733083e-020
outer loop
vertex 4.50274341909458e-016 -1.4 4.0
vertex 0.36234666314353 -1.3522961568047 1.0
vertex 4.50274341909458e-016 -1.4 1.0
endloop
endfacet
facet normal -0.258819045102521 0.965925826289068 4.94974553046683e-019
outer loop
vertex 0.36234666314353 -1.3522961568047 1.0
vertex 4.50274341909458e-016 -1.4 4.0
vertex 0.36234666314353 -1.3522961568047 4.0
endloop
endfacet
facet normal -0.258819045102521 0.965925826289068 4.94974553046683e-019
outer loop
vertex 0.36234666314353 -1.3522961568047 4.0
vertex 0.700000000000001 -1.21243556529821 1.0
vertex 0.36234666314353 -1.3522961568047 1.0
endloop
endfacet
facet normal -0.500000000000001 0.866025403784438 2.45484704043727e-018
outer loop
vertex 0.700000000000001 -1.21243556529821 1.0
vertex 0.36234666314353 -1.3522961568047 4.0
vertex 0.700000000000001 -1.21243556529821 4.0
endloop
endfacet
facet normal -0.500000000000001 0.866025403784438 2.45484704043727e-018
outer loop
vertex 0.700000000000001 -1.21243556529821 4.0
vertex 0.989949493661167 -0.989949493661166 1.0
vertex 0.700000000000001 -1.21243556529821 1.0
endloop
endfacet
facet normal -0.707106781186548 0.707106781186547 2.04622032235086e-018
outer loop
vertex 0.989949493661167 -0.989949493661166 1.0
vertex 0.700000000000001 -1.21243556529821 4.0
vertex 0.989949493661167 -0.989949493661166 4.0
endloop
endfacet
facet normal -0.0 -0.0 1.0
outer loop
vertex -1.3522961568047 -0.362346663143529 1.0
vertex -1.3522961568047 0.362346663143529 1.0
vertex -1.4 3.96587722835359e-016 1.0
endloop
endfacet
facet normal -0.0 -0.0 1.0
outer loop
vertex -1.3522961568047 0.362346663143529 1.0
vertex -1.3522961568047 -0.362346663143529 1.0
vertex -1.21243556529821 -0.7 1.0
endloop
endfacet
facet normal -0.0 -0.0 1.0
outer loop
vertex -1.3522961568047 0.362346663143529 1.0
vertex -1.21243556529821 -0.7 1.0
vertex -1.21243556529821 0.7 1.0
endloop
endfacet
facet normal -0.0 -0.0 1.0
outer loop
vertex -1.21243556529821 0.7 1.0
vertex -1.21243556529821 -0.7 1.0
vertex -0.989949493661167 -0.989949493661167 1.0
endloop
endfacet
facet normal -0.0 -0.0 1.0
outer loop
vertex -1.21243556529821 0.7 1.0
vertex -0.989949493661167 -0.989949493661167 1.0
vertex -0.989949493661167 0.989949493661167 1.0
endloop
endfacet
facet normal -0.0 -0.0 1.0
outer loop
vertex -0.989949493661167 0.989949493661167 1.0
vertex -0.989949493661167 -0.989949493661167 1.0
vertex -0.7 -1.21243556529821 1.0
endloop
endfacet
facet normal -0.0 -0.0 1.0
outer loop
vertex -0.989949493661167 0.989949493661167 1.0
vertex -0.7 -1.21243556529821 1.0
vertex -0.7 1.21243556529821 1.0
endloop
endfacet
facet normal -0.0 -0.0 1.0
outer loop
vertex -0.7 1.21243556529821 1.0
vertex -0.7 -1.21243556529821 1.0
vertex -0.362346663143529 -1.3522961568047 1.0
endloop
endfacet
facet normal -0.0 -0.0 1.0
outer loop
vertex -0.7 1.21243556529821 1.0
vertex -0.362346663143529 -1.3522961568047 1.0
vertex -0.362346663143529 1.3522961568047 1.0
endloop
endfacet
facet normal -0.0 -0.0 1.0
outer loop
vertex -0.362346663143529 1.3522961568047 1.0
vertex -0.362346663143529 -1.3522961568047 1.0
vertex 2.82980067892161e-015 1.4 1.0
endloop
endfacet
facet normal -0.0 -0.0 1.0
outer loop
vertex 2.82980067892161e-015 1.4 1.0
vertex -0.362346663143529 -1.3522961568047 1.0
vertex 4.50274341909458e-016 -1.4 1.0
endloop
endfacet
facet normal -0.0 -0.0 1.0
outer loop
vertex 2.82980067892161e-015 1.4 1.0
vertex 4.50274341909458e-016 -1.4 1.0
vertex 0.36234666314353 -1.3522961568047 1.0
endloop
endfacet
facet normal -0.0 -0.0 1.0
outer loop
vertex 2.82980067892161e-015 1.4 1.0
vertex 0.36234666314353 -1.3522961568047 1.0
vertex 0.362346663143531 1.35229615680469 1.0
endloop
endfacet
facet normal -0.0 -0.0 1.0
outer loop
vertex 0.362346663143531 1.35229615680469 1.0
vertex 0.36234666314353 -1.3522961568047 1.0
vertex 0.700000000000001 -1.21243556529821 1.0
endloop
endfacet
facet normal -0.0 -0.0 1.0
outer loop
vertex 0.362346663143531 1.35229615680469 1.0
vertex 0.700000000000001 -1.21243556529821 1.0
vertex 0.700000000000002 1.21243556529821 1.0
endloop
endfacet
facet normal -0.0 -0.0 1.0
outer loop
vertex 0.700000000000002 1.21243556529821 1.0
vertex 0.700000000000001 -1.21243556529821 1.0
vertex 0.989949493661167 -0.989949493661166 1.0
endloop
endfacet
facet normal -0.0 -0.0 1.0
outer loop
vertex 0.700000000000002 1.21243556529821 1.0
vertex 0.989949493661167 -0.989949493661166 1.0
vertex 0.989949493661168 0.989949493661165 1.0
endloop
endfacet
facet normal -0.0 -0.0 1.0
outer loop
vertex 0.989949493661168 0.989949493661165 1.0
vertex 0.989949493661167 -0.989949493661166 1.0
vertex 1.21243556529821 -0.7 1.0
endloop
endfacet
facet normal -0.0 -0.0 1.0
outer loop
vertex 0.989949493661168 0.989949493661165 1.0
vertex 1.21243556529821 -0.7 1.0
vertex 1.21243556529821 0.699999999999999 1.0
endloop
endfacet
facet normal -0.0 -0.0 1.0
outer loop
vertex 1.21243556529821 0.699999999999999 1.0
vertex 1.21243556529821 -0.7 1.0
vertex 1.3522961568047 -0.362346663143529 1.0
endloop
endfacet
facet normal -0.0 -0.0 1.0
outer loop
vertex 1.21243556529821 0.699999999999999 1.0
vertex 1.3522961568047 -0.362346663143529 1.0
vertex 1.3522961568047 0.362346663143528 1.0
endloop
endfacet
facet normal -0.0 -0.0 1.0
outer loop
vertex 1.3522961568047 0.362346663143528 1.0
vertex 1.3522961568047 -0.362346663143529 1.0
vertex 1.4 -2.57175827820944e-016 1.0
endloop
endfacet
endsolid screw-contact-pad
