solid motor-wheel-v
facet normal -0.0 -0.0 1.0
outer loop
vertex -4.94974746830583 -4.94974746830583 6.99999999999999
vertex -5.0 -1.08564446755241e-015 6.99999999999999
vertex -5.66311896062463 -4.11449676604731 6.99999999999999
endloop
endfacet
facet normal -0.0 -0.0 1.0
outer loop
vertex -5.0 -1.08564446755241e-015 6.99999999999999
vertex -4.94974746830583 -4.94974746830583 6.99999999999999
vertex -4.93844170297569 -0.782172325201155 6.99999999999999
endloop
endfacet
facet normal -0.0 -0.0 1.0
outer loop
vertex -4.93844170297569 -0.782172325201155 6.99999999999999
vertex -4.94974746830583 -4.94974746830583 6.99999999999999
vertex -4.11449676604731 -5.66311896062463 6.99999999999999
endloop
endfacet
facet normal -0.0 -0.0 1.0
outer loop
vertex -4.93844170297569 -0.782172325201155 6.99999999999999
vertex -4.11449676604731 -5.66311896062463 6.99999999999999
vertex -4.75528258147577 -1.54508497187474 6.99999999999999
endloop
endfacet
facet normal -0.0 -0.0 1.0
outer loop
vertex -4.75528258147577 -1.54508497187474 6.99999999999999
vertex -4.11449676604731 -5.66311896062463 6.99999999999999
vertex -4.45503262094184 -2.26995249869773 6.99999999999999
endloop
endfacet
facet normal -0.0 -0.0 1.0
outer loop
vertex -4.45503262094184 -2.26995249869773 6.99999999999999
vertex -4.11449676604731 -5.66311896062463 6.99999999999999
vertex -4.04508497187474 -2.93892626146237 6.99999999999999
endloop
endfacet
facet normal -0.0 -0.0 1.0
outer loop
vertex -4.04508497187474 -2.93892626146237 6.99999999999999
vertex -4.11449676604731 -5.66311896062463 6.99999999999999
vertex -3.17793349817683 -6.23704566931858 6.99999999999999
endloop
endfacet
facet normal -0.0 -0.0 1.0
outer loop
vertex -4.04508497187474 -2.93892626146237 6.99999999999999
vertex -3.17793349817683 -6.23704566931858 6.99999999999999
vertex -3.53553390593274 -3.53553390593274 6.99999999999999
endloop
endfacet
facet normal -0.0 -0.0 1.0
outer loop
vertex -3.53553390593274 -3.53553390593274 6.99999999999999
vertex -3.17793349817683 -6.23704566931858 6.99999999999999
vertex -2.93892626146236 -4.04508497187474 6.99999999999999
endloop
endfacet
facet normal -0.0 -0.0 1.0
outer loop
vertex -2.93892626146236 -4.04508497187474 6.99999999999999
vertex -3.17793349817683 -6.23704566931858 6.99999999999999
vertex -2.16311896062463 -6.65739561406607 6.99999999999999
endloop
endfacet
facet normal -0.0 -0.0 1.0
outer loop
vertex -2.93892626146236 -4.04508497187474 6.99999999999999
vertex -2.16311896062463 -6.65739561406607 6.99999999999999
vertex -2.26995249869773 -4.45503262094184 6.99999999999999
endloop
endfacet
facet normal -0.0 -0.0 1.0
outer loop
vertex -2.26995249869773 -4.45503262094184 6.99999999999999
vertex -2.16311896062463 -6.65739561406607 6.99999999999999
vertex -1.54508497187474 -4.75528258147577 6.99999999999999
endloop
endfacet
facet normal -0.0 -0.0 1.0
outer loop
vertex -1.54508497187474 -4.75528258147577 6.99999999999999
vertex -2.16311896062463 -6.65739561406607 6.99999999999999
vertex -1.09504125528161 -6.91381838416596 6.99999999999999
endloop
endfacet
facet normal -0.0 -0.0 1.0
outer loop
vertex -1.54508497187474 -4.75528258147577 6.99999999999999
vertex -1.09504125528161 -6.91381838416596 6.99999999999999
vertex -0.782172325201152 -4.93844170297569 6.99999999999999
endloop
endfacet
facet normal -0.0 -0.0 1.0
outer loop
vertex -0.782172325201152 -4.93844170297569 6.99999999999999
vertex -1.09504125528161 -6.91381838416596 6.99999999999999
vertex 2.3955103730502e-015 -7.0 6.99999999999999
endloop
endfacet
facet normal -0.0 -0.0 1.0
outer loop
vertex -0.782172325201152 -4.93844170297569 6.99999999999999
vertex 2.3955103730502e-015 -7.0 6.99999999999999
vertex 1.66072229356179e-015 -5.0 6.99999999999999
endloop
endfacet
facet normal -0.0 -0.0 1.0
outer loop
vertex 1.66072229356179e-015 -5.0 6.99999999999999
vertex 2.3955103730502e-015 -7.0 6.99999999999999
vertex 0.782172325201156 -4.93844170297569 6.99999999999999
endloop
endfacet
facet normal -0.0 -0.0 1.0
outer loop
vertex 0.782172325201156 -4.93844170297569 6.99999999999999
vertex 2.3955103730502e-015 -7.0 6.99999999999999
vertex 1.09504125528162 -6.91381838416596 6.99999999999999
endloop
endfacet
facet normal -0.0 -0.0 1.0
outer loop
vertex 0.782172325201156 -4.93844170297569 6.99999999999999
vertex 1.09504125528162 -6.91381838416596 6.99999999999999
vertex 1.54508497187474 -4.75528258147577 6.99999999999999
endloop
endfacet
facet normal -0.0 -0.0 1.0
outer loop
vertex 1.54508497187474 -4.75528258147577 6.99999999999999
vertex 1.09504125528162 -6.91381838416596 6.99999999999999
vertex 2.16311896062463 -6.65739561406607 6.99999999999999
endloop
endfacet
facet normal -0.0 -0.0 1.0
outer loop
vertex 1.54508497187474 -4.75528258147577 6.99999999999999
vertex 2.16311896062463 -6.65739561406607 6.99999999999999
vertex 2.26995249869774 -4.45503262094184 6.99999999999999
endloop
endfacet
facet normal -0.0 -0.0 1.0
outer loop
vertex 2.26995249869774 -4.45503262094184 6.99999999999999
vertex 2.16311896062463 -6.65739561406607 6.99999999999999
vertex 3.17793349817683 -6.23704566931857 6.99999999999999
endloop
endfacet
facet normal -0.0 -0.0 1.0
outer loop
vertex 2.26995249869774 -4.45503262094184 6.99999999999999
vertex 3.17793349817683 -6.23704566931857 6.99999999999999
vertex 2.93892626146237 -4.04508497187473 6.99999999999999
endloop
endfacet
facet normal -0.0 -0.0 1.0
outer loop
vertex 2.93892626146237 -4.04508497187473 6.99999999999999
vertex 3.17793349817683 -6.23704566931857 6.99999999999999
vertex 3.53553390593274 -3.53553390593273 6.99999999999999
endloop
endfacet
facet normal -0.0 -0.0 1.0
outer loop
vertex 3.53553390593274 -3.53553390593273 6.99999999999999
vertex 3.17793349817683 -6.23704566931857 6.99999999999999
vertex 4.11449676604731 -5.66311896062463 6.99999999999999
endloop
endfacet
facet normal -0.0 -0.0 1.0
outer loop
vertex 3.53553390593274 -3.53553390593273 6.99999999999999
vertex 4.11449676604731 -5.66311896062463 6.99999999999999
vertex 4.04508497187474 -2.93892626146236 6.99999999999999
endloop
endfacet
facet normal -0.0 -0.0 1.0
outer loop
vertex 4.04508497187474 -2.93892626146236 6.99999999999999
vertex 4.11449676604731 -5.66311896062463 6.99999999999999
vertex 4.45503262094184 -2.26995249869773 6.99999999999999
endloop
endfacet
facet normal -0.0 -0.0 1.0
outer loop
vertex 4.45503262094184 -2.26995249869773 6.99999999999999
vertex 4.11449676604731 -5.66311896062463 6.99999999999999
vertex 4.94974746830583 -4.94974746830583 6.99999999999999
endloop
endfacet
facet normal -0.0 -0.0 1.0
outer loop
vertex 4.45503262094184 -2.26995249869773 6.99999999999999
vertex 4.94974746830583 -4.94974746830583 6.99999999999999
vertex 4.75528258147577 -1.54508497187473 6.99999999999999
endloop
endfacet
facet normal -0.0 -0.0 1.0
outer loop
vertex 4.75528258147577 -1.54508497187473 6.99999999999999
vertex 4.94974746830583 -4.94974746830583 6.99999999999999
vertex 4.93844170297569 -0.782172325201152 6.99999999999999
endloop
endfacet
facet normal -0.0 -0.0 1.0
outer loop
vertex 4.93844170297569 -0.782172325201152 6.99999999999999
vertex 4.94974746830583 -4.94974746830583 6.99999999999999
vertex 5.0 2.58829592988965e-015 6.99999999999999
endloop
endfacet
facet normal -0.0 -0.0 1.0
outer loop
vertex 5.0 2.58829592988965e-015 6.99999999999999
vertex 4.94974746830583 -4.94974746830583 6.99999999999999
vertex 5.66311896062463 -4.11449676604731 6.99999999999999
endloop
endfacet
facet normal -0.0 -0.0 1.0
outer loop
vertex 5.0 2.58829592988965e-015 6.99999999999999
vertex 5.66311896062463 -4.11449676604731 6.99999999999999
vertex 5.66311896062463 4.11449676604731 6.99999999999999
endloop
endfacet
facet normal -0.0 -0.0 1.0
outer loop
vertex 5.66311896062463 4.11449676604731 6.99999999999999
vertex 5.66311896062463 -4.11449676604731 6.99999999999999
vertex 6.23704566931857 3.17793349817683 6.99999999999999
endloop
endfacet
facet normal -0.0 -0.0 1.0
outer loop
vertex 6.23704566931857 3.17793349817683 6.99999999999999
vertex 5.66311896062463 -4.11449676604731 6.99999999999999
vertex 6.23704566931858 -3.17793349817682 6.99999999999999
endloop
endfacet
facet normal -0.0 -0.0 1.0
outer loop
vertex 6.23704566931857 3.17793349817683 6.99999999999999
vertex 6.23704566931858 -3.17793349817682 6.99999999999999
vertex 6.65739561406607 2.16311896062463 6.99999999999999
endloop
endfacet
facet normal -0.0 -0.0 1.0
outer loop
vertex 6.65739561406607 2.16311896062463 6.99999999999999
vertex 6.23704566931858 -3.17793349817682 6.99999999999999
vertex 6.65739561406608 -2.16311896062463 6.99999999999999
endloop
endfacet
facet normal -0.0 -0.0 1.0
outer loop
vertex 6.65739561406607 2.16311896062463 6.99999999999999
vertex 6.65739561406608 -2.16311896062463 6.99999999999999
vertex 6.91381838416596 1.09504125528162 6.99999999999999
endloop
endfacet
facet normal -0.0 -0.0 1.0
outer loop
vertex 6.91381838416596 1.09504125528162 6.99999999999999
vertex 6.65739561406608 -2.16311896062463 6.99999999999999
vertex 6.91381838416596 -1.09504125528161 6.99999999999999
endloop
endfacet
facet normal -0.0 -0.0 1.0
outer loop
vertex 6.91381838416596 1.09504125528162 6.99999999999999
vertex 6.91381838416596 -1.09504125528161 6.99999999999999
vertex 7.0 3.20061932946333e-015 6.99999999999999
endloop
endfacet
facet normal -0.0 -0.0 1.0
outer loop
vertex -6.91381838416596 -1.09504125528162 6.99999999999999
vertex -6.91381838416596 1.09504125528161 6.99999999999999
vertex -7.0 -1.94289722695555e-015 6.99999999999999
endloop
endfacet
facet normal -0.0 -0.0 1.0
outer loop
vertex -6.91381838416596 1.09504125528161 6.99999999999999
vertex -6.91381838416596 -1.09504125528162 6.99999999999999
vertex -6.65739561406608 -2.16311896062463 6.99999999999999
endloop
endfacet
facet normal -0.0 -0.0 1.0
outer loop
vertex -6.91381838416596 1.09504125528161 6.99999999999999
vertex -6.65739561406608 -2.16311896062463 6.99999999999999
vertex -6.65739561406608 2.16311896062463 6.99999999999999
endloop
endfacet
facet normal -0.0 -0.0 1.0
outer loop
vertex -6.65739561406608 2.16311896062463 6.99999999999999
vertex -6.65739561406608 -2.16311896062463 6.99999999999999
vertex -6.23704566931858 3.17793349817683 6.99999999999999
endloop
endfacet
facet normal -0.0 -0.0 1.0
outer loop
vertex -6.23704566931858 3.17793349817683 6.99999999999999
vertex -6.65739561406608 -2.16311896062463 6.99999999999999
vertex -6.23704566931857 -3.17793349817683 6.99999999999999
endloop
endfacet
facet normal -0.0 -0.0 1.0
outer loop
vertex -6.23704566931858 3.17793349817683 6.99999999999999
vertex -6.23704566931857 -3.17793349817683 6.99999999999999
vertex -5.66311896062463 4.11449676604731 6.99999999999999
endloop
endfacet
facet normal -0.0 -0.0 1.0
outer loop
vertex -5.66311896062463 4.11449676604731 6.99999999999999
vertex -6.23704566931857 -3.17793349817683 6.99999999999999
vertex -5.66311896062463 -4.11449676604731 6.99999999999999
endloop
endfacet
facet normal -0.0 -0.0 1.0
outer loop
vertex -5.66311896062463 4.11449676604731 6.99999999999999
vertex -5.66311896062463 -4.11449676604731 6.99999999999999
vertex -4.94974746830584 4.94974746830583 6.99999999999999
endloop
endfacet
facet normal -0.0 -0.0 1.0
outer loop
vertex -4.94974746830584 4.94974746830583 6.99999999999999
vertex -5.66311896062463 -4.11449676604731 6.99999999999999
vertex -5.0 -1.08564446755241e-015 6.99999999999999
endloop
endfacet
facet normal -0.0 -0.0 1.0
outer loop
vertex -4.94974746830584 4.94974746830583 6.99999999999999
vertex -5.0 -1.08564446755241e-015 6.99999999999999
vertex -4.93844170297569 0.782172325201153 6.99999999999999
endloop
endfacet
facet normal -0.0 -0.0 1.0
outer loop
vertex -4.94974746830584 4.94974746830583 6.99999999999999
vertex -4.93844170297569 0.782172325201153 6.99999999999999
vertex -4.11449676604732 5.66311896062463 6.99999999999999
endloop
endfacet
facet normal -0.0 -0.0 1.0
outer loop
vertex -4.11449676604732 5.66311896062463 6.99999999999999
vertex -4.93844170297569 0.782172325201153 6.99999999999999
vertex -4.75528258147577 1.54508497187474 6.99999999999999
endloop
endfacet
facet normal -0.0 -0.0 1.0
outer loop
vertex -4.11449676604732 5.66311896062463 6.99999999999999
vertex -4.75528258147577 1.54508497187474 6.99999999999999
vertex -4.45503262094184 2.26995249869773 6.99999999999999
endloop
endfacet
facet normal -0.0 -0.0 1.0
outer loop
vertex -4.11449676604732 5.66311896062463 6.99999999999999
vertex -4.45503262094184 2.26995249869773 6.99999999999999
vertex -4.04508497187474 2.93892626146236 6.99999999999999
endloop
endfacet
facet normal -0.0 -0.0 1.0
outer loop
vertex -4.11449676604732 5.66311896062463 6.99999999999999
vertex -4.04508497187474 2.93892626146236 6.99999999999999
vertex -3.17793349817683 6.23704566931858 6.99999999999999
endloop
endfacet
facet normal -0.0 -0.0 1.0
outer loop
vertex -3.17793349817683 6.23704566931858 6.99999999999999
vertex -4.04508497187474 2.93892626146236 6.99999999999999
vertex -3.53553390593274 3.53553390593274 6.99999999999999
endloop
endfacet
facet normal -0.0 -0.0 1.0
outer loop
vertex -3.17793349817683 6.23704566931858 6.99999999999999
vertex -3.53553390593274 3.53553390593274 6.99999999999999
vertex -2.93892626146237 4.04508497187474 6.99999999999999
endloop
endfacet
facet normal -0.0 -0.0 1.0
outer loop
vertex -3.17793349817683 6.23704566931858 6.99999999999999
vertex -2.93892626146237 4.04508497187474 6.99999999999999
vertex -2.16311896062463 6.65739561406608 6.99999999999999
endloop
endfacet
facet normal -0.0 -0.0 1.0
outer loop
vertex -2.16311896062463 6.65739561406608 6.99999999999999
vertex -2.93892626146237 4.04508497187474 6.99999999999999
vertex -2.26995249869774 4.45503262094184 6.99999999999999
endloop
endfacet
facet normal -0.0 -0.0 1.0
outer loop
vertex -2.16311896062463 6.65739561406608 6.99999999999999
vertex -2.26995249869774 4.45503262094184 6.99999999999999
vertex -1.54508497187474 4.75528258147577 6.99999999999999
endloop
endfacet
facet normal -0.0 -0.0 1.0
outer loop
vertex -2.16311896062463 6.65739561406608 6.99999999999999
vertex -1.54508497187474 4.75528258147577 6.99999999999999
vertex -1.09504125528162 6.91381838416596 6.99999999999999
endloop
endfacet
facet normal -0.0 -0.0 1.0
outer loop
vertex -1.09504125528162 6.91381838416596 6.99999999999999
vertex -1.54508497187474 4.75528258147577 6.99999999999999
vertex -0.782172325201157 4.93844170297569 6.99999999999999
endloop
endfacet
facet normal -0.0 -0.0 1.0
outer loop
vertex -1.09504125528162 6.91381838416596 6.99999999999999
vertex -0.782172325201157 4.93844170297569 6.99999999999999
vertex -3.60525894277183e-015 7.0 6.99999999999999
endloop
endfacet
facet normal -0.0 -0.0 1.0
outer loop
vertex -3.60525894277183e-015 7.0 6.99999999999999
vertex -0.782172325201157 4.93844170297569 6.99999999999999
vertex -2.62554150345395e-015 5.0 6.99999999999999
endloop
endfacet
facet normal -0.0 -0.0 1.0
outer loop
vertex -3.60525894277183e-015 7.0 6.99999999999999
vertex -2.62554150345395e-015 5.0 6.99999999999999
vertex 1.09504125528161 6.91381838416596 6.99999999999999
endloop
endfacet
facet normal -0.0 -0.0 1.0
outer loop
vertex 1.09504125528161 6.91381838416596 6.99999999999999
vertex -2.62554150345395e-015 5.0 6.99999999999999
vertex 0.782172325201153 4.93844170297569 6.99999999999999
endloop
endfacet
facet normal -0.0 -0.0 1.0
outer loop
vertex 1.09504125528161 6.91381838416596 6.99999999999999
vertex 0.782172325201153 4.93844170297569 6.99999999999999
vertex 1.54508497187474 4.75528258147577 6.99999999999999
endloop
endfacet
facet normal -0.0 -0.0 1.0
outer loop
vertex 1.09504125528161 6.91381838416596 6.99999999999999
vertex 1.54508497187474 4.75528258147577 6.99999999999999
vertex 2.16311896062463 6.65739561406608 6.99999999999999
endloop
endfacet
facet normal -0.0 -0.0 1.0
outer loop
vertex 2.16311896062463 6.65739561406608 6.99999999999999
vertex 1.54508497187474 4.75528258147577 6.99999999999999
vertex 2.26995249869773 4.45503262094184 6.99999999999999
endloop
endfacet
facet normal -0.0 -0.0 1.0
outer loop
vertex 2.16311896062463 6.65739561406608 6.99999999999999
vertex 2.26995249869773 4.45503262094184 6.99999999999999
vertex 3.17793349817683 6.23704566931858 6.99999999999999
endloop
endfacet
facet normal -0.0 -0.0 1.0
outer loop
vertex 3.17793349817683 6.23704566931858 6.99999999999999
vertex 2.26995249869773 4.45503262094184 6.99999999999999
vertex 2.93892626146236 4.04508497187474 6.99999999999999
endloop
endfacet
facet normal -0.0 -0.0 1.0
outer loop
vertex 3.17793349817683 6.23704566931858 6.99999999999999
vertex 2.93892626146236 4.04508497187474 6.99999999999999
vertex 3.53553390593274 3.53553390593274 6.99999999999999
endloop
endfacet
facet normal -0.0 -0.0 1.0
outer loop
vertex 3.17793349817683 6.23704566931858 6.99999999999999
vertex 3.53553390593274 3.53553390593274 6.99999999999999
vertex 4.11449676604731 5.66311896062463 6.99999999999999
endloop
endfacet
facet normal -0.0 -0.0 1.0
outer loop
vertex 4.11449676604731 5.66311896062463 6.99999999999999
vertex 3.53553390593274 3.53553390593274 6.99999999999999
vertex 4.04508497187474 2.93892626146237 6.99999999999999
endloop
endfacet
facet normal -0.0 -0.0 1.0
outer loop
vertex 4.11449676604731 5.66311896062463 6.99999999999999
vertex 4.04508497187474 2.93892626146237 6.99999999999999
vertex 4.45503262094184 2.26995249869774 6.99999999999999
endloop
endfacet
facet normal -0.0 -0.0 1.0
outer loop
vertex 4.11449676604731 5.66311896062463 6.99999999999999
vertex 4.45503262094184 2.26995249869774 6.99999999999999
vertex 4.94974746830583 4.94974746830584 6.99999999999999
endloop
endfacet
facet normal -0.0 -0.0 1.0
outer loop
vertex 4.94974746830583 4.94974746830584 6.99999999999999
vertex 4.45503262094184 2.26995249869774 6.99999999999999
vertex 4.75528258147577 1.54508497187474 6.99999999999999
endloop
endfacet
facet normal -0.0 -0.0 1.0
outer loop
vertex 4.94974746830583 4.94974746830584 6.99999999999999
vertex 4.75528258147577 1.54508497187474 6.99999999999999
vertex 4.93844170297569 0.782172325201157 6.99999999999999
endloop
endfacet
facet normal -0.0 -0.0 1.0
outer loop
vertex 4.94974746830583 4.94974746830584 6.99999999999999
vertex 4.93844170297569 0.782172325201157 6.99999999999999
vertex 5.0 2.58829592988965e-015 6.99999999999999
endloop
endfacet
facet normal -0.0 -0.0 1.0
outer loop
vertex 4.94974746830583 4.94974746830584 6.99999999999999
vertex 5.0 2.58829592988965e-015 6.99999999999999
vertex 5.66311896062463 4.11449676604731 6.99999999999999
endloop
endfacet
facet normal 0.0 0.0 1.0
outer loop
vertex 1.5 -2.5 0.999999999999994
vertex -1.5 2.5 0.999999999999994
vertex -1.5 -2.5 0.999999999999994
endloop
endfacet
facet normal 0.0 0.0 1.0
outer loop
vertex -1.5 2.5 0.999999999999994
vertex 1.5 -2.5 0.999999999999994
vertex 1.5 2.5 0.999999999999994
endloop
endfacet
facet normal -1.0 0.0 -0.0
outer loop
vertex 1.5 2.5 15.0
vertex 1.5 -2.5 0.999999999999994
vertex 1.5 -2.5 15.0
endloop
endfacet
facet normal -1.0 0.0 -0.0
outer loop
vertex 1.5 -2.5 0.999999999999994
vertex 1.5 2.5 15.0
vertex 1.5 2.5 0.999999999999994
endloop
endfacet
facet normal -0.0 -1.0 -0.0
outer loop
vertex 1.5 2.5 15.0
vertex -1.5 2.5 0.999999999999994
vertex 1.5 2.5 0.999999999999994
endloop
endfacet
facet normal -0.0 -1.0 -0.0
outer loop
vertex -1.5 2.5 0.999999999999994
vertex 1.5 2.5 15.0
vertex -1.5 2.5 15.0
endloop
endfacet
facet normal 1.0 0.0 0.0
outer loop
vertex -1.5 2.5 0.999999999999994
vertex -1.5 -2.5 15.0
vertex -1.5 -2.5 0.999999999999994
endloop
endfacet
facet normal 1.0 0.0 0.0
outer loop
vertex -1.5 -2.5 15.0
vertex -1.5 2.5 0.999999999999994
vertex -1.5 2.5 15.0
endloop
endfacet
facet normal -0.0 1.0 -0.0
outer loop
vertex -1.5 -2.5 15.0
vertex 1.5 -2.5 0.999999999999994
vertex -1.5 -2.5 0.999999999999994
endloop
endfacet
facet normal -0.0 1.0 -0.0
outer loop
vertex 1.5 -2.5 0.999999999999994
vertex -1.5 -2.5 15.0
vertex 1.5 -2.5 15.0
endloop
endfacet
facet normal 0.987688340595138 -0.156434465040231 9.38191371803011e-018
outer loop
vertex 6.91381838416596 -1.09504125528161 -7.04991620636974e-015
vertex 6.65739561406608 -2.16311896062463 6.99999999999999
vertex 6.65739561406608 -2.16311896062463 -7.04991620636974e-015
endloop
endfacet
facet normal 0.951056516295154 -0.309016994374947 -1.27434195254061e-017
outer loop
vertex 6.65739561406608 -2.16311896062463 6.99999999999999
vertex 6.91381838416596 -1.09504125528161 -7.04991620636974e-015
vertex 6.91381838416596 -1.09504125528161 6.99999999999999
endloop
endfacet
facet normal 1.0 0.0 -8.98784893855912e-019
outer loop
vertex 7.0 2.64371857738865e-015 -7.04991620636974e-015
vertex 6.91381838416596 -1.09504125528161 6.99999999999999
vertex 6.91381838416596 -1.09504125528161 -7.04991620636974e-015
endloop
endfacet
facet normal 0.987688340595138 -0.156434465040231 9.3819137180301e-018
outer loop
vertex 6.91381838416596 -1.09504125528161 6.99999999999999
vertex 7.0 2.64371857738865e-015 -7.04991620636974e-015
vertex 7.0 3.20061932946333e-015 6.99999999999999
endloop
endfacet
facet normal 0.987688340595138 0.156434465040231 -1.2954922226471e-017
outer loop
vertex 6.91381838416596 1.09504125528162 -7.04991620636974e-015
vertex 7.0 3.20061932946333e-015 6.99999999999999
vertex 7.0 2.64371857738865e-015 -7.04991620636974e-015
endloop
endfacet
facet normal 1.0 8.86219329951134e-018 -8.98784893855913e-019
outer loop
vertex 7.0 3.20061932946333e-015 6.99999999999999
vertex 6.91381838416596 1.09504125528162 -7.04991620636974e-015
vertex 6.91381838416596 1.09504125528162 6.99999999999999
endloop
endfacet
facet normal 0.951056516295154 0.309016994374948 -8.90339275887803e-019
outer loop
vertex 6.65739561406607 2.16311896062463 -7.04991620636974e-015
vertex 6.91381838416596 1.09504125528162 6.99999999999999
vertex 6.91381838416596 1.09504125528162 -7.04991620636974e-015
endloop
endfacet
facet normal 0.987688340595138 0.156434465040231 -1.2954922226471e-017
outer loop
vertex 6.91381838416596 1.09504125528162 6.99999999999999
vertex 6.65739561406607 2.16311896062463 -7.04991620636974e-015
vertex 6.65739561406607 2.16311896062463 6.99999999999999
endloop
endfacet
facet normal 0.891006524188368 0.453990499739547 4.04517494537463e-017
outer loop
vertex 6.23704566931857 3.17793349817683 -7.04991620636974e-015
vertex 6.65739561406607 2.16311896062463 6.99999999999999
vertex 6.65739561406607 2.16311896062463 -7.04991620636974e-015
endloop
endfacet
facet normal 0.951056516295154 0.309016994374948 -8.90339275887803e-019
outer loop
vertex 6.65739561406607 2.16311896062463 6.99999999999999
vertex 6.23704566931857 3.17793349817683 -7.04991620636974e-015
vertex 6.23704566931857 3.17793349817683 6.99999999999999
endloop
endfacet
facet normal 0.809016994374947 0.587785252292473 7.11809005732851e-017
outer loop
vertex 5.66311896062463 4.11449676604731 -7.04991620636974e-015
vertex 6.23704566931857 3.17793349817683 6.99999999999999
vertex 6.23704566931857 3.17793349817683 -7.04991620636974e-015
endloop
endfacet
facet normal 0.891006524188368 0.453990499739547 4.04517494537463e-017
outer loop
vertex 6.23704566931857 3.17793349817683 6.99999999999999
vertex 5.66311896062463 4.11449676604731 -7.04991620636974e-015
vertex 5.66311896062463 4.11449676604731 6.99999999999999
endloop
endfacet
facet normal 0.707106781186547 0.707106781186548 5.59379757223165e-017
outer loop
vertex 4.94974746830583 4.94974746830584 -7.04991620636974e-015
vertex 5.66311896062463 4.11449676604731 6.99999999999999
vertex 5.66311896062463 4.11449676604731 -7.04991620636974e-015
endloop
endfacet
facet normal 0.809016994374947 0.587785252292473 7.11809005732851e-017
outer loop
vertex 5.66311896062463 4.11449676604731 6.99999999999999
vertex 4.94974746830583 4.94974746830584 -7.04991620636974e-015
vertex 4.94974746830583 4.94974746830584 6.99999999999999
endloop
endfacet
facet normal 0.587785252292473 0.809016994374948 1.67393812276182e-017
outer loop
vertex 4.11449676604731 5.66311896062463 6.99999999999999
vertex 4.94974746830583 4.94974746830584 -7.04991620636974e-015
vertex 4.11449676604731 5.66311896062463 -7.04991620636974e-015
endloop
endfacet
facet normal 0.707106781186547 0.707106781186548 5.59379757223165e-017
outer loop
vertex 4.94974746830583 4.94974746830584 -7.04991620636974e-015
vertex 4.11449676604731 5.66311896062463 6.99999999999999
vertex 4.94974746830583 4.94974746830584 6.99999999999999
endloop
endfacet
facet normal 0.453990499739547 0.891006524188368 1.42473957427216e-017
outer loop
vertex 3.17793349817683 6.23704566931858 6.99999999999999
vertex 4.11449676604731 5.66311896062463 -7.04991620636974e-015
vertex 3.17793349817683 6.23704566931858 -7.04991620636974e-015
endloop
endfacet
facet normal 0.587785252292473 0.809016994374948 1.67393812276182e-017
outer loop
vertex 4.11449676604731 5.66311896062463 -7.04991620636974e-015
vertex 3.17793349817683 6.23704566931858 6.99999999999999
vertex 4.11449676604731 5.66311896062463 6.99999999999999
endloop
endfacet
facet normal 0.309016994374947 0.951056516295154 1.55845075500141e-017
outer loop
vertex 2.16311896062463 6.65739561406608 6.99999999999999
vertex 3.17793349817683 6.23704566931858 -7.04991620636974e-015
vertex 2.16311896062463 6.65739561406608 -7.04991620636974e-015
endloop
endfacet
facet normal 0.453990499739547 0.891006524188368 1.42473957427216e-017
outer loop
vertex 3.17793349817683 6.23704566931858 -7.04991620636974e-015
vertex 2.16311896062463 6.65739561406608 6.99999999999999
vertex 3.17793349817683 6.23704566931858 6.99999999999999
endloop
endfacet
facet normal 0.15643446504023 0.987688340595138 -4.92075977721437e-017
outer loop
vertex 1.09504125528161 6.91381838416596 6.99999999999999
vertex 2.16311896062463 6.65739561406608 -7.04991620636974e-015
vertex 1.09504125528161 6.91381838416596 -7.04991620636974e-015
endloop
endfacet
facet normal 0.309016994374947 0.951056516295154 1.55845075500141e-017
outer loop
vertex 2.16311896062463 6.65739561406608 -7.04991620636974e-015
vertex 1.09504125528161 6.91381838416596 6.99999999999999
vertex 2.16311896062463 6.65739561406608 6.99999999999999
endloop
endfacet
facet normal -4.87420631473124e-017 1.0 -1.06482128522008e-016
outer loop
vertex -3.60525894277183e-015 7.0 6.99999999999999
vertex 1.09504125528161 6.91381838416596 -7.04991620636974e-015
vertex -2.8199664825479e-015 7.0 -7.04991620636974e-015
endloop
endfacet
facet normal 0.15643446504023 0.987688340595138 -4.92075977721437e-017
outer loop
vertex 1.09504125528161 6.91381838416596 -7.04991620636974e-015
vertex -3.60525894277183e-015 7.0 6.99999999999999
vertex 1.09504125528161 6.91381838416596 6.99999999999999
endloop
endfacet
facet normal -0.156434465040231 0.987688340595138 -1.2475459974188e-016
outer loop
vertex -1.09504125528162 6.91381838416596 6.99999999999999
vertex -2.8199664825479e-015 7.0 -7.04991620636974e-015
vertex -1.09504125528162 6.91381838416596 -7.04991620636974e-015
endloop
endfacet
facet normal -3.54487731980454e-017 1.0 -1.06482128522008e-016
outer loop
vertex -2.8199664825479e-015 7.0 -7.04991620636974e-015
vertex -1.09504125528162 6.91381838416596 6.99999999999999
vertex -3.60525894277183e-015 7.0 6.99999999999999
endloop
endfacet
facet normal -0.309016994374948 0.951056516295153 -1.08200302102835e-016
outer loop
vertex -2.16311896062463 6.65739561406608 6.99999999999999
vertex -1.09504125528162 6.91381838416596 -7.04991620636974e-015
vertex -2.16311896062463 6.65739561406608 -7.04991620636974e-015
endloop
endfacet
facet normal -0.156434465040231 0.987688340595138 -1.2475459974188e-016
outer loop
vertex -1.09504125528162 6.91381838416596 -7.04991620636974e-015
vertex -2.16311896062463 6.65739561406608 6.99999999999999
vertex -1.09504125528162 6.91381838416596 6.99999999999999
endloop
endfacet
facet normal -0.453990499739547 0.891006524188368 -1.01181033192175e-017
outer loop
vertex -3.17793349817683 6.23704566931858 6.99999999999999
vertex -2.16311896062463 6.65739561406608 -7.04991620636974e-015
vertex -3.17793349817683 6.23704566931858 -7.04991620636974e-015
endloop
endfacet
facet normal -0.309016994374948 0.951056516295153 -1.08200302102835e-016
outer loop
vertex -2.16311896062463 6.65739561406608 -7.04991620636974e-015
vertex -3.17793349817683 6.23704566931858 6.99999999999999
vertex -2.16311896062463 6.65739561406608 6.99999999999999
endloop
endfacet
facet normal -0.587785252292474 0.809016994374947 3.4984850023771e-017
outer loop
vertex -4.11449676604732 5.66311896062463 6.99999999999999
vertex -3.17793349817683 6.23704566931858 -7.04991620636974e-015
vertex -4.11449676604731 5.66311896062463 -7.04991620636974e-015
endloop
endfacet
facet normal -0.453990499739547 0.891006524188368 -1.01181033192175e-017
outer loop
vertex -3.17793349817683 6.23704566931858 -7.04991620636974e-015
vertex -4.11449676604732 5.66311896062463 6.99999999999999
vertex -3.17793349817683 6.23704566931858 6.99999999999999
endloop
endfacet
facet normal -0.707106781186548 0.707106781186547 -2.02815135729303e-017
outer loop
vertex -4.94974746830584 4.94974746830583 6.99999999999999
vertex -4.11449676604731 5.66311896062463 -7.04991620636974e-015
vertex -4.94974746830583 4.94974746830583 -7.04991620636974e-015
endloop
endfacet
facet normal -0.587785252292474 0.809016994374947 3.4984850023771e-017
outer loop
vertex -4.11449676604731 5.66311896062463 -7.04991620636974e-015
vertex -4.94974746830584 4.94974746830583 6.99999999999999
vertex -4.11449676604732 5.66311896062463 6.99999999999999
endloop
endfacet
facet normal -0.707106781186548 0.707106781186547 -2.02815135729303e-017
outer loop
vertex -4.94974746830584 4.94974746830583 6.99999999999999
vertex -5.66311896062463 4.11449676604731 -7.04991620636974e-015
vertex -5.66311896062463 4.11449676604731 6.99999999999999
endloop
endfacet
facet normal -0.809016994374948 0.587785252292473 -7.37813835880461e-017
outer loop
vertex -5.66311896062463 4.11449676604731 -7.04991620636974e-015
vertex -4.94974746830584 4.94974746830583 6.99999999999999
vertex -4.94974746830583 4.94974746830583 -7.04991620636974e-015
endloop
endfacet
facet normal -0.809016994374948 0.587785252292473 -7.37813835880461e-017
outer loop
vertex -5.66311896062463 4.11449676604731 6.99999999999999
vertex -6.23704566931858 3.17793349817683 -7.04991620636974e-015
vertex -6.23704566931858 3.17793349817683 6.99999999999999
endloop
endfacet
facet normal -0.891006524188368 0.453990499739547 -9.04966449942849e-017
outer loop
vertex -6.23704566931858 3.17793349817683 -7.04991620636974e-015
vertex -5.66311896062463 4.11449676604731 6.99999999999999
vertex -5.66311896062463 4.11449676604731 -7.04991620636974e-015
endloop
endfacet
facet normal -0.951056516295154 0.309016994374947 -7.00556937575811e-017
outer loop
vertex -6.65739561406608 2.16311896062463 6.99999999999999
vertex -6.91381838416596 1.09504125528162 -7.04991620636974e-015
vertex -6.91381838416596 1.09504125528161 6.99999999999999
endloop
endfacet
facet normal -0.987688340595138 0.15643446504023 -7.1367605837931e-017
outer loop
vertex -6.91381838416596 1.09504125528162 -7.04991620636974e-015
vertex -6.65739561406608 2.16311896062463 6.99999999999999
vertex -6.65739561406608 2.16311896062463 -7.04991620636974e-015
endloop
endfacet
facet normal -0.987688340595138 0.15643446504023 -7.1367605837931e-017
outer loop
vertex -6.91381838416596 1.09504125528161 6.99999999999999
vertex -7.0 -8.81239525796218e-016 -7.04991620636974e-015
vertex -7.0 -1.94289722695555e-015 6.99999999999999
endloop
endfacet
facet normal -1.0 1.77243865990227e-017 -1.00640026711944e-016
outer loop
vertex -7.0 -8.81239525796218e-016 -7.04991620636974e-015
vertex -6.91381838416596 1.09504125528161 6.99999999999999
vertex -6.91381838416596 1.09504125528162 -7.04991620636974e-015
endloop
endfacet
facet normal -1.0 8.86219329951134e-018 -1.00640026711944e-016
outer loop
vertex -7.0 -1.94289722695555e-015 6.99999999999999
vertex -6.91381838416596 -1.09504125528162 -7.04991620636974e-015
vertex -6.91381838416596 -1.09504125528162 6.99999999999999
endloop
endfacet
facet normal -0.987688340595138 -0.156434465040231 -1.25428688412272e-016
outer loop
vertex -6.91381838416596 -1.09504125528162 -7.04991620636974e-015
vertex -7.0 -1.94289722695555e-015 6.99999999999999
vertex -7.0 -8.81239525796218e-016 -7.04991620636974e-015
endloop
endfacet
facet normal -0.987688340595138 -0.156434465040231 -1.25428688412272e-016
outer loop
vertex -6.91381838416596 -1.09504125528162 6.99999999999999
vertex -6.65739561406607 -2.16311896062463 -7.04991620636974e-015
vertex -6.65739561406608 -2.16311896062463 6.99999999999999
endloop
endfacet
facet normal -0.951056516295153 -0.309016994374948 -1.25281599590405e-016
outer loop
vertex -6.65739561406607 -2.16311896062463 -7.04991620636974e-015
vertex -6.91381838416596 -1.09504125528162 6.99999999999999
vertex -6.91381838416596 -1.09504125528162 -7.04991620636974e-015
endloop
endfacet
facet normal -0.951056516295153 -0.309016994374948 -1.25281599590405e-016
outer loop
vertex -6.65739561406608 -2.16311896062463 6.99999999999999
vertex -6.23704566931857 -3.17793349817683 -7.04991620636974e-015
vertex -6.23704566931857 -3.17793349817683 6.99999999999999
endloop
endfacet
facet normal -0.891006524188368 -0.453990499739547 -5.14166848869944e-017
outer loop
vertex -6.23704566931857 -3.17793349817683 -7.04991620636974e-015
vertex -6.65739561406608 -2.16311896062463 6.99999999999999
vertex -6.65739561406607 -2.16311896062463 -7.04991620636974e-015
endloop
endfacet
facet normal -0.891006524188368 -0.453990499739547 -5.14166848869944e-017
outer loop
vertex -6.23704566931857 -3.17793349817683 6.99999999999999
vertex -5.66311896062463 -4.11449676604731 -7.04991620636974e-015
vertex -5.66311896062463 -4.11449676604731 6.99999999999999
endloop
endfacet
facet normal -0.809016994374947 -0.587785252292473 -2.84310285511339e-017
outer loop
vertex -5.66311896062463 -4.11449676604731 -7.04991620636974e-015
vertex -6.23704566931857 -3.17793349817683 6.99999999999999
vertex -6.23704566931857 -3.17793349817683 -7.04991620636974e-015
endloop
endfacet
facet normal -0.809016994374947 -0.587785252292473 -2.84310285511339e-017
outer loop
vertex -5.66311896062463 -4.11449676604731 6.99999999999999
vertex -4.94974746830583 -4.94974746830583 -7.04991620636974e-015
vertex -4.94974746830583 -4.94974746830583 6.99999999999999
endloop
endfacet
facet normal -0.707106781186547 -0.707106781186548 -1.07927185577827e-016
outer loop
vertex -4.94974746830583 -4.94974746830583 -7.04991620636974e-015
vertex -5.66311896062463 -4.11449676604731 6.99999999999999
vertex -5.66311896062463 -4.11449676604731 -7.04991620636974e-015
endloop
endfacet
facet normal -0.587785252292473 -0.809016994374948 -1.48887591125397e-016
outer loop
vertex -4.11449676604731 -5.66311896062463 6.99999999999999
vertex -4.94974746830583 -4.94974746830583 -7.04991620636974e-015
vertex -4.11449676604731 -5.66311896062463 -7.04991620636974e-015
endloop
endfacet
facet normal -0.707106781186547 -0.707106781186548 -1.07927185577827e-016
outer loop
vertex -4.94974746830583 -4.94974746830583 -7.04991620636974e-015
vertex -4.11449676604731 -5.66311896062463 6.99999999999999
vertex -4.94974746830583 -4.94974746830583 6.99999999999999
endloop
endfacet
facet normal -0.453990499739546 -0.891006524188368 -1.06494424608936e-016
outer loop
vertex -3.17793349817683 -6.23704566931858 6.99999999999999
vertex -4.11449676604731 -5.66311896062463 -7.04991620636974e-015
vertex -3.17793349817683 -6.23704566931857 -7.04991620636974e-015
endloop
endfacet
facet normal -0.587785252292473 -0.809016994374948 -1.48887591125397e-016
outer loop
vertex -4.11449676604731 -5.66311896062463 -7.04991620636974e-015
vertex -3.17793349817683 -6.23704566931858 6.99999999999999
vertex -4.11449676604731 -5.66311896062463 6.99999999999999
endloop
endfacet
facet normal -0.309016994374947 -0.951056516295154 -2.40325857623748e-017
outer loop
vertex -2.16311896062463 -6.65739561406607 6.99999999999999
vertex -3.17793349817683 -6.23704566931857 -7.04991620636974e-015
vertex -2.16311896062463 -6.65739561406607 -7.04991620636974e-015
endloop
endfacet
facet normal -0.453990499739546 -0.891006524188368 -1.06494424608936e-016
outer loop
vertex -3.17793349817683 -6.23704566931857 -7.04991620636974e-015
vertex -2.16311896062463 -6.65739561406607 6.99999999999999
vertex -3.17793349817683 -6.23704566931858 6.99999999999999
endloop
endfacet
facet normal -0.15643446504023 -0.987688340595138 -3.93762916071856e-017
outer loop
vertex -1.09504125528161 -6.91381838416596 6.99999999999999
vertex -2.16311896062463 -6.65739561406607 -7.04991620636974e-015
vertex -1.09504125528161 -6.91381838416596 -7.04991620636974e-015
endloop
endfacet
facet normal -0.309016994374947 -0.951056516295154 -2.40325857623748e-017
outer loop
vertex -2.16311896062463 -6.65739561406607 -7.04991620636974e-015
vertex -1.09504125528161 -6.91381838416596 6.99999999999999
vertex -2.16311896062463 -6.65739561406607 6.99999999999999
endloop
endfacet
facet normal 4.43109664975567e-018 -1.0 -1.01314115382336e-016
outer loop
vertex 2.3955103730502e-015 -7.0 6.99999999999999
vertex -1.09504125528161 -6.91381838416596 -7.04991620636974e-015
vertex 1.93872695675168e-015 -7.0 -7.04991620636974e-015
endloop
endfacet
facet normal -0.15643446504023 -0.987688340595138 -3.93762916071856e-017
outer loop
vertex -1.09504125528161 -6.91381838416596 -7.04991620636974e-015
vertex 2.3955103730502e-015 -7.0 6.99999999999999
vertex -1.09504125528161 -6.91381838416596 6.99999999999999
endloop
endfacet
facet normal 0.156434465040231 -0.987688340595138 -1.16715330597888e-016
outer loop
vertex 1.09504125528162 -6.91381838416596 6.99999999999999
vertex 1.93872695675168e-015 -7.0 -7.04991620636974e-015
vertex 1.09504125528162 -6.91381838416596 -7.04991620636974e-015
endloop
endfacet
facet normal 0.0 -1.0 -1.01314115382336e-016
outer loop
vertex 1.93872695675168e-015 -7.0 -7.04991620636974e-015
vertex 1.09504125528162 -6.91381838416596 6.99999999999999
vertex 2.3955103730502e-015 -7.0 6.99999999999999
endloop
endfacet
facet normal 0.309016994374948 -0.951056516295153 -1.07663066563373e-016
outer loop
vertex 2.16311896062463 -6.65739561406607 6.99999999999999
vertex 1.09504125528162 -6.91381838416596 -7.04991620636974e-015
vertex 2.16311896062463 -6.65739561406607 -7.04991620636974e-015
endloop
endfacet
facet normal 0.156434465040231 -0.987688340595138 -1.16715330597888e-016
outer loop
vertex 1.09504125528162 -6.91381838416596 -7.04991620636974e-015
vertex 2.16311896062463 -6.65739561406607 6.99999999999999
vertex 1.09504125528162 -6.91381838416596 6.99999999999999
endloop
endfacet
facet normal 0.453990499739547 -0.891006524188368 -6.17917685152906e-017
outer loop
vertex 3.17793349817683 -6.23704566931857 6.99999999999999
vertex 2.16311896062463 -6.65739561406607 -7.04991620636974e-015
vertex 3.17793349817683 -6.23704566931857 -7.04991620636974e-015
endloop
endfacet
facet normal 0.309016994374948 -0.951056516295153 -1.07663066563373e-016
outer loop
vertex 2.16311896062463 -6.65739561406607 -7.04991620636974e-015
vertex 3.17793349817683 -6.23704566931857 6.99999999999999
vertex 2.16311896062463 -6.65739561406607 6.99999999999999
endloop
endfacet
facet normal 0.587785252292473 -0.809016994374947 -5.0407642073646e-017
outer loop
vertex 4.11449676604731 -5.66311896062463 6.99999999999999
vertex 3.17793349817683 -6.23704566931857 -7.04991620636974e-015
vertex 4.11449676604731 -5.66311896062463 -7.04991620636974e-015
endloop
endfacet
facet normal 0.453990499739547 -0.891006524188368 -6.17917685152906e-017
outer loop
vertex 3.17793349817683 -6.23704566931857 -7.04991620636974e-015
vertex 4.11449676604731 -5.66311896062463 6.99999999999999
vertex 3.17793349817683 -6.23704566931857 6.99999999999999
endloop
endfacet
facet normal 0.707106781186548 -0.707106781186547 -3.34787624552365e-017
outer loop
vertex 4.94974746830583 -4.94974746830583 6.99999999999999
vertex 4.11449676604731 -5.66311896062463 -7.04991620636974e-015
vertex 4.94974746830583 -4.94974746830583 -7.04991620636974e-015
endloop
endfacet
facet normal 0.587785252292473 -0.809016994374947 -5.0407642073646e-017
outer loop
vertex 4.11449676604731 -5.66311896062463 -7.04991620636974e-015
vertex 4.94974746830583 -4.94974746830583 6.99999999999999
vertex 4.11449676604731 -5.66311896062463 6.99999999999999
endloop
endfacet
facet normal 0.809016994374948 -0.587785252292473 -2.19766135225121e-017
outer loop
vertex 5.66311896062463 -4.11449676604731 -7.04991620636974e-015
vertex 4.94974746830583 -4.94974746830583 6.99999999999999
vertex 4.94974746830583 -4.94974746830583 -7.04991620636974e-015
endloop
endfacet
facet normal 0.707106781186548 -0.707106781186547 -3.34787624552365e-017
outer loop
vertex 4.94974746830583 -4.94974746830583 6.99999999999999
vertex 5.66311896062463 -4.11449676604731 -7.04991620636974e-015
vertex 5.66311896062463 -4.11449676604731 6.99999999999999
endloop
endfacet
facet normal 0.891006524188368 -0.453990499739547 -4.14055920843806e-017
outer loop
vertex 6.23704566931858 -3.17793349817682 -7.04991620636974e-015
vertex 5.66311896062463 -4.11449676604731 6.99999999999999
vertex 5.66311896062463 -4.11449676604731 -7.04991620636974e-015
endloop
endfacet
facet normal 0.809016994374948 -0.587785252292473 -2.19766135225121e-017
outer loop
vertex 5.66311896062463 -4.11449676604731 6.99999999999999
vertex 6.23704566931858 -3.17793349817682 -7.04991620636974e-015
vertex 6.23704566931858 -3.17793349817682 6.99999999999999
endloop
endfacet
facet normal 0.951056516295154 -0.309016994374947 -1.27434195254061e-017
outer loop
vertex 6.65739561406608 -2.16311896062463 -7.04991620636974e-015
vertex 6.23704566931858 -3.17793349817682 6.99999999999999
vertex 6.23704566931858 -3.17793349817682 -7.04991620636974e-015
endloop
endfacet
facet normal 0.891006524188368 -0.453990499739547 -4.14055920843806e-017
outer loop
vertex 6.23704566931858 -3.17793349817682 6.99999999999999
vertex 6.65739561406608 -2.16311896062463 -7.04991620636974e-015
vertex 6.65739561406608 -2.16311896062463 6.99999999999999
endloop
endfacet
facet normal -0.891006524188368 0.453990499739547 -9.04966449942849e-017
outer loop
vertex -6.23704566931858 3.17793349817683 6.99999999999999
vertex -6.65739561406608 2.16311896062463 -7.04991620636974e-015
vertex -6.65739561406608 2.16311896062463 6.99999999999999
endloop
endfacet
facet normal -0.951056516295154 0.309016994374947 -7.00556937575811e-017
outer loop
vertex -6.65739561406608 2.16311896062463 -7.04991620636974e-015
vertex -6.23704566931858 3.17793349817683 6.99999999999999
vertex -6.23704566931858 3.17793349817683 -7.04991620636974e-015
endloop
endfacet
facet normal 0.0 0.0 -1.0
outer loop
vertex -6.91381838416596 1.09504125528162 -7.04991620636974e-015
vertex -6.91381838416596 -1.09504125528162 -7.04991620636974e-015
vertex -7.0 -8.81239525796218e-016 -7.04991620636974e-015
endloop
endfacet
facet normal 0.0 0.0 -1.0
outer loop
vertex -6.91381838416596 -1.09504125528162 -7.04991620636974e-015
vertex -6.91381838416596 1.09504125528162 -7.04991620636974e-015
vertex -6.65739561406608 2.16311896062463 -7.04991620636974e-015
endloop
endfacet
facet normal 0.0 0.0 -1.0
outer loop
vertex -6.91381838416596 -1.09504125528162 -7.04991620636974e-015
vertex -6.65739561406608 2.16311896062463 -7.04991620636974e-015
vertex -6.65739561406607 -2.16311896062463 -7.04991620636974e-015
endloop
endfacet
facet normal 0.0 0.0 -1.0
outer loop
vertex -6.65739561406607 -2.16311896062463 -7.04991620636974e-015
vertex -6.65739561406608 2.16311896062463 -7.04991620636974e-015
vertex -6.23704566931858 3.17793349817683 -7.04991620636974e-015
endloop
endfacet
facet normal 0.0 0.0 -1.0
outer loop
vertex -6.65739561406607 -2.16311896062463 -7.04991620636974e-015
vertex -6.23704566931858 3.17793349817683 -7.04991620636974e-015
vertex -6.23704566931857 -3.17793349817683 -7.04991620636974e-015
endloop
endfacet
facet normal 0.0 0.0 -1.0
outer loop
vertex -6.23704566931857 -3.17793349817683 -7.04991620636974e-015
vertex -6.23704566931858 3.17793349817683 -7.04991620636974e-015
vertex -5.66311896062463 4.11449676604731 -7.04991620636974e-015
endloop
endfacet
facet normal 0.0 0.0 -1.0
outer loop
vertex -6.23704566931857 -3.17793349817683 -7.04991620636974e-015
vertex -5.66311896062463 4.11449676604731 -7.04991620636974e-015
vertex -5.66311896062463 -4.11449676604731 -7.04991620636974e-015
endloop
endfacet
facet normal 0.0 0.0 -1.0
outer loop
vertex -5.66311896062463 -4.11449676604731 -7.04991620636974e-015
vertex -5.66311896062463 4.11449676604731 -7.04991620636974e-015
vertex -4.94974746830583 4.94974746830583 -7.04991620636974e-015
endloop
endfacet
facet normal 0.0 0.0 -1.0
outer loop
vertex -5.66311896062463 -4.11449676604731 -7.04991620636974e-015
vertex -4.94974746830583 4.94974746830583 -7.04991620636974e-015
vertex -4.94974746830583 -4.94974746830583 -7.04991620636974e-015
endloop
endfacet
facet normal 0.0 0.0 -1.0
outer loop
vertex -4.94974746830583 -4.94974746830583 -7.04991620636974e-015
vertex -4.94974746830583 4.94974746830583 -7.04991620636974e-015
vertex -4.11449676604731 5.66311896062463 -7.04991620636974e-015
endloop
endfacet
facet normal 0.0 0.0 -1.0
outer loop
vertex -4.94974746830583 -4.94974746830583 -7.04991620636974e-015
vertex -4.11449676604731 5.66311896062463 -7.04991620636974e-015
vertex -4.11449676604731 -5.66311896062463 -7.04991620636974e-015
endloop
endfacet
facet normal 0.0 0.0 -1.0
outer loop
vertex -4.11449676604731 -5.66311896062463 -7.04991620636974e-015
vertex -4.11449676604731 5.66311896062463 -7.04991620636974e-015
vertex -3.17793349817683 6.23704566931858 -7.04991620636974e-015
endloop
endfacet
facet normal 0.0 0.0 -1.0
outer loop
vertex -4.11449676604731 -5.66311896062463 -7.04991620636974e-015
vertex -3.17793349817683 6.23704566931858 -7.04991620636974e-015
vertex -3.17793349817683 -6.23704566931857 -7.04991620636974e-015
endloop
endfacet
facet normal 0.0 0.0 -1.0
outer loop
vertex -3.17793349817683 -6.23704566931857 -7.04991620636974e-015
vertex -3.17793349817683 6.23704566931858 -7.04991620636974e-015
vertex -2.16311896062463 6.65739561406608 -7.04991620636974e-015
endloop
endfacet
facet normal 0.0 0.0 -1.0
outer loop
vertex -3.17793349817683 -6.23704566931857 -7.04991620636974e-015
vertex -2.16311896062463 6.65739561406608 -7.04991620636974e-015
vertex -2.16311896062463 -6.65739561406607 -7.04991620636974e-015
endloop
endfacet
facet normal 0.0 0.0 -1.0
outer loop
vertex -2.16311896062463 -6.65739561406607 -7.04991620636974e-015
vertex -2.16311896062463 6.65739561406608 -7.04991620636974e-015
vertex -1.09504125528162 6.91381838416596 -7.04991620636974e-015
endloop
endfacet
facet normal 0.0 0.0 -1.0
outer loop
vertex -2.16311896062463 -6.65739561406607 -7.04991620636974e-015
vertex -1.09504125528162 6.91381838416596 -7.04991620636974e-015
vertex -1.09504125528161 -6.91381838416596 -7.04991620636974e-015
endloop
endfacet
facet normal 0.0 0.0 -1.0
outer loop
vertex -1.09504125528161 -6.91381838416596 -7.04991620636974e-015
vertex -1.09504125528162 6.91381838416596 -7.04991620636974e-015
vertex -2.8199664825479e-015 7.0 -7.04991620636974e-015
endloop
endfacet
facet normal 0.0 0.0 -1.0
outer loop
vertex -1.09504125528161 -6.91381838416596 -7.04991620636974e-015
vertex -2.8199664825479e-015 7.0 -7.04991620636974e-015
vertex 1.93872695675168e-015 -7.0 -7.04991620636974e-015
endloop
endfacet
facet normal 0.0 0.0 -1.0
outer loop
vertex 1.93872695675168e-015 -7.0 -7.04991620636974e-015
vertex -2.8199664825479e-015 7.0 -7.04991620636974e-015
vertex 1.09504125528161 6.91381838416596 -7.04991620636974e-015
endloop
endfacet
facet normal 0.0 0.0 -1.0
outer loop
vertex 1.93872695675168e-015 -7.0 -7.04991620636974e-015
vertex 1.09504125528161 6.91381838416596 -7.04991620636974e-015
vertex 1.09504125528162 -6.91381838416596 -7.04991620636974e-015
endloop
endfacet
facet normal 0.0 0.0 -1.0
outer loop
vertex 1.09504125528162 -6.91381838416596 -7.04991620636974e-015
vertex 1.09504125528161 6.91381838416596 -7.04991620636974e-015
vertex 2.16311896062463 6.65739561406608 -7.04991620636974e-015
endloop
endfacet
facet normal 0.0 0.0 -1.0
outer loop
vertex 1.09504125528162 -6.91381838416596 -7.04991620636974e-015
vertex 2.16311896062463 6.65739561406608 -7.04991620636974e-015
vertex 2.16311896062463 -6.65739561406607 -7.04991620636974e-015
endloop
endfacet
facet normal 0.0 0.0 -1.0
outer loop
vertex 2.16311896062463 -6.65739561406607 -7.04991620636974e-015
vertex 2.16311896062463 6.65739561406608 -7.04991620636974e-015
vertex 3.17793349817683 6.23704566931858 -7.04991620636974e-015
endloop
endfacet
facet normal 0.0 0.0 -1.0
outer loop
vertex 2.16311896062463 -6.65739561406607 -7.04991620636974e-015
vertex 3.17793349817683 6.23704566931858 -7.04991620636974e-015
vertex 3.17793349817683 -6.23704566931857 -7.04991620636974e-015
endloop
endfacet
facet normal 0.0 0.0 -1.0
outer loop
vertex 3.17793349817683 -6.23704566931857 -7.04991620636974e-015
vertex 3.17793349817683 6.23704566931858 -7.04991620636974e-015
vertex 4.11449676604731 5.66311896062463 -7.04991620636974e-015
endloop
endfacet
facet normal 0.0 0.0 -1.0
outer loop
vertex 3.17793349817683 -6.23704566931857 -7.04991620636974e-015
vertex 4.11449676604731 5.66311896062463 -7.04991620636974e-015
vertex 4.11449676604731 -5.66311896062463 -7.04991620636974e-015
endloop
endfacet
facet normal 0.0 0.0 -1.0
outer loop
vertex 4.11449676604731 -5.66311896062463 -7.04991620636974e-015
vertex 4.11449676604731 5.66311896062463 -7.04991620636974e-015
vertex 4.94974746830583 4.94974746830584 -7.04991620636974e-015
endloop
endfacet
facet normal 0.0 0.0 -1.0
outer loop
vertex 4.11449676604731 -5.66311896062463 -7.04991620636974e-015
vertex 4.94974746830583 4.94974746830584 -7.04991620636974e-015
vertex 4.94974746830583 -4.94974746830583 -7.04991620636974e-015
endloop
endfacet
facet normal 0.0 0.0 -1.0
outer loop
vertex 4.94974746830583 -4.94974746830583 -7.04991620636974e-015
vertex 4.94974746830583 4.94974746830584 -7.04991620636974e-015
vertex 5.66311896062463 4.11449676604731 -7.04991620636974e-015
endloop
endfacet
facet normal 0.0 0.0 -1.0
outer loop
vertex 4.94974746830583 -4.94974746830583 -7.04991620636974e-015
vertex 5.66311896062463 4.11449676604731 -7.04991620636974e-015
vertex 5.66311896062463 -4.11449676604731 -7.04991620636974e-015
endloop
endfacet
facet normal 0.0 0.0 -1.0
outer loop
vertex 5.66311896062463 -4.11449676604731 -7.04991620636974e-015
vertex 5.66311896062463 4.11449676604731 -7.04991620636974e-015
vertex 6.23704566931857 3.17793349817683 -7.04991620636974e-015
endloop
endfacet
facet normal 0.0 0.0 -1.0
outer loop
vertex 5.66311896062463 -4.11449676604731 -7.04991620636974e-015
vertex 6.23704566931857 3.17793349817683 -7.04991620636974e-015
vertex 6.23704566931858 -3.17793349817682 -7.04991620636974e-015
endloop
endfacet
facet normal 0.0 0.0 -1.0
outer loop
vertex 6.23704566931858 -3.17793349817682 -7.04991620636974e-015
vertex 6.23704566931857 3.17793349817683 -7.04991620636974e-015
vertex 6.65739561406607 2.16311896062463 -7.04991620636974e-015
endloop
endfacet
facet normal 0.0 0.0 -1.0
outer loop
vertex 6.23704566931858 -3.17793349817682 -7.04991620636974e-015
vertex 6.65739561406607 2.16311896062463 -7.04991620636974e-015
vertex 6.65739561406608 -2.16311896062463 -7.04991620636974e-015
endloop
endfacet
facet normal 0.0 0.0 -1.0
outer loop
vertex 6.65739561406608 -2.16311896062463 -7.04991620636974e-015
vertex 6.65739561406607 2.16311896062463 -7.04991620636974e-015
vertex 6.91381838416596 1.09504125528162 -7.04991620636974e-015
endloop
endfacet
facet normal 0.0 0.0 -1.0
outer loop
vertex 6.65739561406608 -2.16311896062463 -7.04991620636974e-015
vertex 6.91381838416596 1.09504125528162 -7.04991620636974e-015
vertex 6.91381838416596 -1.09504125528161 -7.04991620636974e-015
endloop
endfacet
facet normal 0.0 0.0 -1.0
outer loop
vertex 6.91381838416596 -1.09504125528161 -7.04991620636974e-015
vertex 6.91381838416596 1.09504125528162 -7.04991620636974e-015
vertex 7.0 2.64371857738865e-015 -7.04991620636974e-015
endloop
endfacet
facet normal 0.0 0.0 1.0
outer loop
vertex -0.782172325201152 -4.93844170297569 15.0
vertex -1.5 -2.5 15.0
vertex -1.54508497187474 -4.75528258147577 15.0
endloop
endfacet
facet normal 0.0 0.0 1.0
outer loop
vertex -1.5 -2.5 15.0
vertex -0.782172325201152 -4.93844170297569 15.0
vertex 1.5 -2.5 15.0
endloop
endfacet
facet normal 0.0 0.0 1.0
outer loop
vertex 1.5 -2.5 15.0
vertex -0.782172325201152 -4.93844170297569 15.0
vertex 1.66072229356179e-015 -5.0 15.0
endloop
endfacet
facet normal 0.0 0.0 1.0
outer loop
vertex 1.5 -2.5 15.0
vertex 1.66072229356179e-015 -5.0 15.0
vertex 0.782172325201156 -4.93844170297569 15.0
endloop
endfacet
facet normal 0.0 0.0 1.0
outer loop
vertex 1.5 -2.5 15.0
vertex 0.782172325201156 -4.93844170297569 15.0
vertex 1.54508497187474 -4.75528258147577 15.0
endloop
endfacet
facet normal 0.0 0.0 1.0
outer loop
vertex 1.5 -2.5 15.0
vertex 1.54508497187474 -4.75528258147577 15.0
vertex 1.5 2.5 15.0
endloop
endfacet
facet normal 0.0 0.0 1.0
outer loop
vertex 1.5 2.5 15.0
vertex 1.54508497187474 -4.75528258147577 15.0
vertex 1.54508497187474 4.75528258147577 15.0
endloop
endfacet
facet normal 0.0 0.0 1.0
outer loop
vertex 1.54508497187474 4.75528258147577 15.0
vertex 1.54508497187474 -4.75528258147577 15.0
vertex 2.26995249869773 4.45503262094184 15.0
endloop
endfacet
facet normal 0.0 0.0 1.0
outer loop
vertex 2.26995249869773 4.45503262094184 15.0
vertex 1.54508497187474 -4.75528258147577 15.0
vertex 2.26995249869774 -4.45503262094184 15.0
endloop
endfacet
facet normal 0.0 0.0 1.0
outer loop
vertex 2.26995249869773 4.45503262094184 15.0
vertex 2.26995249869774 -4.45503262094184 15.0
vertex 2.93892626146236 4.04508497187474 15.0
endloop
endfacet
facet normal 0.0 0.0 1.0
outer loop
vertex 2.93892626146236 4.04508497187474 15.0
vertex 2.26995249869774 -4.45503262094184 15.0
vertex 2.93892626146237 -4.04508497187473 15.0
endloop
endfacet
facet normal 0.0 0.0 1.0
outer loop
vertex 2.93892626146236 4.04508497187474 15.0
vertex 2.93892626146237 -4.04508497187473 15.0
vertex 3.53553390593274 3.53553390593274 15.0
endloop
endfacet
facet normal 0.0 0.0 1.0
outer loop
vertex 3.53553390593274 3.53553390593274 15.0
vertex 2.93892626146237 -4.04508497187473 15.0
vertex 3.53553390593274 -3.53553390593273 15.0
endloop
endfacet
facet normal 0.0 0.0 1.0
outer loop
vertex 3.53553390593274 3.53553390593274 15.0
vertex 3.53553390593274 -3.53553390593273 15.0
vertex 4.04508497187474 2.93892626146237 15.0
endloop
endfacet
facet normal 0.0 0.0 1.0
outer loop
vertex 4.04508497187474 2.93892626146237 15.0
vertex 3.53553390593274 -3.53553390593273 15.0
vertex 4.04508497187474 -2.93892626146236 15.0
endloop
endfacet
facet normal 0.0 0.0 1.0
outer loop
vertex 4.04508497187474 2.93892626146237 15.0
vertex 4.04508497187474 -2.93892626146236 15.0
vertex 4.45503262094184 2.26995249869774 15.0
endloop
endfacet
facet normal 0.0 0.0 1.0
outer loop
vertex 4.45503262094184 2.26995249869774 15.0
vertex 4.04508497187474 -2.93892626146236 15.0
vertex 4.45503262094184 -2.26995249869773 15.0
endloop
endfacet
facet normal 0.0 0.0 1.0
outer loop
vertex 4.45503262094184 2.26995249869774 15.0
vertex 4.45503262094184 -2.26995249869773 15.0
vertex 4.75528258147577 1.54508497187474 15.0
endloop
endfacet
facet normal 0.0 0.0 1.0
outer loop
vertex 4.75528258147577 1.54508497187474 15.0
vertex 4.45503262094184 -2.26995249869773 15.0
vertex 4.75528258147577 -1.54508497187473 15.0
endloop
endfacet
facet normal 0.0 0.0 1.0
outer loop
vertex 4.75528258147577 1.54508497187474 15.0
vertex 4.75528258147577 -1.54508497187473 15.0
vertex 4.93844170297569 0.782172325201157 15.0
endloop
endfacet
facet normal 0.0 0.0 1.0
outer loop
vertex 4.93844170297569 0.782172325201157 15.0
vertex 4.75528258147577 -1.54508497187473 15.0
vertex 4.93844170297569 -0.782172325201152 15.0
endloop
endfacet
facet normal 0.0 0.0 1.0
outer loop
vertex 4.93844170297569 0.782172325201157 15.0
vertex 4.93844170297569 -0.782172325201152 15.0
vertex 5.0 2.58829592988965e-015 15.0
endloop
endfacet
facet normal 0.0 0.0 1.0
outer loop
vertex -4.93844170297569 -0.782172325201155 15.0
vertex -4.93844170297569 0.782172325201153 15.0
vertex -5.0 -1.08564446755241e-015 15.0
endloop
endfacet
facet normal 0.0 0.0 1.0
outer loop
vertex -4.93844170297569 0.782172325201153 15.0
vertex -4.93844170297569 -0.782172325201155 15.0
vertex -4.75528258147577 1.54508497187474 15.0
endloop
endfacet
facet normal 0.0 0.0 1.0
outer loop
vertex -4.75528258147577 1.54508497187474 15.0
vertex -4.93844170297569 -0.782172325201155 15.0
vertex -4.75528258147577 -1.54508497187474 15.0
endloop
endfacet
facet normal 0.0 0.0 1.0
outer loop
vertex -4.75528258147577 1.54508497187474 15.0
vertex -4.75528258147577 -1.54508497187474 15.0
vertex -4.45503262094184 2.26995249869773 15.0
endloop
endfacet
facet normal 0.0 0.0 1.0
outer loop
vertex -4.45503262094184 2.26995249869773 15.0
vertex -4.75528258147577 -1.54508497187474 15.0
vertex -4.45503262094184 -2.26995249869773 15.0
endloop
endfacet
facet normal 0.0 0.0 1.0
outer loop
vertex -4.45503262094184 2.26995249869773 15.0
vertex -4.45503262094184 -2.26995249869773 15.0
vertex -4.04508497187474 2.93892626146236 15.0
endloop
endfacet
facet normal 0.0 0.0 1.0
outer loop
vertex -4.04508497187474 2.93892626146236 15.0
vertex -4.45503262094184 -2.26995249869773 15.0
vertex -4.04508497187474 -2.93892626146237 15.0
endloop
endfacet
facet normal 0.0 0.0 1.0
outer loop
vertex -4.04508497187474 2.93892626146236 15.0
vertex -4.04508497187474 -2.93892626146237 15.0
vertex -3.53553390593274 3.53553390593274 15.0
endloop
endfacet
facet normal 0.0 0.0 1.0
outer loop
vertex -3.53553390593274 3.53553390593274 15.0
vertex -4.04508497187474 -2.93892626146237 15.0
vertex -3.53553390593274 -3.53553390593274 15.0
endloop
endfacet
facet normal 0.0 0.0 1.0
outer loop
vertex -3.53553390593274 3.53553390593274 15.0
vertex -3.53553390593274 -3.53553390593274 15.0
vertex -2.93892626146237 4.04508497187474 15.0
endloop
endfacet
facet normal 0.0 0.0 1.0
outer loop
vertex -2.93892626146237 4.04508497187474 15.0
vertex -3.53553390593274 -3.53553390593274 15.0
vertex -2.93892626146236 -4.04508497187474 15.0
endloop
endfacet
facet normal 0.0 0.0 1.0
outer loop
vertex -2.93892626146237 4.04508497187474 15.0
vertex -2.93892626146236 -4.04508497187474 15.0
vertex -2.26995249869774 4.45503262094184 15.0
endloop
endfacet
facet normal 0.0 0.0 1.0
outer loop
vertex -2.26995249869774 4.45503262094184 15.0
vertex -2.93892626146236 -4.04508497187474 15.0
vertex -2.26995249869773 -4.45503262094184 15.0
endloop
endfacet
facet normal 0.0 0.0 1.0
outer loop
vertex -2.26995249869774 4.45503262094184 15.0
vertex -2.26995249869773 -4.45503262094184 15.0
vertex -1.54508497187474 4.75528258147577 15.0
endloop
endfacet
facet normal 0.0 0.0 1.0
outer loop
vertex -1.54508497187474 4.75528258147577 15.0
vertex -2.26995249869773 -4.45503262094184 15.0
vertex -1.54508497187474 -4.75528258147577 15.0
endloop
endfacet
facet normal 0.0 0.0 1.0
outer loop
vertex -1.54508497187474 4.75528258147577 15.0
vertex -1.54508497187474 -4.75528258147577 15.0
vertex -1.5 2.5 15.0
endloop
endfacet
facet normal 0.0 0.0 1.0
outer loop
vertex -1.54508497187474 4.75528258147577 15.0
vertex -1.5 2.5 15.0
vertex -0.782172325201157 4.93844170297569 15.0
endloop
endfacet
facet normal 0.0 0.0 1.0
outer loop
vertex -1.5 2.5 15.0
vertex -1.54508497187474 -4.75528258147577 15.0
vertex -1.5 -2.5 15.0
endloop
endfacet
facet normal 0.0 0.0 1.0
outer loop
vertex -0.782172325201157 4.93844170297569 15.0
vertex -1.5 2.5 15.0
vertex 1.5 2.5 15.0
endloop
endfacet
facet normal 0.0 0.0 1.0
outer loop
vertex -0.782172325201157 4.93844170297569 15.0
vertex 1.5 2.5 15.0
vertex -2.62554150345395e-015 5.0 15.0
endloop
endfacet
facet normal 0.0 0.0 1.0
outer loop
vertex -2.62554150345395e-015 5.0 15.0
vertex 1.5 2.5 15.0
vertex 0.782172325201153 4.93844170297569 15.0
endloop
endfacet
facet normal 0.0 0.0 1.0
outer loop
vertex 0.782172325201153 4.93844170297569 15.0
vertex 1.5 2.5 15.0
vertex 1.54508497187474 4.75528258147577 15.0
endloop
endfacet
facet normal 0.707106781186548 -0.707106781186547 0.0
outer loop
vertex 3.53553390593274 -3.53553390593273 15.0
vertex 2.93892626146237 -4.04508497187473 6.99999999999999
vertex 3.53553390593274 -3.53553390593273 6.99999999999999
endloop
endfacet
facet normal 0.587785252292473 -0.809016994374947 0.0
outer loop
vertex 2.93892626146237 -4.04508497187473 6.99999999999999
vertex 3.53553390593274 -3.53553390593273 15.0
vertex 2.93892626146237 -4.04508497187473 15.0
endloop
endfacet
facet normal 0.809016994374948 -0.587785252292473 0.0
outer loop
vertex 4.04508497187474 -2.93892626146236 6.99999999999999
vertex 3.53553390593274 -3.53553390593273 15.0
vertex 3.53553390593274 -3.53553390593273 6.99999999999999
endloop
endfacet
facet normal 0.707106781186548 -0.707106781186547 0.0
outer loop
vertex 3.53553390593274 -3.53553390593273 15.0
vertex 4.04508497187474 -2.93892626146236 6.99999999999999
vertex 4.04508497187474 -2.93892626146236 15.0
endloop
endfacet
facet normal 0.891006524188368 -0.453990499739546 0.0
outer loop
vertex 4.45503262094184 -2.26995249869773 6.99999999999999
vertex 4.04508497187474 -2.93892626146236 15.0
vertex 4.04508497187474 -2.93892626146236 6.99999999999999
endloop
endfacet
facet normal 0.809016994374948 -0.587785252292473 0.0
outer loop
vertex 4.04508497187474 -2.93892626146236 15.0
vertex 4.45503262094184 -2.26995249869773 6.99999999999999
vertex 4.45503262094184 -2.26995249869773 15.0
endloop
endfacet
facet normal 0.951056516295154 -0.309016994374947 0.0
outer loop
vertex 4.75528258147577 -1.54508497187473 6.99999999999999
vertex 4.45503262094184 -2.26995249869773 15.0
vertex 4.45503262094184 -2.26995249869773 6.99999999999999
endloop
endfacet
facet normal 0.891006524188368 -0.453990499739546 0.0
outer loop
vertex 4.45503262094184 -2.26995249869773 15.0
vertex 4.75528258147577 -1.54508497187473 6.99999999999999
vertex 4.75528258147577 -1.54508497187473 15.0
endloop
endfacet
facet normal 0.987688340595138 -0.156434465040231 0.0
outer loop
vertex 4.93844170297569 -0.782172325201152 6.99999999999999
vertex 4.75528258147577 -1.54508497187473 15.0
vertex 4.75528258147577 -1.54508497187473 6.99999999999999
endloop
endfacet
facet normal 0.951056516295154 -0.309016994374947 0.0
outer loop
vertex 4.75528258147577 -1.54508497187473 15.0
vertex 4.93844170297569 -0.782172325201152 6.99999999999999
vertex 4.93844170297569 -0.782172325201152 15.0
endloop
endfacet
facet normal 1.0 4.51971858275078e-016 0.0
outer loop
vertex 5.0 2.58829592988965e-015 6.99999999999999
vertex 4.93844170297569 -0.782172325201152 15.0
vertex 4.93844170297569 -0.782172325201152 6.99999999999999
endloop
endfacet
facet normal 0.987688340595138 -0.156434465040231 0.0
outer loop
vertex 4.93844170297569 -0.782172325201152 15.0
vertex 5.0 2.58829592988965e-015 6.99999999999999
vertex 5.0 2.58829592988965e-015 15.0
endloop
endfacet
facet normal 0.987688340595138 0.156434465040232 0.0
outer loop
vertex 4.93844170297569 0.782172325201157 6.99999999999999
vertex 5.0 2.58829592988965e-015 15.0
vertex 5.0 2.58829592988965e-015 6.99999999999999
endloop
endfacet
facet normal 1.0 4.51971858275078e-016 0.0
outer loop
vertex 5.0 2.58829592988965e-015 15.0
vertex 4.93844170297569 0.782172325201157 6.99999999999999
vertex 4.93844170297569 0.782172325201157 15.0
endloop
endfacet
facet normal 0.951056516295154 0.309016994374947 0.0
outer loop
vertex 4.75528258147577 1.54508497187474 6.99999999999999
vertex 4.93844170297569 0.782172325201157 15.0
vertex 4.93844170297569 0.782172325201157 6.99999999999999
endloop
endfacet
facet normal 0.987688340595138 0.156434465040232 0.0
outer loop
vertex 4.93844170297569 0.782172325201157 15.0
vertex 4.75528258147577 1.54508497187474 6.99999999999999
vertex 4.75528258147577 1.54508497187474 15.0
endloop
endfacet
facet normal 0.891006524188368 0.453990499739546 0.0
outer loop
vertex 4.45503262094184 2.26995249869774 6.99999999999999
vertex 4.75528258147577 1.54508497187474 15.0
vertex 4.75528258147577 1.54508497187474 6.99999999999999
endloop
endfacet
facet normal 0.951056516295154 0.309016994374947 0.0
outer loop
vertex 4.75528258147577 1.54508497187474 15.0
vertex 4.45503262094184 2.26995249869774 6.99999999999999
vertex 4.45503262094184 2.26995249869774 15.0
endloop
endfacet
facet normal 0.809016994374947 0.587785252292474 0.0
outer loop
vertex 4.04508497187474 2.93892626146237 6.99999999999999
vertex 4.45503262094184 2.26995249869774 15.0
vertex 4.45503262094184 2.26995249869774 6.99999999999999
endloop
endfacet
facet normal 0.891006524188368 0.453990499739546 0.0
outer loop
vertex 4.45503262094184 2.26995249869774 15.0
vertex 4.04508497187474 2.93892626146237 6.99999999999999
vertex 4.04508497187474 2.93892626146237 15.0
endloop
endfacet
facet normal 0.707106781186547 0.707106781186548 0.0
outer loop
vertex 3.53553390593274 3.53553390593274 6.99999999999999
vertex 4.04508497187474 2.93892626146237 15.0
vertex 4.04508497187474 2.93892626146237 6.99999999999999
endloop
endfacet
facet normal 0.809016994374947 0.587785252292474 0.0
outer loop
vertex 4.04508497187474 2.93892626146237 15.0
vertex 3.53553390593274 3.53553390593274 6.99999999999999
vertex 3.53553390593274 3.53553390593274 15.0
endloop
endfacet
facet normal 0.587785252292473 0.809016994374947 0.0
outer loop
vertex 2.93892626146236 4.04508497187474 15.0
vertex 3.53553390593274 3.53553390593274 6.99999999999999
vertex 2.93892626146236 4.04508497187474 6.99999999999999
endloop
endfacet
facet normal 0.707106781186547 0.707106781186548 0.0
outer loop
vertex 3.53553390593274 3.53553390593274 6.99999999999999
vertex 2.93892626146236 4.04508497187474 15.0
vertex 3.53553390593274 3.53553390593274 15.0
endloop
endfacet
facet normal 0.453990499739546 0.891006524188368 0.0
outer loop
vertex 2.26995249869773 4.45503262094184 15.0
vertex 2.93892626146236 4.04508497187474 6.99999999999999
vertex 2.26995249869773 4.45503262094184 6.99999999999999
endloop
endfacet
facet normal 0.587785252292473 0.809016994374947 0.0
outer loop
vertex 2.93892626146236 4.04508497187474 6.99999999999999
vertex 2.26995249869773 4.45503262094184 15.0
vertex 2.93892626146236 4.04508497187474 15.0
endloop
endfacet
facet normal 0.309016994374947 0.951056516295154 0.0
outer loop
vertex 1.54508497187474 4.75528258147577 15.0
vertex 2.26995249869773 4.45503262094184 6.99999999999999
vertex 1.54508497187474 4.75528258147577 6.99999999999999
endloop
endfacet
facet normal 0.453990499739546 0.891006524188368 0.0
outer loop
vertex 2.26995249869773 4.45503262094184 6.99999999999999
vertex 1.54508497187474 4.75528258147577 15.0
vertex 2.26995249869773 4.45503262094184 15.0
endloop
endfacet
facet normal 0.156434465040231 0.987688340595138 0.0
outer loop
vertex 0.782172325201153 4.93844170297569 15.0
vertex 1.54508497187474 4.75528258147577 6.99999999999999
vertex 0.782172325201153 4.93844170297569 6.99999999999999
endloop
endfacet
facet normal 0.309016994374947 0.951056516295154 0.0
outer loop
vertex 1.54508497187474 4.75528258147577 6.99999999999999
vertex 0.782172325201153 4.93844170297569 15.0
vertex 1.54508497187474 4.75528258147577 15.0
endloop
endfacet
facet normal -5.76042564468237e-017 1.0 0.0
outer loop
vertex -2.62554150345395e-015 5.0 15.0
vertex 0.782172325201153 4.93844170297569 6.99999999999999
vertex -2.62554150345395e-015 5.0 6.99999999999999
endloop
endfacet
facet normal 0.156434465040231 0.987688340595138 0.0
outer loop
vertex 0.782172325201153 4.93844170297569 6.99999999999999
vertex -2.62554150345395e-015 5.0 15.0
vertex 0.782172325201153 4.93844170297569 15.0
endloop
endfacet
facet normal -0.156434465040232 0.987688340595138 0.0
outer loop
vertex -0.782172325201157 4.93844170297569 15.0
vertex -2.62554150345395e-015 5.0 6.99999999999999
vertex -0.782172325201157 4.93844170297569 6.99999999999999
endloop
endfacet
facet normal -5.76042564468237e-017 1.0 0.0
outer loop
vertex -2.62554150345395e-015 5.0 6.99999999999999
vertex -0.782172325201157 4.93844170297569 15.0
vertex -2.62554150345395e-015 5.0 15.0
endloop
endfacet
facet normal -0.309016994374948 0.951056516295153 0.0
outer loop
vertex -1.54508497187474 4.75528258147577 15.0
vertex -0.782172325201157 4.93844170297569 6.99999999999999
vertex -1.54508497187474 4.75528258147577 6.99999999999999
endloop
endfacet
facet normal -0.156434465040232 0.987688340595138 0.0
outer loop
vertex -0.782172325201157 4.93844170297569 6.99999999999999
vertex -1.54508497187474 4.75528258147577 15.0
vertex -0.782172325201157 4.93844170297569 15.0
endloop
endfacet
facet normal -0.453990499739546 0.891006524188368 0.0
outer loop
vertex -2.26995249869774 4.45503262094184 15.0
vertex -1.54508497187474 4.75528258147577 6.99999999999999
vertex -2.26995249869774 4.45503262094184 6.99999999999999
endloop
endfacet
facet normal -0.309016994374948 0.951056516295153 0.0
outer loop
vertex -1.54508497187474 4.75528258147577 6.99999999999999
vertex -2.26995249869774 4.45503262094184 15.0
vertex -1.54508497187474 4.75528258147577 15.0
endloop
endfacet
facet normal -0.587785252292473 0.809016994374947 0.0
outer loop
vertex -2.93892626146237 4.04508497187474 15.0
vertex -2.26995249869774 4.45503262094184 6.99999999999999
vertex -2.93892626146237 4.04508497187474 6.99999999999999
endloop
endfacet
facet normal -0.453990499739546 0.891006524188368 0.0
outer loop
vertex -2.26995249869774 4.45503262094184 6.99999999999999
vertex -2.93892626146237 4.04508497187474 15.0
vertex -2.26995249869774 4.45503262094184 15.0
endloop
endfacet
facet normal -0.707106781186548 0.707106781186547 0.0
outer loop
vertex -3.53553390593274 3.53553390593274 15.0
vertex -2.93892626146237 4.04508497187474 6.99999999999999
vertex -3.53553390593274 3.53553390593274 6.99999999999999
endloop
endfacet
facet normal -0.587785252292473 0.809016994374947 0.0
outer loop
vertex -2.93892626146237 4.04508497187474 6.99999999999999
vertex -3.53553390593274 3.53553390593274 15.0
vertex -2.93892626146237 4.04508497187474 15.0
endloop
endfacet
facet normal -0.707106781186548 0.707106781186547 0.0
outer loop
vertex -3.53553390593274 3.53553390593274 15.0
vertex -4.04508497187474 2.93892626146236 6.99999999999999
vertex -4.04508497187474 2.93892626146236 15.0
endloop
endfacet
facet normal -0.809016994374948 0.587785252292472 0.0
outer loop
vertex -4.04508497187474 2.93892626146236 6.99999999999999
vertex -3.53553390593274 3.53553390593274 15.0
vertex -3.53553390593274 3.53553390593274 6.99999999999999
endloop
endfacet
facet normal -0.809016994374948 0.587785252292472 0.0
outer loop
vertex -4.04508497187474 2.93892626146236 15.0
vertex -4.45503262094184 2.26995249869773 6.99999999999999
vertex -4.45503262094184 2.26995249869773 15.0
endloop
endfacet
facet normal -0.891006524188368 0.453990499739546 0.0
outer loop
vertex -4.45503262094184 2.26995249869773 6.99999999999999
vertex -4.04508497187474 2.93892626146236 15.0
vertex -4.04508497187474 2.93892626146236 6.99999999999999
endloop
endfacet
facet normal -0.891006524188368 0.453990499739546 0.0
outer loop
vertex -4.45503262094184 2.26995249869773 15.0
vertex -4.75528258147577 1.54508497187474 6.99999999999999
vertex -4.75528258147577 1.54508497187474 15.0
endloop
endfacet
facet normal -0.951056516295154 0.309016994374947 0.0
outer loop
vertex -4.75528258147577 1.54508497187474 6.99999999999999
vertex -4.45503262094184 2.26995249869773 15.0
vertex -4.45503262094184 2.26995249869773 6.99999999999999
endloop
endfacet
facet normal -0.951056516295154 0.309016994374947 0.0
outer loop
vertex -4.75528258147577 1.54508497187474 15.0
vertex -4.93844170297569 0.782172325201153 6.99999999999999
vertex -4.93844170297569 0.782172325201153 15.0
endloop
endfacet
facet normal -0.987688340595138 0.15643446504023 0.0
outer loop
vertex -4.93844170297569 0.782172325201153 6.99999999999999
vertex -4.75528258147577 1.54508497187474 15.0
vertex -4.75528258147577 1.54508497187474 6.99999999999999
endloop
endfacet
facet normal -0.987688340595138 0.15643446504023 0.0
outer loop
vertex -4.93844170297569 0.782172325201153 15.0
vertex -5.0 -1.08564446755241e-015 6.99999999999999
vertex -5.0 -1.08564446755241e-015 15.0
endloop
endfacet
facet normal -1.0 -4.38678568325811e-016 0.0
outer loop
vertex -5.0 -1.08564446755241e-015 6.99999999999999
vertex -4.93844170297569 0.782172325201153 15.0
vertex -4.93844170297569 0.782172325201153 6.99999999999999
endloop
endfacet
facet normal -1.0 -4.38678568325811e-016 0.0
outer loop
vertex -5.0 -1.08564446755241e-015 15.0
vertex -4.93844170297569 -0.782172325201155 6.99999999999999
vertex -4.93844170297569 -0.782172325201155 15.0
endloop
endfacet
facet normal -0.987688340595138 -0.156434465040231 0.0
outer loop
vertex -4.93844170297569 -0.782172325201155 6.99999999999999
vertex -5.0 -1.08564446755241e-015 15.0
vertex -5.0 -1.08564446755241e-015 6.99999999999999
endloop
endfacet
facet normal -0.987688340595138 -0.156434465040231 0.0
outer loop
vertex -4.93844170297569 -0.782172325201155 15.0
vertex -4.75528258147577 -1.54508497187474 6.99999999999999
vertex -4.75528258147577 -1.54508497187474 15.0
endloop
endfacet
facet normal -0.951056516295154 -0.309016994374948 0.0
outer loop
vertex -4.75528258147577 -1.54508497187474 6.99999999999999
vertex -4.93844170297569 -0.782172325201155 15.0
vertex -4.93844170297569 -0.782172325201155 6.99999999999999
endloop
endfacet
facet normal -0.951056516295154 -0.309016994374948 0.0
outer loop
vertex -4.75528258147577 -1.54508497187474 15.0
vertex -4.45503262094184 -2.26995249869773 6.99999999999999
vertex -4.45503262094184 -2.26995249869773 15.0
endloop
endfacet
facet normal -0.891006524188368 -0.453990499739547 0.0
outer loop
vertex -4.45503262094184 -2.26995249869773 6.99999999999999
vertex -4.75528258147577 -1.54508497187474 15.0
vertex -4.75528258147577 -1.54508497187474 6.99999999999999
endloop
endfacet
facet normal -0.891006524188368 -0.453990499739547 0.0
outer loop
vertex -4.45503262094184 -2.26995249869773 15.0
vertex -4.04508497187474 -2.93892626146237 6.99999999999999
vertex -4.04508497187474 -2.93892626146237 15.0
endloop
endfacet
facet normal -0.809016994374947 -0.587785252292473 0.0
outer loop
vertex -4.04508497187474 -2.93892626146237 6.99999999999999
vertex -4.45503262094184 -2.26995249869773 15.0
vertex -4.45503262094184 -2.26995249869773 6.99999999999999
endloop
endfacet
facet normal -0.809016994374947 -0.587785252292473 0.0
outer loop
vertex -4.04508497187474 -2.93892626146237 15.0
vertex -3.53553390593274 -3.53553390593274 6.99999999999999
vertex -3.53553390593274 -3.53553390593274 15.0
endloop
endfacet
facet normal -0.707106781186547 -0.707106781186548 0.0
outer loop
vertex -3.53553390593274 -3.53553390593274 6.99999999999999
vertex -4.04508497187474 -2.93892626146237 15.0
vertex -4.04508497187474 -2.93892626146237 6.99999999999999
endloop
endfacet
facet normal -0.587785252292473 -0.809016994374948 0.0
outer loop
vertex -2.93892626146236 -4.04508497187474 15.0
vertex -3.53553390593274 -3.53553390593274 6.99999999999999
vertex -2.93892626146236 -4.04508497187474 6.99999999999999
endloop
endfacet
facet normal -0.707106781186547 -0.707106781186548 0.0
outer loop
vertex -3.53553390593274 -3.53553390593274 6.99999999999999
vertex -2.93892626146236 -4.04508497187474 15.0
vertex -3.53553390593274 -3.53553390593274 15.0
endloop
endfacet
facet normal -0.453990499739546 -0.891006524188368 0.0
outer loop
vertex -2.26995249869773 -4.45503262094184 15.0
vertex -2.93892626146236 -4.04508497187474 6.99999999999999
vertex -2.26995249869773 -4.45503262094184 6.99999999999999
endloop
endfacet
facet normal -0.587785252292473 -0.809016994374948 0.0
outer loop
vertex -2.93892626146236 -4.04508497187474 6.99999999999999
vertex -2.26995249869773 -4.45503262094184 15.0
vertex -2.93892626146236 -4.04508497187474 15.0
endloop
endfacet
facet normal -0.309016994374947 -0.951056516295154 0.0
outer loop
vertex -1.54508497187474 -4.75528258147577 15.0
vertex -2.26995249869773 -4.45503262094184 6.99999999999999
vertex -1.54508497187474 -4.75528258147577 6.99999999999999
endloop
endfacet
facet normal -0.453990499739546 -0.891006524188368 0.0
outer loop
vertex -2.26995249869773 -4.45503262094184 6.99999999999999
vertex -1.54508497187474 -4.75528258147577 15.0
vertex -2.26995249869773 -4.45503262094184 15.0
endloop
endfacet
facet normal -0.15643446504023 -0.987688340595138 0.0
outer loop
vertex -0.782172325201152 -4.93844170297569 15.0
vertex -1.54508497187474 -4.75528258147577 6.99999999999999
vertex -0.782172325201152 -4.93844170297569 6.99999999999999
endloop
endfacet
facet normal -0.309016994374947 -0.951056516295154 0.0
outer loop
vertex -1.54508497187474 -4.75528258147577 6.99999999999999
vertex -0.782172325201152 -4.93844170297569 15.0
vertex -1.54508497187474 -4.75528258147577 15.0
endloop
endfacet
facet normal 0.0 -1.0 0.0
outer loop
vertex 1.66072229356179e-015 -5.0 15.0
vertex -0.782172325201152 -4.93844170297569 6.99999999999999
vertex 1.66072229356179e-015 -5.0 6.99999999999999
endloop
endfacet
facet normal -0.15643446504023 -0.987688340595138 0.0
outer loop
vertex -0.782172325201152 -4.93844170297569 6.99999999999999
vertex 1.66072229356179e-015 -5.0 15.0
vertex -0.782172325201152 -4.93844170297569 15.0
endloop
endfacet
facet normal 0.156434465040231 -0.987688340595138 0.0
outer loop
vertex 0.782172325201156 -4.93844170297569 15.0
vertex 1.66072229356179e-015 -5.0 6.99999999999999
vertex 0.782172325201156 -4.93844170297569 6.99999999999999
endloop
endfacet
facet normal 0.0 -1.0 0.0
outer loop
vertex 1.66072229356179e-015 -5.0 6.99999999999999
vertex 0.782172325201156 -4.93844170297569 15.0
vertex 1.66072229356179e-015 -5.0 15.0
endloop
endfacet
facet normal 0.309016994374948 -0.951056516295154 0.0
outer loop
vertex 1.54508497187474 -4.75528258147577 15.0
vertex 0.782172325201156 -4.93844170297569 6.99999999999999
vertex 1.54508497187474 -4.75528258147577 6.99999999999999
endloop
endfacet
facet normal 0.156434465040231 -0.987688340595138 0.0
outer loop
vertex 0.782172325201156 -4.93844170297569 6.99999999999999
vertex 1.54508497187474 -4.75528258147577 15.0
vertex 0.782172325201156 -4.93844170297569 15.0
endloop
endfacet
facet normal 0.453990499739547 -0.891006524188368 0.0
outer loop
vertex 2.26995249869774 -4.45503262094184 15.0
vertex 1.54508497187474 -4.75528258147577 6.99999999999999
vertex 2.26995249869774 -4.45503262094184 6.99999999999999
endloop
endfacet
facet normal 0.309016994374948 -0.951056516295154 0.0
outer loop
vertex 1.54508497187474 -4.75528258147577 6.99999999999999
vertex 2.26995249869774 -4.45503262094184 15.0
vertex 1.54508497187474 -4.75528258147577 15.0
endloop
endfacet
facet normal 0.587785252292473 -0.809016994374947 0.0
outer loop
vertex 2.93892626146237 -4.04508497187473 15.0
vertex 2.26995249869774 -4.45503262094184 6.99999999999999
vertex 2.93892626146237 -4.04508497187473 6.99999999999999
endloop
endfacet
facet normal 0.453990499739547 -0.891006524188368 0.0
outer loop
vertex 2.26995249869774 -4.45503262094184 6.99999999999999
vertex 2.93892626146237 -4.04508497187473 15.0
vertex 2.26995249869774 -4.45503262094184 15.0
endloop
endfacet
endsolid motor-wheel-v
