solid motor-pulley-cap
facet normal 0.965918464504461 0.258846518093917 -2.1711955479841e-019
outer loop
vertex -2.41481456572267 -0.647047612756302 0.0
vertex -2.1672024263389 -1.24720668073974 9.49999862471114
vertex -2.1650635094611 -1.25 0.0
endloop
endfacet
facet normal 0.866040660416703 0.499973573806657 1.01539718783185e-018
outer loop
vertex -2.1672024263389 -1.24720668073974 9.49999862471114
vertex -2.41481456572267 -0.647047612756302 0.0
vertex -2.41695348260047 -0.644254293496045 9.49999862471114
endloop
endfacet
facet normal 0.866010146467444 0.500026425517129 1.01586798727524e-018
outer loop
vertex -2.1650635094611 -1.25 0.0
vertex -1.76990586984417 -1.76497363370611 9.49999862471114
vertex -1.76776695296637 -1.76776695296637 0.0
endloop
endfacet
facet normal 0.707128351661762 0.7070852100533 1.87376148560212e-018
outer loop
vertex -1.76990586984417 -1.76497363370611 9.49999862471114
vertex -2.1650635094611 -1.25 0.0
vertex -2.1672024263389 -1.24720668073974 9.49999862471114
endloop
endfacet
facet normal 0.707128351661762 0.7070852100533 1.87376148560212e-018
outer loop
vertex -1.76990586984417 -1.76497363370611 9.49999862471114
vertex -1.25 -2.1650635094611 0.0
vertex -1.76776695296637 -1.76776695296637 0.0
endloop
endfacet
facet normal 0.499975388085281 0.866039613013731 2.04562857061614e-019
outer loop
vertex -1.25 -2.1650635094611 0.0
vertex -1.76990586984417 -1.76497363370611 9.49999862471114
vertex -1.2521389168778 -2.16227019020084 9.49999862471114
endloop
endfacet
facet normal 0.500024610929826 0.866011194191204 2.05215320857036e-019
outer loop
vertex -1.2521389168778 -2.16227019020084 9.49999862471114
vertex -0.647047612756303 -2.41481456572267 0.0
vertex -1.25 -2.1650635094611 0.0
endloop
endfacet
facet normal 0.258795480724438 0.965932140037077 -3.24457163816092e-019
outer loop
vertex -0.647047612756303 -2.41481456572267 0.0
vertex -1.2521389168778 -2.16227019020084 9.49999862471114
vertex -0.649186529634104 -2.41202124646241 9.49999862471114
endloop
endfacet
facet normal 0.258842608442547 0.965919512203091 -3.24821005278203e-019
outer loop
vertex -0.649186529634104 -2.41202124646241 9.49999862471114
vertex -3.06161699786838e-016 -2.5 0.0
vertex -0.647047612756303 -2.41481456572267 0.0
endloop
endfacet
facet normal -1.87093526046604e-005 0.99999999982498 1.11320186000531e-019
outer loop
vertex -3.06161699786838e-016 -2.5 0.0
vertex -0.649186529634104 -2.41202124646241 9.49999862471114
vertex -0.00213891687780122 -2.49720668073974 9.49999862471114
endloop
endfacet
facet normal 1.87084383803138e-005 0.999999999824997 1.11475291578003e-019
outer loop
vertex -0.00213891687780122 -2.49720668073974 9.49999862471114
vertex 0.647047612756301 -2.41481456572267 0.0
vertex -3.06161699786838e-016 -2.5 0.0
endloop
endfacet
facet normal -0.258830392822467 0.96592278560523 -2.17147092672899e-019
outer loop
vertex 0.647047612756301 -2.41481456572267 0.0
vertex -0.00213891687780122 -2.49720668073974 9.49999862471114
vertex 0.6449086958785 -2.41202124646242 9.49999862471114
endloop
endfacet
facet normal -0.258807697992354 0.965928866666639 -2.17185849376419e-019
outer loop
vertex 0.6449086958785 -2.41202124646242 9.49999862471114
vertex 1.25 -2.1650635094611 0.0
vertex 0.647047612756301 -2.41481456572267 0.0
endloop
endfacet
facet normal -0.50000345202186 0.866023410749515 -8.58118373787937e-019
outer loop
vertex 1.25 -2.1650635094611 0.0
vertex 0.6449086958785 -2.41202124646242 9.49999862471114
vertex 1.2478610831222 -2.16227019020084 9.49999862471114
endloop
endfacet
facet normal -0.499996548180859 0.866027396683977 -8.58066414271732e-019
outer loop
vertex 1.2478610831222 -2.16227019020084 9.49999862471114
vertex 1.76776695296637 -1.76776695296637 0.0
vertex 1.25 -2.1650635094611 0.0
endloop
endfacet
facet normal -0.707103919096775 0.707109643264735 1.57482588871175e-019
outer loop
vertex 1.76776695296637 -1.76776695296637 0.0
vertex 1.2478610831222 -2.16227019020084 9.49999862471114
vertex 1.76562803608857 -1.76497363370611 9.49999862471114
endloop
endfacet
facet normal -0.70710964309012 0.707103919271391 1.57597799053165e-019
outer loop
vertex 1.76562803608857 -1.76497363370611 9.49999862471114
vertex 2.1650635094611 -1.25 0.0
vertex 1.76776695296637 -1.76776695296637 0.0
endloop
endfacet
facet normal -0.866019501028991 0.500010223732973 1.34229602503032e-018
outer loop
vertex 2.1650635094611 -1.25 0.0
vertex 1.76562803608857 -1.76497363370611 9.49999862471114
vertex 2.1629245925833 -1.24720668073975 9.49999862471114
endloop
endfacet
facet normal -0.866031306083711 0.499989776778427 1.34217245657427e-018
outer loop
vertex 2.1629245925833 -1.24720668073975 9.49999862471114
vertex 2.41481456572267 -0.647047612756304 0.0
vertex 2.1650635094611 -1.25 0.0
endloop
endfacet
facet normal -0.965920971036856 0.25883716447067 -1.86921035661391e-021
outer loop
vertex 2.41481456572267 -0.647047612756304 0.0
vertex 2.1629245925833 -1.24720668073975 9.49999862471114
vertex 2.41267564884487 -0.644254293496048 9.49999862471114
endloop
endfacet
facet normal -0.965930680964527 0.258800926527331 -2.05590932633752e-021
outer loop
vertex 2.41267564884487 -0.644254293496048 9.49999862471114
vertex 2.5 -4.59242549680257e-016 0.0
vertex 2.41481456572267 -0.647047612756304 0.0
endloop
endfacet
facet normal -0.999999999701506 2.44333455805156e-005 -4.34374291595236e-019
outer loop
vertex 2.5 -4.59242549680257e-016 0.0
vertex 2.41267564884487 -0.644254293496048 9.49999862471114
vertex 2.4978610831222 0.00279331926025566 9.49999862471114
endloop
endfacet
facet normal -0.999999999701528 -2.44324313552225e-005 -4.34291596055881e-019
outer loop
vertex 2.4978610831222 0.00279331926025566 9.49999862471114
vertex 2.41481456572267 0.647047612756301 0.0
vertex 2.5 -4.59242549680257e-016 0.0
endloop
endfacet
facet normal -0.965933187465222 -0.258791571256245 2.88366310444401e-019
outer loop
vertex 2.41481456572267 0.647047612756301 0.0
vertex 2.4978610831222 0.00279331926025566 9.49999862471114
vertex 2.41267564884487 0.649840932016557 9.49999862471114
endloop
endfacet
facet normal -0.965918464504461 -0.258846518093916 2.88582358356445e-019
outer loop
vertex 2.41267564884487 0.649840932016557 9.49999862471114
vertex 2.1650635094611 1.25 0.0
vertex 2.41481456572267 0.647047612756301 0.0
endloop
endfacet
facet normal -0.866040660416703 -0.499973573806657 7.32800172391963e-019
outer loop
vertex 2.1650635094611 1.25 0.0
vertex 2.41267564884487 0.649840932016557 9.49999862471114
vertex 2.1629245925833 1.25279331926025 9.49999862471114
endloop
endfacet
facet normal -0.866010146467444 -0.500026425517128 7.32774353018463e-019
outer loop
vertex 2.1629245925833 1.25279331926025 9.49999862471114
vertex 1.76776695296637 1.76776695296637 0.0
vertex 2.1650635094611 1.25 0.0
endloop
endfacet
facet normal -0.707128351661762 -0.7070852100533 6.77088392328053e-019
outer loop
vertex 1.76776695296637 1.76776695296637 0.0
vertex 2.1629245925833 1.25279331926025 9.49999862471114
vertex 1.76562803608857 1.77056027222662 9.49999862471114
endloop
endfacet
facet normal -0.70708520987868 -0.707128351836371 6.77088392328048e-019
outer loop
vertex 1.76562803608857 1.77056027222662 9.49999862471114
vertex 1.25 2.1650635094611 0.0
vertex 1.76776695296637 1.76776695296637 0.0
endloop
endfacet
facet normal -0.500024610929827 -0.866011194191204 1.20861244173586e-020
outer loop
vertex 1.25 2.1650635094611 0.0
vertex 1.76562803608857 1.77056027222662 9.49999862471114
vertex 1.2478610831222 2.16785682872135 9.49999862471114
endloop
endfacet
facet normal -0.499975388085281 -0.866039613013731 1.17989644754942e-020
outer loop
vertex 1.2478610831222 2.16785682872135 9.49999862471114
vertex 0.647047612756304 2.41481456572267 0.0
vertex 1.25 2.1650635094611 0.0
endloop
endfacet
facet normal -0.258842608442547 -0.965919512203091 -5.43788399474605e-019
outer loop
vertex 0.647047612756304 2.41481456572267 0.0
vertex 1.2478610831222 2.16785682872135 9.49999862471114
vertex 0.644908695878503 2.41760788498293 9.49999862471114
endloop
endfacet
facet normal -0.258795480724439 -0.965932140037077 -5.43747842973314e-019
outer loop
vertex 0.644908695878503 2.41760788498293 9.49999862471114
vertex 0.0 2.5 0.0
vertex 0.647047612756304 2.41481456572267 0.0
endloop
endfacet
facet normal -1.87084383801801e-005 -0.999999999824997 -4.34332943105617e-019
outer loop
vertex 0.0 2.5 0.0
vertex 0.644908695878503 2.41760788498293 9.49999862471114
vertex -0.00213891687780091 2.50279331926026 9.49999862471114
endloop
endfacet
facet normal 1.87093526047851e-005 -0.99999999982498 -4.3433294310561e-019
outer loop
vertex -0.00213891687780091 2.50279331926026 9.49999862471114
vertex -0.647047612756302 2.41481456572267 0.0
vertex 0.0 2.5 0.0
endloop
endfacet
facet normal 0.258807697992354 -0.965928866666639 -2.17185849376417e-019
outer loop
vertex -0.647047612756302 2.41481456572267 0.0
vertex -0.00213891687780091 2.50279331926026 9.49999862471114
vertex -0.649186529634103 2.41760788498293 9.49999862471114
endloop
endfacet
facet normal 0.258830392822467 -0.96592278560523 -2.17147092672897e-019
outer loop
vertex -0.649186529634103 2.41760788498293 9.49999862471114
vertex -1.25 2.1650635094611 0.0
vertex -0.647047612756302 2.41481456572267 0.0
endloop
endfacet
facet normal 0.499996548180859 -0.866027396683977 1.01560184042176e-018
outer loop
vertex -1.25 2.1650635094611 0.0
vertex -0.649186529634103 2.41760788498293 9.49999862471114
vertex -1.2521389168778 2.16785682872135 9.49999862471114
endloop
endfacet
facet normal 0.50000345202186 -0.866023410749515 1.015663339368e-018
outer loop
vertex -1.2521389168778 2.16785682872135 9.49999862471114
vertex -1.76776695296637 1.76776695296637 0.0
vertex -1.25 2.1650635094611 0.0
endloop
endfacet
facet normal 0.707109643090121 -0.707103919271391 5.19501722681723e-019
outer loop
vertex -1.76776695296637 1.76776695296637 0.0
vertex -1.2521389168778 2.16785682872135 9.49999862471114
vertex -1.76990586984417 1.77056027222663 9.49999862471114
endloop
endfacet
facet normal 0.707109643090121 -0.707103919271391 5.19501722681723e-019
outer loop
vertex -1.76776695296637 1.76776695296637 0.0
vertex -2.1672024263389 1.25279331926026 9.49999862471114
vertex -2.1650635094611 1.25 0.0
endloop
endfacet
facet normal 0.866019501028991 -0.500010223732972 -4.96128876312459e-019
outer loop
vertex -2.1672024263389 1.25279331926026 9.49999862471114
vertex -1.76776695296637 1.76776695296637 0.0
vertex -1.76990586984417 1.77056027222663 9.49999862471114
endloop
endfacet
facet normal 0.866031306083711 -0.499989776778427 -4.96039910231336e-019
outer loop
vertex -2.1650635094611 1.25 0.0
vertex -2.41695348260047 0.649840932016559 9.49999862471114
vertex -2.41481456572267 0.647047612756302 0.0
endloop
endfacet
facet normal 0.965920971036857 -0.258837164470669 -2.28391943961414e-019
outer loop
vertex -2.41695348260047 0.649840932016559 9.49999862471114
vertex -2.1650635094611 1.25 0.0
vertex -2.1672024263389 1.25279331926026 9.49999862471114
endloop
endfacet
facet normal 0.965930680964527 -0.258800926527331 -2.28457036817462e-019
outer loop
vertex -2.41481456572267 0.647047612756302 0.0
vertex -2.5021389168778 0.00279331926025627 9.49999862471114
vertex -2.5 1.53080849893419e-016 0.0
endloop
endfacet
facet normal 0.999999999701506 -2.44333455801146e-005 -4.45593052053724e-019
outer loop
vertex -2.5021389168778 0.00279331926025627 9.49999862471114
vertex -2.41481456572267 0.647047612756302 0.0
vertex -2.41695348260047 0.649840932016559 9.49999862471114
endloop
endfacet
facet normal 0.999999999701528 2.44324313556235e-005 -4.45588873387273e-019
outer loop
vertex -2.5 1.53080849893419e-016 0.0
vertex -2.41695348260047 -0.644254293496045 9.49999862471114
vertex -2.41481456572267 -0.647047612756302 0.0
endloop
endfacet
facet normal 0.965933187465222 0.258791571256246 -2.17213389309873e-019
outer loop
vertex -2.41695348260047 -0.644254293496045 9.49999862471114
vertex -2.5 1.53080849893419e-016 0.0
vertex -2.5021389168778 0.00279331926025627 9.49999862471114
endloop
endfacet
facet normal -0.0 -0.0 1.0
outer loop
vertex -2.41481456572267 -0.647047612756302 0.0
vertex -2.41481456572267 0.647047612756302 0.0
vertex -2.5 1.53080849893419e-016 0.0
endloop
endfacet
facet normal -0.0 -0.0 1.0
outer loop
vertex -2.41481456572267 0.647047612756302 0.0
vertex -2.41481456572267 -0.647047612756302 0.0
vertex -2.1650635094611 -1.25 0.0
endloop
endfacet
facet normal -0.0 -0.0 1.0
outer loop
vertex -2.41481456572267 0.647047612756302 0.0
vertex -2.1650635094611 -1.25 0.0
vertex -2.1650635094611 1.25 0.0
endloop
endfacet
facet normal -0.0 -0.0 1.0
outer loop
vertex -2.1650635094611 1.25 0.0
vertex -2.1650635094611 -1.25 0.0
vertex -1.76776695296637 -1.76776695296637 0.0
endloop
endfacet
facet normal -0.0 -0.0 1.0
outer loop
vertex -2.1650635094611 1.25 0.0
vertex -1.76776695296637 -1.76776695296637 0.0
vertex -1.76776695296637 1.76776695296637 0.0
endloop
endfacet
facet normal -0.0 -0.0 1.0
outer loop
vertex -1.76776695296637 1.76776695296637 0.0
vertex -1.76776695296637 -1.76776695296637 0.0
vertex -1.25 -2.1650635094611 0.0
endloop
endfacet
facet normal -0.0 -0.0 1.0
outer loop
vertex -1.76776695296637 1.76776695296637 0.0
vertex -1.25 -2.1650635094611 0.0
vertex -1.25 2.1650635094611 0.0
endloop
endfacet
facet normal -0.0 -0.0 1.0
outer loop
vertex -1.25 2.1650635094611 0.0
vertex -1.25 -2.1650635094611 0.0
vertex -0.647047612756303 -2.41481456572267 0.0
endloop
endfacet
facet normal -0.0 -0.0 1.0
outer loop
vertex -1.25 2.1650635094611 0.0
vertex -0.647047612756303 -2.41481456572267 0.0
vertex -0.647047612756302 2.41481456572267 0.0
endloop
endfacet
facet normal -0.0 -0.0 1.0
outer loop
vertex -0.647047612756302 2.41481456572267 0.0
vertex -0.647047612756303 -2.41481456572267 0.0
vertex -3.06161699786838e-016 -2.5 0.0
endloop
endfacet
facet normal -0.0 -0.0 1.0
outer loop
vertex -0.647047612756302 2.41481456572267 0.0
vertex -3.06161699786838e-016 -2.5 0.0
vertex 0.0 2.5 0.0
endloop
endfacet
facet normal -0.0 -0.0 1.0
outer loop
vertex 0.0 2.5 0.0
vertex -3.06161699786838e-016 -2.5 0.0
vertex 0.647047612756301 -2.41481456572267 0.0
endloop
endfacet
facet normal -0.0 -0.0 1.0
outer loop
vertex 0.0 2.5 0.0
vertex 0.647047612756301 -2.41481456572267 0.0
vertex 0.647047612756304 2.41481456572267 0.0
endloop
endfacet
facet normal -0.0 -0.0 1.0
outer loop
vertex 0.647047612756304 2.41481456572267 0.0
vertex 0.647047612756301 -2.41481456572267 0.0
vertex 1.25 -2.1650635094611 0.0
endloop
endfacet
facet normal -0.0 -0.0 1.0
outer loop
vertex 0.647047612756304 2.41481456572267 0.0
vertex 1.25 -2.1650635094611 0.0
vertex 1.25 2.1650635094611 0.0
endloop
endfacet
facet normal -0.0 -0.0 1.0
outer loop
vertex 1.25 2.1650635094611 0.0
vertex 1.25 -2.1650635094611 0.0
vertex 1.76776695296637 -1.76776695296637 0.0
endloop
endfacet
facet normal -0.0 -0.0 1.0
outer loop
vertex 1.25 2.1650635094611 0.0
vertex 1.76776695296637 -1.76776695296637 0.0
vertex 1.76776695296637 1.76776695296637 0.0
endloop
endfacet
facet normal -0.0 -0.0 1.0
outer loop
vertex 1.76776695296637 1.76776695296637 0.0
vertex 1.76776695296637 -1.76776695296637 0.0
vertex 2.1650635094611 -1.25 0.0
endloop
endfacet
facet normal -0.0 -0.0 1.0
outer loop
vertex 1.76776695296637 1.76776695296637 0.0
vertex 2.1650635094611 -1.25 0.0
vertex 2.1650635094611 1.25 0.0
endloop
endfacet
facet normal -0.0 -0.0 1.0
outer loop
vertex 2.1650635094611 1.25 0.0
vertex 2.1650635094611 -1.25 0.0
vertex 2.41481456572267 -0.647047612756304 0.0
endloop
endfacet
facet normal -0.0 -0.0 1.0
outer loop
vertex 2.1650635094611 1.25 0.0
vertex 2.41481456572267 -0.647047612756304 0.0
vertex 2.41481456572267 0.647047612756301 0.0
endloop
endfacet
facet normal -0.0 -0.0 1.0
outer loop
vertex 2.41481456572267 0.647047612756301 0.0
vertex 2.41481456572267 -0.647047612756304 0.0
vertex 2.5 -4.59242549680257e-016 0.0
endloop
endfacet
facet normal 0.999999964153995 0.000116584993671014 0.000241039309382798
outer loop
vertex 3.50524517532408 9.00862896058015 -1.49
vertex 3.50392206283861 5.51011432348554 5.69120431133303
vertex 3.50524517532408 5.50862896058015 -1.49
endloop
endfacet
facet normal 0.999999964153995 0.000116584993671014 0.000241039309382798
outer loop
vertex 3.50392206283861 5.51011432348554 5.69120431133303
vertex 3.50524517532408 9.00862896058015 -1.49
vertex 3.50310625844628 9.0101134931213 5.68999885009569
endloop
endfacet
facet normal 0.0 1.0 0.0
outer loop
vertex -0.8 3.50862896058015 4.25
vertex 0.8 3.50862896058015 0.0500000000000001
vertex -0.8 3.50862896058015 0.0500000000000001
endloop
endfacet
facet normal 0.0 1.0 0.0
outer loop
vertex 0.8 3.50862896058015 0.0500000000000001
vertex -0.8 3.50862896058015 4.25
vertex 0.8 3.50862896058015 4.25
endloop
endfacet
facet normal 1.0 0.0 0.0
outer loop
vertex -0.8 9.00862896058015 0.0500000000000001
vertex -0.8 3.50862896058015 4.25
vertex -0.8 3.50862896058015 0.0500000000000001
endloop
endfacet
facet normal 1.0 0.0 0.0
outer loop
vertex -0.8 3.50862896058015 4.25
vertex -0.8 9.00862896058015 0.0500000000000001
vertex -0.8 9.00862896058015 4.25
endloop
endfacet
facet normal -3.52495810318487e-016 -0.0 -1.0
outer loop
vertex 0.8 9.00862896058015 4.25
vertex -0.8 3.50862896058015 4.25
vertex -0.8 9.00862896058015 4.25
endloop
endfacet
facet normal -3.52495810318487e-016 -0.0 -1.0
outer loop
vertex -0.8 3.50862896058015 4.25
vertex 0.8 9.00862896058015 4.25
vertex 0.8 3.50862896058015 4.25
endloop
endfacet
facet normal -1.0 -0.0 -0.0
outer loop
vertex 0.8 9.00862896058015 4.25
vertex 0.8 3.50862896058015 0.0500000000000001
vertex 0.8 3.50862896058015 4.25
endloop
endfacet
facet normal -1.0 -0.0 -0.0
outer loop
vertex 0.8 3.50862896058015 0.0500000000000001
vertex 0.8 9.00862896058015 4.25
vertex 0.8 9.00862896058015 0.0500000000000001
endloop
endfacet
facet normal 0.0 0.0 1.0
outer loop
vertex 0.8 3.50862896058015 0.0500000000000001
vertex -0.8 9.00862896058015 0.0500000000000001
vertex -0.8 3.50862896058015 0.0500000000000001
endloop
endfacet
facet normal 0.0 0.0 1.0
outer loop
vertex -0.8 9.00862896058015 0.0500000000000001
vertex 0.8 3.50862896058015 0.0500000000000001
vertex 0.8 9.00862896058015 0.0500000000000001
endloop
endfacet
facet normal 0.0 -1.0 0.0
outer loop
vertex 5.50648997591381 -5.50579705402666 9.49947933174684
vertex -3.50120303101108 -5.5086289117269 -9.00000061847915
vertex 5.49999993221146 -5.50859037328691 -9.00051929296429
endloop
endfacet
facet normal 0.0 -1.0 0.0
outer loop
vertex -3.50120303101108 -5.5086289117269 -9.00000061847915
vertex 5.50648997591381 -5.50579705402666 9.49947933174684
vertex -3.51197090846904 -5.50583559246664 9.49999800623198
endloop
endfacet
facet normal -9.03617675530118e-017 -5.13103052630041e-016 -1.0
outer loop
vertex 5.49999993221146 5.50866754787339 -9.00051929296429
vertex -3.50120303101108 -5.5086289117269 -9.00000061847915
vertex -3.50120303101108 5.50862900943341 -9.00000061847915
endloop
endfacet
facet normal -9.03617675530118e-017 -5.13103052630041e-016 -1.0
outer loop
vertex -3.50120303101108 -5.5086289117269 -9.00000061847915
vertex 5.49999993221146 5.50866754787339 -9.00051929296429
vertex 5.49999993221146 -5.50859037328691 -9.00051929296429
endloop
endfacet
facet normal 0.0 1.0 0.0
outer loop
vertex -3.50524517532408 9.00862896058015 -1.49
vertex -0.8 9.00862896058015 0.0500000000000001
vertex 3.50524517532408 9.00862896058015 -1.49
endloop
endfacet
facet normal 0.0 1.0 0.0
outer loop
vertex -0.8 9.00862896058015 0.0500000000000001
vertex -3.50524517532408 9.00862896058015 -1.49
vertex -3.50738409220188 9.0101134931213 5.68999885009569
endloop
endfacet
facet normal 0.0 1.0 0.0
outer loop
vertex -0.8 9.00862896058015 0.0500000000000001
vertex -3.50738409220188 9.0101134931213 5.68999885009569
vertex -0.8 9.00862896058015 4.25
endloop
endfacet
facet normal 0.0 1.0 0.0
outer loop
vertex -0.8 9.00862896058015 4.25
vertex -3.50738409220188 9.0101134931213 5.68999885009569
vertex 3.50310625844628 9.0101134931213 5.68999885009569
endloop
endfacet
facet normal 0.0 1.0 0.0
outer loop
vertex 3.50524517532408 9.00862896058015 -1.49
vertex 0.8 9.00862896058015 0.0500000000000001
vertex 3.50310625844628 9.0101134931213 5.68999885009569
endloop
endfacet
facet normal 0.0 1.0 0.0
outer loop
vertex 0.8 9.00862896058015 0.0500000000000001
vertex 3.50524517532408 9.00862896058015 -1.49
vertex -0.8 9.00862896058015 0.0500000000000001
endloop
endfacet
facet normal 0.0 1.0 0.0
outer loop
vertex 3.50310625844628 9.0101134931213 5.68999885009569
vertex 0.8 9.00862896058015 0.0500000000000001
vertex 0.8 9.00862896058015 4.25
endloop
endfacet
facet normal 0.0 1.0 0.0
outer loop
vertex 3.50310625844628 9.0101134931213 5.68999885009569
vertex 0.8 9.00862896058015 4.25
vertex -0.8 9.00862896058015 4.25
endloop
endfacet
facet normal 0.0 0.0 -1.0
outer loop
vertex 3.50524517532408 9.00862896058015 -1.49
vertex -3.50524517532408 5.50862896058015 -1.49
vertex -3.50524517532408 9.00862896058015 -1.49
endloop
endfacet
facet normal 0.0 0.0 -1.0
outer loop
vertex -3.50524517532408 5.50862896058015 -1.49
vertex 3.50524517532408 9.00862896058015 -1.49
vertex 3.50524517532408 5.50862896058015 -1.49
endloop
endfacet
facet normal 3.01416165411541e-016 0.000798250831631588 0.999999681397754
outer loop
vertex -3.51197090846904 -5.50583559246664 9.49999800623198
vertex -2.41695348260047 -0.644254293496045 9.49999862471114
vertex -3.5094029276053 5.51142315905794 9.49120346746932
endloop
endfacet
facet normal 3.01416165411541e-016 0.000798250831631588 0.999999681397754
outer loop
vertex -2.41695348260047 -0.644254293496045 9.49999862471114
vertex -3.51197090846904 -5.50583559246664 9.49999800623198
vertex -2.1672024263389 -1.24720668073974 9.49999862471114
endloop
endfacet
facet normal 3.01416165411541e-016 0.000798250831631588 0.999999681397754
outer loop
vertex -2.1672024263389 -1.24720668073974 9.49999862471114
vertex -3.51197090846904 -5.50583559246664 9.49999800623198
vertex -1.76990586984417 -1.76497363370611 9.49999862471114
endloop
endfacet
facet normal 3.01416165411541e-016 0.000798250831631588 0.999999681397754
outer loop
vertex -1.76990586984417 -1.76497363370611 9.49999862471114
vertex -3.51197090846904 -5.50583559246664 9.49999800623198
vertex -1.2521389168778 -2.16227019020084 9.49999862471114
endloop
endfacet
facet normal 3.01416165411541e-016 0.000798250831631588 0.999999681397754
outer loop
vertex -1.2521389168778 -2.16227019020084 9.49999862471114
vertex -3.51197090846904 -5.50583559246664 9.49999800623198
vertex 5.50648997591381 -5.50579705402666 9.49947933174684
endloop
endfacet
facet normal 3.01416165411541e-016 0.000798250831631588 0.999999681397754
outer loop
vertex -3.5094029276053 5.51142315905794 9.49120346746932
vertex -2.41695348260047 -0.644254293496045 9.49999862471114
vertex -2.5021389168778 0.00279331926025627 9.49999862471114
endloop
endfacet
facet normal 3.01416165411541e-016 0.000798250831631588 0.999999681397754
outer loop
vertex -1.2521389168778 -2.16227019020084 9.49999862471114
vertex 5.50648997591381 -5.50579705402666 9.49947933174684
vertex -0.649186529634104 -2.41202124646241 9.49999862471114
endloop
endfacet
facet normal 3.01416165411541e-016 0.000798250831631588 0.999999681397754
outer loop
vertex -0.649186529634104 -2.41202124646241 9.49999862471114
vertex 5.50648997591381 -5.50579705402666 9.49947933174684
vertex -0.00213891687780122 -2.49720668073974 9.49999862471114
endloop
endfacet
facet normal 3.01416165411541e-016 0.000798250831631588 0.999999681397754
outer loop
vertex -0.00213891687780122 -2.49720668073974 9.49999862471114
vertex 5.50648997591381 -5.50579705402666 9.49947933174684
vertex 0.6449086958785 -2.41202124646242 9.49999862471114
endloop
endfacet
facet normal 3.01416165411541e-016 0.000798250831631588 0.999999681397754
outer loop
vertex 0.6449086958785 -2.41202124646242 9.49999862471114
vertex 5.50648997591381 -5.50579705402666 9.49947933174684
vertex 1.2478610831222 -2.16227019020084 9.49999862471114
endloop
endfacet
facet normal 3.01416165411541e-016 0.000798250831631588 0.999999681397754
outer loop
vertex 1.2478610831222 -2.16227019020084 9.49999862471114
vertex 5.50648997591381 -5.50579705402666 9.49947933174684
vertex 1.76562803608857 -1.76497363370611 9.49999862471114
endloop
endfacet
facet normal 3.01416165411541e-016 0.000798250831631588 0.999999681397754
outer loop
vertex 1.76562803608857 -1.76497363370611 9.49999862471114
vertex 5.50648997591381 -5.50579705402666 9.49947933174684
vertex 2.1629245925833 -1.24720668073975 9.49999862471114
endloop
endfacet
facet normal 3.01416165411541e-016 0.000798250831631588 0.999999681397754
outer loop
vertex 2.1629245925833 -1.24720668073975 9.49999862471114
vertex 5.50648997591381 -5.50579705402666 9.49947933174684
vertex 2.41267564884487 -0.644254293496048 9.49999862471114
endloop
endfacet
facet normal 3.01416165411541e-016 0.000798250831631588 0.999999681397754
outer loop
vertex 2.41267564884487 -0.644254293496048 9.49999862471114
vertex 5.50648997591381 -5.50579705402666 9.49947933174684
vertex 2.4978610831222 0.00279331926025566 9.49999862471114
endloop
endfacet
facet normal 3.01416165411541e-016 0.000798250831631588 0.999999681397754
outer loop
vertex 2.4978610831222 0.00279331926025566 9.49999862471114
vertex 5.50648997591381 -5.50579705402666 9.49947933174684
vertex 5.50392199505007 5.51146169749792 9.49068479298417
endloop
endfacet
facet normal 3.01416165411541e-016 0.000798250831631588 0.999999681397754
outer loop
vertex -3.5094029276053 5.51142315905794 9.49120346746932
vertex -1.2521389168778 2.16785682872135 9.49999862471114
vertex 5.50392199505007 5.51146169749792 9.49068479298417
endloop
endfacet
facet normal 3.01416165411541e-016 0.000798250831631588 0.999999681397754
outer loop
vertex -1.2521389168778 2.16785682872135 9.49999862471114
vertex -3.5094029276053 5.51142315905794 9.49120346746932
vertex -1.76990586984417 1.77056027222663 9.49999862471114
endloop
endfacet
facet normal 3.01416165411541e-016 0.000798250831631588 0.999999681397754
outer loop
vertex -1.76990586984417 1.77056027222663 9.49999862471114
vertex -3.5094029276053 5.51142315905794 9.49120346746932
vertex -2.1672024263389 1.25279331926026 9.49999862471114
endloop
endfacet
facet normal 3.01416165411541e-016 0.000798250831631588 0.999999681397754
outer loop
vertex -2.1672024263389 1.25279331926026 9.49999862471114
vertex -3.5094029276053 5.51142315905794 9.49120346746932
vertex -2.41695348260047 0.649840932016559 9.49999862471114
endloop
endfacet
facet normal 3.01416165411541e-016 0.000798250831631588 0.999999681397754
outer loop
vertex -2.41695348260047 0.649840932016559 9.49999862471114
vertex -3.5094029276053 5.51142315905794 9.49120346746932
vertex -2.5021389168778 0.00279331926025627 9.49999862471114
endloop
endfacet
facet normal 3.01416165411541e-016 0.000798250831631588 0.999999681397754
outer loop
vertex 5.50392199505007 5.51146169749792 9.49068479298417
vertex -1.2521389168778 2.16785682872135 9.49999862471114
vertex -0.649186529634103 2.41760788498293 9.49999862471114
endloop
endfacet
facet normal 3.01416165411541e-016 0.000798250831631588 0.999999681397754
outer loop
vertex 5.50392199505007 5.51146169749792 9.49068479298417
vertex -0.649186529634103 2.41760788498293 9.49999862471114
vertex -0.00213891687780091 2.50279331926026 9.49999862471114
endloop
endfacet
facet normal 3.01416165411541e-016 0.000798250831631588 0.999999681397754
outer loop
vertex 5.50392199505007 5.51146169749792 9.49068479298417
vertex -0.00213891687780091 2.50279331926026 9.49999862471114
vertex 0.644908695878503 2.41760788498293 9.49999862471114
endloop
endfacet
facet normal 3.01416165411541e-016 0.000798250831631588 0.999999681397754
outer loop
vertex 5.50392199505007 5.51146169749792 9.49068479298417
vertex 0.644908695878503 2.41760788498293 9.49999862471114
vertex 1.2478610831222 2.16785682872135 9.49999862471114
endloop
endfacet
facet normal 3.01416165411541e-016 0.000798250831631588 0.999999681397754
outer loop
vertex 5.50392199505007 5.51146169749792 9.49068479298417
vertex 1.2478610831222 2.16785682872135 9.49999862471114
vertex 1.76562803608857 1.77056027222662 9.49999862471114
endloop
endfacet
facet normal 3.01416165411541e-016 0.000798250831631588 0.999999681397754
outer loop
vertex 5.50392199505007 5.51146169749792 9.49068479298417
vertex 1.76562803608857 1.77056027222662 9.49999862471114
vertex 2.1629245925833 1.25279331926025 9.49999862471114
endloop
endfacet
facet normal 3.01416165411541e-016 0.000798250831631588 0.999999681397754
outer loop
vertex 5.50392199505007 5.51146169749792 9.49068479298417
vertex 2.1629245925833 1.25279331926025 9.49999862471114
vertex 2.41267564884487 0.649840932016557 9.49999862471114
endloop
endfacet
facet normal 3.01416165411541e-016 0.000798250831631588 0.999999681397754
outer loop
vertex 5.50392199505007 5.51146169749792 9.49068479298417
vertex 2.41267564884487 0.649840932016557 9.49999862471114
vertex 2.4978610831222 0.00279331926025566 9.49999862471114
endloop
endfacet
facet normal 3.01667407017807e-016 0.000344417557665603 0.999999940688271
outer loop
vertex 3.50392206283861 5.51011432348554 5.69120431133303
vertex -3.50738409220188 9.0101134931213 5.68999885009569
vertex -3.50819989659421 5.51011432348554 5.69120431133303
endloop
endfacet
facet normal 3.01667407017807e-016 0.000344417557665603 0.999999940688271
outer loop
vertex -3.50738409220188 9.0101134931213 5.68999885009569
vertex 3.50392206283861 5.51011432348554 5.69120431133303
vertex 3.50310625844628 9.0101134931213 5.68999885009569
endloop
endfacet
facet normal -8.16839915776044e-006 0.999999989175199 -0.000146911127517418
outer loop
vertex 5.49999993221146 5.50866754787339 -9.00051929296429
vertex 3.50524517532408 5.50862896058015 -1.49
vertex 5.50392199505007 5.51146169749792 9.49068479298417
endloop
endfacet
facet normal -8.16839915776044e-006 0.999999989175199 -0.000146911127517418
outer loop
vertex 3.50524517532408 5.50862896058015 -1.49
vertex 5.49999993221146 5.50866754787339 -9.00051929296429
vertex -3.50120303101108 5.50862900943341 -9.00000061847915
endloop
endfacet
facet normal -8.16839915776044e-006 0.999999989175199 -0.000146911127517418
outer loop
vertex 3.50524517532408 5.50862896058015 -1.49
vertex -3.50120303101108 5.50862900943341 -9.00000061847915
vertex -3.50524517532408 5.50862896058015 -1.49
endloop
endfacet
facet normal -8.16839915776044e-006 0.999999989175199 -0.000146911127517418
outer loop
vertex 5.50392199505007 5.51146169749792 9.49068479298417
vertex 3.50524517532408 5.50862896058015 -1.49
vertex 3.50392206283861 5.51011432348554 5.69120431133303
endloop
endfacet
facet normal -8.16839915776044e-006 0.999999989175199 -0.000146911127517418
outer loop
vertex 5.50392199505007 5.51146169749792 9.49068479298417
vertex 3.50392206283861 5.51011432348554 5.69120431133303
vertex -3.50819989659421 5.51011432348554 5.69120431133303
endloop
endfacet
facet normal -8.16839915776044e-006 0.999999989175199 -0.000146911127517418
outer loop
vertex 5.50392199505007 5.51146169749792 9.49068479298417
vertex -3.50819989659421 5.51011432348554 5.69120431133303
vertex -3.5094029276053 5.51142315905794 9.49120346746932
endloop
endfacet
facet normal -0.999999878387712 5.24604842530189e-005 -0.000490379912866972
outer loop
vertex -3.50819989659421 5.51011432348554 5.69120431133303
vertex -3.50524517532408 9.00862896058015 -1.49
vertex -3.50524517532408 5.50862896058015 -1.49
endloop
endfacet
facet normal -0.999999878387712 5.24604842530189e-005 -0.000490379912866972
outer loop
vertex -3.50524517532408 9.00862896058015 -1.49
vertex -3.50819989659421 5.51011432348554 5.69120431133303
vertex -3.50738409220188 9.0101134931213 5.68999885009569
endloop
endfacet
facet normal -0.999999878387712 5.24604842530189e-005 -0.000490379912866972
outer loop
vertex -3.51197090846904 -5.50583559246664 9.49999800623198
vertex -3.50702168802508 -3.98991580951216 2.22940856004712
vertex -3.50695682259577 -4.0069528958526 2.09999905368468
endloop
endfacet
facet normal -0.999999878387712 5.24604842530189e-005 -0.000490379912866972
outer loop
vertex -3.50702168802508 -3.98991580951216 2.22940856004712
vertex -3.51197090846904 -5.50583559246664 9.49999800623198
vertex -3.50707800555499 -3.93996559898975 2.34999902464764
endloop
endfacet
facet normal -0.999999878387712 5.24604842530189e-005 -0.000490379912866972
outer loop
vertex -3.50707800555499 -3.93996559898975 2.34999902464764
vertex -3.51197090846904 -5.50583559246664 9.49999800623198
vertex -3.50712193723891 -3.86050628858584 2.45355240660887
endloop
endfacet
facet normal -0.999999878387712 5.24604842530189e-005 -0.000490379912866972
outer loop
vertex -3.50712193723891 -3.86050628858584 2.45355240660887
vertex -3.51197090846904 -5.50583559246664 9.49999800623198
vertex -3.50715048920518 -3.75695289899175 2.53301171408022
endloop
endfacet
facet normal -0.999999878387712 5.24604842530189e-005 -0.000490379912866972
outer loop
vertex -3.50715048920518 -3.75695289899175 2.53301171408022
vertex -3.51197090846904 -5.50583559246664 9.49999800623198
vertex -3.5094029276053 5.51142315905794 9.49120346746932
endloop
endfacet
facet normal -0.999999878387712 5.24604842530189e-005 -0.000490379912866972
outer loop
vertex -3.50715048920518 -3.75695289899175 2.53301171408022
vertex -3.5094029276053 5.51142315905794 9.49120346746932
vertex -3.50716171568447 -3.63636242257825 2.58296192657022
endloop
endfacet
facet normal -0.999999878387712 5.24604842530189e-005 -0.000490379912866972
outer loop
vertex -3.50716171568447 -3.63636242257825 2.58296192657022
vertex -3.5094029276053 5.51142315905794 9.49120346746932
vertex -3.50715485161079 -3.50695290102773 2.59999901964432
endloop
endfacet
facet normal -0.999999878387712 5.24604842530189e-005 -0.000490379912866972
outer loop
vertex -3.50715485161079 -3.50695290102773 2.59999901964432
vertex -3.5094029276053 5.51142315905794 9.49120346746932
vertex -3.5071303647594 -3.37754337937451 2.58296194356463
endloop
endfacet
facet normal -0.999999878387712 5.24604842530189e-005 -0.000490379912866972
outer loop
vertex -3.5071303647594 -3.37754337937451 2.58296194356463
vertex -3.5094029276053 5.51142315905794 9.49120346746932
vertex -3.50708992386877 -3.25695290265992 2.5330117469109
endloop
endfacet
facet normal -0.999999878387712 5.24604842530189e-005 -0.000490379912866972
outer loop
vertex -3.50708992386877 -3.25695290265992 2.5330117469109
vertex -3.5094029276053 5.51142315905794 9.49120346746932
vertex -3.50703628491875 -3.15339951258686 2.45355245303846
endloop
endfacet
facet normal -0.999999878387712 5.24604842530189e-005 -0.000490379912866972
outer loop
vertex -3.50703628491875 -3.15339951258686 2.45355245303846
vertex -3.5094029276053 5.51142315905794 9.49120346746932
vertex -3.50697310331516 -3.07394020155875 2.34999908151204
endloop
endfacet
facet normal -0.999999878387712 5.24604842530189e-005 -0.000490379912866972
outer loop
vertex -3.50697310331516 -3.07394020155875 2.34999908151204
vertex -3.5094029276053 5.51142315905794 9.49120346746932
vertex -3.50690468477985 -3.02398999030943 2.22940862347112
endloop
endfacet
facet normal -0.999999878387712 5.24604842530189e-005 -0.000490379912866972
outer loop
vertex -3.50690468477985 -3.02398999030943 2.22940862347112
vertex -3.5094029276053 5.51142315905794 9.49120346746932
vertex -3.50683569192295 -3.00695290318893 2.09999911934604
endloop
endfacet
facet normal -0.999999878387712 5.24604842530189e-005 -0.000490379912866972
outer loop
vertex -3.50683569192295 -3.00695290318893 2.09999911934604
vertex -3.5094029276053 5.51142315905794 9.49120346746932
vertex -3.50819989659421 5.51011432348554 5.69120431133303
endloop
endfacet
facet normal -0.999999878387712 5.24604842530189e-005 -0.000490379912866972
outer loop
vertex -3.50683569192295 -3.00695290318893 2.09999911934604
vertex -3.50819989659421 5.51011432348554 5.69120431133303
vertex -3.50524517532408 5.50862896058015 -1.49
endloop
endfacet
facet normal -0.999999878387712 5.24604842530189e-005 -0.000490379912866972
outer loop
vertex -3.50120303101108 -5.5086289117269 -9.00000061847915
vertex -3.50675622959997 -3.86050628645467 1.74644571999226
vertex -3.50120303101108 5.50862900943341 -9.00000061847915
endloop
endfacet
facet normal -0.999999878387712 5.24604842530189e-005 -0.000490379912866972
outer loop
vertex -3.50675622959997 -3.86050628645467 1.74644571999226
vertex -3.50120303101108 -5.5086289117269 -9.00000061847915
vertex -3.50681941120357 -3.93996559748278 1.84999909151868
endloop
endfacet
facet normal -0.999999878387712 5.24604842530189e-005 -0.000490379912866972
outer loop
vertex -3.50681941120357 -3.93996559748278 1.84999909151868
vertex -3.50120303101108 -5.5086289117269 -9.00000061847915
vertex -3.50688782973887 -3.9899158087321 1.9705895495596
endloop
endfacet
facet normal -0.999999878387712 5.24604842530189e-005 -0.000490379912866972
outer loop
vertex -3.50688782973887 -3.9899158087321 1.9705895495596
vertex -3.50120303101108 -5.5086289117269 -9.00000061847915
vertex -3.51197090846904 -5.50583559246664 9.49999800623198
endloop
endfacet
facet normal -0.999999878387712 5.24604842530189e-005 -0.000490379912866972
outer loop
vertex -3.50688782973887 -3.9899158087321 1.9705895495596
vertex -3.51197090846904 -5.50583559246664 9.49999800623198
vertex -3.50695682259577 -4.0069528958526 2.09999905368468
endloop
endfacet
facet normal -0.999999878387712 5.24604842530189e-005 -0.000490379912866972
outer loop
vertex -3.50120303101108 5.50862900943341 -9.00000061847915
vertex -3.50675622959997 -3.86050628645467 1.74644571999226
vertex -3.50670259064996 -3.75695289638162 1.66698642611983
endloop
endfacet
facet normal -0.999999878387712 5.24604842530189e-005 -0.000490379912866972
outer loop
vertex -3.50120303101108 5.50862900943341 -9.00000061847915
vertex -3.50670259064996 -3.75695289638162 1.66698642611983
vertex -3.50666214975932 -3.63636241966702 1.61703622946609
endloop
endfacet
facet normal -0.999999878387712 5.24604842530189e-005 -0.000490379912866972
outer loop
vertex -3.50120303101108 5.50862900943341 -9.00000061847915
vertex -3.50666214975932 -3.63636241966702 1.61703622946609
vertex -3.50663766290794 -3.5069528980138 1.5999991533864
endloop
endfacet
facet normal -0.999999878387712 5.24604842530189e-005 -0.000490379912866972
outer loop
vertex -3.50120303101108 5.50862900943341 -9.00000061847915
vertex -3.50663766290794 -3.5069528980138 1.5999991533864
vertex -3.50663079883425 -3.37754337646328 1.6170362464605
endloop
endfacet
facet normal -0.999999878387712 5.24604842530189e-005 -0.000490379912866972
outer loop
vertex -3.50120303101108 5.50862900943341 -9.00000061847915
vertex -3.50663079883425 -3.37754337646328 1.6170362464605
vertex -3.50664202531355 -3.25695290004978 1.6669864589505
endloop
endfacet
facet normal -0.999999878387712 5.24604842530189e-005 -0.000490379912866972
outer loop
vertex -3.50120303101108 5.50862900943341 -9.00000061847915
vertex -3.50664202531355 -3.25695290004978 1.6669864589505
vertex -3.50667057727981 -3.15339951045569 1.74644576642185
endloop
endfacet
facet normal -0.999999878387712 5.24604842530189e-005 -0.000490379912866972
outer loop
vertex -3.50120303101108 5.50862900943341 -9.00000061847915
vertex -3.50667057727981 -3.15339951045569 1.74644576642185
vertex -3.50671450896373 -3.07394020005178 1.84999914838308
endloop
endfacet
facet normal -0.999999878387712 5.24604842530189e-005 -0.000490379912866972
outer loop
vertex -3.50120303101108 5.50862900943341 -9.00000061847915
vertex -3.50671450896373 -3.07394020005178 1.84999914838308
vertex -3.50677082649364 -3.02398998952937 1.9705896129836
endloop
endfacet
facet normal -0.999999878387712 5.24604842530189e-005 -0.000490379912866972
outer loop
vertex -3.50120303101108 5.50862900943341 -9.00000061847915
vertex -3.50677082649364 -3.02398998952937 1.9705896129836
vertex -3.50683569192295 -3.00695290318893 2.09999911934604
endloop
endfacet
facet normal -0.999999878387712 5.24604842530189e-005 -0.000490379912866972
outer loop
vertex -3.50120303101108 5.50862900943341 -9.00000061847915
vertex -3.50683569192295 -3.00695290318893 2.09999911934604
vertex -3.50524517532408 5.50862896058015 -1.49
endloop
endfacet
facet normal 0.999999966105729 1.92936466194763e-005 -0.000259646482147013
outer loop
vertex 5.49999993221146 5.50866754787339 -9.00051929296429
vertex 5.50648997591381 -5.50579705402666 9.49947933174684
vertex 5.49999993221146 -5.50859037328691 -9.00051929296429
endloop
endfacet
facet normal 0.999999966105729 1.92936466194763e-005 -0.000259646482147013
outer loop
vertex 5.50648997591381 -5.50579705402666 9.49947933174684
vertex 5.49999993221146 5.50866754787339 -9.00051929296429
vertex 5.50392199505007 5.51146169749792 9.49068479298417
endloop
endfacet
facet normal -0.999999858921593 0.000121130690577539 -0.000517188698692869
outer loop
vertex 1.49297760658288 -3.99052146296505 2.23199450354059
vertex 1.49311146486909 -3.99052146218498 1.97317549305307
vertex 1.49304247201219 -4.00755854930549 2.10258499717815
endloop
endfacet
facet normal -0.999999858921593 0.000121130690577539 -0.000517188698692869
outer loop
vertex 1.49311146486909 -3.99052146218498 1.97317549305307
vertex 1.49297760658288 -3.99052146296505 2.23199450354059
vertex 1.49292128905297 -3.94057125244264 2.3525849681411
endloop
endfacet
facet normal -0.999999858921593 0.000121130690577539 -0.000517188698692869
outer loop
vertex 1.49311146486909 -3.99052146218498 1.97317549305307
vertex 1.49292128905297 -3.94057125244264 2.3525849681411
vertex 1.4931798834044 -3.94057125093567 1.85258503501215
endloop
endfacet
facet normal -0.999999858921593 0.000121130690577539 -0.000517188698692869
outer loop
vertex 1.4931798834044 -3.94057125093567 1.85258503501215
vertex 1.49292128905297 -3.94057125244264 2.3525849681411
vertex 1.49287735736905 -3.86111194203873 2.45613835010234
endloop
endfacet
facet normal -0.999999858921593 0.000121130690577539 -0.000517188698692869
outer loop
vertex 1.4931798834044 -3.94057125093567 1.85258503501215
vertex 1.49287735736905 -3.86111194203873 2.45613835010234
vertex 1.49324306500799 -3.86111193990756 1.74903166348573
endloop
endfacet
facet normal -0.999999858921593 0.000121130690577539 -0.000517188698692869
outer loop
vertex 1.49324306500799 -3.86111193990756 1.74903166348573
vertex 1.49287735736905 -3.86111194203873 2.45613835010234
vertex 1.49284880540279 -3.75755855244464 2.53559765757368
endloop
endfacet
facet normal -0.999999858921593 0.000121130690577539 -0.000517188698692869
outer loop
vertex 1.49324306500799 -3.86111193990756 1.74903166348573
vertex 1.49284880540279 -3.75755855244464 2.53559765757368
vertex 1.49329670395801 -3.7575585498345 1.66957236961329
endloop
endfacet
facet normal -0.999999858921593 0.000121130690577539 -0.000517188698692869
outer loop
vertex 1.49329670395801 -3.7575585498345 1.66957236961329
vertex 1.49284880540279 -3.75755855244464 2.53559765757368
vertex 1.49283757892349 -3.63696807603114 2.58554787006369
endloop
endfacet
facet normal -0.999999858921593 0.000121130690577539 -0.000517188698692869
outer loop
vertex 1.49329670395801 -3.7575585498345 1.66957236961329
vertex 1.49283757892349 -3.63696807603114 2.58554787006369
vertex 1.49333714484864 -3.63696807311991 1.61962217295955
endloop
endfacet
facet normal -0.999999858921593 0.000121130690577539 -0.000517188698692869
outer loop
vertex 1.49333714484864 -3.63696807311991 1.61962217295955
vertex 1.49283757892349 -3.63696807603114 2.58554787006369
vertex 1.49284444299718 -3.50755855448062 2.60258496313778
endloop
endfacet
facet normal -0.999999858921593 0.000121130690577539 -0.000517188698692869
outer loop
vertex 1.49333714484864 -3.63696807311991 1.61962217295955
vertex 1.49284444299718 -3.50755855448062 2.60258496313778
vertex 1.49336163170003 -3.50755855146669 1.60258509687987
endloop
endfacet
facet normal -0.999999858921593 0.000121130690577539 -0.000517188698692869
outer loop
vertex 1.49336163170003 -3.50755855146669 1.60258509687987
vertex 1.49284444299718 -3.50755855448062 2.60258496313778
vertex 1.49286892984856 -3.3781490328274 2.5855478870581
endloop
endfacet
facet normal -0.999999858921593 0.000121130690577539 -0.000517188698692869
outer loop
vertex 1.49336163170003 -3.50755855146669 1.60258509687987
vertex 1.49286892984856 -3.3781490328274 2.5855478870581
vertex 1.49336849577371 -3.37814902991617 1.61962218995396
endloop
endfacet
facet normal -0.999999858921593 0.000121130690577539 -0.000517188698692869
outer loop
vertex 1.49336849577371 -3.37814902991617 1.61962218995396
vertex 1.49286892984856 -3.3781490328274 2.5855478870581
vertex 1.4929093707392 -3.2575585561128 2.53559769040436
endloop
endfacet
facet normal -0.999999858921593 0.000121130690577539 -0.000517188698692869
outer loop
vertex 1.49336849577371 -3.37814902991617 1.61962218995396
vertex 1.4929093707392 -3.2575585561128 2.53559769040436
vertex 1.49335726929442 -3.25755855350266 1.66957240244397
endloop
endfacet
facet normal -0.999999858921593 0.000121130690577539 -0.000517188698692869
outer loop
vertex 1.49335726929442 -3.25755855350266 1.66957240244397
vertex 1.4929093707392 -3.2575585561128 2.53559769040436
vertex 1.49296300968921 -3.15400516603975 2.45613839653193
endloop
endfacet
facet normal -0.999999858921593 0.000121130690577539 -0.000517188698692869
outer loop
vertex 1.49335726929442 -3.25755855350266 1.66957240244397
vertex 1.49296300968921 -3.15400516603975 2.45613839653193
vertex 1.49332871732815 -3.15400516390858 1.74903170991531
endloop
endfacet
facet normal -0.999999858921593 0.000121130690577539 -0.000517188698692869
outer loop
vertex 1.49332871732815 -3.15400516390858 1.74903170991531
vertex 1.49296300968921 -3.15400516603975 2.45613839653193
vertex 1.49302619129281 -3.07454585501164 2.3525850250055
endloop
endfacet
facet normal -0.999999858921593 0.000121130690577539 -0.000517188698692869
outer loop
vertex 1.49332871732815 -3.15400516390858 1.74903170991531
vertex 1.49302619129281 -3.07454585501164 2.3525850250055
vertex 1.49328478564424 -3.07454585350467 1.85258509187655
endloop
endfacet
facet normal -0.999999858921593 0.000121130690577539 -0.000517188698692869
outer loop
vertex 1.49328478564424 -3.07454585350467 1.85258509187655
vertex 1.49302619129281 -3.07454585501164 2.3525850250055
vertex 1.49309460982811 -3.02459564376232 2.23199456696459
endloop
endfacet
facet normal -0.999999858921593 0.000121130690577539 -0.000517188698692869
outer loop
vertex 1.49328478564424 -3.07454585350467 1.85258509187655
vertex 1.49309460982811 -3.02459564376232 2.23199456696459
vertex 1.49322846811432 -3.02459564298226 1.97317555647706
endloop
endfacet
facet normal -0.999999858921593 0.000121130690577539 -0.000517188698692869
outer loop
vertex 1.49322846811432 -3.02459564298226 1.97317555647706
vertex 1.49309460982811 -3.02459564376232 2.23199456696459
vertex 1.49316360268501 -3.00755855664181 2.1025850628395
endloop
endfacet
facet normal 0.000121130672818497 0.999999992663678 6.56613550582291e-008
outer loop
vertex -3.50695682259577 -4.0069528958526 2.09999905368468
vertex 1.49311146486909 -3.99052146218498 1.97317549305307
vertex -3.50688782973887 -3.9899158087321 1.9705895495596
endloop
endfacet
facet normal -1.68550409788628e-005 0.965925818422663 0.25881907391152
outer loop
vertex 1.49311146486909 -3.99052146218498 1.97317549305307
vertex -3.50695682259577 -4.0069528958526 2.09999905368468
vertex 1.49304247201219 -4.00755854930549 2.10258499717815
endloop
endfacet
facet normal 0.000250861531441178 0.965925819982788 -0.258818947063522
outer loop
vertex -3.50702168802508 -3.98991580951216 2.22940856004712
vertex 1.49304247201219 -4.00755854930549 2.10258499717815
vertex -3.50695682259577 -4.0069528958526 2.09999905368468
endloop
endfacet
facet normal 0.000121130672818497 0.999999992663678 6.56613553166513e-008
outer loop
vertex 1.49304247201219 -4.00755854930549 2.10258499717815
vertex -3.50702168802508 -3.98991580951216 2.22940856004712
vertex 1.49297760658288 -3.99052146296505 2.23199450354059
endloop
endfacet
facet normal 0.000363496591264425 0.866025398937963 -0.499999876264555
outer loop
vertex -3.50707800555499 -3.93996559898975 2.34999902464764
vertex 1.49297760658288 -3.99052146296505 2.23199450354059
vertex -3.50702168802508 -3.98991580951216 2.22940856004712
endloop
endfacet
facet normal 0.000250861531441178 0.965925819982788 -0.258818947063522
outer loop
vertex 1.49297760658288 -3.99052146296505 2.23199450354059
vertex -3.50707800555499 -3.93996559898975 2.34999902464764
vertex 1.49292128905297 -3.94057125244264 2.3525849681411
endloop
endfacet
facet normal 0.000451359959099522 0.707106778130154 -0.707106640187023
outer loop
vertex -3.50712193723891 -3.86050628858584 2.45355240660887
vertex 1.49292128905297 -3.94057125244264 2.3525849681411
vertex -3.50707800555499 -3.93996559898975 2.34999902464764
endloop
endfacet
facet normal 0.000363496591264426 0.866025398937963 -0.499999876264556
outer loop
vertex 1.49292128905297 -3.94057125244264 2.3525849681411
vertex -3.50712193723891 -3.86050628858584 2.45355240660887
vertex 1.49287735736905 -3.86111194203873 2.45613835010234
endloop
endfacet
facet normal 0.000508463891629585 0.499999998941979 -0.866025255129718
outer loop
vertex 1.49284880540279 -3.75755855244464 2.53559765757368
vertex -3.50712193723891 -3.86050628858584 2.45355240660887
vertex -3.50715048920518 -3.75695289899175 2.53301171408022
endloop
endfacet
facet normal 0.000451359959099522 0.707106778130154 -0.707106640187023
outer loop
vertex -3.50712193723891 -3.86050628858584 2.45355240660887
vertex 1.49284880540279 -3.75755855244464 2.53559765757368
vertex 1.49287735736905 -3.86111194203873 2.45613835010234
endloop
endfacet
facet normal 0.000530916850221403 0.258819046114974 -0.965925680109724
outer loop
vertex 1.49283757892349 -3.63696807603114 2.58554787006369
vertex -3.50715048920518 -3.75695289899175 2.53301171408022
vertex -3.50716171568447 -3.63636242257825 2.58296192657022
endloop
endfacet
facet normal 0.000508463891629585 0.499999998941979 -0.866025255129718
outer loop
vertex -3.50715048920518 -3.75695289899175 2.53301171408022
vertex 1.49283757892349 -3.63696807603114 2.58554787006369
vertex 1.49284880540279 -3.75755855244464 2.53559765757368
endloop
endfacet
facet normal 0.000517188702852212 3.01392950805935e-009 -0.999999866257914
outer loop
vertex -3.50715485161079 -3.50695290102773 2.59999901964432
vertex 1.49283757892349 -3.63696807603114 2.58554787006369
vertex -3.50716171568447 -3.63636242257825 2.58296192657022
endloop
endfacet
facet normal 0.000530916850221403 0.258819046114974 -0.965925680109724
outer loop
vertex 1.49283757892349 -3.63696807603114 2.58554787006369
vertex -3.50715485161079 -3.50695290102773 2.59999901964432
vertex 1.49284444299718 -3.50755855448062 2.60258496313778
endloop
endfacet
facet normal 0.000468215000078385 -0.258819040292508 -0.965925714098542
outer loop
vertex -3.5071303647594 -3.37754337937451 2.58296194356463
vertex 1.49284444299718 -3.50755855448062 2.60258496313778
vertex -3.50715485161079 -3.50695290102773 2.59999901964432
endloop
endfacet
facet normal 0.000517188702852211 3.01392961499267e-009 -0.999999866257914
outer loop
vertex 1.49284444299718 -3.50755855448062 2.60258496313778
vertex -3.5071303647594 -3.37754337937451 2.58296194356463
vertex 1.49286892984856 -3.3781490328274 2.5855478870581
endloop
endfacet
facet normal 0.000387333218811088 -0.499999993721698 -0.866025320791072
outer loop
vertex -3.50708992386877 -3.25695290265992 2.5330117469109
vertex 1.49286892984856 -3.3781490328274 2.5855478870581
vertex -3.5071303647594 -3.37754337937451 2.58296194356463
endloop
endfacet
facet normal 0.000468215000078385 -0.258819040292507 -0.965925714098542
outer loop
vertex 1.49286892984856 -3.3781490328274 2.5855478870581
vertex -3.50708992386877 -3.25695290265992 2.5330117469109
vertex 1.4929093707392 -3.2575585561128 2.53559769040436
endloop
endfacet
facet normal 0.000280055318780225 -0.707106773867814 -0.707106733046201
outer loop
vertex -3.50703628491875 -3.15339951258686 2.45355245303846
vertex 1.4929093707392 -3.2575585561128 2.53559769040436
vertex -3.50708992386877 -3.25695290265992 2.5330117469109
endloop
endfacet
facet normal 0.000387333218811089 -0.499999993721698 -0.866025320791072
outer loop
vertex 1.4929093707392 -3.2575585561128 2.53559769040436
vertex -3.50703628491875 -3.15339951258686 2.45355245303846
vertex 1.49296300968921 -3.15400516603975 2.45613839653193
endloop
endfacet
facet normal 0.000153692111587786 -0.866025395924032 -0.499999989993358
outer loop
vertex 1.49302619129281 -3.07454585501164 2.3525850250055
vertex -3.50703628491875 -3.15339951258686 2.45355245303846
vertex -3.50697310331516 -3.07394020155875 2.34999908151204
endloop
endfacet
facet normal 0.000280055318780225 -0.707106773867814 -0.707106733046201
outer loop
vertex -3.50703628491875 -3.15339951258686 2.45355245303846
vertex 1.49302619129281 -3.07454585501164 2.3525850250055
vertex 1.49296300968921 -3.15400516603975 2.45613839653193
endloop
endfacet
facet normal 1.68550409788631e-005 -0.965925818422663 -0.25881907391152
outer loop
vertex 1.49309460982811 -3.02459564376232 2.23199456696459
vertex -3.50697310331516 -3.07394020155875 2.34999908151204
vertex -3.50690468477985 -3.02398999030943 2.22940862347112
endloop
endfacet
facet normal 0.000153692111587786 -0.866025395924032 -0.499999989993358
outer loop
vertex -3.50697310331516 -3.07394020155875 2.34999908151204
vertex 1.49309460982811 -3.02459564376232 2.23199456696459
vertex 1.49302619129281 -3.07454585501164 2.3525850250055
endloop
endfacet
facet normal -0.000121130672818497 -0.999999992663678 -6.56613548710958e-008
outer loop
vertex 1.49316360268501 -3.00755855664181 2.1025850628395
vertex -3.50690468477985 -3.02398999030943 2.22940862347112
vertex -3.50683569192295 -3.00695290318893 2.09999911934604
endloop
endfacet
facet normal 1.68550409788631e-005 -0.965925818422663 -0.25881907391152
outer loop
vertex -3.50690468477985 -3.02398999030943 2.22940862347112
vertex 1.49316360268501 -3.00755855664181 2.1025850628395
vertex 1.49309460982811 -3.02459564376232 2.23199456696459
endloop
endfacet
facet normal -0.000250861531441178 -0.965925819982788 0.258818947063522
outer loop
vertex 1.49322846811432 -3.02459564298226 1.97317555647706
vertex -3.50683569192295 -3.00695290318893 2.09999911934604
vertex -3.50677082649364 -3.02398998952937 1.9705896129836
endloop
endfacet
facet normal -0.000121130672818497 -0.999999992663678 -6.5661355129518e-008
outer loop
vertex -3.50683569192295 -3.00695290318893 2.09999911934604
vertex 1.49322846811432 -3.02459564298226 1.97317555647706
vertex 1.49316360268501 -3.00755855664181 2.1025850628395
endloop
endfacet
facet normal -0.000363496591264425 -0.866025398937963 0.499999876264555
outer loop
vertex 1.49328478564424 -3.07454585350467 1.85258509187655
vertex -3.50677082649364 -3.02398998952937 1.9705896129836
vertex -3.50671450896373 -3.07394020005178 1.84999914838308
endloop
endfacet
facet normal -0.000250861531441178 -0.965925819982788 0.258818947063522
outer loop
vertex -3.50677082649364 -3.02398998952937 1.9705896129836
vertex 1.49328478564424 -3.07454585350467 1.85258509187655
vertex 1.49322846811432 -3.02459564298226 1.97317555647706
endloop
endfacet
facet normal -0.000451359959099522 -0.707106778130154 0.707106640187023
outer loop
vertex 1.49332871732815 -3.15400516390858 1.74903170991531
vertex -3.50671450896373 -3.07394020005178 1.84999914838308
vertex -3.50667057727981 -3.15339951045569 1.74644576642185
endloop
endfacet
facet normal -0.000363496591264425 -0.866025398937963 0.499999876264555
outer loop
vertex -3.50671450896373 -3.07394020005178 1.84999914838308
vertex 1.49332871732815 -3.15400516390858 1.74903170991531
vertex 1.49328478564424 -3.07454585350467 1.85258509187655
endloop
endfacet
facet normal -0.000508463891629586 -0.499999998941978 0.866025255129718
outer loop
vertex -3.50664202531355 -3.25695290004978 1.6669864589505
vertex 1.49332871732815 -3.15400516390858 1.74903170991531
vertex -3.50667057727981 -3.15339951045569 1.74644576642185
endloop
endfacet
facet normal -0.000451359959099522 -0.707106778130154 0.707106640187023
outer loop
vertex 1.49332871732815 -3.15400516390858 1.74903170991531
vertex -3.50664202531355 -3.25695290004978 1.6669864589505
vertex 1.49335726929442 -3.25755855350266 1.66957240244397
endloop
endfacet
facet normal -0.000530916850221403 -0.258819046114974 0.965925680109724
outer loop
vertex -3.50663079883425 -3.37754337646328 1.6170362464605
vertex 1.49335726929442 -3.25755855350266 1.66957240244397
vertex -3.50664202531355 -3.25695290004978 1.6669864589505
endloop
endfacet
facet normal -0.000508463891629586 -0.499999998941978 0.866025255129718
outer loop
vertex 1.49335726929442 -3.25755855350266 1.66957240244397
vertex -3.50663079883425 -3.37754337646328 1.6170362464605
vertex 1.49336849577371 -3.37814902991617 1.61962218995396
endloop
endfacet
facet normal -0.000517188702852212 -3.01393219921454e-009 0.999999866257914
outer loop
vertex 1.49336163170003 -3.50755855146669 1.60258509687987
vertex -3.50663079883425 -3.37754337646328 1.6170362464605
vertex -3.50663766290794 -3.5069528980138 1.5999991533864
endloop
endfacet
facet normal -0.000530916850221403 -0.258819046114974 0.965925680109724
outer loop
vertex -3.50663079883425 -3.37754337646328 1.6170362464605
vertex 1.49336163170003 -3.50755855146669 1.60258509687987
vertex 1.49336849577371 -3.37814902991617 1.61962218995396
endloop
endfacet
facet normal -0.000468215000078385 0.258819040292508 0.965925714098542
outer loop
vertex 1.49333714484864 -3.63696807311991 1.61962217295955
vertex -3.50663766290794 -3.5069528980138 1.5999991533864
vertex -3.50666214975932 -3.63636241966702 1.61703622946609
endloop
endfacet
facet normal -0.000517188702852212 -3.01393230614786e-009 0.999999866257914
outer loop
vertex -3.50663766290794 -3.5069528980138 1.5999991533864
vertex 1.49333714484864 -3.63696807311991 1.61962217295955
vertex 1.49336163170003 -3.50755855146669 1.60258509687987
endloop
endfacet
facet normal -0.000387333218811088 0.499999993721699 0.866025320791072
outer loop
vertex 1.49329670395801 -3.7575585498345 1.66957236961329
vertex -3.50666214975932 -3.63636241966702 1.61703622946609
vertex -3.50670259064996 -3.75695289638162 1.66698642611983
endloop
endfacet
facet normal -0.000468215000078385 0.258819040292507 0.965925714098543
outer loop
vertex -3.50666214975932 -3.63636241966702 1.61703622946609
vertex 1.49329670395801 -3.7575585498345 1.66957236961329
vertex 1.49333714484864 -3.63696807311991 1.61962217295955
endloop
endfacet
facet normal -0.000280055318780225 0.707106773867813 0.707106733046201
outer loop
vertex 1.49324306500799 -3.86111193990756 1.74903166348573
vertex -3.50670259064996 -3.75695289638162 1.66698642611983
vertex -3.50675622959997 -3.86050628645467 1.74644571999226
endloop
endfacet
facet normal -0.000387333218811088 0.499999993721699 0.866025320791072
outer loop
vertex -3.50670259064996 -3.75695289638162 1.66698642611983
vertex 1.49324306500799 -3.86111193990756 1.74903166348573
vertex 1.49329670395801 -3.7575585498345 1.66957236961329
endloop
endfacet
facet normal -0.000153692111587786 0.866025395924032 0.499999989993358
outer loop
vertex -3.50681941120357 -3.93996559748278 1.84999909151868
vertex 1.49324306500799 -3.86111193990756 1.74903166348573
vertex -3.50675622959997 -3.86050628645467 1.74644571999226
endloop
endfacet
facet normal -0.000280055318780225 0.707106773867813 0.707106733046201
outer loop
vertex 1.49324306500799 -3.86111193990756 1.74903166348573
vertex -3.50681941120357 -3.93996559748278 1.84999909151868
vertex 1.4931798834044 -3.94057125093567 1.85258503501215
endloop
endfacet
facet normal -1.68550409788628e-005 0.965925818422663 0.25881907391152
outer loop
vertex -3.50688782973887 -3.9899158087321 1.9705895495596
vertex 1.4931798834044 -3.94057125093567 1.85258503501215
vertex -3.50681941120357 -3.93996559748278 1.84999909151868
endloop
endfacet
facet normal -0.000153692111587786 0.866025395924032 0.499999989993358
outer loop
vertex 1.4931798834044 -3.94057125093567 1.85258503501215
vertex -3.50688782973887 -3.9899158087321 1.9705895495596
vertex 1.49311146486909 -3.99052146218498 1.97317549305307
endloop
endfacet
endsolid motor-pulley-cap
