solid hinge-washer
facet normal 0.0 0.0 -1.0
outer loop
vertex -4.82962913144534 1.2940952255126 0.0
vertex -4.82962913144534 -1.29409522551261 0.0
vertex -5.0 -1.60812264967664e-015 0.0
endloop
endfacet
facet normal 0.0 0.0 -1.0
outer loop
vertex -4.82962913144534 -1.29409522551261 0.0
vertex -4.82962913144534 1.2940952255126 0.0
vertex -4.33012701892219 2.5 0.0
endloop
endfacet
facet normal 0.0 0.0 -1.0
outer loop
vertex -4.82962913144534 -1.29409522551261 0.0
vertex -4.33012701892219 2.5 0.0
vertex -4.33012701892219 -2.5 0.0
endloop
endfacet
facet normal 0.0 0.0 -1.0
outer loop
vertex -4.33012701892219 -2.5 0.0
vertex -4.33012701892219 2.5 0.0
vertex -3.53553390593274 3.53553390593274 0.0
endloop
endfacet
facet normal 0.0 0.0 -1.0
outer loop
vertex -4.33012701892219 -2.5 0.0
vertex -3.53553390593274 3.53553390593274 0.0
vertex -3.53553390593274 -3.53553390593274 0.0
endloop
endfacet
facet normal 0.0 0.0 -1.0
outer loop
vertex -3.53553390593274 -3.53553390593274 0.0
vertex -3.53553390593274 3.53553390593274 0.0
vertex -2.5 4.33012701892219 0.0
endloop
endfacet
facet normal 0.0 0.0 -1.0
outer loop
vertex -3.53553390593274 -3.53553390593274 0.0
vertex -2.5 4.33012701892219 0.0
vertex -2.5 -4.33012701892219 0.0
endloop
endfacet
facet normal 0.0 0.0 -1.0
outer loop
vertex -2.5 -4.33012701892219 0.0
vertex -2.5 4.33012701892219 0.0
vertex -1.2940952255126 4.82962913144534 0.0
endloop
endfacet
facet normal 0.0 0.0 -1.0
outer loop
vertex -2.5 -4.33012701892219 0.0
vertex -1.2940952255126 4.82962913144534 0.0
vertex -1.5 -4.82436794902991e-016 0.0
endloop
endfacet
facet normal 0.0 0.0 -1.0
outer loop
vertex -1.5 -4.82436794902991e-016 0.0
vertex -1.2940952255126 4.82962913144534 0.0
vertex -1.4488887394336 0.388228567653781 0.0
endloop
endfacet
facet normal 0.0 0.0 -1.0
outer loop
vertex -1.4488887394336 0.388228567653781 0.0
vertex -1.2940952255126 4.82962913144534 0.0
vertex -1.29903810567666 0.75 0.0
endloop
endfacet
facet normal 0.0 0.0 -1.0
outer loop
vertex -1.29903810567666 0.75 0.0
vertex -1.2940952255126 4.82962913144534 0.0
vertex -1.06066017177982 1.06066017177982 0.0
endloop
endfacet
facet normal 0.0 0.0 -1.0
outer loop
vertex -1.06066017177982 1.06066017177982 0.0
vertex -1.2940952255126 4.82962913144534 0.0
vertex 1.416384724412e-015 5.0 0.0
endloop
endfacet
facet normal 0.0 0.0 -1.0
outer loop
vertex -1.06066017177982 1.06066017177982 0.0
vertex 1.416384724412e-015 5.0 0.0
vertex -0.75 1.29903810567666 0.0
endloop
endfacet
facet normal 0.0 0.0 -1.0
outer loop
vertex -0.75 1.29903810567666 0.0
vertex 1.416384724412e-015 5.0 0.0
vertex -0.388228567653781 1.4488887394336 0.0
endloop
endfacet
facet normal 0.0 0.0 -1.0
outer loop
vertex -0.388228567653781 1.4488887394336 0.0
vertex 1.416384724412e-015 5.0 0.0
vertex 4.24915417323599e-016 1.5 0.0
endloop
endfacet
facet normal 0.0 0.0 -1.0
outer loop
vertex 4.24915417323599e-016 1.5 0.0
vertex 1.416384724412e-015 5.0 0.0
vertex 0.388228567653782 1.4488887394336 0.0
endloop
endfacet
facet normal 0.0 0.0 -1.0
outer loop
vertex 0.388228567653782 1.4488887394336 0.0
vertex 1.416384724412e-015 5.0 0.0
vertex 1.29409522551261 4.82962913144534 0.0
endloop
endfacet
facet normal 0.0 0.0 -1.0
outer loop
vertex 0.388228567653782 1.4488887394336 0.0
vertex 1.29409522551261 4.82962913144534 0.0
vertex 0.75 1.29903810567666 0.0
endloop
endfacet
facet normal 0.0 0.0 -1.0
outer loop
vertex 0.75 1.29903810567666 0.0
vertex 1.29409522551261 4.82962913144534 0.0
vertex 1.06066017177982 1.06066017177982 0.0
endloop
endfacet
facet normal 0.0 0.0 -1.0
outer loop
vertex 1.06066017177982 1.06066017177982 0.0
vertex 1.29409522551261 4.82962913144534 0.0
vertex 1.29903810567666 0.75 0.0
endloop
endfacet
facet normal 0.0 0.0 -1.0
outer loop
vertex 1.29903810567666 0.75 0.0
vertex 1.29409522551261 4.82962913144534 0.0
vertex 2.5 4.33012701892219 0.0
endloop
endfacet
facet normal 0.0 0.0 -1.0
outer loop
vertex 1.29903810567666 0.75 0.0
vertex 2.5 4.33012701892219 0.0
vertex 1.4488887394336 0.388228567653781 0.0
endloop
endfacet
facet normal 0.0 0.0 -1.0
outer loop
vertex 1.4488887394336 0.388228567653781 0.0
vertex 2.5 4.33012701892219 0.0
vertex 1.5 -3.03192929884458e-015 0.0
endloop
endfacet
facet normal 0.0 0.0 -1.0
outer loop
vertex 1.5 -3.03192929884458e-015 0.0
vertex 2.5 4.33012701892219 0.0
vertex 2.5 -4.3301270189222 0.0
endloop
endfacet
facet normal 0.0 0.0 -1.0
outer loop
vertex 2.5 -4.3301270189222 0.0
vertex 2.5 4.33012701892219 0.0
vertex 3.53553390593273 -3.53553390593274 0.0
endloop
endfacet
facet normal 0.0 0.0 -1.0
outer loop
vertex 3.53553390593273 -3.53553390593274 0.0
vertex 2.5 4.33012701892219 0.0
vertex 3.53553390593274 3.53553390593274 0.0
endloop
endfacet
facet normal 0.0 0.0 -1.0
outer loop
vertex 3.53553390593273 -3.53553390593274 0.0
vertex 3.53553390593274 3.53553390593274 0.0
vertex 4.33012701892219 -2.50000000000001 0.0
endloop
endfacet
facet normal 0.0 0.0 -1.0
outer loop
vertex 4.33012701892219 -2.50000000000001 0.0
vertex 3.53553390593274 3.53553390593274 0.0
vertex 4.33012701892219 2.5 0.0
endloop
endfacet
facet normal 0.0 0.0 -1.0
outer loop
vertex 4.33012701892219 -2.50000000000001 0.0
vertex 4.33012701892219 2.5 0.0
vertex 4.82962913144534 -1.29409522551261 0.0
endloop
endfacet
facet normal 0.0 0.0 -1.0
outer loop
vertex 4.82962913144534 -1.29409522551261 0.0
vertex 4.33012701892219 2.5 0.0
vertex 4.82962913144534 1.2940952255126 0.0
endloop
endfacet
facet normal 0.0 0.0 -1.0
outer loop
vertex 4.82962913144534 -1.29409522551261 0.0
vertex 4.82962913144534 1.2940952255126 0.0
vertex 5.0 -1.01064309961486e-014 0.0
endloop
endfacet
facet normal 0.0 0.0 -1.0
outer loop
vertex -1.5 -4.82436794902991e-016 0.0
vertex -1.2940952255126 -4.82962913144534 0.0
vertex -2.5 -4.33012701892219 0.0
endloop
endfacet
facet normal 0.0 0.0 -1.0
outer loop
vertex -1.2940952255126 -4.82962913144534 0.0
vertex -1.5 -4.82436794902991e-016 0.0
vertex -1.4488887394336 -0.388228567653782 0.0
endloop
endfacet
facet normal 0.0 0.0 -1.0
outer loop
vertex -1.2940952255126 -4.82962913144534 0.0
vertex -1.4488887394336 -0.388228567653782 0.0
vertex -1.29903810567666 -0.750000000000001 0.0
endloop
endfacet
facet normal 0.0 0.0 -1.0
outer loop
vertex -1.2940952255126 -4.82962913144534 0.0
vertex -1.29903810567666 -0.750000000000001 0.0
vertex -1.06066017177982 -1.06066017177982 0.0
endloop
endfacet
facet normal 0.0 0.0 -1.0
outer loop
vertex -1.2940952255126 -4.82962913144534 0.0
vertex -1.06066017177982 -1.06066017177982 0.0
vertex -9.18485099360515e-016 -5.0 0.0
endloop
endfacet
facet normal 0.0 0.0 -1.0
outer loop
vertex -9.18485099360515e-016 -5.0 0.0
vertex -1.06066017177982 -1.06066017177982 0.0
vertex -0.75 -1.29903810567666 0.0
endloop
endfacet
facet normal 0.0 0.0 -1.0
outer loop
vertex -9.18485099360515e-016 -5.0 0.0
vertex -0.75 -1.29903810567666 0.0
vertex -0.388228567653781 -1.4488887394336 0.0
endloop
endfacet
facet normal 0.0 0.0 -1.0
outer loop
vertex -9.18485099360515e-016 -5.0 0.0
vertex -0.388228567653781 -1.4488887394336 0.0
vertex -2.75545529808154e-016 -1.5 0.0
endloop
endfacet
facet normal 0.0 0.0 -1.0
outer loop
vertex -9.18485099360515e-016 -5.0 0.0
vertex -2.75545529808154e-016 -1.5 0.0
vertex 1.2940952255126 -4.82962913144534 0.0
endloop
endfacet
facet normal 0.0 0.0 -1.0
outer loop
vertex 1.2940952255126 -4.82962913144534 0.0
vertex -2.75545529808154e-016 -1.5 0.0
vertex 0.388228567653781 -1.4488887394336 0.0
endloop
endfacet
facet normal 0.0 0.0 -1.0
outer loop
vertex 1.2940952255126 -4.82962913144534 0.0
vertex 0.388228567653781 -1.4488887394336 0.0
vertex 0.749999999999999 -1.29903810567666 0.0
endloop
endfacet
facet normal 0.0 0.0 -1.0
outer loop
vertex 1.2940952255126 -4.82962913144534 0.0
vertex 0.749999999999999 -1.29903810567666 0.0
vertex 1.06066017177982 -1.06066017177982 0.0
endloop
endfacet
facet normal 0.0 0.0 -1.0
outer loop
vertex 1.2940952255126 -4.82962913144534 0.0
vertex 1.06066017177982 -1.06066017177982 0.0
vertex 1.29903810567666 -0.750000000000002 0.0
endloop
endfacet
facet normal 0.0 0.0 -1.0
outer loop
vertex 1.2940952255126 -4.82962913144534 0.0
vertex 1.29903810567666 -0.750000000000002 0.0
vertex 2.5 -4.3301270189222 0.0
endloop
endfacet
facet normal 0.0 0.0 -1.0
outer loop
vertex 2.5 -4.3301270189222 0.0
vertex 1.29903810567666 -0.750000000000002 0.0
vertex 1.4488887394336 -0.388228567653784 0.0
endloop
endfacet
facet normal 0.0 0.0 -1.0
outer loop
vertex 2.5 -4.3301270189222 0.0
vertex 1.4488887394336 -0.388228567653784 0.0
vertex 1.5 -3.03192929884458e-015 0.0
endloop
endfacet
facet normal -0.0 -0.0 1.0
outer loop
vertex -4.82962913144534 -1.2940952255126 2.0
vertex -4.82962913144534 1.29409522551261 2.0
vertex -5.0 3.87745391350336e-015 2.0
endloop
endfacet
facet normal -0.0 -0.0 1.0
outer loop
vertex -4.82962913144534 1.29409522551261 2.0
vertex -4.82962913144534 -1.2940952255126 2.0
vertex -4.33012701892219 -2.5 2.0
endloop
endfacet
facet normal -0.0 -0.0 1.0
outer loop
vertex -4.82962913144534 1.29409522551261 2.0
vertex -4.33012701892219 -2.5 2.0
vertex -4.33012701892219 2.5 2.0
endloop
endfacet
facet normal -0.0 -0.0 1.0
outer loop
vertex -4.33012701892219 2.5 2.0
vertex -4.33012701892219 -2.5 2.0
vertex -3.53553390593274 -3.53553390593274 2.0
endloop
endfacet
facet normal -0.0 -0.0 1.0
outer loop
vertex -4.33012701892219 2.5 2.0
vertex -3.53553390593274 -3.53553390593274 2.0
vertex -3.53553390593274 3.53553390593274 2.0
endloop
endfacet
facet normal -0.0 -0.0 1.0
outer loop
vertex -3.53553390593274 3.53553390593274 2.0
vertex -3.53553390593274 -3.53553390593274 2.0
vertex -2.5 -4.33012701892219 2.0
endloop
endfacet
facet normal -0.0 -0.0 1.0
outer loop
vertex -3.53553390593274 3.53553390593274 2.0
vertex -2.5 -4.33012701892219 2.0
vertex -3.0 -1.83697019872103e-016 2.0
endloop
endfacet
facet normal -0.0 -0.0 1.0
outer loop
vertex -3.0 -1.83697019872103e-016 2.0
vertex -2.5 -4.33012701892219 2.0
vertex -2.8977774788672 -0.776457135307563 2.0
endloop
endfacet
facet normal -0.0 -0.0 1.0
outer loop
vertex -2.8977774788672 -0.776457135307563 2.0
vertex -2.5 -4.33012701892219 2.0
vertex -2.59807621135332 -1.5 2.0
endloop
endfacet
facet normal -0.0 -0.0 1.0
outer loop
vertex -2.59807621135332 -1.5 2.0
vertex -2.5 -4.33012701892219 2.0
vertex -2.12132034355964 -2.12132034355964 2.0
endloop
endfacet
facet normal -0.0 -0.0 1.0
outer loop
vertex -2.12132034355964 -2.12132034355964 2.0
vertex -2.5 -4.33012701892219 2.0
vertex -1.2940952255126 -4.82962913144534 2.0
endloop
endfacet
facet normal -0.0 -0.0 1.0
outer loop
vertex -2.12132034355964 -2.12132034355964 2.0
vertex -1.2940952255126 -4.82962913144534 2.0
vertex -1.5 -2.59807621135332 2.0
endloop
endfacet
facet normal -0.0 -0.0 1.0
outer loop
vertex -1.5 -2.59807621135332 2.0
vertex -1.2940952255126 -4.82962913144534 2.0
vertex -0.776457135307562 -2.8977774788672 2.0
endloop
endfacet
facet normal -0.0 -0.0 1.0
outer loop
vertex -0.776457135307562 -2.8977774788672 2.0
vertex -1.2940952255126 -4.82962913144534 2.0
vertex 3.52495810318487e-016 -5.0 2.0
endloop
endfacet
facet normal -0.0 -0.0 1.0
outer loop
vertex -0.776457135307562 -2.8977774788672 2.0
vertex 3.52495810318487e-016 -5.0 2.0
vertex 0.0 -3.0 2.0
endloop
endfacet
facet normal -0.0 -0.0 1.0
outer loop
vertex 0.0 -3.0 2.0
vertex 3.52495810318487e-016 -5.0 2.0
vertex 0.776457135307565 -2.8977774788672 2.0
endloop
endfacet
facet normal -0.0 -0.0 1.0
outer loop
vertex 0.776457135307565 -2.8977774788672 2.0
vertex 3.52495810318487e-016 -5.0 2.0
vertex 1.2940952255126 -4.82962913144534 2.0
endloop
endfacet
facet normal -0.0 -0.0 1.0
outer loop
vertex 0.776457135307565 -2.8977774788672 2.0
vertex 1.2940952255126 -4.82962913144534 2.0
vertex 1.5 -2.59807621135331 2.0
endloop
endfacet
facet normal -0.0 -0.0 1.0
outer loop
vertex 1.5 -2.59807621135331 2.0
vertex 1.2940952255126 -4.82962913144534 2.0
vertex 2.5 -4.33012701892219 2.0
endloop
endfacet
facet normal -0.0 -0.0 1.0
outer loop
vertex 1.5 -2.59807621135331 2.0
vertex 2.5 -4.33012701892219 2.0
vertex 2.12132034355964 -2.12132034355964 2.0
endloop
endfacet
facet normal -0.0 -0.0 1.0
outer loop
vertex 2.12132034355964 -2.12132034355964 2.0
vertex 2.5 -4.33012701892219 2.0
vertex 2.59807621135332 -1.5 2.0
endloop
endfacet
facet normal -0.0 -0.0 1.0
outer loop
vertex 2.59807621135332 -1.5 2.0
vertex 2.5 -4.33012701892219 2.0
vertex 3.53553390593274 -3.53553390593274 2.0
endloop
endfacet
facet normal -0.0 -0.0 1.0
outer loop
vertex 2.59807621135332 -1.5 2.0
vertex 3.53553390593274 -3.53553390593274 2.0
vertex 2.89777747886721 -0.776457135307561 2.0
endloop
endfacet
facet normal -0.0 -0.0 1.0
outer loop
vertex 2.89777747886721 -0.776457135307561 2.0
vertex 3.53553390593274 -3.53553390593274 2.0
vertex 3.0 5.51091059616309e-016 2.0
endloop
endfacet
facet normal -0.0 -0.0 1.0
outer loop
vertex -3.0 -1.83697019872103e-016 2.0
vertex -2.5 4.33012701892219 2.0
vertex -3.53553390593274 3.53553390593274 2.0
endloop
endfacet
facet normal -0.0 -0.0 1.0
outer loop
vertex -2.5 4.33012701892219 2.0
vertex -3.0 -1.83697019872103e-016 2.0
vertex -2.8977774788672 0.776457135307562 2.0
endloop
endfacet
facet normal -0.0 -0.0 1.0
outer loop
vertex -2.5 4.33012701892219 2.0
vertex -2.8977774788672 0.776457135307562 2.0
vertex -2.59807621135332 1.5 2.0
endloop
endfacet
facet normal -0.0 -0.0 1.0
outer loop
vertex -2.5 4.33012701892219 2.0
vertex -2.59807621135332 1.5 2.0
vertex -2.12132034355964 2.12132034355964 2.0
endloop
endfacet
facet normal -0.0 -0.0 1.0
outer loop
vertex -2.5 4.33012701892219 2.0
vertex -2.12132034355964 2.12132034355964 2.0
vertex -1.2940952255126 4.82962913144534 2.0
endloop
endfacet
facet normal -0.0 -0.0 1.0
outer loop
vertex -1.2940952255126 4.82962913144534 2.0
vertex -2.12132034355964 2.12132034355964 2.0
vertex -1.5 2.59807621135332 2.0
endloop
endfacet
facet normal -0.0 -0.0 1.0
outer loop
vertex -1.2940952255126 4.82962913144534 2.0
vertex -1.5 2.59807621135332 2.0
vertex -0.776457135307563 2.8977774788672 2.0
endloop
endfacet
facet normal -0.0 -0.0 1.0
outer loop
vertex -1.2940952255126 4.82962913144534 2.0
vertex -0.776457135307563 2.8977774788672 2.0
vertex 3.17246229286638e-015 5.0 2.0
endloop
endfacet
facet normal -0.0 -0.0 1.0
outer loop
vertex 3.17246229286638e-015 5.0 2.0
vertex -0.776457135307563 2.8977774788672 2.0
vertex -3.67394039744206e-016 3.0 2.0
endloop
endfacet
facet normal -0.0 -0.0 1.0
outer loop
vertex 3.17246229286638e-015 5.0 2.0
vertex -3.67394039744206e-016 3.0 2.0
vertex 0.776457135307561 2.89777747886721 2.0
endloop
endfacet
facet normal -0.0 -0.0 1.0
outer loop
vertex 3.17246229286638e-015 5.0 2.0
vertex 0.776457135307561 2.89777747886721 2.0
vertex 1.29409522551261 4.82962913144534 2.0
endloop
endfacet
facet normal -0.0 -0.0 1.0
outer loop
vertex 1.29409522551261 4.82962913144534 2.0
vertex 0.776457135307561 2.89777747886721 2.0
vertex 1.5 2.59807621135332 2.0
endloop
endfacet
facet normal -0.0 -0.0 1.0
outer loop
vertex 1.29409522551261 4.82962913144534 2.0
vertex 1.5 2.59807621135332 2.0
vertex 2.50000000000001 4.33012701892219 2.0
endloop
endfacet
facet normal -0.0 -0.0 1.0
outer loop
vertex 2.50000000000001 4.33012701892219 2.0
vertex 1.5 2.59807621135332 2.0
vertex 2.12132034355964 2.12132034355964 2.0
endloop
endfacet
facet normal -0.0 -0.0 1.0
outer loop
vertex 2.50000000000001 4.33012701892219 2.0
vertex 2.12132034355964 2.12132034355964 2.0
vertex 2.59807621135331 1.5 2.0
endloop
endfacet
facet normal -0.0 -0.0 1.0
outer loop
vertex 2.50000000000001 4.33012701892219 2.0
vertex 2.59807621135331 1.5 2.0
vertex 3.53553390593274 3.53553390593273 2.0
endloop
endfacet
facet normal -0.0 -0.0 1.0
outer loop
vertex 3.53553390593274 3.53553390593273 2.0
vertex 2.59807621135331 1.5 2.0
vertex 2.8977774788672 0.776457135307564 2.0
endloop
endfacet
facet normal -0.0 -0.0 1.0
outer loop
vertex 3.53553390593274 3.53553390593273 2.0
vertex 2.8977774788672 0.776457135307564 2.0
vertex 3.0 5.51091059616309e-016 2.0
endloop
endfacet
facet normal -0.0 -0.0 1.0
outer loop
vertex 3.53553390593274 3.53553390593273 2.0
vertex 3.0 5.51091059616309e-016 2.0
vertex 3.53553390593274 -3.53553390593274 2.0
endloop
endfacet
facet normal -0.0 -0.0 1.0
outer loop
vertex 3.53553390593274 3.53553390593273 2.0
vertex 3.53553390593274 -3.53553390593274 2.0
vertex 4.33012701892219 -2.5 2.0
endloop
endfacet
facet normal -0.0 -0.0 1.0
outer loop
vertex 3.53553390593274 3.53553390593273 2.0
vertex 4.33012701892219 -2.5 2.0
vertex 4.3301270189222 2.49999999999999 2.0
endloop
endfacet
facet normal -0.0 -0.0 1.0
outer loop
vertex 4.3301270189222 2.49999999999999 2.0
vertex 4.33012701892219 -2.5 2.0
vertex 4.82962913144534 -1.29409522551261 2.0
endloop
endfacet
facet normal -0.0 -0.0 1.0
outer loop
vertex 4.3301270189222 2.49999999999999 2.0
vertex 4.82962913144534 -1.29409522551261 2.0
vertex 4.82962913144534 1.2940952255126 2.0
endloop
endfacet
facet normal -0.0 -0.0 1.0
outer loop
vertex 4.82962913144534 1.2940952255126 2.0
vertex 4.82962913144534 -1.29409522551261 2.0
vertex 5.0 -6.34492458573277e-015 2.0
endloop
endfacet
facet normal 0.258819045102521 0.965925826289068 7.46585456469157e-016
outer loop
vertex 1.29409522551261 4.82962913144534 2.0
vertex 2.5 4.33012701892219 0.0
vertex 1.29409522551261 4.82962913144534 0.0
endloop
endfacet
facet normal 0.500000000000001 0.866025403784438 7.52900701102248e-016
outer loop
vertex 2.5 4.33012701892219 0.0
vertex 1.29409522551261 4.82962913144534 2.0
vertex 2.50000000000001 4.33012701892219 2.0
endloop
endfacet
facet normal 0.500000000000001 0.866025403784438 7.52900701102247e-016
outer loop
vertex 2.50000000000001 4.33012701892219 2.0
vertex 3.53553390593274 3.53553390593274 0.0
vertex 2.5 4.33012701892219 0.0
endloop
endfacet
facet normal 0.707106781186548 0.707106781186547 7.10222175681047e-016
outer loop
vertex 3.53553390593274 3.53553390593274 0.0
vertex 2.50000000000001 4.33012701892219 2.0
vertex 3.53553390593274 3.53553390593273 2.0
endloop
endfacet
facet normal 0.866025403784439 0.499999999999999 7.23622303472798e-016
outer loop
vertex 4.33012701892219 2.5 0.0
vertex 3.53553390593274 3.53553390593273 2.0
vertex 4.3301270189222 2.49999999999999 2.0
endloop
endfacet
facet normal 0.707106781186549 0.707106781186546 7.10222175681048e-016
outer loop
vertex 3.53553390593274 3.53553390593273 2.0
vertex 4.33012701892219 2.5 0.0
vertex 3.53553390593274 3.53553390593274 0.0
endloop
endfacet
facet normal 0.965925826289068 0.25881904510252 3.87875069021544e-016
outer loop
vertex 4.82962913144534 1.2940952255126 0.0
vertex 4.3301270189222 2.49999999999999 2.0
vertex 4.82962913144534 1.2940952255126 2.0
endloop
endfacet
facet normal 0.866025403784439 0.499999999999999 7.23622303472798e-016
outer loop
vertex 4.3301270189222 2.49999999999999 2.0
vertex 4.82962913144534 1.2940952255126 0.0
vertex 4.33012701892219 2.5 0.0
endloop
endfacet
facet normal 0.965925826289068 0.25881904510252 3.87875069021544e-016
outer loop
vertex 4.82962913144534 1.2940952255126 0.0
vertex 5.0 -6.34492458573277e-015 2.0
vertex 5.0 -1.01064309961486e-014 0.0
endloop
endfacet
facet normal 1.0 -1.20299983591233e-015 3.68257446261641e-016
outer loop
vertex 5.0 -6.34492458573277e-015 2.0
vertex 4.82962913144534 1.2940952255126 0.0
vertex 4.82962913144534 1.2940952255126 2.0
endloop
endfacet
facet normal 1.0 -1.51488868225997e-015 3.68257446261642e-016
outer loop
vertex 5.0 -1.01064309961486e-014 0.0
vertex 4.82962913144534 -1.29409522551261 2.0
vertex 4.82962913144534 -1.29409522551261 0.0
endloop
endfacet
facet normal 0.965925826289068 -0.258819045102522 5.67629189557398e-016
outer loop
vertex 4.82962913144534 -1.29409522551261 2.0
vertex 5.0 -1.01064309961486e-014 0.0
vertex 5.0 -6.34492458573277e-015 2.0
endloop
endfacet
facet normal 0.965925826289068 -0.258819045102522 5.67629189557398e-016
outer loop
vertex 4.82962913144534 -1.29409522551261 0.0
vertex 4.33012701892219 -2.5 2.0
vertex 4.33012701892219 -2.50000000000001 0.0
endloop
endfacet
facet normal 0.866025403784438 -0.500000000000001 6.03842520394244e-016
outer loop
vertex 4.33012701892219 -2.5 2.0
vertex 4.82962913144534 -1.29409522551261 0.0
vertex 4.82962913144534 -1.29409522551261 2.0
endloop
endfacet
facet normal 0.866025403784438 -0.500000000000001 6.03842520394244e-016
outer loop
vertex 4.33012701892219 -2.50000000000001 0.0
vertex 3.53553390593274 -3.53553390593274 2.0
vertex 3.53553390593273 -3.53553390593274 0.0
endloop
endfacet
facet normal 0.707106781186547 -0.707106781186548 6.75377875122245e-016
outer loop
vertex 3.53553390593274 -3.53553390593274 2.0
vertex 4.33012701892219 -2.50000000000001 0.0
vertex 4.33012701892219 -2.5 2.0
endloop
endfacet
facet normal 0.707106781186547 -0.707106781186548 6.75377875122245e-016
outer loop
vertex 3.53553390593274 -3.53553390593274 2.0
vertex 2.5 -4.3301270189222 0.0
vertex 3.53553390593273 -3.53553390593274 0.0
endloop
endfacet
facet normal 0.499999999999999 -0.866025403784439 6.44768850364923e-016
outer loop
vertex 2.5 -4.3301270189222 0.0
vertex 3.53553390593274 -3.53553390593274 2.0
vertex 2.5 -4.33012701892219 2.0
endloop
endfacet
facet normal 0.5 -0.866025403784439 6.44768850364922e-016
outer loop
vertex 2.5 -4.33012701892219 2.0
vertex 1.2940952255126 -4.82962913144534 0.0
vertex 2.5 -4.3301270189222 0.0
endloop
endfacet
facet normal 0.258819045102521 -0.965925826289068 5.89958597748616e-016
outer loop
vertex 1.2940952255126 -4.82962913144534 0.0
vertex 2.5 -4.33012701892219 2.0
vertex 1.2940952255126 -4.82962913144534 2.0
endloop
endfacet
facet normal 0.258819045102521 -0.965925826289068 5.89958597748616e-016
outer loop
vertex 1.2940952255126 -4.82962913144534 2.0
vertex -9.18485099360515e-016 -5.0 0.0
vertex 1.2940952255126 -4.82962913144534 0.0
endloop
endfacet
facet normal -3.56444395825876e-017 -1.0 4.64638852992953e-016
outer loop
vertex -9.18485099360515e-016 -5.0 0.0
vertex 1.2940952255126 -4.82962913144534 2.0
vertex 3.52495810318487e-016 -5.0 2.0
endloop
endfacet
facet normal 6.23777692695283e-017 -1.0 4.64638852992953e-016
outer loop
vertex 3.52495810318487e-016 -5.0 2.0
vertex -1.2940952255126 -4.82962913144534 0.0
vertex -9.18485099360515e-016 -5.0 0.0
endloop
endfacet
facet normal -0.258819045102521 -0.965925826289068 3.49065695338633e-016
outer loop
vertex -1.2940952255126 -4.82962913144534 0.0
vertex 3.52495810318487e-016 -5.0 2.0
vertex -1.2940952255126 -4.82962913144534 2.0
endloop
endfacet
facet normal -0.258819045102521 -0.965925826289068 3.49065695338633e-016
outer loop
vertex -1.2940952255126 -4.82962913144534 2.0
vertex -2.5 -4.33012701892219 0.0
vertex -1.2940952255126 -4.82962913144534 0.0
endloop
endfacet
facet normal -0.5 -0.866025403784439 5.14242117800771e-016
outer loop
vertex -2.5 -4.33012701892219 0.0
vertex -1.2940952255126 -4.82962913144534 2.0
vertex -2.5 -4.33012701892219 2.0
endloop
endfacet
facet normal -0.5 -0.866025403784439 5.14242117800771e-016
outer loop
vertex -2.5 -4.33012701892219 2.0
vertex -3.53553390593274 -3.53553390593274 0.0
vertex -2.5 -4.33012701892219 0.0
endloop
endfacet
facet normal -0.707106781186547 -0.707106781186548 7.16352958472274e-016
outer loop
vertex -3.53553390593274 -3.53553390593274 0.0
vertex -2.5 -4.33012701892219 2.0
vertex -3.53553390593274 -3.53553390593274 2.0
endloop
endfacet
facet normal -0.707106781186547 -0.707106781186548 7.16352958472274e-016
outer loop
vertex -3.53553390593274 -3.53553390593274 2.0
vertex -4.33012701892219 -2.5 0.0
vertex -3.53553390593274 -3.53553390593274 0.0
endloop
endfacet
facet normal -0.866025403784438 -0.5 6.37950531557561e-016
outer loop
vertex -4.33012701892219 -2.5 0.0
vertex -3.53553390593274 -3.53553390593274 2.0
vertex -4.33012701892219 -2.5 2.0
endloop
endfacet
facet normal -0.866025403784439 -0.5 6.3795053155756e-016
outer loop
vertex -4.33012701892219 -2.5 2.0
vertex -4.82962913144534 -1.29409522551261 0.0
vertex -4.33012701892219 -2.5 0.0
endloop
endfacet
facet normal -0.965925826289068 -0.258819045102521 6.18391310336546e-016
outer loop
vertex -4.82962913144534 -1.29409522551261 0.0
vertex -4.33012701892219 -2.5 2.0
vertex -4.82962913144534 -1.2940952255126 2.0
endloop
endfacet
facet normal -0.965925826289069 -0.25881904510252 6.18391310336547e-016
outer loop
vertex -4.82962913144534 -1.2940952255126 2.0
vertex -5.0 -1.60812264967664e-015 0.0
vertex -4.82962913144534 -1.29409522551261 0.0
endloop
endfacet
facet normal -1.0 1.96044417704232e-016 6.12048389400654e-016
outer loop
vertex -5.0 -1.60812264967664e-015 0.0
vertex -4.82962913144534 -1.2940952255126 2.0
vertex -5.0 3.87745391350336e-015 2.0
endloop
endfacet
facet normal -1.0 6.50511022382224e-016 6.12048389400653e-016
outer loop
vertex -5.0 3.87745391350336e-015 2.0
vertex -4.82962913144534 1.2940952255126 0.0
vertex -5.0 -1.60812264967664e-015 0.0
endloop
endfacet
facet normal -0.965925826289068 0.258819045102521 5.15787627721505e-016
outer loop
vertex -4.82962913144534 1.2940952255126 0.0
vertex -5.0 3.87745391350336e-015 2.0
vertex -4.82962913144534 1.29409522551261 2.0
endloop
endfacet
facet normal -0.965925826289068 0.258819045102521 5.15787627721505e-016
outer loop
vertex -4.82962913144534 1.29409522551261 2.0
vertex -4.33012701892219 2.5 0.0
vertex -4.82962913144534 1.2940952255126 0.0
endloop
endfacet
facet normal -0.866025403784439 0.5 5.89622486715831e-016
outer loop
vertex -4.33012701892219 2.5 0.0
vertex -4.82962913144534 1.29409522551261 2.0
vertex -4.33012701892219 2.5 2.0
endloop
endfacet
facet normal -0.866025403784438 0.5 5.89622486715831e-016
outer loop
vertex -4.33012701892219 2.5 2.0
vertex -3.53553390593274 3.53553390593274 0.0
vertex -4.33012701892219 2.5 0.0
endloop
endfacet
facet normal -0.707106781186547 0.707106781186548 6.74096278672899e-016
outer loop
vertex -3.53553390593274 3.53553390593274 0.0
vertex -4.33012701892219 2.5 2.0
vertex -3.53553390593274 3.53553390593274 2.0
endloop
endfacet
facet normal -0.707106781186547 0.707106781186548 6.74096278672899e-016
outer loop
vertex -3.53553390593274 3.53553390593274 2.0
vertex -2.5 4.33012701892219 0.0
vertex -3.53553390593274 3.53553390593274 0.0
endloop
endfacet
facet normal -0.5 0.866025403784439 6.0514822170537e-016
outer loop
vertex -2.5 4.33012701892219 0.0
vertex -3.53553390593274 3.53553390593274 2.0
vertex -2.5 4.33012701892219 2.0
endloop
endfacet
facet normal -0.499999999999999 0.866025403784439 6.05148221705369e-016
outer loop
vertex -2.5 4.33012701892219 2.0
vertex -1.2940952255126 4.82962913144534 0.0
vertex -2.5 4.33012701892219 0.0
endloop
endfacet
facet normal -0.25881904510252 0.965925826289068 5.82236684107325e-016
outer loop
vertex -1.2940952255126 4.82962913144534 0.0
vertex -2.5 4.33012701892219 2.0
vertex -1.2940952255126 4.82962913144534 2.0
endloop
endfacet
facet normal -0.25881904510252 0.965925826289068 5.82236684107325e-016
outer loop
vertex -1.2940952255126 4.82962913144534 2.0
vertex 1.416384724412e-015 5.0 0.0
vertex -1.2940952255126 4.82962913144534 0.0
endloop
endfacet
facet normal 3.47533285930229e-016 1.0 6.16536496480198e-016
outer loop
vertex 1.416384724412e-015 5.0 0.0
vertex -1.2940952255126 4.82962913144534 2.0
vertex 3.17246229286638e-015 5.0 2.0
endloop
endfacet
facet normal 4.9011104426058e-016 1.0 6.16536496480198e-016
outer loop
vertex 3.17246229286638e-015 5.0 2.0
vertex 1.29409522551261 4.82962913144534 0.0
vertex 1.416384724412e-015 5.0 0.0
endloop
endfacet
facet normal 0.258819045102521 0.965925826289068 7.46585456469157e-016
outer loop
vertex 1.29409522551261 4.82962913144534 0.0
vertex 3.17246229286638e-015 5.0 2.0
vertex 1.29409522551261 4.82962913144534 2.0
endloop
endfacet
facet normal -0.965925826289068 -0.25881904510252 0.0
outer loop
vertex 1.4488887394336 0.388228567653781 1.0
vertex 1.5 -3.03192929884458e-015 0.0
vertex 1.5 -3.03192929884458e-015 1.0
endloop
endfacet
facet normal -1.0 1.48815535257303e-015 0.0
outer loop
vertex 1.5 -3.03192929884458e-015 0.0
vertex 1.4488887394336 0.388228567653781 1.0
vertex 1.4488887394336 0.388228567653781 0.0
endloop
endfacet
facet normal -0.866025403784439 -0.5 0.0
outer loop
vertex 1.29903810567666 0.75 1.0
vertex 1.4488887394336 0.388228567653781 0.0
vertex 1.4488887394336 0.388228567653781 1.0
endloop
endfacet
facet normal -0.965925826289068 -0.25881904510252 0.0
outer loop
vertex 1.4488887394336 0.388228567653781 0.0
vertex 1.29903810567666 0.75 1.0
vertex 1.29903810567666 0.75 0.0
endloop
endfacet
facet normal -0.707106781186548 -0.707106781186548 0.0
outer loop
vertex 1.06066017177982 1.06066017177982 1.0
vertex 1.29903810567666 0.75 0.0
vertex 1.29903810567666 0.75 1.0
endloop
endfacet
facet normal -0.866025403784439 -0.5 0.0
outer loop
vertex 1.29903810567666 0.75 0.0
vertex 1.06066017177982 1.06066017177982 1.0
vertex 1.06066017177982 1.06066017177982 0.0
endloop
endfacet
facet normal -0.707106781186548 -0.707106781186548 0.0
outer loop
vertex 1.06066017177982 1.06066017177982 1.0
vertex 0.75 1.29903810567666 0.0
vertex 1.06066017177982 1.06066017177982 0.0
endloop
endfacet
facet normal -0.5 -0.866025403784439 0.0
outer loop
vertex 0.75 1.29903810567666 0.0
vertex 1.06066017177982 1.06066017177982 1.0
vertex 0.75 1.29903810567666 1.0
endloop
endfacet
facet normal -0.5 -0.866025403784439 0.0
outer loop
vertex 0.75 1.29903810567666 1.0
vertex 0.388228567653782 1.4488887394336 0.0
vertex 0.75 1.29903810567666 0.0
endloop
endfacet
facet normal -0.258819045102521 -0.965925826289068 0.0
outer loop
vertex 0.388228567653782 1.4488887394336 0.0
vertex 0.75 1.29903810567666 1.0
vertex 0.388228567653782 1.4488887394336 1.0
endloop
endfacet
facet normal -0.258819045102521 -0.965925826289068 0.0
outer loop
vertex 0.388228567653782 1.4488887394336 1.0
vertex 4.24915417323599e-016 1.5 0.0
vertex 0.388228567653782 1.4488887394336 0.0
endloop
endfacet
facet normal -2.40599967182466e-016 -1.0 0.0
outer loop
vertex 4.24915417323599e-016 1.5 0.0
vertex 0.388228567653782 1.4488887394336 1.0
vertex 4.24915417323599e-016 1.5 1.0
endloop
endfacet
facet normal -2.40599967182466e-016 -1.0 0.0
outer loop
vertex 4.24915417323599e-016 1.5 1.0
vertex -0.388228567653781 1.4488887394336 0.0
vertex 4.24915417323599e-016 1.5 0.0
endloop
endfacet
facet normal 0.258819045102521 -0.965925826289068 0.0
outer loop
vertex -0.388228567653781 1.4488887394336 0.0
vertex 4.24915417323599e-016 1.5 1.0
vertex -0.388228567653781 1.4488887394336 1.0
endloop
endfacet
facet normal 0.258819045102521 -0.965925826289068 0.0
outer loop
vertex -0.388228567653781 1.4488887394336 1.0
vertex -0.75 1.29903810567666 0.0
vertex -0.388228567653781 1.4488887394336 0.0
endloop
endfacet
facet normal 0.5 -0.866025403784439 0.0
outer loop
vertex -0.75 1.29903810567666 0.0
vertex -0.388228567653781 1.4488887394336 1.0
vertex -0.75 1.29903810567666 1.0
endloop
endfacet
facet normal 0.5 -0.866025403784439 0.0
outer loop
vertex -0.75 1.29903810567666 1.0
vertex -1.06066017177982 1.06066017177982 0.0
vertex -0.75 1.29903810567666 0.0
endloop
endfacet
facet normal 0.707106781186547 -0.707106781186548 0.0
outer loop
vertex -1.06066017177982 1.06066017177982 0.0
vertex -0.75 1.29903810567666 1.0
vertex -1.06066017177982 1.06066017177982 1.0
endloop
endfacet
facet normal 0.707106781186547 -0.707106781186548 0.0
outer loop
vertex -1.06066017177982 1.06066017177982 0.0
vertex -1.29903810567666 0.75 1.0
vertex -1.29903810567666 0.75 0.0
endloop
endfacet
facet normal 0.866025403784439 -0.5 0.0
outer loop
vertex -1.29903810567666 0.75 1.0
vertex -1.06066017177982 1.06066017177982 0.0
vertex -1.06066017177982 1.06066017177982 1.0
endloop
endfacet
facet normal 0.866025403784439 -0.5 0.0
outer loop
vertex -1.29903810567666 0.75 0.0
vertex -1.4488887394336 0.388228567653781 1.0
vertex -1.4488887394336 0.388228567653781 0.0
endloop
endfacet
facet normal 0.965925826289068 -0.258819045102521 0.0
outer loop
vertex -1.4488887394336 0.388228567653781 1.0
vertex -1.29903810567666 0.75 0.0
vertex -1.29903810567666 0.75 1.0
endloop
endfacet
facet normal 0.965925826289068 -0.258819045102521 0.0
outer loop
vertex -1.4488887394336 0.388228567653781 0.0
vertex -1.5 -4.82436794902991e-016 1.0
vertex -1.5 -4.82436794902991e-016 0.0
endloop
endfacet
facet normal 1.0 2.22777747391173e-016 0.0
outer loop
vertex -1.5 -4.82436794902991e-016 1.0
vertex -1.4488887394336 0.388228567653781 0.0
vertex -1.4488887394336 0.388228567653781 1.0
endloop
endfacet
facet normal 1.0 2.22777747391173e-016 0.0
outer loop
vertex -1.5 -4.82436794902991e-016 0.0
vertex -1.4488887394336 -0.388228567653782 1.0
vertex -1.4488887394336 -0.388228567653782 0.0
endloop
endfacet
facet normal 0.965925826289068 0.258819045102521 0.0
outer loop
vertex -1.4488887394336 -0.388228567653782 1.0
vertex -1.5 -4.82436794902991e-016 0.0
vertex -1.5 -4.82436794902991e-016 1.0
endloop
endfacet
facet normal 0.965925826289068 0.258819045102521 0.0
outer loop
vertex -1.4488887394336 -0.388228567653782 0.0
vertex -1.29903810567666 -0.750000000000001 1.0
vertex -1.29903810567666 -0.750000000000001 0.0
endloop
endfacet
facet normal 0.866025403784438 0.500000000000001 0.0
outer loop
vertex -1.29903810567666 -0.750000000000001 1.0
vertex -1.4488887394336 -0.388228567653782 0.0
vertex -1.4488887394336 -0.388228567653782 1.0
endloop
endfacet
facet normal 0.866025403784438 0.500000000000001 0.0
outer loop
vertex -1.29903810567666 -0.750000000000001 0.0
vertex -1.06066017177982 -1.06066017177982 1.0
vertex -1.06066017177982 -1.06066017177982 0.0
endloop
endfacet
facet normal 0.707106781186547 0.707106781186548 0.0
outer loop
vertex -1.06066017177982 -1.06066017177982 1.0
vertex -1.29903810567666 -0.750000000000001 0.0
vertex -1.29903810567666 -0.750000000000001 1.0
endloop
endfacet
facet normal 0.707106781186547 0.707106781186548 0.0
outer loop
vertex -1.06066017177982 -1.06066017177982 1.0
vertex -0.75 -1.29903810567666 0.0
vertex -1.06066017177982 -1.06066017177982 0.0
endloop
endfacet
facet normal 0.5 0.866025403784439 0.0
outer loop
vertex -0.75 -1.29903810567666 0.0
vertex -1.06066017177982 -1.06066017177982 1.0
vertex -0.75 -1.29903810567666 1.0
endloop
endfacet
facet normal 0.5 0.866025403784439 0.0
outer loop
vertex -0.75 -1.29903810567666 1.0
vertex -0.388228567653781 -1.4488887394336 0.0
vertex -0.75 -1.29903810567666 0.0
endloop
endfacet
facet normal 0.258819045102521 0.965925826289068 0.0
outer loop
vertex -0.388228567653781 -1.4488887394336 0.0
vertex -0.75 -1.29903810567666 1.0
vertex -0.388228567653781 -1.4488887394336 1.0
endloop
endfacet
facet normal 0.258819045102521 0.965925826289068 0.0
outer loop
vertex -0.388228567653781 -1.4488887394336 1.0
vertex -2.75545529808154e-016 -1.5 0.0
vertex -0.388228567653781 -1.4488887394336 0.0
endloop
endfacet
facet normal 0.0 1.0 0.0
outer loop
vertex -2.75545529808154e-016 -1.5 0.0
vertex -0.388228567653781 -1.4488887394336 1.0
vertex -2.75545529808154e-016 -1.5 1.0
endloop
endfacet
facet normal 0.0 1.0 0.0
outer loop
vertex -2.75545529808154e-016 -1.5 1.0
vertex 0.388228567653781 -1.4488887394336 0.0
vertex -2.75545529808154e-016 -1.5 0.0
endloop
endfacet
facet normal -0.25881904510252 0.965925826289068 0.0
outer loop
vertex 0.388228567653781 -1.4488887394336 0.0
vertex -2.75545529808154e-016 -1.5 1.0
vertex 0.388228567653781 -1.4488887394336 1.0
endloop
endfacet
facet normal -0.25881904510252 0.965925826289068 0.0
outer loop
vertex 0.388228567653781 -1.4488887394336 1.0
vertex 0.749999999999999 -1.29903810567666 0.0
vertex 0.388228567653781 -1.4488887394336 0.0
endloop
endfacet
facet normal -0.499999999999999 0.866025403784439 0.0
outer loop
vertex 0.749999999999999 -1.29903810567666 0.0
vertex 0.388228567653781 -1.4488887394336 1.0
vertex 0.749999999999999 -1.29903810567666 1.0
endloop
endfacet
facet normal -0.499999999999999 0.866025403784439 0.0
outer loop
vertex 0.749999999999999 -1.29903810567666 1.0
vertex 1.06066017177982 -1.06066017177982 0.0
vertex 0.749999999999999 -1.29903810567666 0.0
endloop
endfacet
facet normal -0.707106781186547 0.707106781186548 0.0
outer loop
vertex 1.06066017177982 -1.06066017177982 0.0
vertex 0.749999999999999 -1.29903810567666 1.0
vertex 1.06066017177982 -1.06066017177982 1.0
endloop
endfacet
facet normal -0.866025403784438 0.500000000000001 0.0
outer loop
vertex 1.29903810567666 -0.750000000000002 1.0
vertex 1.06066017177982 -1.06066017177982 0.0
vertex 1.06066017177982 -1.06066017177982 1.0
endloop
endfacet
facet normal -0.707106781186547 0.707106781186548 0.0
outer loop
vertex 1.06066017177982 -1.06066017177982 0.0
vertex 1.29903810567666 -0.750000000000002 1.0
vertex 1.29903810567666 -0.750000000000002 0.0
endloop
endfacet
facet normal -0.965925826289068 0.258819045102522 0.0
outer loop
vertex 1.4488887394336 -0.388228567653784 1.0
vertex 1.29903810567666 -0.750000000000002 0.0
vertex 1.29903810567666 -0.750000000000002 1.0
endloop
endfacet
facet normal -0.866025403784438 0.500000000000001 0.0
outer loop
vertex 1.29903810567666 -0.750000000000002 0.0
vertex 1.4488887394336 -0.388228567653784 1.0
vertex 1.4488887394336 -0.388228567653784 0.0
endloop
endfacet
facet normal -1.0 1.48815535257303e-015 0.0
outer loop
vertex 1.5 -3.03192929884458e-015 1.0
vertex 1.4488887394336 -0.388228567653784 0.0
vertex 1.4488887394336 -0.388228567653784 1.0
endloop
endfacet
facet normal -0.965925826289068 0.258819045102522 0.0
outer loop
vertex 1.4488887394336 -0.388228567653784 0.0
vertex 1.5 -3.03192929884458e-015 1.0
vertex 1.5 -3.03192929884458e-015 0.0
endloop
endfacet
facet normal 0.0 0.0 1.0
outer loop
vertex -2.8977774788672 -0.776457135307563 1.0
vertex -2.8977774788672 0.776457135307562 1.0
vertex -3.0 -1.83697019872103e-016 1.0
endloop
endfacet
facet normal 0.0 0.0 1.0
outer loop
vertex -2.8977774788672 0.776457135307562 1.0
vertex -2.8977774788672 -0.776457135307563 1.0
vertex -2.59807621135332 1.5 1.0
endloop
endfacet
facet normal 0.0 0.0 1.0
outer loop
vertex -2.59807621135332 1.5 1.0
vertex -2.8977774788672 -0.776457135307563 1.0
vertex -2.59807621135332 -1.5 1.0
endloop
endfacet
facet normal 0.0 0.0 1.0
outer loop
vertex -2.59807621135332 1.5 1.0
vertex -2.59807621135332 -1.5 1.0
vertex -2.12132034355964 2.12132034355964 1.0
endloop
endfacet
facet normal 0.0 0.0 1.0
outer loop
vertex -2.12132034355964 2.12132034355964 1.0
vertex -2.59807621135332 -1.5 1.0
vertex -2.12132034355964 -2.12132034355964 1.0
endloop
endfacet
facet normal 0.0 0.0 1.0
outer loop
vertex -2.12132034355964 2.12132034355964 1.0
vertex -2.12132034355964 -2.12132034355964 1.0
vertex -1.5 2.59807621135332 1.0
endloop
endfacet
facet normal 0.0 0.0 1.0
outer loop
vertex -1.5 2.59807621135332 1.0
vertex -2.12132034355964 -2.12132034355964 1.0
vertex -1.5 -4.82436794902991e-016 1.0
endloop
endfacet
facet normal 0.0 0.0 1.0
outer loop
vertex -1.5 -4.82436794902991e-016 1.0
vertex -2.12132034355964 -2.12132034355964 1.0
vertex -1.5 -2.59807621135332 1.0
endloop
endfacet
facet normal 0.0 0.0 1.0
outer loop
vertex -1.5 -4.82436794902991e-016 1.0
vertex -1.5 -2.59807621135332 1.0
vertex -1.4488887394336 -0.388228567653782 1.0
endloop
endfacet
facet normal 0.0 0.0 1.0
outer loop
vertex -1.4488887394336 -0.388228567653782 1.0
vertex -1.5 -2.59807621135332 1.0
vertex -0.776457135307562 -2.8977774788672 1.0
endloop
endfacet
facet normal 0.0 0.0 1.0
outer loop
vertex -1.4488887394336 -0.388228567653782 1.0
vertex -0.776457135307562 -2.8977774788672 1.0
vertex -1.29903810567666 -0.750000000000001 1.0
endloop
endfacet
facet normal 0.0 0.0 1.0
outer loop
vertex -1.29903810567666 -0.750000000000001 1.0
vertex -0.776457135307562 -2.8977774788672 1.0
vertex -1.06066017177982 -1.06066017177982 1.0
endloop
endfacet
facet normal 0.0 0.0 1.0
outer loop
vertex -1.06066017177982 -1.06066017177982 1.0
vertex -0.776457135307562 -2.8977774788672 1.0
vertex -0.75 -1.29903810567666 1.0
endloop
endfacet
facet normal 0.0 0.0 1.0
outer loop
vertex -0.75 -1.29903810567666 1.0
vertex -0.776457135307562 -2.8977774788672 1.0
vertex 0.0 -3.0 1.0
endloop
endfacet
facet normal 0.0 0.0 1.0
outer loop
vertex -0.75 -1.29903810567666 1.0
vertex 0.0 -3.0 1.0
vertex -0.388228567653781 -1.4488887394336 1.0
endloop
endfacet
facet normal 0.0 0.0 1.0
outer loop
vertex -0.388228567653781 -1.4488887394336 1.0
vertex 0.0 -3.0 1.0
vertex -2.75545529808154e-016 -1.5 1.0
endloop
endfacet
facet normal 0.0 0.0 1.0
outer loop
vertex -2.75545529808154e-016 -1.5 1.0
vertex 0.0 -3.0 1.0
vertex 0.388228567653781 -1.4488887394336 1.0
endloop
endfacet
facet normal 0.0 0.0 1.0
outer loop
vertex 0.388228567653781 -1.4488887394336 1.0
vertex 0.0 -3.0 1.0
vertex 0.776457135307565 -2.8977774788672 1.0
endloop
endfacet
facet normal 0.0 0.0 1.0
outer loop
vertex 0.388228567653781 -1.4488887394336 1.0
vertex 0.776457135307565 -2.8977774788672 1.0
vertex 0.749999999999999 -1.29903810567666 1.0
endloop
endfacet
facet normal 0.0 0.0 1.0
outer loop
vertex 0.749999999999999 -1.29903810567666 1.0
vertex 0.776457135307565 -2.8977774788672 1.0
vertex 1.06066017177982 -1.06066017177982 1.0
endloop
endfacet
facet normal 0.0 0.0 1.0
outer loop
vertex 1.06066017177982 -1.06066017177982 1.0
vertex 0.776457135307565 -2.8977774788672 1.0
vertex 1.5 -2.59807621135331 1.0
endloop
endfacet
facet normal 0.0 0.0 1.0
outer loop
vertex 1.06066017177982 -1.06066017177982 1.0
vertex 1.5 -2.59807621135331 1.0
vertex 1.29903810567666 -0.750000000000002 1.0
endloop
endfacet
facet normal 0.0 0.0 1.0
outer loop
vertex 1.29903810567666 -0.750000000000002 1.0
vertex 1.5 -2.59807621135331 1.0
vertex 1.4488887394336 -0.388228567653784 1.0
endloop
endfacet
facet normal 0.0 0.0 1.0
outer loop
vertex 1.4488887394336 -0.388228567653784 1.0
vertex 1.5 -2.59807621135331 1.0
vertex 1.5 -3.03192929884458e-015 1.0
endloop
endfacet
facet normal 0.0 0.0 1.0
outer loop
vertex -1.5 2.59807621135332 1.0
vertex -1.4488887394336 0.388228567653781 1.0
vertex -0.776457135307563 2.8977774788672 1.0
endloop
endfacet
facet normal 0.0 0.0 1.0
outer loop
vertex -1.4488887394336 0.388228567653781 1.0
vertex -1.5 2.59807621135332 1.0
vertex -1.5 -4.82436794902991e-016 1.0
endloop
endfacet
facet normal 0.0 0.0 1.0
outer loop
vertex -0.776457135307563 2.8977774788672 1.0
vertex -1.4488887394336 0.388228567653781 1.0
vertex -1.29903810567666 0.75 1.0
endloop
endfacet
facet normal 0.0 0.0 1.0
outer loop
vertex -0.776457135307563 2.8977774788672 1.0
vertex -1.29903810567666 0.75 1.0
vertex -1.06066017177982 1.06066017177982 1.0
endloop
endfacet
facet normal 0.0 0.0 1.0
outer loop
vertex -0.776457135307563 2.8977774788672 1.0
vertex -1.06066017177982 1.06066017177982 1.0
vertex -0.75 1.29903810567666 1.0
endloop
endfacet
facet normal 0.0 0.0 1.0
outer loop
vertex -0.776457135307563 2.8977774788672 1.0
vertex -0.75 1.29903810567666 1.0
vertex -3.67394039744206e-016 3.0 1.0
endloop
endfacet
facet normal 0.0 0.0 1.0
outer loop
vertex -3.67394039744206e-016 3.0 1.0
vertex -0.75 1.29903810567666 1.0
vertex -0.388228567653781 1.4488887394336 1.0
endloop
endfacet
facet normal 0.0 0.0 1.0
outer loop
vertex -3.67394039744206e-016 3.0 1.0
vertex -0.388228567653781 1.4488887394336 1.0
vertex 4.24915417323599e-016 1.5 1.0
endloop
endfacet
facet normal 0.0 0.0 1.0
outer loop
vertex -3.67394039744206e-016 3.0 1.0
vertex 4.24915417323599e-016 1.5 1.0
vertex 0.776457135307561 2.89777747886721 1.0
endloop
endfacet
facet normal 0.0 0.0 1.0
outer loop
vertex 0.776457135307561 2.89777747886721 1.0
vertex 4.24915417323599e-016 1.5 1.0
vertex 0.388228567653782 1.4488887394336 1.0
endloop
endfacet
facet normal 0.0 0.0 1.0
outer loop
vertex 0.776457135307561 2.89777747886721 1.0
vertex 0.388228567653782 1.4488887394336 1.0
vertex 0.75 1.29903810567666 1.0
endloop
endfacet
facet normal 0.0 0.0 1.0
outer loop
vertex 0.776457135307561 2.89777747886721 1.0
vertex 0.75 1.29903810567666 1.0
vertex 1.06066017177982 1.06066017177982 1.0
endloop
endfacet
facet normal 0.0 0.0 1.0
outer loop
vertex 0.776457135307561 2.89777747886721 1.0
vertex 1.06066017177982 1.06066017177982 1.0
vertex 1.5 2.59807621135332 1.0
endloop
endfacet
facet normal 0.0 0.0 1.0
outer loop
vertex 1.5 2.59807621135332 1.0
vertex 1.06066017177982 1.06066017177982 1.0
vertex 1.29903810567666 0.75 1.0
endloop
endfacet
facet normal 0.0 0.0 1.0
outer loop
vertex 1.5 2.59807621135332 1.0
vertex 1.29903810567666 0.75 1.0
vertex 1.4488887394336 0.388228567653781 1.0
endloop
endfacet
facet normal 0.0 0.0 1.0
outer loop
vertex 1.5 2.59807621135332 1.0
vertex 1.4488887394336 0.388228567653781 1.0
vertex 1.5 -3.03192929884458e-015 1.0
endloop
endfacet
facet normal 0.0 0.0 1.0
outer loop
vertex 1.5 2.59807621135332 1.0
vertex 1.5 -3.03192929884458e-015 1.0
vertex 2.12132034355964 2.12132034355964 1.0
endloop
endfacet
facet normal 0.0 0.0 1.0
outer loop
vertex 2.12132034355964 2.12132034355964 1.0
vertex 1.5 -3.03192929884458e-015 1.0
vertex 1.5 -2.59807621135331 1.0
endloop
endfacet
facet normal 0.0 0.0 1.0
outer loop
vertex 2.12132034355964 2.12132034355964 1.0
vertex 1.5 -2.59807621135331 1.0
vertex 2.12132034355964 -2.12132034355964 1.0
endloop
endfacet
facet normal 0.0 0.0 1.0
outer loop
vertex 2.12132034355964 2.12132034355964 1.0
vertex 2.12132034355964 -2.12132034355964 1.0
vertex 2.59807621135331 1.5 1.0
endloop
endfacet
facet normal 0.0 0.0 1.0
outer loop
vertex 2.59807621135331 1.5 1.0
vertex 2.12132034355964 -2.12132034355964 1.0
vertex 2.59807621135332 -1.5 1.0
endloop
endfacet
facet normal 0.0 0.0 1.0
outer loop
vertex 2.59807621135331 1.5 1.0
vertex 2.59807621135332 -1.5 1.0
vertex 2.8977774788672 0.776457135307564 1.0
endloop
endfacet
facet normal 0.0 0.0 1.0
outer loop
vertex 2.8977774788672 0.776457135307564 1.0
vertex 2.59807621135332 -1.5 1.0
vertex 2.89777747886721 -0.776457135307561 1.0
endloop
endfacet
facet normal 0.0 0.0 1.0
outer loop
vertex 2.8977774788672 0.776457135307564 1.0
vertex 2.89777747886721 -0.776457135307561 1.0
vertex 3.0 5.51091059616309e-016 1.0
endloop
endfacet
facet normal 0.707106781186547 0.707106781186548 0.0
outer loop
vertex -2.12132034355964 -2.12132034355964 2.0
vertex -1.5 -2.59807621135332 1.0
vertex -2.12132034355964 -2.12132034355964 1.0
endloop
endfacet
facet normal 0.5 0.866025403784439 0.0
outer loop
vertex -1.5 -2.59807621135332 1.0
vertex -2.12132034355964 -2.12132034355964 2.0
vertex -1.5 -2.59807621135332 2.0
endloop
endfacet
facet normal 0.5 0.866025403784439 0.0
outer loop
vertex -1.5 -2.59807621135332 2.0
vertex -0.776457135307562 -2.8977774788672 1.0
vertex -1.5 -2.59807621135332 1.0
endloop
endfacet
facet normal 0.258819045102521 0.965925826289068 0.0
outer loop
vertex -0.776457135307562 -2.8977774788672 1.0
vertex -1.5 -2.59807621135332 2.0
vertex -0.776457135307562 -2.8977774788672 2.0
endloop
endfacet
facet normal 0.258819045102521 0.965925826289068 0.0
outer loop
vertex -0.776457135307562 -2.8977774788672 2.0
vertex 0.0 -3.0 1.0
vertex -0.776457135307562 -2.8977774788672 1.0
endloop
endfacet
facet normal -2.22777747391173e-016 1.0 0.0
outer loop
vertex 0.0 -3.0 1.0
vertex -0.776457135307562 -2.8977774788672 2.0
vertex 0.0 -3.0 2.0
endloop
endfacet
facet normal -2.22777747391173e-016 1.0 0.0
outer loop
vertex 0.0 -3.0 2.0
vertex 0.776457135307565 -2.8977774788672 1.0
vertex 0.0 -3.0 1.0
endloop
endfacet
facet normal -0.258819045102521 0.965925826289068 0.0
outer loop
vertex 0.776457135307565 -2.8977774788672 1.0
vertex 0.0 -3.0 2.0
vertex 0.776457135307565 -2.8977774788672 2.0
endloop
endfacet
facet normal -0.258819045102521 0.965925826289068 0.0
outer loop
vertex 0.776457135307565 -2.8977774788672 2.0
vertex 1.5 -2.59807621135331 1.0
vertex 0.776457135307565 -2.8977774788672 1.0
endloop
endfacet
facet normal -0.500000000000001 0.866025403784438 0.0
outer loop
vertex 1.5 -2.59807621135331 1.0
vertex 0.776457135307565 -2.8977774788672 2.0
vertex 1.5 -2.59807621135331 2.0
endloop
endfacet
facet normal -0.500000000000001 0.866025403784438 0.0
outer loop
vertex 1.5 -2.59807621135331 2.0
vertex 2.12132034355964 -2.12132034355964 1.0
vertex 1.5 -2.59807621135331 1.0
endloop
endfacet
facet normal -0.707106781186548 0.707106781186547 0.0
outer loop
vertex 2.12132034355964 -2.12132034355964 1.0
vertex 1.5 -2.59807621135331 2.0
vertex 2.12132034355964 -2.12132034355964 2.0
endloop
endfacet
facet normal -0.866025403784439 0.5 0.0
outer loop
vertex 2.59807621135332 -1.5 2.0
vertex 2.12132034355964 -2.12132034355964 1.0
vertex 2.12132034355964 -2.12132034355964 2.0
endloop
endfacet
facet normal -0.707106781186548 0.707106781186547 0.0
outer loop
vertex 2.12132034355964 -2.12132034355964 1.0
vertex 2.59807621135332 -1.5 2.0
vertex 2.59807621135332 -1.5 1.0
endloop
endfacet
facet normal -0.965925826289069 0.25881904510252 0.0
outer loop
vertex 2.89777747886721 -0.776457135307561 2.0
vertex 2.59807621135332 -1.5 1.0
vertex 2.59807621135332 -1.5 2.0
endloop
endfacet
facet normal -0.866025403784439 0.5 0.0
outer loop
vertex 2.59807621135332 -1.5 1.0
vertex 2.89777747886721 -0.776457135307561 2.0
vertex 2.89777747886721 -0.776457135307561 1.0
endloop
endfacet
facet normal -1.0 -4.45555494782345e-016 0.0
outer loop
vertex 3.0 5.51091059616309e-016 2.0
vertex 2.89777747886721 -0.776457135307561 1.0
vertex 2.89777747886721 -0.776457135307561 2.0
endloop
endfacet
facet normal -0.965925826289069 0.25881904510252 0.0
outer loop
vertex 2.89777747886721 -0.776457135307561 1.0
vertex 3.0 5.51091059616309e-016 2.0
vertex 3.0 5.51091059616309e-016 1.0
endloop
endfacet
facet normal -0.965925826289068 -0.258819045102521 0.0
outer loop
vertex 2.8977774788672 0.776457135307564 2.0
vertex 3.0 5.51091059616309e-016 1.0
vertex 3.0 5.51091059616309e-016 2.0
endloop
endfacet
facet normal -1.0 -4.45555494782345e-016 0.0
outer loop
vertex 3.0 5.51091059616309e-016 1.0
vertex 2.8977774788672 0.776457135307564 2.0
vertex 2.8977774788672 0.776457135307564 1.0
endloop
endfacet
facet normal -0.866025403784438 -0.500000000000001 0.0
outer loop
vertex 2.59807621135331 1.5 2.0
vertex 2.8977774788672 0.776457135307564 1.0
vertex 2.8977774788672 0.776457135307564 2.0
endloop
endfacet
facet normal -0.965925826289068 -0.258819045102521 0.0
outer loop
vertex 2.8977774788672 0.776457135307564 1.0
vertex 2.59807621135331 1.5 2.0
vertex 2.59807621135331 1.5 1.0
endloop
endfacet
facet normal -0.707106781186547 -0.707106781186548 0.0
outer loop
vertex 2.12132034355964 2.12132034355964 2.0
vertex 2.59807621135331 1.5 1.0
vertex 2.59807621135331 1.5 2.0
endloop
endfacet
facet normal -0.866025403784438 -0.500000000000001 0.0
outer loop
vertex 2.59807621135331 1.5 1.0
vertex 2.12132034355964 2.12132034355964 2.0
vertex 2.12132034355964 2.12132034355964 1.0
endloop
endfacet
facet normal -0.707106781186547 -0.707106781186548 0.0
outer loop
vertex 2.12132034355964 2.12132034355964 2.0
vertex 1.5 2.59807621135332 1.0
vertex 2.12132034355964 2.12132034355964 1.0
endloop
endfacet
facet normal -0.5 -0.866025403784439 0.0
outer loop
vertex 1.5 2.59807621135332 1.0
vertex 2.12132034355964 2.12132034355964 2.0
vertex 1.5 2.59807621135332 2.0
endloop
endfacet
facet normal -0.5 -0.866025403784439 0.0
outer loop
vertex 1.5 2.59807621135332 2.0
vertex 0.776457135307561 2.89777747886721 1.0
vertex 1.5 2.59807621135332 1.0
endloop
endfacet
facet normal -0.25881904510252 -0.965925826289068 0.0
outer loop
vertex 0.776457135307561 2.89777747886721 1.0
vertex 1.5 2.59807621135332 2.0
vertex 0.776457135307561 2.89777747886721 2.0
endloop
endfacet
facet normal -0.25881904510252 -0.965925826289068 0.0
outer loop
vertex 0.776457135307561 2.89777747886721 2.0
vertex -3.67394039744206e-016 3.0 1.0
vertex 0.776457135307561 2.89777747886721 1.0
endloop
endfacet
facet normal 3.47533285930229e-016 -1.0 0.0
outer loop
vertex -3.67394039744206e-016 3.0 1.0
vertex 0.776457135307561 2.89777747886721 2.0
vertex -3.67394039744206e-016 3.0 2.0
endloop
endfacet
facet normal 3.47533285930229e-016 -1.0 0.0
outer loop
vertex -3.67394039744206e-016 3.0 2.0
vertex -0.776457135307563 2.8977774788672 1.0
vertex -3.67394039744206e-016 3.0 1.0
endloop
endfacet
facet normal 0.258819045102521 -0.965925826289068 0.0
outer loop
vertex -0.776457135307563 2.8977774788672 1.0
vertex -3.67394039744206e-016 3.0 2.0
vertex -0.776457135307563 2.8977774788672 2.0
endloop
endfacet
facet normal 0.258819045102521 -0.965925826289068 0.0
outer loop
vertex -0.776457135307563 2.8977774788672 2.0
vertex -1.5 2.59807621135332 1.0
vertex -0.776457135307563 2.8977774788672 1.0
endloop
endfacet
facet normal 0.5 -0.866025403784438 0.0
outer loop
vertex -1.5 2.59807621135332 1.0
vertex -0.776457135307563 2.8977774788672 2.0
vertex -1.5 2.59807621135332 2.0
endloop
endfacet
facet normal 0.5 -0.866025403784438 0.0
outer loop
vertex -1.5 2.59807621135332 2.0
vertex -2.12132034355964 2.12132034355964 1.0
vertex -1.5 2.59807621135332 1.0
endloop
endfacet
facet normal 0.707106781186548 -0.707106781186547 0.0
outer loop
vertex -2.12132034355964 2.12132034355964 1.0
vertex -1.5 2.59807621135332 2.0
vertex -2.12132034355964 2.12132034355964 2.0
endloop
endfacet
facet normal 0.707106781186548 -0.707106781186547 0.0
outer loop
vertex -2.12132034355964 2.12132034355964 1.0
vertex -2.59807621135332 1.5 2.0
vertex -2.59807621135332 1.5 1.0
endloop
endfacet
facet normal 0.866025403784439 -0.5 0.0
outer loop
vertex -2.59807621135332 1.5 2.0
vertex -2.12132034355964 2.12132034355964 1.0
vertex -2.12132034355964 2.12132034355964 2.0
endloop
endfacet
facet normal 0.866025403784439 -0.5 0.0
outer loop
vertex -2.59807621135332 1.5 1.0
vertex -2.8977774788672 0.776457135307562 2.0
vertex -2.8977774788672 0.776457135307562 1.0
endloop
endfacet
facet normal 0.965925826289068 -0.258819045102521 0.0
outer loop
vertex -2.8977774788672 0.776457135307562 2.0
vertex -2.59807621135332 1.5 1.0
vertex -2.59807621135332 1.5 2.0
endloop
endfacet
facet normal 0.965925826289068 -0.258819045102521 0.0
outer loop
vertex -2.8977774788672 0.776457135307562 1.0
vertex -3.0 -1.83697019872103e-016 2.0
vertex -3.0 -1.83697019872103e-016 1.0
endloop
endfacet
facet normal 1.0 1.78222197912938e-016 0.0
outer loop
vertex -3.0 -1.83697019872103e-016 2.0
vertex -2.8977774788672 0.776457135307562 1.0
vertex -2.8977774788672 0.776457135307562 2.0
endloop
endfacet
facet normal 1.0 1.78222197912938e-016 0.0
outer loop
vertex -3.0 -1.83697019872103e-016 1.0
vertex -2.8977774788672 -0.776457135307563 2.0
vertex -2.8977774788672 -0.776457135307563 1.0
endloop
endfacet
facet normal 0.965925826289068 0.258819045102521 0.0
outer loop
vertex -2.8977774788672 -0.776457135307563 2.0
vertex -3.0 -1.83697019872103e-016 1.0
vertex -3.0 -1.83697019872103e-016 2.0
endloop
endfacet
facet normal 0.965925826289068 0.258819045102521 0.0
outer loop
vertex -2.8977774788672 -0.776457135307563 1.0
vertex -2.59807621135332 -1.5 2.0
vertex -2.59807621135332 -1.5 1.0
endloop
endfacet
facet normal 0.866025403784439 0.5 0.0
outer loop
vertex -2.59807621135332 -1.5 2.0
vertex -2.8977774788672 -0.776457135307563 1.0
vertex -2.8977774788672 -0.776457135307563 2.0
endloop
endfacet
facet normal 0.866025403784439 0.5 0.0
outer loop
vertex -2.59807621135332 -1.5 1.0
vertex -2.12132034355964 -2.12132034355964 2.0
vertex -2.12132034355964 -2.12132034355964 1.0
endloop
endfacet
facet normal 0.707106781186547 0.707106781186548 0.0
outer loop
vertex -2.12132034355964 -2.12132034355964 2.0
vertex -2.59807621135332 -1.5 1.0
vertex -2.59807621135332 -1.5 2.0
endloop
endfacet
endsolid hinge-washer
