solid size-display-7-in
facet normal -0.99874263935002 -2.8947154766089e-016 0.0501312312252134
outer loop
vertex 0.528432010135456 -20.2999999999999 10.527720297727
vertex -1.12798659301916e-014 -1.40998324127395e-014 5.63993296509579e-015
vertex 0.0 -20.3 0.0
endloop
endfacet
facet normal -0.99874263935002 -2.8947154766089e-016 0.0501312312252134
outer loop
vertex -1.12798659301916e-014 -1.40998324127395e-014 5.63993296509579e-015
vertex 0.528432010135456 -20.2999999999999 10.527720297727
vertex 0.528432010135456 -1.40998324127395e-014 10.5277202977271
endloop
endfacet
facet normal 8.22719966764084e-012 -0.999999999748318 2.24357777267167e-005
outer loop
vertex 19.7999999871214 -17.4000000012856 -6.3499953981383e-005
vertex 2.89999812130313 -17.4000224357777 -0.999999999746551
vertex 19.7999981084245 -17.4000224370633 -1.00006349970053
endloop
endfacet
facet normal 8.22719966764084e-012 -0.999999999748318 2.24357777267167e-005
outer loop
vertex 2.89999812130313 -17.4000224357777 -0.999999999746551
vertex 19.7999999871214 -17.4000000012856 -6.3499953981383e-005
vertex 2.9 -17.4 5.63993296509579e-015
endloop
endfacet
facet normal -0.999999999998235 4.62636719940023e-011 1.87869686469996e-006
outer loop
vertex 2.9 -17.4 5.63993296509579e-015
vertex 2.89999812130313 -2.90002243577772 -1.0003570685007
vertex 2.89999812130313 -17.4000224357777 -0.999999999746551
endloop
endfacet
facet normal -0.999999999998235 4.62636719940023e-011 1.87869686469996e-006
outer loop
vertex 2.89999812130313 -2.90002243577772 -1.0003570685007
vertex 2.9 -17.4 5.63993296509579e-015
vertex 2.9 -2.89999999999999 -0.000357068754144763
endloop
endfacet
facet normal 0.999999999998235 -3.80363299907026e-011 -1.87869686629454e-006
outer loop
vertex 19.7999981084245 -2.90002243577772 -1.0003570685007
vertex 19.7999999871214 -17.4000000012856 -6.3499953981383e-005
vertex 19.7999981084245 -17.4000224370633 -1.00006349970053
endloop
endfacet
facet normal 0.999999999998235 -3.80363299907026e-011 -1.87869686629454e-006
outer loop
vertex 19.7999999871214 -17.4000000012856 -6.3499953981383e-005
vertex 19.7999981084245 -2.90002243577772 -1.0003570685007
vertex 19.7999999871214 -2.89999999999999 -0.000357068754144763
endloop
endfacet
facet normal 3.92066063472233e-023 0.999999999748318 -2.24357777295521e-005
outer loop
vertex 2.9 -2.89999999999999 -0.000357068754144763
vertex 19.7999981084245 -2.90002243577772 -1.0003570685007
vertex 2.89999812130313 -2.90002243577772 -1.0003570685007
endloop
endfacet
facet normal 3.92066063472233e-023 0.999999999748318 -2.24357777295521e-005
outer loop
vertex 19.7999981084245 -2.90002243577772 -1.0003570685007
vertex 2.9 -2.89999999999999 -0.000357068754144763
vertex 19.7999999871214 -2.89999999999999 -0.000357068754144763
endloop
endfacet
facet normal -1.80337915318706e-005 -2.02461241400413e-005 -0.999999999632438
outer loop
vertex -1.12798659301916e-014 -1.40998324127395e-014 5.63993296509579e-015
vertex 2.9 -2.89999999999999 -0.000357068754144763
vertex 0.0 -20.3 0.0
endloop
endfacet
facet normal -1.80337915318706e-005 -2.02461241400413e-005 -0.999999999632438
outer loop
vertex 2.9 -2.89999999999999 -0.000357068754144763
vertex -1.12798659301916e-014 -1.40998324127395e-014 5.63993296509579e-015
vertex 22.790374840835 5.63993296509579e-015 -0.000821993006225163
endloop
endfacet
facet normal -1.80337915318706e-005 -2.02461241400413e-005 -0.999999999632438
outer loop
vertex 2.9 -2.89999999999999 -0.000357068754144763
vertex 22.790374840835 5.63993296509579e-015 -0.000821993006225163
vertex 19.7999999871214 -2.89999999999999 -0.000357068754144763
endloop
endfacet
facet normal -1.80337915318706e-005 -2.02461241400413e-005 -0.999999999632438
outer loop
vertex 19.7999999871214 -2.89999999999999 -0.000357068754144763
vertex 22.790374840835 5.63993296509579e-015 -0.000821993006225163
vertex 19.7999999871214 -17.4000000012856 -6.3499953981383e-005
endloop
endfacet
facet normal -1.80337915318706e-005 -2.02461241400413e-005 -0.999999999632438
outer loop
vertex 19.7999999871214 -17.4000000012856 -6.3499953981383e-005
vertex 22.790374840835 5.63993296509579e-015 -0.000821993006225163
vertex 22.7903545530572 -20.2999999999999 3.38395977905748e-014
endloop
endfacet
facet normal -1.80337915318706e-005 -2.02461241400413e-005 -0.999999999632438
outer loop
vertex 0.0 -20.3 0.0
vertex 2.9 -17.4 5.63993296509579e-015
vertex 22.7903545530572 -20.2999999999999 3.38395977905748e-014
endloop
endfacet
facet normal -1.80337915318706e-005 -2.02461241400413e-005 -0.999999999632438
outer loop
vertex 2.9 -17.4 5.63993296509579e-015
vertex 0.0 -20.3 0.0
vertex 2.9 -2.89999999999999 -0.000357068754144763
endloop
endfacet
facet normal -1.80337915318706e-005 -2.02461241400413e-005 -0.999999999632438
outer loop
vertex 22.7903545530572 -20.2999999999999 3.38395977905748e-014
vertex 2.9 -17.4 5.63993296509579e-015
vertex 19.7999999871214 -17.4000000012856 -6.3499953981383e-005
endloop
endfacet
facet normal -0.866025403784439 -1.66432743671558e-016 0.5
outer loop
vertex 11.0752697984558 -20.3 28.7953792062852
vertex 9.75026979845577 -11.4490381056766 26.5004118862564
vertex 0.528432010135456 -20.2999999999999 10.527720297727
endloop
endfacet
facet normal -0.866025403784439 -1.66432743671558e-016 0.5
outer loop
vertex 9.75026979845577 -11.4490381056766 26.5004118862564
vertex 11.0752697984558 -20.3 28.7953792062852
vertex 9.90559988434568 -11.2106601717798 26.7694514869618
endloop
endfacet
facet normal -0.866025403784439 -1.66432743671558e-016 0.5
outer loop
vertex 9.90559988434568 -11.2106601717798 26.7694514869618
vertex 11.0752697984558 -20.3 28.7953792062852
vertex 10.0247888512941 -10.9 26.9758928334181
endloop
endfacet
facet normal -0.866025403784439 -1.66432743671558e-016 0.5
outer loop
vertex 10.0247888512941 -10.9 26.9758928334181
vertex 11.0752697984558 -20.3 28.7953792062852
vertex 10.0997141681726 -10.5382285676538 27.1056672890248
endloop
endfacet
facet normal -0.866025403784439 -1.66432743671558e-016 0.5
outer loop
vertex 10.0997141681726 -10.5382285676538 27.1056672890248
vertex 11.0752697984558 -20.3 28.7953792062852
vertex 11.0752697984558 -2.53796983429311e-014 28.7953792062852
endloop
endfacet
facet normal -0.866025403784439 -1.66432743671558e-016 0.5
outer loop
vertex 0.528432010135456 -20.2999999999999 10.527720297727
vertex 9.75026979845577 -11.4490381056766 26.5004118862564
vertex 9.56938408228266 -11.5988887394336 26.1871086354811
endloop
endfacet
facet normal -0.866025403784439 -1.66432743671558e-016 0.5
outer loop
vertex 0.528432010135456 -20.2999999999999 10.527720297727
vertex 9.56938408228266 -11.5988887394336 26.1871086354811
vertex 9.37526979845577 -11.65 25.8508928334181
endloop
endfacet
facet normal -0.866025403784439 -1.66432743671558e-016 0.5
outer loop
vertex 10.0997141681726 -10.5382285676538 27.1056672890248
vertex 11.0752697984558 -2.53796983429311e-014 28.7953792062852
vertex 10.1252697984558 -10.15 27.1499309390948
endloop
endfacet
facet normal -0.866025403784439 -1.66432743671558e-016 0.5
outer loop
vertex 10.1252697984558 -10.15 27.1499309390948
vertex 11.0752697984558 -2.53796983429311e-014 28.7953792062852
vertex 10.0997141681726 -9.7617714323462 27.1056672890248
endloop
endfacet
facet normal -0.866025403784439 -1.66432743671558e-016 0.5
outer loop
vertex 10.0997141681726 -9.7617714323462 27.1056672890248
vertex 11.0752697984558 -2.53796983429311e-014 28.7953792062852
vertex 10.0247888512941 -9.39999999999999 26.9758928334181
endloop
endfacet
facet normal -0.866025403784439 -1.66432743671558e-016 0.5
outer loop
vertex 10.0247888512941 -9.39999999999999 26.9758928334181
vertex 11.0752697984558 -2.53796983429311e-014 28.7953792062852
vertex 9.90559988434568 -9.08933982822016 26.7694514869618
endloop
endfacet
facet normal -0.866025403784439 -1.66432743671558e-016 0.5
outer loop
vertex 9.90559988434568 -9.08933982822016 26.7694514869618
vertex 11.0752697984558 -2.53796983429311e-014 28.7953792062852
vertex 9.75026979845577 -8.85096189432333 26.5004118862564
endloop
endfacet
facet normal -0.866025403784439 -1.66432743671558e-016 0.5
outer loop
vertex 9.75026979845577 -8.85096189432333 26.5004118862564
vertex 11.0752697984558 -2.53796983429311e-014 28.7953792062852
vertex 9.56938408228266 -8.70111126056638 26.1871086354811
endloop
endfacet
facet normal -0.866025403784439 -1.66432743671558e-016 0.5
outer loop
vertex 9.56938408228266 -8.70111126056638 26.1871086354811
vertex 11.0752697984558 -2.53796983429311e-014 28.7953792062852
vertex 9.37526979845577 -8.64999999999999 25.8508928334181
endloop
endfacet
facet normal -0.866025403784439 -1.66432743671558e-016 0.5
outer loop
vertex 0.528432010135456 -20.2999999999999 10.527720297727
vertex 9.00026979845577 -11.4490381056766 25.2013737805798
vertex 0.528432010135456 -1.40998324127395e-014 10.5277202977271
endloop
endfacet
facet normal -0.866025403784439 -1.66432743671558e-016 0.5
outer loop
vertex 9.00026979845577 -11.4490381056766 25.2013737805798
vertex 0.528432010135456 -20.2999999999999 10.527720297727
vertex 9.18115551462888 -11.5988887394336 25.5146770313551
endloop
endfacet
facet normal -0.866025403784439 -1.66432743671558e-016 0.5
outer loop
vertex 9.18115551462888 -11.5988887394336 25.5146770313551
vertex 0.528432010135456 -20.2999999999999 10.527720297727
vertex 9.37526979845577 -11.65 25.8508928334181
endloop
endfacet
facet normal -0.866025403784439 -1.66432743671558e-016 0.5
outer loop
vertex 0.528432010135456 -1.40998324127395e-014 10.5277202977271
vertex 9.00026979845577 -11.4490381056766 25.2013737805798
vertex 8.84493971256586 -11.2106601717798 24.9323341798744
endloop
endfacet
facet normal -0.866025403784439 -1.66432743671558e-016 0.5
outer loop
vertex 0.528432010135456 -1.40998324127395e-014 10.5277202977271
vertex 8.84493971256586 -11.2106601717798 24.9323341798744
vertex 8.72575074561744 -10.9 24.7258928334181
endloop
endfacet
facet normal -0.866025403784439 -1.66432743671558e-016 0.5
outer loop
vertex 0.528432010135456 -1.40998324127395e-014 10.5277202977271
vertex 8.72575074561744 -10.9 24.7258928334181
vertex 8.65082542873897 -10.5382285676538 24.5961183778114
endloop
endfacet
facet normal -0.866025403784439 -1.66432743671558e-016 0.5
outer loop
vertex 0.528432010135456 -1.40998324127395e-014 10.5277202977271
vertex 8.65082542873897 -10.5382285676538 24.5961183778114
vertex 8.62526979845577 -10.15 24.5518547277415
endloop
endfacet
facet normal -0.866025403784439 -1.66432743671558e-016 0.5
outer loop
vertex 0.528432010135456 -1.40998324127395e-014 10.5277202977271
vertex 8.62526979845577 -10.15 24.5518547277415
vertex 8.65082542873897 -9.7617714323462 24.5961183778114
endloop
endfacet
facet normal -0.866025403784439 -1.66432743671558e-016 0.5
outer loop
vertex 0.528432010135456 -1.40998324127395e-014 10.5277202977271
vertex 8.65082542873897 -9.7617714323462 24.5961183778114
vertex 8.72575074561744 -9.39999999999999 24.7258928334181
endloop
endfacet
facet normal -0.866025403784439 -1.66432743671558e-016 0.5
outer loop
vertex 0.528432010135456 -1.40998324127395e-014 10.5277202977271
vertex 8.72575074561744 -9.39999999999999 24.7258928334181
vertex 8.84493971256586 -9.08933982822017 24.9323341798744
endloop
endfacet
facet normal -0.866025403784439 -1.66432743671558e-016 0.5
outer loop
vertex 0.528432010135456 -1.40998324127395e-014 10.5277202977271
vertex 8.84493971256586 -9.08933982822017 24.9323341798744
vertex 9.00026979845577 -8.85096189432333 25.2013737805798
endloop
endfacet
facet normal -0.866025403784439 -1.66432743671558e-016 0.5
outer loop
vertex 0.528432010135456 -1.40998324127395e-014 10.5277202977271
vertex 9.00026979845577 -8.85096189432333 25.2013737805798
vertex 9.18115551462888 -8.70111126056638 25.5146770313551
endloop
endfacet
facet normal -0.866025403784439 -1.66432743671558e-016 0.5
outer loop
vertex 0.528432010135456 -1.40998324127395e-014 10.5277202977271
vertex 9.18115551462888 -8.70111126056638 25.5146770313551
vertex 9.37526979845577 -8.64999999999999 25.8508928334181
endloop
endfacet
facet normal -0.866025403784439 -1.66432743671558e-016 0.5
outer loop
vertex 0.528432010135456 -1.40998324127395e-014 10.5277202977271
vertex 9.37526979845577 -8.64999999999999 25.8508928334181
vertex 11.0752697984558 -2.53796983429311e-014 28.7953792062852
endloop
endfacet
facet normal 0.866025403784438 1.41722718017233e-015 -0.500000000000001
outer loop
vertex 22.6512980397874 -20.3 4.63410553824375
vertex 31.2194293716105 -1.97397653778353e-014 19.4745443308841
vertex 31.2194293716105 -20.3 19.474544330884
endloop
endfacet
facet normal 0.866025403784438 1.41722718017233e-015 -0.500000000000001
outer loop
vertex 31.2194293716105 -1.97397653778353e-014 19.4745443308841
vertex 22.6512980397874 -20.3 4.63410553824375
vertex 22.6512980397874 -1.12798659301916e-014 4.63410553824378
endloop
endfacet
facet normal 0.500000000000001 5.12919474592943e-016 0.866025403784438
outer loop
vertex 9.56379612748092 -20.3 31.9774300138541
vertex 12.9412952022402 -19.3 30.0274300138541
vertex 12.9412952022402 -1.00000000000004 30.0274300138541
endloop
endfacet
facet normal 0.500000000000001 5.12919474592943e-016 0.866025403784438
outer loop
vertex 12.9412952022402 -19.3 30.0274300138541
vertex 9.56379612748092 -20.3 31.9774300138541
vertex 31.2194293716105 -20.3 19.474544330884
endloop
endfacet
facet normal 0.500000000000001 5.12919474592943e-016 0.866025403784438
outer loop
vertex 12.9412952022402 -19.3 30.0274300138541
vertex 31.2194293716105 -20.3 19.474544330884
vertex 30.353403967826 -19.2999999999999 19.974544330884
endloop
endfacet
facet normal 0.500000000000001 5.12919474592943e-016 0.866025403784438
outer loop
vertex 30.353403967826 -19.2999999999999 19.974544330884
vertex 31.2194293716105 -20.3 19.474544330884
vertex 31.2194293716105 -1.97397653778353e-014 19.4745443308841
endloop
endfacet
facet normal 0.500000000000001 5.12919474592943e-016 0.866025403784438
outer loop
vertex 9.5637961274809 -2.53796983429311e-014 31.9774300138541
vertex 12.9412952022402 -1.00000000000004 30.0274300138541
vertex 31.2194293716105 -1.97397653778353e-014 19.4745443308841
endloop
endfacet
facet normal 0.500000000000001 5.12919474592943e-016 0.866025403784438
outer loop
vertex 12.9412952022402 -1.00000000000004 30.0274300138541
vertex 9.5637961274809 -2.53796983429311e-014 31.9774300138541
vertex 9.56379612748092 -20.3 31.9774300138541
endloop
endfacet
facet normal 0.500000000000001 5.12919474592943e-016 0.866025403784438
outer loop
vertex 31.2194293716105 -1.97397653778353e-014 19.4745443308841
vertex 12.9412952022402 -1.00000000000004 30.0274300138541
vertex 30.353403967826 -1.00000000000002 19.9745443308841
endloop
endfacet
facet normal 0.500000000000001 5.12919474592943e-016 0.866025403784438
outer loop
vertex 31.2194293716105 -1.97397653778353e-014 19.4745443308841
vertex 30.353403967826 -1.00000000000002 19.9745443308841
vertex 30.353403967826 -19.2999999999999 19.974544330884
endloop
endfacet
facet normal 0.884401911818043 1.57178608549199e-011 -0.466726106375667
outer loop
vertex 1.0000945060099 -19.2998932376535 7.39998196419159
vertex 10.2378247680815 -11.5988887394336 24.9046087534298
vertex 10.4191521711189 -11.65 25.2482070645588
endloop
endfacet
facet normal 0.884401911818043 1.57178608549199e-011 -0.466726106375667
outer loop
vertex 10.2378247680815 -11.5988887394336 24.9046087534298
vertex 1.0000945060099 -19.2998932376535 7.39998196419159
vertex 10.068854527902 -11.4490381056766 24.5844260993821
endloop
endfacet
facet normal 0.884401911818043 1.57178608549199e-011 -0.466726106375667
outer loop
vertex 10.068854527902 -11.4490381056766 24.5844260993821
vertex 1.0000945060099 -19.2998932376535 7.39998196419159
vertex 1.00009450535946 -0.999893237653576 7.39998196419159
endloop
endfacet
facet normal 0.884401911818043 1.57178608549199e-011 -0.466726106375667
outer loop
vertex 10.068854527902 -11.4490381056766 24.5844260993821
vertex 1.00009450535946 -0.999893237653576 7.39998196419159
vertex 9.92375649321214 -11.2106601717798 24.309479021162
endloop
endfacet
facet normal 0.884401911818043 1.57178608549199e-011 -0.466726106375667
outer loop
vertex 9.92375649321214 -11.2106601717798 24.309479021162
vertex 1.00009450535946 -0.999893237653576 7.39998196419159
vertex 9.81241885529015 -10.9 24.0985047077788
endloop
endfacet
facet normal 0.884401911818043 1.57178608549199e-011 -0.466726106375667
outer loop
vertex 9.81241885529015 -10.9 24.0985047077788
vertex 1.00009450535946 -0.999893237653576 7.39998196419159
vertex 9.74242909016628 -10.5382285676538 23.965880710038
endloop
endfacet
facet normal 0.884401911818043 1.57178608549199e-011 -0.466726106375667
outer loop
vertex 9.74242909016628 -10.5382285676538 23.965880710038
vertex 1.00009450535946 -0.999893237653576 7.39998196419159
vertex 9.71855688467018 -10.15 23.920645134214
endloop
endfacet
facet normal 0.884401911818043 1.57178608549199e-011 -0.466726106375667
outer loop
vertex 9.71855688467018 -10.15 23.920645134214
vertex 1.00009450535946 -0.999893237653576 7.39998196419159
vertex 9.74242909015571 -9.7617714323462 23.9658807100441
endloop
endfacet
facet normal 0.884401911818043 1.57178608549199e-011 -0.466726106375667
outer loop
vertex 9.74242909015571 -9.7617714323462 23.9658807100441
vertex 1.00009450535946 -0.999893237653576 7.39998196419159
vertex 9.81241885526972 -9.39999999999998 24.0985047077906
endloop
endfacet
facet normal 0.884401911818043 1.57178608549199e-011 -0.466726106375667
outer loop
vertex 9.81241885526972 -9.39999999999998 24.0985047077906
vertex 1.00009450535946 -0.999893237653576 7.39998196419159
vertex 9.92375649318324 -9.08933982822017 24.3094790211787
endloop
endfacet
facet normal 0.884401911818043 1.57178608549199e-011 -0.466726106375667
outer loop
vertex 9.92375649318324 -9.08933982822017 24.3094790211787
vertex 1.00009450535946 -0.999893237653576 7.39998196419159
vertex 10.0688545278666 -8.85096189432333 24.5844260994025
endloop
endfacet
facet normal 0.884401911818043 1.57178608549199e-011 -0.466726106375667
outer loop
vertex 10.0688545278666 -8.85096189432333 24.5844260994025
vertex 1.00009450535946 -0.999893237653576 7.39998196419159
vertex 10.237824768042 -8.70111126056638 24.9046087534526
endloop
endfacet
facet normal 0.884401911818043 1.57178608549199e-011 -0.466726106375667
outer loop
vertex 10.237824768042 -8.70111126056638 24.9046087534526
vertex 1.00009450535946 -0.999893237653576 7.39998196419159
vertex 10.419152171078 -8.64999999999999 25.2482070645824
endloop
endfacet
facet normal 0.884401911818043 1.57178608549199e-011 -0.466726106375667
outer loop
vertex 10.419152171078 -8.64999999999999 25.2482070645824
vertex 1.00009450535946 -0.999893237653576 7.39998196419159
vertex 12.9412952022402 -1.00000000000004 30.0274300138541
endloop
endfacet
facet normal 0.884401911818043 1.57178608549199e-011 -0.466726106375667
outer loop
vertex 12.9412952022402 -19.3 30.0274300138541
vertex 11.0258854869272 -10.9 26.3979094213505
vertex 12.9412952022402 -1.00000000000004 30.0274300138541
endloop
endfacet
facet normal 0.884401911818043 1.57178608549199e-011 -0.466726106375667
outer loop
vertex 11.0258854869272 -10.9 26.3979094213505
vertex 12.9412952022402 -19.3 30.0274300138541
vertex 10.9145478490137 -11.2106601717798 26.1869351079624
endloop
endfacet
facet normal 0.884401911818043 1.57178608549199e-011 -0.466726106375667
outer loop
vertex 10.9145478490137 -11.2106601717798 26.1869351079624
vertex 12.9412952022402 -19.3 30.0274300138541
vertex 10.7694498143303 -11.4490381056766 25.9119880297386
endloop
endfacet
facet normal 0.884401911818043 1.57178608549199e-011 -0.466726106375667
outer loop
vertex 10.7694498143303 -11.4490381056766 25.9119880297386
vertex 12.9412952022402 -19.3 30.0274300138541
vertex 10.6004795741549 -11.5988887394336 25.5918053756885
endloop
endfacet
facet normal 0.884401911818043 1.57178608549199e-011 -0.466726106375667
outer loop
vertex 10.6004795741549 -11.5988887394336 25.5918053756885
vertex 12.9412952022402 -19.3 30.0274300138541
vertex 1.0000945060099 -19.2998932376535 7.39998196419159
endloop
endfacet
facet normal 0.884401911818043 1.57178608549199e-011 -0.466726106375667
outer loop
vertex 10.6004795741549 -11.5988887394336 25.5918053756885
vertex 1.0000945060099 -19.2998932376535 7.39998196419159
vertex 10.4191521711189 -11.65 25.2482070645588
endloop
endfacet
facet normal 0.884401911818043 1.57178608549199e-011 -0.466726106375667
outer loop
vertex 12.9412952022402 -1.00000000000004 30.0274300138541
vertex 11.0258854869272 -10.9 26.3979094213505
vertex 11.0958752520412 -10.5382285676538 26.5305334190971
endloop
endfacet
facet normal 0.884401911818043 1.57178608549199e-011 -0.466726106375667
outer loop
vertex 12.9412952022402 -1.00000000000004 30.0274300138541
vertex 11.0958752520412 -10.5382285676538 26.5305334190971
vertex 11.1197474575267 -10.15 26.5757689949271
endloop
endfacet
facet normal 0.884401911818043 1.57178608549199e-011 -0.466726106375667
outer loop
vertex 12.9412952022402 -1.00000000000004 30.0274300138541
vertex 11.1197474575267 -10.15 26.5757689949271
vertex 11.0958752520306 -9.76177143234621 26.5305334191032
endloop
endfacet
facet normal 0.884401911818043 1.57178608549199e-011 -0.466726106375667
outer loop
vertex 12.9412952022402 -1.00000000000004 30.0274300138541
vertex 11.0958752520306 -9.76177143234621 26.5305334191032
vertex 11.0258854869067 -9.39999999999999 26.3979094213623
endloop
endfacet
facet normal 0.884401911818043 1.57178608549199e-011 -0.466726106375667
outer loop
vertex 12.9412952022402 -1.00000000000004 30.0274300138541
vertex 11.0258854869067 -9.39999999999999 26.3979094213623
vertex 10.9145478489848 -9.08933982822017 26.1869351079791
endloop
endfacet
facet normal 0.884401911818043 1.57178608549199e-011 -0.466726106375667
outer loop
vertex 12.9412952022402 -1.00000000000004 30.0274300138541
vertex 10.9145478489848 -9.08933982822017 26.1869351079791
vertex 10.7694498142949 -8.85096189432333 25.911988029759
endloop
endfacet
facet normal 0.884401911818043 1.57178608549199e-011 -0.466726106375667
outer loop
vertex 12.9412952022402 -1.00000000000004 30.0274300138541
vertex 10.7694498142949 -8.85096189432333 25.911988029759
vertex 10.6004795741154 -8.70111126056639 25.5918053757113
endloop
endfacet
facet normal 0.884401911818043 1.57178608549199e-011 -0.466726106375667
outer loop
vertex 12.9412952022402 -1.00000000000004 30.0274300138541
vertex 10.6004795741154 -8.70111126056639 25.5918053757113
vertex 10.419152171078 -8.64999999999999 25.2482070645824
endloop
endfacet
facet normal 1.35886446308695e-006 0.999999999987245 4.86460997995245e-006
outer loop
vertex 12.9412952022402 -19.3 30.0274300138541
vertex 21.7904500584646 -19.2998932384733 7.39998196419159
vertex 1.0000945060099 -19.2998932376535 7.39998196419159
endloop
endfacet
facet normal 1.35886446308695e-006 0.999999999987245 4.86460997995245e-006
outer loop
vertex 21.7904500584646 -19.2998932384733 7.39998196419159
vertex 12.9412952022402 -19.3 30.0274300138541
vertex 30.353403967826 -19.2999999999999 19.974544330884
endloop
endfacet
facet normal -0.826560107491918 1.21879315236355e-005 0.562848459671343
outer loop
vertex 30.353403967826 -1.00000000000002 19.9745443308841
vertex 21.7904500584646 -19.2998932384733 7.39998196419159
vertex 30.353403967826 -19.2999999999999 19.974544330884
endloop
endfacet
facet normal -0.826560107491918 1.21879315236355e-005 0.562848459671343
outer loop
vertex 21.7904500584646 -19.2998932384733 7.39998196419159
vertex 30.353403967826 -1.00000000000002 19.9745443308841
vertex 21.7904683473667 -0.999893237563971 7.39921628488748
endloop
endfacet
facet normal 0.999550102061994 1.07772653517466e-007 0.0299932236987924
outer loop
vertex 22.7903545530572 -20.2999999999999 3.38395977905748e-014
vertex 22.6512980397874 -1.12798659301916e-014 4.63410553824378
vertex 22.6512980397874 -20.3 4.63410553824375
endloop
endfacet
facet normal 0.999550102061994 1.07772653517466e-007 0.0299932236987924
outer loop
vertex 22.6512980397874 -1.12798659301916e-014 4.63410553824378
vertex 22.7903545530572 -20.2999999999999 3.38395977905748e-014
vertex 22.790374840835 5.63993296509579e-015 -0.000821993006225163
endloop
endfacet
facet normal 1.89012019803195e-005 2.13524692879687e-005 0.999999999593408
outer loop
vertex 1.0 -19.3 0.400000000000003
vertex 21.7903738413568 -0.999999999910411 0.399216286920442
vertex 0.999999999349554 -1.00000000000002 0.399981966224543
endloop
endfacet
facet normal 1.89012019803195e-005 2.13524692879687e-005 0.999999999593408
outer loop
vertex 21.7903738413568 -0.999999999910411 0.399216286920442
vertex 1.0 -19.3 0.400000000000003
vertex 21.7903555524547 -19.3000000008198 0.39997975386691
endloop
endfacet
facet normal 0.999999999875953 2.00216414921931e-011 -1.57510016540182e-005
outer loop
vertex 0.999999999349554 -1.00000000000002 0.399981966224543
vertex 1.0000945060099 -19.2998932376535 6.39999999796704
vertex 1.0 -19.3 0.400000000000003
endloop
endfacet
facet normal 0.999999999875953 2.00216414921931e-011 -1.57510016540182e-005
outer loop
vertex 1.0000945060099 -19.2998932376535 6.39999999796704
vertex 0.999999999349554 -1.00000000000002 0.399981966224543
vertex 1.00009450535946 -0.999893237653576 6.39998196419159
endloop
endfacet
facet normal -0.999999999875453 1.00005068464342e-006 1.57509838592628e-005
outer loop
vertex 21.7904500584646 -19.2998932384733 6.39997975183395
vertex 21.7903738413568 -0.999999999910411 0.399216286920442
vertex 21.7903555524547 -19.3000000008198 0.39997975386691
endloop
endfacet
facet normal -0.999999999875453 1.00005068464342e-006 1.57509838592628e-005
outer loop
vertex 21.7903738413568 -0.999999999910411 0.399216286920442
vertex 21.7904500584646 -19.2998932384733 6.39997975183395
vertex 21.7904683473667 -0.999893237563971 6.39921628488749
endloop
endfacet
facet normal 2.21041165986412e-011 0.999999999841692 -1.77937244101165e-005
outer loop
vertex 1.0 -19.3 0.400000000000003
vertex 21.7904500584646 -19.2998932384733 6.39997975183395
vertex 21.7903555524547 -19.3000000008198 0.39997975386691
endloop
endfacet
facet normal 2.21041165986412e-011 0.999999999841692 -1.77937244101165e-005
outer loop
vertex 21.7904500584646 -19.2998932384733 6.39997975183395
vertex 1.0 -19.3 0.400000000000003
vertex 1.0000945060099 -19.2998932376535 6.39999999796704
endloop
endfacet
facet normal 2.01783109440277e-005 0.836544680924651 0.547898709990733
outer loop
vertex 18.8893194407895 -7.54989323946911 17.4000177140925
vertex 21.7904683473667 -0.999893237563971 7.39921628488748
vertex 1.00009450535946 -0.999893237653576 7.39998196419159
endloop
endfacet
facet normal 0.113186142057171 0.911793580430255 0.394742148664657
outer loop
vertex 13.8907484718043 -7.54990048565545 18.8332965588232
vertex 18.8893194407895 -7.54989323946911 17.4000177140925
vertex 1.00009450535946 -0.999893237653576 7.39998196419159
endloop
endfacet
facet normal -3.2985980429769e-011 -0.836528062646586 0.547924082701928
outer loop
vertex 18.8893261395101 -12.7498932374192 17.4000147864429
vertex 1.0000945060099 -19.2998932376535 7.39998196419159
vertex 21.7904500584646 -19.2998932384733 7.39998196419159
endloop
endfacet
facet normal 0.113196202460797 -0.911798664180262 0.394727520889465
outer loop
vertex 13.8907941316366 -12.7499004836319 18.8334294944117
vertex 1.0000945060099 -19.2998932376535 7.39998196419159
vertex 18.8893261395101 -12.7498932374192 17.4000147864429
endloop
endfacet
facet normal -2.01239496235144e-005 -0.837509577354007 -0.546422645426908
outer loop
vertex 18.6136199949955 -7.54993489368263 16.4386730967796
vertex 1.00009450535946 -0.999893237653576 6.39998196419159
vertex 21.7904683473667 -0.999893237563971 6.39921628488749
endloop
endfacet
facet normal -0.113441578614198 -0.91138221004777 -0.395617840156333
outer loop
vertex 13.6150635622267 -7.54994213953921 17.8720026353215
vertex 1.00009450535946 -0.999893237653576 6.39998196419159
vertex 18.6136199949955 -7.54993489368263 16.4386730967796
endloop
endfacet
facet normal -5.32101065957398e-007 0.837499544441501 -0.546438023073061
outer loop
vertex 18.6136616825382 -12.7499348909629 16.4387921896533
vertex 21.7904500584646 -19.2998932384733 6.39997975183395
vertex 1.0000945060099 -19.2998932376535 6.39999999796704
endloop
endfacet
facet normal -0.113440619523351 0.911385798885663 -0.395609847490808
outer loop
vertex 13.6151008657459 -12.7499421371561 17.8721064392882
vertex 18.6136616825382 -12.7499348909629 16.4387921896533
vertex 1.0000945060099 -19.2998932376535 6.39999999796704
endloop
endfacet
facet normal -1.35890280897805e-006 -0.999999999987245 -4.86456961015276e-006
outer loop
vertex 30.353403967826 -1.00000000000002 19.9745443308841
vertex 1.00009450535946 -0.999893237653576 7.39998196419159
vertex 21.7904683473667 -0.999893237563971 7.39921628488748
endloop
endfacet
facet normal -1.35890280897805e-006 -0.999999999987245 -4.86456961015276e-006
outer loop
vertex 1.00009450535946 -0.999893237653576 7.39998196419159
vertex 30.353403967826 -1.00000000000002 19.9745443308841
vertex 12.9412952022402 -1.00000000000004 30.0274300138541
endloop
endfacet
facet normal 0.344344763426169 -0.430471105012788 -0.834338847022027
outer loop
vertex 14.9671528345591 -9.09945702185149 17.4843470113552
vertex 15.0580738663467 -9.34989879274927 18.4985934772325
vertex 14.7824011091408 -9.34994044704364 17.5373419340873
endloop
endfacet
facet normal 0.765374277095919 -0.337555539551077 0.547958459810852
outer loop
vertex 15.0580738663467 -9.34989879274927 18.4985934772325
vertex 14.9671528345591 -9.09945702185149 17.4843470113552
vertex 15.2428255917651 -9.09941536755709 18.4455985545006
endloop
endfacet
facet normal -0.953403406686525 -1.18996371627931e-005 -0.301698432175125
outer loop
vertex 18.6136616825382 -12.7499348909629 16.4387921896533
vertex 21.7904683473667 -0.999893237563971 6.39921628488749
vertex 21.7904500584646 -19.2998932384733 6.39997975183395
endloop
endfacet
facet normal -0.953403406686525 -1.18996371627931e-005 -0.301698432175125
outer loop
vertex 21.7904683473667 -0.999893237563971 6.39921628488749
vertex 18.6136616825382 -12.7499348909629 16.4387921896533
vertex 18.6136215232482 -7.64993489234581 16.4386779208754
endloop
endfacet
facet normal -0.953403406686525 -1.18996371627931e-005 -0.301698432175125
outer loop
vertex 21.7904683473667 -0.999893237563971 6.39921628488749
vertex 18.6136215232482 -7.64993489234581 16.4386779208754
vertex 18.6136199949955 -7.54993489368263 16.4386730967796
endloop
endfacet
facet normal 0.960403047718576 9.97901260460195e-006 0.278614403492156
outer loop
vertex 21.7904683473667 -0.999893237563971 7.39921628488748
vertex 18.8893261395101 -12.7498932374192 17.4000147864429
vertex 21.7904500584646 -19.2998932384733 7.39998196419159
endloop
endfacet
facet normal 0.960403047718576 9.97901260460195e-006 0.278614403492156
outer loop
vertex 18.8893261395101 -12.7498932374192 17.4000147864429
vertex 21.7904683473667 -0.999893237563971 7.39921628488748
vertex 18.8893194407895 -7.54989323946911 17.4000177140925
endloop
endfacet
facet normal 6.59626953063044e-010 -0.999999999841692 1.77937243993785e-005
outer loop
vertex 21.7904683473667 -0.999893237563971 6.39921628488749
vertex 0.999999999349554 -1.00000000000002 0.399981966224543
vertex 21.7903738413568 -0.999999999910411 0.399216286920442
endloop
endfacet
facet normal 6.59626953063044e-010 -0.999999999841692 1.77937243993785e-005
outer loop
vertex 0.999999999349554 -1.00000000000002 0.399981966224543
vertex 21.7904683473667 -0.999893237563971 6.39921628488749
vertex 1.00009450535946 -0.999893237653576 6.39998196419159
endloop
endfacet
facet normal -2.14575788356757e-016 1.0 6.46188859791367e-016
outer loop
vertex -1.12798659301916e-014 -1.40998324127395e-014 5.63993296509579e-015
vertex 22.6512980397874 -1.12798659301916e-014 4.63410553824378
vertex 22.790374840835 5.63993296509579e-015 -0.000821993006225163
endloop
endfacet
facet normal -2.14575788356757e-016 1.0 6.46188859791367e-016
outer loop
vertex 22.6512980397874 -1.12798659301916e-014 4.63410553824378
vertex -1.12798659301916e-014 -1.40998324127395e-014 5.63993296509579e-015
vertex 0.528432010135456 -1.40998324127395e-014 10.5277202977271
endloop
endfacet
facet normal -2.14575788356757e-016 1.0 6.46188859791367e-016
outer loop
vertex 22.6512980397874 -1.12798659301916e-014 4.63410553824378
vertex 0.528432010135456 -1.40998324127395e-014 10.5277202977271
vertex 31.2194293716105 -1.97397653778353e-014 19.4745443308841
endloop
endfacet
facet normal -2.14575788356757e-016 1.0 6.46188859791367e-016
outer loop
vertex 31.2194293716105 -1.97397653778353e-014 19.4745443308841
vertex 0.528432010135456 -1.40998324127395e-014 10.5277202977271
vertex 11.0752697984558 -2.53796983429311e-014 28.7953792062852
endloop
endfacet
facet normal -2.14575788356757e-016 1.0 6.46188859791367e-016
outer loop
vertex 31.2194293716105 -1.97397653778353e-014 19.4745443308841
vertex 11.0752697984558 -2.53796983429311e-014 28.7953792062852
vertex 9.5637961274809 -2.53796983429311e-014 31.9774300138541
endloop
endfacet
facet normal -2.14575788356757e-016 1.0 6.46188859791367e-016
outer loop
vertex 9.5637961274809 -2.53796983429311e-014 31.9774300138541
vertex 11.0752697984558 -2.53796983429311e-014 28.7953792062852
vertex 8.5637961274809 -2.53796983429311e-014 30.2453792062852
endloop
endfacet
facet normal 0.483068917835788 -0.258026515079055 0.836699909248901
outer loop
vertex 9.74242909015571 -9.7617714323462 23.9658807100441
vertex 8.72575074561744 -9.39999999999999 24.7258928334181
vertex 8.65082542873897 -9.7617714323462 24.5961183778114
endloop
endfacet
facet normal 0.46193976625564 -0.382683432365099 0.800103145191263
outer loop
vertex 8.72575074561744 -9.39999999999999 24.7258928334181
vertex 9.74242909015571 -9.7617714323462 23.9658807100441
vertex 9.81241885526972 -9.39999999999998 24.0985047077906
endloop
endfacet
facet normal 0.461939766255648 0.382683432365089 0.800103145191263
outer loop
vertex 8.72575074561744 -10.9 24.7258928334181
vertex 9.74242909016628 -10.5382285676538 23.965880710038
vertex 8.65082542873897 -10.5382285676538 24.5961183778114
endloop
endfacet
facet normal 0.461939766255648 0.382683432365089 0.800103145191263
outer loop
vertex 9.74242909016628 -10.5382285676538 23.965880710038
vertex 8.72575074561744 -10.9 24.7258928334181
vertex 9.81241885529015 -10.9 24.0985047077788
endloop
endfacet
facet normal 0.191341716182546 -0.923879532511286 0.331413574035594
outer loop
vertex 10.237824768042 -8.70111126056638 24.9046087534526
vertex 9.00026979845577 -8.85096189432333 25.2013737805798
vertex 10.0688545278666 -8.85096189432333 24.5844260994025
endloop
endfacet
facet normal 0.25 -0.866025403784437 0.433012701892223
outer loop
vertex 9.00026979845577 -8.85096189432333 25.2013737805798
vertex 10.237824768042 -8.70111126056638 24.9046087534526
vertex 9.18115551462888 -8.70111126056638 25.5146770313551
endloop
endfacet
facet normal 0.396676670145615 -0.608761429008721 0.687064146869452
outer loop
vertex 9.81241885526972 -9.39999999999998 24.0985047077906
vertex 8.84493971256586 -9.08933982822017 24.9323341798744
vertex 8.72575074561744 -9.39999999999999 24.7258928334181
endloop
endfacet
facet normal 0.396676670145615 -0.608761429008721 0.687064146869452
outer loop
vertex 8.84493971256586 -9.08933982822017 24.9323341798744
vertex 9.81241885526972 -9.39999999999998 24.0985047077906
vertex 9.92375649318324 -9.08933982822017 24.3094790211787
endloop
endfacet
facet normal 0.396676670145615 0.608761429008732 0.687064146869441
outer loop
vertex 8.84493971256586 -11.2106601717798 24.9323341798744
vertex 9.81241885529015 -10.9 24.0985047077788
vertex 8.72575074561744 -10.9 24.7258928334181
endloop
endfacet
facet normal 0.396676670145615 0.608761429008732 0.687064146869441
outer loop
vertex 9.81241885529015 -10.9 24.0985047077788
vertex 8.84493971256586 -11.2106601717798 24.9323341798744
vertex 9.92375649321214 -11.2106601717798 24.309479021162
endloop
endfacet
facet normal 0.495722430686906 -0.130526192220047 0.858616436401261
outer loop
vertex 9.71855688467018 -10.15 23.920645134214
vertex 8.65082542873897 -9.7617714323462 24.5961183778114
vertex 8.62526979845577 -10.15 24.5518547277415
endloop
endfacet
facet normal 0.482962913144534 -0.258819045102523 0.836516303737808
outer loop
vertex 8.65082542873897 -9.7617714323462 24.5961183778114
vertex 9.71855688467018 -10.15 23.920645134214
vertex 9.74242909015571 -9.7617714323462 23.9658807100441
endloop
endfacet
facet normal -0.482857231496909 -0.259606579201232 -0.836333257754691
outer loop
vertex 11.0958752520306 -9.76177143234621 26.5305334191032
vertex 10.1252697984558 -10.15 27.1499309390948
vertex 10.0997141681726 -9.7617714323462 27.1056672890248
endloop
endfacet
facet normal -0.499999999999999 -9.08933209355981e-016 -0.86602540378444
outer loop
vertex 10.1252697984558 -10.15 27.1499309390948
vertex 11.0958752520306 -9.76177143234621 26.5305334191032
vertex 11.1197474575267 -10.15 26.5757689949271
endloop
endfacet
facet normal 0.304380714504361 0.793353340291236 0.527202862365668
outer loop
vertex 8.84493971256586 -11.2106601717798 24.9323341798744
vertex 10.068854527902 -11.4490381056766 24.5844260993821
vertex 9.92375649321214 -11.2106601717798 24.309479021162
endloop
endfacet
facet normal 0.304380714504361 0.793353340291236 0.527202862365668
outer loop
vertex 10.068854527902 -11.4490381056766 24.5844260993821
vertex 8.84493971256586 -11.2106601717798 24.9323341798744
vertex 9.00026979845577 -11.4490381056766 25.2013737805798
endloop
endfacet
facet normal 0.0652630961100245 -0.991444861373811 0.113038998321813
outer loop
vertex 10.419152171078 -8.64999999999999 25.2482070645824
vertex 9.18115551462888 -8.70111126056638 25.5146770313551
vertex 10.237824768042 -8.70111126056638 24.9046087534526
endloop
endfacet
facet normal 0.0652630961100245 -0.991444861373811 0.113038998321813
outer loop
vertex 9.18115551462888 -8.70111126056638 25.5146770313551
vertex 10.419152171078 -8.64999999999999 25.2482070645824
vertex 9.37526979845577 -8.64999999999999 25.8508928334181
endloop
endfacet
facet normal -0.127936498184625 -0.966710406341538 -0.221592514998212
outer loop
vertex 10.6004795741154 -8.70111126056639 25.5918053757113
vertex 9.37526979845577 -8.64999999999999 25.8508928334181
vertex 10.419152171078 -8.64999999999999 25.2482070645824
endloop
endfacet
facet normal -0.0652630961100271 -0.99144486137381 -0.113038998321818
outer loop
vertex 9.37526979845577 -8.64999999999999 25.8508928334181
vertex 10.6004795741154 -8.70111126056639 25.5918053757113
vertex 9.56938408228266 -8.70111126056638 26.1871086354811
endloop
endfacet
facet normal 0.251185603124667 -0.86465205206001 0.435066226741758
outer loop
vertex 10.0688545278666 -8.85096189432333 24.5844260994025
vertex 8.84493971256586 -9.08933982822017 24.9323341798744
vertex 9.92375649318324 -9.08933982822017 24.3094790211787
endloop
endfacet
facet normal 0.30438071450436 -0.793353340291233 0.527202862365673
outer loop
vertex 8.84493971256586 -9.08933982822017 24.9323341798744
vertex 10.0688545278666 -8.85096189432333 24.5844260994025
vertex 9.00026979845577 -8.85096189432333 25.2013737805798
endloop
endfacet
facet normal 0.495722430686908 0.130526192220043 0.858616436401261
outer loop
vertex 8.65082542873897 -10.5382285676538 24.5961183778114
vertex 9.71855688467018 -10.15 23.920645134214
vertex 8.62526979845577 -10.15 24.5518547277415
endloop
endfacet
facet normal 0.495722430686908 0.130526192220043 0.858616436401261
outer loop
vertex 9.71855688467018 -10.15 23.920645134214
vertex 8.65082542873897 -10.5382285676538 24.5961183778114
vertex 9.74242909016628 -10.5382285676538 23.965880710038
endloop
endfacet
facet normal -0.461939766255646 -0.382683432365096 -0.800103145191261
outer loop
vertex 11.0258854869067 -9.39999999999999 26.3979094213623
vertex 10.0997141681726 -9.7617714323462 27.1056672890248
vertex 10.0247888512941 -9.39999999999999 26.9758928334181
endloop
endfacet
facet normal -0.482962913144535 -0.258819045102524 -0.836516303737807
outer loop
vertex 10.0997141681726 -9.7617714323462 27.1056672890248
vertex 11.0258854869067 -9.39999999999999 26.3979094213623
vertex 11.0958752520306 -9.76177143234621 26.5305334191032
endloop
endfacet
facet normal 0.0652630961100268 0.99144486137381 0.113038998321816
outer loop
vertex 9.18115551462888 -11.5988887394336 25.5146770313551
vertex 10.4191521711189 -11.65 25.2482070645588
vertex 10.2378247680815 -11.5988887394336 24.9046087534298
endloop
endfacet
facet normal 0.00157937925190553 0.999995011109913 0.00273556510871884
outer loop
vertex 10.4191521711189 -11.65 25.2482070645588
vertex 9.18115551462888 -11.5988887394336 25.5146770313551
vertex 9.37526979845577 -11.65 25.8508928334181
endloop
endfacet
facet normal -0.396676670145619 0.608761429008719 -0.687064146869451
outer loop
vertex 10.0247888512941 -10.9 26.9758928334181
vertex 10.9145478490137 -11.2106601717798 26.1869351079624
vertex 9.90559988434568 -11.2106601717798 26.7694514869618
endloop
endfacet
facet normal -0.396676670145619 0.608761429008719 -0.687064146869451
outer loop
vertex 10.9145478490137 -11.2106601717798 26.1869351079624
vertex 10.0247888512941 -10.9 26.9758928334181
vertex 11.0258854869272 -10.9 26.3979094213505
endloop
endfacet
facet normal 0.191341716182549 0.923879532511284 0.331413574035596
outer loop
vertex 9.00026979845577 -11.4490381056766 25.2013737805798
vertex 10.2378247680815 -11.5988887394336 24.9046087534298
vertex 10.068854527902 -11.4490381056766 24.5844260993821
endloop
endfacet
facet normal 0.191341716182549 0.923879532511284 0.331413574035596
outer loop
vertex 10.2378247680815 -11.5988887394336 24.9046087534298
vertex 9.00026979845577 -11.4490381056766 25.2013737805798
vertex 9.18115551462888 -11.5988887394336 25.5146770313551
endloop
endfacet
facet normal -0.191341716182546 0.923879532511287 -0.331413574035592
outer loop
vertex 9.56938408228266 -11.5988887394336 26.1871086354811
vertex 10.7694498143303 -11.4490381056766 25.9119880297386
vertex 10.6004795741549 -11.5988887394336 25.5918053756885
endloop
endfacet
facet normal -0.191341716182546 0.923879532511287 -0.331413574035592
outer loop
vertex 10.7694498143303 -11.4490381056766 25.9119880297386
vertex 9.56938408228266 -11.5988887394336 26.1871086354811
vertex 9.75026979845577 -11.4490381056766 26.5004118862564
endloop
endfacet
facet normal 6.77244352069165e-016 1.0 -4.99022154156227e-016
outer loop
vertex 9.37526979845577 -11.65 25.8508928334181
vertex 10.6004795741549 -11.5988887394336 25.5918053756885
vertex 10.4191521711189 -11.65 25.2482070645588
endloop
endfacet
facet normal -0.0652630961100252 0.99144486137381 -0.113038998321816
outer loop
vertex 10.6004795741549 -11.5988887394336 25.5918053756885
vertex 9.37526979845577 -11.65 25.8508928334181
vertex 9.56938408228266 -11.5988887394336 26.1871086354811
endloop
endfacet
facet normal -0.499999999999999 -9.08933209355981e-016 -0.86602540378444
outer loop
vertex 10.1252697984558 -10.15 27.1499309390948
vertex 11.0958752520412 -10.5382285676538 26.5305334190971
vertex 10.0997141681726 -10.5382285676538 27.1056672890248
endloop
endfacet
facet normal -0.495722430686904 0.130526192220049 -0.858616436401262
outer loop
vertex 11.0958752520412 -10.5382285676538 26.5305334190971
vertex 10.1252697984558 -10.15 27.1499309390948
vertex 11.1197474575267 -10.15 26.5757689949271
endloop
endfacet
facet normal -0.191341716182547 -0.923879532511286 -0.331413574035592
outer loop
vertex 10.7694498142949 -8.85096189432333 25.911988029759
vertex 9.56938408228266 -8.70111126056638 26.1871086354811
vertex 10.6004795741154 -8.70111126056639 25.5918053757113
endloop
endfacet
facet normal -0.129409522551262 -0.965925826289068 -0.224143868042015
outer loop
vertex 9.56938408228266 -8.70111126056638 26.1871086354811
vertex 10.7694498142949 -8.85096189432333 25.911988029759
vertex 9.75026979845577 -8.85096189432333 26.5004118862564
endloop
endfacet
facet normal -0.461939766255642 0.382683432365095 -0.800103145191264
outer loop
vertex 10.0997141681726 -10.5382285676538 27.1056672890248
vertex 11.0258854869272 -10.9 26.3979094213505
vertex 10.0247888512941 -10.9 26.9758928334181
endloop
endfacet
facet normal -0.461939766255642 0.382683432365095 -0.800103145191264
outer loop
vertex 11.0258854869272 -10.9 26.3979094213505
vertex 10.0997141681726 -10.5382285676538 27.1056672890248
vertex 11.0958752520412 -10.5382285676538 26.5305334190971
endloop
endfacet
facet normal -0.396676670145622 -0.608761429008711 -0.687064146869456
outer loop
vertex 10.9145478489848 -9.08933982822017 26.1869351079791
vertex 10.0247888512941 -9.39999999999999 26.9758928334181
vertex 9.90559988434568 -9.08933982822016 26.7694514869618
endloop
endfacet
facet normal -0.396676670145622 -0.608761429008711 -0.687064146869456
outer loop
vertex 10.0247888512941 -9.39999999999999 26.9758928334181
vertex 10.9145478489848 -9.08933982822017 26.1869351079791
vertex 11.0258854869067 -9.39999999999999 26.3979094213623
endloop
endfacet
facet normal -0.304380714504363 0.793353340291231 -0.527202862365673
outer loop
vertex 9.75026979845577 -11.4490381056766 26.5004118862564
vertex 10.9145478490137 -11.2106601717798 26.1869351079624
vertex 10.7694498143303 -11.4490381056766 25.9119880297386
endloop
endfacet
facet normal -0.304380714504363 0.793353340291231 -0.527202862365673
outer loop
vertex 10.9145478490137 -11.2106601717798 26.1869351079624
vertex 9.75026979845577 -11.4490381056766 26.5004118862564
vertex 9.90559988434568 -11.2106601717798 26.7694514869618
endloop
endfacet
facet normal -0.304380714504361 -0.793353340291235 -0.527202862365669
outer loop
vertex 10.9145478489848 -9.08933982822017 26.1869351079791
vertex 9.75026979845577 -8.85096189432333 26.5004118862564
vertex 10.7694498142949 -8.85096189432333 25.911988029759
endloop
endfacet
facet normal -0.304380714504361 -0.793353340291235 -0.527202862365669
outer loop
vertex 9.75026979845577 -8.85096189432333 26.5004118862564
vertex 10.9145478489848 -9.08933982822017 26.1869351079791
vertex 9.90559988434568 -9.08933982822016 26.7694514869618
endloop
endfacet
facet normal -0.500000000000001 3.5985511135372e-016 -0.866025403784438
outer loop
vertex 11.0752697984558 -2.53796983429311e-014 28.7953792062852
vertex 8.5637961274809 -20.3 30.2453792062852
vertex 8.5637961274809 -2.53796983429311e-014 30.2453792062852
endloop
endfacet
facet normal -0.500000000000001 3.5985511135372e-016 -0.866025403784438
outer loop
vertex 8.5637961274809 -20.3 30.2453792062852
vertex 11.0752697984558 -2.53796983429311e-014 28.7953792062852
vertex 11.0752697984558 -20.3 28.7953792062852
endloop
endfacet
facet normal -0.866025403784437 -5.50685248264436e-016 0.500000000000003
outer loop
vertex 9.5637961274809 -2.53796983429311e-014 31.9774300138541
vertex 8.5637961274809 -20.3 30.2453792062852
vertex 9.56379612748092 -20.3 31.9774300138541
endloop
endfacet
facet normal -0.866025403784437 -5.50685248264436e-016 0.500000000000003
outer loop
vertex 8.5637961274809 -20.3 30.2453792062852
vertex 9.5637961274809 -2.53796983429311e-014 31.9774300138541
vertex 8.5637961274809 -2.53796983429311e-014 30.2453792062852
endloop
endfacet
facet normal 1.28224635706459e-005 -0.999999999131489 3.96561032469793e-005
outer loop
vertex 16.3900128187734 -8.54989686254616 18.116578374547
vertex 15.7162764298926 -8.6044577717959 17.2694879691713
vertex 16.1143400615674 -8.54993851684051 17.1553268314016
endloop
endfacet
facet normal 0.248802592260348 -0.965925464784379 -0.0713110550028007
outer loop
vertex 15.7162764298926 -8.6044577717959 17.2694879691713
vertex 16.3900128187734 -8.54989686254616 18.116578374547
vertex 15.9919491870985 -8.60441611750153 18.2307395123166
endloop
endfacet
facet normal -1.28224635319612e-005 0.999999999131489 -3.96561032585965e-005
outer loop
vertex 16.1143810934507 -11.7499385140613 17.155453730932
vertex 16.7881174823317 -11.6953776048115 18.0025441363077
vertex 16.5124447251257 -11.6954192591059 17.0412925931622
endloop
endfacet
facet normal -0.248802592260355 0.965925464784378 0.0713110550027858
outer loop
vertex 16.7881174823317 -11.6953776048115 18.0025441363077
vertex 16.1143810934507 -11.7499385140613 17.155453730932
vertex 16.3900538506567 -11.7498968597669 18.1167052740774
endloop
endfacet
facet normal 0.928494373175696 0.258820390900712 -0.266289699829104
outer loop
vertex 14.6287695804279 -10.5640511408921 17.5814538008932
vertex 15.0580943822884 -10.9498987913596 18.4986569269978
vertex 14.7824216250824 -10.949940445654 17.5374053838525
endloop
endfacet
facet normal 0.832461845266629 0.500001206376962 -0.238759439178563
outer loop
vertex 15.0580943822884 -10.9498987913596 18.4986569269978
vertex 14.6287695804279 -10.5640511408921 17.5814538008932
vertex 14.904442337634 -10.5640094865977 18.5427053440385
endloop
endfacet
facet normal -0.679716552012687 0.707105795215262 0.194902035117584
outer loop
vertex 17.4775798179355 -11.2812661335008 17.804798568124
vertex 17.2615683204591 -11.2004200090504 16.8264335509783
vertex 17.2019070607294 -11.2813077877952 16.8435470249787
endloop
endfacet
facet normal -0.762619929083765 0.608760322937874 0.218681761884362
outer loop
vertex 17.2615683204591 -11.2004200090504 16.8264335509783
vertex 17.4775798179355 -11.2812661335008 17.804798568124
vertex 17.5372410776651 -11.200378354756 17.7876850941236
endloop
endfacet
facet normal 0.248802592260354 -0.965925464784377 -0.0713110550028021
outer loop
vertex 15.9919491870985 -8.60441611750153 18.2307395123166
vertex 15.3453415750124 -8.76429898540368 17.3758735380587
vertex 15.7162764298926 -8.6044577717959 17.2694879691713
endloop
endfacet
facet normal 0.480636876560351 -0.86602470627951 -0.137802035557526
outer loop
vertex 15.3453415750124 -8.76429898540368 17.3758735380587
vertex 15.9919491870985 -8.60441611750153 18.2307395123166
vertex 15.6210143322186 -8.7642573311093 18.3371250812041
endloop
endfacet
facet normal 0.832461845266631 0.500001206376959 -0.238759439178563
outer loop
vertex 14.7824216250824 -10.949940445654 17.5374053838525
vertex 15.3025158654176 -11.281269286644 18.4285748120188
vertex 15.0268431082117 -11.2813109409383 17.4673232688734
endloop
endfacet
facet normal 0.679698418310869 0.707107765929668 -0.194958117316662
outer loop
vertex 15.3025158654176 -11.281269286644 18.4285748120188
vertex 14.7824216250824 -10.949940445654 17.5374053838525
vertex 15.0580943822884 -10.9498987913596 18.4986569269978
endloop
endfacet
facet normal -0.832474667730212 0.499998792754519 0.238719783075254
outer loop
vertex 17.7219928030835 -10.9498949295638 17.7346901713917
vertex 17.5999621944231 -10.5640468336185 16.7293596054556
vertex 17.4463200458774 -10.9499365838582 16.7734386282463
endloop
endfacet
facet normal -0.928501010571283 0.258817698854693 0.266269172319417
outer loop
vertex 17.5999621944231 -10.5640468336185 16.7293596054556
vertex 17.7219928030835 -10.9498949295638 17.7346901713917
vertex 17.875634951629 -10.5640051793241 17.690611148601
endloop
endfacet
facet normal -0.480614667402044 -0.866026099785039 0.137870721943192
outer loop
vertex 17.1590168025583 -8.76425510150043 17.8960486692031
vertex 16.5124050913699 -8.60445661766542 17.0411700176284
vertex 16.8833440453524 -8.76429675579481 16.9347971260577
endloop
endfacet
facet normal -0.248777821162966 -0.965926186115926 0.0713876647114074
outer loop
vertex 16.5124050913699 -8.60445661766542 17.0411700176284
vertex 17.1590168025583 -8.76425510150043 17.8960486692031
vertex 16.7880778485759 -8.60441496337104 18.0024215607738
endloop
endfacet
facet normal -0.248802592260355 0.965925464784378 0.0713110550027858
outer loop
vertex 16.5124447251257 -11.6954192591059 17.0412925931622
vertex 17.1590523372116 -11.5355363912037 17.8961585674202
vertex 16.8833795800057 -11.5355780454981 16.9349070242748
endloop
endfacet
facet normal -0.480636876560373 0.866024706279504 0.13780203555749
outer loop
vertex 17.1590523372116 -11.5355363912037 17.8961585674202
vertex 16.5124447251257 -11.6954192591059 17.0412925931622
vertex 16.7881174823317 -11.6953776048115 18.0025441363077
endloop
endfacet
facet normal -0.48063687656038 0.8660247062795 0.137802035557493
outer loop
vertex 16.8833795800057 -11.5355780454981 16.9349070242748
vertex 17.4775798179355 -11.2812661335008 17.804798568124
vertex 17.2019070607294 -11.2813077877952 16.8435470249787
endloop
endfacet
facet normal -0.679716552012687 0.707105795215262 0.194902035117584
outer loop
vertex 17.4775798179355 -11.2812661335008 17.804798568124
vertex 16.8833795800057 -11.5355780454981 16.9349070242748
vertex 17.1590523372116 -11.5355363912037 17.8961585674202
endloop
endfacet
facet normal -0.679698418310886 -0.707107765929639 0.194958117316706
outer loop
vertex 17.4775508040126 -9.01852443566911 17.8047088366054
vertex 16.8833440453524 -8.76429675579481 16.9347971260577
vertex 17.2018780468065 -9.0185660899635 16.8434572934602
endloop
endfacet
facet normal -0.480614667402043 -0.866026099785039 0.137870721943192
outer loop
vertex 16.8833440453524 -8.76429675579481 16.9347971260577
vertex 17.4775508040126 -9.01852443566911 17.8047088366054
vertex 17.1590168025583 -8.76425510150043 17.8960486692031
endloop
endfacet
facet normal -0.762619929083775 0.608760322937868 0.218681761884345
outer loop
vertex 17.5372410776651 -11.200378354756 17.7876850941236
vertex 17.4463200458774 -10.9499365838582 16.7734386282463
vertex 17.2615683204591 -11.2004200090504 16.8264335509783
endloop
endfacet
facet normal -0.832474667730212 0.499998792754519 0.238719783075254
outer loop
vertex 17.4463200458774 -10.9499365838582 16.7734386282463
vertex 17.5372410776651 -11.200378354756 17.7876850941236
vertex 17.7219928030835 -10.9498949295638 17.7346901713917
endloop
endfacet
facet normal 0.679698418310873 0.707107765929664 -0.194958117316663
outer loop
vertex 15.0268431082117 -11.2813109409383 17.4673232688734
vertex 15.6210498668719 -11.5355386208126 18.3372349794213
vertex 15.3453771096659 -11.535580275107 17.3759834362759
endloop
endfacet
facet normal 0.480614667401983 0.866026099785074 -0.137870721943185
outer loop
vertex 15.6210498668719 -11.5355386208126 18.3372349794213
vertex 15.0268431082117 -11.2813109409383 17.4673232688734
vertex 15.3025158654176 -11.281269286644 18.4285748120188
endloop
endfacet
facet normal 0.961251543962331 1.393505509953e-006 -0.275672757500796
outer loop
vertex 14.5763581071692 -10.1499407450598 17.5964666931679
vertex 14.904442337634 -10.5640094865977 18.5427053440385
vertex 14.6287695804279 -10.5640511408921 17.5814538008932
endloop
endfacet
facet normal 0.928494373175696 0.258820390900712 -0.266289699829104
outer loop
vertex 14.904442337634 -10.5640094865977 18.5427053440385
vertex 14.5763581071692 -10.1499407450598 17.5964666931679
vertex 14.8520308643754 -10.1498990907654 18.5577182363132
endloop
endfacet
facet normal 0.480636876560327 -0.866024706279525 -0.137802035557519
outer loop
vertex 15.6210143322186 -8.7642573311093 18.3371250812041
vertex 15.0268140942887 -9.0185692431066 17.4672335373549
vertex 15.3453415750124 -8.76429898540368 17.3758735380587
endloop
endfacet
facet normal 0.679716552012889 -0.707105795215048 -0.194902035117654
outer loop
vertex 15.0268140942887 -9.0185692431066 17.4672335373549
vertex 15.6210143322186 -8.7642573311093 18.3371250812041
vertex 15.3024868514947 -9.01852758881222 18.4284850805003
endloop
endfacet
facet normal 0.928501010571243 -0.258817698854712 -0.266269172319539
outer loop
vertex 14.6287589605951 -9.73583019728332 17.581420956878
vertex 14.8520308643754 -10.1498990907654 18.5577182363132
vertex 14.5763581071692 -10.1499407450598 17.5964666931679
endloop
endfacet
facet normal 0.961251543962331 1.39350550746689e-006 -0.275672757500796
outer loop
vertex 14.8520308643754 -10.1498990907654 18.5577182363132
vertex 14.6287589605951 -9.73583019728332 17.581420956878
vertex 14.9044317178011 -9.73578854298898 18.5426725000232
endloop
endfacet
facet normal 0.248777821162953 0.965926186115929 -0.0713876647114128
outer loop
vertex 15.7163160636484 -11.6954204132364 17.269610544705
vertex 16.3900538506567 -11.7498968597669 18.1167052740774
vertex 16.1143810934507 -11.7499385140613 17.155453730932
endloop
endfacet
facet normal -1.28224635242274e-005 0.999999999131489 -3.96561032608164e-005
outer loop
vertex 16.3900538506567 -11.7498968597669 18.1167052740774
vertex 15.7163160636484 -11.6954204132364 17.269610544705
vertex 15.9919888208544 -11.695378758942 18.2308620878505
endloop
endfacet
facet normal -0.248777821162964 -0.965926186115927 0.0713876647114068
outer loop
vertex 16.7880778485759 -8.60441496337104 18.0024215607738
vertex 16.1143400615674 -8.54993851684051 17.1553268314016
vertex 16.5124050913699 -8.60445661766542 17.0411700176284
endloop
endfacet
facet normal 1.28224635577503e-005 -0.999999999131489 3.96561032506756e-005
outer loop
vertex 16.1143400615674 -8.54993851684051 17.1553268314016
vertex 16.7880778485759 -8.60441496337104 18.0024215607738
vertex 16.3900128187734 -8.54989686254616 18.116578374547
endloop
endfacet
facet normal -0.928501010571284 0.25881769885469 0.266269172319417
outer loop
vertex 17.875634951629 -10.5640051793241 17.690611148601
vertex 17.6523630478489 -10.149936285842 16.7143138691656
vertex 17.5999621944231 -10.5640468336185 16.7293596054556
endloop
endfacet
facet normal -0.961251543962369 -1.39350551374021e-006 0.275672757500662
outer loop
vertex 17.6523630478489 -10.149936285842 16.7143138691656
vertex 17.875634951629 -10.5640051793241 17.690611148601
vertex 17.9280358050549 -10.1498946315477 17.6755654123111
endloop
endfacet
facet normal 0.358684659181098 -0.337576635660044 -0.870280029832114
outer loop
vertex 14.7824011091408 -9.34994044704364 17.5373419340873
vertex 14.9044317178011 -9.73578854298898 18.5426725000232
vertex 14.6287589605951 -9.73583019728332 17.581420956878
endloop
endfacet
facet normal 0.928501010571244 -0.258817698854708 -0.266269172319539
outer loop
vertex 14.9044317178011 -9.73578854298898 18.5426725000232
vertex 14.7824011091408 -9.34994044704364 17.5373419340873
vertex 15.0580738663467 -9.34989879274927 18.4985934772325
endloop
endfacet
facet normal 0.480614667402 0.866026099785063 -0.13787072194319
outer loop
vertex 15.3453771096659 -11.535580275107 17.3759834362759
vertex 15.9919888208544 -11.695378758942 18.2308620878505
vertex 15.7163160636484 -11.6954204132364 17.269610544705
endloop
endfacet
facet normal 0.248777821162959 0.965926186115927 -0.0713876647114146
outer loop
vertex 15.9919888208544 -11.695378758942 18.2308620878505
vertex 15.3453771096659 -11.535580275107 17.3759834362759
vertex 15.6210498668719 -11.5355386208126 18.3372349794213
endloop
endfacet
facet normal -0.928494373175714 -0.258820390900718 0.266289699829035
outer loop
vertex 17.8756243317962 -9.73578423571537 17.6905783045857
vertex 17.4462995299357 -9.34993658524781 16.7733751784811
vertex 17.5999515745902 -9.73582589000972 16.7293267614404
endloop
endfacet
facet normal -0.832461845266636 -0.500001206376935 0.238759439178593
outer loop
vertex 17.4462995299357 -9.34993658524781 16.7733751784811
vertex 17.8756243317962 -9.73578423571537 17.6905783045857
vertex 17.7219722871418 -9.34989493095341 17.7346267216265
endloop
endfacet
facet normal -0.96125154396237 -1.39350551668096e-006 0.275672757500662
outer loop
vertex 17.9280358050549 -10.1498946315477 17.6755654123111
vertex 17.5999515745902 -9.73582589000972 16.7293267614404
vertex 17.6523630478489 -10.149936285842 16.7143138691656
endloop
endfacet
facet normal -0.928494373175712 -0.258820390900725 0.266289699829034
outer loop
vertex 17.5999515745902 -9.73582589000972 16.7293267614404
vertex 17.9280358050549 -10.1498946315477 17.6755654123111
vertex 17.8756243317962 -9.73578423571537 17.6905783045857
endloop
endfacet
facet normal -0.832461845266637 -0.500001206376933 0.238759439178594
outer loop
vertex 17.7219722871418 -9.34989493095341 17.7346267216265
vertex 17.2018780468065 -9.0185660899635 16.8434572934602
vertex 17.4462995299357 -9.34993658524781 16.7733751784811
endloop
endfacet
facet normal -0.679698418310884 -0.707107765929642 0.194958117316705
outer loop
vertex 17.2018780468065 -9.0185660899635 16.8434572934602
vertex 17.7219722871418 -9.34989493095341 17.7346267216265
vertex 17.4775508040126 -9.01852443566911 17.8047088366054
endloop
endfacet
facet normal 0.679716552012889 -0.707105795215048 -0.194902035117654
outer loop
vertex 15.0268140942887 -9.0185692431066 17.4672335373549
vertex 15.2428255917651 -9.09941536755709 18.4455985545006
vertex 14.9671528345591 -9.09945702185149 17.4843470113552
endloop
endfacet
facet normal 0.734165707269391 -0.430450550265316 0.525083839063746
outer loop
vertex 15.2428255917651 -9.09941536755709 18.4455985545006
vertex 15.0268140942887 -9.0185692431066 17.4672335373549
vertex 15.3024868514947 -9.01852758881222 18.4284850805003
endloop
endfacet
facet normal -0.275638889195192 -2.27590973448869e-005 -0.961261255978448
outer loop
vertex 13.6150635622267 -7.54994213953921 17.8720026353215
vertex 14.6287589605951 -9.73583019728332 17.581420956878
vertex 13.6151008657459 -12.7499421371561 17.8721064392882
endloop
endfacet
facet normal -0.275638889195192 -2.27590973448869e-005 -0.961261255978448
outer loop
vertex 14.6287589605951 -9.73583019728332 17.581420956878
vertex 13.6150635622267 -7.54994213953921 17.8720026353215
vertex 14.7824011091408 -9.34994044704364 17.5373419340873
endloop
endfacet
facet normal 0.358684659181098 -0.337576635660044 -0.870280029832114
outer loop
vertex 14.7824011091408 -9.34994044704364 17.5373419340873
vertex 13.6150635622267 -7.54994213953921 17.8720026353215
vertex 15.0268140942887 -9.0185692431066 17.4672335373549
endloop
endfacet
facet normal -0.275638889195192 -2.27590973448869e-005 -0.961261255978448
outer loop
vertex 15.0268140942887 -9.0185692431066 17.4672335373549
vertex 13.6150635622267 -7.54994213953921 17.8720026353215
vertex 15.3453415750124 -8.76429898540368 17.3758735380587
endloop
endfacet
facet normal -0.275638889195192 -2.27590973448869e-005 -0.961261255978448
outer loop
vertex 15.3453415750124 -8.76429898540368 17.3758735380587
vertex 13.6150635622267 -7.54994213953921 17.8720026353215
vertex 15.7162764298926 -8.6044577717959 17.2694879691713
endloop
endfacet
facet normal -0.275638889195192 -2.27590973448869e-005 -0.961261255978448
outer loop
vertex 15.7162764298926 -8.6044577717959 17.2694879691713
vertex 13.6150635622267 -7.54994213953921 17.8720026353215
vertex 18.6136199949955 -7.54993489368263 16.4386730967796
endloop
endfacet
facet normal -0.275638889195192 -2.27590973448869e-005 -0.961261255978448
outer loop
vertex 13.6151008657459 -12.7499421371561 17.8721064392882
vertex 14.6287589605951 -9.73583019728332 17.581420956878
vertex 14.5763581071692 -10.1499407450598 17.5964666931679
endloop
endfacet
facet normal 0.358684659181098 -0.337576635660044 -0.870280029832114
outer loop
vertex 14.7824011091408 -9.34994044704364 17.5373419340873
vertex 15.0268140942887 -9.0185692431066 17.4672335373549
vertex 14.9671528345591 -9.09945702185149 17.4843470113552
endloop
endfacet
facet normal -0.275638889195192 -2.27590973448869e-005 -0.961261255978448
outer loop
vertex 15.7162764298926 -8.6044577717959 17.2694879691713
vertex 18.6136199949955 -7.54993489368263 16.4386730967796
vertex 16.1143400615674 -8.54993851684051 17.1553268314016
endloop
endfacet
facet normal -0.275638889195192 -2.27590973448869e-005 -0.961261255978448
outer loop
vertex 16.1143400615674 -8.54993851684051 17.1553268314016
vertex 18.6136199949955 -7.54993489368263 16.4386730967796
vertex 16.5124050913699 -8.60445661766542 17.0411700176284
endloop
endfacet
facet normal -0.275638889195192 -2.27590973448869e-005 -0.961261255978448
outer loop
vertex 16.5124050913699 -8.60445661766542 17.0411700176284
vertex 18.6136199949955 -7.54993489368263 16.4386730967796
vertex 16.8833440453524 -8.76429675579481 16.9347971260577
endloop
endfacet
facet normal -0.275638889195192 -2.27590973448869e-005 -0.961261255978448
outer loop
vertex 16.8833440453524 -8.76429675579481 16.9347971260577
vertex 18.6136199949955 -7.54993489368263 16.4386730967796
vertex 17.2018780468065 -9.0185660899635 16.8434572934602
endloop
endfacet
facet normal -0.275638889195192 -2.27590973448869e-005 -0.961261255978448
outer loop
vertex 17.2018780468065 -9.0185660899635 16.8434572934602
vertex 18.6136199949955 -7.54993489368263 16.4386730967796
vertex 17.4462995299357 -9.34993658524781 16.7733751784811
endloop
endfacet
facet normal -0.275638889195192 -2.27590973448869e-005 -0.961261255978448
outer loop
vertex 17.4462995299357 -9.34993658524781 16.7733751784811
vertex 18.6136199949955 -7.54993489368263 16.4386730967796
vertex 17.5999515745902 -9.73582589000972 16.7293267614404
endloop
endfacet
facet normal -0.275638889195192 -2.27590973448869e-005 -0.961261255978448
outer loop
vertex 17.5999515745902 -9.73582589000972 16.7293267614404
vertex 18.6136199949955 -7.54993489368263 16.4386730967796
vertex 17.6523630478489 -10.149936285842 16.7143138691656
endloop
endfacet
facet normal -0.275638889195192 -2.27590973448869e-005 -0.961261255978448
outer loop
vertex 13.6151008657459 -12.7499421371561 17.8721064392882
vertex 15.7163160636484 -11.6954204132364 17.269610544705
vertex 18.6136616825382 -12.7499348909629 16.4387921896533
endloop
endfacet
facet normal -0.275638889195192 -2.27590973448869e-005 -0.961261255978448
outer loop
vertex 15.7163160636484 -11.6954204132364 17.269610544705
vertex 13.6151008657459 -12.7499421371561 17.8721064392882
vertex 15.3453771096659 -11.535580275107 17.3759834362759
endloop
endfacet
facet normal -0.275638889195192 -2.27590973448869e-005 -0.961261255978448
outer loop
vertex 15.3453771096659 -11.535580275107 17.3759834362759
vertex 13.6151008657459 -12.7499421371561 17.8721064392882
vertex 15.0268431082117 -11.2813109409383 17.4673232688734
endloop
endfacet
facet normal -0.275638889195192 -2.27590973448869e-005 -0.961261255978448
outer loop
vertex 15.0268431082117 -11.2813109409383 17.4673232688734
vertex 13.6151008657459 -12.7499421371561 17.8721064392882
vertex 14.7824216250824 -10.949940445654 17.5374053838525
endloop
endfacet
facet normal -0.275638889195192 -2.27590973448869e-005 -0.961261255978448
outer loop
vertex 14.7824216250824 -10.949940445654 17.5374053838525
vertex 13.6151008657459 -12.7499421371561 17.8721064392882
vertex 14.6287695804279 -10.5640511408921 17.5814538008932
endloop
endfacet
facet normal -0.275638889195192 -2.27590973448869e-005 -0.961261255978448
outer loop
vertex 14.6287695804279 -10.5640511408921 17.5814538008932
vertex 13.6151008657459 -12.7499421371561 17.8721064392882
vertex 14.5763581071692 -10.1499407450598 17.5964666931679
endloop
endfacet
facet normal -0.275638889195192 -2.27590973448869e-005 -0.961261255978448
outer loop
vertex 18.6136616825382 -12.7499348909629 16.4387921896533
vertex 15.7163160636484 -11.6954204132364 17.269610544705
vertex 16.1143810934507 -11.7499385140613 17.155453730932
endloop
endfacet
facet normal -0.275638889195192 -2.27590973448869e-005 -0.961261255978448
outer loop
vertex 18.6136616825382 -12.7499348909629 16.4387921896533
vertex 16.1143810934507 -11.7499385140613 17.155453730932
vertex 16.5124447251257 -11.6954192591059 17.0412925931622
endloop
endfacet
facet normal -0.275638889195192 -2.27590973448869e-005 -0.961261255978448
outer loop
vertex 18.6136616825382 -12.7499348909629 16.4387921896533
vertex 16.5124447251257 -11.6954192591059 17.0412925931622
vertex 16.8833795800057 -11.5355780454981 16.9349070242748
endloop
endfacet
facet normal -0.275638889195192 -2.27590973448869e-005 -0.961261255978448
outer loop
vertex 18.6136616825382 -12.7499348909629 16.4387921896533
vertex 16.8833795800057 -11.5355780454981 16.9349070242748
vertex 17.2019070607294 -11.2813077877952 16.8435470249787
endloop
endfacet
facet normal -0.275638889195192 -2.27590973448869e-005 -0.961261255978448
outer loop
vertex 18.6136616825382 -12.7499348909629 16.4387921896533
vertex 17.2019070607294 -11.2813077877952 16.8435470249787
vertex 17.2615683204591 -11.2004200090504 16.8264335509783
endloop
endfacet
facet normal -0.275638889195192 -2.27590973448869e-005 -0.961261255978448
outer loop
vertex 18.6136616825382 -12.7499348909629 16.4387921896533
vertex 17.2615683204591 -11.2004200090504 16.8264335509783
vertex 17.4463200458774 -10.9499365838582 16.7734386282463
endloop
endfacet
facet normal -0.275638889195192 -2.27590973448869e-005 -0.961261255978448
outer loop
vertex 18.6136616825382 -12.7499348909629 16.4387921896533
vertex 17.4463200458774 -10.9499365838582 16.7734386282463
vertex 17.5999621944231 -10.5640468336185 16.7293596054556
endloop
endfacet
facet normal -0.275638889195192 -2.27590973448869e-005 -0.961261255978448
outer loop
vertex 18.6136616825382 -12.7499348909629 16.4387921896533
vertex 17.5999621944231 -10.5640468336185 16.7293596054556
vertex 17.6523630478489 -10.149936285842 16.7143138691656
endloop
endfacet
facet normal -0.275638889195192 -2.27590973448869e-005 -0.961261255978448
outer loop
vertex 18.6136616825382 -12.7499348909629 16.4387921896533
vertex 17.6523630478489 -10.149936285842 16.7143138691656
vertex 18.6136199949955 -7.54993489368263 16.4386730967796
endloop
endfacet
facet normal -0.275638889195192 -2.27590973448869e-005 -0.961261255978448
outer loop
vertex 18.6136616825382 -12.7499348909629 16.4387921896533
vertex 18.6136199949955 -7.54993489368263 16.4386730967796
vertex 18.6136215232482 -7.64993489234581 16.4386779208754
endloop
endfacet
facet normal 0.67279778460241 -1.41735666559321e-006 -0.739826426286653
outer loop
vertex 13.6150635622267 -7.54994213953921 17.8720026353215
vertex 1.0000945060099 -19.2998932376535 6.39999999796704
vertex 1.00009450535946 -0.999893237653576 6.39998196419159
endloop
endfacet
facet normal 0.67279778460241 -1.41735666559321e-006 -0.739826426286653
outer loop
vertex 1.0000945060099 -19.2998932376535 6.39999999796704
vertex 13.6150635622267 -7.54994213953921 17.8720026353215
vertex 13.6151008657459 -12.7499421371561 17.8721064392882
endloop
endfacet
facet normal 0.275643610978528 1.3404203762625e-005 0.961259902184131
outer loop
vertex 13.8907941316366 -12.7499004836319 18.8334294944117
vertex 14.904442337634 -10.5640094865977 18.5427053440385
vertex 14.8520308643754 -10.1498990907654 18.5577182363132
endloop
endfacet
facet normal 0.275643610978528 1.3404203762625e-005 0.961259902184131
outer loop
vertex 14.904442337634 -10.5640094865977 18.5427053440385
vertex 13.8907941316366 -12.7499004836319 18.8334294944117
vertex 15.0580943822884 -10.9498987913596 18.4986569269978
endloop
endfacet
facet normal 0.275643610978528 1.3404203762625e-005 0.961259902184131
outer loop
vertex 15.0580943822884 -10.9498987913596 18.4986569269978
vertex 13.8907941316366 -12.7499004836319 18.8334294944117
vertex 15.3025158654176 -11.281269286644 18.4285748120188
endloop
endfacet
facet normal 0.275643610978528 1.3404203762625e-005 0.961259902184131
outer loop
vertex 15.3025158654176 -11.281269286644 18.4285748120188
vertex 13.8907941316366 -12.7499004836319 18.8334294944117
vertex 15.6210498668719 -11.5355386208126 18.3372349794213
endloop
endfacet
facet normal 0.275643610978528 1.3404203762625e-005 0.961259902184131
outer loop
vertex 15.6210498668719 -11.5355386208126 18.3372349794213
vertex 13.8907941316366 -12.7499004836319 18.8334294944117
vertex 15.9919888208544 -11.695378758942 18.2308620878505
endloop
endfacet
facet normal 0.275643610978528 1.3404203762625e-005 0.961259902184131
outer loop
vertex 15.9919888208544 -11.695378758942 18.2308620878505
vertex 13.8907941316366 -12.7499004836319 18.8334294944117
vertex 18.8893261395101 -12.7498932374192 17.4000147864429
endloop
endfacet
facet normal 0.275643610978528 1.3404203762625e-005 0.961259902184131
outer loop
vertex 15.9919888208544 -11.695378758942 18.2308620878505
vertex 18.8893261395101 -12.7498932374192 17.4000147864429
vertex 16.3900538506567 -11.7498968597669 18.1167052740774
endloop
endfacet
facet normal 0.275643610978528 1.3404203762625e-005 0.961259902184131
outer loop
vertex 16.3900538506567 -11.7498968597669 18.1167052740774
vertex 18.8893261395101 -12.7498932374192 17.4000147864429
vertex 16.7881174823317 -11.6953776048115 18.0025441363077
endloop
endfacet
facet normal 0.275643610978528 1.3404203762625e-005 0.961259902184131
outer loop
vertex 16.7881174823317 -11.6953776048115 18.0025441363077
vertex 18.8893261395101 -12.7498932374192 17.4000147864429
vertex 17.1590523372116 -11.5355363912037 17.8961585674202
endloop
endfacet
facet normal 0.275643610978528 1.3404203762625e-005 0.961259902184131
outer loop
vertex 17.1590523372116 -11.5355363912037 17.8961585674202
vertex 18.8893261395101 -12.7498932374192 17.4000147864429
vertex 17.4775798179355 -11.2812661335008 17.804798568124
endloop
endfacet
facet normal 0.275643610978528 1.3404203762625e-005 0.961259902184131
outer loop
vertex 17.4775798179355 -11.2812661335008 17.804798568124
vertex 18.8893261395101 -12.7498932374192 17.4000147864429
vertex 17.5372410776651 -11.200378354756 17.7876850941236
endloop
endfacet
facet normal 0.275643610978528 1.3404203762625e-005 0.961259902184131
outer loop
vertex 17.5372410776651 -11.200378354756 17.7876850941236
vertex 18.8893261395101 -12.7498932374192 17.4000147864429
vertex 17.7219928030835 -10.9498949295638 17.7346901713917
endloop
endfacet
facet normal 0.275643610978528 1.3404203762625e-005 0.961259902184131
outer loop
vertex 17.7219928030835 -10.9498949295638 17.7346901713917
vertex 18.8893261395101 -12.7498932374192 17.4000147864429
vertex 17.875634951629 -10.5640051793241 17.690611148601
endloop
endfacet
facet normal 0.275643610978528 1.3404203762625e-005 0.961259902184131
outer loop
vertex 17.875634951629 -10.5640051793241 17.690611148601
vertex 18.8893261395101 -12.7498932374192 17.4000147864429
vertex 17.9280358050549 -10.1498946315477 17.6755654123111
endloop
endfacet
facet normal 0.275643610978528 1.3404203762625e-005 0.961259902184131
outer loop
vertex 17.9280358050549 -10.1498946315477 17.6755654123111
vertex 18.8893261395101 -12.7498932374192 17.4000147864429
vertex 18.8893194407895 -7.54989323946911 17.4000177140925
endloop
endfacet
facet normal 0.275643610978528 1.3404203762625e-005 0.961259902184131
outer loop
vertex 13.8907484718043 -7.54990048565545 18.8332965588232
vertex 15.9919491870985 -8.60441611750153 18.2307395123166
vertex 18.8893194407895 -7.54989323946911 17.4000177140925
endloop
endfacet
facet normal 0.275643610978528 1.3404203762625e-005 0.961259902184131
outer loop
vertex 15.9919491870985 -8.60441611750153 18.2307395123166
vertex 13.8907484718043 -7.54990048565545 18.8332965588232
vertex 15.6210143322186 -8.7642573311093 18.3371250812041
endloop
endfacet
facet normal 0.275643610978528 1.3404203762625e-005 0.961259902184131
outer loop
vertex 15.6210143322186 -8.7642573311093 18.3371250812041
vertex 13.8907484718043 -7.54990048565545 18.8332965588232
vertex 15.3024868514947 -9.01852758881222 18.4284850805003
endloop
endfacet
facet normal 0.275643610978528 1.3404203762625e-005 0.961259902184131
outer loop
vertex 15.3024868514947 -9.01852758881222 18.4284850805003
vertex 13.8907484718043 -7.54990048565545 18.8332965588232
vertex 15.0580738663467 -9.34989879274927 18.4985934772325
endloop
endfacet
facet normal 0.765374277095919 -0.337555539551077 0.547958459810852
outer loop
vertex 15.0580738663467 -9.34989879274927 18.4985934772325
vertex 13.8907484718043 -7.54990048565545 18.8332965588232
vertex 14.9044317178011 -9.73578854298898 18.5426725000232
endloop
endfacet
facet normal 0.275643610978528 1.3404203762625e-005 0.961259902184131
outer loop
vertex 14.9044317178011 -9.73578854298898 18.5426725000232
vertex 13.8907484718043 -7.54990048565545 18.8332965588232
vertex 13.8907941316366 -12.7499004836319 18.8334294944117
endloop
endfacet
facet normal 0.275643610978528 1.3404203762625e-005 0.961259902184131
outer loop
vertex 14.9044317178011 -9.73578854298898 18.5426725000232
vertex 13.8907941316366 -12.7499004836319 18.8334294944117
vertex 14.8520308643754 -10.1498990907654 18.5577182363132
endloop
endfacet
facet normal 0.275643610978528 1.3404203762625e-005 0.961259902184131
outer loop
vertex 15.3024868514947 -9.01852758881222 18.4284850805003
vertex 15.0580738663467 -9.34989879274927 18.4985934772325
vertex 15.2428255917651 -9.09941536755709 18.4455985545006
endloop
endfacet
facet normal 0.275643610978528 1.3404203762625e-005 0.961259902184131
outer loop
vertex 18.8893194407895 -7.54989323946911 17.4000177140925
vertex 15.9919491870985 -8.60441611750153 18.2307395123166
vertex 16.3900128187734 -8.54989686254616 18.116578374547
endloop
endfacet
facet normal 0.275643610978528 1.3404203762625e-005 0.961259902184131
outer loop
vertex 18.8893194407895 -7.54989323946911 17.4000177140925
vertex 16.3900128187734 -8.54989686254616 18.116578374547
vertex 16.7880778485759 -8.60441496337104 18.0024215607738
endloop
endfacet
facet normal 0.275643610978528 1.3404203762625e-005 0.961259902184131
outer loop
vertex 18.8893194407895 -7.54989323946911 17.4000177140925
vertex 16.7880778485759 -8.60441496337104 18.0024215607738
vertex 17.1590168025583 -8.76425510150043 17.8960486692031
endloop
endfacet
facet normal 0.275643610978528 1.3404203762625e-005 0.961259902184131
outer loop
vertex 18.8893194407895 -7.54989323946911 17.4000177140925
vertex 17.1590168025583 -8.76425510150043 17.8960486692031
vertex 17.4775508040126 -9.01852443566911 17.8047088366054
endloop
endfacet
facet normal 0.275643610978528 1.3404203762625e-005 0.961259902184131
outer loop
vertex 18.8893194407895 -7.54989323946911 17.4000177140925
vertex 17.4775508040126 -9.01852443566911 17.8047088366054
vertex 17.7219722871418 -9.34989493095341 17.7346267216265
endloop
endfacet
facet normal 0.275643610978528 1.3404203762625e-005 0.961259902184131
outer loop
vertex 18.8893194407895 -7.54989323946911 17.4000177140925
vertex 17.7219722871418 -9.34989493095341 17.7346267216265
vertex 17.8756243317962 -9.73578423571537 17.6905783045857
endloop
endfacet
facet normal 0.275643610978528 1.3404203762625e-005 0.961259902184131
outer loop
vertex 18.8893194407895 -7.54989323946911 17.4000177140925
vertex 17.8756243317962 -9.73578423571537 17.6905783045857
vertex 17.9280358050549 -10.1498946315477 17.6755654123111
endloop
endfacet
facet normal -0.663552993758931 9.93561184771595e-007 0.74812928326097
outer loop
vertex 1.0000945060099 -19.2998932376535 7.39998196419159
vertex 13.8907484718043 -7.54990048565545 18.8332965588232
vertex 1.00009450535946 -0.999893237653576 7.39998196419159
endloop
endfacet
facet normal -0.663552993758931 9.93561184771595e-007 0.74812928326097
outer loop
vertex 13.8907484718043 -7.54990048565545 18.8332965588232
vertex 1.0000945060099 -19.2998932376535 7.39998196419159
vertex 13.8907941316366 -12.7499004836319 18.8334294944117
endloop
endfacet
facet normal -1.26292256499599e-016 -1.0 -1.83603396635242e-016
outer loop
vertex 22.7903545530572 -20.2999999999999 3.38395977905748e-014
vertex 0.528432010135456 -20.2999999999999 10.527720297727
vertex 0.0 -20.3 0.0
endloop
endfacet
facet normal -1.26292256499599e-016 -1.0 -1.83603396635242e-016
outer loop
vertex 0.528432010135456 -20.2999999999999 10.527720297727
vertex 22.7903545530572 -20.2999999999999 3.38395977905748e-014
vertex 22.6512980397874 -20.3 4.63410553824375
endloop
endfacet
facet normal -1.26292256499599e-016 -1.0 -1.83603396635242e-016
outer loop
vertex 0.528432010135456 -20.2999999999999 10.527720297727
vertex 22.6512980397874 -20.3 4.63410553824375
vertex 31.2194293716105 -20.3 19.474544330884
endloop
endfacet
facet normal -1.26292256499599e-016 -1.0 -1.83603396635242e-016
outer loop
vertex 0.528432010135456 -20.2999999999999 10.527720297727
vertex 31.2194293716105 -20.3 19.474544330884
vertex 11.0752697984558 -20.3 28.7953792062852
endloop
endfacet
facet normal -1.26292256499599e-016 -1.0 -1.83603396635242e-016
outer loop
vertex 11.0752697984558 -20.3 28.7953792062852
vertex 31.2194293716105 -20.3 19.474544330884
vertex 9.56379612748092 -20.3 31.9774300138541
endloop
endfacet
facet normal -1.26292256499599e-016 -1.0 -1.83603396635242e-016
outer loop
vertex 11.0752697984558 -20.3 28.7953792062852
vertex 9.56379612748092 -20.3 31.9774300138541
vertex 8.5637961274809 -20.3 30.2453792062852
endloop
endfacet
facet normal -1.87869686516579e-006 -2.24357777283912e-005 -0.999999999746553
outer loop
vertex 2.89999812130313 -2.90002243577772 -1.0003570685007
vertex 7.49698028354633 -7.60078528986736 -1.0002413160497
vertex 2.89999812130313 -17.4000224357777 -0.999999999746551
endloop
endfacet
facet normal -1.87869686516579e-006 -2.24357777283912e-005 -0.999999999746553
outer loop
vertex 7.49698028354633 -7.60078528986736 -1.0002413160497
vertex 2.89999812130313 -2.90002243577772 -1.0003570685007
vertex 19.7999981084245 -2.90002243577772 -1.0003570685007
endloop
endfacet
facet normal -1.87869686516579e-006 -2.24357777283912e-005 -0.999999999746553
outer loop
vertex 2.89999812130313 -17.4000224357777 -0.999999999746551
vertex 7.49698028354633 -7.60078528986736 -1.0002413160497
vertex 7.49698020726089 -12.7409596683079 -1.00013161984024
endloop
endfacet
facet normal -1.87869686516579e-006 -2.24357777283912e-005 -0.999999999746553
outer loop
vertex 7.49698028354633 -7.60078528986736 -1.0002413160497
vertex 19.7999981084245 -2.90002243577772 -1.0003570685007
vertex 8.55935452901495 -7.60078530569797 -1.00024430986811
endloop
endfacet
facet normal -1.87869686516579e-006 -2.24357777283912e-005 -0.999999999746553
outer loop
vertex 8.55935452901495 -7.60078530569797 -1.00024430986811
vertex 19.7999981084245 -2.90002243577772 -1.0003570685007
vertex 10.2387642796468 -10.3935418693226 -1.00018944244004
endloop
endfacet
facet normal -1.87869686516579e-006 -2.24357777283912e-005 -0.999999999746553
outer loop
vertex 10.2387642796468 -10.3935418693226 -1.00018944244004
vertex 19.7999981084245 -2.90002243577772 -1.0003570685007
vertex 11.894029213221 -9.67187858093968 -1.00020950803244
endloop
endfacet
facet normal -1.87869686516579e-006 -2.24357777283912e-005 -0.999999999746553
outer loop
vertex 11.894029213221 -9.67187858093968 -1.00020950803244
vertex 19.7999981084245 -2.90002243577772 -1.0003570685007
vertex 13.5412458546679 -9.11118108716881 -1.00022611578126
endloop
endfacet
facet normal -1.87869686516579e-006 -2.24357777283912e-005 -0.999999999746553
outer loop
vertex 13.5412458546679 -9.11118108716881 -1.00022611578126
vertex 19.7999981084245 -2.90002243577772 -1.0003570685007
vertex 15.1911452564943 -8.74364254711626 -1.00023860889446
endloop
endfacet
facet normal -1.87869686516579e-006 -2.24357777283912e-005 -0.999999999746553
outer loop
vertex 7.49698020726089 -12.7409596683079 -1.00013161984024
vertex 19.7999981084245 -17.4000224370633 -1.00006349970053
vertex 2.89999812130313 -17.4000224357777 -0.999999999746551
endloop
endfacet
facet normal -1.87869686516579e-006 -2.24357777283912e-005 -0.999999999746553
outer loop
vertex 19.7999981084245 -17.4000224370633 -1.00006349970053
vertex 7.49698020726089 -12.7409596683079 -1.00013161984024
vertex 8.11938128036372 -12.7409596775823 -1.00013337379446
endloop
endfacet
facet normal -1.87869686516579e-006 -2.24357777283912e-005 -0.999999999746553
outer loop
vertex 19.7999981084245 -17.4000224370633 -1.00006349970053
vertex 8.11938128036372 -12.7409596775823 -1.00013337379446
vertex 9.87122569362557 -11.8288202002058 -1.00015777649521
endloop
endfacet
facet normal -1.87869686516579e-006 -2.24357777283912e-005 -0.999999999746553
outer loop
vertex 19.7999981084245 -17.4000224370633 -1.00006349970053
vertex 9.87122569362557 -11.8288202002058 -1.00015777649521
vertex 11.6123390519121 -11.0508188849459 -1.00017928631943
endloop
endfacet
facet normal -1.87869686516579e-006 -2.24357777283912e-005 -0.999999999746553
outer loop
vertex 19.7999981084245 -17.4000224370633 -1.00006349970053
vertex 11.6123390519121 -11.0508188849459 -1.00017928631943
vertex 13.3749145136196 -10.44451441772 -1.00019719245081
endloop
endfacet
facet normal -1.87869686516579e-006 -2.24357777283912e-005 -0.999999999746553
outer loop
vertex 19.7999981084245 -17.4000224370633 -1.00006349970053
vertex 13.3749145136196 -10.44451441772 -1.00019719245081
vertex 14.2729695136469 -10.2164795552318 -1.00020458969129
endloop
endfacet
facet normal -1.87869686516579e-006 -2.24357777283912e-005 -0.999999999746553
outer loop
vertex 19.7999981084245 -17.4000224370633 -1.00006349970053
vertex 14.2729695136469 -10.2164795552318 -1.00020458969129
vertex 15.1911452371442 -10.0474654844451 -1.00021078407307
endloop
endfacet
facet normal -1.87869686516579e-006 -2.24357777283912e-005 -0.999999999746553
outer loop
vertex 19.7999981084245 -17.4000224370633 -1.00006349970053
vertex 15.1911452371442 -10.0474654844451 -1.00021078407307
vertex 15.1911452564943 -8.74364254711626 -1.00023860889446
endloop
endfacet
facet normal -1.87869686516579e-006 -2.24357777283912e-005 -0.999999999746553
outer loop
vertex 19.7999981084245 -17.4000224370633 -1.00006349970053
vertex 15.1911452564943 -8.74364254711626 -1.00023860889446
vertex 19.7999981084245 -2.90002243577772 -1.0003570685007
endloop
endfacet
facet normal -1.87869686516579e-006 -2.24357777283912e-005 -0.999999999746553
outer loop
vertex 10.2387642796468 -10.3935418693226 -1.00018944244004
vertex 8.55935447494625 -11.2439777931313 -1.00016656067581
vertex 8.55935452901495 -7.60078530569797 -1.00024430986811
endloop
endfacet
facet normal -2.81804529774348e-006 -2.13409509359864e-005 -0.999999999768311
outer loop
vertex 7.49698310159163 -7.60076394891642 -0.000241316281384281
vertex 8.11938409840901 -12.7409383366314 -0.000133374026151048
vertex 7.49698302530619 -12.7409383273569 -0.000131620071931099
endloop
endfacet
facet normal -2.81804529774348e-006 -2.13409509359864e-005 -0.999999999768311
outer loop
vertex 8.11938409840901 -12.7409383366314 -0.000133374026151048
vertex 7.49698310159163 -7.60076394891642 -0.000241316281384281
vertex 8.55935734706025 -7.60076396474704 -0.000244310099793987
endloop
endfacet
facet normal -2.81804529774348e-006 -2.13409509359864e-005 -0.999999999768311
outer loop
vertex 8.11938409840901 -12.7409383366314 -0.000133374026151048
vertex 8.55935734706025 -7.60076396474704 -0.000244310099793987
vertex 8.55935729299155 -11.2439564521803 -0.000166560907499005
endloop
endfacet
facet normal -2.81804529774348e-006 -2.13409509359864e-005 -0.999999999768311
outer loop
vertex 8.55935729299155 -11.2439564521803 -0.000166560907499005
vertex 9.87122851167086 -11.8287988592548 -0.000157776726901393
vertex 8.11938409840901 -12.7409383366314 -0.000133374026151048
endloop
endfacet
facet normal -2.81804529774348e-006 -2.13409509359864e-005 -0.999999999768311
outer loop
vertex 9.87122851167086 -11.8287988592548 -0.000157776726901393
vertex 8.55935729299155 -11.2439564521803 -0.000166560907499005
vertex 10.2387670976921 -10.3935205283716 -0.000189442671731492
endloop
endfacet
facet normal -2.81804529774348e-006 -2.13409509359864e-005 -0.999999999768311
outer loop
vertex 9.87122851167086 -11.8287988592548 -0.000157776726901393
vertex 10.2387670976921 -10.3935205283716 -0.000189442671731492
vertex 11.6123418699574 -11.050797543995 -0.000179286551115557
endloop
endfacet
facet normal -2.81804529774348e-006 -2.13409509359864e-005 -0.999999999768311
outer loop
vertex 11.6123418699574 -11.050797543995 -0.000179286551115557
vertex 10.2387670976921 -10.3935205283716 -0.000189442671731492
vertex 11.8940320312663 -9.67185723998874 -0.000209508264128438
endloop
endfacet
facet normal -2.81804529774348e-006 -2.13409509359864e-005 -0.999999999768311
outer loop
vertex 11.6123418699574 -11.050797543995 -0.000179286551115557
vertex 11.8940320312663 -9.67185723998874 -0.000209508264128438
vertex 13.3749173316649 -10.4444930767691 -0.000197192682498822
endloop
endfacet
facet normal -2.81804529774348e-006 -2.13409509359864e-005 -0.999999999768311
outer loop
vertex 13.3749173316649 -10.4444930767691 -0.000197192682498822
vertex 11.8940320312663 -9.67185723998874 -0.000209508264128438
vertex 13.5412486727132 -9.11115974621787 -0.000226116012947693
endloop
endfacet
facet normal -2.81804529774348e-006 -2.13409509359864e-005 -0.999999999768311
outer loop
vertex 13.3749173316649 -10.4444930767691 -0.000197192682498822
vertex 13.5412486727132 -9.11115974621787 -0.000226116012947693
vertex 14.2729723316922 -10.2164582142808 -0.000204589922982502
endloop
endfacet
facet normal -2.81804529774348e-006 -2.13409509359864e-005 -0.999999999768311
outer loop
vertex 14.2729723316922 -10.2164582142808 -0.000204589922982502
vertex 13.5412486727132 -9.11115974621787 -0.000226116012947693
vertex 15.1911480745396 -8.74362120616532 -0.000238609126152009
endloop
endfacet
facet normal -2.81804529774348e-006 -2.13409509359864e-005 -0.999999999768311
outer loop
vertex 14.2729723316922 -10.2164582142808 -0.000204589922982502
vertex 15.1911480745396 -8.74362120616532 -0.000238609126152009
vertex 15.1911480551895 -10.0474441434942 -0.000210784304756118
endloop
endfacet
facet normal -0.237726672074287 0.971332089957967 -2.00592259486024e-005
outer loop
vertex 8.11938128036372 -12.7409596775823 -1.00013337379446
vertex 9.87122851167086 -11.8287988592548 -0.000157776726901393
vertex 9.87122569362557 -11.8288202002058 -1.00015777649521
endloop
endfacet
facet normal -0.435088689482502 0.90038760095905 -1.79890279841079e-005
outer loop
vertex 9.87122851167086 -11.8287988592548 -0.000157776726901393
vertex 8.11938128036372 -12.7409596775823 -1.00013337379446
vertex 8.11938409840901 -12.7409383366314 -0.000133374026151048
endloop
endfacet
facet normal 1.48410195154996e-008 0.999999999772282 -2.13409509778938e-005
outer loop
vertex 7.49698020726089 -12.7409596683079 -1.00013161984024
vertex 8.11938409840901 -12.7409383366314 -0.000133374026151048
vertex 8.11938128036372 -12.7409596775823 -1.00013337379446
endloop
endfacet
facet normal -0.237726672074287 0.971332089957967 -2.00592259486025e-005
outer loop
vertex 8.11938409840901 -12.7409383366314 -0.000133374026151048
vertex 7.49698020726089 -12.7409596683079 -1.00013161984024
vertex 7.49698302530619 -12.7409383273569 -0.000131620071931099
endloop
endfacet
facet normal 0.999999999996029 -1.49011626575705e-008 -2.81804498038022e-006
outer loop
vertex 7.49698028354633 -7.60078528986736 -1.0002413160497
vertex 7.49698302530619 -12.7409383273569 -0.000131620071931099
vertex 7.49698020726089 -12.7409596683079 -1.00013161984024
endloop
endfacet
facet normal 0.999999999996029 -1.49011626575705e-008 -2.81804498038022e-006
outer loop
vertex 7.49698302530619 -12.7409383273569 -0.000131620071931099
vertex 7.49698028354633 -7.60078528986736 -1.0002413160497
vertex 7.49698310159163 -7.60076394891642 -0.000241316281384281
endloop
endfacet
facet normal -1.48410236344007e-008 -0.999999999772282 2.13409509778938e-005
outer loop
vertex 8.55935734706025 -7.60076396474704 -0.000244310099793987
vertex 7.49698028354633 -7.60078528986736 -1.0002413160497
vertex 8.55935452901495 -7.60078530569797 -1.00024430986811
endloop
endfacet
facet normal -1.48410236344007e-008 -0.999999999772282 2.13409509778938e-005
outer loop
vertex 7.49698028354633 -7.60078528986736 -1.0002413160497
vertex 8.55935734706025 -7.60076396474704 -0.000244310099793987
vertex 7.49698310159163 -7.60076394891642 -0.000241316281384281
endloop
endfacet
facet normal -0.999999999996029 1.49011627577589e-008 2.81804498038022e-006
outer loop
vertex 8.55935729299155 -11.2439564521803 -0.000166560907499005
vertex 8.55935452901495 -7.60078530569797 -1.00024430986811
vertex 8.55935447494625 -11.2439777931313 -1.00016656067581
endloop
endfacet
facet normal -0.999999999996029 1.49011627577589e-008 2.81804498038022e-006
outer loop
vertex 8.55935452901495 -7.60078530569797 -1.00024430986811
vertex 8.55935729299155 -11.2439564521803 -0.000166560907499005
vertex 8.55935734706025 -7.60076396474704 -0.000244310099793987
endloop
endfacet
facet normal 0.425885502075732 -0.904777065797857 1.81086383368917e-005
outer loop
vertex 10.2387670976921 -10.3935205283716 -0.000189442671731492
vertex 8.55935447494625 -11.2439777931313 -1.00016656067581
vertex 10.2387642796468 -10.3935418693226 -1.00018944244004
endloop
endfacet
facet normal 0.451768205396599 -0.89213535311471 1.77659135363082e-005
outer loop
vertex 8.55935447494625 -11.2439777931313 -1.00016656067581
vertex 10.2387670976921 -10.3935205283716 -0.000189442671731492
vertex 8.55935729299155 -11.2439564521803 -0.000166560907499005
endloop
endfacet
facet normal 0.361253289179244 -0.932467726358751 1.88817198691216e-005
outer loop
vertex 11.8940320312663 -9.67185723998874 -0.000209508264128438
vertex 10.2387642796468 -10.3935418693226 -1.00018944244004
vertex 11.894029213221 -9.67187858093968 -1.00020950803244
endloop
endfacet
facet normal 0.425885502075732 -0.904777065797857 1.81086383368917e-005
outer loop
vertex 10.2387642796468 -10.3935418693226 -1.00018944244004
vertex 11.8940320312663 -9.67185723998874 -0.000209508264128438
vertex 10.2387670976921 -10.3935205283716 -0.000189442671731492
endloop
endfacet
facet normal 0.270234994510923 -0.962794395159329 1.97854134975548e-005
outer loop
vertex 13.5412486727132 -9.11115974621787 -0.000226116012947693
vertex 11.894029213221 -9.67187858093968 -1.00020950803244
vertex 13.5412458546679 -9.11118108716881 -1.00022611578126
endloop
endfacet
facet normal 0.361253289179244 -0.932467726358751 1.88817198691217e-005
outer loop
vertex 11.894029213221 -9.67187858093968 -1.00020950803244
vertex 13.5412486727132 -9.11115974621787 -0.000226116012947693
vertex 11.8940320312663 -9.67185723998874 -0.000209508264128438
endloop
endfacet
facet normal 0.217434556387911 -0.976074901469985 2.0217626157607e-005
outer loop
vertex 15.1911480745396 -8.74362120616532 -0.000238609126152009
vertex 13.5412458546679 -9.11118108716881 -1.00022611578126
vertex 15.1911452564943 -8.74364254711626 -1.00023860889446
endloop
endfacet
facet normal 0.270234994510923 -0.962794395159329 1.97854134975548e-005
outer loop
vertex 13.5412458546679 -9.11118108716881 -1.00022611578126
vertex 15.1911480745396 -8.74362120616532 -0.000238609126152009
vertex 13.5412486727132 -9.11115974621787 -0.000226116012947693
endloop
endfacet
facet normal -0.999999999996029 1.49011624137428e-008 2.81804498038023e-006
outer loop
vertex 15.1911480551895 -10.0474441434942 -0.000210784304756118
vertex 15.1911452564943 -8.74364254711626 -1.00023860889446
vertex 15.1911452371442 -10.0474654844451 -1.00021078407307
endloop
endfacet
facet normal -0.999999999996029 1.49011624137428e-008 2.81804498038023e-006
outer loop
vertex 15.1911452564943 -8.74364254711626 -1.00023860889446
vertex 15.1911480551895 -10.0474441434942 -0.000210784304756118
vertex 15.1911480745396 -8.74362120616532 -0.000238609126152009
endloop
endfacet
facet normal -0.21369110540994 0.976901280098857 -2.02458110778127e-005
outer loop
vertex 14.2729695136469 -10.2164795552318 -1.00020458969129
vertex 15.1911480551895 -10.0474441434942 -0.000210784304756118
vertex 15.1911452371442 -10.0474654844451 -1.00021078407307
endloop
endfacet
facet normal -0.181034421447497 0.983476760188981 -2.04781660905306e-005
outer loop
vertex 15.1911480551895 -10.0474441434942 -0.000210784304756118
vertex 14.2729695136469 -10.2164795552318 -1.00020458969129
vertex 14.2729723316922 -10.2164582142808 -0.000204589922982502
endloop
endfacet
facet normal -0.285939847755951 0.95824756878346 -1.96441229110813e-005
outer loop
vertex 13.3749145136196 -10.44451441772 -1.00019719245081
vertex 14.2729723316922 -10.2164582142808 -0.000204589922982502
vertex 14.2729695136469 -10.2164795552318 -1.00020458969129
endloop
endfacet
facet normal -0.21369110540994 0.976901280098857 -2.02458110778127e-005
outer loop
vertex 14.2729723316922 -10.2164582142808 -0.000204589922982502
vertex 13.3749145136196 -10.44451441772 -1.00019719245081
vertex 13.3749173316649 -10.4444930767691 -0.000197192682498822
endloop
endfacet
facet normal -0.366985545611659 0.930226643865895 -1.88177392792985e-005
outer loop
vertex 11.6123390519121 -11.0508188849459 -1.00017928631943
vertex 13.3749173316649 -10.4444930767691 -0.000197192682498822
vertex 13.3749145136196 -10.44451441772 -1.00019719245081
endloop
endfacet
facet normal -0.285939847755951 0.95824756878346 -1.96441229110813e-005
outer loop
vertex 13.3749173316649 -10.4444930767691 -0.000197192682498822
vertex 11.6123390519121 -11.0508188849459 -1.00017928631943
vertex 11.6123418699574 -11.050797543995 -0.000179286551115557
endloop
endfacet
facet normal -0.435088689482502 0.90038760095905 -1.79890279841079e-005
outer loop
vertex 9.87122569362557 -11.8288202002058 -1.00015777649521
vertex 11.6123418699574 -11.050797543995 -0.000179286551115557
vertex 11.6123390519121 -11.0508188849459 -1.00017928631943
endloop
endfacet
facet normal -0.366985545611659 0.930226643865895 -1.88177392792985e-005
outer loop
vertex 11.6123418699574 -11.050797543995 -0.000179286551115557
vertex 9.87122569362557 -11.8288202002058 -1.00015777649521
vertex 9.87122851167086 -11.8287988592548 -0.000157776726901393
endloop
endfacet
endsolid size-display-7-in
